<?xml version="1.0" encoding="UTF-8" standalone="no"?>
<svg
   width="200mm"
   height="100mm"
   viewBox="0 0 20000 10000"
   version="1.1"
   stroke-width="28.222"
   stroke-linejoin="round"
   xml:space="preserve"
   id="svg420"
   sodipodi:docname="meino smit - energie_fte - inset.svg"
   inkscape:version="1.1.1 (3bf5ae0d25, 2021-09-20)"
   xmlns:inkscape="http://www.inkscape.org/namespaces/inkscape"
   xmlns:sodipodi="http://sodipodi.sourceforge.net/DTD/sodipodi-0.dtd"
   xmlns="http://www.w3.org/2000/svg"
   xmlns:svg="http://www.w3.org/2000/svg"><defs
   id="defs424"><linearGradient
     id="Gradient_6"
     gradientUnits="userSpaceOnUse"
     x1="3848"
     y1="230"
     x2="3848"
     y2="2753">
   <stop
   offset="0.3"
   stop-color="rgb(204,0,0)"
   id="stop1245" />
   <stop
   offset="1"
   stop-color="rgb(0,153,0)"
   id="stop1247" />
  </linearGradient><linearGradient
     id="Gradient_2"
     gradientUnits="userSpaceOnUse"
     x1="3984"
     y1="229"
     x2="3984"
     y2="2753">
   <stop
   offset="0.3"
   stop-color="rgb(204,0,0)"
   id="stop1235" />
   <stop
   offset="1"
   stop-color="rgb(0,153,0)"
   id="stop1237" />
  </linearGradient></defs><sodipodi:namedview
   id="namedview422"
   pagecolor="#ffffff"
   bordercolor="#666666"
   borderopacity="1.0"
   inkscape:pageshadow="2"
   inkscape:pageopacity="0.0"
   inkscape:pagecheckerboard="0"
   inkscape:document-units="mm"
   showgrid="false"
   inkscape:zoom="1.5650104"
   inkscape:cx="377.95276"
   inkscape:cy="189.13612"
   inkscape:window-width="1876"
   inkscape:window-height="1051"
   inkscape:window-x="0"
   inkscape:window-y="0"
   inkscape:window-maximized="1"
   inkscape:current-layer="svg420" />
 <path
   fill="rgb(255,255,255)"
   stroke="none"
   d="M 10000,10000 L 0,10000 0,0 20000,0 20000,10000 10000,10000 Z"
   id="path2" />
 <path
   fill="none"
   stroke="rgb(179,179,179)"
   stroke-linejoin="round"
   d="M 10971,8370 L 2715,8370 2715,400 19228,400 19228,8370 10971,8370 Z"
   id="path4" />
 <path
   fill="none"
   stroke="rgb(179,179,179)"
   stroke-linejoin="round"
   d="M 19228,8369 L 2715,8369"
   id="path6" />
 <path
   fill="none"
   stroke="rgb(179,179,179)"
   stroke-linejoin="round"
   d="M 19228,7040 L 2715,7040"
   id="path8" />
 <path
   fill="none"
   stroke="rgb(179,179,179)"
   stroke-linejoin="round"
   d="M 19228,5712 L 2715,5712"
   id="path10" />
 <path
   fill="none"
   stroke="rgb(179,179,179)"
   stroke-linejoin="round"
   d="M 19228,4384 L 2715,4384"
   id="path12" />
 <path
   fill="none"
   stroke="rgb(179,179,179)"
   stroke-linejoin="round"
   d="M 19228,3056 L 2715,3056"
   id="path14" />
 <path
   fill="none"
   stroke="rgb(179,179,179)"
   stroke-linejoin="round"
   d="M 19228,1727 L 2715,1727"
   id="path16" />
 <path
   fill="none"
   stroke="rgb(179,179,179)"
   stroke-linejoin="round"
   d="M 19228,399 L 2715,399"
   id="path18" />
 <path
   fill="none"
   stroke="rgb(179,179,179)"
   stroke-linejoin="round"
   d="M 2715,8519 L 2715,8369"
   id="path20" />
 <path
   fill="none"
   stroke="rgb(179,179,179)"
   stroke-linejoin="round"
   d="M 2715,8519 L 2715,8369"
   id="path22" />
 <path
   fill="none"
   stroke="rgb(179,179,179)"
   stroke-linejoin="round"
   d="M 3985,8519 L 3985,8369"
   id="path24" />
 <path
   fill="none"
   stroke="rgb(179,179,179)"
   stroke-linejoin="round"
   d="M 3985,8519 L 3985,8369"
   id="path26" />
 <path
   fill="none"
   stroke="rgb(179,179,179)"
   stroke-linejoin="round"
   d="M 5255,8519 L 5255,8369"
   id="path28" />
 <path
   fill="none"
   stroke="rgb(179,179,179)"
   stroke-linejoin="round"
   d="M 5255,8519 L 5255,8369"
   id="path30" />
 <path
   fill="none"
   stroke="rgb(179,179,179)"
   stroke-linejoin="round"
   d="M 6525,8519 L 6525,8369"
   id="path32" />
 <path
   fill="none"
   stroke="rgb(179,179,179)"
   stroke-linejoin="round"
   d="M 6525,8519 L 6525,8369"
   id="path34" />
 <path
   fill="none"
   stroke="rgb(179,179,179)"
   stroke-linejoin="round"
   d="M 7796,8519 L 7796,8369"
   id="path36" />
 <path
   fill="none"
   stroke="rgb(179,179,179)"
   stroke-linejoin="round"
   d="M 7796,8519 L 7796,8369"
   id="path38" />
 <path
   fill="none"
   stroke="rgb(179,179,179)"
   stroke-linejoin="round"
   d="M 9066,8519 L 9066,8369"
   id="path40" />
 <path
   fill="none"
   stroke="rgb(179,179,179)"
   stroke-linejoin="round"
   d="M 9066,8519 L 9066,8369"
   id="path42" />
 <path
   fill="none"
   stroke="rgb(179,179,179)"
   stroke-linejoin="round"
   d="M 10335,8519 L 10335,8369"
   id="path44" />
 <path
   fill="none"
   stroke="rgb(179,179,179)"
   stroke-linejoin="round"
   d="M 10335,8519 L 10335,8369"
   id="path46" />
 <path
   fill="none"
   stroke="rgb(179,179,179)"
   stroke-linejoin="round"
   d="M 11606,8519 L 11606,8369"
   id="path48" />
 <path
   fill="none"
   stroke="rgb(179,179,179)"
   stroke-linejoin="round"
   d="M 11606,8519 L 11606,8369"
   id="path50" />
 <path
   fill="none"
   stroke="rgb(179,179,179)"
   stroke-linejoin="round"
   d="M 12876,8519 L 12876,8369"
   id="path52" />
 <path
   fill="none"
   stroke="rgb(179,179,179)"
   stroke-linejoin="round"
   d="M 12876,8519 L 12876,8369"
   id="path54" />
 <path
   fill="none"
   stroke="rgb(179,179,179)"
   stroke-linejoin="round"
   d="M 14146,8519 L 14146,8369"
   id="path56" />
 <path
   fill="none"
   stroke="rgb(179,179,179)"
   stroke-linejoin="round"
   d="M 14146,8519 L 14146,8369"
   id="path58" />
 <path
   fill="none"
   stroke="rgb(179,179,179)"
   stroke-linejoin="round"
   d="M 15417,8519 L 15417,8369"
   id="path60" />
 <path
   fill="none"
   stroke="rgb(179,179,179)"
   stroke-linejoin="round"
   d="M 15417,8519 L 15417,8369"
   id="path62" />
 <path
   fill="none"
   stroke="rgb(179,179,179)"
   stroke-linejoin="round"
   d="M 16687,8519 L 16687,8369"
   id="path64" />
 <path
   fill="none"
   stroke="rgb(179,179,179)"
   stroke-linejoin="round"
   d="M 16687,8519 L 16687,8369"
   id="path66" />
 <path
   fill="none"
   stroke="rgb(179,179,179)"
   stroke-linejoin="round"
   d="M 17957,8519 L 17957,8369"
   id="path68" />
 <path
   fill="none"
   stroke="rgb(179,179,179)"
   stroke-linejoin="round"
   d="M 17957,8519 L 17957,8369"
   id="path70" />
 <path
   fill="none"
   stroke="rgb(179,179,179)"
   stroke-linejoin="round"
   d="M 19228,8519 L 19228,8369"
   id="path72" />
 <path
   fill="none"
   stroke="rgb(179,179,179)"
   stroke-linejoin="round"
   d="M 19228,8519 L 19228,8369"
   id="path74" />
 <path
   fill="none"
   stroke="rgb(179,179,179)"
   stroke-linejoin="round"
   d="M 2715,8369 L 19228,8369"
   id="path76" />
 <path
   fill="none"
   stroke="rgb(179,179,179)"
   stroke-linejoin="round"
   d="M 2565,8369 L 2715,8369"
   id="path78" />
 <path
   fill="none"
   stroke="rgb(179,179,179)"
   stroke-linejoin="round"
   d="M 2565,8369 L 2715,8369"
   id="path80" />
 <path
   fill="none"
   stroke="rgb(179,179,179)"
   stroke-linejoin="round"
   d="M 2565,7040 L 2715,7040"
   id="path82" />
 <path
   fill="none"
   stroke="rgb(179,179,179)"
   stroke-linejoin="round"
   d="M 2565,7040 L 2715,7040"
   id="path84" />
 <path
   fill="none"
   stroke="rgb(179,179,179)"
   stroke-linejoin="round"
   d="M 2565,5712 L 2715,5712"
   id="path86" />
 <path
   fill="none"
   stroke="rgb(179,179,179)"
   stroke-linejoin="round"
   d="M 2565,5712 L 2715,5712"
   id="path88" />
 <path
   fill="none"
   stroke="rgb(179,179,179)"
   stroke-linejoin="round"
   d="M 2565,4384 L 2715,4384"
   id="path90" />
 <path
   fill="none"
   stroke="rgb(179,179,179)"
   stroke-linejoin="round"
   d="M 2565,4384 L 2715,4384"
   id="path92" />
 <path
   fill="none"
   stroke="rgb(179,179,179)"
   stroke-linejoin="round"
   d="M 2565,3056 L 2715,3056"
   id="path94" />
 <path
   fill="none"
   stroke="rgb(179,179,179)"
   stroke-linejoin="round"
   d="M 2565,3056 L 2715,3056"
   id="path96" />
 <path
   fill="none"
   stroke="rgb(179,179,179)"
   stroke-linejoin="round"
   d="M 2565,1727 L 2715,1727"
   id="path98" />
 <path
   fill="none"
   stroke="rgb(179,179,179)"
   stroke-linejoin="round"
   d="M 2565,1727 L 2715,1727"
   id="path100" />
 <path
   fill="none"
   stroke="rgb(179,179,179)"
   stroke-linejoin="round"
   d="M 2565,399 L 2715,399"
   id="path102" />
 <path
   fill="none"
   stroke="rgb(179,179,179)"
   stroke-linejoin="round"
   d="M 2565,399 L 2715,399"
   id="path104" />
 <path
   fill="none"
   stroke="rgb(179,179,179)"
   stroke-linejoin="round"
   d="M 2715,8369 L 2715,399"
   id="path106" />
 <path
   fill="none"
   stroke="rgb(255,66,14)"
   stroke-width="80"
   stroke-linejoin="round"
   d="M 2715,8094 L 3985,7917 5255,7724 6525,7227 7796,6405 9066,6113 10335,5814 11606,5311 12876,4760 14146,4161 15417,4354 16687,3507 17957,2506 19228,1204"
   id="path108" />
 <path
   fill="rgb(255,66,14)"
   stroke="none"
   d="M 2590,8094 L 2715,8219 2840,8094 2715,7969 2590,8094 Z"
   id="path110" />
 <path
   fill="none"
   stroke="rgb(255,66,14)"
   stroke-linejoin="round"
   d="M 2590,8094 L 2715,8219 2840,8094 2715,7969 2590,8094 Z"
   id="path112" />
 <path
   fill="rgb(255,66,14)"
   stroke="none"
   d="M 3860,7917 L 3985,8042 4110,7917 3985,7792 3860,7917 Z"
   id="path114" />
 <path
   fill="none"
   stroke="rgb(255,66,14)"
   stroke-linejoin="round"
   d="M 3860,7917 L 3985,8042 4110,7917 3985,7792 3860,7917 Z"
   id="path116" />
 <path
   fill="rgb(255,66,14)"
   stroke="none"
   d="M 5130,7724 L 5255,7849 5380,7724 5255,7599 5130,7724 Z"
   id="path118" />
 <path
   fill="none"
   stroke="rgb(255,66,14)"
   stroke-linejoin="round"
   d="M 5130,7724 L 5255,7849 5380,7724 5255,7599 5130,7724 Z"
   id="path120" />
 <path
   fill="rgb(255,66,14)"
   stroke="none"
   d="M 6400,7227 L 6525,7352 6650,7227 6525,7102 6400,7227 Z"
   id="path122" />
 <path
   fill="none"
   stroke="rgb(255,66,14)"
   stroke-linejoin="round"
   d="M 6400,7227 L 6525,7352 6650,7227 6525,7102 6400,7227 Z"
   id="path124" />
 <path
   fill="rgb(255,66,14)"
   stroke="none"
   d="M 7671,6405 L 7796,6530 7921,6405 7796,6280 7671,6405 Z"
   id="path126" />
 <path
   fill="none"
   stroke="rgb(255,66,14)"
   stroke-linejoin="round"
   d="M 7671,6405 L 7796,6530 7921,6405 7796,6280 7671,6405 Z"
   id="path128" />
 <path
   fill="rgb(255,66,14)"
   stroke="none"
   d="M 8941,6113 L 9066,6238 9191,6113 9066,5988 8941,6113 Z"
   id="path130" />
 <path
   fill="none"
   stroke="rgb(255,66,14)"
   stroke-linejoin="round"
   d="M 8941,6113 L 9066,6238 9191,6113 9066,5988 8941,6113 Z"
   id="path132" />
 <path
   fill="rgb(255,66,14)"
   stroke="none"
   d="M 10210,5814 L 10335,5939 10460,5814 10335,5689 10210,5814 Z"
   id="path134" />
 <path
   fill="none"
   stroke="rgb(255,66,14)"
   stroke-linejoin="round"
   d="M 10210,5814 L 10335,5939 10460,5814 10335,5689 10210,5814 Z"
   id="path136" />
 <path
   fill="rgb(255,66,14)"
   stroke="none"
   d="M 11481,5311 L 11606,5436 11731,5311 11606,5186 11481,5311 Z"
   id="path138" />
 <path
   fill="none"
   stroke="rgb(255,66,14)"
   stroke-linejoin="round"
   d="M 11481,5311 L 11606,5436 11731,5311 11606,5186 11481,5311 Z"
   id="path140" />
 <path
   fill="rgb(255,66,14)"
   stroke="none"
   d="M 12751,4760 L 12876,4885 13001,4760 12876,4635 12751,4760 Z"
   id="path142" />
 <path
   fill="none"
   stroke="rgb(255,66,14)"
   stroke-linejoin="round"
   d="M 12751,4760 L 12876,4885 13001,4760 12876,4635 12751,4760 Z"
   id="path144" />
 <path
   fill="rgb(255,66,14)"
   stroke="none"
   d="M 14021,4161 L 14146,4286 14271,4161 14146,4036 14021,4161 Z"
   id="path146" />
 <path
   fill="none"
   stroke="rgb(255,66,14)"
   stroke-linejoin="round"
   d="M 14021,4161 L 14146,4286 14271,4161 14146,4036 14021,4161 Z"
   id="path148" />
 <path
   fill="rgb(255,66,14)"
   stroke="none"
   d="M 15292,4354 L 15417,4479 15542,4354 15417,4229 15292,4354 Z"
   id="path150" />
 <path
   fill="none"
   stroke="rgb(255,66,14)"
   stroke-linejoin="round"
   d="M 15292,4354 L 15417,4479 15542,4354 15417,4229 15292,4354 Z"
   id="path152" />
 <path
   fill="rgb(255,66,14)"
   stroke="none"
   d="M 16562,3507 L 16687,3632 16812,3507 16687,3382 16562,3507 Z"
   id="path154" />
 <path
   fill="none"
   stroke="rgb(255,66,14)"
   stroke-linejoin="round"
   d="M 16562,3507 L 16687,3632 16812,3507 16687,3382 16562,3507 Z"
   id="path156" />
 <path
   fill="rgb(255,66,14)"
   stroke="none"
   d="M 17832,2506 L 17957,2631 18082,2506 17957,2381 17832,2506 Z"
   id="path158" />
 <path
   fill="none"
   stroke="rgb(255,66,14)"
   stroke-linejoin="round"
   d="M 17832,2506 L 17957,2631 18082,2506 17957,2381 17832,2506 Z"
   id="path160" />
 <path
   fill="rgb(255,66,14)"
   stroke="none"
   d="M 19103,1204 L 19228,1329 19353,1204 19228,1079 19103,1204 Z"
   id="path162" />
 <path
   fill="none"
   stroke="rgb(255,66,14)"
   stroke-linejoin="round"
   d="M 19103,1204 L 19228,1329 19353,1204 19228,1079 19103,1204 Z"
   id="path164" />
 <path
   fill="none"
   stroke="rgb(0,69,134)"
   stroke-width="80"
   stroke-linejoin="round"
   d="M 2715,8084 L 3985,8066 5255,8013 6525,7988 7796,7862 9066,7782 10335,7639 11606,7584 12876,7491 14146,7430 15417,7330 16687,7311 17957,7166 19228,7180"
   id="path166" />
 <path
   fill="rgb(0,69,134)"
   stroke="none"
   d="M 2590,7959 L 2590,8209 2840,8209 2840,7959 2590,7959 Z"
   id="path168" />
 <path
   fill="none"
   stroke="rgb(0,69,134)"
   stroke-linejoin="round"
   d="M 2590,7959 L 2590,8209 2840,8209 2840,7959 2590,7959 Z"
   id="path170" />
 <path
   fill="rgb(0,69,134)"
   stroke="none"
   d="M 3860,7941 L 3860,8191 4110,8191 4110,7941 3860,7941 Z"
   id="path172" />
 <path
   fill="none"
   stroke="rgb(0,69,134)"
   stroke-linejoin="round"
   d="M 3860,7941 L 3860,8191 4110,8191 4110,7941 3860,7941 Z"
   id="path174" />
 <path
   fill="rgb(0,69,134)"
   stroke="none"
   d="M 5130,7888 L 5130,8138 5380,8138 5380,7888 5130,7888 Z"
   id="path176" />
 <path
   fill="none"
   stroke="rgb(0,69,134)"
   stroke-linejoin="round"
   d="M 5130,7888 L 5130,8138 5380,8138 5380,7888 5130,7888 Z"
   id="path178" />
 <path
   fill="rgb(0,69,134)"
   stroke="none"
   d="M 6400,7863 L 6400,8113 6650,8113 6650,7863 6400,7863 Z"
   id="path180" />
 <path
   fill="none"
   stroke="rgb(0,69,134)"
   stroke-linejoin="round"
   d="M 6400,7863 L 6400,8113 6650,8113 6650,7863 6400,7863 Z"
   id="path182" />
 <path
   fill="rgb(0,69,134)"
   stroke="none"
   d="M 7671,7737 L 7671,7987 7921,7987 7921,7737 7671,7737 Z"
   id="path184" />
 <path
   fill="none"
   stroke="rgb(0,69,134)"
   stroke-linejoin="round"
   d="M 7671,7737 L 7671,7987 7921,7987 7921,7737 7671,7737 Z"
   id="path186" />
 <path
   fill="rgb(0,69,134)"
   stroke="none"
   d="M 8941,7657 L 8941,7907 9191,7907 9191,7657 8941,7657 Z"
   id="path188" />
 <path
   fill="none"
   stroke="rgb(0,69,134)"
   stroke-linejoin="round"
   d="M 8941,7657 L 8941,7907 9191,7907 9191,7657 8941,7657 Z"
   id="path190" />
 <path
   fill="rgb(0,69,134)"
   stroke="none"
   d="M 10210,7514 L 10210,7764 10460,7764 10460,7514 10210,7514 Z"
   id="path192" />
 <path
   fill="none"
   stroke="rgb(0,69,134)"
   stroke-linejoin="round"
   d="M 10210,7514 L 10210,7764 10460,7764 10460,7514 10210,7514 Z"
   id="path194" />
 <path
   fill="rgb(0,69,134)"
   stroke="none"
   d="M 11481,7459 L 11481,7709 11731,7709 11731,7459 11481,7459 Z"
   id="path196" />
 <path
   fill="none"
   stroke="rgb(0,69,134)"
   stroke-linejoin="round"
   d="M 11481,7459 L 11481,7709 11731,7709 11731,7459 11481,7459 Z"
   id="path198" />
 <path
   fill="rgb(0,69,134)"
   stroke="none"
   d="M 12751,7366 L 12751,7616 13001,7616 13001,7366 12751,7366 Z"
   id="path200" />
 <path
   fill="none"
   stroke="rgb(0,69,134)"
   stroke-linejoin="round"
   d="M 12751,7366 L 12751,7616 13001,7616 13001,7366 12751,7366 Z"
   id="path202" />
 <path
   fill="rgb(0,69,134)"
   stroke="none"
   d="M 14021,7305 L 14021,7555 14271,7555 14271,7305 14021,7305 Z"
   id="path204" />
 <path
   fill="none"
   stroke="rgb(0,69,134)"
   stroke-linejoin="round"
   d="M 14021,7305 L 14021,7555 14271,7555 14271,7305 14021,7305 Z"
   id="path206" />
 <path
   fill="rgb(0,69,134)"
   stroke="none"
   d="M 15292,7205 L 15292,7455 15542,7455 15542,7205 15292,7205 Z"
   id="path208" />
 <path
   fill="none"
   stroke="rgb(0,69,134)"
   stroke-linejoin="round"
   d="M 15292,7205 L 15292,7455 15542,7455 15542,7205 15292,7205 Z"
   id="path210" />
 <path
   fill="rgb(0,69,134)"
   stroke="none"
   d="M 16562,7186 L 16562,7436 16812,7436 16812,7186 16562,7186 Z"
   id="path212" />
 <path
   fill="none"
   stroke="rgb(0,69,134)"
   stroke-linejoin="round"
   d="M 16562,7186 L 16562,7436 16812,7436 16812,7186 16562,7186 Z"
   id="path214" />
 <path
   fill="rgb(0,69,134)"
   stroke="none"
   d="M 17832,7041 L 17832,7291 18082,7291 18082,7041 17832,7041 Z"
   id="path216" />
 <path
   fill="none"
   stroke="rgb(0,69,134)"
   stroke-linejoin="round"
   d="M 17832,7041 L 17832,7291 18082,7291 18082,7041 17832,7041 Z"
   id="path218" />
 <path
   fill="rgb(0,69,134)"
   stroke="none"
   d="M 19103,7055 L 19103,7305 19353,7305 19353,7055 19103,7055 Z"
   id="path220" />
 <path
   fill="none"
   stroke="rgb(0,69,134)"
   stroke-linejoin="round"
   d="M 19103,7055 L 19103,7305 19353,7305 19353,7055 19103,7055 Z"
   id="path222" />
 <text
   class="SVGTextShape"
   id="text230"><tspan
     class="TextParagraph"
     font-family="Liberation Sans, sans-serif"
     font-size="353px"
     font-weight="400"
     id="tspan228"><tspan
       class="TextPosition"
       x="2344"
       y="8937"
       id="tspan226"><tspan
         fill="rgb(0,0,0)"
         stroke="none"
         id="tspan224">1950</tspan></tspan></tspan></text>
 <text
   class="SVGTextShape"
   id="text238"><tspan
     class="TextParagraph"
     font-family="Liberation Sans, sans-serif"
     font-size="353px"
     font-weight="400"
     id="tspan236"><tspan
       class="TextPosition"
       x="3614"
       y="8937"
       id="tspan234"><tspan
         fill="rgb(0,0,0)"
         stroke="none"
         id="tspan232">1955</tspan></tspan></tspan></text>
 <text
   class="SVGTextShape"
   id="text246"><tspan
     class="TextParagraph"
     font-family="Liberation Sans, sans-serif"
     font-size="353px"
     font-weight="400"
     id="tspan244"><tspan
       class="TextPosition"
       x="4884"
       y="8937"
       id="tspan242"><tspan
         fill="rgb(0,0,0)"
         stroke="none"
         id="tspan240">1960</tspan></tspan></tspan></text>
 <text
   class="SVGTextShape"
   id="text254"><tspan
     class="TextParagraph"
     font-family="Liberation Sans, sans-serif"
     font-size="353px"
     font-weight="400"
     id="tspan252"><tspan
       class="TextPosition"
       x="6154"
       y="8937"
       id="tspan250"><tspan
         fill="rgb(0,0,0)"
         stroke="none"
         id="tspan248">1965</tspan></tspan></tspan></text>
 <text
   class="SVGTextShape"
   id="text262"><tspan
     class="TextParagraph"
     font-family="Liberation Sans, sans-serif"
     font-size="353px"
     font-weight="400"
     id="tspan260"><tspan
       class="TextPosition"
       x="7425"
       y="8937"
       id="tspan258"><tspan
         fill="rgb(0,0,0)"
         stroke="none"
         id="tspan256">1970</tspan></tspan></tspan></text>
 <text
   class="SVGTextShape"
   id="text270"><tspan
     class="TextParagraph"
     font-family="Liberation Sans, sans-serif"
     font-size="353px"
     font-weight="400"
     id="tspan268"><tspan
       class="TextPosition"
       x="8695"
       y="8937"
       id="tspan266"><tspan
         fill="rgb(0,0,0)"
         stroke="none"
         id="tspan264">1975</tspan></tspan></tspan></text>
 <text
   class="SVGTextShape"
   id="text278"><tspan
     class="TextParagraph"
     font-family="Liberation Sans, sans-serif"
     font-size="353px"
     font-weight="400"
     id="tspan276"><tspan
       class="TextPosition"
       x="9965"
       y="8937"
       id="tspan274"><tspan
         fill="rgb(0,0,0)"
         stroke="none"
         id="tspan272">1980</tspan></tspan></tspan></text>
 <text
   class="SVGTextShape"
   id="text286"><tspan
     class="TextParagraph"
     font-family="Liberation Sans, sans-serif"
     font-size="353px"
     font-weight="400"
     id="tspan284"><tspan
       class="TextPosition"
       x="11236"
       y="8937"
       id="tspan282"><tspan
         fill="rgb(0,0,0)"
         stroke="none"
         id="tspan280">1985</tspan></tspan></tspan></text>
 <text
   class="SVGTextShape"
   id="text294"><tspan
     class="TextParagraph"
     font-family="Liberation Sans, sans-serif"
     font-size="353px"
     font-weight="400"
     id="tspan292"><tspan
       class="TextPosition"
       x="12506"
       y="8937"
       id="tspan290"><tspan
         fill="rgb(0,0,0)"
         stroke="none"
         id="tspan288">1990</tspan></tspan></tspan></text>
 <text
   class="SVGTextShape"
   id="text302"><tspan
     class="TextParagraph"
     font-family="Liberation Sans, sans-serif"
     font-size="353px"
     font-weight="400"
     id="tspan300"><tspan
       class="TextPosition"
       x="13776"
       y="8937"
       id="tspan298"><tspan
         fill="rgb(0,0,0)"
         stroke="none"
         id="tspan296">1995</tspan></tspan></tspan></text>
 <text
   class="SVGTextShape"
   id="text310"><tspan
     class="TextParagraph"
     font-family="Liberation Sans, sans-serif"
     font-size="353px"
     font-weight="400"
     id="tspan308"><tspan
       class="TextPosition"
       x="15047"
       y="8937"
       id="tspan306"><tspan
         fill="rgb(0,0,0)"
         stroke="none"
         id="tspan304">2000</tspan></tspan></tspan></text>
 <text
   class="SVGTextShape"
   id="text318"><tspan
     class="TextParagraph"
     font-family="Liberation Sans, sans-serif"
     font-size="353px"
     font-weight="400"
     id="tspan316"><tspan
       class="TextPosition"
       x="16317"
       y="8937"
       id="tspan314"><tspan
         fill="rgb(0,0,0)"
         stroke="none"
         id="tspan312">2005</tspan></tspan></tspan></text>
 <text
   class="SVGTextShape"
   id="text326"><tspan
     class="TextParagraph"
     font-family="Liberation Sans, sans-serif"
     font-size="353px"
     font-weight="400"
     id="tspan324"><tspan
       class="TextPosition"
       x="17587"
       y="8937"
       id="tspan322"><tspan
         fill="rgb(0,0,0)"
         stroke="none"
         id="tspan320">2010</tspan></tspan></tspan></text>
 <text
   class="SVGTextShape"
   id="text334"><tspan
     class="TextParagraph"
     font-family="Liberation Sans, sans-serif"
     font-size="353px"
     font-weight="400"
     id="tspan332"><tspan
       class="TextPosition"
       x="18858"
       y="8937"
       id="tspan330"><tspan
         fill="rgb(0,0,0)"
         stroke="none"
         id="tspan328">2015</tspan></tspan></tspan></text>
 <text
   class="SVGTextShape"
   id="text342"><tspan
     class="TextParagraph"
     font-family="Liberation Sans, sans-serif"
     font-size="353px"
     font-weight="400"
     id="tspan340"><tspan
       class="TextPosition"
       x="957"
       y="8490"
       id="tspan338"><tspan
         fill="rgb(0,0,0)"
         stroke="none"
         id="tspan336">0 GJ/FTE</tspan></tspan></tspan></text>
 <text
   class="SVGTextShape"
   id="text350"><tspan
     class="TextParagraph"
     font-family="Liberation Sans, sans-serif"
     font-size="353px"
     font-weight="400"
     id="tspan348"><tspan
       class="TextPosition"
       x="586"
       y="7161"
       id="tspan346"><tspan
         fill="rgb(0,0,0)"
         stroke="none"
         id="tspan344">500 GJ/FTE</tspan></tspan></tspan></text>
 <text
   class="SVGTextShape"
   id="text358"><tspan
     class="TextParagraph"
     font-family="Liberation Sans, sans-serif"
     font-size="353px"
     font-weight="400"
     id="tspan356"><tspan
       class="TextPosition"
       x="401"
       y="5833"
       id="tspan354"><tspan
         fill="rgb(0,0,0)"
         stroke="none"
         id="tspan352">1000 GJ/FTE</tspan></tspan></tspan></text>
 <text
   class="SVGTextShape"
   id="text366"><tspan
     class="TextParagraph"
     font-family="Liberation Sans, sans-serif"
     font-size="353px"
     font-weight="400"
     id="tspan364"><tspan
       class="TextPosition"
       x="401"
       y="4504"
       id="tspan362"><tspan
         fill="rgb(0,0,0)"
         stroke="none"
         id="tspan360">1500 GJ/FTE</tspan></tspan></tspan></text>
 <text
   class="SVGTextShape"
   id="text374"><tspan
     class="TextParagraph"
     font-family="Liberation Sans, sans-serif"
     font-size="353px"
     font-weight="400"
     id="tspan372"><tspan
       class="TextPosition"
       x="401"
       y="3176"
       id="tspan370"><tspan
         fill="rgb(0,0,0)"
         stroke="none"
         id="tspan368">2000 GJ/FTE</tspan></tspan></tspan></text>
 <text
   class="SVGTextShape"
   id="text382"><tspan
     class="TextParagraph"
     font-family="Liberation Sans, sans-serif"
     font-size="353px"
     font-weight="400"
     id="tspan380"><tspan
       class="TextPosition"
       x="401"
       y="1847"
       id="tspan378"><tspan
         fill="rgb(0,0,0)"
         stroke="none"
         id="tspan376">2500 GJ/FTE</tspan></tspan></tspan></text>
 <text
   class="SVGTextShape"
   id="text390"><tspan
     class="TextParagraph"
     font-family="Liberation Sans, sans-serif"
     font-size="353px"
     font-weight="400"
     id="tspan388"><tspan
       class="TextPosition"
       x="401"
       y="519"
       id="tspan386"><tspan
         fill="rgb(0,0,0)"
         stroke="none"
         id="tspan384">3000 GJ/FTE</tspan></tspan></tspan></text>
 <path
   fill="none"
   stroke="rgb(255,66,14)"
   stroke-width="80"
   stroke-linejoin="round"
   d="M 7368,9699 L 8168,9699"
   id="path392" />
 <path
   fill="rgb(255,66,14)"
   stroke="none"
   d="M 7662,9699 L 7768,9805 7873,9699 7768,9594 7662,9699 Z"
   id="path394" />
 <path
   fill="none"
   stroke="rgb(255,66,14)"
   stroke-linejoin="round"
   d="M 7662,9699 L 7768,9805 7873,9699 7768,9594 7662,9699 Z"
   id="path396" />
 <path
   fill="none"
   stroke="rgb(0,69,134)"
   stroke-width="80"
   stroke-linejoin="round"
   d="M 10009,9699 L 10809,9699"
   id="path398" />
 <path
   fill="rgb(0,69,134)"
   stroke="none"
   d="M 10303,9594 L 10303,9805 10514,9805 10514,9594 10303,9594 Z"
   id="path400" />
 <path
   fill="none"
   stroke="rgb(0,69,134)"
   stroke-linejoin="round"
   d="M 10303,9594 L 10303,9805 10514,9805 10514,9594 10303,9594 Z"
   id="path402" />
 <text
   class="SVGTextShape"
   id="text410"><tspan
     class="TextParagraph"
     font-family="Liberation Sans, sans-serif"
     font-size="353px"
     font-weight="400"
     id="tspan408"><tspan
       class="TextPosition"
       x="8268"
       y="9819"
       id="tspan406"><tspan
         fill="rgb(0,0,0)"
         stroke="none"
         id="tspan404">input/FTE</tspan></tspan></tspan></text>
 <text
   class="SVGTextShape"
   id="text418"><tspan
     class="TextParagraph"
     font-family="Liberation Sans, sans-serif"
     font-size="353px"
     font-weight="400"
     id="tspan416"><tspan
       class="TextPosition"
       x="10909"
       y="9819"
       id="tspan414"><tspan
         fill="rgb(0,0,0)"
         stroke="none"
         id="tspan412">output/FTE</tspan></tspan></tspan></text>
<g
   style="stroke-width:28.222;stroke-linejoin:round"
   id="g1599"
   transform="translate(2715,400)"><path
     fill="#ffffff"
     stroke="none"
     d="M 3667,3636 H 0 V 0 h 7334 v 3636 z"
     id="path1231" /><path
     fill="none"
     stroke="#000000"
     stroke-linejoin="round"
     d="M 3667,3636 H 0 V 0 h 7334 v 3636 z"
     id="path1233" /><path
     fill="url(#Gradient_2)"
     stroke="#b3b3b3"
     stroke-linejoin="round"
     d="M 3984,2753 H 878 V 229 h 6212 v 2524 z"
     id="path1242"
     style="fill:url(#Gradient_2)" /><path
     fill="none"
     stroke="#b3b3b3"
     stroke-linejoin="round"
     d="M 7089,2752 H 878"
     id="path1244" /><path
     fill="none"
     stroke="#b3b3b3"
     stroke-linejoin="round"
     d="M 7089,2391 H 878"
     id="path1246" /><path
     fill="none"
     stroke="#b3b3b3"
     stroke-linejoin="round"
     d="M 7089,2030 H 878"
     id="path1248" /><path
     fill="none"
     stroke="#b3b3b3"
     stroke-linejoin="round"
     d="M 7089,1670 H 878"
     id="path1250" /><path
     fill="none"
     stroke="#b3b3b3"
     stroke-linejoin="round"
     d="M 7089,1309 H 878"
     id="path1252" /><path
     fill="none"
     stroke="#b3b3b3"
     stroke-linejoin="round"
     d="M 7089,949 H 878"
     id="path1254" /><path
     fill="none"
     stroke="#b3b3b3"
     stroke-linejoin="round"
     d="M 7089,588 H 878"
     id="path1256" /><path
     fill="none"
     stroke="#b3b3b3"
     stroke-linejoin="round"
     d="M 7089,228 H 878"
     id="path1258" /><path
     fill="none"
     stroke="#b3b3b3"
     stroke-linejoin="round"
     d="M 878,2900 V 2752"
     id="path1260" /><path
     fill="none"
     stroke="#b3b3b3"
     stroke-linejoin="round"
     d="M 878,2900 V 2752"
     id="path1262" /><path
     fill="none"
     stroke="#b3b3b3"
     stroke-linejoin="round"
     d="M 1355,2900 V 2752"
     id="path1264" /><path
     fill="none"
     stroke="#b3b3b3"
     stroke-linejoin="round"
     d="M 1355,2900 V 2752"
     id="path1266" /><path
     fill="none"
     stroke="#b3b3b3"
     stroke-linejoin="round"
     d="M 1833,2900 V 2752"
     id="path1268" /><path
     fill="none"
     stroke="#b3b3b3"
     stroke-linejoin="round"
     d="M 1833,2900 V 2752"
     id="path1270" /><path
     fill="none"
     stroke="#b3b3b3"
     stroke-linejoin="round"
     d="M 2311,2900 V 2752"
     id="path1272" /><path
     fill="none"
     stroke="#b3b3b3"
     stroke-linejoin="round"
     d="M 2311,2900 V 2752"
     id="path1274" /><path
     fill="none"
     stroke="#b3b3b3"
     stroke-linejoin="round"
     d="M 2789,2900 V 2752"
     id="path1276" /><path
     fill="none"
     stroke="#b3b3b3"
     stroke-linejoin="round"
     d="M 2789,2900 V 2752"
     id="path1278" /><path
     fill="none"
     stroke="#b3b3b3"
     stroke-linejoin="round"
     d="M 3267,2900 V 2752"
     id="path1280" /><path
     fill="none"
     stroke="#b3b3b3"
     stroke-linejoin="round"
     d="M 3267,2900 V 2752"
     id="path1282" /><path
     fill="none"
     stroke="#b3b3b3"
     stroke-linejoin="round"
     d="M 3744,2900 V 2752"
     id="path1284" /><path
     fill="none"
     stroke="#b3b3b3"
     stroke-linejoin="round"
     d="M 3744,2900 V 2752"
     id="path1286" /><path
     fill="none"
     stroke="#b3b3b3"
     stroke-linejoin="round"
     d="M 4222,2900 V 2752"
     id="path1288" /><path
     fill="none"
     stroke="#b3b3b3"
     stroke-linejoin="round"
     d="M 4222,2900 V 2752"
     id="path1290" /><path
     fill="none"
     stroke="#b3b3b3"
     stroke-linejoin="round"
     d="M 4700,2900 V 2752"
     id="path1292" /><path
     fill="none"
     stroke="#b3b3b3"
     stroke-linejoin="round"
     d="M 4700,2900 V 2752"
     id="path1294" /><path
     fill="none"
     stroke="#b3b3b3"
     stroke-linejoin="round"
     d="M 5178,2900 V 2752"
     id="path1296" /><path
     fill="none"
     stroke="#b3b3b3"
     stroke-linejoin="round"
     d="M 5178,2900 V 2752"
     id="path1298" /><path
     fill="none"
     stroke="#b3b3b3"
     stroke-linejoin="round"
     d="M 5656,2900 V 2752"
     id="path1300" /><path
     fill="none"
     stroke="#b3b3b3"
     stroke-linejoin="round"
     d="M 5656,2900 V 2752"
     id="path1302" /><path
     fill="none"
     stroke="#b3b3b3"
     stroke-linejoin="round"
     d="M 6134,2900 V 2752"
     id="path1304" /><path
     fill="none"
     stroke="#b3b3b3"
     stroke-linejoin="round"
     d="M 6134,2900 V 2752"
     id="path1306" /><path
     fill="none"
     stroke="#b3b3b3"
     stroke-linejoin="round"
     d="M 6612,2900 V 2752"
     id="path1308" /><path
     fill="none"
     stroke="#b3b3b3"
     stroke-linejoin="round"
     d="M 6612,2900 V 2752"
     id="path1310" /><path
     fill="none"
     stroke="#b3b3b3"
     stroke-linejoin="round"
     d="M 7089,2900 V 2752"
     id="path1312" /><path
     fill="none"
     stroke="#b3b3b3"
     stroke-linejoin="round"
     d="M 7089,2900 V 2752"
     id="path1314" /><path
     fill="none"
     stroke="#b3b3b3"
     stroke-linejoin="round"
     d="M 878,2752 H 7089"
     id="path1316" /><path
     fill="none"
     stroke="#b3b3b3"
     stroke-linejoin="round"
     d="M 728,2752 H 878"
     id="path1318" /><path
     fill="none"
     stroke="#b3b3b3"
     stroke-linejoin="round"
     d="M 728,2752 H 878"
     id="path1320" /><path
     fill="none"
     stroke="#b3b3b3"
     stroke-linejoin="round"
     d="M 728,2391 H 878"
     id="path1322" /><path
     fill="none"
     stroke="#b3b3b3"
     stroke-linejoin="round"
     d="M 728,2391 H 878"
     id="path1324" /><path
     fill="none"
     stroke="#b3b3b3"
     stroke-linejoin="round"
     d="M 728,2030 H 878"
     id="path1326" /><path
     fill="none"
     stroke="#b3b3b3"
     stroke-linejoin="round"
     d="M 728,2030 H 878"
     id="path1328" /><path
     fill="none"
     stroke="#b3b3b3"
     stroke-linejoin="round"
     d="M 728,1670 H 878"
     id="path1330" /><path
     fill="none"
     stroke="#b3b3b3"
     stroke-linejoin="round"
     d="M 728,1670 H 878"
     id="path1332" /><path
     fill="none"
     stroke="#b3b3b3"
     stroke-linejoin="round"
     d="M 728,1309 H 878"
     id="path1334" /><path
     fill="none"
     stroke="#b3b3b3"
     stroke-linejoin="round"
     d="M 728,1309 H 878"
     id="path1336" /><path
     fill="none"
     stroke="#b3b3b3"
     stroke-linejoin="round"
     d="M 728,949 H 878"
     id="path1338" /><path
     fill="none"
     stroke="#b3b3b3"
     stroke-linejoin="round"
     d="M 728,949 H 878"
     id="path1340" /><path
     fill="none"
     stroke="#b3b3b3"
     stroke-linejoin="round"
     d="M 728,588 H 878"
     id="path1342" /><path
     fill="none"
     stroke="#b3b3b3"
     stroke-linejoin="round"
     d="M 728,588 H 878"
     id="path1344" /><path
     fill="none"
     stroke="#b3b3b3"
     stroke-linejoin="round"
     d="M 728,228 H 878"
     id="path1346" /><path
     fill="none"
     stroke="#b3b3b3"
     stroke-linejoin="round"
     d="M 728,228 H 878"
     id="path1348" /><path
     fill="none"
     stroke="#b3b3b3"
     stroke-linejoin="round"
     d="M 878,2752 V 228"
     id="path1350" /><path
     fill="none"
     stroke="#ffd320"
     stroke-width="80"
     stroke-linejoin="round"
     d="m 878,2403 477,-189 478,-117 478,-426 478,-318 478,12 477,124 478,-143 478,-78 478,-134 478,223 478,-264 478,-100 477,-415"
     id="path1352" /><path
     fill="#ffd320"
     stroke="none"
     d="m 753,2279 125,248 125,-248 z"
     id="path1354" /><path
     fill="none"
     stroke="#ffd320"
     stroke-linejoin="round"
     d="m 753,2279 125,248 125,-248 z"
     id="path1356" /><path
     fill="#ffd320"
     stroke="none"
     d="m 1230,2090 125,248 125,-248 z"
     id="path1358" /><path
     fill="none"
     stroke="#ffd320"
     stroke-linejoin="round"
     d="m 1230,2090 125,248 125,-248 z"
     id="path1360" /><path
     fill="#ffd320"
     stroke="none"
     d="m 1708,1973 125,248 125,-248 z"
     id="path1362" /><path
     fill="none"
     stroke="#ffd320"
     stroke-linejoin="round"
     d="m 1708,1973 125,248 125,-248 z"
     id="path1364" /><path
     fill="#ffd320"
     stroke="none"
     d="m 2186,1547 125,248 125,-248 z"
     id="path1366" /><path
     fill="none"
     stroke="#ffd320"
     stroke-linejoin="round"
     d="m 2186,1547 125,248 125,-248 z"
     id="path1368" /><path
     fill="#ffd320"
     stroke="none"
     d="m 2664,1229 125,248 125,-248 z"
     id="path1370" /><path
     fill="none"
     stroke="#ffd320"
     stroke-linejoin="round"
     d="m 2664,1229 125,248 125,-248 z"
     id="path1372" /><path
     fill="#ffd320"
     stroke="none"
     d="m 3142,1241 125,248 125,-248 z"
     id="path1374" /><path
     fill="none"
     stroke="#ffd320"
     stroke-linejoin="round"
     d="m 3142,1241 125,248 125,-248 z"
     id="path1376" /><path
     fill="#ffd320"
     stroke="none"
     d="m 3620,1365 124,247 125,-247 z"
     id="path1378" /><path
     fill="none"
     stroke="#ffd320"
     stroke-linejoin="round"
     d="m 3620,1365 124,247 125,-247 z"
     id="path1380" /><path
     fill="#ffd320"
     stroke="none"
     d="m 4097,1222 125,248 125,-248 z"
     id="path1382" /><path
     fill="none"
     stroke="#ffd320"
     stroke-linejoin="round"
     d="m 4097,1222 125,248 125,-248 z"
     id="path1384" /><path
     fill="#ffd320"
     stroke="none"
     d="m 4575,1144 125,247 125,-247 z"
     id="path1386" /><path
     fill="none"
     stroke="#ffd320"
     stroke-linejoin="round"
     d="m 4575,1144 125,247 125,-247 z"
     id="path1388" /><path
     fill="#ffd320"
     stroke="none"
     d="m 5053,1010 125,248 125,-248 z"
     id="path1390" /><path
     fill="none"
     stroke="#ffd320"
     stroke-linejoin="round"
     d="m 5053,1010 125,248 125,-248 z"
     id="path1392" /><path
     fill="#ffd320"
     stroke="none"
     d="m 5531,1233 125,248 125,-248 z"
     id="path1394" /><path
     fill="none"
     stroke="#ffd320"
     stroke-linejoin="round"
     d="m 5531,1233 125,248 125,-248 z"
     id="path1396" /><path
     fill="#ffd320"
     stroke="none"
     d="m 6009,969 125,248 125,-248 z"
     id="path1398" /><path
     fill="none"
     stroke="#ffd320"
     stroke-linejoin="round"
     d="m 6009,969 125,248 125,-248 z"
     id="path1400" /><path
     fill="#ffd320"
     stroke="none"
     d="m 6487,869 125,248 125,-248 z"
     id="path1402" /><path
     fill="none"
     stroke="#ffd320"
     stroke-linejoin="round"
     d="m 6487,869 125,248 125,-248 z"
     id="path1404" /><path
     fill="#ffd320"
     stroke="none"
     d="m 6964,454 125,248 125,-248 z"
     id="path1406" /><path
     fill="none"
     stroke="#ffd320"
     stroke-linejoin="round"
     d="m 6964,454 125,248 125,-248 z"
     id="path1408" /><text
     class="SVGTextShape"
     id="text1416"><tspan
       class="TextParagraph"
       font-family="'Liberation Sans', sans-serif"
       font-size="279px"
       font-weight="400"
       id="tspan1414"><tspan
         class="TextPosition"
         x="231"
         y="2857"
         id="tspan1412"><tspan
           fill="#000000"
           stroke="none"
           id="tspan1410">1/0</tspan></tspan></tspan></text><text
     class="SVGTextShape"
     id="text1424"><tspan
       class="TextParagraph"
       font-family="'Liberation Sans', sans-serif"
       font-size="279px"
       font-weight="400"
       id="tspan1422"><tspan
         class="TextPosition"
         x="231"
         y="2497"
         id="tspan1420"><tspan
           fill="#000000"
           stroke="none"
           id="tspan1418">1/1</tspan></tspan></tspan></text><text
     class="SVGTextShape"
     id="text1432"><tspan
       class="TextParagraph"
       font-family="'Liberation Sans', sans-serif"
       font-size="279px"
       font-weight="400"
       id="tspan1430"><tspan
         class="TextPosition"
         x="231"
         y="2136"
         id="tspan1428"><tspan
           fill="#000000"
           stroke="none"
           id="tspan1426">1/2</tspan></tspan></tspan></text><text
     class="SVGTextShape"
     id="text1440"><tspan
       class="TextParagraph"
       font-family="'Liberation Sans', sans-serif"
       font-size="279px"
       font-weight="400"
       id="tspan1438"><tspan
         class="TextPosition"
         x="231"
         y="1775"
         id="tspan1436"><tspan
           fill="#000000"
           stroke="none"
           id="tspan1434">1/3</tspan></tspan></tspan></text><text
     class="SVGTextShape"
     id="text1448"><tspan
       class="TextParagraph"
       font-family="'Liberation Sans', sans-serif"
       font-size="279px"
       font-weight="400"
       id="tspan1446"><tspan
         class="TextPosition"
         x="231"
         y="1415"
         id="tspan1444"><tspan
           fill="#000000"
           stroke="none"
           id="tspan1442">1/4</tspan></tspan></tspan></text><text
     class="SVGTextShape"
     id="text1456"><tspan
       class="TextParagraph"
       font-family="'Liberation Sans', sans-serif"
       font-size="279px"
       font-weight="400"
       id="tspan1454"><tspan
         class="TextPosition"
         x="231"
         y="1054"
         id="tspan1452"><tspan
           fill="#000000"
           stroke="none"
           id="tspan1450">1/5</tspan></tspan></tspan></text><text
     class="SVGTextShape"
     id="text1464"><tspan
       class="TextParagraph"
       font-family="'Liberation Sans', sans-serif"
       font-size="279px"
       font-weight="400"
       id="tspan1462"><tspan
         class="TextPosition"
         x="231"
         y="693"
         id="tspan1460"><tspan
           fill="#000000"
           stroke="none"
           id="tspan1458">1/6</tspan></tspan></tspan></text><text
     class="SVGTextShape"
     id="text1472"><tspan
       class="TextParagraph"
       font-family="'Liberation Sans', sans-serif"
       font-size="279px"
       font-weight="400"
       id="tspan1470"><tspan
         class="TextPosition"
         x="231"
         y="334"
         id="tspan1468"><tspan
           fill="#000000"
           stroke="none"
           id="tspan1466">1/7</tspan></tspan></tspan></text></g></svg>
