<?xml version="1.0" encoding="UTF-8"?>
<!DOCTYPE svg PUBLIC "-//W3C//DTD SVG 1.1//EN" "http://www.w3.org/Graphics/SVG/1.1/DTD/svg11.dtd">
<svg width="300mm" height="150mm" viewBox="0 0 30000 15000" version="1.1" xmlns="http://www.w3.org/2000/svg" xmlns:xlink="http://www.w3.org/1999/xlink" stroke-width="28.222" stroke-linejoin="round" xml:space="preserve">
 <path fill="rgb(255,255,255)" stroke="none" d="M 15000,15000 L 0,15000 0,0 30000,0 30000,15000 15000,15000 Z"/>
 <path fill="none" stroke="rgb(179,179,179)" stroke-linejoin="round" d="M 13739,14203 L 2835,14203 2835,499 24643,499 24643,14203 13739,14203 Z"/>
 <path fill="none" stroke="rgb(179,179,179)" stroke-linejoin="round" d="M 24642,14202 L 2835,14202"/>
 <path fill="none" stroke="rgb(179,179,179)" stroke-linejoin="round" d="M 24642,12244 L 2835,12244"/>
 <path fill="none" stroke="rgb(179,179,179)" stroke-linejoin="round" d="M 24642,10286 L 2835,10286"/>
 <path fill="none" stroke="rgb(179,179,179)" stroke-linejoin="round" d="M 24642,8328 L 2835,8328"/>
 <path fill="none" stroke="rgb(179,179,179)" stroke-linejoin="round" d="M 24642,6371 L 2835,6371"/>
 <path fill="none" stroke="rgb(179,179,179)" stroke-linejoin="round" d="M 24642,4413 L 2835,4413"/>
 <path fill="none" stroke="rgb(179,179,179)" stroke-linejoin="round" d="M 24642,2455 L 2835,2455"/>
 <path fill="none" stroke="rgb(179,179,179)" stroke-linejoin="round" d="M 24642,497 L 2835,497"/>
 <path fill="none" stroke="rgb(179,179,179)" stroke-linejoin="round" d="M 2835,14202 L 24642,14202"/>
 <path fill="none" stroke="rgb(179,179,179)" stroke-linejoin="round" d="M 2685,14202 L 2835,14202"/>
 <path fill="none" stroke="rgb(179,179,179)" stroke-linejoin="round" d="M 2685,14202 L 2835,14202"/>
 <path fill="none" stroke="rgb(179,179,179)" stroke-linejoin="round" d="M 2685,12244 L 2835,12244"/>
 <path fill="none" stroke="rgb(179,179,179)" stroke-linejoin="round" d="M 2685,12244 L 2835,12244"/>
 <path fill="none" stroke="rgb(179,179,179)" stroke-linejoin="round" d="M 2685,10286 L 2835,10286"/>
 <path fill="none" stroke="rgb(179,179,179)" stroke-linejoin="round" d="M 2685,10286 L 2835,10286"/>
 <path fill="none" stroke="rgb(179,179,179)" stroke-linejoin="round" d="M 2685,8328 L 2835,8328"/>
 <path fill="none" stroke="rgb(179,179,179)" stroke-linejoin="round" d="M 2685,8328 L 2835,8328"/>
 <path fill="none" stroke="rgb(179,179,179)" stroke-linejoin="round" d="M 2685,6371 L 2835,6371"/>
 <path fill="none" stroke="rgb(179,179,179)" stroke-linejoin="round" d="M 2685,6371 L 2835,6371"/>
 <path fill="none" stroke="rgb(179,179,179)" stroke-linejoin="round" d="M 2685,4413 L 2835,4413"/>
 <path fill="none" stroke="rgb(179,179,179)" stroke-linejoin="round" d="M 2685,4413 L 2835,4413"/>
 <path fill="none" stroke="rgb(179,179,179)" stroke-linejoin="round" d="M 2685,2455 L 2835,2455"/>
 <path fill="none" stroke="rgb(179,179,179)" stroke-linejoin="round" d="M 2685,2455 L 2835,2455"/>
 <path fill="none" stroke="rgb(179,179,179)" stroke-linejoin="round" d="M 2685,498 L 2835,498"/>
 <path fill="none" stroke="rgb(179,179,179)" stroke-linejoin="round" d="M 2685,498 L 2835,498"/>
 <path fill="none" stroke="rgb(179,179,179)" stroke-linejoin="round" d="M 2835,14202 L 2835,497"/>
 <path fill="rgb(51,51,51)" stroke="none" d="M 23782,14202 L 24356,14202 24356,10677 23782,10677 23782,14202 Z"/>
 <path fill="rgb(51,51,51)" stroke="none" d="M 18042,14202 L 18616,14202 18616,10596 18042,10596 18042,14202 Z"/>
 <path fill="rgb(51,51,51)" stroke="none" d="M 16895,14202 L 17468,14202 17468,10546 16895,10546 16895,14202 Z"/>
 <path fill="rgb(51,51,51)" stroke="none" d="M 15747,14202 L 16321,14202 16321,10375 15747,10375 15747,14202 Z"/>
 <path fill="rgb(51,51,51)" stroke="none" d="M 14600,14202 L 15173,14202 15173,10339 14600,10339 14600,14202 Z"/>
 <path fill="rgb(51,51,51)" stroke="none" d="M 13452,14202 L 14026,14202 14026,10328 13452,10328 13452,14202 Z"/>
 <path fill="rgb(51,51,51)" stroke="none" d="M 12304,14202 L 12878,14202 12878,10259 12304,10259 12304,14202 Z"/>
 <path fill="rgb(51,51,51)" stroke="none" d="M 11156,14202 L 11730,14202 11730,10254 11156,10254 11156,14202 Z"/>
 <path fill="rgb(51,51,51)" stroke="none" d="M 10009,14202 L 10582,14202 10582,10254 10009,10254 10009,14202 Z"/>
 <path fill="rgb(51,51,51)" stroke="none" d="M 8861,14202 L 9435,14202 9435,10110 8861,10110 8861,14202 Z"/>
 <path fill="rgb(51,51,51)" stroke="none" d="M 7713,14202 L 8287,14202 8287,9984 7713,9984 7713,14202 Z"/>
 <path fill="rgb(51,51,51)" stroke="none" d="M 6565,14202 L 7139,14202 7139,9755 6565,9755 6565,14202 Z"/>
 <path fill="rgb(51,51,51)" stroke="none" d="M 5417,14202 L 5991,14202 5991,9637 5417,9637 5417,14202 Z"/>
 <path fill="rgb(51,51,51)" stroke="none" d="M 4269,14202 L 4843,14202 4843,9671 4269,9671 4269,14202 Z"/>
 <path fill="rgb(51,51,51)" stroke="none" d="M 3121,14202 L 3695,14202 3695,9626 3121,9626 3121,14202 Z"/>
 <path fill="rgb(197,0,11)" stroke="none" d="M 18042,10596 L 18616,10596 18616,10579 18042,10579 18042,10596 Z"/>
 <path fill="rgb(197,0,11)" stroke="none" d="M 16895,10546 L 17468,10546 17468,10529 16895,10529 16895,10546 Z"/>
 <path fill="rgb(197,0,11)" stroke="none" d="M 10009,10254 L 10582,10254 10582,10244 10009,10244 10009,10254 Z"/>
 <path fill="rgb(197,0,11)" stroke="none" d="M 3121,9626 L 3695,9626 3695,9626 3121,9626 Z"/>
 <path fill="rgb(255,149,14)" stroke="none" d="M 18042,10579 L 18616,10579 18616,10569 18042,10569 18042,10579 Z"/>
 <path fill="rgb(255,149,14)" stroke="none" d="M 16895,10529 L 17468,10529 17468,10520 16895,10520 16895,10529 Z"/>
 <path fill="rgb(255,149,14)" stroke="none" d="M 10009,10244 L 10582,10244 10582,10240 10009,10240 10009,10244 Z"/>
 <path fill="rgb(255,149,14)" stroke="none" d="M 3121,9626 L 3695,9626 3695,9626 3121,9626 Z"/>
 <path fill="rgb(75,31,111)" stroke="none" d="M 18042,10569 L 18616,10569 18616,10456 18042,10456 18042,10569 Z"/>
 <path fill="rgb(75,31,111)" stroke="none" d="M 16895,10520 L 17468,10520 17468,10406 16895,10406 16895,10520 Z"/>
 <path fill="rgb(75,31,111)" stroke="none" d="M 10009,10240 L 10582,10240 10582,10177 10009,10177 10009,10240 Z"/>
 <path fill="rgb(75,31,111)" stroke="none" d="M 3121,9626 L 3695,9626 3695,9608 3121,9608 3121,9626 Z"/>
 <path fill="rgb(174,207,0)" stroke="none" d="M 18042,10456 L 18616,10456 18616,10454 18042,10454 18042,10456 Z"/>
 <path fill="rgb(174,207,0)" stroke="none" d="M 16895,10406 L 17468,10406 17468,10404 16895,10404 16895,10406 Z"/>
 <path fill="rgb(174,207,0)" stroke="none" d="M 10009,10177 L 10582,10177 10582,10176 10009,10176 10009,10177 Z"/>
 <path fill="rgb(174,207,0)" stroke="none" d="M 3121,9608 L 3695,9608 3695,9607 3121,9607 3121,9608 Z"/>
 <path fill="rgb(49,64,4)" stroke="none" d="M 18042,10454 L 18616,10454 18616,4385 18042,4385 18042,10454 Z"/>
 <path fill="rgb(49,64,4)" stroke="none" d="M 16895,10404 L 17468,10404 17468,4858 16895,4858 16895,10404 Z"/>
 <path fill="rgb(49,64,4)" stroke="none" d="M 10009,10176 L 10582,10176 10582,3582 10009,3582 10009,10176 Z"/>
 <path fill="rgb(49,64,4)" stroke="none" d="M 3121,9607 L 3695,9607 3695,8888 3121,8888 3121,9607 Z"/>
 <path fill="rgb(131,202,255)" stroke="none" d="M 18042,4385 L 18616,4385 18616,4383 18042,4383 18042,4385 Z"/>
 <path fill="rgb(131,202,255)" stroke="none" d="M 16895,4858 L 17468,4858 17468,4857 16895,4857 16895,4858 Z"/>
 <path fill="rgb(126,0,33)" stroke="none" d="M 18042,4383 L 18616,4383 18616,4383 18042,4383 Z"/>
 <path fill="rgb(126,0,33)" stroke="none" d="M 16895,4857 L 17468,4857 17468,4857 16895,4857 Z"/>
 <path fill="rgb(126,0,33)" stroke="none" d="M 10009,3582 L 10582,3582 10582,3582 10009,3582 Z"/>
 <path fill="rgb(126,0,33)" stroke="none" d="M 3121,8888 L 3695,8888 3695,8888 3121,8888 Z"/>
 <path fill="rgb(87,157,28)" stroke="none" d="M 18042,4383 L 18616,4383 18616,4383 18042,4383 Z"/>
 <path fill="rgb(87,157,28)" stroke="none" d="M 16895,4857 L 17468,4857 17468,4856 16895,4856 16895,4857 Z"/>
 <path fill="rgb(87,157,28)" stroke="none" d="M 10009,3582 L 10582,3582 10582,3581 10009,3581 10009,3582 Z"/>
 <path fill="rgb(87,157,28)" stroke="none" d="M 3121,8888 L 3695,8888 3695,8888 3121,8888 Z"/>
 <path fill="rgb(255,211,32)" stroke="none" d="M 18042,4383 L 18616,4383 18616,4383 18042,4383 Z"/>
 <path fill="rgb(255,211,32)" stroke="none" d="M 16895,4856 L 17468,4856 17468,4856 16895,4856 Z"/>
 <path fill="rgb(255,211,32)" stroke="none" d="M 10009,3581 L 10582,3581 10582,3581 10009,3581 Z"/>
 <path fill="rgb(255,66,14)" stroke="none" d="M 18042,4383 L 18616,4383 18616,4382 18042,4382 18042,4383 Z"/>
 <path fill="rgb(255,66,14)" stroke="none" d="M 16895,4856 L 17468,4856 17468,4855 16895,4855 16895,4856 Z"/>
 <path fill="rgb(255,66,14)" stroke="none" d="M 10009,3581 L 10582,3581 10582,3580 10009,3580 10009,3581 Z"/>
 <path fill="rgb(255,66,14)" stroke="none" d="M 3121,8888 L 3695,8888 3695,8887 3121,8887 3121,8888 Z"/>
 <path fill="rgb(0,69,134)" stroke="none" d="M 18042,4382 L 18616,4382 18616,4374 18042,4374 18042,4382 Z"/>
 <path fill="rgb(0,69,134)" stroke="none" d="M 16895,4855 L 17468,4855 17468,4848 16895,4848 16895,4855 Z"/>
 <path fill="rgb(0,69,134)" stroke="none" d="M 10009,3580 L 10582,3580 10582,3572 10009,3572 10009,3580 Z"/>
 <path fill="rgb(0,69,134)" stroke="none" d="M 3121,8887 L 3695,8887 3695,8879 3121,8879 3121,8887 Z"/>
 <path fill="rgb(153,204,255)" stroke="none" d="M 23782,10677 L 24356,10677 24356,10188 23782,10188 23782,10677 Z"/>
 <path fill="rgb(153,204,255)" stroke="none" d="M 15747,10375 L 16321,10375 16321,4407 15747,4407 15747,10375 Z"/>
 <path fill="rgb(153,204,255)" stroke="none" d="M 14600,10339 L 15173,10339 15173,4469 14600,4469 14600,10339 Z"/>
 <path fill="rgb(153,204,255)" stroke="none" d="M 13452,10328 L 14026,10328 14026,3565 13452,3565 13452,10328 Z"/>
 <path fill="rgb(153,204,255)" stroke="none" d="M 12304,10259 L 12878,10259 12878,3419 12304,3419 12304,10259 Z"/>
 <path fill="rgb(153,204,255)" stroke="none" d="M 11156,10254 L 11730,10254 11730,2898 11156,2898 11156,10254 Z"/>
 <path fill="rgb(153,204,255)" stroke="none" d="M 8861,10110 L 9435,10110 9435,3913 8861,3913 8861,10110 Z"/>
 <path fill="rgb(153,204,255)" stroke="none" d="M 7713,9984 L 8287,9984 8287,5275 7713,5275 7713,9984 Z"/>
 <path fill="rgb(153,204,255)" stroke="none" d="M 6565,9755 L 7139,9755 7139,6290 6565,6290 6565,9755 Z"/>
 <path fill="rgb(153,204,255)" stroke="none" d="M 5417,9637 L 5991,9637 5991,6265 5417,6265 5417,9637 Z"/>
 <path fill="rgb(153,204,255)" stroke="none" d="M 4269,9671 L 4843,9671 4843,7510 4269,7510 4269,9671 Z"/>
 <path fill="none" stroke="rgb(51,51,51)" stroke-width="80" stroke-linejoin="round" d="M 3408,9626 L 4556,9671 5704,9637 6852,9755 8000,9984 9148,10110 10295,10254 11443,10254 12591,10259 13739,10328 14887,10339 16034,10375 17182,10546 18329,10596 24069,10677"/>
 <path fill="none" stroke="rgb(153,204,255)" stroke-width="80" stroke-linejoin="round" d="M 3408,8879 L 4556,7510 5704,6265 6852,6290 8000,5275 9148,3913 10295,3572 11443,2898 12591,3419 13739,3565 14887,4469 16034,4407 17182,4848 18329,4374 24069,10188"/>
 <text class="SVGTextShape"><tspan class="TextParagraph" font-family="Liberation Sans, sans-serif" font-size="353px" font-weight="400"><tspan class="TextPosition" x="3037" y="14620"><tspan fill="rgb(0,0,0)" stroke="none">1950</tspan></tspan></tspan></text>
 <text class="SVGTextShape"><tspan class="TextParagraph" font-family="Liberation Sans, sans-serif" font-size="353px" font-weight="400"><tspan class="TextPosition" x="4185" y="14620"><tspan fill="rgb(0,0,0)" stroke="none">1955</tspan></tspan></tspan></text>
 <text class="SVGTextShape"><tspan class="TextParagraph" font-family="Liberation Sans, sans-serif" font-size="353px" font-weight="400"><tspan class="TextPosition" x="5333" y="14620"><tspan fill="rgb(0,0,0)" stroke="none">1960</tspan></tspan></tspan></text>
 <text class="SVGTextShape"><tspan class="TextParagraph" font-family="Liberation Sans, sans-serif" font-size="353px" font-weight="400"><tspan class="TextPosition" x="6481" y="14620"><tspan fill="rgb(0,0,0)" stroke="none">1965</tspan></tspan></tspan></text>
 <text class="SVGTextShape"><tspan class="TextParagraph" font-family="Liberation Sans, sans-serif" font-size="353px" font-weight="400"><tspan class="TextPosition" x="7629" y="14620"><tspan fill="rgb(0,0,0)" stroke="none">1970</tspan></tspan></tspan></text>
 <text class="SVGTextShape"><tspan class="TextParagraph" font-family="Liberation Sans, sans-serif" font-size="353px" font-weight="400"><tspan class="TextPosition" x="8777" y="14620"><tspan fill="rgb(0,0,0)" stroke="none">1975</tspan></tspan></tspan></text>
 <text class="SVGTextShape"><tspan class="TextParagraph" font-family="Liberation Sans, sans-serif" font-size="353px" font-weight="400"><tspan class="TextPosition" x="9924" y="14620"><tspan fill="rgb(0,0,0)" stroke="none">1980</tspan></tspan></tspan></text>
 <text class="SVGTextShape"><tspan class="TextParagraph" font-family="Liberation Sans, sans-serif" font-size="353px" font-weight="400"><tspan class="TextPosition" x="11072" y="14620"><tspan fill="rgb(0,0,0)" stroke="none">1985</tspan></tspan></tspan></text>
 <text class="SVGTextShape"><tspan class="TextParagraph" font-family="Liberation Sans, sans-serif" font-size="353px" font-weight="400"><tspan class="TextPosition" x="12220" y="14620"><tspan fill="rgb(0,0,0)" stroke="none">1990</tspan></tspan></tspan></text>
 <text class="SVGTextShape"><tspan class="TextParagraph" font-family="Liberation Sans, sans-serif" font-size="353px" font-weight="400"><tspan class="TextPosition" x="13368" y="14620"><tspan fill="rgb(0,0,0)" stroke="none">1995</tspan></tspan></tspan></text>
 <text class="SVGTextShape"><tspan class="TextParagraph" font-family="Liberation Sans, sans-serif" font-size="353px" font-weight="400"><tspan class="TextPosition" x="14516" y="14620"><tspan fill="rgb(0,0,0)" stroke="none">2000</tspan></tspan></tspan></text>
 <text class="SVGTextShape"><tspan class="TextParagraph" font-family="Liberation Sans, sans-serif" font-size="353px" font-weight="400"><tspan class="TextPosition" x="15664" y="14620"><tspan fill="rgb(0,0,0)" stroke="none">2005</tspan></tspan></tspan></text>
 <text class="SVGTextShape"><tspan class="TextParagraph" font-family="Liberation Sans, sans-serif" font-size="353px" font-weight="400"><tspan class="TextPosition" x="16812" y="14620"><tspan fill="rgb(0,0,0)" stroke="none">2010</tspan></tspan></tspan></text>
 <text class="SVGTextShape"><tspan class="TextParagraph" font-family="Liberation Sans, sans-serif" font-size="353px" font-weight="400"><tspan class="TextPosition" x="17959" y="14620"><tspan fill="rgb(0,0,0)" stroke="none">2015</tspan></tspan></tspan></text>
 <text class="SVGTextShape"><tspan class="TextParagraph" font-family="Liberation Sans, sans-serif" font-size="353px" font-weight="400"><tspan class="TextPosition" x="19107" y="14620"><tspan fill="rgb(0,0,0)" stroke="none">2020</tspan></tspan></tspan></text>
 <text class="SVGTextShape"><tspan class="TextParagraph" font-family="Liberation Sans, sans-serif" font-size="353px" font-weight="400"><tspan class="TextPosition" x="20255" y="14620"><tspan fill="rgb(0,0,0)" stroke="none">2025</tspan></tspan></tspan></text>
 <text class="SVGTextShape"><tspan class="TextParagraph" font-family="Liberation Sans, sans-serif" font-size="353px" font-weight="400"><tspan class="TextPosition" x="21403" y="14620"><tspan fill="rgb(0,0,0)" stroke="none">2030</tspan></tspan></tspan></text>
 <text class="SVGTextShape"><tspan class="TextParagraph" font-family="Liberation Sans, sans-serif" font-size="353px" font-weight="400"><tspan class="TextPosition" x="22551" y="14620"><tspan fill="rgb(0,0,0)" stroke="none">2035</tspan></tspan></tspan></text>
 <text class="SVGTextShape"><tspan class="TextParagraph" font-family="Liberation Sans, sans-serif" font-size="353px" font-weight="400"><tspan class="TextPosition" x="23699" y="14620"><tspan fill="rgb(0,0,0)" stroke="none">2040</tspan></tspan></tspan></text>
 <text class="SVGTextShape"><tspan class="TextParagraph" font-family="Liberation Sans, sans-serif" font-size="353px" font-weight="400"><tspan class="TextPosition" x="1924" y="14323"><tspan fill="rgb(0,0,0)" stroke="none">0 ha</tspan></tspan></tspan></text>
 <text class="SVGTextShape"><tspan class="TextParagraph" font-family="Liberation Sans, sans-serif" font-size="353px" font-weight="400"><tspan class="TextPosition" x="601" y="12365"><tspan fill="rgb(0,0,0)" stroke="none">1.000.000 ha</tspan></tspan></tspan></text>
 <text class="SVGTextShape"><tspan class="TextParagraph" font-family="Liberation Sans, sans-serif" font-size="353px" font-weight="400"><tspan class="TextPosition" x="601" y="10407"><tspan fill="rgb(0,0,0)" stroke="none">2.000.000 ha</tspan></tspan></tspan></text>
 <text class="SVGTextShape"><tspan class="TextParagraph" font-family="Liberation Sans, sans-serif" font-size="353px" font-weight="400"><tspan class="TextPosition" x="601" y="8449"><tspan fill="rgb(0,0,0)" stroke="none">3.000.000 ha</tspan></tspan></tspan></text>
 <text class="SVGTextShape"><tspan class="TextParagraph" font-family="Liberation Sans, sans-serif" font-size="353px" font-weight="400"><tspan class="TextPosition" x="601" y="6491"><tspan fill="rgb(0,0,0)" stroke="none">4.000.000 ha</tspan></tspan></tspan></text>
 <text class="SVGTextShape"><tspan class="TextParagraph" font-family="Liberation Sans, sans-serif" font-size="353px" font-weight="400"><tspan class="TextPosition" x="601" y="4533"><tspan fill="rgb(0,0,0)" stroke="none">5.000.000 ha</tspan></tspan></tspan></text>
 <text class="SVGTextShape"><tspan class="TextParagraph" font-family="Liberation Sans, sans-serif" font-size="353px" font-weight="400"><tspan class="TextPosition" x="601" y="2575"><tspan fill="rgb(0,0,0)" stroke="none">6.000.000 ha</tspan></tspan></tspan></text>
 <text class="SVGTextShape"><tspan class="TextParagraph" font-family="Liberation Sans, sans-serif" font-size="353px" font-weight="400"><tspan class="TextPosition" x="601" y="618"><tspan fill="rgb(0,0,0)" stroke="none">7.000.000 ha</tspan></tspan></tspan></text>
 <path fill="rgb(51,51,51)" stroke="none" d="M 25759,10592 L 25359,10592 25359,10381 26159,10381 26159,10592 25759,10592 Z"/>
 <path fill="rgb(197,0,11)" stroke="none" d="M 25759,10094 L 25359,10094 25359,9883 26159,9883 26159,10094 25759,10094 Z"/>
 <path fill="rgb(255,149,14)" stroke="none" d="M 25759,9596 L 25359,9596 25359,9385 26159,9385 26159,9596 25759,9596 Z"/>
 <path fill="rgb(75,31,111)" stroke="none" d="M 25759,9098 L 25359,9098 25359,8887 26159,8887 26159,9098 25759,9098 Z"/>
 <path fill="rgb(174,207,0)" stroke="none" d="M 25759,8600 L 25359,8600 25359,8389 26159,8389 26159,8600 25759,8600 Z"/>
 <path fill="rgb(49,64,4)" stroke="none" d="M 25759,8102 L 25359,8102 25359,7891 26159,7891 26159,8102 25759,8102 Z"/>
 <path fill="rgb(131,202,255)" stroke="none" d="M 25759,7604 L 25359,7604 25359,7394 26159,7394 26159,7604 25759,7604 Z"/>
 <path fill="rgb(126,0,33)" stroke="none" d="M 25759,7107 L 25359,7107 25359,6896 26159,6896 26159,7107 25759,7107 Z"/>
 <path fill="rgb(87,157,28)" stroke="none" d="M 25759,6609 L 25359,6609 25359,6398 26159,6398 26159,6609 25759,6609 Z"/>
 <path fill="rgb(255,211,32)" stroke="none" d="M 25759,6111 L 25359,6111 25359,5900 26159,5900 26159,6111 25759,6111 Z"/>
 <path fill="rgb(255,66,14)" stroke="none" d="M 25759,5613 L 25359,5613 25359,5402 26159,5402 26159,5613 25759,5613 Z"/>
 <path fill="rgb(0,69,134)" stroke="none" d="M 25759,5115 L 25359,5115 25359,4904 26159,4904 26159,5115 25759,5115 Z"/>
 <path fill="rgb(153,204,255)" stroke="none" d="M 25759,4617 L 25359,4617 25359,4406 26159,4406 26159,4617 25759,4617 Z"/>
 <text class="SVGTextShape"><tspan class="TextParagraph" font-family="Liberation Sans, sans-serif" font-size="353px" font-weight="400"><tspan class="TextPosition" x="26259" y="4631"><tspan fill="rgb(0,0,0)" stroke="none">indirect landgebruik</tspan></tspan></tspan></text>
 <text class="SVGTextShape"><tspan class="TextParagraph" font-family="Liberation Sans, sans-serif" font-size="353px" font-weight="400"><tspan class="TextPosition" x="26259" y="5129"><tspan fill="rgb(0,0,0)" stroke="none">transport en infrastr. </tspan></tspan></tspan></text>
 <text class="SVGTextShape"><tspan class="TextParagraph" font-family="Liberation Sans, sans-serif" font-size="353px" font-weight="400"><tspan class="TextPosition" x="26259" y="5627"><tspan fill="rgb(0,0,0)" stroke="none">dienstverlening </tspan></tspan></tspan></text>
 <text class="SVGTextShape"><tspan class="TextParagraph" font-family="Liberation Sans, sans-serif" font-size="353px" font-weight="400"><tspan class="TextPosition" x="26259" y="6125"><tspan fill="rgb(0,0,0)" stroke="none">elektronica </tspan></tspan></tspan></text>
 <text class="SVGTextShape"><tspan class="TextParagraph" font-family="Liberation Sans, sans-serif" font-size="353px" font-weight="400"><tspan class="TextPosition" x="26259" y="6623"><tspan fill="rgb(0,0,0)" stroke="none">bestrijdingsmiddelen </tspan></tspan></tspan></text>
 <text class="SVGTextShape"><tspan class="TextParagraph" font-family="Liberation Sans, sans-serif" font-size="353px" font-weight="400"><tspan class="TextPosition" x="26259" y="7121"><tspan fill="rgb(0,0,0)" stroke="none">kunstmest </tspan></tspan></tspan></text>
 <text class="SVGTextShape"><tspan class="TextParagraph" font-family="Liberation Sans, sans-serif" font-size="353px" font-weight="400"><tspan class="TextPosition" x="26259" y="7618"><tspan fill="rgb(0,0,0)" stroke="none">dierlijke mest </tspan></tspan></tspan></text>
 <text class="SVGTextShape"><tspan class="TextParagraph" font-family="Liberation Sans, sans-serif" font-size="353px" font-weight="400"><tspan class="TextPosition" x="26259" y="8116"><tspan fill="rgb(0,0,0)" stroke="none">veevoer </tspan></tspan></tspan></text>
 <text class="SVGTextShape"><tspan class="TextParagraph" font-family="Liberation Sans, sans-serif" font-size="353px" font-weight="400"><tspan class="TextPosition" x="26259" y="8614"><tspan fill="rgb(0,0,0)" stroke="none">trekkers en machines </tspan></tspan></tspan></text>
 <text class="SVGTextShape"><tspan class="TextParagraph" font-family="Liberation Sans, sans-serif" font-size="353px" font-weight="400"><tspan class="TextPosition" x="26259" y="9112"><tspan fill="rgb(0,0,0)" stroke="none">gebouwen </tspan></tspan></tspan></text>
 <text class="SVGTextShape"><tspan class="TextParagraph" font-family="Liberation Sans, sans-serif" font-size="353px" font-weight="400"><tspan class="TextPosition" x="26259" y="9610"><tspan fill="rgb(0,0,0)" stroke="none">mijnbouw </tspan></tspan></tspan></text>
 <text class="SVGTextShape"><tspan class="TextParagraph" font-family="Liberation Sans, sans-serif" font-size="353px" font-weight="400"><tspan class="TextPosition" x="26259" y="10108"><tspan fill="rgb(0,0,0)" stroke="none">energie toelevering</tspan></tspan></tspan></text>
 <text class="SVGTextShape"><tspan class="TextParagraph" font-family="Liberation Sans, sans-serif" font-size="353px" font-weight="400"><tspan class="TextPosition" x="26259" y="10606"><tspan fill="rgb(0,0,0)" stroke="none">direct landgebruik </tspan></tspan></tspan></text>
</svg>