<?xml version="1.0" encoding="UTF-8" standalone="no"?>
<svg
   width="109mm"
   height="61mm"
   viewBox="0 0 10900 6100"
   version="1.1"
   stroke-width="28.222"
   stroke-linejoin="round"
   xml:space="preserve"
   id="svg378"
   sodipodi:docname="meino smit - landgebruik - alles - nodig.svg"
   inkscape:version="1.1.1 (3bf5ae0d25, 2021-09-20)"
   xmlns:inkscape="http://www.inkscape.org/namespaces/inkscape"
   xmlns:sodipodi="http://sodipodi.sourceforge.net/DTD/sodipodi-0.dtd"
   xmlns:xlink="http://www.w3.org/1999/xlink"
   xmlns="http://www.w3.org/2000/svg"
   xmlns:svg="http://www.w3.org/2000/svg"><defs
   id="defs382"><linearGradient
     inkscape:collect="always"
     xlink:href="#linearGradient3508"
     id="linearGradient3205"
     x1="8820"
     y1="1424"
     x2="8820"
     y2="2014"
     gradientUnits="userSpaceOnUse"
     gradientTransform="matrix(0.77103014,0,0,0.9474577,529.51425,1721.8203)" /><linearGradient
     inkscape:collect="always"
     id="linearGradient3508"><stop
       style="stop-color:#ffcc00;stop-opacity:1"
       offset="0"
       id="stop3504" /><stop
       style="stop-color:#ffe680;stop-opacity:1"
       offset="1"
       id="stop3506" /></linearGradient></defs><sodipodi:namedview
   id="namedview380"
   pagecolor="#ffffff"
   bordercolor="#666666"
   borderopacity="1.0"
   inkscape:pageshadow="2"
   inkscape:pageopacity="0.0"
   inkscape:pagecheckerboard="0"
   inkscape:document-units="mm"
   showgrid="false"
   inkscape:zoom="2.8715787"
   inkscape:cx="205.98425"
   inkscape:cy="115.2676"
   inkscape:window-width="1876"
   inkscape:window-height="1051"
   inkscape:window-x="0"
   inkscape:window-y="0"
   inkscape:window-maximized="1"
   inkscape:current-layer="svg378" />
 <path
   fill="rgb(255,255,255)"
   stroke="none"
   d="M 5438,6124 L 0,6124 0,0 10875,0 10875,6124 5438,6124 Z"
   id="path2" /><rect
   style="fill:url(#linearGradient3205);fill-opacity:1;stroke-width:462.993;stroke-miterlimit:4;stroke-dasharray:none"
   id="rect1119"
   width="5142"
   height="559.00006"
   x="2188"
   y="3071" />
 <path
   fill="none"
   stroke="rgb(179,179,179)"
   stroke-linejoin="round"
   d="M 4759,4748 L 2188,4748 2188,1159 7330,1159 7330,4748 4759,4748 Z"
   id="path4" />
 <path
   fill="none"
   stroke="rgb(179,179,179)"
   stroke-linejoin="round"
   d="M 7330,4747 L 2188,4747"
   id="path6" />
 <path
   fill="none"
   stroke="rgb(179,179,179)"
   stroke-linejoin="round"
   d="M 7330,4348 L 2188,4348"
   id="path8" />
 <path
   fill="none"
   stroke="rgb(179,179,179)"
   stroke-linejoin="round"
   d="M 7330,3949 L 2188,3949"
   id="path10" />
 <path
   fill="none"
   stroke="rgb(179,179,179)"
   stroke-linejoin="round"
   d="M 7330,3550 L 2188,3550"
   id="path12" />
 <path
   fill="none"
   stroke="rgb(179,179,179)"
   stroke-linejoin="round"
   d="M 7330,3151 L 2188,3151"
   id="path14" />
 <path
   fill="none"
   stroke="rgb(179,179,179)"
   stroke-linejoin="round"
   d="M 7330,2753 L 2188,2753"
   id="path16" />
 <path
   fill="none"
   stroke="rgb(179,179,179)"
   stroke-linejoin="round"
   d="M 7330,2354 L 2188,2354"
   id="path18" />
 <path
   fill="none"
   stroke="rgb(179,179,179)"
   stroke-linejoin="round"
   d="M 7330,1955 L 2188,1955"
   id="path20" />
 <path
   fill="none"
   stroke="rgb(179,179,179)"
   stroke-linejoin="round"
   d="M 7330,1556 L 2188,1556"
   id="path22" />
 <path
   fill="none"
   stroke="rgb(179,179,179)"
   stroke-linejoin="round"
   d="M 7330,1158 L 2188,1158"
   id="path24" />
 <path
   fill="none"
   stroke="rgb(179,179,179)"
   stroke-linejoin="round"
   d="M 2188,4897 L 2188,4747"
   id="path26" />
 <path
   fill="none"
   stroke="rgb(179,179,179)"
   stroke-linejoin="round"
   d="M 2188,4897 L 2188,4747"
   id="path28" />
 <path
   fill="none"
   stroke="rgb(179,179,179)"
   stroke-linejoin="round"
   d="M 2583,4897 L 2583,4747"
   id="path30" />
 <path
   fill="none"
   stroke="rgb(179,179,179)"
   stroke-linejoin="round"
   d="M 2583,4897 L 2583,4747"
   id="path32" />
 <path
   fill="none"
   stroke="rgb(179,179,179)"
   stroke-linejoin="round"
   d="M 2979,4897 L 2979,4747"
   id="path34" />
 <path
   fill="none"
   stroke="rgb(179,179,179)"
   stroke-linejoin="round"
   d="M 2979,4897 L 2979,4747"
   id="path36" />
 <path
   fill="none"
   stroke="rgb(179,179,179)"
   stroke-linejoin="round"
   d="M 3374,4897 L 3374,4747"
   id="path38" />
 <path
   fill="none"
   stroke="rgb(179,179,179)"
   stroke-linejoin="round"
   d="M 3374,4897 L 3374,4747"
   id="path40" />
 <path
   fill="none"
   stroke="rgb(179,179,179)"
   stroke-linejoin="round"
   d="M 3770,4897 L 3770,4747"
   id="path42" />
 <path
   fill="none"
   stroke="rgb(179,179,179)"
   stroke-linejoin="round"
   d="M 3770,4897 L 3770,4747"
   id="path44" />
 <path
   fill="none"
   stroke="rgb(179,179,179)"
   stroke-linejoin="round"
   d="M 4166,4897 L 4166,4747"
   id="path46" />
 <path
   fill="none"
   stroke="rgb(179,179,179)"
   stroke-linejoin="round"
   d="M 4166,4897 L 4166,4747"
   id="path48" />
 <path
   fill="none"
   stroke="rgb(179,179,179)"
   stroke-linejoin="round"
   d="M 4561,4897 L 4561,4747"
   id="path50" />
 <path
   fill="none"
   stroke="rgb(179,179,179)"
   stroke-linejoin="round"
   d="M 4561,4897 L 4561,4747"
   id="path52" />
 <path
   fill="none"
   stroke="rgb(179,179,179)"
   stroke-linejoin="round"
   d="M 4957,4897 L 4957,4747"
   id="path54" />
 <path
   fill="none"
   stroke="rgb(179,179,179)"
   stroke-linejoin="round"
   d="M 4957,4897 L 4957,4747"
   id="path56" />
 <path
   fill="none"
   stroke="rgb(179,179,179)"
   stroke-linejoin="round"
   d="M 5352,4897 L 5352,4747"
   id="path58" />
 <path
   fill="none"
   stroke="rgb(179,179,179)"
   stroke-linejoin="round"
   d="M 5352,4897 L 5352,4747"
   id="path60" />
 <path
   fill="none"
   stroke="rgb(179,179,179)"
   stroke-linejoin="round"
   d="M 5747,4897 L 5747,4747"
   id="path62" />
 <path
   fill="none"
   stroke="rgb(179,179,179)"
   stroke-linejoin="round"
   d="M 5747,4897 L 5747,4747"
   id="path64" />
 <path
   fill="none"
   stroke="rgb(179,179,179)"
   stroke-linejoin="round"
   d="M 6143,4897 L 6143,4747"
   id="path66" />
 <path
   fill="none"
   stroke="rgb(179,179,179)"
   stroke-linejoin="round"
   d="M 6143,4897 L 6143,4747"
   id="path68" />
 <path
   fill="none"
   stroke="rgb(179,179,179)"
   stroke-linejoin="round"
   d="M 6538,4897 L 6538,4747"
   id="path70" />
 <path
   fill="none"
   stroke="rgb(179,179,179)"
   stroke-linejoin="round"
   d="M 6538,4897 L 6538,4747"
   id="path72" />
 <path
   fill="none"
   stroke="rgb(179,179,179)"
   stroke-linejoin="round"
   d="M 6934,4897 L 6934,4747"
   id="path74" />
 <path
   fill="none"
   stroke="rgb(179,179,179)"
   stroke-linejoin="round"
   d="M 6934,4897 L 6934,4747"
   id="path76" />
 <path
   fill="none"
   stroke="rgb(179,179,179)"
   stroke-linejoin="round"
   d="M 7330,4897 L 7330,4747"
   id="path78" />
 <path
   fill="none"
   stroke="rgb(179,179,179)"
   stroke-linejoin="round"
   d="M 7330,4897 L 7330,4747"
   id="path80" />
 <path
   fill="none"
   stroke="rgb(179,179,179)"
   stroke-linejoin="round"
   d="M 2188,4747 L 7330,4747"
   id="path82" />
 <path
   fill="none"
   stroke="rgb(179,179,179)"
   stroke-linejoin="round"
   d="M 2038,4747 L 2188,4747"
   id="path84" />
 <path
   fill="none"
   stroke="rgb(179,179,179)"
   stroke-linejoin="round"
   d="M 2038,4747 L 2188,4747"
   id="path86" />
 <path
   fill="none"
   stroke="rgb(179,179,179)"
   stroke-linejoin="round"
   d="M 2038,4348 L 2188,4348"
   id="path88" />
 <path
   fill="none"
   stroke="rgb(179,179,179)"
   stroke-linejoin="round"
   d="M 2038,4348 L 2188,4348"
   id="path90" />
 <path
   fill="none"
   stroke="rgb(179,179,179)"
   stroke-linejoin="round"
   d="M 2038,3949 L 2188,3949"
   id="path92" />
 <path
   fill="none"
   stroke="rgb(179,179,179)"
   stroke-linejoin="round"
   d="M 2038,3949 L 2188,3949"
   id="path94" />
 <path
   fill="none"
   stroke="rgb(179,179,179)"
   stroke-linejoin="round"
   d="M 2038,3550 L 2188,3550"
   id="path96" />
 <path
   fill="none"
   stroke="rgb(179,179,179)"
   stroke-linejoin="round"
   d="M 2038,3550 L 2188,3550"
   id="path98" />
 <path
   fill="none"
   stroke="rgb(179,179,179)"
   stroke-linejoin="round"
   d="M 2038,3151 L 2188,3151"
   id="path100" />
 <path
   fill="none"
   stroke="rgb(179,179,179)"
   stroke-linejoin="round"
   d="M 2038,3151 L 2188,3151"
   id="path102" />
 <path
   fill="none"
   stroke="rgb(179,179,179)"
   stroke-linejoin="round"
   d="M 2038,2753 L 2188,2753"
   id="path104" />
 <path
   fill="none"
   stroke="rgb(179,179,179)"
   stroke-linejoin="round"
   d="M 2038,2753 L 2188,2753"
   id="path106" />
 <path
   fill="none"
   stroke="rgb(179,179,179)"
   stroke-linejoin="round"
   d="M 2038,2354 L 2188,2354"
   id="path108" />
 <path
   fill="none"
   stroke="rgb(179,179,179)"
   stroke-linejoin="round"
   d="M 2038,2354 L 2188,2354"
   id="path110" />
 <path
   fill="none"
   stroke="rgb(179,179,179)"
   stroke-linejoin="round"
   d="M 2038,1955 L 2188,1955"
   id="path112" />
 <path
   fill="none"
   stroke="rgb(179,179,179)"
   stroke-linejoin="round"
   d="M 2038,1955 L 2188,1955"
   id="path114" />
 <path
   fill="none"
   stroke="rgb(179,179,179)"
   stroke-linejoin="round"
   d="M 2038,1556 L 2188,1556"
   id="path116" />
 <path
   fill="none"
   stroke="rgb(179,179,179)"
   stroke-linejoin="round"
   d="M 2038,1556 L 2188,1556"
   id="path118" />
 <path
   fill="none"
   stroke="rgb(179,179,179)"
   stroke-linejoin="round"
   d="M 2038,1158 L 2188,1158"
   id="path120" />
 <path
   fill="none"
   stroke="rgb(179,179,179)"
   stroke-linejoin="round"
   d="M 2038,1158 L 2188,1158"
   id="path122" />
 <path
   fill="none"
   stroke="rgb(179,179,179)"
   stroke-linejoin="round"
   d="M 2188,4747 L 2188,1158"
   id="path124" />
 
 
 <path
   fill="none"
   stroke="rgb(0,69,134)"
   stroke-width="80"
   stroke-linejoin="round"
   d="M 2188,2888 L 2583,3019 2979,3117 3374,3263 3770,3420 4166,3521 4561,3605 4957,3634 5352,3668 5747,3723 6143,3754 6538,3790 6934,3848 7330,3877"
   id="path130" />
 <path
   fill="rgb(0,69,134)"
   stroke="none"
   d="M 2063,2763 L 2063,3013 2313,3013 2313,2763 2063,2763 Z"
   id="path132" />
 <path
   fill="none"
   stroke="rgb(0,69,134)"
   stroke-linejoin="round"
   d="M 2063,2763 L 2063,3013 2313,3013 2313,2763 2063,2763 Z"
   id="path134" />
 <path
   fill="rgb(0,69,134)"
   stroke="none"
   d="M 2458,2894 L 2458,3143 2708,3143 2708,2894 2458,2894 Z"
   id="path136" />
 <path
   fill="none"
   stroke="rgb(0,69,134)"
   stroke-linejoin="round"
   d="M 2458,2894 L 2458,3143 2708,3143 2708,2894 2458,2894 Z"
   id="path138" />
 <path
   fill="rgb(0,69,134)"
   stroke="none"
   d="M 2854,2993 L 2854,3242 3104,3242 3104,2993 2854,2993 Z"
   id="path140" />
 <path
   fill="none"
   stroke="rgb(0,69,134)"
   stroke-linejoin="round"
   d="M 2854,2993 L 2854,3242 3104,3242 3104,2993 2854,2993 Z"
   id="path142" />
 <path
   fill="rgb(0,69,134)"
   stroke="none"
   d="M 3249,3138 L 3249,3388 3499,3388 3499,3138 3249,3138 Z"
   id="path144" />
 <path
   fill="none"
   stroke="rgb(0,69,134)"
   stroke-linejoin="round"
   d="M 3249,3138 L 3249,3388 3499,3388 3499,3138 3249,3138 Z"
   id="path146" />
 <path
   fill="rgb(0,69,134)"
   stroke="none"
   d="M 3645,3295 L 3645,3545 3895,3545 3895,3295 3645,3295 Z"
   id="path148" />
 <path
   fill="none"
   stroke="rgb(0,69,134)"
   stroke-linejoin="round"
   d="M 3645,3295 L 3645,3545 3895,3545 3895,3295 3645,3295 Z"
   id="path150" />
 <path
   fill="rgb(0,69,134)"
   stroke="none"
   d="M 4041,3396 L 4041,3646 4291,3646 4291,3396 4041,3396 Z"
   id="path152" />
 <path
   fill="none"
   stroke="rgb(0,69,134)"
   stroke-linejoin="round"
   d="M 4041,3396 L 4041,3646 4291,3646 4291,3396 4041,3396 Z"
   id="path154" />
 <path
   fill="rgb(0,69,134)"
   stroke="none"
   d="M 4436,3480 L 4436,3730 4686,3730 4686,3480 4436,3480 Z"
   id="path156" />
 <path
   fill="none"
   stroke="rgb(0,69,134)"
   stroke-linejoin="round"
   d="M 4436,3480 L 4436,3730 4686,3730 4686,3480 4436,3480 Z"
   id="path158" />
 <path
   fill="rgb(0,69,134)"
   stroke="none"
   d="M 4832,3509 L 4832,3759 5082,3759 5082,3509 4832,3509 Z"
   id="path160" />
 <path
   fill="none"
   stroke="rgb(0,69,134)"
   stroke-linejoin="round"
   d="M 4832,3509 L 4832,3759 5082,3759 5082,3509 4832,3509 Z"
   id="path162" />
 <path
   fill="rgb(0,69,134)"
   stroke="none"
   d="M 5227,3543 L 5227,3793 5476,3793 5476,3543 5227,3543 Z"
   id="path164" />
 <path
   fill="none"
   stroke="rgb(0,69,134)"
   stroke-linejoin="round"
   d="M 5227,3543 L 5227,3793 5476,3793 5476,3543 5227,3543 Z"
   id="path166" />
 <path
   fill="rgb(0,69,134)"
   stroke="none"
   d="M 5622,3598 L 5622,3848 5872,3848 5872,3598 5622,3598 Z"
   id="path168" />
 <path
   fill="none"
   stroke="rgb(0,69,134)"
   stroke-linejoin="round"
   d="M 5622,3598 L 5622,3848 5872,3848 5872,3598 5622,3598 Z"
   id="path170" />
 <path
   fill="rgb(0,69,134)"
   stroke="none"
   d="M 6018,3629 L 6018,3879 6268,3879 6268,3629 6018,3629 Z"
   id="path172" />
 <path
   fill="none"
   stroke="rgb(0,69,134)"
   stroke-linejoin="round"
   d="M 6018,3629 L 6018,3879 6268,3879 6268,3629 6018,3629 Z"
   id="path174" />
 <path
   fill="rgb(0,69,134)"
   stroke="none"
   d="M 6413,3665 L 6413,3915 6663,3915 6663,3665 6413,3665 Z"
   id="path176" />
 <path
   fill="none"
   stroke="rgb(0,69,134)"
   stroke-linejoin="round"
   d="M 6413,3665 L 6413,3915 6663,3915 6663,3665 6413,3665 Z"
   id="path178" />
 <path
   fill="rgb(0,69,134)"
   stroke="none"
   d="M 6809,3723 L 6809,3973 7059,3973 7059,3723 6809,3723 Z"
   id="path180" />
 <path
   fill="none"
   stroke="rgb(0,69,134)"
   stroke-linejoin="round"
   d="M 6809,3723 L 6809,3973 7059,3973 7059,3723 6809,3723 Z"
   id="path182" />
 <path
   fill="rgb(0,69,134)"
   stroke="none"
   d="M 7205,3752 L 7205,4002 7455,4002 7455,3752 7205,3752 Z"
   id="path184" />
 <path
   fill="none"
   stroke="rgb(0,69,134)"
   stroke-linejoin="round"
   d="M 7205,3752 L 7205,4002 7455,4002 7455,3752 7205,3752 Z"
   id="path186" />
 <path
   fill="none"
   stroke="rgb(255,66,14)"
   stroke-width="80"
   stroke-linejoin="round"
   d="M 2188,2585 L 2583,2195 2979,1915 3374,2107 3770,1940 4166,1664 4561,1673 4957,1561 5352,1797 5747,1937 6143,2247 6538,2300 6934,2448 7330,2378"
   id="path188" />
 <path
   fill="rgb(255,66,14)"
   stroke="none"
   d="M 2063,2585 L 2188,2710 2313,2585 2188,2460 2063,2585 Z"
   id="path190" />
 <path
   fill="none"
   stroke="rgb(255,66,14)"
   stroke-linejoin="round"
   d="M 2063,2585 L 2188,2710 2313,2585 2188,2460 2063,2585 Z"
   id="path192" />
 <path
   fill="rgb(255,66,14)"
   stroke="none"
   d="M 2458,2195 L 2583,2320 2708,2195 2583,2070 2458,2195 Z"
   id="path194" />
 <path
   fill="none"
   stroke="rgb(255,66,14)"
   stroke-linejoin="round"
   d="M 2458,2195 L 2583,2320 2708,2195 2583,2070 2458,2195 Z"
   id="path196" />
 <path
   fill="rgb(255,66,14)"
   stroke="none"
   d="M 2854,1915 L 2979,2040 3104,1915 2979,1790 2854,1915 Z"
   id="path198" />
 <path
   fill="none"
   stroke="rgb(255,66,14)"
   stroke-linejoin="round"
   d="M 2854,1915 L 2979,2040 3104,1915 2979,1790 2854,1915 Z"
   id="path200" />
 <path
   fill="rgb(255,66,14)"
   stroke="none"
   d="M 3249,2107 L 3374,2232 3499,2107 3374,1982 3249,2107 Z"
   id="path202" />
 <path
   fill="none"
   stroke="rgb(255,66,14)"
   stroke-linejoin="round"
   d="M 3249,2107 L 3374,2232 3499,2107 3374,1982 3249,2107 Z"
   id="path204" />
 <path
   fill="rgb(255,66,14)"
   stroke="none"
   d="M 3645,1940 L 3770,2065 3895,1940 3770,1815 3645,1940 Z"
   id="path206" />
 <path
   fill="none"
   stroke="rgb(255,66,14)"
   stroke-linejoin="round"
   d="M 3645,1940 L 3770,2065 3895,1940 3770,1815 3645,1940 Z"
   id="path208" />
 <path
   fill="rgb(255,66,14)"
   stroke="none"
   d="M 4041,1664 L 4166,1789 4291,1664 4166,1539 4041,1664 Z"
   id="path210" />
 <path
   fill="none"
   stroke="rgb(255,66,14)"
   stroke-linejoin="round"
   d="M 4041,1664 L 4166,1789 4291,1664 4166,1539 4041,1664 Z"
   id="path212" />
 <path
   fill="rgb(255,66,14)"
   stroke="none"
   d="M 4436,1673 L 4561,1798 4686,1673 4561,1548 4436,1673 Z"
   id="path214" />
 <path
   fill="none"
   stroke="rgb(255,66,14)"
   stroke-linejoin="round"
   d="M 4436,1673 L 4561,1798 4686,1673 4561,1548 4436,1673 Z"
   id="path216" />
 <path
   fill="rgb(255,66,14)"
   stroke="none"
   d="M 4832,1561 L 4957,1686 5082,1561 4957,1436 4832,1561 Z"
   id="path218" />
 <path
   fill="none"
   stroke="rgb(255,66,14)"
   stroke-linejoin="round"
   d="M 4832,1561 L 4957,1686 5082,1561 4957,1436 4832,1561 Z"
   id="path220" />
 <path
   fill="rgb(255,66,14)"
   stroke="none"
   d="M 5227,1797 L 5352,1922 5476,1797 5352,1672 5227,1797 Z"
   id="path222" />
 <path
   fill="none"
   stroke="rgb(255,66,14)"
   stroke-linejoin="round"
   d="M 5227,1797 L 5352,1922 5476,1797 5352,1672 5227,1797 Z"
   id="path224" />
 <path
   fill="rgb(255,66,14)"
   stroke="none"
   d="M 5622,1937 L 5747,2062 5872,1937 5747,1812 5622,1937 Z"
   id="path226" />
 <path
   fill="none"
   stroke="rgb(255,66,14)"
   stroke-linejoin="round"
   d="M 5622,1937 L 5747,2062 5872,1937 5747,1812 5622,1937 Z"
   id="path228" />
 <path
   fill="rgb(255,66,14)"
   stroke="none"
   d="M 6018,2247 L 6143,2372 6268,2247 6143,2122 6018,2247 Z"
   id="path230" />
 <path
   fill="none"
   stroke="rgb(255,66,14)"
   stroke-linejoin="round"
   d="M 6018,2247 L 6143,2372 6268,2247 6143,2122 6018,2247 Z"
   id="path232" />
 <path
   fill="rgb(255,66,14)"
   stroke="none"
   d="M 6413,2300 L 6538,2425 6663,2300 6538,2175 6413,2300 Z"
   id="path234" />
 <path
   fill="none"
   stroke="rgb(255,66,14)"
   stroke-linejoin="round"
   d="M 6413,2300 L 6538,2425 6663,2300 6538,2175 6413,2300 Z"
   id="path236" />
 <path
   fill="rgb(255,66,14)"
   stroke="none"
   d="M 6809,2448 L 6934,2573 7059,2448 6934,2323 6809,2448 Z"
   id="path238" />
 <path
   fill="none"
   stroke="rgb(255,66,14)"
   stroke-linejoin="round"
   d="M 6809,2448 L 6934,2573 7059,2448 6934,2323 6809,2448 Z"
   id="path240" />
 <path
   fill="rgb(255,66,14)"
   stroke="none"
   d="M 7205,2378 L 7330,2503 7455,2378 7330,2253 7205,2378 Z"
   id="path242" />
 <path
   fill="none"
   stroke="rgb(255,66,14)"
   stroke-linejoin="round"
   d="M 7205,2378 L 7330,2503 7455,2378 7330,2253 7205,2378 Z"
   id="path244" />
 <text
   class="SVGTextShape"
   transform="rotate(-44.9 1747 5746)"
   id="text252"><tspan
     class="TextParagraph"
     font-family="Liberation Sans, sans-serif"
     font-size="353px"
     font-weight="400"
     id="tspan250"><tspan
       class="TextPosition"
       x="1747"
       y="5746"
       id="tspan248"><tspan
         fill="rgb(0,0,0)"
         stroke="none"
         id="tspan246">1950</tspan></tspan></tspan></text>
 <text
   class="SVGTextShape"
   transform="rotate(-44.9 2538 5746)"
   id="text260"><tspan
     class="TextParagraph"
     font-family="Liberation Sans, sans-serif"
     font-size="353px"
     font-weight="400"
     id="tspan258"><tspan
       class="TextPosition"
       x="2538"
       y="5746"
       id="tspan256"><tspan
         fill="rgb(0,0,0)"
         stroke="none"
         id="tspan254">1960</tspan></tspan></tspan></text>
 <text
   class="SVGTextShape"
   transform="rotate(-44.9 3329 5746)"
   id="text268"><tspan
     class="TextParagraph"
     font-family="Liberation Sans, sans-serif"
     font-size="353px"
     font-weight="400"
     id="tspan266"><tspan
       class="TextPosition"
       x="3329"
       y="5746"
       id="tspan264"><tspan
         fill="rgb(0,0,0)"
         stroke="none"
         id="tspan262">1970</tspan></tspan></tspan></text>
 <text
   class="SVGTextShape"
   transform="rotate(-44.9 4120 5746)"
   id="text276"><tspan
     class="TextParagraph"
     font-family="Liberation Sans, sans-serif"
     font-size="353px"
     font-weight="400"
     id="tspan274"><tspan
       class="TextPosition"
       x="4120"
       y="5746"
       id="tspan272"><tspan
         fill="rgb(0,0,0)"
         stroke="none"
         id="tspan270">1980</tspan></tspan></tspan></text>
 <text
   class="SVGTextShape"
   transform="rotate(-44.9 4911 5746)"
   id="text284"><tspan
     class="TextParagraph"
     font-family="Liberation Sans, sans-serif"
     font-size="353px"
     font-weight="400"
     id="tspan282"><tspan
       class="TextPosition"
       x="4911"
       y="5746"
       id="tspan280"><tspan
         fill="rgb(0,0,0)"
         stroke="none"
         id="tspan278">1990</tspan></tspan></tspan></text>
 <text
   class="SVGTextShape"
   transform="rotate(-44.9 5703 5746)"
   id="text292"><tspan
     class="TextParagraph"
     font-family="Liberation Sans, sans-serif"
     font-size="353px"
     font-weight="400"
     id="tspan290"><tspan
       class="TextPosition"
       x="5703"
       y="5746"
       id="tspan288"><tspan
         fill="rgb(0,0,0)"
         stroke="none"
         id="tspan286">2000</tspan></tspan></tspan></text>
 <text
   class="SVGTextShape"
   transform="rotate(-44.9 6494 5746)"
   id="text300"><tspan
     class="TextParagraph"
     font-family="Liberation Sans, sans-serif"
     font-size="353px"
     font-weight="400"
     id="tspan298"><tspan
       class="TextPosition"
       x="6494"
       y="5746"
       id="tspan296"><tspan
         fill="rgb(0,0,0)"
         stroke="none"
         id="tspan294">2010</tspan></tspan></tspan></text>
 <text
   class="SVGTextShape"
   id="text308"><tspan
     class="TextParagraph"
     font-family="Liberation Sans, sans-serif"
     font-size="353px"
     font-weight="400"
     id="tspan306"><tspan
       class="TextPosition"
       x="403"
       y="4868"
       id="tspan304"><tspan
         fill="rgb(0,0,0)"
         stroke="none"
         id="tspan302">0 are/pers</tspan></tspan></tspan></text>
 <text
   class="SVGTextShape"
   id="text316"><tspan
     class="TextParagraph"
     font-family="Liberation Sans, sans-serif"
     font-size="353px"
     font-weight="400"
     id="tspan314"><tspan
       class="TextPosition"
       x="218"
       y="4070"
       id="tspan312"><tspan
         fill="rgb(0,0,0)"
         stroke="none"
         id="tspan310">10 are/pers</tspan></tspan></tspan></text>
 <text
   class="SVGTextShape"
   id="text324"><tspan
     class="TextParagraph"
     font-family="Liberation Sans, sans-serif"
     font-size="353px"
     font-weight="400"
     id="tspan322"><tspan
       class="TextPosition"
       x="218"
       y="3272"
       id="tspan320"><tspan
         fill="rgb(0,0,0)"
         stroke="none"
         id="tspan318">20 are/pers</tspan></tspan></tspan></text>
 <text
   class="SVGTextShape"
   id="text332"><tspan
     class="TextParagraph"
     font-family="Liberation Sans, sans-serif"
     font-size="353px"
     font-weight="400"
     id="tspan330"><tspan
       class="TextPosition"
       x="218"
       y="2474"
       id="tspan328"><tspan
         fill="rgb(0,0,0)"
         stroke="none"
         id="tspan326">30 are/pers</tspan></tspan></tspan></text>
 <text
   class="SVGTextShape"
   id="text340"><tspan
     class="TextParagraph"
     font-family="Liberation Sans, sans-serif"
     font-size="353px"
     font-weight="400"
     id="tspan338"><tspan
       class="TextPosition"
       x="218"
       y="1676"
       id="tspan336"><tspan
         fill="rgb(0,0,0)"
         stroke="none"
         id="tspan334">40 are/pers</tspan></tspan></tspan></text>
 <text
   class="SVGTextShape"
   id="text348"><tspan
     class="TextParagraph"
     font-family="Liberation Sans, sans-serif"
     font-size="459px"
     font-weight="400"
     id="tspan346"><tspan
       class="TextPosition"
       x="2593"
       y="793"
       id="tspan344"><tspan
         fill="rgb(0,0,0)"
         stroke="none"
         id="tspan342">Landbouwareaal per persoon</tspan></tspan></tspan></text>
 <path
   fill="none"
   stroke="rgb(0,69,134)"
   stroke-width="80"
   stroke-linejoin="round"
   d="M 7690,1539 L 8490,1539"
   id="path350" />
 <path
   fill="rgb(0,69,134)"
   stroke="none"
   d="M 7984,1434 L 7984,1645 8195,1645 8195,1434 7984,1434 Z"
   id="path352" />
 <path
   fill="none"
   stroke="rgb(0,69,134)"
   stroke-linejoin="round"
   d="M 7984,1434 L 7984,1645 8195,1645 8195,1434 7984,1434 Z"
   id="path354" />
 <path
   fill="none"
   stroke="rgb(255,66,14)"
   stroke-width="80"
   stroke-linejoin="round"
   d="M 7690,2037 L 8490,2037"
   id="path356" />
 <path
   fill="rgb(255,66,14)"
   stroke="none"
   d="M 7984,2037 L 8090,2143 8195,2037 8090,1932 7984,2037 Z"
   id="path358" />
 <path
   fill="none"
   stroke="rgb(255,66,14)"
   stroke-linejoin="round"
   d="M 7984,2037 L 8090,2143 8195,2037 8090,1932 7984,2037 Z"
   id="path360" />
 <text
   class="SVGTextShape"
   id="text368"><tspan
     class="TextParagraph"
     font-family="Liberation Sans, sans-serif"
     font-size="353px"
     font-weight="400"
     id="tspan366"><tspan
       class="TextPosition"
       x="8590"
       y="1659"
       id="tspan364"><tspan
         fill="rgb(0,0,0)"
         stroke="none"
         id="tspan362">Direct areaal</tspan></tspan></tspan></text>
 <text
   class="SVGTextShape"
   id="text376"><tspan
     class="TextParagraph"
     font-family="Liberation Sans, sans-serif"
     font-size="353px"
     font-weight="400"
     id="tspan374"><tspan
       class="TextPosition"
       x="8590"
       y="2157"
       id="tspan372"><tspan
         fill="rgb(0,0,0)"
         stroke="none"
         id="tspan370">Totaal areaal</tspan></tspan></tspan></text>
</svg>
