<?xml version="1.0" encoding="UTF-8" standalone="no"?>
<svg
   width="300mm"
   height="150mm"
   viewBox="0 0 30000 15000"
   version="1.1"
   stroke-width="28.222"
   stroke-linejoin="round"
   xml:space="preserve"
   id="svg506"
   sodipodi:docname="meino smit - landgebruik - alles - inset.svg"
   inkscape:version="1.1.1 (3bf5ae0d25, 2021-09-20)"
   xmlns:inkscape="http://www.inkscape.org/namespaces/inkscape"
   xmlns:sodipodi="http://sodipodi.sourceforge.net/DTD/sodipodi-0.dtd"
   xmlns="http://www.w3.org/2000/svg"
   xmlns:svg="http://www.w3.org/2000/svg"><defs
   id="defs510"><linearGradient
     id="Gradient_2"
     gradientUnits="userSpaceOnUse"
     x1="3882"
     y1="264"
     x2="3882"
     y2="2979">
   <stop
   offset="0.3"
   stop-color="rgb(204,0,0)"
   id="stop1331" />
   <stop
   offset="1"
   stop-color="rgb(0,153,0)"
   id="stop1333" />
  </linearGradient></defs><sodipodi:namedview
   id="namedview508"
   pagecolor="#ffffff"
   bordercolor="#666666"
   borderopacity="1.0"
   inkscape:pageshadow="2"
   inkscape:pageopacity="0.0"
   inkscape:pagecheckerboard="0"
   inkscape:document-units="mm"
   showgrid="false"
   inkscape:snap-global="true"
   inkscape:zoom="1.0433403"
   inkscape:cx="450.95546"
   inkscape:cy="323.95951"
   inkscape:window-width="1876"
   inkscape:window-height="1051"
   inkscape:window-x="0"
   inkscape:window-y="0"
   inkscape:window-maximized="1"
   inkscape:current-layer="svg506" />
 <path
   fill="#ffffff"
   stroke="none"
   d="M 15050.719,15000 H 50.718512 V 0 H 30050.719 v 15000 z"
   id="path2" />
 <path
   fill="none"
   stroke="rgb(179,179,179)"
   stroke-linejoin="round"
   d="M 13739,14203 L 2835,14203 2835,1882 24643,1882 24643,14203 13739,14203 Z"
   id="path4" />
 <path
   fill="none"
   stroke="rgb(179,179,179)"
   stroke-linejoin="round"
   d="M 24643,14202 L 2835,14202"
   id="path6" />
 <path
   fill="none"
   stroke="rgb(179,179,179)"
   stroke-linejoin="round"
   d="M 24643,12441 L 2835,12441"
   id="path8" />
 <path
   fill="none"
   stroke="rgb(179,179,179)"
   stroke-linejoin="round"
   d="M 24643,10681 L 2835,10681"
   id="path10" />
 <path
   fill="none"
   stroke="rgb(179,179,179)"
   stroke-linejoin="round"
   d="M 24643,8921 L 2835,8921"
   id="path12" />
 <path
   fill="none"
   stroke="rgb(179,179,179)"
   stroke-linejoin="round"
   d="M 24643,7161 L 2835,7161"
   id="path14" />
 <path
   fill="none"
   stroke="rgb(179,179,179)"
   stroke-linejoin="round"
   d="M 24643,5401 L 2835,5401"
   id="path16" />
 <path
   fill="none"
   stroke="rgb(179,179,179)"
   stroke-linejoin="round"
   d="M 24643,3641 L 2835,3641"
   id="path18" />
 <path
   fill="none"
   stroke="rgb(179,179,179)"
   stroke-linejoin="round"
   d="M 24643,1881 L 2835,1881"
   id="path20" />
 <path
   fill="none"
   stroke="rgb(179,179,179)"
   stroke-linejoin="round"
   d="M 2835,14202 L 24643,14202"
   id="path22" />
 <path
   fill="none"
   stroke="rgb(179,179,179)"
   stroke-linejoin="round"
   d="M 2685,14202 L 2835,14202"
   id="path24" />
 <path
   fill="none"
   stroke="rgb(179,179,179)"
   stroke-linejoin="round"
   d="M 2685,14202 L 2835,14202"
   id="path26" />
 <path
   fill="none"
   stroke="rgb(179,179,179)"
   stroke-linejoin="round"
   d="M 2685,12441 L 2835,12441"
   id="path28" />
 <path
   fill="none"
   stroke="rgb(179,179,179)"
   stroke-linejoin="round"
   d="M 2685,12441 L 2835,12441"
   id="path30" />
 <path
   fill="none"
   stroke="rgb(179,179,179)"
   stroke-linejoin="round"
   d="M 2685,10681 L 2835,10681"
   id="path32" />
 <path
   fill="none"
   stroke="rgb(179,179,179)"
   stroke-linejoin="round"
   d="M 2685,10681 L 2835,10681"
   id="path34" />
 <path
   fill="none"
   stroke="rgb(179,179,179)"
   stroke-linejoin="round"
   d="M 2685,8921 L 2835,8921"
   id="path36" />
 <path
   fill="none"
   stroke="rgb(179,179,179)"
   stroke-linejoin="round"
   d="M 2685,8921 L 2835,8921"
   id="path38" />
 <path
   fill="none"
   stroke="rgb(179,179,179)"
   stroke-linejoin="round"
   d="M 2685,7161 L 2835,7161"
   id="path40" />
 <path
   fill="none"
   stroke="rgb(179,179,179)"
   stroke-linejoin="round"
   d="M 2685,7161 L 2835,7161"
   id="path42" />
 <path
   fill="none"
   stroke="rgb(179,179,179)"
   stroke-linejoin="round"
   d="M 2685,5401 L 2835,5401"
   id="path44" />
 <path
   fill="none"
   stroke="rgb(179,179,179)"
   stroke-linejoin="round"
   d="M 2685,5401 L 2835,5401"
   id="path46" />
 <path
   fill="none"
   stroke="rgb(179,179,179)"
   stroke-linejoin="round"
   d="M 2685,3641 L 2835,3641"
   id="path48" />
 <path
   fill="none"
   stroke="rgb(179,179,179)"
   stroke-linejoin="round"
   d="M 2685,3641 L 2835,3641"
   id="path50" />
 <path
   fill="none"
   stroke="rgb(179,179,179)"
   stroke-linejoin="round"
   d="M 2685,1881 L 2835,1881"
   id="path52" />
 <path
   fill="none"
   stroke="rgb(179,179,179)"
   stroke-linejoin="round"
   d="M 2685,1881 L 2835,1881"
   id="path54" />
 <path
   fill="none"
   stroke="rgb(179,179,179)"
   stroke-linejoin="round"
   d="M 2835,14202 L 2835,1881"
   id="path56" />
 <path
   fill="rgb(51,51,51)"
   stroke="none"
   d="M 23474,14202 L 24253,14202 24253,10960 23474,10960 23474,14202 Z"
   id="path58" />
 <path
   fill="rgb(51,51,51)"
   stroke="none"
   d="M 21916,14202 L 22695,14202 22695,10915 21916,10915 21916,14202 Z"
   id="path60" />
 <path
   fill="rgb(51,51,51)"
   stroke="none"
   d="M 20359,14202 L 21137,14202 21137,10761 20359,10761 20359,14202 Z"
   id="path62" />
 <path
   fill="rgb(51,51,51)"
   stroke="none"
   d="M 18801,14202 L 19580,14202 19580,10729 18801,10729 18801,14202 Z"
   id="path64" />
 <path
   fill="rgb(51,51,51)"
   stroke="none"
   d="M 17243,14202 L 18022,14202 18022,10719 17243,10719 17243,14202 Z"
   id="path66" />
 <path
   fill="rgb(51,51,51)"
   stroke="none"
   d="M 15685,14202 L 16464,14202 16464,10657 15685,10657 15685,14202 Z"
   id="path68" />
 <path
   fill="rgb(51,51,51)"
   stroke="none"
   d="M 14128,14202 L 14907,14202 14907,10653 14128,10653 14128,14202 Z"
   id="path70" />
 <path
   fill="rgb(51,51,51)"
   stroke="none"
   d="M 12571,14202 L 13350,14202 13350,10652 12571,10652 12571,14202 Z"
   id="path72" />
 <path
   fill="rgb(51,51,51)"
   stroke="none"
   d="M 11013,14202 L 11792,14202 11792,10523 11013,10523 11013,14202 Z"
   id="path74" />
 <path
   fill="rgb(51,51,51)"
   stroke="none"
   d="M 9455,14202 L 10234,14202 10234,10410 9455,10410 9455,14202 Z"
   id="path76" />
 <path
   fill="rgb(51,51,51)"
   stroke="none"
   d="M 7897,14202 L 8676,14202 8676,10204 7897,10204 7897,14202 Z"
   id="path78" />
 <path
   fill="rgb(51,51,51)"
   stroke="none"
   d="M 6340,14202 L 7118,14202 7118,10098 6340,10098 6340,14202 Z"
   id="path80" />
 <path
   fill="rgb(51,51,51)"
   stroke="none"
   d="M 4782,14202 L 5561,14202 5561,10128 4782,10128 4782,14202 Z"
   id="path82" />
 <path
   fill="rgb(51,51,51)"
   stroke="none"
   d="M 3224,14202 L 4003,14202 4003,10088 3224,10088 3224,14202 Z"
   id="path84" />
 <path
   fill="rgb(197,0,11)"
   stroke="none"
   d="M 23474,10960 L 24253,10960 24253,10944 23474,10944 23474,10960 Z"
   id="path86" />
 <path
   fill="rgb(197,0,11)"
   stroke="none"
   d="M 21916,10915 L 22695,10915 22695,10900 21916,10900 21916,10915 Z"
   id="path88" />
 <path
   fill="rgb(197,0,11)"
   stroke="none"
   d="M 12571,10652 L 13350,10652 13350,10644 12571,10644 12571,10652 Z"
   id="path90" />
 <path
   fill="rgb(197,0,11)"
   stroke="none"
   d="M 3224,10088 L 4003,10088 4003,10088 3224,10088 Z"
   id="path92" />
 <path
   fill="rgb(255,149,14)"
   stroke="none"
   d="M 23474,10944 L 24253,10944 24253,10935 23474,10935 23474,10944 Z"
   id="path94" />
 <path
   fill="rgb(255,149,14)"
   stroke="none"
   d="M 21916,10900 L 22695,10900 22695,10892 21916,10892 21916,10900 Z"
   id="path96" />
 <path
   fill="rgb(255,149,14)"
   stroke="none"
   d="M 12571,10644 L 13350,10644 13350,10640 12571,10640 12571,10644 Z"
   id="path98" />
 <path
   fill="rgb(255,149,14)"
   stroke="none"
   d="M 3224,10088 L 4003,10088 4003,10088 3224,10088 Z"
   id="path100" />
 <path
   fill="rgb(75,31,111)"
   stroke="none"
   d="M 23474,10935 L 24253,10935 24253,10834 23474,10834 23474,10935 Z"
   id="path102" />
 <path
   fill="rgb(75,31,111)"
   stroke="none"
   d="M 21916,10892 L 22695,10892 22695,10789 21916,10789 21916,10892 Z"
   id="path104" />
 <path
   fill="rgb(75,31,111)"
   stroke="none"
   d="M 12571,10640 L 13350,10640 13350,10583 12571,10583 12571,10640 Z"
   id="path106" />
 <path
   fill="rgb(75,31,111)"
   stroke="none"
   d="M 3224,10088 L 4003,10088 4003,10071 3224,10071 3224,10088 Z"
   id="path108" />
 <path
   fill="rgb(174,207,0)"
   stroke="none"
   d="M 23474,10834 L 24253,10834 24253,10832 23474,10832 23474,10834 Z"
   id="path110" />
 <path
   fill="rgb(174,207,0)"
   stroke="none"
   d="M 21916,10789 L 22695,10789 22695,10787 21916,10787 21916,10789 Z"
   id="path112" />
 <path
   fill="rgb(174,207,0)"
   stroke="none"
   d="M 12571,10583 L 13350,10583 13350,10583 12571,10583 Z"
   id="path114" />
 <path
   fill="rgb(174,207,0)"
   stroke="none"
   d="M 3224,10071 L 4003,10071 4003,10071 3224,10071 Z"
   id="path116" />
 <path
   fill="rgb(49,64,4)"
   stroke="none"
   d="M 23474,10832 L 24253,10832 24253,5376 23474,5376 23474,10832 Z"
   id="path118" />
 <path
   fill="rgb(49,64,4)"
   stroke="none"
   d="M 21916,10787 L 22695,10787 22695,5801 21916,5801 21916,10787 Z"
   id="path120" />
 <path
   fill="rgb(49,64,4)"
   stroke="none"
   d="M 12571,10583 L 13350,10583 13350,4654 12571,4654 12571,10583 Z"
   id="path122" />
 <path
   fill="rgb(49,64,4)"
   stroke="none"
   d="M 3224,10071 L 4003,10071 4003,9424 3224,9424 3224,10071 Z"
   id="path124" />
 <path
   fill="rgb(131,202,255)"
   stroke="none"
   d="M 23474,5376 L 24253,5376 24253,5374 23474,5374 23474,5376 Z"
   id="path126" />
 <path
   fill="rgb(131,202,255)"
   stroke="none"
   d="M 21916,5801 L 22695,5801 22695,5800 21916,5800 21916,5801 Z"
   id="path128" />
 <path
   fill="rgb(126,0,33)"
   stroke="none"
   d="M 23474,5374 L 24253,5374 24253,5374 23474,5374 Z"
   id="path130" />
 <path
   fill="rgb(126,0,33)"
   stroke="none"
   d="M 21916,5800 L 22695,5800 22695,5800 21916,5800 Z"
   id="path132" />
 <path
   fill="rgb(126,0,33)"
   stroke="none"
   d="M 12571,4654 L 13350,4654 13350,4653 12571,4653 12571,4654 Z"
   id="path134" />
 <path
   fill="rgb(126,0,33)"
   stroke="none"
   d="M 3224,9424 L 4003,9424 4003,9424 3224,9424 Z"
   id="path136" />
 <path
   fill="rgb(87,157,28)"
   stroke="none"
   d="M 23474,5374 L 24253,5374 24253,5374 23474,5374 Z"
   id="path138" />
 <path
   fill="rgb(87,157,28)"
   stroke="none"
   d="M 21916,5800 L 22695,5800 22695,5800 21916,5800 Z"
   id="path140" />
 <path
   fill="rgb(87,157,28)"
   stroke="none"
   d="M 12571,4653 L 13350,4653 13350,4653 12571,4653 Z"
   id="path142" />
 <path
   fill="rgb(87,157,28)"
   stroke="none"
   d="M 3224,9424 L 4003,9424 4003,9424 3224,9424 Z"
   id="path144" />
 <path
   fill="rgb(255,211,32)"
   stroke="none"
   d="M 23474,5374 L 24253,5374 24253,5374 23474,5374 Z"
   id="path146" />
 <path
   fill="rgb(255,211,32)"
   stroke="none"
   d="M 21916,5800 L 22695,5800 22695,5800 21916,5800 Z"
   id="path148" />
 <path
   fill="rgb(255,211,32)"
   stroke="none"
   d="M 12571,4653 L 13350,4653 13350,4653 12571,4653 Z"
   id="path150" />
 <path
   fill="rgb(255,66,14)"
   stroke="none"
   d="M 23474,5374 L 24253,5374 24253,5373 23474,5373 23474,5374 Z"
   id="path152" />
 <path
   fill="rgb(255,66,14)"
   stroke="none"
   d="M 21916,5800 L 22695,5800 22695,5798 21916,5798 21916,5800 Z"
   id="path154" />
 <path
   fill="rgb(255,66,14)"
   stroke="none"
   d="M 12571,4653 L 13350,4653 13350,4652 12571,4652 12571,4653 Z"
   id="path156" />
 <path
   fill="rgb(255,66,14)"
   stroke="none"
   d="M 3224,9424 L 4003,9424 4003,9423 3224,9423 3224,9424 Z"
   id="path158" />
 <path
   fill="rgb(0,69,134)"
   stroke="none"
   d="M 23474,5373 L 24253,5373 24253,5366 23474,5366 23474,5373 Z"
   id="path160" />
 <path
   fill="rgb(0,69,134)"
   stroke="none"
   d="M 21916,5798 L 22695,5798 22695,5792 21916,5792 21916,5798 Z"
   id="path162" />
 <path
   fill="rgb(0,69,134)"
   stroke="none"
   d="M 12571,4652 L 13350,4652 13350,4645 12571,4645 12571,4652 Z"
   id="path164" />
 <path
   fill="rgb(0,69,134)"
   stroke="none"
   d="M 3224,9423 L 4003,9423 4003,9416 3224,9416 3224,9423 Z"
   id="path166" />
 <path
   fill="rgb(153,204,255)"
   stroke="none"
   d="M 20359,10761 L 21137,10761 21137,5395 20359,5395 20359,10761 Z"
   id="path168" />
 <path
   fill="rgb(153,204,255)"
   stroke="none"
   d="M 18801,10729 L 19580,10729 19580,5451 18801,5451 18801,10729 Z"
   id="path170" />
 <path
   fill="rgb(153,204,255)"
   stroke="none"
   d="M 17243,10719 L 18022,10719 18022,4638 17243,4638 17243,10719 Z"
   id="path172" />
 <path
   fill="rgb(153,204,255)"
   stroke="none"
   d="M 15685,10657 L 16464,10657 16464,4507 15685,4507 15685,10657 Z"
   id="path174" />
 <path
   fill="rgb(153,204,255)"
   stroke="none"
   d="M 14128,10653 L 14907,10653 14907,4039 14128,4039 14128,10653 Z"
   id="path176" />
 <path
   fill="rgb(153,204,255)"
   stroke="none"
   d="M 11013,10523 L 11792,10523 11792,4951 11013,4951 11013,10523 Z"
   id="path178" />
 <path
   fill="rgb(153,204,255)"
   stroke="none"
   d="M 9455,10410 L 10234,10410 10234,6176 9455,6176 9455,10410 Z"
   id="path180" />
 <path
   fill="rgb(153,204,255)"
   stroke="none"
   d="M 7897,10204 L 8676,10204 8676,7089 7897,7089 7897,10204 Z"
   id="path182" />
 <path
   fill="rgb(153,204,255)"
   stroke="none"
   d="M 6340,10098 L 7118,10098 7118,7066 6340,7066 6340,10098 Z"
   id="path184" />
 <path
   fill="rgb(153,204,255)"
   stroke="none"
   d="M 4782,10128 L 5561,10128 5561,8185 4782,8185 4782,10128 Z"
   id="path186" />
 <path
   fill="none"
   stroke="rgb(51,51,51)"
   stroke-width="80"
   stroke-linejoin="round"
   d="M 3613,10088 L 5171,10128 6729,10098 8287,10204 9845,10410 11402,10523 12960,10652 14518,10653 16075,10657 17632,10719 19190,10729 20748,10761 22306,10915 23864,10960"
   id="path188" />
 <path
   fill="none"
   stroke="rgb(153,204,255)"
   stroke-width="80"
   stroke-linejoin="round"
   d="M 3613,9416 L 5171,8185 6729,7066 8287,7089 9845,6176 11402,4951 12960,4645 14518,4039 16075,4507 17632,4638 19190,5451 20748,5395 22306,5792 23864,5366"
   id="path190" />
 <text
   class="SVGTextShape"
   id="text198"><tspan
     class="TextParagraph"
     font-family="Liberation Sans, sans-serif"
     font-size="353px"
     font-weight="400"
     id="tspan196"><tspan
       class="TextPosition"
       x="3242"
       y="14620"
       id="tspan194"><tspan
         fill="rgb(0,0,0)"
         stroke="none"
         id="tspan192">1950</tspan></tspan></tspan></text>
 <text
   class="SVGTextShape"
   id="text206"><tspan
     class="TextParagraph"
     font-family="Liberation Sans, sans-serif"
     font-size="353px"
     font-weight="400"
     id="tspan204"><tspan
       class="TextPosition"
       x="4800"
       y="14620"
       id="tspan202"><tspan
         fill="rgb(0,0,0)"
         stroke="none"
         id="tspan200">1955</tspan></tspan></tspan></text>
 <text
   class="SVGTextShape"
   id="text214"><tspan
     class="TextParagraph"
     font-family="Liberation Sans, sans-serif"
     font-size="353px"
     font-weight="400"
     id="tspan212"><tspan
       class="TextPosition"
       x="6358"
       y="14620"
       id="tspan210"><tspan
         fill="rgb(0,0,0)"
         stroke="none"
         id="tspan208">1960</tspan></tspan></tspan></text>
 <text
   class="SVGTextShape"
   id="text222"><tspan
     class="TextParagraph"
     font-family="Liberation Sans, sans-serif"
     font-size="353px"
     font-weight="400"
     id="tspan220"><tspan
       class="TextPosition"
       x="7916"
       y="14620"
       id="tspan218"><tspan
         fill="rgb(0,0,0)"
         stroke="none"
         id="tspan216">1965</tspan></tspan></tspan></text>
 <text
   class="SVGTextShape"
   id="text230"><tspan
     class="TextParagraph"
     font-family="Liberation Sans, sans-serif"
     font-size="353px"
     font-weight="400"
     id="tspan228"><tspan
       class="TextPosition"
       x="9474"
       y="14620"
       id="tspan226"><tspan
         fill="rgb(0,0,0)"
         stroke="none"
         id="tspan224">1970</tspan></tspan></tspan></text>
 <text
   class="SVGTextShape"
   id="text238"><tspan
     class="TextParagraph"
     font-family="Liberation Sans, sans-serif"
     font-size="353px"
     font-weight="400"
     id="tspan236"><tspan
       class="TextPosition"
       x="11031"
       y="14620"
       id="tspan234"><tspan
         fill="rgb(0,0,0)"
         stroke="none"
         id="tspan232">1975</tspan></tspan></tspan></text>
 <text
   class="SVGTextShape"
   id="text246"><tspan
     class="TextParagraph"
     font-family="Liberation Sans, sans-serif"
     font-size="353px"
     font-weight="400"
     id="tspan244"><tspan
       class="TextPosition"
       x="12589"
       y="14620"
       id="tspan242"><tspan
         fill="rgb(0,0,0)"
         stroke="none"
         id="tspan240">1980</tspan></tspan></tspan></text>
 <text
   class="SVGTextShape"
   id="text254"><tspan
     class="TextParagraph"
     font-family="Liberation Sans, sans-serif"
     font-size="353px"
     font-weight="400"
     id="tspan252"><tspan
       class="TextPosition"
       x="14147"
       y="14620"
       id="tspan250"><tspan
         fill="rgb(0,0,0)"
         stroke="none"
         id="tspan248">1985</tspan></tspan></tspan></text>
 <text
   class="SVGTextShape"
   id="text262"><tspan
     class="TextParagraph"
     font-family="Liberation Sans, sans-serif"
     font-size="353px"
     font-weight="400"
     id="tspan260"><tspan
       class="TextPosition"
       x="15705"
       y="14620"
       id="tspan258"><tspan
         fill="rgb(0,0,0)"
         stroke="none"
         id="tspan256">1990</tspan></tspan></tspan></text>
 <text
   class="SVGTextShape"
   id="text270"><tspan
     class="TextParagraph"
     font-family="Liberation Sans, sans-serif"
     font-size="353px"
     font-weight="400"
     id="tspan268"><tspan
       class="TextPosition"
       x="17262"
       y="14620"
       id="tspan266"><tspan
         fill="rgb(0,0,0)"
         stroke="none"
         id="tspan264">1995</tspan></tspan></tspan></text>
 <text
   class="SVGTextShape"
   id="text278"><tspan
     class="TextParagraph"
     font-family="Liberation Sans, sans-serif"
     font-size="353px"
     font-weight="400"
     id="tspan276"><tspan
       class="TextPosition"
       x="18820"
       y="14620"
       id="tspan274"><tspan
         fill="rgb(0,0,0)"
         stroke="none"
         id="tspan272">2000</tspan></tspan></tspan></text>
 <text
   class="SVGTextShape"
   id="text286"><tspan
     class="TextParagraph"
     font-family="Liberation Sans, sans-serif"
     font-size="353px"
     font-weight="400"
     id="tspan284"><tspan
       class="TextPosition"
       x="20378"
       y="14620"
       id="tspan282"><tspan
         fill="rgb(0,0,0)"
         stroke="none"
         id="tspan280">2005</tspan></tspan></tspan></text>
 <text
   class="SVGTextShape"
   id="text294"><tspan
     class="TextParagraph"
     font-family="Liberation Sans, sans-serif"
     font-size="353px"
     font-weight="400"
     id="tspan292"><tspan
       class="TextPosition"
       x="21936"
       y="14620"
       id="tspan290"><tspan
         fill="rgb(0,0,0)"
         stroke="none"
         id="tspan288">2010</tspan></tspan></tspan></text>
 <text
   class="SVGTextShape"
   id="text302"><tspan
     class="TextParagraph"
     font-family="Liberation Sans, sans-serif"
     font-size="353px"
     font-weight="400"
     id="tspan300"><tspan
       class="TextPosition"
       x="23494"
       y="14620"
       id="tspan298"><tspan
         fill="rgb(0,0,0)"
         stroke="none"
         id="tspan296">2015</tspan></tspan></tspan></text>
 <text
   class="SVGTextShape"
   id="text310"><tspan
     class="TextParagraph"
     font-family="Liberation Sans, sans-serif"
     font-size="353px"
     font-weight="400"
     id="tspan308"><tspan
       class="TextPosition"
       x="1924"
       y="14323"
       id="tspan306"><tspan
         fill="rgb(0,0,0)"
         stroke="none"
         id="tspan304">0 ha</tspan></tspan></tspan></text>
 <text
   class="SVGTextShape"
   id="text318"><tspan
     class="TextParagraph"
     font-family="Liberation Sans, sans-serif"
     font-size="353px"
     font-weight="400"
     id="tspan316"><tspan
       class="TextPosition"
       x="601"
       y="12562"
       id="tspan314"><tspan
         fill="rgb(0,0,0)"
         stroke="none"
         id="tspan312">1,000,000 ha</tspan></tspan></tspan></text>
 <text
   class="SVGTextShape"
   id="text326"><tspan
     class="TextParagraph"
     font-family="Liberation Sans, sans-serif"
     font-size="353px"
     font-weight="400"
     id="tspan324"><tspan
       class="TextPosition"
       x="601"
       y="10802"
       id="tspan322"><tspan
         fill="rgb(0,0,0)"
         stroke="none"
         id="tspan320">2,000,000 ha</tspan></tspan></tspan></text>
 <text
   class="SVGTextShape"
   id="text334"><tspan
     class="TextParagraph"
     font-family="Liberation Sans, sans-serif"
     font-size="353px"
     font-weight="400"
     id="tspan332"><tspan
       class="TextPosition"
       x="601"
       y="9042"
       id="tspan330"><tspan
         fill="rgb(0,0,0)"
         stroke="none"
         id="tspan328">3,000,000 ha</tspan></tspan></tspan></text>
 <text
   class="SVGTextShape"
   id="text342"><tspan
     class="TextParagraph"
     font-family="Liberation Sans, sans-serif"
     font-size="353px"
     font-weight="400"
     id="tspan340"><tspan
       class="TextPosition"
       x="601"
       y="7281"
       id="tspan338"><tspan
         fill="rgb(0,0,0)"
         stroke="none"
         id="tspan336">4,000,000 ha</tspan></tspan></tspan></text>
 <text
   class="SVGTextShape"
   id="text350"><tspan
     class="TextParagraph"
     font-family="Liberation Sans, sans-serif"
     font-size="353px"
     font-weight="400"
     id="tspan348"><tspan
       class="TextPosition"
       x="601"
       y="5521"
       id="tspan346"><tspan
         fill="rgb(0,0,0)"
         stroke="none"
         id="tspan344">5,000,000 ha</tspan></tspan></tspan></text>
 <text
   class="SVGTextShape"
   id="text358"><tspan
     class="TextParagraph"
     font-family="Liberation Sans, sans-serif"
     font-size="353px"
     font-weight="400"
     id="tspan356"><tspan
       class="TextPosition"
       x="601"
       y="3761"
       id="tspan354"><tspan
         fill="rgb(0,0,0)"
         stroke="none"
         id="tspan352">6,000,000 ha</tspan></tspan></tspan></text>
 <text
   class="SVGTextShape"
   id="text366"><tspan
     class="TextParagraph"
     font-family="Liberation Sans, sans-serif"
     font-size="353px"
     font-weight="400"
     id="tspan364"><tspan
       class="TextPosition"
       x="601"
       y="2001"
       id="tspan362"><tspan
         fill="rgb(0,0,0)"
         stroke="none"
         id="tspan360">7,000,000 ha</tspan></tspan></tspan></text>
 <text
   class="SVGTextShape"
   id="text374"
   x="2092.1387"><tspan
     class="TextParagraph"
     font-family="'Liberation Sans', sans-serif"
     font-size="564px"
     font-weight="400"
     id="tspan372"><tspan
       class="TextPosition"
       x="9459.1387"
       y="1108"
       id="tspan370"><tspan
         fill="#000000"
         stroke="none"
         id="tspan368">Landgebruik in de Nederlandse landbouw</tspan></tspan></tspan></text>
 <path
   fill="rgb(51,51,51)"
   stroke="none"
   d="M 25759,10592 L 25359,10592 25359,10381 26159,10381 26159,10592 25759,10592 Z"
   id="path376" />
 <path
   fill="rgb(197,0,11)"
   stroke="none"
   d="M 25759,10094 L 25359,10094 25359,9883 26159,9883 26159,10094 25759,10094 Z"
   id="path378" />
 <path
   fill="rgb(255,149,14)"
   stroke="none"
   d="M 25759,9596 L 25359,9596 25359,9385 26159,9385 26159,9596 25759,9596 Z"
   id="path380" />
 <path
   fill="rgb(75,31,111)"
   stroke="none"
   d="M 25759,9098 L 25359,9098 25359,8887 26159,8887 26159,9098 25759,9098 Z"
   id="path382" />
 <path
   fill="rgb(174,207,0)"
   stroke="none"
   d="M 25759,8600 L 25359,8600 25359,8389 26159,8389 26159,8600 25759,8600 Z"
   id="path384" />
 <path
   fill="rgb(49,64,4)"
   stroke="none"
   d="M 25759,8102 L 25359,8102 25359,7891 26159,7891 26159,8102 25759,8102 Z"
   id="path386" />
 <path
   fill="rgb(131,202,255)"
   stroke="none"
   d="M 25759,7604 L 25359,7604 25359,7394 26159,7394 26159,7604 25759,7604 Z"
   id="path388" />
 <path
   fill="rgb(126,0,33)"
   stroke="none"
   d="M 25759,7107 L 25359,7107 25359,6896 26159,6896 26159,7107 25759,7107 Z"
   id="path390" />
 <path
   fill="rgb(87,157,28)"
   stroke="none"
   d="M 25759,6609 L 25359,6609 25359,6398 26159,6398 26159,6609 25759,6609 Z"
   id="path392" />
 <path
   fill="rgb(255,211,32)"
   stroke="none"
   d="M 25759,6111 L 25359,6111 25359,5900 26159,5900 26159,6111 25759,6111 Z"
   id="path394" />
 <path
   fill="rgb(255,66,14)"
   stroke="none"
   d="M 25759,5613 L 25359,5613 25359,5402 26159,5402 26159,5613 25759,5613 Z"
   id="path396" />
 <path
   fill="rgb(0,69,134)"
   stroke="none"
   d="M 25759,5115 L 25359,5115 25359,4904 26159,4904 26159,5115 25759,5115 Z"
   id="path398" />
 <path
   fill="rgb(153,204,255)"
   stroke="none"
   d="M 25759,4617 L 25359,4617 25359,4406 26159,4406 26159,4617 25759,4617 Z"
   id="path400" />
 <text
   class="SVGTextShape"
   id="text408"><tspan
     class="TextParagraph"
     font-family="Liberation Sans, sans-serif"
     font-size="353px"
     font-weight="400"
     id="tspan406"><tspan
       class="TextPosition"
       x="26259"
       y="4631"
       id="tspan404"><tspan
         fill="rgb(0,0,0)"
         stroke="none"
         id="tspan402">indirect landgebruik</tspan></tspan></tspan></text>
 <text
   class="SVGTextShape"
   id="text416"><tspan
     class="TextParagraph"
     font-family="Liberation Sans, sans-serif"
     font-size="353px"
     font-weight="400"
     id="tspan414"><tspan
       class="TextPosition"
       x="26259"
       y="5129"
       id="tspan412"><tspan
         fill="rgb(0,0,0)"
         stroke="none"
         id="tspan410">transport en infrastr. </tspan></tspan></tspan></text>
 <text
   class="SVGTextShape"
   id="text424"><tspan
     class="TextParagraph"
     font-family="Liberation Sans, sans-serif"
     font-size="353px"
     font-weight="400"
     id="tspan422"><tspan
       class="TextPosition"
       x="26259"
       y="5627"
       id="tspan420"><tspan
         fill="rgb(0,0,0)"
         stroke="none"
         id="tspan418">dienstverlening </tspan></tspan></tspan></text>
 <text
   class="SVGTextShape"
   id="text432"><tspan
     class="TextParagraph"
     font-family="Liberation Sans, sans-serif"
     font-size="353px"
     font-weight="400"
     id="tspan430"><tspan
       class="TextPosition"
       x="26259"
       y="6125"
       id="tspan428"><tspan
         fill="rgb(0,0,0)"
         stroke="none"
         id="tspan426">elektronica </tspan></tspan></tspan></text>
 <text
   class="SVGTextShape"
   id="text440"><tspan
     class="TextParagraph"
     font-family="Liberation Sans, sans-serif"
     font-size="353px"
     font-weight="400"
     id="tspan438"><tspan
       class="TextPosition"
       x="26259"
       y="6623"
       id="tspan436"><tspan
         fill="rgb(0,0,0)"
         stroke="none"
         id="tspan434">bestrijdingsmiddelen </tspan></tspan></tspan></text>
 <text
   class="SVGTextShape"
   id="text448"><tspan
     class="TextParagraph"
     font-family="Liberation Sans, sans-serif"
     font-size="353px"
     font-weight="400"
     id="tspan446"><tspan
       class="TextPosition"
       x="26259"
       y="7121"
       id="tspan444"><tspan
         fill="rgb(0,0,0)"
         stroke="none"
         id="tspan442">kunstmest </tspan></tspan></tspan></text>
 <text
   class="SVGTextShape"
   id="text456"><tspan
     class="TextParagraph"
     font-family="Liberation Sans, sans-serif"
     font-size="353px"
     font-weight="400"
     id="tspan454"><tspan
       class="TextPosition"
       x="26259"
       y="7618"
       id="tspan452"><tspan
         fill="rgb(0,0,0)"
         stroke="none"
         id="tspan450">dierlijke mest </tspan></tspan></tspan></text>
 <text
   class="SVGTextShape"
   id="text464"><tspan
     class="TextParagraph"
     font-family="Liberation Sans, sans-serif"
     font-size="353px"
     font-weight="400"
     id="tspan462"><tspan
       class="TextPosition"
       x="26259"
       y="8116"
       id="tspan460"><tspan
         fill="rgb(0,0,0)"
         stroke="none"
         id="tspan458">veevoer </tspan></tspan></tspan></text>
 <text
   class="SVGTextShape"
   id="text472"><tspan
     class="TextParagraph"
     font-family="Liberation Sans, sans-serif"
     font-size="353px"
     font-weight="400"
     id="tspan470"><tspan
       class="TextPosition"
       x="26259"
       y="8614"
       id="tspan468"><tspan
         fill="rgb(0,0,0)"
         stroke="none"
         id="tspan466">trekkers en machines </tspan></tspan></tspan></text>
 <text
   class="SVGTextShape"
   id="text480"><tspan
     class="TextParagraph"
     font-family="Liberation Sans, sans-serif"
     font-size="353px"
     font-weight="400"
     id="tspan478"><tspan
       class="TextPosition"
       x="26259"
       y="9112"
       id="tspan476"><tspan
         fill="rgb(0,0,0)"
         stroke="none"
         id="tspan474">gebouwen </tspan></tspan></tspan></text>
 <text
   class="SVGTextShape"
   id="text488"><tspan
     class="TextParagraph"
     font-family="Liberation Sans, sans-serif"
     font-size="353px"
     font-weight="400"
     id="tspan486"><tspan
       class="TextPosition"
       x="26259"
       y="9610"
       id="tspan484"><tspan
         fill="rgb(0,0,0)"
         stroke="none"
         id="tspan482">mijnbouw </tspan></tspan></tspan></text>
 <text
   class="SVGTextShape"
   id="text496"><tspan
     class="TextParagraph"
     font-family="Liberation Sans, sans-serif"
     font-size="353px"
     font-weight="400"
     id="tspan494"><tspan
       class="TextPosition"
       x="26259"
       y="10108"
       id="tspan492"><tspan
         fill="rgb(0,0,0)"
         stroke="none"
         id="tspan490">energie toelevering</tspan></tspan></tspan></text>
 <text
   class="SVGTextShape"
   id="text504"><tspan
     class="TextParagraph"
     font-family="Liberation Sans, sans-serif"
     font-size="353px"
     font-weight="400"
     id="tspan502"><tspan
       class="TextPosition"
       x="26259"
       y="10606"
       id="tspan500"><tspan
         fill="rgb(0,0,0)"
         stroke="none"
         id="tspan498">direct landgebruik </tspan></tspan></tspan></text>
<g
   style="stroke-width:28.222;stroke-linejoin:round"
   id="g1632"
   transform="translate(2879.337,1880.7056)"><path
     fill="#ffffff"
     stroke="none"
     d="M 3686,3984 H 247 C -156.11014,2747.6159 -92.623941,1405.1873 247,0 h 6878 v 3984 z"
     id="path1327"
     sodipodi:nodetypes="cccccc" /><path
     fill="none"
     stroke="#000000"
     stroke-linejoin="round"
     d="M 3540.1843,3983.7056 H -44.337048 V 0.29439575 H 7124.7056 V 3983.7056 Z"
     id="path1329"
     style="stroke-width:28.8108" /><path
     fill="url(#Gradient_2)"
     stroke="#b3b3b3"
     stroke-linejoin="round"
     d="M 3882,2979 H 779 V 264 h 6207 v 2715 z"
     id="path1338"
     style="fill:url(#Gradient_2)" /><path
     fill="none"
     stroke="#b3b3b3"
     stroke-linejoin="round"
     d="M 6986,2978 H 779"
     id="path1340" /><path
     fill="none"
     stroke="#b3b3b3"
     stroke-linejoin="round"
     d="M 6986,2202 H 779"
     id="path1342" /><path
     fill="none"
     stroke="#b3b3b3"
     stroke-linejoin="round"
     d="M 6986,1426 H 779"
     id="path1344" /><path
     fill="none"
     stroke="#b3b3b3"
     stroke-linejoin="round"
     d="M 6986,650 H 779"
     id="path1346" /><path
     fill="none"
     stroke="#b3b3b3"
     stroke-linejoin="round"
     d="M 779,3128 V 2978"
     id="path1348" /><path
     fill="none"
     stroke="#b3b3b3"
     stroke-linejoin="round"
     d="M 779,3128 V 2978"
     id="path1350" /><path
     fill="none"
     stroke="#b3b3b3"
     stroke-linejoin="round"
     d="M 1222,3128 V 2978"
     id="path1352" /><path
     fill="none"
     stroke="#b3b3b3"
     stroke-linejoin="round"
     d="M 1222,3128 V 2978"
     id="path1354" /><path
     fill="none"
     stroke="#b3b3b3"
     stroke-linejoin="round"
     d="M 1665,3128 V 2978"
     id="path1356" /><path
     fill="none"
     stroke="#b3b3b3"
     stroke-linejoin="round"
     d="M 1665,3128 V 2978"
     id="path1358" /><path
     fill="none"
     stroke="#b3b3b3"
     stroke-linejoin="round"
     d="M 2109,3128 V 2978"
     id="path1360" /><path
     fill="none"
     stroke="#b3b3b3"
     stroke-linejoin="round"
     d="M 2109,3128 V 2978"
     id="path1362" /><path
     fill="none"
     stroke="#b3b3b3"
     stroke-linejoin="round"
     d="M 2552,3128 V 2978"
     id="path1364" /><path
     fill="none"
     stroke="#b3b3b3"
     stroke-linejoin="round"
     d="M 2552,3128 V 2978"
     id="path1366" /><path
     fill="none"
     stroke="#b3b3b3"
     stroke-linejoin="round"
     d="M 2995,3128 V 2978"
     id="path1368" /><path
     fill="none"
     stroke="#b3b3b3"
     stroke-linejoin="round"
     d="M 2995,3128 V 2978"
     id="path1370" /><path
     fill="none"
     stroke="#b3b3b3"
     stroke-linejoin="round"
     d="M 3439,3128 V 2978"
     id="path1372" /><path
     fill="none"
     stroke="#b3b3b3"
     stroke-linejoin="round"
     d="M 3439,3128 V 2978"
     id="path1374" /><path
     fill="none"
     stroke="#b3b3b3"
     stroke-linejoin="round"
     d="M 3882,3128 V 2978"
     id="path1376" /><path
     fill="none"
     stroke="#b3b3b3"
     stroke-linejoin="round"
     d="M 3882,3128 V 2978"
     id="path1378" /><path
     fill="none"
     stroke="#b3b3b3"
     stroke-linejoin="round"
     d="M 4325,3128 V 2978"
     id="path1380" /><path
     fill="none"
     stroke="#b3b3b3"
     stroke-linejoin="round"
     d="M 4325,3128 V 2978"
     id="path1382" /><path
     fill="none"
     stroke="#b3b3b3"
     stroke-linejoin="round"
     d="M 4769,3128 V 2978"
     id="path1384" /><path
     fill="none"
     stroke="#b3b3b3"
     stroke-linejoin="round"
     d="M 4769,3128 V 2978"
     id="path1386" /><path
     fill="none"
     stroke="#b3b3b3"
     stroke-linejoin="round"
     d="M 5212,3128 V 2978"
     id="path1388" /><path
     fill="none"
     stroke="#b3b3b3"
     stroke-linejoin="round"
     d="M 5212,3128 V 2978"
     id="path1390" /><path
     fill="none"
     stroke="#b3b3b3"
     stroke-linejoin="round"
     d="M 5655,3128 V 2978"
     id="path1392" /><path
     fill="none"
     stroke="#b3b3b3"
     stroke-linejoin="round"
     d="M 5655,3128 V 2978"
     id="path1394" /><path
     fill="none"
     stroke="#b3b3b3"
     stroke-linejoin="round"
     d="M 6099,3128 V 2978"
     id="path1396" /><path
     fill="none"
     stroke="#b3b3b3"
     stroke-linejoin="round"
     d="M 6099,3128 V 2978"
     id="path1398" /><path
     fill="none"
     stroke="#b3b3b3"
     stroke-linejoin="round"
     d="M 6542,3128 V 2978"
     id="path1400" /><path
     fill="none"
     stroke="#b3b3b3"
     stroke-linejoin="round"
     d="M 6542,3128 V 2978"
     id="path1402" /><path
     fill="none"
     stroke="#b3b3b3"
     stroke-linejoin="round"
     d="M 6986,3128 V 2978"
     id="path1404" /><path
     fill="none"
     stroke="#b3b3b3"
     stroke-linejoin="round"
     d="M 6986,3128 V 2978"
     id="path1406" /><path
     fill="none"
     stroke="#b3b3b3"
     stroke-linejoin="round"
     d="M 779,2978 H 6986"
     id="path1408" /><path
     fill="none"
     stroke="#b3b3b3"
     stroke-linejoin="round"
     d="M 634,2978 H 779"
     id="path1410" /><path
     fill="none"
     stroke="#b3b3b3"
     stroke-linejoin="round"
     d="M 634,2978 H 779"
     id="path1412" /><path
     fill="none"
     stroke="#b3b3b3"
     stroke-linejoin="round"
     d="M 634,2202 H 779"
     id="path1414" /><path
     fill="none"
     stroke="#b3b3b3"
     stroke-linejoin="round"
     d="M 634,2202 H 779"
     id="path1416" /><path
     fill="none"
     stroke="#b3b3b3"
     stroke-linejoin="round"
     d="M 634,1426 H 779"
     id="path1418" /><path
     fill="none"
     stroke="#b3b3b3"
     stroke-linejoin="round"
     d="M 634,1426 H 779"
     id="path1420" /><path
     fill="none"
     stroke="#b3b3b3"
     stroke-linejoin="round"
     d="M 634,650 H 779"
     id="path1422" /><path
     fill="none"
     stroke="#b3b3b3"
     stroke-linejoin="round"
     d="M 634,650 H 779"
     id="path1424" /><path
     fill="none"
     stroke="#b3b3b3"
     stroke-linejoin="round"
     d="M 779,2978 V 262"
     id="path1426" /><path
     fill="none"
     stroke="#ffd320"
     stroke-width="77"
     stroke-linejoin="round"
     d="m 1000,2851 444,-244 443,-203 443,-31 444,-262 443,-308 443,-138 444,-133 443,100 443,-9 444,176 443,-31 443,1 444,-130"
     id="path1428" /><path
     fill="#ffd320"
     stroke="none"
     d="m 879,2726 121,250 121,-250 z"
     id="path1430" /><path
     fill="none"
     stroke="#ffd320"
     stroke-linejoin="round"
     d="m 879,2726 121,250 121,-250 z"
     id="path1432" /><path
     fill="#ffd320"
     stroke="none"
     d="m 1323,2482 121,250 120,-250 z"
     id="path1434" /><path
     fill="none"
     stroke="#ffd320"
     stroke-linejoin="round"
     d="m 1323,2482 121,250 120,-250 z"
     id="path1436" /><path
     fill="#ffd320"
     stroke="none"
     d="m 1766,2279 121,250 120,-250 z"
     id="path1438" /><path
     fill="none"
     stroke="#ffd320"
     stroke-linejoin="round"
     d="m 1766,2279 121,250 120,-250 z"
     id="path1440" /><path
     fill="#ffd320"
     stroke="none"
     d="m 2209,2248 121,250 120,-250 z"
     id="path1442" /><path
     fill="none"
     stroke="#ffd320"
     stroke-linejoin="round"
     d="m 2209,2248 121,250 120,-250 z"
     id="path1444" /><path
     fill="#ffd320"
     stroke="none"
     d="m 2653,1987 121,249 120,-249 z"
     id="path1446" /><path
     fill="none"
     stroke="#ffd320"
     stroke-linejoin="round"
     d="m 2653,1987 121,249 120,-249 z"
     id="path1448" /><path
     fill="#ffd320"
     stroke="none"
     d="m 3096,1678 121,250 120,-250 z"
     id="path1450" /><path
     fill="none"
     stroke="#ffd320"
     stroke-linejoin="round"
     d="m 3096,1678 121,250 120,-250 z"
     id="path1452" /><path
     fill="#ffd320"
     stroke="none"
     d="m 3539,1540 121,250 120,-250 z"
     id="path1454" /><path
     fill="none"
     stroke="#ffd320"
     stroke-linejoin="round"
     d="m 3539,1540 121,250 120,-250 z"
     id="path1456" /><path
     fill="#ffd320"
     stroke="none"
     d="m 3983,1407 121,250 120,-250 z"
     id="path1458" /><path
     fill="none"
     stroke="#ffd320"
     stroke-linejoin="round"
     d="m 3983,1407 121,250 120,-250 z"
     id="path1460" /><path
     fill="#ffd320"
     stroke="none"
     d="m 4426,1507 121,250 120,-250 z"
     id="path1462" /><path
     fill="none"
     stroke="#ffd320"
     stroke-linejoin="round"
     d="m 4426,1507 121,250 120,-250 z"
     id="path1464" /><path
     fill="#ffd320"
     stroke="none"
     d="m 4869,1498 121,250 120,-250 z"
     id="path1466" /><path
     fill="none"
     stroke="#ffd320"
     stroke-linejoin="round"
     d="m 4869,1498 121,250 120,-250 z"
     id="path1468" /><path
     fill="#ffd320"
     stroke="none"
     d="m 5313,1674 121,250 120,-250 z"
     id="path1470" /><path
     fill="none"
     stroke="#ffd320"
     stroke-linejoin="round"
     d="m 5313,1674 121,250 120,-250 z"
     id="path1472" /><path
     fill="#ffd320"
     stroke="none"
     d="m 5756,1643 121,250 120,-250 z"
     id="path1474" /><path
     fill="none"
     stroke="#ffd320"
     stroke-linejoin="round"
     d="m 5756,1643 121,250 120,-250 z"
     id="path1476" /><path
     fill="#ffd320"
     stroke="none"
     d="m 6199,1644 121,250 120,-250 z"
     id="path1478" /><path
     fill="none"
     stroke="#ffd320"
     stroke-linejoin="round"
     d="m 6199,1644 121,250 120,-250 z"
     id="path1480" /><path
     fill="#ffd320"
     stroke="none"
     d="m 6643,1514 121,250 120,-250 z"
     id="path1482" /><path
     fill="none"
     stroke="#ffd320"
     stroke-linejoin="round"
     d="m 6643,1514 121,250 120,-250 z"
     id="path1484" /><text
     class="SVGTextShape"
     id="text1492"><tspan
       class="TextParagraph"
       font-family="'Liberation Sans', sans-serif"
       font-size="282px"
       font-weight="400"
       id="tspan1490"><tspan
         class="TextPosition"
         x="1"
         y="3084"
         id="tspan1488"><tspan
           fill="#000000"
           stroke="none"
           id="tspan1486">0.00</tspan></tspan></tspan></text><text
     class="SVGTextShape"
     id="text1500"><tspan
       class="TextParagraph"
       font-family="'Liberation Sans', sans-serif"
       font-size="282px"
       font-weight="400"
       id="tspan1498"><tspan
         class="TextPosition"
         x="1"
         y="2309"
         id="tspan1496"><tspan
           fill="#000000"
           stroke="none"
           id="tspan1494">1.00</tspan></tspan></tspan></text><text
     class="SVGTextShape"
     id="text1508"><tspan
       class="TextParagraph"
       font-family="'Liberation Sans', sans-serif"
       font-size="282px"
       font-weight="400"
       id="tspan1506"><tspan
         class="TextPosition"
         x="1"
         y="1532"
         id="tspan1504"><tspan
           fill="#000000"
           stroke="none"
           id="tspan1502">2.00</tspan></tspan></tspan></text><text
     class="SVGTextShape"
     id="text1516"><tspan
       class="TextParagraph"
       font-family="'Liberation Sans', sans-serif"
       font-size="282px"
       font-weight="400"
       id="tspan1514"><tspan
         class="TextPosition"
         x="1"
         y="757"
         id="tspan1512"><tspan
           fill="#000000"
           stroke="none"
           id="tspan1510">3.00</tspan></tspan></tspan></text><path
     fill="#ffffff"
     fill-opacity="0.698"
     stroke="#ffffff"
     stroke-opacity="0.698"
     d="M 2028.3611,1111 H 920 V 501 h 2217.7698 v 610 z"
     id="path1518"
     style="stroke-width:28.8859" /><text
     class="SVGTextShape"
     id="text1526"><tspan
       class="TextParagraph"
       font-family="'Liberation Sans', sans-serif"
       font-size="353px"
       font-weight="400"
       id="tspan1524"><tspan
         class="TextPosition"
         x="982"
         y="926"
         id="tspan1522"><tspan
           fill="#000000"
           stroke="none"
           id="tspan1520">indirect/direct</tspan></tspan></tspan></text></g></svg>
