<?xml version="1.0" encoding="UTF-8" standalone="no"?>
<svg
   width="300mm"
   height="136.05241mm"
   viewBox="0 0 30000 13605.241"
   version="1.1"
   stroke-width="28.222"
   stroke-linejoin="round"
   xml:space="preserve"
   id="svg510"
   sodipodi:docname="meino smit - energie - input - inset.svg"
   inkscape:version="1.1.1 (3bf5ae0d25, 2021-09-20)"
   xmlns:inkscape="http://www.inkscape.org/namespaces/inkscape"
   xmlns:sodipodi="http://sodipodi.sourceforge.net/DTD/sodipodi-0.dtd"
   xmlns="http://www.w3.org/2000/svg"
   xmlns:svg="http://www.w3.org/2000/svg"><defs
   id="defs514"><linearGradient
     id="Gradient_3"
     gradientUnits="userSpaceOnUse"
     x1="3848"
     y1="230"
     x2="3848"
     y2="2753">
   <stop
   offset="0.3"
   stop-color="rgb(204,0,0)"
   id="stop1335" />
   <stop
   offset="1"
   stop-color="rgb(0,153,0)"
   id="stop1337" />
  </linearGradient></defs><sodipodi:namedview
   id="namedview512"
   pagecolor="#ffffff"
   bordercolor="#666666"
   borderopacity="1.0"
   inkscape:pageshadow="2"
   inkscape:pageopacity="0.0"
   inkscape:pagecheckerboard="0"
   inkscape:document-units="mm"
   showgrid="false"
   inkscape:zoom="1.0433403"
   inkscape:cx="378.1125"
   inkscape:cy="230.98888"
   inkscape:window-width="1876"
   inkscape:window-height="1051"
   inkscape:window-x="0"
   inkscape:window-y="0"
   inkscape:window-maximized="1"
   inkscape:current-layer="svg510" />
 <path
   fill="#ffffff"
   stroke="none"
   d="M 15000,13605.241 H 0 V 0 h 30000 v 13605.241 z"
   id="path2"
   style="stroke-width:26.8779" />
 <path
   fill="none"
   stroke="#b3b3b3"
   stroke-linejoin="round"
   d="M 13290,12658.241 H 1936 V 488.2409 H 24643 V 12658.241 Z"
   id="path4" />
 <path
   fill="none"
   stroke="#b3b3b3"
   stroke-linejoin="round"
   d="M 24643,12657.241 H 1936"
   id="path6" />
 <path
   fill="none"
   stroke="#b3b3b3"
   stroke-linejoin="round"
   d="M 24643,10918.241 H 1936"
   id="path8" />
 <path
   fill="none"
   stroke="#b3b3b3"
   stroke-linejoin="round"
   d="M 24643,9179.2409 H 1936"
   id="path10" />
 <path
   fill="none"
   stroke="#b3b3b3"
   stroke-linejoin="round"
   d="M 24643,7440.2409 H 1936"
   id="path12" />
 <path
   fill="none"
   stroke="#b3b3b3"
   stroke-linejoin="round"
   d="M 24643,5703.2409 H 1936"
   id="path14" />
 <path
   fill="none"
   stroke="#b3b3b3"
   stroke-linejoin="round"
   d="M 24643,3964.2409 H 1936"
   id="path16" />
 <path
   fill="none"
   stroke="#b3b3b3"
   stroke-linejoin="round"
   d="M 24643,2225.2409 H 1936"
   id="path18" />
 <path
   fill="none"
   stroke="#b3b3b3"
   stroke-linejoin="round"
   d="M 24643,486.2409 H 1936"
   id="path20" />
 <path
   fill="none"
   stroke="#b3b3b3"
   stroke-linejoin="round"
   d="M 1936,12657.241 H 24643"
   id="path22" />
 <path
   fill="none"
   stroke="#b3b3b3"
   stroke-linejoin="round"
   d="m 1786,12657.241 h 150"
   id="path24" />
 <path
   fill="none"
   stroke="#b3b3b3"
   stroke-linejoin="round"
   d="m 1786,12657.241 h 150"
   id="path26" />
 <path
   fill="none"
   stroke="#b3b3b3"
   stroke-linejoin="round"
   d="m 1786,10918.241 h 150"
   id="path28" />
 <path
   fill="none"
   stroke="#b3b3b3"
   stroke-linejoin="round"
   d="m 1786,10918.241 h 150"
   id="path30" />
 <path
   fill="none"
   stroke="#b3b3b3"
   stroke-linejoin="round"
   d="m 1786,9179.2409 h 150"
   id="path32" />
 <path
   fill="none"
   stroke="#b3b3b3"
   stroke-linejoin="round"
   d="m 1786,9179.2409 h 150"
   id="path34" />
 <path
   fill="none"
   stroke="#b3b3b3"
   stroke-linejoin="round"
   d="m 1786,7440.2409 h 150"
   id="path36" />
 <path
   fill="none"
   stroke="#b3b3b3"
   stroke-linejoin="round"
   d="m 1786,7440.2409 h 150"
   id="path38" />
 <path
   fill="none"
   stroke="#b3b3b3"
   stroke-linejoin="round"
   d="m 1786,5703.2409 h 150"
   id="path40" />
 <path
   fill="none"
   stroke="#b3b3b3"
   stroke-linejoin="round"
   d="m 1786,5703.2409 h 150"
   id="path42" />
 <path
   fill="none"
   stroke="#b3b3b3"
   stroke-linejoin="round"
   d="m 1786,3964.2409 h 150"
   id="path44" />
 <path
   fill="none"
   stroke="#b3b3b3"
   stroke-linejoin="round"
   d="m 1786,3964.2409 h 150"
   id="path46" />
 <path
   fill="none"
   stroke="#b3b3b3"
   stroke-linejoin="round"
   d="m 1786,2225.2409 h 150"
   id="path48" />
 <path
   fill="none"
   stroke="#b3b3b3"
   stroke-linejoin="round"
   d="m 1786,2225.2409 h 150"
   id="path50" />
 <path
   fill="none"
   stroke="#b3b3b3"
   stroke-linejoin="round"
   d="m 1786,486.2409 h 150"
   id="path52" />
 <path
   fill="none"
   stroke="#b3b3b3"
   stroke-linejoin="round"
   d="m 1786,486.2409 h 150"
   id="path54" />
 <path
   fill="none"
   stroke="#b3b3b3"
   stroke-linejoin="round"
   d="M 1936,12657.241 V 486.2409"
   id="path56" />
 <path
   fill="#333333"
   stroke="none"
   d="m 23426,12657.241 h 811 V 7941.2409 h -811 z"
   id="path58" />
 <path
   fill="#333333"
   stroke="none"
   d="m 21804,12657.241 h 811 V 8223.2409 h -811 z"
   id="path60" />
 <path
   fill="#333333"
   stroke="none"
   d="m 20182,12657.241 h 811 V 8517.2409 h -811 z"
   id="path62" />
 <path
   fill="#333333"
   stroke="none"
   d="m 18560,12657.241 h 811 V 8393.2409 h -811 z"
   id="path64" />
 <path
   fill="#333333"
   stroke="none"
   d="m 16938,12657.241 h 811 V 8042.2409 h -811 z"
   id="path66" />
 <path
   fill="#333333"
   stroke="none"
   d="m 15316,12657.241 h 811 V 8390.2409 h -811 z"
   id="path68" />
 <path
   fill="#333333"
   stroke="none"
   d="m 13695,12657.241 h 811 V 8643.2409 h -811 z"
   id="path70" />
 <path
   fill="#333333"
   stroke="none"
   d="m 12073,12657.241 h 811 V 8755.2409 h -811 z"
   id="path72" />
 <path
   fill="#333333"
   stroke="none"
   d="m 10451,12657.241 h 811 V 8732.2409 h -811 z"
   id="path74" />
 <path
   fill="#333333"
   stroke="none"
   d="m 8829,12657.241 h 811 V 8342.2409 h -811 z"
   id="path76" />
 <path
   fill="#333333"
   stroke="none"
   d="m 7207,12657.241 h 811 V 9396.2409 h -811 z"
   id="path78" />
 <path
   fill="#333333"
   stroke="none"
   d="m 5585,12657.241 h 811 v -2222 h -811 z"
   id="path80" />
 <path
   fill="#333333"
   stroke="none"
   d="m 3963,12657.241 h 811 v -1476 h -811 z"
   id="path82" />
 <path
   fill="#333333"
   stroke="none"
   d="m 2341,12657.241 h 811 v -953 h -811 z"
   id="path84" />
 <path
   fill="#004586"
   stroke="none"
   d="m 23426,7941.2409 h 811 v -469 h -811 z"
   id="path86" />
 <path
   fill="#004586"
   stroke="none"
   d="m 21804,8223.2409 h 811 v -448 h -811 z"
   id="path88" />
 <path
   fill="#004586"
   stroke="none"
   d="m 12073,8755.2409 h 811 v -403 h -811 z"
   id="path90" />
 <path
   fill="#004586"
   stroke="none"
   d="m 2341,11704.241 h 811 v -170 h -811 z"
   id="path92" />
 <path
   fill="#ff950e"
   stroke="none"
   d="m 23426,7472.2409 h 811 v -759 h -811 z"
   id="path94" />
 <path
   fill="#ff950e"
   stroke="none"
   d="m 21804,7775.2409 h 811 v -588 h -811 z"
   id="path96" />
 <path
   fill="#ff950e"
   stroke="none"
   d="m 12073,8352.2409 h 811 v -258 h -811 z"
   id="path98" />
 <path
   fill="#ff950e"
   stroke="none"
   d="m 2341,11534.241 h 811 v -67 h -811 z"
   id="path100" />
 <path
   fill="#6600ff"
   stroke="none"
   d="m 23426,6713.2409 h 811 v -75 h -811 z"
   id="path102" />
 <path
   fill="#6600ff"
   stroke="none"
   d="m 21804,7187.2409 h 811 v -89 h -811 z"
   id="path104" />
 <path
   fill="#6600ff"
   stroke="none"
   d="m 12073,8094.2409 h 811 v -44 h -811 z"
   id="path106" />
 <path
   fill="#6600ff"
   stroke="none"
   d="m 2341,11467.241 h 811 v -6 h -811 z"
   id="path108" />
 <path
   fill="#4b1f6f"
   stroke="none"
   d="m 23426,6638.2409 h 811 v -678 h -811 z"
   id="path110" />
 <path
   fill="#4b1f6f"
   stroke="none"
   d="m 21804,7098.2409 h 811 v -557 h -811 z"
   id="path112" />
 <path
   fill="#4b1f6f"
   stroke="none"
   d="m 12073,8050.2409 h 811 v -149 h -811 z"
   id="path114" />
 <path
   fill="#4b1f6f"
   stroke="none"
   d="m 2341,11461.241 h 811 v -6 h -811 z"
   id="path116" />
 <path
   fill="#aecf00"
   stroke="none"
   d="m 23426,5960.2409 h 811 v -548 h -811 z"
   id="path118" />
 <path
   fill="#aecf00"
   stroke="none"
   d="m 21804,6541.2409 h 811 v -478 h -811 z"
   id="path120" />
 <path
   fill="#aecf00"
   stroke="none"
   d="m 12073,7901.2409 h 811 v -174 h -811 z"
   id="path122" />
 <path
   fill="#aecf00"
   stroke="none"
   d="m 2341,11455.241 h 811 v -9 h -811 z"
   id="path124" />
 <path
   fill="#314004"
   stroke="none"
   d="m 23426,5412.2409 h 811 v -1897 h -811 z"
   id="path126" />
 <path
   fill="#314004"
   stroke="none"
   d="m 21804,6063.2409 h 811 v -1734 h -811 z"
   id="path128" />
 <path
   fill="#314004"
   stroke="none"
   d="m 12073,7727.2409 h 811 v -1230 h -811 z"
   id="path130" />
 <path
   fill="#314004"
   stroke="none"
   d="m 2341,11446.241 h 811 v -51 h -811 z"
   id="path132" />
 <path
   fill="#83caff"
   stroke="none"
   d="m 23426,3515.2409 h 811 v -605 h -811 z"
   id="path134" />
 <path
   fill="#83caff"
   stroke="none"
   d="m 21804,4329.2409 h 811 v -361 h -811 z"
   id="path136" />
 <path
   fill="#83caff"
   stroke="none"
   d="m 12073,6497.2409 h 811 v -46 h -811 z"
   id="path138" />
 <path
   fill="#83caff"
   stroke="none"
   d="m 2341,11395.241 h 811 v -8 h -811 z"
   id="path140" />
 <path
   fill="#7e0021"
   stroke="none"
   d="m 23426,2910.2409 h 811 v -387 h -811 z"
   id="path142" />
 <path
   fill="#7e0021"
   stroke="none"
   d="m 21804,3968.2409 h 811 v -350 h -811 z"
   id="path144" />
 <path
   fill="#7e0021"
   stroke="none"
   d="m 12073,6451.2409 h 811 v -1030 h -811 z"
   id="path146" />
 <path
   fill="#7e0021"
   stroke="none"
   d="m 2341,11387.241 h 811 v -551 h -811 z"
   id="path148" />
 <path
   fill="#579d1c"
   stroke="none"
   d="m 23426,2523.2409 h 811 v -93 h -811 z"
   id="path150" />
 <path
   fill="#579d1c"
   stroke="none"
   d="m 21804,3618.2409 h 811 v -90 h -811 z"
   id="path152" />
 <path
   fill="#579d1c"
   stroke="none"
   d="m 12073,5421.2409 h 811 v -160 h -811 z"
   id="path154" />
 <path
   fill="#579d1c"
   stroke="none"
   d="m 2341,10836.241 h 811 v -42 h -811 z"
   id="path156" />
 <path
   fill="#ffd320"
   stroke="none"
   d="m 23426,2430.2409 h 811 v -354 h -811 z"
   id="path158" />
 <path
   fill="#ffd320"
   stroke="none"
   d="m 21804,3528.2409 h 811 v -279 h -811 z"
   id="path160" />
 <path
   fill="#ffd320"
   stroke="none"
   d="m 12073,5261.2409 h 811 v -58 h -811 z"
   id="path162" />
 <path
   fill="#ff420e"
   stroke="none"
   d="m 23426,2076.2409 h 811 v -24 h -811 z"
   id="path164" />
 <path
   fill="#ff420e"
   stroke="none"
   d="m 21804,3249.2409 h 811 v -31 h -811 z"
   id="path166" />
 <path
   fill="#ff420e"
   stroke="none"
   d="m 12073,5203.2409 h 811 v -14 h -811 z"
   id="path168" />
 <path
   fill="#ff420e"
   stroke="none"
   d="m 2341,10794.241 h 811 v -8 h -811 z"
   id="path170" />
 <path
   fill="#000099"
   stroke="none"
   d="m 20182,8517.2409 h 811 v -4727 h -811 z"
   id="path172" />
 <path
   fill="#000099"
   stroke="none"
   d="m 18560,8393.2409 h 811 v -4600 h -811 z"
   id="path174" />
 <path
   fill="#000099"
   stroke="none"
   d="m 16938,8042.2409 h 811 v -5059 h -811 z"
   id="path176" />
 <path
   fill="#000099"
   stroke="none"
   d="m 15316,8390.2409 h 811 v -4843 h -811 z"
   id="path178" />
 <path
   fill="#000099"
   stroke="none"
   d="m 13695,8643.2409 h 811 v -4197 h -811 z"
   id="path180" />
 <path
   fill="#000099"
   stroke="none"
   d="m 10451,8732.2409 h 811 v -3085 h -811 z"
   id="path182" />
 <path
   fill="#000099"
   stroke="none"
   d="m 8829,8342.2409 h 811 v -2624 h -811 z"
   id="path184" />
 <path
   fill="#000099"
   stroke="none"
   d="m 7207,9396.2409 h 811 v -1853 h -811 z"
   id="path186" />
 <path
   fill="#000099"
   stroke="none"
   d="m 5585,10435.241 h 811 V 9035.2409 h -811 z"
   id="path188" />
 <path
   fill="#000099"
   stroke="none"
   d="m 3963,11181.241 h 811 V 9993.2409 h -811 z"
   id="path190" />
 <path
   fill="none"
   stroke="#333333"
   stroke-width="80"
   stroke-linejoin="round"
   d="m 2747,11704.241 1622,-523 1622,-746 1622,-1039.0001 1622,-1054 1622,390 1622,23 1622,-112 1621,-253 1622,-348 1622,351 1622,124 1622,-294 1622,-282"
   id="path192" />
 <path
   fill="none"
   stroke="#000099"
   stroke-width="80"
   stroke-linejoin="round"
   d="m 2747,10786.241 1622,-793.0001 1622,-958 1622,-1492 1622,-1825 1622,-71 1622,-458 1622,-743 1621,-899 1622,-564 1622,810 1622,-3 1622,-572 1622,-1166"
   id="path194" />
 <text
   class="SVGTextShape"
   id="text202"
   y="-1394.7592"><tspan
     class="TextParagraph"
     font-family="'Liberation Sans', sans-serif"
     font-size="353px"
     font-weight="400"
     id="tspan200"><tspan
       class="TextPosition"
       x="2376"
       y="13225.241"
       id="tspan198"><tspan
         fill="#000000"
         stroke="none"
         id="tspan196">1950</tspan></tspan></tspan></text>
 <text
   class="SVGTextShape"
   id="text210"
   y="-1394.7592"><tspan
     class="TextParagraph"
     font-family="'Liberation Sans', sans-serif"
     font-size="353px"
     font-weight="400"
     id="tspan208"><tspan
       class="TextPosition"
       x="3998"
       y="13225.241"
       id="tspan206"><tspan
         fill="#000000"
         stroke="none"
         id="tspan204">1955</tspan></tspan></tspan></text>
 <text
   class="SVGTextShape"
   id="text218"
   y="-1394.7592"><tspan
     class="TextParagraph"
     font-family="'Liberation Sans', sans-serif"
     font-size="353px"
     font-weight="400"
     id="tspan216"><tspan
       class="TextPosition"
       x="5620"
       y="13225.241"
       id="tspan214"><tspan
         fill="#000000"
         stroke="none"
         id="tspan212">1960</tspan></tspan></tspan></text>
 <text
   class="SVGTextShape"
   id="text226"
   y="-1394.7592"><tspan
     class="TextParagraph"
     font-family="'Liberation Sans', sans-serif"
     font-size="353px"
     font-weight="400"
     id="tspan224"><tspan
       class="TextPosition"
       x="7242"
       y="13225.241"
       id="tspan222"><tspan
         fill="#000000"
         stroke="none"
         id="tspan220">1965</tspan></tspan></tspan></text>
 <text
   class="SVGTextShape"
   id="text234"
   y="-1394.7592"><tspan
     class="TextParagraph"
     font-family="'Liberation Sans', sans-serif"
     font-size="353px"
     font-weight="400"
     id="tspan232"><tspan
       class="TextPosition"
       x="8864"
       y="13225.241"
       id="tspan230"><tspan
         fill="#000000"
         stroke="none"
         id="tspan228">1970</tspan></tspan></tspan></text>
 <text
   class="SVGTextShape"
   id="text242"
   y="-1394.7592"><tspan
     class="TextParagraph"
     font-family="'Liberation Sans', sans-serif"
     font-size="353px"
     font-weight="400"
     id="tspan240"><tspan
       class="TextPosition"
       x="10486"
       y="13225.241"
       id="tspan238"><tspan
         fill="#000000"
         stroke="none"
         id="tspan236">1975</tspan></tspan></tspan></text>
 <text
   class="SVGTextShape"
   id="text250"
   y="-1394.7592"><tspan
     class="TextParagraph"
     font-family="'Liberation Sans', sans-serif"
     font-size="353px"
     font-weight="400"
     id="tspan248"><tspan
       class="TextPosition"
       x="12108"
       y="13225.241"
       id="tspan246"><tspan
         fill="#000000"
         stroke="none"
         id="tspan244">1980</tspan></tspan></tspan></text>
 <text
   class="SVGTextShape"
   id="text258"
   y="-1394.7592"><tspan
     class="TextParagraph"
     font-family="'Liberation Sans', sans-serif"
     font-size="353px"
     font-weight="400"
     id="tspan256"><tspan
       class="TextPosition"
       x="13730"
       y="13225.241"
       id="tspan254"><tspan
         fill="#000000"
         stroke="none"
         id="tspan252">1985</tspan></tspan></tspan></text>
 <text
   class="SVGTextShape"
   id="text266"
   y="-1394.7592"><tspan
     class="TextParagraph"
     font-family="'Liberation Sans', sans-serif"
     font-size="353px"
     font-weight="400"
     id="tspan264"><tspan
       class="TextPosition"
       x="15351"
       y="13225.241"
       id="tspan262"><tspan
         fill="#000000"
         stroke="none"
         id="tspan260">1990</tspan></tspan></tspan></text>
 <text
   class="SVGTextShape"
   id="text274"
   y="-1394.7592"><tspan
     class="TextParagraph"
     font-family="'Liberation Sans', sans-serif"
     font-size="353px"
     font-weight="400"
     id="tspan272"><tspan
       class="TextPosition"
       x="16974"
       y="13225.241"
       id="tspan270"><tspan
         fill="#000000"
         stroke="none"
         id="tspan268">1995</tspan></tspan></tspan></text>
 <text
   class="SVGTextShape"
   id="text282"
   y="-1394.7592"><tspan
     class="TextParagraph"
     font-family="'Liberation Sans', sans-serif"
     font-size="353px"
     font-weight="400"
     id="tspan280"><tspan
       class="TextPosition"
       x="18596"
       y="13225.241"
       id="tspan278"><tspan
         fill="#000000"
         stroke="none"
         id="tspan276">2000</tspan></tspan></tspan></text>
 <text
   class="SVGTextShape"
   id="text290"
   y="-1394.7592"><tspan
     class="TextParagraph"
     font-family="'Liberation Sans', sans-serif"
     font-size="353px"
     font-weight="400"
     id="tspan288"><tspan
       class="TextPosition"
       x="20218"
       y="13225.241"
       id="tspan286"><tspan
         fill="#000000"
         stroke="none"
         id="tspan284">2005</tspan></tspan></tspan></text>
 <text
   class="SVGTextShape"
   id="text298"
   y="-1394.7592"><tspan
     class="TextParagraph"
     font-family="'Liberation Sans', sans-serif"
     font-size="353px"
     font-weight="400"
     id="tspan296"><tspan
       class="TextPosition"
       x="21840"
       y="13225.241"
       id="tspan294"><tspan
         fill="#000000"
         stroke="none"
         id="tspan292">2010</tspan></tspan></tspan></text>
 <text
   class="SVGTextShape"
   id="text306"
   y="-1394.7592"><tspan
     class="TextParagraph"
     font-family="'Liberation Sans', sans-serif"
     font-size="353px"
     font-weight="400"
     id="tspan304"><tspan
       class="TextPosition"
       x="23461"
       y="13225.241"
       id="tspan302"><tspan
         fill="#000000"
         stroke="none"
         id="tspan300">2015</tspan></tspan></tspan></text>
 <text
   class="SVGTextShape"
   id="text314"
   y="-1394.7592"><tspan
     class="TextParagraph"
     font-family="'Liberation Sans', sans-serif"
     font-size="353px"
     font-weight="400"
     id="tspan312"><tspan
       class="TextPosition"
       x="972"
       y="12778.241"
       id="tspan310"><tspan
         fill="#000000"
         stroke="none"
         id="tspan308">0 PJ</tspan></tspan></tspan></text>
 <text
   class="SVGTextShape"
   id="text322"
   y="-1394.7592"><tspan
     class="TextParagraph"
     font-family="'Liberation Sans', sans-serif"
     font-size="353px"
     font-weight="400"
     id="tspan320"><tspan
       class="TextPosition"
       x="786"
       y="11039.241"
       id="tspan318"><tspan
         fill="#000000"
         stroke="none"
         id="tspan316">50 PJ</tspan></tspan></tspan></text>
 <text
   class="SVGTextShape"
   id="text330"
   y="-1394.7592"><tspan
     class="TextParagraph"
     font-family="'Liberation Sans', sans-serif"
     font-size="353px"
     font-weight="400"
     id="tspan328"><tspan
       class="TextPosition"
       x="601"
       y="9300.2412"
       id="tspan326"><tspan
         fill="#000000"
         stroke="none"
         id="tspan324">100 PJ</tspan></tspan></tspan></text>
 <text
   class="SVGTextShape"
   id="text338"
   y="-1394.7592"><tspan
     class="TextParagraph"
     font-family="'Liberation Sans', sans-serif"
     font-size="353px"
     font-weight="400"
     id="tspan336"><tspan
       class="TextPosition"
       x="601"
       y="7561.2407"
       id="tspan334"><tspan
         fill="#000000"
         stroke="none"
         id="tspan332">150 PJ</tspan></tspan></tspan></text>
 <text
   class="SVGTextShape"
   id="text346"
   y="-1394.7592"><tspan
     class="TextParagraph"
     font-family="'Liberation Sans', sans-serif"
     font-size="353px"
     font-weight="400"
     id="tspan344"><tspan
       class="TextPosition"
       x="601"
       y="5823.2407"
       id="tspan342"><tspan
         fill="#000000"
         stroke="none"
         id="tspan340">200 PJ</tspan></tspan></tspan></text>
 <text
   class="SVGTextShape"
   id="text354"
   y="-1394.7592"><tspan
     class="TextParagraph"
     font-family="'Liberation Sans', sans-serif"
     font-size="353px"
     font-weight="400"
     id="tspan352"><tspan
       class="TextPosition"
       x="601"
       y="4084.241"
       id="tspan350"><tspan
         fill="#000000"
         stroke="none"
         id="tspan348">250 PJ</tspan></tspan></tspan></text>
 <text
   class="SVGTextShape"
   id="text362"
   y="-1394.7592"><tspan
     class="TextParagraph"
     font-family="'Liberation Sans', sans-serif"
     font-size="353px"
     font-weight="400"
     id="tspan360"><tspan
       class="TextPosition"
       x="601"
       y="2345.241"
       id="tspan358"><tspan
         fill="#000000"
         stroke="none"
         id="tspan356">300 PJ</tspan></tspan></tspan></text>
 <text
   class="SVGTextShape"
   id="text370"
   y="-1394.7592"><tspan
     class="TextParagraph"
     font-family="'Liberation Sans', sans-serif"
     font-size="353px"
     font-weight="400"
     id="tspan368"><tspan
       class="TextPosition"
       x="601"
       y="606.24091"
       id="tspan366"><tspan
         fill="#000000"
         stroke="none"
         id="tspan364">350 PJ</tspan></tspan></tspan></text>
 
 <path
   fill="#333333"
   stroke="none"
   d="m 25759,9197.2409 h -400 v -211 h 800 v 211 z"
   id="path380" />
 <path
   fill="#004586"
   stroke="none"
   d="m 25759,8699.2409 h -400 v -211 h 800 v 211 z"
   id="path382" />
 <path
   fill="#ff950e"
   stroke="none"
   d="m 25759,8201.2409 h -400 v -211 h 800 v 211 z"
   id="path384" />
 <path
   fill="#6600ff"
   stroke="none"
   d="m 25759,7703.2409 h -400 v -211 h 800 v 211 z"
   id="path386" />
 <path
   fill="#4b1f6f"
   stroke="none"
   d="m 25759,7205.2409 h -400 v -211 h 800 v 211 z"
   id="path388" />
 <path
   fill="#aecf00"
   stroke="none"
   d="m 25759,6707.2409 h -400 v -211 h 800 v 211 z"
   id="path390" />
 <path
   fill="#314004"
   stroke="none"
   d="m 25759,6209.2409 h -400 v -210 h 800 v 210 z"
   id="path392" />
 <path
   fill="#83caff"
   stroke="none"
   d="m 25759,5712.2409 h -400 v -211 h 800 v 211 z"
   id="path394" />
 <path
   fill="#7e0021"
   stroke="none"
   d="m 25759,5214.2409 h -400 v -211 h 800 v 211 z"
   id="path396" />
 <path
   fill="#579d1c"
   stroke="none"
   d="m 25759,4716.2409 h -400 v -211 h 800 v 211 z"
   id="path398" />
 <path
   fill="#ffd320"
   stroke="none"
   d="m 25759,4218.2409 h -400 v -211 h 800 v 211 z"
   id="path400" />
 <path
   fill="#ff420e"
   stroke="none"
   d="m 25759,3720.2409 h -400 v -211 h 800 v 211 z"
   id="path402" />
 <path
   fill="#000099"
   stroke="none"
   d="m 25759,3222.2409 h -400 v -211 h 800 v 211 z"
   id="path404" />
 <text
   class="SVGTextShape"
   id="text412"
   y="-1394.7592"><tspan
     class="TextParagraph"
     font-family="'Liberation Sans', sans-serif"
     font-size="353px"
     font-weight="400"
     id="tspan410"><tspan
       class="TextPosition"
       x="26259"
       y="3236.241"
       id="tspan408"><tspan
         fill="#000000"
         stroke="none"
         id="tspan406">indirecte input</tspan></tspan></tspan></text>
 <text
   class="SVGTextShape"
   id="text420"
   y="-1394.7592"><tspan
     class="TextParagraph"
     font-family="'Liberation Sans', sans-serif"
     font-size="353px"
     font-weight="400"
     id="tspan418"><tspan
       class="TextPosition"
       x="26259"
       y="3734.241"
       id="tspan416"><tspan
         fill="#000000"
         stroke="none"
         id="tspan414">dienstensector </tspan></tspan></tspan></text>
 <text
   class="SVGTextShape"
   id="text428"
   y="-1394.7592"><tspan
     class="TextParagraph"
     font-family="'Liberation Sans', sans-serif"
     font-size="353px"
     font-weight="400"
     id="tspan426"><tspan
       class="TextPosition"
       x="26259"
       y="4232.2407"
       id="tspan424"><tspan
         fill="#000000"
         stroke="none"
         id="tspan422">elektronica </tspan></tspan></tspan></text>
 <text
   class="SVGTextShape"
   id="text436"
   y="-1394.7592"><tspan
     class="TextParagraph"
     font-family="'Liberation Sans', sans-serif"
     font-size="353px"
     font-weight="400"
     id="tspan434"><tspan
       class="TextPosition"
       x="26259"
       y="4730.2407"
       id="tspan432"><tspan
         fill="#000000"
         stroke="none"
         id="tspan430">bestrijdingsmiddelen </tspan></tspan></tspan></text>
 <text
   class="SVGTextShape"
   id="text444"
   y="-1394.7592"><tspan
     class="TextParagraph"
     font-family="'Liberation Sans', sans-serif"
     font-size="353px"
     font-weight="400"
     id="tspan442"><tspan
       class="TextPosition"
       x="26259"
       y="5228.2407"
       id="tspan440"><tspan
         fill="#000000"
         stroke="none"
         id="tspan438">kunstmest </tspan></tspan></tspan></text>
 <text
   class="SVGTextShape"
   id="text452"
   y="-1394.7592"><tspan
     class="TextParagraph"
     font-family="'Liberation Sans', sans-serif"
     font-size="353px"
     font-weight="400"
     id="tspan450"><tspan
       class="TextPosition"
       x="26259"
       y="5726.2407"
       id="tspan448"><tspan
         fill="#000000"
         stroke="none"
         id="tspan446">dierlijke mest </tspan></tspan></tspan></text>
 <text
   class="SVGTextShape"
   id="text460"
   y="-1394.7592"><tspan
     class="TextParagraph"
     font-family="'Liberation Sans', sans-serif"
     font-size="353px"
     font-weight="400"
     id="tspan458"><tspan
       class="TextPosition"
       x="26259"
       y="6223.2407"
       id="tspan456"><tspan
         fill="#000000"
         stroke="none"
         id="tspan454">veevoer </tspan></tspan></tspan></text>
 <text
   class="SVGTextShape"
   id="text468"
   y="-1394.7592"><tspan
     class="TextParagraph"
     font-family="'Liberation Sans', sans-serif"
     font-size="353px"
     font-weight="400"
     id="tspan466"><tspan
       class="TextPosition"
       x="26259"
       y="6721.2407"
       id="tspan464"><tspan
         fill="#000000"
         stroke="none"
         id="tspan462">trekkers en machines </tspan></tspan></tspan></text>
 <text
   class="SVGTextShape"
   id="text476"
   y="-1394.7592"><tspan
     class="TextParagraph"
     font-family="'Liberation Sans', sans-serif"
     font-size="353px"
     font-weight="400"
     id="tspan474"><tspan
       class="TextPosition"
       x="26259"
       y="7219.2407"
       id="tspan472"><tspan
         fill="#000000"
         stroke="none"
         id="tspan470">overige gebouwen </tspan></tspan></tspan></text>
 <text
   class="SVGTextShape"
   id="text484"
   y="-1394.7592"><tspan
     class="TextParagraph"
     font-family="'Liberation Sans', sans-serif"
     font-size="353px"
     font-weight="400"
     id="tspan482"><tspan
       class="TextPosition"
       x="26259"
       y="7717.2407"
       id="tspan480"><tspan
         fill="#000000"
         stroke="none"
         id="tspan478">kassen </tspan></tspan></tspan></text>
 <text
   class="SVGTextShape"
   id="text492"
   y="-1394.7592"><tspan
     class="TextParagraph"
     font-family="'Liberation Sans', sans-serif"
     font-size="353px"
     font-weight="400"
     id="tspan490"><tspan
       class="TextPosition"
       x="26259"
       y="8215.2412"
       id="tspan488"><tspan
         fill="#000000"
         stroke="none"
         id="tspan486">mijnbouw </tspan></tspan></tspan></text>
 <text
   class="SVGTextShape"
   id="text500"
   y="-1394.7592"><tspan
     class="TextParagraph"
     font-family="'Liberation Sans', sans-serif"
     font-size="353px"
     font-weight="400"
     id="tspan498"><tspan
       class="TextPosition"
       x="26259"
       y="8713.2412"
       id="tspan496"><tspan
         fill="#000000"
         stroke="none"
         id="tspan494">transport en infrastr. </tspan></tspan></tspan></text>
 <text
   class="SVGTextShape"
   id="text508"
   y="-1394.7592"><tspan
     class="TextParagraph"
     font-family="'Liberation Sans', sans-serif"
     font-size="353px"
     font-weight="400"
     id="tspan506"><tspan
       class="TextPosition"
       x="26259"
       y="9211.2412"
       id="tspan504"><tspan
         fill="#000000"
         stroke="none"
         id="tspan502">directe input</tspan></tspan></tspan></text>
<g
   style="stroke-width:28.222;stroke-linejoin:round"
   id="g1630"
   transform="translate(1936,488.2409)"><path
     fill="#ffffff"
     stroke="none"
     d="M 3667,3634 H 0 V 0 h 7334 v 3634 z"
     id="path1331" /><path
     fill="none"
     stroke="#000000"
     stroke-linejoin="round"
     d="M 3667,3634 H 0 V 0 h 7334 v 3634 z"
     id="path1333" /><path
     fill="url(#Gradient_3)"
     stroke="#b3b3b3"
     stroke-linejoin="round"
     d="M 3848,2753 H 604 V 230 h 6488 v 2523 z"
     id="path1342"
     style="fill:url(#Gradient_3)" /><path
     fill="none"
     stroke="#b3b3b3"
     stroke-linejoin="round"
     d="M 7092,2752 H 604"
     id="path1344" /><path
     fill="none"
     stroke="#b3b3b3"
     stroke-linejoin="round"
     d="M 7092,2031 H 604"
     id="path1346" /><path
     fill="none"
     stroke="#b3b3b3"
     stroke-linejoin="round"
     d="M 7092,1309 H 604"
     id="path1348" /><path
     fill="none"
     stroke="#b3b3b3"
     stroke-linejoin="round"
     d="M 7092,589 H 604"
     id="path1350" /><path
     fill="none"
     stroke="#b3b3b3"
     stroke-linejoin="round"
     d="M 604,2901 V 2752"
     id="path1352" /><path
     fill="none"
     stroke="#b3b3b3"
     stroke-linejoin="round"
     d="M 604,2901 V 2752"
     id="path1354" /><path
     fill="none"
     stroke="#b3b3b3"
     stroke-linejoin="round"
     d="M 1103,2901 V 2752"
     id="path1356" /><path
     fill="none"
     stroke="#b3b3b3"
     stroke-linejoin="round"
     d="M 1103,2901 V 2752"
     id="path1358" /><path
     fill="none"
     stroke="#b3b3b3"
     stroke-linejoin="round"
     d="M 1602,2901 V 2752"
     id="path1360" /><path
     fill="none"
     stroke="#b3b3b3"
     stroke-linejoin="round"
     d="M 1602,2901 V 2752"
     id="path1362" /><path
     fill="none"
     stroke="#b3b3b3"
     stroke-linejoin="round"
     d="M 2101,2901 V 2752"
     id="path1364" /><path
     fill="none"
     stroke="#b3b3b3"
     stroke-linejoin="round"
     d="M 2101,2901 V 2752"
     id="path1366" /><path
     fill="none"
     stroke="#b3b3b3"
     stroke-linejoin="round"
     d="M 2600,2901 V 2752"
     id="path1368" /><path
     fill="none"
     stroke="#b3b3b3"
     stroke-linejoin="round"
     d="M 2600,2901 V 2752"
     id="path1370" /><path
     fill="none"
     stroke="#b3b3b3"
     stroke-linejoin="round"
     d="M 3099,2901 V 2752"
     id="path1372" /><path
     fill="none"
     stroke="#b3b3b3"
     stroke-linejoin="round"
     d="M 3099,2901 V 2752"
     id="path1374" /><path
     fill="none"
     stroke="#b3b3b3"
     stroke-linejoin="round"
     d="M 3598,2901 V 2752"
     id="path1376" /><path
     fill="none"
     stroke="#b3b3b3"
     stroke-linejoin="round"
     d="M 3598,2901 V 2752"
     id="path1378" /><path
     fill="none"
     stroke="#b3b3b3"
     stroke-linejoin="round"
     d="M 4097,2901 V 2752"
     id="path1380" /><path
     fill="none"
     stroke="#b3b3b3"
     stroke-linejoin="round"
     d="M 4097,2901 V 2752"
     id="path1382" /><path
     fill="none"
     stroke="#b3b3b3"
     stroke-linejoin="round"
     d="M 4596,2901 V 2752"
     id="path1384" /><path
     fill="none"
     stroke="#b3b3b3"
     stroke-linejoin="round"
     d="M 4596,2901 V 2752"
     id="path1386" /><path
     fill="none"
     stroke="#b3b3b3"
     stroke-linejoin="round"
     d="M 5095,2901 V 2752"
     id="path1388" /><path
     fill="none"
     stroke="#b3b3b3"
     stroke-linejoin="round"
     d="M 5095,2901 V 2752"
     id="path1390" /><path
     fill="none"
     stroke="#b3b3b3"
     stroke-linejoin="round"
     d="M 5594,2901 V 2752"
     id="path1392" /><path
     fill="none"
     stroke="#b3b3b3"
     stroke-linejoin="round"
     d="M 5594,2901 V 2752"
     id="path1394" /><path
     fill="none"
     stroke="#b3b3b3"
     stroke-linejoin="round"
     d="M 6093,2901 V 2752"
     id="path1396" /><path
     fill="none"
     stroke="#b3b3b3"
     stroke-linejoin="round"
     d="M 6093,2901 V 2752"
     id="path1398" /><path
     fill="none"
     stroke="#b3b3b3"
     stroke-linejoin="round"
     d="M 6592,2901 V 2752"
     id="path1400" /><path
     fill="none"
     stroke="#b3b3b3"
     stroke-linejoin="round"
     d="M 6592,2901 V 2752"
     id="path1402" /><path
     fill="none"
     stroke="#b3b3b3"
     stroke-linejoin="round"
     d="M 7092,2901 V 2752"
     id="path1404" /><path
     fill="none"
     stroke="#b3b3b3"
     stroke-linejoin="round"
     d="M 7092,2901 V 2752"
     id="path1406" /><path
     fill="none"
     stroke="#b3b3b3"
     stroke-linejoin="round"
     d="M 604,2752 H 7092"
     id="path1408" /><path
     fill="none"
     stroke="#b3b3b3"
     stroke-linejoin="round"
     d="M 454,2752 H 604"
     id="path1410" /><path
     fill="none"
     stroke="#b3b3b3"
     stroke-linejoin="round"
     d="M 454,2752 H 604"
     id="path1412" /><path
     fill="none"
     stroke="#b3b3b3"
     stroke-linejoin="round"
     d="M 454,2031 H 604"
     id="path1414" /><path
     fill="none"
     stroke="#b3b3b3"
     stroke-linejoin="round"
     d="M 454,2031 H 604"
     id="path1416" /><path
     fill="none"
     stroke="#b3b3b3"
     stroke-linejoin="round"
     d="M 454,1309 H 604"
     id="path1418" /><path
     fill="none"
     stroke="#b3b3b3"
     stroke-linejoin="round"
     d="M 454,1309 H 604"
     id="path1420" /><path
     fill="none"
     stroke="#b3b3b3"
     stroke-linejoin="round"
     d="M 454,589 H 604"
     id="path1422" /><path
     fill="none"
     stroke="#b3b3b3"
     stroke-linejoin="round"
     d="M 454,589 H 604"
     id="path1424" /><path
     fill="none"
     stroke="#b3b3b3"
     stroke-linejoin="round"
     d="M 604,2752 V 228"
     id="path1426" /><path
     fill="none"
     stroke="#ffd320"
     stroke-width="80"
     stroke-linejoin="round"
     d="m 604,2057 499,114 499,127 499,44 499,-29 499,-128 499,-92 499,-95 499,-65 499,28 499,13 499,-46 499,10 500,-87"
     id="path1428" /><path
     fill="#ffd320"
     stroke="none"
     d="m 479,1933 125,248 125,-248 z"
     id="path1430" /><path
     fill="none"
     stroke="#ffd320"
     stroke-linejoin="round"
     d="m 479,1933 125,248 125,-248 z"
     id="path1432" /><path
     fill="#ffd320"
     stroke="none"
     d="m 978,2047 125,248 125,-248 z"
     id="path1434" /><path
     fill="none"
     stroke="#ffd320"
     stroke-linejoin="round"
     d="m 978,2047 125,248 125,-248 z"
     id="path1436" /><path
     fill="#ffd320"
     stroke="none"
     d="m 1477,2174 125,247 125,-247 z"
     id="path1438" /><path
     fill="none"
     stroke="#ffd320"
     stroke-linejoin="round"
     d="m 1477,2174 125,247 125,-247 z"
     id="path1440" /><path
     fill="#ffd320"
     stroke="none"
     d="m 1976,2218 125,248 125,-248 z"
     id="path1442" /><path
     fill="none"
     stroke="#ffd320"
     stroke-linejoin="round"
     d="m 1976,2218 125,248 125,-248 z"
     id="path1444" /><path
     fill="#ffd320"
     stroke="none"
     d="m 2475,2190 125,247 125,-247 z"
     id="path1446" /><path
     fill="none"
     stroke="#ffd320"
     stroke-linejoin="round"
     d="m 2475,2190 125,247 125,-247 z"
     id="path1448" /><path
     fill="#ffd320"
     stroke="none"
     d="m 2974,2061 125,248 125,-248 z"
     id="path1450" /><path
     fill="none"
     stroke="#ffd320"
     stroke-linejoin="round"
     d="m 2974,2061 125,248 125,-248 z"
     id="path1452" /><path
     fill="#ffd320"
     stroke="none"
     d="m 3473,1969 125,247 124,-247 z"
     id="path1454" /><path
     fill="none"
     stroke="#ffd320"
     stroke-linejoin="round"
     d="m 3473,1969 125,247 124,-247 z"
     id="path1456" /><path
     fill="#ffd320"
     stroke="none"
     d="m 3972,1874 125,247 125,-247 z"
     id="path1458" /><path
     fill="none"
     stroke="#ffd320"
     stroke-linejoin="round"
     d="m 3972,1874 125,247 125,-247 z"
     id="path1460" /><path
     fill="#ffd320"
     stroke="none"
     d="m 4471,1809 125,248 125,-248 z"
     id="path1462" /><path
     fill="none"
     stroke="#ffd320"
     stroke-linejoin="round"
     d="m 4471,1809 125,248 125,-248 z"
     id="path1464" /><path
     fill="#ffd320"
     stroke="none"
     d="m 4970,1837 125,248 125,-248 z"
     id="path1466" /><path
     fill="none"
     stroke="#ffd320"
     stroke-linejoin="round"
     d="m 4970,1837 125,248 125,-248 z"
     id="path1468" /><path
     fill="#ffd320"
     stroke="none"
     d="m 5469,1850 125,248 125,-248 z"
     id="path1470" /><path
     fill="none"
     stroke="#ffd320"
     stroke-linejoin="round"
     d="m 5469,1850 125,248 125,-248 z"
     id="path1472" /><path
     fill="#ffd320"
     stroke="none"
     d="m 5968,1805 125,247 125,-247 z"
     id="path1474" /><path
     fill="none"
     stroke="#ffd320"
     stroke-linejoin="round"
     d="m 5968,1805 125,247 125,-247 z"
     id="path1476" /><path
     fill="#ffd320"
     stroke="none"
     d="m 6467,1814 125,248 125,-248 z"
     id="path1478" /><path
     fill="none"
     stroke="#ffd320"
     stroke-linejoin="round"
     d="m 6467,1814 125,248 125,-248 z"
     id="path1480" /><path
     fill="#ffd320"
     stroke="none"
     d="m 6967,1727 125,248 125,-248 z"
     id="path1482" /><path
     fill="none"
     stroke="#ffd320"
     stroke-linejoin="round"
     d="m 6967,1727 125,248 125,-248 z"
     id="path1484" /><text
     class="SVGTextShape"
     id="text1492"><tspan
       class="TextParagraph"
       font-family="'Liberation Sans', sans-serif"
       font-size="279px"
       font-weight="400"
       id="tspan1490"><tspan
         class="TextPosition"
         x="195"
         y="2858"
         id="tspan1488"><tspan
           fill="#000000"
           stroke="none"
           id="tspan1486">0</tspan></tspan></tspan></text><text
     class="SVGTextShape"
     id="text1500"><tspan
       class="TextParagraph"
       font-family="'Liberation Sans', sans-serif"
       font-size="279px"
       font-weight="400"
       id="tspan1498"><tspan
         class="TextPosition"
         x="195"
         y="2137"
         id="tspan1496"><tspan
           fill="#000000"
           stroke="none"
           id="tspan1494">1</tspan></tspan></tspan></text><text
     class="SVGTextShape"
     id="text1508"><tspan
       class="TextParagraph"
       font-family="'Liberation Sans', sans-serif"
       font-size="279px"
       font-weight="400"
       id="tspan1506"><tspan
         class="TextPosition"
         x="195"
         y="1415"
         id="tspan1504"><tspan
           fill="#000000"
           stroke="none"
           id="tspan1502">2</tspan></tspan></tspan></text><text
     class="SVGTextShape"
     id="text1516"><tspan
       class="TextParagraph"
       font-family="'Liberation Sans', sans-serif"
       font-size="279px"
       font-weight="400"
       id="tspan1514"><tspan
         class="TextPosition"
         x="195"
         y="694"
         id="tspan1512"><tspan
           fill="#000000"
           stroke="none"
           id="tspan1510">3</tspan></tspan></tspan></text><path
     fill="#ffffff"
     fill-opacity="0.698"
     stroke="#ffffff"
     stroke-opacity="0.698"
     d="M 1807,953 H 710 V 349 h 2194 v 604 z"
     id="path1518" /><text
     class="SVGTextShape"
     id="text1526"><tspan
       class="TextParagraph"
       font-family="'Liberation Sans', sans-serif"
       font-size="350px"
       font-weight="400"
       id="tspan1524"><tspan
         class="TextPosition"
         x="775"
         y="769"
         id="tspan1522"><tspan
           fill="#000000"
           stroke="none"
           id="tspan1520">indirect/direct</tspan></tspan></tspan></text></g></svg>
