<?xml version="1.0" encoding="UTF-8" standalone="no"?>
<svg
   width="120mm"
   height="51.885036mm"
   viewBox="0 0 12000 5188.5036"
   version="1.1"
   stroke-width="28.222"
   stroke-linejoin="round"
   xml:space="preserve"
   id="svg514"
   sodipodi:docname="meino smit - gewicht - output - sectoren.svg"
   inkscape:version="1.1.1 (3bf5ae0d25, 2021-09-20)"
   xmlns:inkscape="http://www.inkscape.org/namespaces/inkscape"
   xmlns:sodipodi="http://sodipodi.sourceforge.net/DTD/sodipodi-0.dtd"
   xmlns="http://www.w3.org/2000/svg"
   xmlns:svg="http://www.w3.org/2000/svg"><defs
   id="defs518" /><sodipodi:namedview
   id="namedview516"
   pagecolor="#ffffff"
   bordercolor="#666666"
   borderopacity="1.0"
   inkscape:pageshadow="2"
   inkscape:pageopacity="0.0"
   inkscape:pagecheckerboard="0"
   inkscape:document-units="mm"
   showgrid="false"
   inkscape:zoom="2.6083507"
   inkscape:cx="226.77165"
   inkscape:cy="82.81095"
   inkscape:window-width="1876"
   inkscape:window-height="1051"
   inkscape:window-x="0"
   inkscape:window-y="0"
   inkscape:window-maximized="1"
   inkscape:current-layer="svg514" />
 <path
   fill="#ffffff"
   stroke="none"
   d="M 6000,5188.5038 H 0 V 0 h 12000 v 5188.5038 z"
   id="path2"
   style="stroke-width:26.2442" />
 <path
   fill="none"
   stroke="#b3b3b3"
   stroke-linejoin="round"
   d="M 4854,3814.5038 H 1179 v -3471 h 7350 v 3471 z"
   id="path4" />
 <path
   fill="none"
   stroke="#b3b3b3"
   stroke-linejoin="round"
   d="M 8529,3813.5038 H 1179"
   id="path6" />
 <path
   fill="none"
   stroke="#b3b3b3"
   stroke-linejoin="round"
   d="M 8529,3317.5038 H 1179"
   id="path8" />
 <path
   fill="none"
   stroke="#b3b3b3"
   stroke-linejoin="round"
   d="M 8529,2821.5038 H 1179"
   id="path10" />
 <path
   fill="none"
   stroke="#b3b3b3"
   stroke-linejoin="round"
   d="M 8529,2325.5038 H 1179"
   id="path12" />
 <path
   fill="none"
   stroke="#b3b3b3"
   stroke-linejoin="round"
   d="M 8529,1830.5038 H 1179"
   id="path14" />
 <path
   fill="none"
   stroke="#b3b3b3"
   stroke-linejoin="round"
   d="M 8529,1334.5038 H 1179"
   id="path16" />
 <path
   fill="none"
   stroke="#b3b3b3"
   stroke-linejoin="round"
   d="M 8529,837.5038 H 1179"
   id="path18" />
 <path
   fill="none"
   stroke="#b3b3b3"
   stroke-linejoin="round"
   d="M 8529,341.5038 H 1179"
   id="path20" />
 <path
   fill="none"
   stroke="#b3b3b3"
   stroke-linejoin="round"
   d="m 1179,3963.5038 v -150"
   id="path22" />
 <path
   fill="none"
   stroke="#b3b3b3"
   stroke-linejoin="round"
   d="m 1179,3963.5038 v -150"
   id="path24" />
 <path
   fill="none"
   stroke="#b3b3b3"
   stroke-linejoin="round"
   d="m 1744,3963.5038 v -150"
   id="path26" />
 <path
   fill="none"
   stroke="#b3b3b3"
   stroke-linejoin="round"
   d="m 1744,3963.5038 v -150"
   id="path28" />
 <path
   fill="none"
   stroke="#b3b3b3"
   stroke-linejoin="round"
   d="m 2309,3963.5038 v -150"
   id="path30" />
 <path
   fill="none"
   stroke="#b3b3b3"
   stroke-linejoin="round"
   d="m 2309,3963.5038 v -150"
   id="path32" />
 <path
   fill="none"
   stroke="#b3b3b3"
   stroke-linejoin="round"
   d="m 2875,3963.5038 v -150"
   id="path34" />
 <path
   fill="none"
   stroke="#b3b3b3"
   stroke-linejoin="round"
   d="m 2875,3963.5038 v -150"
   id="path36" />
 <path
   fill="none"
   stroke="#b3b3b3"
   stroke-linejoin="round"
   d="m 3440,3963.5038 v -150"
   id="path38" />
 <path
   fill="none"
   stroke="#b3b3b3"
   stroke-linejoin="round"
   d="m 3440,3963.5038 v -150"
   id="path40" />
 <path
   fill="none"
   stroke="#b3b3b3"
   stroke-linejoin="round"
   d="m 4006,3963.5038 v -150"
   id="path42" />
 <path
   fill="none"
   stroke="#b3b3b3"
   stroke-linejoin="round"
   d="m 4006,3963.5038 v -150"
   id="path44" />
 <path
   fill="none"
   stroke="#b3b3b3"
   stroke-linejoin="round"
   d="m 4571,3963.5038 v -150"
   id="path46" />
 <path
   fill="none"
   stroke="#b3b3b3"
   stroke-linejoin="round"
   d="m 4571,3963.5038 v -150"
   id="path48" />
 <path
   fill="none"
   stroke="#b3b3b3"
   stroke-linejoin="round"
   d="m 5137,3963.5038 v -150"
   id="path50" />
 <path
   fill="none"
   stroke="#b3b3b3"
   stroke-linejoin="round"
   d="m 5137,3963.5038 v -150"
   id="path52" />
 <path
   fill="none"
   stroke="#b3b3b3"
   stroke-linejoin="round"
   d="m 5702,3963.5038 v -150"
   id="path54" />
 <path
   fill="none"
   stroke="#b3b3b3"
   stroke-linejoin="round"
   d="m 5702,3963.5038 v -150"
   id="path56" />
 <path
   fill="none"
   stroke="#b3b3b3"
   stroke-linejoin="round"
   d="m 6267,3963.5038 v -150"
   id="path58" />
 <path
   fill="none"
   stroke="#b3b3b3"
   stroke-linejoin="round"
   d="m 6267,3963.5038 v -150"
   id="path60" />
 <path
   fill="none"
   stroke="#b3b3b3"
   stroke-linejoin="round"
   d="m 6832,3963.5038 v -150"
   id="path62" />
 <path
   fill="none"
   stroke="#b3b3b3"
   stroke-linejoin="round"
   d="m 6832,3963.5038 v -150"
   id="path64" />
 <path
   fill="none"
   stroke="#b3b3b3"
   stroke-linejoin="round"
   d="m 7398,3963.5038 v -150"
   id="path66" />
 <path
   fill="none"
   stroke="#b3b3b3"
   stroke-linejoin="round"
   d="m 7398,3963.5038 v -150"
   id="path68" />
 <path
   fill="none"
   stroke="#b3b3b3"
   stroke-linejoin="round"
   d="m 7963,3963.5038 v -150"
   id="path70" />
 <path
   fill="none"
   stroke="#b3b3b3"
   stroke-linejoin="round"
   d="m 7963,3963.5038 v -150"
   id="path72" />
 <path
   fill="none"
   stroke="#b3b3b3"
   stroke-linejoin="round"
   d="m 8529,3963.5038 v -150"
   id="path74" />
 <path
   fill="none"
   stroke="#b3b3b3"
   stroke-linejoin="round"
   d="m 8529,3963.5038 v -150"
   id="path76" />
 <path
   fill="none"
   stroke="#b3b3b3"
   stroke-linejoin="round"
   d="M 1179,3813.5038 H 8529"
   id="path78" />
 <path
   fill="none"
   stroke="#b3b3b3"
   stroke-linejoin="round"
   d="m 1029,3813.5038 h 150"
   id="path80" />
 <path
   fill="none"
   stroke="#b3b3b3"
   stroke-linejoin="round"
   d="m 1029,3813.5038 h 150"
   id="path82" />
 <path
   fill="none"
   stroke="#b3b3b3"
   stroke-linejoin="round"
   d="m 1029,3317.5038 h 150"
   id="path84" />
 <path
   fill="none"
   stroke="#b3b3b3"
   stroke-linejoin="round"
   d="m 1029,3317.5038 h 150"
   id="path86" />
 <path
   fill="none"
   stroke="#b3b3b3"
   stroke-linejoin="round"
   d="m 1029,2821.5038 h 150"
   id="path88" />
 <path
   fill="none"
   stroke="#b3b3b3"
   stroke-linejoin="round"
   d="m 1029,2821.5038 h 150"
   id="path90" />
 <path
   fill="none"
   stroke="#b3b3b3"
   stroke-linejoin="round"
   d="m 1029,2325.5038 h 150"
   id="path92" />
 <path
   fill="none"
   stroke="#b3b3b3"
   stroke-linejoin="round"
   d="m 1029,2325.5038 h 150"
   id="path94" />
 <path
   fill="none"
   stroke="#b3b3b3"
   stroke-linejoin="round"
   d="m 1029,1830.5038 h 150"
   id="path96" />
 <path
   fill="none"
   stroke="#b3b3b3"
   stroke-linejoin="round"
   d="m 1029,1830.5038 h 150"
   id="path98" />
 <path
   fill="none"
   stroke="#b3b3b3"
   stroke-linejoin="round"
   d="m 1029,1334.5038 h 150"
   id="path100" />
 <path
   fill="none"
   stroke="#b3b3b3"
   stroke-linejoin="round"
   d="m 1029,1334.5038 h 150"
   id="path102" />
 <path
   fill="none"
   stroke="#b3b3b3"
   stroke-linejoin="round"
   d="m 1029,837.5038 h 150"
   id="path104" />
 <path
   fill="none"
   stroke="#b3b3b3"
   stroke-linejoin="round"
   d="m 1029,837.5038 h 150"
   id="path106" />
 <path
   fill="none"
   stroke="#b3b3b3"
   stroke-linejoin="round"
   d="m 1029,341.5038 h 150"
   id="path108" />
 <path
   fill="none"
   stroke="#b3b3b3"
   stroke-linejoin="round"
   d="m 1029,341.5038 h 150"
   id="path110" />
 <path
   fill="none"
   stroke="#b3b3b3"
   stroke-linejoin="round"
   d="m 1179,3813.5038 v -3471"
   id="path112" />
 <path
   fill="none"
   stroke="#004586"
   stroke-width="80"
   stroke-linejoin="round"
   d="m 1179,1051.5038 565,-75 565,-26 566,533 565,-252 566,134 565,304 566,-104 565,-16 565,63 565,-61 566,130 565,81 566,133"
   id="path114" />
 <path
   fill="#004586"
   stroke="none"
   d="m 1054,926.5038 v 250 h 250 v -250 z"
   id="path116" />
 <path
   fill="none"
   stroke="#004586"
   stroke-linejoin="round"
   d="m 1054,926.5038 v 250 h 250 v -250 z"
   id="path118" />
 <path
   fill="#004586"
   stroke="none"
   d="m 1619,851.5038 v 250 h 250 v -250 z"
   id="path120" />
 <path
   fill="none"
   stroke="#004586"
   stroke-linejoin="round"
   d="m 1619,851.5038 v 250 h 250 v -250 z"
   id="path122" />
 <path
   fill="#004586"
   stroke="none"
   d="m 2184,825.5038 v 250 h 250 v -250 z"
   id="path124" />
 <path
   fill="none"
   stroke="#004586"
   stroke-linejoin="round"
   d="m 2184,825.5038 v 250 h 250 v -250 z"
   id="path126" />
 <path
   fill="#004586"
   stroke="none"
   d="m 2750,1358.5038 v 250 h 250 v -250 z"
   id="path128" />
 <path
   fill="none"
   stroke="#004586"
   stroke-linejoin="round"
   d="m 2750,1358.5038 v 250 h 250 v -250 z"
   id="path130" />
 <path
   fill="#004586"
   stroke="none"
   d="m 3315,1106.5038 v 250 h 250 v -250 z"
   id="path132" />
 <path
   fill="none"
   stroke="#004586"
   stroke-linejoin="round"
   d="m 3315,1106.5038 v 250 h 250 v -250 z"
   id="path134" />
 <path
   fill="#004586"
   stroke="none"
   d="m 3881,1240.5038 v 250 h 250 v -250 z"
   id="path136" />
 <path
   fill="none"
   stroke="#004586"
   stroke-linejoin="round"
   d="m 3881,1240.5038 v 250 h 250 v -250 z"
   id="path138" />
 <path
   fill="#004586"
   stroke="none"
   d="m 4446,1544.5038 v 250 h 250 v -250 z"
   id="path140" />
 <path
   fill="none"
   stroke="#004586"
   stroke-linejoin="round"
   d="m 4446,1544.5038 v 250 h 250 v -250 z"
   id="path142" />
 <path
   fill="#004586"
   stroke="none"
   d="m 5012,1440.5038 v 250 h 250 v -250 z"
   id="path144" />
 <path
   fill="none"
   stroke="#004586"
   stroke-linejoin="round"
   d="m 5012,1440.5038 v 250 h 250 v -250 z"
   id="path146" />
 <path
   fill="#004586"
   stroke="none"
   d="m 5577,1424.5038 v 250 h 250 v -250 z"
   id="path148" />
 <path
   fill="none"
   stroke="#004586"
   stroke-linejoin="round"
   d="m 5577,1424.5038 v 250 h 250 v -250 z"
   id="path150" />
 <path
   fill="#004586"
   stroke="none"
   d="m 6142,1487.5038 v 250 h 250 v -250 z"
   id="path152" />
 <path
   fill="none"
   stroke="#004586"
   stroke-linejoin="round"
   d="m 6142,1487.5038 v 250 h 250 v -250 z"
   id="path154" />
 <path
   fill="#004586"
   stroke="none"
   d="m 6707,1426.5038 v 250 h 250 v -250 z"
   id="path156" />
 <path
   fill="none"
   stroke="#004586"
   stroke-linejoin="round"
   d="m 6707,1426.5038 v 250 h 250 v -250 z"
   id="path158" />
 <path
   fill="#004586"
   stroke="none"
   d="m 7273,1556.5038 v 250 h 250 v -250 z"
   id="path160" />
 <path
   fill="none"
   stroke="#004586"
   stroke-linejoin="round"
   d="m 7273,1556.5038 v 250 h 250 v -250 z"
   id="path162" />
 <path
   fill="#004586"
   stroke="none"
   d="m 7838,1637.5038 v 250 h 250 v -250 z"
   id="path164" />
 <path
   fill="none"
   stroke="#004586"
   stroke-linejoin="round"
   d="m 7838,1637.5038 v 250 h 250 v -250 z"
   id="path166" />
 <path
   fill="#004586"
   stroke="none"
   d="m 8404,1770.5038 v 250 h 250 v -250 z"
   id="path168" />
 <path
   fill="none"
   stroke="#004586"
   stroke-linejoin="round"
   d="m 8404,1770.5038 v 250 h 250 v -250 z"
   id="path170" />
 <path
   fill="none"
   stroke="#ff420e"
   stroke-width="80"
   stroke-linejoin="round"
   d="m 1179,2073.5038 565,56 565,63 566,-371 565,189 566,-210 565,-358 566,123 565,71 565,-60 565,115 566,-86 565,-16 566,-88"
   id="path172" />
 <path
   fill="#ff420e"
   stroke="none"
   d="m 1054,2073.5038 125,124 125,-124 -125,-125 z"
   id="path174" />
 <path
   fill="none"
   stroke="#ff420e"
   stroke-linejoin="round"
   d="m 1054,2073.5038 125,124 125,-124 -125,-125 z"
   id="path176" />
 <path
   fill="#ff420e"
   stroke="none"
   d="m 1619,2129.5038 125,124 125,-124 -125,-125 z"
   id="path178" />
 <path
   fill="none"
   stroke="#ff420e"
   stroke-linejoin="round"
   d="m 1619,2129.5038 125,124 125,-124 -125,-125 z"
   id="path180" />
 <path
   fill="#ff420e"
   stroke="none"
   d="m 2184,2192.5038 125,125 125,-125 -125,-124 z"
   id="path182" />
 <path
   fill="none"
   stroke="#ff420e"
   stroke-linejoin="round"
   d="m 2184,2192.5038 125,125 125,-125 -125,-124 z"
   id="path184" />
 <path
   fill="#ff420e"
   stroke="none"
   d="m 2750,1821.5038 125,125 125,-125 -125,-125 z"
   id="path186" />
 <path
   fill="none"
   stroke="#ff420e"
   stroke-linejoin="round"
   d="m 2750,1821.5038 125,125 125,-125 -125,-125 z"
   id="path188" />
 <path
   fill="#ff420e"
   stroke="none"
   d="m 3315,2010.5038 125,125 125,-125 -125,-125 z"
   id="path190" />
 <path
   fill="none"
   stroke="#ff420e"
   stroke-linejoin="round"
   d="m 3315,2010.5038 125,125 125,-125 -125,-125 z"
   id="path192" />
 <path
   fill="#ff420e"
   stroke="none"
   d="m 3881,1800.5038 125,125 125,-125 -125,-125 z"
   id="path194" />
 <path
   fill="none"
   stroke="#ff420e"
   stroke-linejoin="round"
   d="m 3881,1800.5038 125,125 125,-125 -125,-125 z"
   id="path196" />
 <path
   fill="#ff420e"
   stroke="none"
   d="m 4446,1442.5038 125,125 125,-125 -125,-125 z"
   id="path198" />
 <path
   fill="none"
   stroke="#ff420e"
   stroke-linejoin="round"
   d="m 4446,1442.5038 125,125 125,-125 -125,-125 z"
   id="path200" />
 <path
   fill="#ff420e"
   stroke="none"
   d="m 5012,1565.5038 125,125 125,-125 -125,-125 z"
   id="path202" />
 <path
   fill="none"
   stroke="#ff420e"
   stroke-linejoin="round"
   d="m 5012,1565.5038 125,125 125,-125 -125,-125 z"
   id="path204" />
 <path
   fill="#ff420e"
   stroke="none"
   d="m 5577,1636.5038 125,125 125,-125 -125,-125 z"
   id="path206" />
 <path
   fill="none"
   stroke="#ff420e"
   stroke-linejoin="round"
   d="m 5577,1636.5038 125,125 125,-125 -125,-125 z"
   id="path208" />
 <path
   fill="#ff420e"
   stroke="none"
   d="m 6142,1576.5038 125,125 125,-125 -125,-125 z"
   id="path210" />
 <path
   fill="none"
   stroke="#ff420e"
   stroke-linejoin="round"
   d="m 6142,1576.5038 125,125 125,-125 -125,-125 z"
   id="path212" />
 <path
   fill="#ff420e"
   stroke="none"
   d="m 6707,1691.5038 125,125 125,-125 -125,-125 z"
   id="path214" />
 <path
   fill="none"
   stroke="#ff420e"
   stroke-linejoin="round"
   d="m 6707,1691.5038 125,125 125,-125 -125,-125 z"
   id="path216" />
 <path
   fill="#ff420e"
   stroke="none"
   d="m 7273,1605.5038 125,125 125,-125 -125,-125 z"
   id="path218" />
 <path
   fill="none"
   stroke="#ff420e"
   stroke-linejoin="round"
   d="m 7273,1605.5038 125,125 125,-125 -125,-125 z"
   id="path220" />
 <path
   fill="#ff420e"
   stroke="none"
   d="m 7838,1589.5038 125,125 125,-125 -125,-125 z"
   id="path222" />
 <path
   fill="none"
   stroke="#ff420e"
   stroke-linejoin="round"
   d="m 7838,1589.5038 125,125 125,-125 -125,-125 z"
   id="path224" />
 <path
   fill="#ff420e"
   stroke="none"
   d="m 8404,1501.5038 125,125 125,-125 -125,-125 z"
   id="path226" />
 <path
   fill="none"
   stroke="#ff420e"
   stroke-linejoin="round"
   d="m 8404,1501.5038 125,125 125,-125 -125,-125 z"
   id="path228" />
 <path
   fill="none"
   stroke="#ffd320"
   stroke-width="80"
   stroke-linejoin="round"
   d="m 1179,3356.5038 565,18 565,-38 566,-161 565,63 566,77 565,53 566,-19 565,-55 565,-2 565,-55 566,-43 565,-65 566,-46"
   id="path230" />
 <path
   fill="#ffd320"
   stroke="none"
   d="m 1054,3231.5038 125,250 125,-250 z"
   id="path232" />
 <path
   fill="none"
   stroke="#ffd320"
   stroke-linejoin="round"
   d="m 1054,3231.5038 125,250 125,-250 z"
   id="path234" />
 <path
   fill="#ffd320"
   stroke="none"
   d="m 1619,3249.5038 125,250 125,-250 z"
   id="path236" />
 <path
   fill="none"
   stroke="#ffd320"
   stroke-linejoin="round"
   d="m 1619,3249.5038 125,250 125,-250 z"
   id="path238" />
 <path
   fill="#ffd320"
   stroke="none"
   d="m 2184,3211.5038 125,250 125,-250 z"
   id="path240" />
 <path
   fill="none"
   stroke="#ffd320"
   stroke-linejoin="round"
   d="m 2184,3211.5038 125,250 125,-250 z"
   id="path242" />
 <path
   fill="#ffd320"
   stroke="none"
   d="m 2750,3050.5038 125,250 125,-250 z"
   id="path244" />
 <path
   fill="none"
   stroke="#ffd320"
   stroke-linejoin="round"
   d="m 2750,3050.5038 125,250 125,-250 z"
   id="path246" />
 <path
   fill="#ffd320"
   stroke="none"
   d="m 3315,3113.5038 125,250 125,-250 z"
   id="path248" />
 <path
   fill="none"
   stroke="#ffd320"
   stroke-linejoin="round"
   d="m 3315,3113.5038 125,250 125,-250 z"
   id="path250" />
 <path
   fill="#ffd320"
   stroke="none"
   d="m 3881,3190.5038 125,250 125,-250 z"
   id="path252" />
 <path
   fill="none"
   stroke="#ffd320"
   stroke-linejoin="round"
   d="m 3881,3190.5038 125,250 125,-250 z"
   id="path254" />
 <path
   fill="#ffd320"
   stroke="none"
   d="m 4446,3243.5038 125,250 125,-250 z"
   id="path256" />
 <path
   fill="none"
   stroke="#ffd320"
   stroke-linejoin="round"
   d="m 4446,3243.5038 125,250 125,-250 z"
   id="path258" />
 <path
   fill="#ffd320"
   stroke="none"
   d="m 5012,3224.5038 125,250 125,-250 z"
   id="path260" />
 <path
   fill="none"
   stroke="#ffd320"
   stroke-linejoin="round"
   d="m 5012,3224.5038 125,250 125,-250 z"
   id="path262" />
 <path
   fill="#ffd320"
   stroke="none"
   d="m 5577,3169.5038 125,250 125,-250 z"
   id="path264" />
 <path
   fill="none"
   stroke="#ffd320"
   stroke-linejoin="round"
   d="m 5577,3169.5038 125,250 125,-250 z"
   id="path266" />
 <path
   fill="#ffd320"
   stroke="none"
   d="m 6142,3167.5038 125,250 125,-250 z"
   id="path268" />
 <path
   fill="none"
   stroke="#ffd320"
   stroke-linejoin="round"
   d="m 6142,3167.5038 125,250 125,-250 z"
   id="path270" />
 <path
   fill="#ffd320"
   stroke="none"
   d="m 6707,3112.5038 125,250 125,-250 z"
   id="path272" />
 <path
   fill="none"
   stroke="#ffd320"
   stroke-linejoin="round"
   d="m 6707,3112.5038 125,250 125,-250 z"
   id="path274" />
 <path
   fill="#ffd320"
   stroke="none"
   d="m 7273,3069.5038 125,250 125,-250 z"
   id="path276" />
 <path
   fill="none"
   stroke="#ffd320"
   stroke-linejoin="round"
   d="m 7273,3069.5038 125,250 125,-250 z"
   id="path278" />
 <path
   fill="#ffd320"
   stroke="none"
   d="m 7838,3004.5038 125,250 125,-250 z"
   id="path280" />
 <path
   fill="none"
   stroke="#ffd320"
   stroke-linejoin="round"
   d="m 7838,3004.5038 125,250 125,-250 z"
   id="path282" />
 <path
   fill="#ffd320"
   stroke="none"
   d="m 8404,2958.5038 125,250 125,-250 z"
   id="path284" />
 <path
   fill="none"
   stroke="#ffd320"
   stroke-linejoin="round"
   d="m 8404,2958.5038 125,250 125,-250 z"
   id="path286" />
 <text
   class="SVGTextShape"
   transform="rotate(-44.9)"
   id="text294"
   x="-3612.2549"
   y="-1694.1786"><tspan
     class="TextParagraph"
     font-family="'Liberation Sans', sans-serif"
     font-size="353px"
     font-weight="400"
     id="tspan292"><tspan
       class="TextPosition"
       x="-2874.2549"
       y="3929.8213"
       id="tspan290"><tspan
         fill="#000000"
         stroke="none"
         id="tspan288">1950</tspan></tspan></tspan></text>
 <text
   class="SVGTextShape"
   transform="rotate(-44.9)"
   id="text302"
   x="-3777.0427"
   y="-1295.3612"><tspan
     class="TextParagraph"
     font-family="'Liberation Sans', sans-serif"
     font-size="353px"
     font-weight="400"
     id="tspan300"><tspan
       class="TextPosition"
       x="-2474.0427"
       y="4328.6387"
       id="tspan298"><tspan
         fill="#000000"
         stroke="none"
         id="tspan296">1955</tspan></tspan></tspan></text>
 <text
   class="SVGTextShape"
   transform="rotate(-44.9)"
   id="text310"
   x="-3941.8308"
   y="-896.54376"><tspan
     class="TextParagraph"
     font-family="'Liberation Sans', sans-serif"
     font-size="353px"
     font-weight="400"
     id="tspan308"><tspan
       class="TextPosition"
       x="-2073.8308"
       y="4727.4561"
       id="tspan306"><tspan
         fill="#000000"
         stroke="none"
         id="tspan304">1960</tspan></tspan></tspan></text>
 <text
   class="SVGTextShape"
   transform="rotate(-44.9)"
   id="text318"
   x="-4106.9106"
   y="-497.02045"><tspan
     class="TextParagraph"
     font-family="'Liberation Sans', sans-serif"
     font-size="353px"
     font-weight="400"
     id="tspan316"><tspan
       class="TextPosition"
       x="-1672.9104"
       y="5126.9795"
       id="tspan314"><tspan
         fill="#000000"
         stroke="none"
         id="tspan312">1965</tspan></tspan></tspan></text>
 <text
   class="SVGTextShape"
   transform="rotate(-44.9)"
   id="text326"
   x="-4271.6982"
   y="-98.202995"><tspan
     class="TextParagraph"
     font-family="'Liberation Sans', sans-serif"
     font-size="353px"
     font-weight="400"
     id="tspan324"><tspan
       class="TextPosition"
       x="-1272.6985"
       y="5525.7969"
       id="tspan322"><tspan
         fill="#000000"
         stroke="none"
         id="tspan320">1970</tspan></tspan></tspan></text>
 <text
   class="SVGTextShape"
   transform="rotate(-44.9)"
   id="text334"
   x="-4436.7783"
   y="301.32031"><tspan
     class="TextParagraph"
     font-family="'Liberation Sans', sans-serif"
     font-size="353px"
     font-weight="400"
     id="tspan332"><tspan
       class="TextPosition"
       x="-871.77808"
       y="5925.3203"
       id="tspan330"><tspan
         fill="#000000"
         stroke="none"
         id="tspan328">1975</tspan></tspan></tspan></text>
 <text
   class="SVGTextShape"
   transform="rotate(-44.9)"
   id="text342"
   x="-4601.5659"
   y="700.13776"><tspan
     class="TextParagraph"
     font-family="'Liberation Sans', sans-serif"
     font-size="353px"
     font-weight="400"
     id="tspan340"><tspan
       class="TextPosition"
       x="-471.5661"
       y="6324.1377"
       id="tspan338"><tspan
         fill="#000000"
         stroke="none"
         id="tspan336">1980</tspan></tspan></tspan></text>
 <text
   class="SVGTextShape"
   transform="rotate(-44.9)"
   id="text350"
   x="-4766.6455"
   y="1099.661"><tspan
     class="TextParagraph"
     font-family="'Liberation Sans', sans-serif"
     font-size="353px"
     font-weight="400"
     id="tspan348"><tspan
       class="TextPosition"
       x="-70.645737"
       y="6723.6611"
       id="tspan346"><tspan
         fill="#000000"
         stroke="none"
         id="tspan344">1985</tspan></tspan></tspan></text>
 <text
   class="SVGTextShape"
   transform="rotate(-44.9)"
   id="text358"
   x="-4931.4336"
   y="1498.4785"><tspan
     class="TextParagraph"
     font-family="'Liberation Sans', sans-serif"
     font-size="353px"
     font-weight="400"
     id="tspan356"><tspan
       class="TextPosition"
       x="329.56628"
       y="7122.4785"
       id="tspan354"><tspan
         fill="#000000"
         stroke="none"
         id="tspan352">1990</tspan></tspan></tspan></text>
 <text
   class="SVGTextShape"
   transform="rotate(-44.9)"
   id="text366"
   x="-5096.5132"
   y="1898.0018"><tspan
     class="TextParagraph"
     font-family="'Liberation Sans', sans-serif"
     font-size="353px"
     font-weight="400"
     id="tspan364"><tspan
       class="TextPosition"
       x="730.48663"
       y="7522.002"
       id="tspan362"><tspan
         fill="#000000"
         stroke="none"
         id="tspan360">1995</tspan></tspan></tspan></text>
 <text
   class="SVGTextShape"
   transform="rotate(-44.9)"
   id="text374"
   x="-5261.3013"
   y="2296.8193"><tspan
     class="TextParagraph"
     font-family="'Liberation Sans', sans-serif"
     font-size="353px"
     font-weight="400"
     id="tspan372"><tspan
       class="TextPosition"
       x="1130.6986"
       y="7920.8193"
       id="tspan370"><tspan
         fill="#000000"
         stroke="none"
         id="tspan368">2000</tspan></tspan></tspan></text>
 <text
   class="SVGTextShape"
   transform="rotate(-44.9)"
   id="text382"
   x="-5426.3809"
   y="2696.3425"><tspan
     class="TextParagraph"
     font-family="'Liberation Sans', sans-serif"
     font-size="353px"
     font-weight="400"
     id="tspan380"><tspan
       class="TextPosition"
       x="1531.619"
       y="8320.3428"
       id="tspan378"><tspan
         fill="#000000"
         stroke="none"
         id="tspan376">2005</tspan></tspan></tspan></text>
 <text
   class="SVGTextShape"
   transform="rotate(-44.9)"
   id="text390"
   x="-5591.1689"
   y="3095.1599"><tspan
     class="TextParagraph"
     font-family="'Liberation Sans', sans-serif"
     font-size="353px"
     font-weight="400"
     id="tspan388"><tspan
       class="TextPosition"
       x="1931.8309"
       y="8719.1602"
       id="tspan386"><tspan
         fill="#000000"
         stroke="none"
         id="tspan384">2010</tspan></tspan></tspan></text>
 <text
   class="SVGTextShape"
   transform="rotate(-44.9)"
   id="text398"
   x="-5756.2485"
   y="3494.6833"><tspan
     class="TextParagraph"
     font-family="'Liberation Sans', sans-serif"
     font-size="353px"
     font-weight="400"
     id="tspan396"><tspan
       class="TextPosition"
       x="2332.7512"
       y="9118.6836"
       id="tspan394"><tspan
         fill="#000000"
         stroke="none"
         id="tspan392">2015</tspan></tspan></tspan></text>
 <text
   class="SVGTextShape"
   id="text406"
   y="-811.49622"><tspan
     class="TextParagraph"
     font-family="'Liberation Sans', sans-serif"
     font-size="353px"
     font-weight="400"
     id="tspan404"><tspan
       class="TextPosition"
       x="426"
       y="3934.5039"
       id="tspan402"><tspan
         fill="#000000"
         stroke="none"
         id="tspan400">0%</tspan></tspan></tspan></text>
 <text
   class="SVGTextShape"
   id="text414"
   y="-811.49622"><tspan
     class="TextParagraph"
     font-family="'Liberation Sans', sans-serif"
     font-size="353px"
     font-weight="400"
     id="tspan412"><tspan
       class="TextPosition"
       x="241"
       y="3438.5039"
       id="tspan410"><tspan
         fill="#000000"
         stroke="none"
         id="tspan408">10%</tspan></tspan></tspan></text>
 <text
   class="SVGTextShape"
   id="text422"
   y="-811.49622"><tspan
     class="TextParagraph"
     font-family="'Liberation Sans', sans-serif"
     font-size="353px"
     font-weight="400"
     id="tspan420"><tspan
       class="TextPosition"
       x="241"
       y="2942.5039"
       id="tspan418"><tspan
         fill="#000000"
         stroke="none"
         id="tspan416">20%</tspan></tspan></tspan></text>
 <text
   class="SVGTextShape"
   id="text430"
   y="-811.49622"><tspan
     class="TextParagraph"
     font-family="'Liberation Sans', sans-serif"
     font-size="353px"
     font-weight="400"
     id="tspan428"><tspan
       class="TextPosition"
       x="241"
       y="2446.5039"
       id="tspan426"><tspan
         fill="#000000"
         stroke="none"
         id="tspan424">30%</tspan></tspan></tspan></text>
 <text
   class="SVGTextShape"
   id="text438"
   y="-811.49622"><tspan
     class="TextParagraph"
     font-family="'Liberation Sans', sans-serif"
     font-size="353px"
     font-weight="400"
     id="tspan436"><tspan
       class="TextPosition"
       x="241"
       y="1950.5038"
       id="tspan434"><tspan
         fill="#000000"
         stroke="none"
         id="tspan432">40%</tspan></tspan></tspan></text>
 <text
   class="SVGTextShape"
   id="text446"
   y="-811.49622"><tspan
     class="TextParagraph"
     font-family="'Liberation Sans', sans-serif"
     font-size="353px"
     font-weight="400"
     id="tspan444"><tspan
       class="TextPosition"
       x="241"
       y="1454.5038"
       id="tspan442"><tspan
         fill="#000000"
         stroke="none"
         id="tspan440">50%</tspan></tspan></tspan></text>
 <text
   class="SVGTextShape"
   id="text454"
   y="-811.49622"><tspan
     class="TextParagraph"
     font-family="'Liberation Sans', sans-serif"
     font-size="353px"
     font-weight="400"
     id="tspan452"><tspan
       class="TextPosition"
       x="241"
       y="957.50378"
       id="tspan450"><tspan
         fill="#000000"
         stroke="none"
         id="tspan448">60%</tspan></tspan></tspan></text>
 <text
   class="SVGTextShape"
   id="text462"
   y="-811.49622"><tspan
     class="TextParagraph"
     font-family="'Liberation Sans', sans-serif"
     font-size="353px"
     font-weight="400"
     id="tspan460"><tspan
       class="TextPosition"
       x="241"
       y="461.50381"
       id="tspan458"><tspan
         fill="#000000"
         stroke="none"
         id="tspan456">70%</tspan></tspan></tspan></text>
 
 <path
   fill="none"
   stroke="#004586"
   stroke-width="80"
   stroke-linejoin="round"
   d="m 9026,1689.5038 h 800"
   id="path472" />
 <path
   fill="#004586"
   stroke="none"
   d="m 9320,1584.5038 v 211 h 211 v -211 z"
   id="path474" />
 <path
   fill="none"
   stroke="#004586"
   stroke-linejoin="round"
   d="m 9320,1584.5038 v 211 h 211 v -211 z"
   id="path476" />
 <path
   fill="none"
   stroke="#ff420e"
   stroke-width="80"
   stroke-linejoin="round"
   d="m 9026,2187.5038 h 800"
   id="path478" />
 <path
   fill="#ff420e"
   stroke="none"
   d="m 9320,2187.5038 106,105 105,-105 -105,-105 z"
   id="path480" />
 <path
   fill="none"
   stroke="#ff420e"
   stroke-linejoin="round"
   d="m 9320,2187.5038 106,105 105,-105 -105,-105 z"
   id="path482" />
 <path
   fill="none"
   stroke="#ffd320"
   stroke-width="80"
   stroke-linejoin="round"
   d="m 9026,2684.5038 h 800"
   id="path484" />
 <path
   fill="#ffd320"
   stroke="none"
   d="m 9320,2579.5038 106,211 105,-211 z"
   id="path486" />
 <path
   fill="none"
   stroke="#ffd320"
   stroke-linejoin="round"
   d="m 9320,2579.5038 106,211 105,-211 z"
   id="path488" />
 <text
   class="SVGTextShape"
   id="text496"
   y="-811.49622"><tspan
     class="TextParagraph"
     font-family="'Liberation Sans', sans-serif"
     font-size="353px"
     font-weight="400"
     id="tspan494"><tspan
       class="TextPosition"
       x="9926"
       y="1809.5038"
       id="tspan492"><tspan
         fill="#000000"
         stroke="none"
         id="tspan490">akkerbouw</tspan></tspan></tspan></text>
 <text
   class="SVGTextShape"
   id="text504"
   y="-811.49622"><tspan
     class="TextParagraph"
     font-family="'Liberation Sans', sans-serif"
     font-size="353px"
     font-weight="400"
     id="tspan502"><tspan
       class="TextPosition"
       x="9926"
       y="2306.5039"
       id="tspan500"><tspan
         fill="#000000"
         stroke="none"
         id="tspan498">veehouderij</tspan></tspan></tspan></text>
 <text
   class="SVGTextShape"
   id="text512"
   y="-811.49622"><tspan
     class="TextParagraph"
     font-family="'Liberation Sans', sans-serif"
     font-size="353px"
     font-weight="400"
     id="tspan510"><tspan
       class="TextPosition"
       x="9926"
       y="2804.5039"
       id="tspan508"><tspan
         fill="#000000"
         stroke="none"
         id="tspan506">tuinbouw</tspan></tspan></tspan></text>
</svg>
