<?xml version="1.0" encoding="UTF-8"?>
<!DOCTYPE svg PUBLIC "-//W3C//DTD SVG 1.1//EN" "http://www.w3.org/Graphics/SVG/1.1/DTD/svg11.dtd">
<svg width="150mm" height="100mm" viewBox="0 0 15000 10000" version="1.1" xmlns="http://www.w3.org/2000/svg" xmlns:xlink="http://www.w3.org/1999/xlink" stroke-width="28.222" stroke-linejoin="round" xml:space="preserve">
 <path fill="rgb(255,255,255)" stroke="none" d="M 7500,10000 L 0,10000 0,0 15000,0 15000,10000 7500,10000 Z"/>
 <path fill="none" stroke="rgb(179,179,179)" stroke-linejoin="round" d="M 9986,9153 L 5552,9153 5552,1315 14420,1315 14420,9153 9986,9153 Z"/>
 <path fill="none" stroke="rgb(179,179,179)" stroke-linejoin="round" d="M 5552,1313 L 5552,9152"/>
 <path fill="none" stroke="rgb(179,179,179)" stroke-linejoin="round" d="M 6537,1313 L 6537,9152"/>
 <path fill="none" stroke="rgb(179,179,179)" stroke-linejoin="round" d="M 7521,1313 L 7521,9152"/>
 <path fill="none" stroke="rgb(179,179,179)" stroke-linejoin="round" d="M 8507,1313 L 8507,9152"/>
 <path fill="none" stroke="rgb(179,179,179)" stroke-linejoin="round" d="M 9492,1313 L 9492,9152"/>
 <path fill="none" stroke="rgb(179,179,179)" stroke-linejoin="round" d="M 10478,1313 L 10478,9152"/>
 <path fill="none" stroke="rgb(179,179,179)" stroke-linejoin="round" d="M 11463,1313 L 11463,9152"/>
 <path fill="none" stroke="rgb(179,179,179)" stroke-linejoin="round" d="M 12449,1313 L 12449,9152"/>
 <path fill="none" stroke="rgb(179,179,179)" stroke-linejoin="round" d="M 13434,1313 L 13434,9152"/>
 <path fill="none" stroke="rgb(179,179,179)" stroke-linejoin="round" d="M 14420,1313 L 14420,9152"/>
 <path fill="none" stroke="rgb(179,179,179)" stroke-linejoin="round" d="M 5402,9152 L 5552,9152"/>
 <path fill="none" stroke="rgb(179,179,179)" stroke-linejoin="round" d="M 5402,9152 L 5552,9152"/>
 <path fill="none" stroke="rgb(179,179,179)" stroke-linejoin="round" d="M 5402,8498 L 5552,8498"/>
 <path fill="none" stroke="rgb(179,179,179)" stroke-linejoin="round" d="M 5402,8498 L 5552,8498"/>
 <path fill="none" stroke="rgb(179,179,179)" stroke-linejoin="round" d="M 5402,7845 L 5552,7845"/>
 <path fill="none" stroke="rgb(179,179,179)" stroke-linejoin="round" d="M 5402,7845 L 5552,7845"/>
 <path fill="none" stroke="rgb(179,179,179)" stroke-linejoin="round" d="M 5402,7192 L 5552,7192"/>
 <path fill="none" stroke="rgb(179,179,179)" stroke-linejoin="round" d="M 5402,7192 L 5552,7192"/>
 <path fill="none" stroke="rgb(179,179,179)" stroke-linejoin="round" d="M 5402,6539 L 5552,6539"/>
 <path fill="none" stroke="rgb(179,179,179)" stroke-linejoin="round" d="M 5402,6539 L 5552,6539"/>
 <path fill="none" stroke="rgb(179,179,179)" stroke-linejoin="round" d="M 5402,5885 L 5552,5885"/>
 <path fill="none" stroke="rgb(179,179,179)" stroke-linejoin="round" d="M 5402,5885 L 5552,5885"/>
 <path fill="none" stroke="rgb(179,179,179)" stroke-linejoin="round" d="M 5402,5232 L 5552,5232"/>
 <path fill="none" stroke="rgb(179,179,179)" stroke-linejoin="round" d="M 5402,5232 L 5552,5232"/>
 <path fill="none" stroke="rgb(179,179,179)" stroke-linejoin="round" d="M 5402,4580 L 5552,4580"/>
 <path fill="none" stroke="rgb(179,179,179)" stroke-linejoin="round" d="M 5402,4580 L 5552,4580"/>
 <path fill="none" stroke="rgb(179,179,179)" stroke-linejoin="round" d="M 5402,3926 L 5552,3926"/>
 <path fill="none" stroke="rgb(179,179,179)" stroke-linejoin="round" d="M 5402,3926 L 5552,3926"/>
 <path fill="none" stroke="rgb(179,179,179)" stroke-linejoin="round" d="M 5402,3273 L 5552,3273"/>
 <path fill="none" stroke="rgb(179,179,179)" stroke-linejoin="round" d="M 5402,3273 L 5552,3273"/>
 <path fill="none" stroke="rgb(179,179,179)" stroke-linejoin="round" d="M 5402,2620 L 5552,2620"/>
 <path fill="none" stroke="rgb(179,179,179)" stroke-linejoin="round" d="M 5402,2620 L 5552,2620"/>
 <path fill="none" stroke="rgb(179,179,179)" stroke-linejoin="round" d="M 5402,1967 L 5552,1967"/>
 <path fill="none" stroke="rgb(179,179,179)" stroke-linejoin="round" d="M 5402,1967 L 5552,1967"/>
 <path fill="none" stroke="rgb(179,179,179)" stroke-linejoin="round" d="M 5402,1313 L 5552,1313"/>
 <path fill="none" stroke="rgb(179,179,179)" stroke-linejoin="round" d="M 5402,1313 L 5552,1313"/>
 <path fill="none" stroke="rgb(179,179,179)" stroke-linejoin="round" d="M 5552,9152 L 5552,1313"/>
 <path fill="none" stroke="rgb(179,179,179)" stroke-linejoin="round" d="M 5552,9302 L 5552,9152"/>
 <path fill="none" stroke="rgb(179,179,179)" stroke-linejoin="round" d="M 5552,9302 L 5552,9152"/>
 <path fill="none" stroke="rgb(179,179,179)" stroke-linejoin="round" d="M 6537,9302 L 6537,9152"/>
 <path fill="none" stroke="rgb(179,179,179)" stroke-linejoin="round" d="M 6537,9302 L 6537,9152"/>
 <path fill="none" stroke="rgb(179,179,179)" stroke-linejoin="round" d="M 7521,9302 L 7521,9152"/>
 <path fill="none" stroke="rgb(179,179,179)" stroke-linejoin="round" d="M 7521,9302 L 7521,9152"/>
 <path fill="none" stroke="rgb(179,179,179)" stroke-linejoin="round" d="M 8507,9302 L 8507,9152"/>
 <path fill="none" stroke="rgb(179,179,179)" stroke-linejoin="round" d="M 8507,9302 L 8507,9152"/>
 <path fill="none" stroke="rgb(179,179,179)" stroke-linejoin="round" d="M 9492,9302 L 9492,9152"/>
 <path fill="none" stroke="rgb(179,179,179)" stroke-linejoin="round" d="M 9492,9302 L 9492,9152"/>
 <path fill="none" stroke="rgb(179,179,179)" stroke-linejoin="round" d="M 10478,9302 L 10478,9152"/>
 <path fill="none" stroke="rgb(179,179,179)" stroke-linejoin="round" d="M 10478,9302 L 10478,9152"/>
 <path fill="none" stroke="rgb(179,179,179)" stroke-linejoin="round" d="M 11463,9302 L 11463,9152"/>
 <path fill="none" stroke="rgb(179,179,179)" stroke-linejoin="round" d="M 11463,9302 L 11463,9152"/>
 <path fill="none" stroke="rgb(179,179,179)" stroke-linejoin="round" d="M 12449,9302 L 12449,9152"/>
 <path fill="none" stroke="rgb(179,179,179)" stroke-linejoin="round" d="M 12449,9302 L 12449,9152"/>
 <path fill="none" stroke="rgb(179,179,179)" stroke-linejoin="round" d="M 13434,9302 L 13434,9152"/>
 <path fill="none" stroke="rgb(179,179,179)" stroke-linejoin="round" d="M 13434,9302 L 13434,9152"/>
 <path fill="none" stroke="rgb(179,179,179)" stroke-linejoin="round" d="M 14420,9302 L 14420,9152"/>
 <path fill="none" stroke="rgb(179,179,179)" stroke-linejoin="round" d="M 14420,9302 L 14420,9152"/>
 <path fill="none" stroke="rgb(179,179,179)" stroke-linejoin="round" d="M 5552,9152 L 14420,9152"/>
 <path fill="rgb(0,69,134)" stroke="none" d="M 5552,1803 L 5552,1477 13207,1477 13207,1803 5552,1803 Z"/>
 <path fill="rgb(0,69,134)" stroke="none" d="M 5552,2457 L 5552,2130 8428,2130 8428,2457 5552,2457 Z"/>
 <path fill="rgb(0,69,134)" stroke="none" d="M 5552,3110 L 5552,2783 7590,2783 7590,3110 5552,3110 Z"/>
 <path fill="rgb(0,69,134)" stroke="none" d="M 5552,3763 L 5552,3437 7335,3437 7335,3763 5552,3763 Z"/>
 <path fill="rgb(0,69,134)" stroke="none" d="M 5552,4416 L 5552,4090 6813,4090 6813,4416 5552,4416 Z"/>
 <path fill="rgb(153,204,255)" stroke="none" d="M 5552,5069 L 5552,4743 6635,4743 6635,5069 5552,5069 Z"/>
 <path fill="rgb(255,211,32)" stroke="none" d="M 5552,5722 L 5552,5395 6537,5395 6537,5722 5552,5722 Z"/>
 <path fill="rgb(0,69,134)" stroke="none" d="M 5552,6375 L 5552,6049 6478,6049 6478,6375 5552,6375 Z"/>
 <path fill="rgb(255,153,153)" stroke="none" d="M 5552,7028 L 5552,6702 6241,6702 6241,7028 5552,7028 Z"/>
 <path fill="rgb(153,0,0)" stroke="none" d="M 5552,7682 L 5552,7355 6044,7355 6044,7682 5552,7682 Z"/>
 <path fill="rgb(0,69,134)" stroke="none" d="M 5552,8335 L 5552,8008 5749,8008 5749,8335 5552,8335 Z"/>
 <path fill="rgb(0,69,134)" stroke="none" d="M 5552,8988 L 5552,8662 5611,8662 5611,8988 5552,8988 Z"/>
 <text class="SVGTextShape"><tspan class="TextParagraph" font-family="Liberation Sans, sans-serif" font-size="353px" font-weight="400"><tspan class="TextPosition" x="4508" y="8946"><tspan fill="rgb(0,0,0)" stroke="none">Niger</tspan></tspan></tspan></text>
 <text class="SVGTextShape"><tspan class="TextParagraph" font-family="Liberation Sans, sans-serif" font-size="353px" font-weight="400"><tspan class="TextPosition" x="3397" y="8293"><tspan fill="rgb(0,0,0)" stroke="none">Noord Korea</tspan></tspan></tspan></text>
 <text class="SVGTextShape"><tspan class="TextParagraph" font-family="Liberation Sans, sans-serif" font-size="353px" font-weight="400"><tspan class="TextPosition" x="989" y="7639"><tspan fill="rgb(0,0,0)" stroke="none">Minimaal nodig (ondergrens)</tspan></tspan></tspan></text>
 <text class="SVGTextShape"><tspan class="TextParagraph" font-family="Liberation Sans, sans-serif" font-size="353px" font-weight="400"><tspan class="TextPosition" x="910" y="6986"><tspan fill="rgb(0,0,0)" stroke="none">Minimaal nodig (bovengrens)</tspan></tspan></tspan></text>
 <text class="SVGTextShape"><tspan class="TextParagraph" font-family="Liberation Sans, sans-serif" font-size="353px" font-weight="400"><tspan class="TextPosition" x="4429" y="6333"><tspan fill="rgb(0,0,0)" stroke="none">China</tspan></tspan></tspan></text>
 <text class="SVGTextShape"><tspan class="TextParagraph" font-family="Liberation Sans, sans-serif" font-size="353px" font-weight="400"><tspan class="TextPosition" x="301" y="5680"><tspan fill="rgb(0,0,0)" stroke="none">Bovengrens stijging welbevinden</tspan></tspan></tspan></text>
 <text class="SVGTextShape"><tspan class="TextParagraph" font-family="Liberation Sans, sans-serif" font-size="353px" font-weight="400"><tspan class="TextPosition" x="3662" y="5026"><tspan fill="rgb(0,0,0)" stroke="none">Wereldwijd</tspan></tspan></tspan></text>
 <text class="SVGTextShape"><tspan class="TextParagraph" font-family="Liberation Sans, sans-serif" font-size="353px" font-weight="400"><tspan class="TextPosition" x="3556" y="4373"><tspan fill="rgb(0,0,0)" stroke="none">Zwitserland</tspan></tspan></tspan></text>
 <text class="SVGTextShape"><tspan class="TextParagraph" font-family="Liberation Sans, sans-serif" font-size="353px" font-weight="400"><tspan class="TextPosition" x="3767" y="3720"><tspan fill="rgb(0,0,0)" stroke="none">Nederland</tspan></tspan></tspan></text>
 <text class="SVGTextShape"><tspan class="TextParagraph" font-family="Liberation Sans, sans-serif" font-size="353px" font-weight="400"><tspan class="TextPosition" x="4058" y="3067"><tspan fill="rgb(0,0,0)" stroke="none">Rusland</tspan></tspan></tspan></text>
 <text class="SVGTextShape"><tspan class="TextParagraph" font-family="Liberation Sans, sans-serif" font-size="353px" font-weight="400"><tspan class="TextPosition" x="2656" y="2413"><tspan fill="rgb(0,0,0)" stroke="none">Verenigde Staten</tspan></tspan></tspan></text>
 <text class="SVGTextShape"><tspan class="TextParagraph" font-family="Liberation Sans, sans-serif" font-size="353px" font-weight="400"><tspan class="TextPosition" x="4270" y="1760"><tspan fill="rgb(0,0,0)" stroke="none">Quatar</tspan></tspan></tspan></text>
 <text class="SVGTextShape"><tspan class="TextParagraph" font-family="Liberation Sans, sans-serif" font-size="353px" font-weight="400"><tspan class="TextPosition" x="5459" y="9720"><tspan fill="rgb(0,0,0)" stroke="none">0</tspan></tspan></tspan></text>
 <text class="SVGTextShape"><tspan class="TextParagraph" font-family="Liberation Sans, sans-serif" font-size="353px" font-weight="400"><tspan class="TextPosition" x="6259" y="9720"><tspan fill="rgb(0,0,0)" stroke="none">100</tspan></tspan></tspan></text>
 <text class="SVGTextShape"><tspan class="TextParagraph" font-family="Liberation Sans, sans-serif" font-size="353px" font-weight="400"><tspan class="TextPosition" x="7244" y="9720"><tspan fill="rgb(0,0,0)" stroke="none">200</tspan></tspan></tspan></text>
 <text class="SVGTextShape"><tspan class="TextParagraph" font-family="Liberation Sans, sans-serif" font-size="353px" font-weight="400"><tspan class="TextPosition" x="8230" y="9720"><tspan fill="rgb(0,0,0)" stroke="none">300</tspan></tspan></tspan></text>
 <text class="SVGTextShape"><tspan class="TextParagraph" font-family="Liberation Sans, sans-serif" font-size="353px" font-weight="400"><tspan class="TextPosition" x="9215" y="9720"><tspan fill="rgb(0,0,0)" stroke="none">400</tspan></tspan></tspan></text>
 <text class="SVGTextShape"><tspan class="TextParagraph" font-family="Liberation Sans, sans-serif" font-size="353px" font-weight="400"><tspan class="TextPosition" x="10201" y="9720"><tspan fill="rgb(0,0,0)" stroke="none">500</tspan></tspan></tspan></text>
 <text class="SVGTextShape"><tspan class="TextParagraph" font-family="Liberation Sans, sans-serif" font-size="353px" font-weight="400"><tspan class="TextPosition" x="11186" y="9720"><tspan fill="rgb(0,0,0)" stroke="none">600</tspan></tspan></tspan></text>
 <text class="SVGTextShape"><tspan class="TextParagraph" font-family="Liberation Sans, sans-serif" font-size="353px" font-weight="400"><tspan class="TextPosition" x="12172" y="9720"><tspan fill="rgb(0,0,0)" stroke="none">700</tspan></tspan></tspan></text>
 <text class="SVGTextShape"><tspan class="TextParagraph" font-family="Liberation Sans, sans-serif" font-size="353px" font-weight="400"><tspan class="TextPosition" x="13157" y="9720"><tspan fill="rgb(0,0,0)" stroke="none">800</tspan></tspan></tspan></text>
 <text class="SVGTextShape"><tspan class="TextParagraph" font-family="Liberation Sans, sans-serif" font-size="353px" font-weight="400"><tspan class="TextPosition" x="14143" y="9720"><tspan fill="rgb(0,0,0)" stroke="none">900</tspan></tspan></tspan></text>
 <text class="SVGTextShape"><tspan class="TextParagraph" font-family="Liberation Sans, sans-serif" font-size="459px" font-weight="400"><tspan class="TextPosition" x="3187" y="871"><tspan fill="rgb(0,0,0)" stroke="none">Energiegebruik per persoon, per jaar (2014)</tspan></tspan></tspan></text>
</svg>