<?xml version="1.0" encoding="UTF-8" standalone="no"?>
<svg
   width="300mm"
   height="134.53085mm"
   viewBox="0 0 30000 13453.085"
   version="1.1"
   stroke-width="28.222"
   stroke-linejoin="round"
   xml:space="preserve"
   id="svg612"
   sodipodi:docname="meino smit - energie - volledig - inset.svg"
   inkscape:version="1.1.1 (3bf5ae0d25, 2021-09-20)"
   xmlns:inkscape="http://www.inkscape.org/namespaces/inkscape"
   xmlns:sodipodi="http://sodipodi.sourceforge.net/DTD/sodipodi-0.dtd"
   xmlns="http://www.w3.org/2000/svg"
   xmlns:svg="http://www.w3.org/2000/svg"><defs
   id="defs616"><linearGradient
     id="Gradient_4"
     gradientUnits="userSpaceOnUse"
     x1="3848"
     y1="230"
     x2="3848"
     y2="2753">
   <stop
   offset="0.3"
   stop-color="rgb(204,0,0)"
   id="stop1437" />
   <stop
   offset="1"
   stop-color="rgb(0,153,0)"
   id="stop1439" />
  </linearGradient></defs><sodipodi:namedview
   id="namedview614"
   pagecolor="#ffffff"
   bordercolor="#666666"
   borderopacity="1.0"
   inkscape:pageshadow="2"
   inkscape:pageopacity="0.0"
   inkscape:pagecheckerboard="0"
   inkscape:document-units="mm"
   showgrid="false"
   inkscape:zoom="1.0433403"
   inkscape:cx="378.1125"
   inkscape:cy="225.23812"
   inkscape:window-width="1876"
   inkscape:window-height="1051"
   inkscape:window-x="0"
   inkscape:window-y="0"
   inkscape:window-maximized="1"
   inkscape:current-layer="svg612" />
 <path
   fill="#ffffff"
   stroke="none"
   d="M 15000,13453.085 H 0 V 0 h 30000 v 13453.085 z"
   id="path2"
   style="stroke-width:26.7272" />
 <path
   fill="none"
   stroke="#b3b3b3"
   stroke-linejoin="round"
   d="M 13343,12506.085 H 2042 V 336.0854 H 24643 V 12506.085 Z"
   id="path4" />
 <path
   fill="none"
   stroke="#b3b3b3"
   stroke-linejoin="round"
   d="M 24643,12505.085 H 2042"
   id="path6" />
 <path
   fill="none"
   stroke="#b3b3b3"
   stroke-linejoin="round"
   d="M 24643,10476.085 H 2042"
   id="path8" />
 <path
   fill="none"
   stroke="#b3b3b3"
   stroke-linejoin="round"
   d="M 24643,8448.0854 H 2042"
   id="path10" />
 <path
   fill="none"
   stroke="#b3b3b3"
   stroke-linejoin="round"
   d="M 24643,6419.0854 H 2042"
   id="path12" />
 <path
   fill="none"
   stroke="#b3b3b3"
   stroke-linejoin="round"
   d="M 24643,4391.0854 H 2042"
   id="path14" />
 <path
   fill="none"
   stroke="#b3b3b3"
   stroke-linejoin="round"
   d="M 24643,2363.0854 H 2042"
   id="path16" />
 <path
   fill="none"
   stroke="#b3b3b3"
   stroke-linejoin="round"
   d="M 24643,334.0854 H 2042"
   id="path18" />
 <path
   fill="none"
   stroke="#b3b3b3"
   stroke-linejoin="round"
   d="M 2042,4391.0854 H 24643"
   id="path20" />
 <path
   fill="none"
   stroke="#b3b3b3"
   stroke-linejoin="round"
   d="m 1892,12505.085 h 150"
   id="path22" />
 <path
   fill="none"
   stroke="#b3b3b3"
   stroke-linejoin="round"
   d="m 1892,12505.085 h 150"
   id="path24" />
 <path
   fill="none"
   stroke="#b3b3b3"
   stroke-linejoin="round"
   d="m 1892,10476.085 h 150"
   id="path26" />
 <path
   fill="none"
   stroke="#b3b3b3"
   stroke-linejoin="round"
   d="m 1892,10476.085 h 150"
   id="path28" />
 <path
   fill="none"
   stroke="#b3b3b3"
   stroke-linejoin="round"
   d="m 1892,8448.0854 h 150"
   id="path30" />
 <path
   fill="none"
   stroke="#b3b3b3"
   stroke-linejoin="round"
   d="m 1892,8448.0854 h 150"
   id="path32" />
 <path
   fill="none"
   stroke="#b3b3b3"
   stroke-linejoin="round"
   d="m 1892,6419.0854 h 150"
   id="path34" />
 <path
   fill="none"
   stroke="#b3b3b3"
   stroke-linejoin="round"
   d="m 1892,6419.0854 h 150"
   id="path36" />
 <path
   fill="none"
   stroke="#b3b3b3"
   stroke-linejoin="round"
   d="m 1892,4391.0854 h 150"
   id="path38" />
 <path
   fill="none"
   stroke="#b3b3b3"
   stroke-linejoin="round"
   d="m 1892,4391.0854 h 150"
   id="path40" />
 <path
   fill="none"
   stroke="#b3b3b3"
   stroke-linejoin="round"
   d="m 1892,2363.0854 h 150"
   id="path42" />
 <path
   fill="none"
   stroke="#b3b3b3"
   stroke-linejoin="round"
   d="m 1892,2363.0854 h 150"
   id="path44" />
 <path
   fill="none"
   stroke="#b3b3b3"
   stroke-linejoin="round"
   d="m 1892,334.0854 h 150"
   id="path46" />
 <path
   fill="none"
   stroke="#b3b3b3"
   stroke-linejoin="round"
   d="m 1892,334.0854 h 150"
   id="path48" />
 <path
   fill="none"
   stroke="#b3b3b3"
   stroke-linejoin="round"
   d="M 2042,12505.085 V 334.0854"
   id="path50" />
 <path
   fill="#333333"
   stroke="none"
   d="m 23432,7141.0854 h 807 v -2750 h -807 z"
   id="path52" />
 <path
   fill="#333333"
   stroke="none"
   d="m 21817,6977.0854 h 807 v -2586 h -807 z"
   id="path54" />
 <path
   fill="#333333"
   stroke="none"
   d="m 20203,6805.0854 h 807 v -2414 h -807 z"
   id="path56" />
 <path
   fill="#333333"
   stroke="none"
   d="m 18588,6878.0854 h 808 v -2487 h -808 z"
   id="path58" />
 <path
   fill="#333333"
   stroke="none"
   d="m 16974,7082.0854 h 807 v -2691 h -807 z"
   id="path60" />
 <path
   fill="#333333"
   stroke="none"
   d="m 15360,6880.0854 h 807 v -2489 h -807 z"
   id="path62" />
 <path
   fill="#333333"
   stroke="none"
   d="m 13746,6732.0854 h 807 v -2341 h -807 z"
   id="path64" />
 <path
   fill="#333333"
   stroke="none"
   d="m 12132,6666.0854 h 807 v -2275 h -807 z"
   id="path66" />
 <path
   fill="#333333"
   stroke="none"
   d="m 10517,6680.0854 h 807 v -2289 h -807 z"
   id="path68" />
 <path
   fill="#333333"
   stroke="none"
   d="m 8903,6907.0854 h 807 v -2516 h -807 z"
   id="path70" />
 <path
   fill="#333333"
   stroke="none"
   d="m 7288,6293.0854 h 808 v -1902 h -808 z"
   id="path72" />
 <path
   fill="#333333"
   stroke="none"
   d="m 5674,5687.0854 h 807 v -1296 h -807 z"
   id="path74" />
 <path
   fill="#333333"
   stroke="none"
   d="m 4060,5252.0854 h 807 v -861 h -807 z"
   id="path76" />
 <path
   fill="#333333"
   stroke="none"
   d="m 2445,4947.0854 h 807 v -556 h -807 z"
   id="path78" />
 <path
   fill="#004586"
   stroke="none"
   d="m 23432,7415.0854 h 807 v -274 h -807 z"
   id="path80" />
 <path
   fill="#004586"
   stroke="none"
   d="m 21817,7238.0854 h 807 v -261 h -807 z"
   id="path82" />
 <path
   fill="#004586"
   stroke="none"
   d="m 12132,6902.0854 h 807 v -236 h -807 z"
   id="path84" />
 <path
   fill="#004586"
   stroke="none"
   d="m 2445,5046.0854 h 807 v -99 h -807 z"
   id="path86" />
 <path
   fill="#ff950e"
   stroke="none"
   d="m 23432,7858.0854 h 807 v -443 h -807 z"
   id="path88" />
 <path
   fill="#ff950e"
   stroke="none"
   d="m 21817,7581.0854 h 807 v -343 h -807 z"
   id="path90" />
 <path
   fill="#ff950e"
   stroke="none"
   d="m 12132,7052.0854 h 807 v -150 h -807 z"
   id="path92" />
 <path
   fill="#ff950e"
   stroke="none"
   d="m 2445,5085.0854 h 807 v -39 h -807 z"
   id="path94" />
 <path
   fill="#6600ff"
   stroke="none"
   d="m 23432,7901.0854 h 807 v -43 h -807 z"
   id="path96" />
 <path
   fill="#6600ff"
   stroke="none"
   d="m 21817,7633.0854 h 807 v -52 h -807 z"
   id="path98" />
 <path
   fill="#6600ff"
   stroke="none"
   d="m 12132,7078.0854 h 807 v -26 h -807 z"
   id="path100" />
 <path
   fill="#6600ff"
   stroke="none"
   d="m 2445,5089.0854 h 807 v -4 h -807 z"
   id="path102" />
 <path
   fill="#4b1f6f"
   stroke="none"
   d="m 23432,8297.0854 h 807 v -396 h -807 z"
   id="path104" />
 <path
   fill="#4b1f6f"
   stroke="none"
   d="m 21817,7958.0854 h 807 v -325 h -807 z"
   id="path106" />
 <path
   fill="#4b1f6f"
   stroke="none"
   d="m 12132,7165.0854 h 807 v -87 h -807 z"
   id="path108" />
 <path
   fill="#4b1f6f"
   stroke="none"
   d="m 2445,5092.0854 h 807 v -3 h -807 z"
   id="path110" />
 <path
   fill="#aecf00"
   stroke="none"
   d="m 23432,8617.0854 h 807 v -320 h -807 z"
   id="path112" />
 <path
   fill="#aecf00"
   stroke="none"
   d="m 21817,8237.0854 h 807 v -279 h -807 z"
   id="path114" />
 <path
   fill="#aecf00"
   stroke="none"
   d="m 12132,7266.0854 h 807 v -101 h -807 z"
   id="path116" />
 <path
   fill="#aecf00"
   stroke="none"
   d="m 2445,5098.0854 h 807 v -6 h -807 z"
   id="path118" />
 <path
   fill="#314004"
   stroke="none"
   d="m 23432,9724.0854 h 807 v -1107 h -807 z"
   id="path120" />
 <path
   fill="#314004"
   stroke="none"
   d="m 21817,9249.0854 h 807 v -1012 h -807 z"
   id="path122" />
 <path
   fill="#314004"
   stroke="none"
   d="m 12132,7983.0854 h 807 v -717 h -807 z"
   id="path124" />
 <path
   fill="#314004"
   stroke="none"
   d="m 2445,5128.0854 h 807 v -30 h -807 z"
   id="path126" />
 <path
   fill="#83caff"
   stroke="none"
   d="m 23432,10077.085 h 807 v -352.9996 h -807 z"
   id="path128" />
 <path
   fill="#83caff"
   stroke="none"
   d="m 21817,9459.0854 h 807 v -210 h -807 z"
   id="path130" />
 <path
   fill="#83caff"
   stroke="none"
   d="m 12132,8010.0854 h 807 v -27 h -807 z"
   id="path132" />
 <path
   fill="#83caff"
   stroke="none"
   d="m 2445,5132.0854 h 807 v -4 h -807 z"
   id="path134" />
 <path
   fill="#7e0021"
   stroke="none"
   d="m 23432,10302.085 h 807 v -225 h -807 z"
   id="path136" />
 <path
   fill="#7e0021"
   stroke="none"
   d="m 21817,9664.0854 h 807 v -205 h -807 z"
   id="path138" />
 <path
   fill="#7e0021"
   stroke="none"
   d="m 12132,8612.0854 h 807 v -602 h -807 z"
   id="path140" />
 <path
   fill="#7e0021"
   stroke="none"
   d="m 2445,5453.0854 h 807 v -321 h -807 z"
   id="path142" />
 <path
   fill="#579d1c"
   stroke="none"
   d="m 23432,10356.085 h 807 v -54 h -807 z"
   id="path144" />
 <path
   fill="#579d1c"
   stroke="none"
   d="m 21817,9716.0854 h 807 v -52 h -807 z"
   id="path146" />
 <path
   fill="#579d1c"
   stroke="none"
   d="m 12132,8705.0854 h 807 v -93 h -807 z"
   id="path148" />
 <path
   fill="#579d1c"
   stroke="none"
   d="m 2445,5478.0854 h 807 v -25 h -807 z"
   id="path150" />
 <path
   fill="#ffd320"
   stroke="none"
   d="m 23432,10563.085 h 807 v -207 h -807 z"
   id="path152" />
 <path
   fill="#ffd320"
   stroke="none"
   d="m 21817,9879.0854 h 807 v -163 h -807 z"
   id="path154" />
 <path
   fill="#ffd320"
   stroke="none"
   d="m 12132,8739.0854 h 807 v -34 h -807 z"
   id="path156" />
 <path
   fill="#ffd320"
   stroke="none"
   d="m 2445,4391.0854 h 807 v 0 z"
   id="path158" />
 <path
   fill="#ff420e"
   stroke="none"
   d="m 23432,10577.085 h 807 v -14 h -807 z"
   id="path160" />
 <path
   fill="#ff420e"
   stroke="none"
   d="m 21817,9897.0854 h 807 v -18 h -807 z"
   id="path162" />
 <path
   fill="#ff420e"
   stroke="none"
   d="m 12132,8747.0854 h 807 v -8 h -807 z"
   id="path164" />
 <path
   fill="#ff420e"
   stroke="none"
   d="m 2445,5483.0854 h 807 v -5 h -807 z"
   id="path166" />
 <path
   fill="#000099"
   stroke="none"
   d="m 20203,9563.0854 h 807 v -2758 h -807 z"
   id="path168" />
 <path
   fill="#000099"
   stroke="none"
   d="m 18588,9561.0854 h 808 v -2683 h -808 z"
   id="path170" />
 <path
   fill="#000099"
   stroke="none"
   d="m 16974,10034.085 h 807 V 7082.0854 h -807 z"
   id="path172" />
 <path
   fill="#000099"
   stroke="none"
   d="m 15360,9705.0854 h 807 v -2825 h -807 z"
   id="path174" />
 <path
   fill="#000099"
   stroke="none"
   d="m 13746,9181.0854 h 807 v -2449 h -807 z"
   id="path176" />
 <path
   fill="#000099"
   stroke="none"
   d="m 10517,8480.0854 h 807 v -1800 h -807 z"
   id="path178" />
 <path
   fill="#000099"
   stroke="none"
   d="m 8903,8438.0854 h 807 v -1531 h -807 z"
   id="path180" />
 <path
   fill="#000099"
   stroke="none"
   d="m 7288,7373.0854 h 808 v -1080 h -808 z"
   id="path182" />
 <path
   fill="#000099"
   stroke="none"
   d="m 5674,6503.0854 h 807 v -816 h -807 z"
   id="path184" />
 <path
   fill="#000099"
   stroke="none"
   d="m 4060,5945.0854 h 807 v -693 h -807 z"
   id="path186" />
 <path
   fill="#00cccc"
   stroke="none"
   d="m 23432,4391.0854 h 807 v -1313 h -807 z"
   id="path188" />
 <path
   fill="#00cccc"
   stroke="none"
   d="m 21817,4391.0854 h 807 v -1465 h -807 z"
   id="path190" />
 <path
   fill="#00cccc"
   stroke="none"
   d="m 12132,4391.0854 h 807 v -1224 h -807 z"
   id="path192" />
 <path
   fill="#00cccc"
   stroke="none"
   d="m 2445,4391.0854 h 807 v -920 h -807 z"
   id="path194" />
 <path
   fill="#6600ff"
   stroke="none"
   d="m 23432,3078.0854 h 807 v -1305 h -807 z"
   id="path196" />
 <path
   fill="#6600ff"
   stroke="none"
   d="m 21817,2926.0854 h 807 v -1125 h -807 z"
   id="path198" />
 <path
   fill="#6600ff"
   stroke="none"
   d="m 12132,3167.0854 h 807 v -1023 h -807 z"
   id="path200" />
 <path
   fill="#6600ff"
   stroke="none"
   d="m 2445,3471.0854 h 807 v -358 h -807 z"
   id="path202" />
 <path
   fill="#66ff00"
   stroke="none"
   d="m 23432,1773.0854 h 807 v -86 h -807 z"
   id="path204" />
 <path
   fill="#66ff00"
   stroke="none"
   d="m 21817,1801.0854 h 807 v -78 h -807 z"
   id="path206" />
 <path
   fill="#66ff00"
   stroke="none"
   d="m 12132,2144.0854 h 807 v -40 h -807 z"
   id="path208" />
 <path
   fill="#66ff00"
   stroke="none"
   d="m 2445,3113.0854 h 807 v -17 h -807 z"
   id="path210" />
 <path
   fill="#ff0000"
   stroke="none"
   d="m 23432,1687.0854 h 807 v -32 h -807 z"
   id="path212" />
 <path
   fill="#ff0000"
   stroke="none"
   d="m 21817,1723.0854 h 807 v -28 h -807 z"
   id="path214" />
 <path
   fill="#ff0000"
   stroke="none"
   d="m 12132,2104.0854 h 807 v -27 h -807 z"
   id="path216" />
 <path
   fill="#ff0000"
   stroke="none"
   d="m 2445,3096.0854 h 807 v -22 h -807 z"
   id="path218" />
 <path
   fill="#007826"
   stroke="none"
   d="m 20203,4391.0854 h 807 v -2492 h -807 z"
   id="path220" />
 <path
   fill="#007826"
   stroke="none"
   d="m 18588,4391.0854 h 808 v -2708 h -808 z"
   id="path222" />
 <path
   fill="#007826"
   stroke="none"
   d="m 16974,4391.0854 h 807 v -2573 h -807 z"
   id="path224" />
 <path
   fill="#007826"
   stroke="none"
   d="m 15360,4391.0854 h 807 v -2643 h -807 z"
   id="path226" />
 <path
   fill="#007826"
   stroke="none"
   d="m 13746,4391.0854 h 807 v -2502 h -807 z"
   id="path228" />
 <path
   fill="#007826"
   stroke="none"
   d="m 10517,4391.0854 h 807 v -1995 h -807 z"
   id="path230" />
 <path
   fill="#007826"
   stroke="none"
   d="m 8903,4391.0854 h 807 v -1865 h -807 z"
   id="path232" />
 <path
   fill="#007826"
   stroke="none"
   d="m 7288,4391.0854 h 808 v -1586 h -808 z"
   id="path234" />
 <path
   fill="#007826"
   stroke="none"
   d="m 5674,4391.0854 h 807 v -1671 h -807 z"
   id="path236" />
 <path
   fill="#007826"
   stroke="none"
   d="m 4060,4391.0854 h 807 v -1434 h -807 z"
   id="path238" />
 <path
   fill="none"
   stroke="#cc0000"
   stroke-width="100"
   stroke-linejoin="round"
   d="m 2849,4166.0854 1614,345 1615,322 1614,954 1614,786 1615,-88 1614,-53 1615,246 1613,384 1615,399 1614,-608 1614,217 1615,130 1614,641"
   id="path240" />
 <path
   fill="none"
   stroke="#007826"
   stroke-width="80"
   stroke-linejoin="round"
   d="m 2849,3074.0854 1614,-117 1615,-237 1614,85 1614,-279 1615,-130 1614,-319 1615,-188 1613,-141 1615,70 1614,-135 1614,216 1615,-204 1614,-40"
   id="path242" />
 <path
   fill="none"
   stroke="#000099"
   stroke-width="80"
   stroke-linejoin="round"
   d="m 2849,5483.0854 1614,462 1615,558 1614,870 1614,1065 1615,42 1614,267 1615,434 1613,524 1615,328.9996 1614,-472.9996 1614,2 1615,334 1614,679.9996"
   id="path244" />
 <text
   class="SVGTextShape"
   id="text252"
   y="-1546.9146"><tspan
     class="TextParagraph"
     font-family="'Liberation Sans', sans-serif"
     font-size="353px"
     font-weight="400"
     id="tspan250"><tspan
       class="TextPosition"
       x="2478"
       y="13073.085"
       id="tspan248"><tspan
         fill="#000000"
         stroke="none"
         id="tspan246">1950</tspan></tspan></tspan></text>
 <text
   class="SVGTextShape"
   id="text260"
   y="-1546.9146"><tspan
     class="TextParagraph"
     font-family="'Liberation Sans', sans-serif"
     font-size="353px"
     font-weight="400"
     id="tspan258"><tspan
       class="TextPosition"
       x="4092"
       y="13073.085"
       id="tspan256"><tspan
         fill="#000000"
         stroke="none"
         id="tspan254">1955</tspan></tspan></tspan></text>
 <text
   class="SVGTextShape"
   id="text268"
   y="-1546.9146"><tspan
     class="TextParagraph"
     font-family="'Liberation Sans', sans-serif"
     font-size="353px"
     font-weight="400"
     id="tspan266"><tspan
       class="TextPosition"
       x="5707"
       y="13073.085"
       id="tspan264"><tspan
         fill="#000000"
         stroke="none"
         id="tspan262">1960</tspan></tspan></tspan></text>
 <text
   class="SVGTextShape"
   id="text276"
   y="-1546.9146"><tspan
     class="TextParagraph"
     font-family="'Liberation Sans', sans-serif"
     font-size="353px"
     font-weight="400"
     id="tspan274"><tspan
       class="TextPosition"
       x="7321"
       y="13073.085"
       id="tspan272"><tspan
         fill="#000000"
         stroke="none"
         id="tspan270">1965</tspan></tspan></tspan></text>
 <text
   class="SVGTextShape"
   id="text284"
   y="-1546.9146"><tspan
     class="TextParagraph"
     font-family="'Liberation Sans', sans-serif"
     font-size="353px"
     font-weight="400"
     id="tspan282"><tspan
       class="TextPosition"
       x="8935"
       y="13073.085"
       id="tspan280"><tspan
         fill="#000000"
         stroke="none"
         id="tspan278">1970</tspan></tspan></tspan></text>
 <text
   class="SVGTextShape"
   id="text292"
   y="-1546.9146"><tspan
     class="TextParagraph"
     font-family="'Liberation Sans', sans-serif"
     font-size="353px"
     font-weight="400"
     id="tspan290"><tspan
       class="TextPosition"
       x="10550"
       y="13073.085"
       id="tspan288"><tspan
         fill="#000000"
         stroke="none"
         id="tspan286">1975</tspan></tspan></tspan></text>
 <text
   class="SVGTextShape"
   id="text300"
   y="-1546.9146"><tspan
     class="TextParagraph"
     font-family="'Liberation Sans', sans-serif"
     font-size="353px"
     font-weight="400"
     id="tspan298"><tspan
       class="TextPosition"
       x="12164"
       y="13073.085"
       id="tspan296"><tspan
         fill="#000000"
         stroke="none"
         id="tspan294">1980</tspan></tspan></tspan></text>
 <text
   class="SVGTextShape"
   id="text308"
   y="-1546.9146"><tspan
     class="TextParagraph"
     font-family="'Liberation Sans', sans-serif"
     font-size="353px"
     font-weight="400"
     id="tspan306"><tspan
       class="TextPosition"
       x="13779"
       y="13073.085"
       id="tspan304"><tspan
         fill="#000000"
         stroke="none"
         id="tspan302">1985</tspan></tspan></tspan></text>
 <text
   class="SVGTextShape"
   id="text316"
   y="-1546.9146"><tspan
     class="TextParagraph"
     font-family="'Liberation Sans', sans-serif"
     font-size="353px"
     font-weight="400"
     id="tspan314"><tspan
       class="TextPosition"
       x="15393"
       y="13073.085"
       id="tspan312"><tspan
         fill="#000000"
         stroke="none"
         id="tspan310">1990</tspan></tspan></tspan></text>
 <text
   class="SVGTextShape"
   id="text324"
   y="-1546.9146"><tspan
     class="TextParagraph"
     font-family="'Liberation Sans', sans-serif"
     font-size="353px"
     font-weight="400"
     id="tspan322"><tspan
       class="TextPosition"
       x="17008"
       y="13073.085"
       id="tspan320"><tspan
         fill="#000000"
         stroke="none"
         id="tspan318">1995</tspan></tspan></tspan></text>
 <text
   class="SVGTextShape"
   id="text332"
   y="-1546.9146"><tspan
     class="TextParagraph"
     font-family="'Liberation Sans', sans-serif"
     font-size="353px"
     font-weight="400"
     id="tspan330"><tspan
       class="TextPosition"
       x="18622"
       y="13073.085"
       id="tspan328"><tspan
         fill="#000000"
         stroke="none"
         id="tspan326">2000</tspan></tspan></tspan></text>
 <text
   class="SVGTextShape"
   id="text340"
   y="-1546.9146"><tspan
     class="TextParagraph"
     font-family="'Liberation Sans', sans-serif"
     font-size="353px"
     font-weight="400"
     id="tspan338"><tspan
       class="TextPosition"
       x="20236"
       y="13073.085"
       id="tspan336"><tspan
         fill="#000000"
         stroke="none"
         id="tspan334">2005</tspan></tspan></tspan></text>
 <text
   class="SVGTextShape"
   id="text348"
   y="-1546.9146"><tspan
     class="TextParagraph"
     font-family="'Liberation Sans', sans-serif"
     font-size="353px"
     font-weight="400"
     id="tspan346"><tspan
       class="TextPosition"
       x="21851"
       y="13073.085"
       id="tspan344"><tspan
         fill="#000000"
         stroke="none"
         id="tspan342">2010</tspan></tspan></tspan></text>
 <text
   class="SVGTextShape"
   id="text356"
   y="-1546.9146"><tspan
     class="TextParagraph"
     font-family="'Liberation Sans', sans-serif"
     font-size="353px"
     font-weight="400"
     id="tspan354"><tspan
       class="TextPosition"
       x="23465"
       y="13073.085"
       id="tspan352"><tspan
         fill="#000000"
         stroke="none"
         id="tspan350">2015</tspan></tspan></tspan></text>
 <text
   class="SVGTextShape"
   id="text364"
   y="-1546.9146"><tspan
     class="TextParagraph"
     font-family="'Liberation Sans', sans-serif"
     font-size="353px"
     font-weight="400"
     id="tspan362"><tspan
       class="TextPosition"
       x="601"
       y="12626.085"
       id="tspan360"><tspan
         fill="#000000"
         stroke="none"
         id="tspan358">-400 PJ</tspan></tspan></tspan></text>
 <text
   class="SVGTextShape"
   id="text372"
   y="-1546.9146"><tspan
     class="TextParagraph"
     font-family="'Liberation Sans', sans-serif"
     font-size="353px"
     font-weight="400"
     id="tspan370"><tspan
       class="TextPosition"
       x="601"
       y="10597.085"
       id="tspan368"><tspan
         fill="#000000"
         stroke="none"
         id="tspan366">-300 PJ</tspan></tspan></tspan></text>
 <text
   class="SVGTextShape"
   id="text380"
   y="-1546.9146"><tspan
     class="TextParagraph"
     font-family="'Liberation Sans', sans-serif"
     font-size="353px"
     font-weight="400"
     id="tspan378"><tspan
       class="TextPosition"
       x="601"
       y="8569.085"
       id="tspan376"><tspan
         fill="#000000"
         stroke="none"
         id="tspan374">-200 PJ</tspan></tspan></tspan></text>
 <text
   class="SVGTextShape"
   id="text388"
   y="-1546.9146"><tspan
     class="TextParagraph"
     font-family="'Liberation Sans', sans-serif"
     font-size="353px"
     font-weight="400"
     id="tspan386"><tspan
       class="TextPosition"
       x="601"
       y="6540.0854"
       id="tspan384"><tspan
         fill="#000000"
         stroke="none"
         id="tspan382">-100 PJ</tspan></tspan></tspan></text>
 <text
   class="SVGTextShape"
   id="text396"
   y="-1546.9146"><tspan
     class="TextParagraph"
     font-family="'Liberation Sans', sans-serif"
     font-size="353px"
     font-weight="400"
     id="tspan394"><tspan
       class="TextPosition"
       x="1078"
       y="4511.0854"
       id="tspan392"><tspan
         fill="#000000"
         stroke="none"
         id="tspan390">0 PJ</tspan></tspan></tspan></text>
 <text
   class="SVGTextShape"
   id="text404"
   y="-1546.9146"><tspan
     class="TextParagraph"
     font-family="'Liberation Sans', sans-serif"
     font-size="353px"
     font-weight="400"
     id="tspan402"><tspan
       class="TextPosition"
       x="707"
       y="2483.0854"
       id="tspan400"><tspan
         fill="#000000"
         stroke="none"
         id="tspan398">100 PJ</tspan></tspan></tspan></text>
 <text
   class="SVGTextShape"
   id="text412"
   y="-1546.9146"><tspan
     class="TextParagraph"
     font-family="'Liberation Sans', sans-serif"
     font-size="353px"
     font-weight="400"
     id="tspan410"><tspan
       class="TextPosition"
       x="707"
       y="454.08539"
       id="tspan408"><tspan
         fill="#000000"
         stroke="none"
         id="tspan406">200 PJ</tspan></tspan></tspan></text>
 
 <path
   fill="#333333"
   stroke="none"
   d="m 25759,10041.085 h -400 v -210.9996 h 800 v 210.9996 z"
   id="path422" />
 <path
   fill="#004586"
   stroke="none"
   d="m 25759,9543.0854 h -400 v -211 h 800 v 211 z"
   id="path424" />
 <path
   fill="#ff950e"
   stroke="none"
   d="m 25759,9045.0854 h -400 v -211 h 800 v 211 z"
   id="path426" />
 <path
   fill="#6600ff"
   stroke="none"
   d="m 25759,8547.0854 h -400 v -211 h 800 v 211 z"
   id="path428" />
 <path
   fill="#4b1f6f"
   stroke="none"
   d="m 25759,8049.0854 h -400 v -211 h 800 v 211 z"
   id="path430" />
 <path
   fill="#aecf00"
   stroke="none"
   d="m 25759,7551.0854 h -400 v -211 h 800 v 211 z"
   id="path432" />
 <path
   fill="#314004"
   stroke="none"
   d="m 25759,7053.0854 h -400 v -211 h 800 v 211 z"
   id="path434" />
 <path
   fill="#83caff"
   stroke="none"
   d="m 25759,6555.0854 h -400 v -211 h 800 v 211 z"
   id="path436" />
 <path
   fill="#7e0021"
   stroke="none"
   d="m 25759,6057.0854 h -400 v -210 h 800 v 210 z"
   id="path438" />
 <path
   fill="#579d1c"
   stroke="none"
   d="m 25759,5560.0854 h -400 v -211 h 800 v 211 z"
   id="path440" />
 <path
   fill="#ffd320"
   stroke="none"
   d="m 25759,5062.0854 h -400 v -211 h 800 v 211 z"
   id="path442" />
 <path
   fill="#ff420e"
   stroke="none"
   d="m 25759,4564.0854 h -400 v -211 h 800 v 211 z"
   id="path444" />
 <path
   fill="#000099"
   stroke="none"
   d="m 25759,4066.0854 h -400 v -211 h 800 v 211 z"
   id="path446" />
 <path
   fill="#00cccc"
   stroke="none"
   d="m 25759,3568.0854 h -400 v -211 h 800 v 211 z"
   id="path448" />
 <path
   fill="#6600ff"
   stroke="none"
   d="m 25759,3070.0854 h -400 v -211 h 800 v 211 z"
   id="path450" />
 <path
   fill="#66ff00"
   stroke="none"
   d="m 25759,2572.0854 h -400 v -211 h 800 v 211 z"
   id="path452" />
 <path
   fill="#ff0000"
   stroke="none"
   d="m 25759,2074.0854 h -400 v -211 h 800 v 211 z"
   id="path454" />
 <path
   fill="#007826"
   stroke="none"
   d="m 25759,1576.0854 h -400 v -211 h 800 v 211 z"
   id="path456" />
 <path
   fill="none"
   stroke="#cc0000"
   stroke-width="100"
   stroke-linejoin="round"
   d="m 25359,10433.085 h 800"
   id="path458" />
 <text
   class="SVGTextShape"
   id="text466"
   y="-1546.9146"><tspan
     class="TextParagraph"
     font-family="'Liberation Sans', sans-serif"
     font-size="353px"
     font-weight="400"
     id="tspan464"><tspan
       class="TextPosition"
       x="26259"
       y="1590.0854"
       id="tspan462"><tspan
         fill="#000000"
         stroke="none"
         id="tspan460">output </tspan></tspan></tspan></text>
 <text
   class="SVGTextShape"
   id="text474"
   y="-1546.9146"><tspan
     class="TextParagraph"
     font-family="'Liberation Sans', sans-serif"
     font-size="353px"
     font-weight="400"
     id="tspan472"><tspan
       class="TextPosition"
       x="26259"
       y="2088.0854"
       id="tspan470"><tspan
         fill="#000000"
         stroke="none"
         id="tspan468">fruit</tspan></tspan></tspan></text>
 <text
   class="SVGTextShape"
   id="text482"
   y="-1546.9146"><tspan
     class="TextParagraph"
     font-family="'Liberation Sans', sans-serif"
     font-size="353px"
     font-weight="400"
     id="tspan480"><tspan
       class="TextPosition"
       x="26259"
       y="2586.0854"
       id="tspan478"><tspan
         fill="#000000"
         stroke="none"
         id="tspan476">groenten</tspan></tspan></tspan></text>
 <text
   class="SVGTextShape"
   id="text490"
   y="-1546.9146"><tspan
     class="TextParagraph"
     font-family="'Liberation Sans', sans-serif"
     font-size="353px"
     font-weight="400"
     id="tspan488"><tspan
       class="TextPosition"
       x="26259"
       y="3084.0854"
       id="tspan486"><tspan
         fill="#000000"
         stroke="none"
         id="tspan484">veehouderij</tspan></tspan></tspan></text>
 <text
   class="SVGTextShape"
   id="text498"
   y="-1546.9146"><tspan
     class="TextParagraph"
     font-family="'Liberation Sans', sans-serif"
     font-size="353px"
     font-weight="400"
     id="tspan496"><tspan
       class="TextPosition"
       x="26259"
       y="3582.0854"
       id="tspan494"><tspan
         fill="#000000"
         stroke="none"
         id="tspan492">akkerbouw</tspan></tspan></tspan></text>
 <text
   class="SVGTextShape"
   id="text506"
   y="-1546.9146"><tspan
     class="TextParagraph"
     font-family="'Liberation Sans', sans-serif"
     font-size="353px"
     font-weight="400"
     id="tspan504"><tspan
       class="TextPosition"
       x="26259"
       y="4080.0854"
       id="tspan502"><tspan
         fill="#000000"
         stroke="none"
         id="tspan500">indirecte input</tspan></tspan></tspan></text>
 <text
   class="SVGTextShape"
   id="text514"
   y="-1546.9146"><tspan
     class="TextParagraph"
     font-family="'Liberation Sans', sans-serif"
     font-size="353px"
     font-weight="400"
     id="tspan512"><tspan
       class="TextPosition"
       x="26259"
       y="4578.0854"
       id="tspan510"><tspan
         fill="#000000"
         stroke="none"
         id="tspan508">dienstensector </tspan></tspan></tspan></text>
 <text
   class="SVGTextShape"
   id="text522"
   y="-1546.9146"><tspan
     class="TextParagraph"
     font-family="'Liberation Sans', sans-serif"
     font-size="353px"
     font-weight="400"
     id="tspan520"><tspan
       class="TextPosition"
       x="26259"
       y="5076.0854"
       id="tspan518"><tspan
         fill="#000000"
         stroke="none"
         id="tspan516">elektronica </tspan></tspan></tspan></text>
 <text
   class="SVGTextShape"
   id="text530"
   y="-1546.9146"><tspan
     class="TextParagraph"
     font-family="'Liberation Sans', sans-serif"
     font-size="353px"
     font-weight="400"
     id="tspan528"><tspan
       class="TextPosition"
       x="26259"
       y="5574.0854"
       id="tspan526"><tspan
         fill="#000000"
         stroke="none"
         id="tspan524">bestrijdingsmiddelen </tspan></tspan></tspan></text>
 <text
   class="SVGTextShape"
   id="text538"
   y="-1546.9146"><tspan
     class="TextParagraph"
     font-family="'Liberation Sans', sans-serif"
     font-size="353px"
     font-weight="400"
     id="tspan536"><tspan
       class="TextPosition"
       x="26259"
       y="6071.0854"
       id="tspan534"><tspan
         fill="#000000"
         stroke="none"
         id="tspan532">kunstmest </tspan></tspan></tspan></text>
 <text
   class="SVGTextShape"
   id="text546"
   y="-1546.9146"><tspan
     class="TextParagraph"
     font-family="'Liberation Sans', sans-serif"
     font-size="353px"
     font-weight="400"
     id="tspan544"><tspan
       class="TextPosition"
       x="26259"
       y="6569.0854"
       id="tspan542"><tspan
         fill="#000000"
         stroke="none"
         id="tspan540">dierlijke mest </tspan></tspan></tspan></text>
 <text
   class="SVGTextShape"
   id="text554"
   y="-1546.9146"><tspan
     class="TextParagraph"
     font-family="'Liberation Sans', sans-serif"
     font-size="353px"
     font-weight="400"
     id="tspan552"><tspan
       class="TextPosition"
       x="26259"
       y="7067.0854"
       id="tspan550"><tspan
         fill="#000000"
         stroke="none"
         id="tspan548">veevoer </tspan></tspan></tspan></text>
 <text
   class="SVGTextShape"
   id="text562"
   y="-1546.9146"><tspan
     class="TextParagraph"
     font-family="'Liberation Sans', sans-serif"
     font-size="353px"
     font-weight="400"
     id="tspan560"><tspan
       class="TextPosition"
       x="26259"
       y="7565.0854"
       id="tspan558"><tspan
         fill="#000000"
         stroke="none"
         id="tspan556">trekkers en machines </tspan></tspan></tspan></text>
 <text
   class="SVGTextShape"
   id="text570"
   y="-1546.9146"><tspan
     class="TextParagraph"
     font-family="'Liberation Sans', sans-serif"
     font-size="353px"
     font-weight="400"
     id="tspan568"><tspan
       class="TextPosition"
       x="26259"
       y="8063.0854"
       id="tspan566"><tspan
         fill="#000000"
         stroke="none"
         id="tspan564">overige gebouwen </tspan></tspan></tspan></text>
 <text
   class="SVGTextShape"
   id="text578"
   y="-1546.9146"><tspan
     class="TextParagraph"
     font-family="'Liberation Sans', sans-serif"
     font-size="353px"
     font-weight="400"
     id="tspan576"><tspan
       class="TextPosition"
       x="26259"
       y="8561.085"
       id="tspan574"><tspan
         fill="#000000"
         stroke="none"
         id="tspan572">kassen </tspan></tspan></tspan></text>
 <text
   class="SVGTextShape"
   id="text586"
   y="-1546.9146"><tspan
     class="TextParagraph"
     font-family="'Liberation Sans', sans-serif"
     font-size="353px"
     font-weight="400"
     id="tspan584"><tspan
       class="TextPosition"
       x="26259"
       y="9059.085"
       id="tspan582"><tspan
         fill="#000000"
         stroke="none"
         id="tspan580">mijnbouw </tspan></tspan></tspan></text>
 <text
   class="SVGTextShape"
   id="text594"
   y="-1546.9146"><tspan
     class="TextParagraph"
     font-family="'Liberation Sans', sans-serif"
     font-size="353px"
     font-weight="400"
     id="tspan592"><tspan
       class="TextPosition"
       x="26259"
       y="9557.085"
       id="tspan590"><tspan
         fill="#000000"
         stroke="none"
         id="tspan588">transport en infrastr. </tspan></tspan></tspan></text>
 <text
   class="SVGTextShape"
   id="text602"
   y="-1546.9146"><tspan
     class="TextParagraph"
     font-family="'Liberation Sans', sans-serif"
     font-size="353px"
     font-weight="400"
     id="tspan600"><tspan
       class="TextPosition"
       x="26259"
       y="10055.085"
       id="tspan598"><tspan
         fill="#000000"
         stroke="none"
         id="tspan596">directe input</tspan></tspan></tspan></text>
 <text
   class="SVGTextShape"
   id="text610"
   y="-1546.9146"><tspan
     class="TextParagraph"
     font-family="'Liberation Sans', sans-serif"
     font-size="353px"
     font-weight="400"
     id="tspan608"><tspan
       class="TextPosition"
       x="26259"
       y="10553.085"
       id="tspan606"><tspan
         fill="#000000"
         stroke="none"
         id="tspan604">netto energiebalans</tspan></tspan></tspan></text>
<g
   style="stroke-width:28.222;stroke-linejoin:round"
   id="g1732"
   transform="translate(2042,8872.0854)"><path
     fill="#ffffff"
     stroke="none"
     d="M 3667,3634 H 0 V 0 h 7334 v 3634 z"
     id="path1433" /><path
     fill="none"
     stroke="#000000"
     stroke-linejoin="round"
     d="M 3667,3634 H 0 V 0 h 7334 v 3634 z"
     id="path1435" /><path
     fill="url(#Gradient_4)"
     stroke="#b3b3b3"
     stroke-linejoin="round"
     d="M 3848,2753 H 604 V 230 h 6488 v 2523 z"
     id="path1444"
     style="fill:url(#Gradient_4)" /><path
     fill="none"
     stroke="#b3b3b3"
     stroke-linejoin="round"
     d="M 7092,2752 H 604"
     id="path1446" /><path
     fill="none"
     stroke="#b3b3b3"
     stroke-linejoin="round"
     d="M 7092,2031 H 604"
     id="path1448" /><path
     fill="none"
     stroke="#b3b3b3"
     stroke-linejoin="round"
     d="M 7092,1309 H 604"
     id="path1450" /><path
     fill="none"
     stroke="#b3b3b3"
     stroke-linejoin="round"
     d="M 7092,589 H 604"
     id="path1452" /><path
     fill="none"
     stroke="#b3b3b3"
     stroke-linejoin="round"
     d="M 604,2901 V 2752"
     id="path1454" /><path
     fill="none"
     stroke="#b3b3b3"
     stroke-linejoin="round"
     d="M 604,2901 V 2752"
     id="path1456" /><path
     fill="none"
     stroke="#b3b3b3"
     stroke-linejoin="round"
     d="M 1103,2901 V 2752"
     id="path1458" /><path
     fill="none"
     stroke="#b3b3b3"
     stroke-linejoin="round"
     d="M 1103,2901 V 2752"
     id="path1460" /><path
     fill="none"
     stroke="#b3b3b3"
     stroke-linejoin="round"
     d="M 1602,2901 V 2752"
     id="path1462" /><path
     fill="none"
     stroke="#b3b3b3"
     stroke-linejoin="round"
     d="M 1602,2901 V 2752"
     id="path1464" /><path
     fill="none"
     stroke="#b3b3b3"
     stroke-linejoin="round"
     d="M 2101,2901 V 2752"
     id="path1466" /><path
     fill="none"
     stroke="#b3b3b3"
     stroke-linejoin="round"
     d="M 2101,2901 V 2752"
     id="path1468" /><path
     fill="none"
     stroke="#b3b3b3"
     stroke-linejoin="round"
     d="M 2600,2901 V 2752"
     id="path1470" /><path
     fill="none"
     stroke="#b3b3b3"
     stroke-linejoin="round"
     d="M 2600,2901 V 2752"
     id="path1472" /><path
     fill="none"
     stroke="#b3b3b3"
     stroke-linejoin="round"
     d="M 3099,2901 V 2752"
     id="path1474" /><path
     fill="none"
     stroke="#b3b3b3"
     stroke-linejoin="round"
     d="M 3099,2901 V 2752"
     id="path1476" /><path
     fill="none"
     stroke="#b3b3b3"
     stroke-linejoin="round"
     d="M 3598,2901 V 2752"
     id="path1478" /><path
     fill="none"
     stroke="#b3b3b3"
     stroke-linejoin="round"
     d="M 3598,2901 V 2752"
     id="path1480" /><path
     fill="none"
     stroke="#b3b3b3"
     stroke-linejoin="round"
     d="M 4097,2901 V 2752"
     id="path1482" /><path
     fill="none"
     stroke="#b3b3b3"
     stroke-linejoin="round"
     d="M 4097,2901 V 2752"
     id="path1484" /><path
     fill="none"
     stroke="#b3b3b3"
     stroke-linejoin="round"
     d="M 4596,2901 V 2752"
     id="path1486" /><path
     fill="none"
     stroke="#b3b3b3"
     stroke-linejoin="round"
     d="M 4596,2901 V 2752"
     id="path1488" /><path
     fill="none"
     stroke="#b3b3b3"
     stroke-linejoin="round"
     d="M 5095,2901 V 2752"
     id="path1490" /><path
     fill="none"
     stroke="#b3b3b3"
     stroke-linejoin="round"
     d="M 5095,2901 V 2752"
     id="path1492" /><path
     fill="none"
     stroke="#b3b3b3"
     stroke-linejoin="round"
     d="M 5594,2901 V 2752"
     id="path1494" /><path
     fill="none"
     stroke="#b3b3b3"
     stroke-linejoin="round"
     d="M 5594,2901 V 2752"
     id="path1496" /><path
     fill="none"
     stroke="#b3b3b3"
     stroke-linejoin="round"
     d="M 6093,2901 V 2752"
     id="path1498" /><path
     fill="none"
     stroke="#b3b3b3"
     stroke-linejoin="round"
     d="M 6093,2901 V 2752"
     id="path1500" /><path
     fill="none"
     stroke="#b3b3b3"
     stroke-linejoin="round"
     d="M 6592,2901 V 2752"
     id="path1502" /><path
     fill="none"
     stroke="#b3b3b3"
     stroke-linejoin="round"
     d="M 6592,2901 V 2752"
     id="path1504" /><path
     fill="none"
     stroke="#b3b3b3"
     stroke-linejoin="round"
     d="M 7092,2901 V 2752"
     id="path1506" /><path
     fill="none"
     stroke="#b3b3b3"
     stroke-linejoin="round"
     d="M 7092,2901 V 2752"
     id="path1508" /><path
     fill="none"
     stroke="#b3b3b3"
     stroke-linejoin="round"
     d="M 604,2752 H 7092"
     id="path1510" /><path
     fill="none"
     stroke="#b3b3b3"
     stroke-linejoin="round"
     d="M 454,2752 H 604"
     id="path1512" /><path
     fill="none"
     stroke="#b3b3b3"
     stroke-linejoin="round"
     d="M 454,2752 H 604"
     id="path1514" /><path
     fill="none"
     stroke="#b3b3b3"
     stroke-linejoin="round"
     d="M 454,2031 H 604"
     id="path1516" /><path
     fill="none"
     stroke="#b3b3b3"
     stroke-linejoin="round"
     d="M 454,2031 H 604"
     id="path1518" /><path
     fill="none"
     stroke="#b3b3b3"
     stroke-linejoin="round"
     d="M 454,1309 H 604"
     id="path1520" /><path
     fill="none"
     stroke="#b3b3b3"
     stroke-linejoin="round"
     d="M 454,1309 H 604"
     id="path1522" /><path
     fill="none"
     stroke="#b3b3b3"
     stroke-linejoin="round"
     d="M 454,589 H 604"
     id="path1524" /><path
     fill="none"
     stroke="#b3b3b3"
     stroke-linejoin="round"
     d="M 454,589 H 604"
     id="path1526" /><path
     fill="none"
     stroke="#b3b3b3"
     stroke-linejoin="round"
     d="M 604,2752 V 228"
     id="path1528" /><path
     fill="none"
     stroke="#ffd320"
     stroke-width="80"
     stroke-linejoin="round"
     d="m 604,2154 499,-183 499,-131 499,-443 499,-209 499,87 499,120 499,-23 499,-69 499,-132 499,205 499,-120 499,24 500,-158"
     id="path1530" /><path
     fill="#ffd320"
     stroke="none"
     d="m 479,2030 125,248 125,-248 z"
     id="path1532" /><path
     fill="none"
     stroke="#ffd320"
     stroke-linejoin="round"
     d="m 479,2030 125,248 125,-248 z"
     id="path1534" /><path
     fill="#ffd320"
     stroke="none"
     d="m 978,1847 125,248 125,-248 z"
     id="path1536" /><path
     fill="none"
     stroke="#ffd320"
     stroke-linejoin="round"
     d="m 978,1847 125,248 125,-248 z"
     id="path1538" /><path
     fill="#ffd320"
     stroke="none"
     d="m 1477,1716 125,248 125,-248 z"
     id="path1540" /><path
     fill="none"
     stroke="#ffd320"
     stroke-linejoin="round"
     d="m 1477,1716 125,248 125,-248 z"
     id="path1542" /><path
     fill="#ffd320"
     stroke="none"
     d="m 1976,1273 125,247 125,-247 z"
     id="path1544" /><path
     fill="none"
     stroke="#ffd320"
     stroke-linejoin="round"
     d="m 1976,1273 125,247 125,-247 z"
     id="path1546" /><path
     fill="#ffd320"
     stroke="none"
     d="m 2475,1064 125,247 125,-247 z"
     id="path1548" /><path
     fill="none"
     stroke="#ffd320"
     stroke-linejoin="round"
     d="m 2475,1064 125,247 125,-247 z"
     id="path1550" /><path
     fill="#ffd320"
     stroke="none"
     d="m 2974,1151 125,248 125,-248 z"
     id="path1552" /><path
     fill="none"
     stroke="#ffd320"
     stroke-linejoin="round"
     d="m 2974,1151 125,248 125,-248 z"
     id="path1554" /><path
     fill="#ffd320"
     stroke="none"
     d="m 3473,1271 125,247 124,-247 z"
     id="path1556" /><path
     fill="none"
     stroke="#ffd320"
     stroke-linejoin="round"
     d="m 3473,1271 125,247 124,-247 z"
     id="path1558" /><path
     fill="#ffd320"
     stroke="none"
     d="m 3972,1248 125,248 125,-248 z"
     id="path1560" /><path
     fill="none"
     stroke="#ffd320"
     stroke-linejoin="round"
     d="m 3972,1248 125,248 125,-248 z"
     id="path1562" /><path
     fill="#ffd320"
     stroke="none"
     d="m 4471,1179 125,247 125,-247 z"
     id="path1564" /><path
     fill="none"
     stroke="#ffd320"
     stroke-linejoin="round"
     d="m 4471,1179 125,247 125,-247 z"
     id="path1566" /><path
     fill="#ffd320"
     stroke="none"
     d="m 4970,1047 125,248 125,-248 z"
     id="path1568" /><path
     fill="none"
     stroke="#ffd320"
     stroke-linejoin="round"
     d="m 4970,1047 125,248 125,-248 z"
     id="path1570" /><path
     fill="#ffd320"
     stroke="none"
     d="m 5469,1252 125,248 125,-248 z"
     id="path1572" /><path
     fill="none"
     stroke="#ffd320"
     stroke-linejoin="round"
     d="m 5469,1252 125,248 125,-248 z"
     id="path1574" /><path
     fill="#ffd320"
     stroke="none"
     d="m 5968,1132 125,248 125,-248 z"
     id="path1576" /><path
     fill="none"
     stroke="#ffd320"
     stroke-linejoin="round"
     d="m 5968,1132 125,248 125,-248 z"
     id="path1578" /><path
     fill="#ffd320"
     stroke="none"
     d="m 6467,1156 125,248 125,-248 z"
     id="path1580" /><path
     fill="none"
     stroke="#ffd320"
     stroke-linejoin="round"
     d="m 6467,1156 125,248 125,-248 z"
     id="path1582" /><path
     fill="#ffd320"
     stroke="none"
     d="m 6967,999 125,247 125,-247 z"
     id="path1584" /><path
     fill="none"
     stroke="#ffd320"
     stroke-linejoin="round"
     d="m 6967,999 125,247 125,-247 z"
     id="path1586" /><text
     class="SVGTextShape"
     id="text1594"><tspan
       class="TextParagraph"
       font-family="'Liberation Sans', sans-serif"
       font-size="279px"
       font-weight="400"
       id="tspan1592"><tspan
         class="TextPosition"
         x="195"
         y="2858"
         id="tspan1590"><tspan
           fill="#000000"
           stroke="none"
           id="tspan1588">0</tspan></tspan></tspan></text><text
     class="SVGTextShape"
     id="text1602"><tspan
       class="TextParagraph"
       font-family="'Liberation Sans', sans-serif"
       font-size="279px"
       font-weight="400"
       id="tspan1600"><tspan
         class="TextPosition"
         x="195"
         y="2137"
         id="tspan1598"><tspan
           fill="#000000"
           stroke="none"
           id="tspan1596">1</tspan></tspan></tspan></text><text
     class="SVGTextShape"
     id="text1610"><tspan
       class="TextParagraph"
       font-family="'Liberation Sans', sans-serif"
       font-size="279px"
       font-weight="400"
       id="tspan1608"><tspan
         class="TextPosition"
         x="195"
         y="1415"
         id="tspan1606"><tspan
           fill="#000000"
           stroke="none"
           id="tspan1604">2</tspan></tspan></tspan></text><text
     class="SVGTextShape"
     id="text1618"><tspan
       class="TextParagraph"
       font-family="'Liberation Sans', sans-serif"
       font-size="279px"
       font-weight="400"
       id="tspan1616"><tspan
         class="TextPosition"
         x="195"
         y="694"
         id="tspan1614"><tspan
           fill="#000000"
           stroke="none"
           id="tspan1612">3</tspan></tspan></tspan></text><path
     fill="#ffffff"
     fill-opacity="0.698"
     stroke="#ffffff"
     stroke-opacity="0.698"
     d="M 1674,952 H 709 V 348 h 1929 v 604 z"
     id="path1620" /><text
     class="SVGTextShape"
     id="text1628"><tspan
       class="TextParagraph"
       font-family="'Liberation Sans', sans-serif"
       font-size="350px"
       font-weight="400"
       id="tspan1626"><tspan
         class="TextPosition"
         x="774"
         y="768"
         id="tspan1624"><tspan
           fill="#000000"
           stroke="none"
           id="tspan1622">input/output</tspan></tspan></tspan></text></g></svg>
