<?xml version="1.0" encoding="UTF-8"?>
<!DOCTYPE svg PUBLIC "-//W3C//DTD SVG 1.1//EN" "http://www.w3.org/Graphics/SVG/1.1/DTD/svg11.dtd">
<svg width="86mm" height="47mm" viewBox="0 0 8600 4700" version="1.1" xmlns="http://www.w3.org/2000/svg" xmlns:xlink="http://www.w3.org/1999/xlink" stroke-width="28.222" stroke-linejoin="round" xml:space="preserve">
 <path fill="rgb(255,255,255)" stroke="none" d="M 4276,4701 L 0,4701 0,0 8552,0 8552,4701 4276,4701 Z"/>
 <path fill="none" stroke="rgb(0,0,0)" stroke-linejoin="round" d="M 4276,4701 L 0,4701 0,0 8552,0 8552,4701 4276,4701 Z"/>
 <defs>
  <linearGradient id="Gradient_1" gradientUnits="userSpaceOnUse" x1="4493" y1="228" x2="4493" y2="3678">
   <stop offset="0.3" stop-color="rgb(204,0,0)"/>
   <stop offset="1" stop-color="rgb(0,153,0)"/>
  </linearGradient>
 </defs>
 <path fill="url(#Gradient_1)" stroke="rgb(179,179,179)" stroke-linejoin="round" d="M 4493,3678 L 738,3678 738,228 8248,228 8248,3678 4493,3678 Z"/>
 <path fill="none" stroke="rgb(179,179,179)" stroke-linejoin="round" d="M 8248,3677 L 738,3677"/>
 <path fill="none" stroke="rgb(179,179,179)" stroke-linejoin="round" d="M 8248,2691 L 738,2691"/>
 <path fill="none" stroke="rgb(179,179,179)" stroke-linejoin="round" d="M 8248,1705 L 738,1705"/>
 <path fill="none" stroke="rgb(179,179,179)" stroke-linejoin="round" d="M 8248,719 L 738,719"/>
 <path fill="none" stroke="rgb(179,179,179)" stroke-linejoin="round" d="M 738,3827 L 738,3677"/>
 <path fill="none" stroke="rgb(179,179,179)" stroke-linejoin="round" d="M 738,3827 L 738,3677"/>
 <path fill="none" stroke="rgb(179,179,179)" stroke-linejoin="round" d="M 1315,3827 L 1315,3677"/>
 <path fill="none" stroke="rgb(179,179,179)" stroke-linejoin="round" d="M 1315,3827 L 1315,3677"/>
 <path fill="none" stroke="rgb(179,179,179)" stroke-linejoin="round" d="M 1893,3827 L 1893,3677"/>
 <path fill="none" stroke="rgb(179,179,179)" stroke-linejoin="round" d="M 1893,3827 L 1893,3677"/>
 <path fill="none" stroke="rgb(179,179,179)" stroke-linejoin="round" d="M 2471,3827 L 2471,3677"/>
 <path fill="none" stroke="rgb(179,179,179)" stroke-linejoin="round" d="M 2471,3827 L 2471,3677"/>
 <path fill="none" stroke="rgb(179,179,179)" stroke-linejoin="round" d="M 3049,3827 L 3049,3677"/>
 <path fill="none" stroke="rgb(179,179,179)" stroke-linejoin="round" d="M 3049,3827 L 3049,3677"/>
 <path fill="none" stroke="rgb(179,179,179)" stroke-linejoin="round" d="M 3626,3827 L 3626,3677"/>
 <path fill="none" stroke="rgb(179,179,179)" stroke-linejoin="round" d="M 3626,3827 L 3626,3677"/>
 <path fill="none" stroke="rgb(179,179,179)" stroke-linejoin="round" d="M 4204,3827 L 4204,3677"/>
 <path fill="none" stroke="rgb(179,179,179)" stroke-linejoin="round" d="M 4204,3827 L 4204,3677"/>
 <path fill="none" stroke="rgb(179,179,179)" stroke-linejoin="round" d="M 4781,3827 L 4781,3677"/>
 <path fill="none" stroke="rgb(179,179,179)" stroke-linejoin="round" d="M 4781,3827 L 4781,3677"/>
 <path fill="none" stroke="rgb(179,179,179)" stroke-linejoin="round" d="M 5359,3827 L 5359,3677"/>
 <path fill="none" stroke="rgb(179,179,179)" stroke-linejoin="round" d="M 5359,3827 L 5359,3677"/>
 <path fill="none" stroke="rgb(179,179,179)" stroke-linejoin="round" d="M 5936,3827 L 5936,3677"/>
 <path fill="none" stroke="rgb(179,179,179)" stroke-linejoin="round" d="M 5936,3827 L 5936,3677"/>
 <path fill="none" stroke="rgb(179,179,179)" stroke-linejoin="round" d="M 6514,3827 L 6514,3677"/>
 <path fill="none" stroke="rgb(179,179,179)" stroke-linejoin="round" d="M 6514,3827 L 6514,3677"/>
 <path fill="none" stroke="rgb(179,179,179)" stroke-linejoin="round" d="M 7092,3827 L 7092,3677"/>
 <path fill="none" stroke="rgb(179,179,179)" stroke-linejoin="round" d="M 7092,3827 L 7092,3677"/>
 <path fill="none" stroke="rgb(179,179,179)" stroke-linejoin="round" d="M 7670,3827 L 7670,3677"/>
 <path fill="none" stroke="rgb(179,179,179)" stroke-linejoin="round" d="M 7670,3827 L 7670,3677"/>
 <path fill="none" stroke="rgb(179,179,179)" stroke-linejoin="round" d="M 8248,3827 L 8248,3677"/>
 <path fill="none" stroke="rgb(179,179,179)" stroke-linejoin="round" d="M 8248,3827 L 8248,3677"/>
 <path fill="none" stroke="rgb(179,179,179)" stroke-linejoin="round" d="M 738,3677 L 8248,3677"/>
 <path fill="none" stroke="rgb(179,179,179)" stroke-linejoin="round" d="M 588,3677 L 738,3677"/>
 <path fill="none" stroke="rgb(179,179,179)" stroke-linejoin="round" d="M 588,3677 L 738,3677"/>
 <path fill="none" stroke="rgb(179,179,179)" stroke-linejoin="round" d="M 588,2691 L 738,2691"/>
 <path fill="none" stroke="rgb(179,179,179)" stroke-linejoin="round" d="M 588,2691 L 738,2691"/>
 <path fill="none" stroke="rgb(179,179,179)" stroke-linejoin="round" d="M 588,1705 L 738,1705"/>
 <path fill="none" stroke="rgb(179,179,179)" stroke-linejoin="round" d="M 588,1705 L 738,1705"/>
 <path fill="none" stroke="rgb(179,179,179)" stroke-linejoin="round" d="M 588,720 L 738,720"/>
 <path fill="none" stroke="rgb(179,179,179)" stroke-linejoin="round" d="M 588,720 L 738,720"/>
 <path fill="none" stroke="rgb(179,179,179)" stroke-linejoin="round" d="M 738,3677 L 738,226"/>
 <path fill="none" stroke="rgb(255,211,32)" stroke-width="80" stroke-linejoin="round" d="M 738,3514 L 1315,3305 1893,3246 2471,3090 3049,2899 3626,2812 4204,2828 4781,2655 5359,2644 5936,2646 6514,2665 7092,2477 7670,2309 8248,2035"/>
 <path fill="rgb(255,211,32)" stroke="none" d="M 613,3389 L 738,3639 863,3389 613,3389 Z"/>
 <path fill="none" stroke="rgb(255,211,32)" stroke-linejoin="round" d="M 613,3389 L 738,3639 863,3389 613,3389 Z"/>
 <path fill="rgb(255,211,32)" stroke="none" d="M 1190,3180 L 1315,3430 1440,3180 1190,3180 Z"/>
 <path fill="none" stroke="rgb(255,211,32)" stroke-linejoin="round" d="M 1190,3180 L 1315,3430 1440,3180 1190,3180 Z"/>
 <path fill="rgb(255,211,32)" stroke="none" d="M 1768,3121 L 1893,3371 2018,3121 1768,3121 Z"/>
 <path fill="none" stroke="rgb(255,211,32)" stroke-linejoin="round" d="M 1768,3121 L 1893,3371 2018,3121 1768,3121 Z"/>
 <path fill="rgb(255,211,32)" stroke="none" d="M 2346,2965 L 2471,3215 2596,2965 2346,2965 Z"/>
 <path fill="none" stroke="rgb(255,211,32)" stroke-linejoin="round" d="M 2346,2965 L 2471,3215 2596,2965 2346,2965 Z"/>
 <path fill="rgb(255,211,32)" stroke="none" d="M 2924,2774 L 3049,3024 3174,2774 2924,2774 Z"/>
 <path fill="none" stroke="rgb(255,211,32)" stroke-linejoin="round" d="M 2924,2774 L 3049,3024 3174,2774 2924,2774 Z"/>
 <path fill="rgb(255,211,32)" stroke="none" d="M 3501,2687 L 3626,2937 3751,2687 3501,2687 Z"/>
 <path fill="none" stroke="rgb(255,211,32)" stroke-linejoin="round" d="M 3501,2687 L 3626,2937 3751,2687 3501,2687 Z"/>
 <path fill="rgb(255,211,32)" stroke="none" d="M 4079,2703 L 4204,2953 4328,2703 4079,2703 Z"/>
 <path fill="none" stroke="rgb(255,211,32)" stroke-linejoin="round" d="M 4079,2703 L 4204,2953 4328,2703 4079,2703 Z"/>
 <path fill="rgb(255,211,32)" stroke="none" d="M 4656,2530 L 4781,2780 4906,2530 4656,2530 Z"/>
 <path fill="none" stroke="rgb(255,211,32)" stroke-linejoin="round" d="M 4656,2530 L 4781,2780 4906,2530 4656,2530 Z"/>
 <path fill="rgb(255,211,32)" stroke="none" d="M 5234,2519 L 5359,2769 5484,2519 5234,2519 Z"/>
 <path fill="none" stroke="rgb(255,211,32)" stroke-linejoin="round" d="M 5234,2519 L 5359,2769 5484,2519 5234,2519 Z"/>
 <path fill="rgb(255,211,32)" stroke="none" d="M 5811,2521 L 5936,2771 6061,2521 5811,2521 Z"/>
 <path fill="none" stroke="rgb(255,211,32)" stroke-linejoin="round" d="M 5811,2521 L 5936,2771 6061,2521 5811,2521 Z"/>
 <path fill="rgb(255,211,32)" stroke="none" d="M 6389,2540 L 6514,2790 6639,2540 6389,2540 Z"/>
 <path fill="none" stroke="rgb(255,211,32)" stroke-linejoin="round" d="M 6389,2540 L 6514,2790 6639,2540 6389,2540 Z"/>
 <path fill="rgb(255,211,32)" stroke="none" d="M 6967,2352 L 7092,2602 7217,2352 6967,2352 Z"/>
 <path fill="none" stroke="rgb(255,211,32)" stroke-linejoin="round" d="M 6967,2352 L 7092,2602 7217,2352 6967,2352 Z"/>
 <path fill="rgb(255,211,32)" stroke="none" d="M 7545,2184 L 7670,2433 7795,2184 7545,2184 Z"/>
 <path fill="none" stroke="rgb(255,211,32)" stroke-linejoin="round" d="M 7545,2184 L 7670,2433 7795,2184 7545,2184 Z"/>
 <path fill="rgb(255,211,32)" stroke="none" d="M 8123,1910 L 8248,2160 8373,1910 8123,1910 Z"/>
 <path fill="none" stroke="rgb(255,211,32)" stroke-linejoin="round" d="M 8123,1910 L 8248,2160 8373,1910 8123,1910 Z"/>
 <text class="SVGTextShape" transform="rotate(-44.9 363 4564)"><tspan class="TextParagraph" font-family="Liberation Sans, sans-serif" font-size="282px" font-weight="400"><tspan class="TextPosition" x="363" y="4564"><tspan fill="rgb(0,0,0)" stroke="none">1950</tspan></tspan></tspan></text>
 <text class="SVGTextShape" transform="rotate(-44.9 940 4564)"><tspan class="TextParagraph" font-family="Liberation Sans, sans-serif" font-size="282px" font-weight="400"><tspan class="TextPosition" x="940" y="4564"><tspan fill="rgb(0,0,0)" stroke="none">1955</tspan></tspan></tspan></text>
 <text class="SVGTextShape" transform="rotate(-44.9 1518 4564)"><tspan class="TextParagraph" font-family="Liberation Sans, sans-serif" font-size="282px" font-weight="400"><tspan class="TextPosition" x="1518" y="4564"><tspan fill="rgb(0,0,0)" stroke="none">1960</tspan></tspan></tspan></text>
 <text class="SVGTextShape" transform="rotate(-44.9 2096 4564)"><tspan class="TextParagraph" font-family="Liberation Sans, sans-serif" font-size="282px" font-weight="400"><tspan class="TextPosition" x="2096" y="4564"><tspan fill="rgb(0,0,0)" stroke="none">1965</tspan></tspan></tspan></text>
 <text class="SVGTextShape" transform="rotate(-44.9 2674 4564)"><tspan class="TextParagraph" font-family="Liberation Sans, sans-serif" font-size="282px" font-weight="400"><tspan class="TextPosition" x="2674" y="4564"><tspan fill="rgb(0,0,0)" stroke="none">1970</tspan></tspan></tspan></text>
 <text class="SVGTextShape" transform="rotate(-44.9 3250 4564)"><tspan class="TextParagraph" font-family="Liberation Sans, sans-serif" font-size="282px" font-weight="400"><tspan class="TextPosition" x="3250" y="4564"><tspan fill="rgb(0,0,0)" stroke="none">1975</tspan></tspan></tspan></text>
 <text class="SVGTextShape" transform="rotate(-44.9 3828 4564)"><tspan class="TextParagraph" font-family="Liberation Sans, sans-serif" font-size="282px" font-weight="400"><tspan class="TextPosition" x="3828" y="4564"><tspan fill="rgb(0,0,0)" stroke="none">1980</tspan></tspan></tspan></text>
 <text class="SVGTextShape" transform="rotate(-44.9 4406 4564)"><tspan class="TextParagraph" font-family="Liberation Sans, sans-serif" font-size="282px" font-weight="400"><tspan class="TextPosition" x="4406" y="4564"><tspan fill="rgb(0,0,0)" stroke="none">1985</tspan></tspan></tspan></text>
 <text class="SVGTextShape" transform="rotate(-44.9 4984 4564)"><tspan class="TextParagraph" font-family="Liberation Sans, sans-serif" font-size="282px" font-weight="400"><tspan class="TextPosition" x="4984" y="4564"><tspan fill="rgb(0,0,0)" stroke="none">1990</tspan></tspan></tspan></text>
 <text class="SVGTextShape" transform="rotate(-44.9 5561 4564)"><tspan class="TextParagraph" font-family="Liberation Sans, sans-serif" font-size="282px" font-weight="400"><tspan class="TextPosition" x="5561" y="4564"><tspan fill="rgb(0,0,0)" stroke="none">1995</tspan></tspan></tspan></text>
 <text class="SVGTextShape" transform="rotate(-44.9 6139 4564)"><tspan class="TextParagraph" font-family="Liberation Sans, sans-serif" font-size="282px" font-weight="400"><tspan class="TextPosition" x="6139" y="4564"><tspan fill="rgb(0,0,0)" stroke="none">2000</tspan></tspan></tspan></text>
 <text class="SVGTextShape" transform="rotate(-44.9 6717 4564)"><tspan class="TextParagraph" font-family="Liberation Sans, sans-serif" font-size="282px" font-weight="400"><tspan class="TextPosition" x="6717" y="4564"><tspan fill="rgb(0,0,0)" stroke="none">2005</tspan></tspan></tspan></text>
 <text class="SVGTextShape" transform="rotate(-44.9 7295 4564)"><tspan class="TextParagraph" font-family="Liberation Sans, sans-serif" font-size="282px" font-weight="400"><tspan class="TextPosition" x="7295" y="4564"><tspan fill="rgb(0,0,0)" stroke="none">2010</tspan></tspan></tspan></text>
 <text class="SVGTextShape" transform="rotate(-44.9 7872 4564)"><tspan class="TextParagraph" font-family="Liberation Sans, sans-serif" font-size="282px" font-weight="400"><tspan class="TextPosition" x="7872" y="4564"><tspan fill="rgb(0,0,0)" stroke="none">2015</tspan></tspan></tspan></text>
 <text class="SVGTextShape"><tspan class="TextParagraph" font-family="Liberation Sans, sans-serif" font-size="282px" font-weight="400"><tspan class="TextPosition" x="329" y="3783"><tspan fill="rgb(0,0,0)" stroke="none">0</tspan></tspan></tspan></text>
 <text class="SVGTextShape"><tspan class="TextParagraph" font-family="Liberation Sans, sans-serif" font-size="282px" font-weight="400"><tspan class="TextPosition" x="329" y="2798"><tspan fill="rgb(0,0,0)" stroke="none">1</tspan></tspan></tspan></text>
 <text class="SVGTextShape"><tspan class="TextParagraph" font-family="Liberation Sans, sans-serif" font-size="282px" font-weight="400"><tspan class="TextPosition" x="329" y="1811"><tspan fill="rgb(0,0,0)" stroke="none">2</tspan></tspan></tspan></text>
 <text class="SVGTextShape"><tspan class="TextParagraph" font-family="Liberation Sans, sans-serif" font-size="282px" font-weight="400"><tspan class="TextPosition" x="329" y="827"><tspan fill="rgb(0,0,0)" stroke="none">3</tspan></tspan></tspan></text>
 <path fill="rgb(255,255,255)" fill-opacity="0.698" stroke="rgb(255,255,255)" stroke-opacity="0.698" d="M 2068,983 L 971,983 971,373 3165,373 3165,983 2068,983 Z"/>
 <text class="SVGTextShape"><tspan class="TextParagraph" font-family="Liberation Sans, sans-serif" font-size="353px" font-weight="400"><tspan class="TextPosition" x="1036" y="798"><tspan fill="rgb(0,0,0)" stroke="none">indirect/direct</tspan></tspan></tspan></text>
</svg>