<?xml version="1.0" encoding="UTF-8" standalone="no"?>
<svg
   width="120mm"
   height="50.05917mm"
   viewBox="0 0 12000 5005.917"
   version="1.1"
   stroke-width="28.222"
   stroke-linejoin="round"
   xml:space="preserve"
   id="svg420"
   sodipodi:docname="meino smit - energie - output - sectoren geschaald.svg"
   inkscape:version="1.1.1 (3bf5ae0d25, 2021-09-20)"
   xmlns:inkscape="http://www.inkscape.org/namespaces/inkscape"
   xmlns:sodipodi="http://sodipodi.sourceforge.net/DTD/sodipodi-0.dtd"
   xmlns="http://www.w3.org/2000/svg"
   xmlns:svg="http://www.w3.org/2000/svg"><defs
   id="defs424" /><sodipodi:namedview
   id="namedview422"
   pagecolor="#ffffff"
   bordercolor="#666666"
   borderopacity="1.0"
   inkscape:pageshadow="2"
   inkscape:pageopacity="0.0"
   inkscape:pagecheckerboard="0"
   inkscape:document-units="mm"
   showgrid="false"
   inkscape:zoom="2.6083507"
   inkscape:cx="151.245"
   inkscape:cy="75.910038"
   inkscape:window-width="1920"
   inkscape:window-height="1015"
   inkscape:window-x="0"
   inkscape:window-y="0"
   inkscape:window-maximized="1"
   inkscape:current-layer="svg420" />
 <path
   fill="#ffffff"
   stroke="none"
   d="M 6000,5005.9171 H 0 V 0 h 12000 v 5005.9171 z"
   id="path2"
   style="stroke-width:25.7783" />
 <path
   fill="none"
   stroke="#b3b3b3"
   stroke-linejoin="round"
   d="M 4514,4238.9171 H 1364 V 359.91715 H 7663 V 4238.9171 Z"
   id="path4" />
 <path
   fill="none"
   stroke="#b3b3b3"
   stroke-linejoin="round"
   d="M 7663,4237.9171 H 1364"
   id="path6" />
 <path
   fill="none"
   stroke="#b3b3b3"
   stroke-linejoin="round"
   d="M 7663,3752.9172 H 1364"
   id="path8" />
 <path
   fill="none"
   stroke="#b3b3b3"
   stroke-linejoin="round"
   d="M 7663,3267.9172 H 1364"
   id="path10" />
 <path
   fill="none"
   stroke="#b3b3b3"
   stroke-linejoin="round"
   d="M 7663,2782.9172 H 1364"
   id="path12" />
 <path
   fill="none"
   stroke="#b3b3b3"
   stroke-linejoin="round"
   d="M 7663,2297.9172 H 1364"
   id="path14" />
 <path
   fill="none"
   stroke="#b3b3b3"
   stroke-linejoin="round"
   d="M 7663,1813.9172 H 1364"
   id="path16" />
 <path
   fill="none"
   stroke="#b3b3b3"
   stroke-linejoin="round"
   d="M 7663,1328.9172 H 1364"
   id="path18" />
 <path
   fill="none"
   stroke="#b3b3b3"
   stroke-linejoin="round"
   d="M 7663,843.91715 H 1364"
   id="path20" />
 <path
   fill="none"
   stroke="#b3b3b3"
   stroke-linejoin="round"
   d="M 7663,358.91715 H 1364"
   id="path22" />
 <path
   fill="none"
   stroke="#b3b3b3"
   stroke-linejoin="round"
   d="m 1364,4387.9171 v -150"
   id="path24" />
 <path
   fill="none"
   stroke="#b3b3b3"
   stroke-linejoin="round"
   d="m 1364,4387.9171 v -150"
   id="path26" />
 <path
   fill="none"
   stroke="#b3b3b3"
   stroke-linejoin="round"
   d="m 2151,4387.9171 v -150"
   id="path28" />
 <path
   fill="none"
   stroke="#b3b3b3"
   stroke-linejoin="round"
   d="m 2151,4387.9171 v -150"
   id="path30" />
 <path
   fill="none"
   stroke="#b3b3b3"
   stroke-linejoin="round"
   d="m 2939,4387.9171 v -150"
   id="path32" />
 <path
   fill="none"
   stroke="#b3b3b3"
   stroke-linejoin="round"
   d="m 2939,4387.9171 v -150"
   id="path34" />
 <path
   fill="none"
   stroke="#b3b3b3"
   stroke-linejoin="round"
   d="m 3726,4387.9171 v -150"
   id="path36" />
 <path
   fill="none"
   stroke="#b3b3b3"
   stroke-linejoin="round"
   d="m 3726,4387.9171 v -150"
   id="path38" />
 <path
   fill="none"
   stroke="#b3b3b3"
   stroke-linejoin="round"
   d="m 4514,4387.9171 v -150"
   id="path40" />
 <path
   fill="none"
   stroke="#b3b3b3"
   stroke-linejoin="round"
   d="m 4514,4387.9171 v -150"
   id="path42" />
 <path
   fill="none"
   stroke="#b3b3b3"
   stroke-linejoin="round"
   d="m 5301,4387.9171 v -150"
   id="path44" />
 <path
   fill="none"
   stroke="#b3b3b3"
   stroke-linejoin="round"
   d="m 5301,4387.9171 v -150"
   id="path46" />
 <path
   fill="none"
   stroke="#b3b3b3"
   stroke-linejoin="round"
   d="m 6088,4387.9171 v -150"
   id="path48" />
 <path
   fill="none"
   stroke="#b3b3b3"
   stroke-linejoin="round"
   d="m 6088,4387.9171 v -150"
   id="path50" />
 <path
   fill="none"
   stroke="#b3b3b3"
   stroke-linejoin="round"
   d="m 6875,4387.9171 v -150"
   id="path52" />
 <path
   fill="none"
   stroke="#b3b3b3"
   stroke-linejoin="round"
   d="m 6875,4387.9171 v -150"
   id="path54" />
 <path
   fill="none"
   stroke="#b3b3b3"
   stroke-linejoin="round"
   d="m 7663,4387.9171 v -150"
   id="path56" />
 <path
   fill="none"
   stroke="#b3b3b3"
   stroke-linejoin="round"
   d="m 7663,4387.9171 v -150"
   id="path58" />
 <path
   fill="none"
   stroke="#b3b3b3"
   stroke-linejoin="round"
   d="M 1364,4237.9171 H 7663"
   id="path60" />
 <path
   fill="none"
   stroke="#b3b3b3"
   stroke-linejoin="round"
   d="m 1214,4237.9171 h 150"
   id="path62" />
 <path
   fill="none"
   stroke="#b3b3b3"
   stroke-linejoin="round"
   d="m 1214,4237.9171 h 150"
   id="path64" />
 <path
   fill="none"
   stroke="#b3b3b3"
   stroke-linejoin="round"
   d="m 1214,3752.9172 h 150"
   id="path66" />
 <path
   fill="none"
   stroke="#b3b3b3"
   stroke-linejoin="round"
   d="m 1214,3752.9172 h 150"
   id="path68" />
 <path
   fill="none"
   stroke="#b3b3b3"
   stroke-linejoin="round"
   d="m 1214,3267.9172 h 150"
   id="path70" />
 <path
   fill="none"
   stroke="#b3b3b3"
   stroke-linejoin="round"
   d="m 1214,3267.9172 h 150"
   id="path72" />
 <path
   fill="none"
   stroke="#b3b3b3"
   stroke-linejoin="round"
   d="m 1214,2782.9172 h 150"
   id="path74" />
 <path
   fill="none"
   stroke="#b3b3b3"
   stroke-linejoin="round"
   d="m 1214,2782.9172 h 150"
   id="path76" />
 <path
   fill="none"
   stroke="#b3b3b3"
   stroke-linejoin="round"
   d="m 1214,2297.9172 h 150"
   id="path78" />
 <path
   fill="none"
   stroke="#b3b3b3"
   stroke-linejoin="round"
   d="m 1214,2297.9172 h 150"
   id="path80" />
 <path
   fill="none"
   stroke="#b3b3b3"
   stroke-linejoin="round"
   d="m 1214,1813.9172 h 150"
   id="path82" />
 <path
   fill="none"
   stroke="#b3b3b3"
   stroke-linejoin="round"
   d="m 1214,1813.9172 h 150"
   id="path84" />
 <path
   fill="none"
   stroke="#b3b3b3"
   stroke-linejoin="round"
   d="m 1214,1328.9172 h 150"
   id="path86" />
 <path
   fill="none"
   stroke="#b3b3b3"
   stroke-linejoin="round"
   d="m 1214,1328.9172 h 150"
   id="path88" />
 <path
   fill="none"
   stroke="#b3b3b3"
   stroke-linejoin="round"
   d="m 1214,843.91715 h 150"
   id="path90" />
 <path
   fill="none"
   stroke="#b3b3b3"
   stroke-linejoin="round"
   d="m 1214,843.91715 h 150"
   id="path92" />
 <path
   fill="none"
   stroke="#b3b3b3"
   stroke-linejoin="round"
   d="m 1214,358.91715 h 150"
   id="path94" />
 <path
   fill="none"
   stroke="#b3b3b3"
   stroke-linejoin="round"
   d="m 1214,358.91715 h 150"
   id="path96" />
 <path
   fill="none"
   stroke="#b3b3b3"
   stroke-linejoin="round"
   d="M 1364,4237.9171 V 358.91715"
   id="path98" />
 <path
   fill="none"
   stroke="#579d1c"
   stroke-width="80"
   stroke-linejoin="round"
   d="m 2151,3267.9172 394,-87 394,-175 393,63 394,-206 394,-95 394,-235 393,-138 394,-104 394,51 393,-99 393,159 394,-151 394,-29"
   id="path100" />
 <path
   fill="#579d1c"
   stroke="none"
   d="m 2026,3392.9172 h 250 l -125,-250 z"
   id="path102" />
 <path
   fill="none"
   stroke="#579d1c"
   stroke-linejoin="round"
   d="m 2026,3392.9172 h 250 l -125,-250 z"
   id="path104" />
 <path
   fill="#579d1c"
   stroke="none"
   d="m 2420,3305.9172 h 250 l -125,-250 z"
   id="path106" />
 <path
   fill="none"
   stroke="#579d1c"
   stroke-linejoin="round"
   d="m 2420,3305.9172 h 250 l -125,-250 z"
   id="path108" />
 <path
   fill="#579d1c"
   stroke="none"
   d="m 2814,3130.9172 h 250 l -125,-250 z"
   id="path110" />
 <path
   fill="none"
   stroke="#579d1c"
   stroke-linejoin="round"
   d="m 2814,3130.9172 h 250 l -125,-250 z"
   id="path112" />
 <path
   fill="#579d1c"
   stroke="none"
   d="m 3207,3193.9172 h 250 l -125,-250 z"
   id="path114" />
 <path
   fill="none"
   stroke="#579d1c"
   stroke-linejoin="round"
   d="m 3207,3193.9172 h 250 l -125,-250 z"
   id="path116" />
 <path
   fill="#579d1c"
   stroke="none"
   d="m 3601,2987.9172 h 250 l -125,-250 z"
   id="path118" />
 <path
   fill="none"
   stroke="#579d1c"
   stroke-linejoin="round"
   d="m 3601,2987.9172 h 250 l -125,-250 z"
   id="path120" />
 <path
   fill="#579d1c"
   stroke="none"
   d="m 3995,2892.9172 h 250 l -125,-250 z"
   id="path122" />
 <path
   fill="none"
   stroke="#579d1c"
   stroke-linejoin="round"
   d="m 3995,2892.9172 h 250 l -125,-250 z"
   id="path124" />
 <path
   fill="#579d1c"
   stroke="none"
   d="m 4389,2657.9172 h 250 l -125,-250 z"
   id="path126" />
 <path
   fill="none"
   stroke="#579d1c"
   stroke-linejoin="round"
   d="m 4389,2657.9172 h 250 l -125,-250 z"
   id="path128" />
 <path
   fill="#579d1c"
   stroke="none"
   d="m 4782,2519.9172 h 250 l -125,-250 z"
   id="path130" />
 <path
   fill="none"
   stroke="#579d1c"
   stroke-linejoin="round"
   d="m 4782,2519.9172 h 250 l -125,-250 z"
   id="path132" />
 <path
   fill="#579d1c"
   stroke="none"
   d="m 5176,2415.9172 h 250 l -125,-250 z"
   id="path134" />
 <path
   fill="none"
   stroke="#579d1c"
   stroke-linejoin="round"
   d="m 5176,2415.9172 h 250 l -125,-250 z"
   id="path136" />
 <path
   fill="#579d1c"
   stroke="none"
   d="m 5570,2466.9172 h 250 l -125,-250 z"
   id="path138" />
 <path
   fill="none"
   stroke="#579d1c"
   stroke-linejoin="round"
   d="m 5570,2466.9172 h 250 l -125,-250 z"
   id="path140" />
 <path
   fill="#579d1c"
   stroke="none"
   d="m 5964,2367.9172 h 249 l -125,-250 z"
   id="path142" />
 <path
   fill="none"
   stroke="#579d1c"
   stroke-linejoin="round"
   d="m 5964,2367.9172 h 249 l -125,-250 z"
   id="path144" />
 <path
   fill="#579d1c"
   stroke="none"
   d="m 6356,2526.9172 h 250 l -125,-250 z"
   id="path146" />
 <path
   fill="none"
   stroke="#579d1c"
   stroke-linejoin="round"
   d="m 6356,2526.9172 h 250 l -125,-250 z"
   id="path148" />
 <path
   fill="#579d1c"
   stroke="none"
   d="m 6750,2375.9172 h 250 l -125,-250 z"
   id="path150" />
 <path
   fill="none"
   stroke="#579d1c"
   stroke-linejoin="round"
   d="m 6750,2375.9172 h 250 l -125,-250 z"
   id="path152" />
 <path
   fill="#579d1c"
   stroke="none"
   d="m 7144,2346.9172 h 250 l -125,-250 z"
   id="path154" />
 <path
   fill="none"
   stroke="#579d1c"
   stroke-linejoin="round"
   d="m 7144,2346.9172 h 250 l -125,-250 z"
   id="path156" />
 <path
   fill="none"
   stroke="#ffd320"
   stroke-width="80"
   stroke-linejoin="round"
   d="m 2151,3267.9172 2363,-706 2361,-977 394,-286"
   id="path158" />
 <path
   fill="#ffd320"
   stroke="none"
   d="m 2026,3392.9172 h 250 l -125,-250 z"
   id="path160" />
 <path
   fill="none"
   stroke="#ffd320"
   stroke-linejoin="round"
   d="m 2026,3392.9172 h 250 l -125,-250 z"
   id="path162" />
 <path
   fill="#ffd320"
   stroke="none"
   d="m 4389,2686.9172 h 250 l -125,-250 z"
   id="path164" />
 <path
   fill="none"
   stroke="#ffd320"
   stroke-linejoin="round"
   d="m 4389,2686.9172 h 250 l -125,-250 z"
   id="path166" />
 <path
   fill="#ffd320"
   stroke="none"
   d="m 6750,1709.9172 h 250 l -125,-250 z"
   id="path168" />
 <path
   fill="none"
   stroke="#ffd320"
   stroke-linejoin="round"
   d="m 6750,1709.9172 h 250 l -125,-250 z"
   id="path170" />
 <path
   fill="#ffd320"
   stroke="none"
   d="m 7144,1423.9172 h 250 l -125,-250 z"
   id="path172" />
 <path
   fill="none"
   stroke="#ffd320"
   stroke-linejoin="round"
   d="m 7144,1423.9172 h 250 l -125,-250 z"
   id="path174" />
 <path
   fill="none"
   stroke="#ff420e"
   stroke-width="80"
   stroke-linejoin="round"
   d="m 2151,3267.9172 2363,-1804 2361,-276 394,-489.00005"
   id="path176" />
 <path
   fill="#ff420e"
   stroke="none"
   d="m 2026,3142.9172 125,250 125,-250 z"
   id="path178" />
 <path
   fill="none"
   stroke="#ff420e"
   stroke-linejoin="round"
   d="m 2026,3142.9172 125,250 125,-250 z"
   id="path180" />
 <path
   fill="#ff420e"
   stroke="none"
   d="m 4389,1338.9172 125,250 125,-250 z"
   id="path182" />
 <path
   fill="none"
   stroke="#ff420e"
   stroke-linejoin="round"
   d="m 4389,1338.9172 125,250 125,-250 z"
   id="path184" />
 <path
   fill="#ff420e"
   stroke="none"
   d="m 6750,1062.9172 125,250 125,-250 z"
   id="path186" />
 <path
   fill="none"
   stroke="#ff420e"
   stroke-linejoin="round"
   d="m 6750,1062.9172 125,250 125,-250 z"
   id="path188" />
 <path
   fill="#ff420e"
   stroke="none"
   d="m 7144,573.91715 125,250 125,-250 z"
   id="path190" />
 <path
   fill="none"
   stroke="#ff420e"
   stroke-linejoin="round"
   d="m 7144,573.91715 125,250 125,-250 z"
   id="path192" />
 <path
   fill="none"
   stroke="#004586"
   stroke-width="80"
   stroke-linejoin="round"
   d="m 2151,3267.9172 2363,-321 2361,-254 394,161"
   id="path194" />
 <path
   fill="#004586"
   stroke="none"
   d="m 2026,3267.9172 125,125 125,-125 -125,-125 z"
   id="path196" />
 <path
   fill="none"
   stroke="#004586"
   stroke-linejoin="round"
   d="m 2026,3267.9172 125,125 125,-125 -125,-125 z"
   id="path198" />
 <path
   fill="#004586"
   stroke="none"
   d="m 4389,2946.9172 125,125 125,-125 -125,-125 z"
   id="path200" />
 <path
   fill="none"
   stroke="#004586"
   stroke-linejoin="round"
   d="m 4389,2946.9172 125,125 125,-125 -125,-125 z"
   id="path202" />
 <path
   fill="#004586"
   stroke="none"
   d="m 6750,2692.9172 125,125 125,-125 -125,-125 z"
   id="path204" />
 <path
   fill="none"
   stroke="#004586"
   stroke-linejoin="round"
   d="m 6750,2692.9172 125,125 125,-125 -125,-125 z"
   id="path206" />
 <path
   fill="#004586"
   stroke="none"
   d="m 7144,2853.9172 125,125 125,-125 -125,-125 z"
   id="path208" />
 <path
   fill="none"
   stroke="#004586"
   stroke-linejoin="round"
   d="m 7144,2853.9172 125,125 125,-125 -125,-125 z"
   id="path210" />
 <text
   class="SVGTextShape"
   id="text218"
   y="-994.08282"><tspan
     class="TextParagraph"
     font-family="'Liberation Sans', sans-serif"
     font-size="353px"
     font-weight="400"
     id="tspan216"><tspan
       class="TextPosition"
       x="993"
       y="4805.917"
       id="tspan214"><tspan
         fill="#000000"
         stroke="none"
         id="tspan212">1940</tspan></tspan></tspan></text>
 <text
   class="SVGTextShape"
   id="text226"
   y="-994.08282"><tspan
     class="TextParagraph"
     font-family="'Liberation Sans', sans-serif"
     font-size="353px"
     font-weight="400"
     id="tspan224"><tspan
       class="TextPosition"
       x="1780"
       y="4805.917"
       id="tspan222"><tspan
         fill="#000000"
         stroke="none"
         id="tspan220">1950</tspan></tspan></tspan></text>
 <text
   class="SVGTextShape"
   id="text234"
   y="-994.08282"><tspan
     class="TextParagraph"
     font-family="'Liberation Sans', sans-serif"
     font-size="353px"
     font-weight="400"
     id="tspan232"><tspan
       class="TextPosition"
       x="2568"
       y="4805.917"
       id="tspan230"><tspan
         fill="#000000"
         stroke="none"
         id="tspan228">1960</tspan></tspan></tspan></text>
 <text
   class="SVGTextShape"
   id="text242"
   y="-994.08282"><tspan
     class="TextParagraph"
     font-family="'Liberation Sans', sans-serif"
     font-size="353px"
     font-weight="400"
     id="tspan240"><tspan
       class="TextPosition"
       x="3355"
       y="4805.917"
       id="tspan238"><tspan
         fill="#000000"
         stroke="none"
         id="tspan236">1970</tspan></tspan></tspan></text>
 <text
   class="SVGTextShape"
   id="text250"
   y="-994.08282"><tspan
     class="TextParagraph"
     font-family="'Liberation Sans', sans-serif"
     font-size="353px"
     font-weight="400"
     id="tspan248"><tspan
       class="TextPosition"
       x="4143"
       y="4805.917"
       id="tspan246"><tspan
         fill="#000000"
         stroke="none"
         id="tspan244">1980</tspan></tspan></tspan></text>
 <text
   class="SVGTextShape"
   id="text258"
   y="-994.08282"><tspan
     class="TextParagraph"
     font-family="'Liberation Sans', sans-serif"
     font-size="353px"
     font-weight="400"
     id="tspan256"><tspan
       class="TextPosition"
       x="4930"
       y="4805.917"
       id="tspan254"><tspan
         fill="#000000"
         stroke="none"
         id="tspan252">1990</tspan></tspan></tspan></text>
 <text
   class="SVGTextShape"
   id="text266"
   y="-994.08282"><tspan
     class="TextParagraph"
     font-family="'Liberation Sans', sans-serif"
     font-size="353px"
     font-weight="400"
     id="tspan264"><tspan
       class="TextPosition"
       x="5718"
       y="4805.917"
       id="tspan262"><tspan
         fill="#000000"
         stroke="none"
         id="tspan260">2000</tspan></tspan></tspan></text>
 <text
   class="SVGTextShape"
   id="text274"
   y="-994.08282"><tspan
     class="TextParagraph"
     font-family="'Liberation Sans', sans-serif"
     font-size="353px"
     font-weight="400"
     id="tspan272"><tspan
       class="TextPosition"
       x="6505"
       y="4805.917"
       id="tspan270"><tspan
         fill="#000000"
         stroke="none"
         id="tspan268">2010</tspan></tspan></tspan></text>
 <text
   class="SVGTextShape"
   id="text282"
   y="-994.08282"><tspan
     class="TextParagraph"
     font-family="'Liberation Sans', sans-serif"
     font-size="353px"
     font-weight="400"
     id="tspan280"><tspan
       class="TextPosition"
       x="7293"
       y="4805.917"
       id="tspan278"><tspan
         fill="#000000"
         stroke="none"
         id="tspan276">2020</tspan></tspan></tspan></text>
 <text
   class="SVGTextShape"
   id="text290"
   y="-994.08282"><tspan
     class="TextParagraph"
     font-family="'Liberation Sans', sans-serif"
     font-size="353px"
     font-weight="400"
     id="tspan288"><tspan
       class="TextPosition"
       x="611"
       y="4358.917"
       id="tspan286"><tspan
         fill="#000000"
         stroke="none"
         id="tspan284">0%</tspan></tspan></tspan></text>
 <text
   class="SVGTextShape"
   id="text298"
   y="-994.08282"><tspan
     class="TextParagraph"
     font-family="'Liberation Sans', sans-serif"
     font-size="353px"
     font-weight="400"
     id="tspan296"><tspan
       class="TextPosition"
       x="426"
       y="3873.9172"
       id="tspan294"><tspan
         fill="#000000"
         stroke="none"
         id="tspan292">50%</tspan></tspan></tspan></text>
 <text
   class="SVGTextShape"
   id="text306"
   y="-994.08282"><tspan
     class="TextParagraph"
     font-family="'Liberation Sans', sans-serif"
     font-size="353px"
     font-weight="400"
     id="tspan304"><tspan
       class="TextPosition"
       x="241"
       y="3388.9172"
       id="tspan302"><tspan
         fill="#000000"
         stroke="none"
         id="tspan300">100%</tspan></tspan></tspan></text>
 <text
   class="SVGTextShape"
   id="text314"
   y="-994.08282"><tspan
     class="TextParagraph"
     font-family="'Liberation Sans', sans-serif"
     font-size="353px"
     font-weight="400"
     id="tspan312"><tspan
       class="TextPosition"
       x="241"
       y="2903.9172"
       id="tspan310"><tspan
         fill="#000000"
         stroke="none"
         id="tspan308">150%</tspan></tspan></tspan></text>
 <text
   class="SVGTextShape"
   id="text322"
   y="-994.08282"><tspan
     class="TextParagraph"
     font-family="'Liberation Sans', sans-serif"
     font-size="353px"
     font-weight="400"
     id="tspan320"><tspan
       class="TextPosition"
       x="241"
       y="2418.9172"
       id="tspan318"><tspan
         fill="#000000"
         stroke="none"
         id="tspan316">200%</tspan></tspan></tspan></text>
 <text
   class="SVGTextShape"
   id="text330"
   y="-994.08282"><tspan
     class="TextParagraph"
     font-family="'Liberation Sans', sans-serif"
     font-size="353px"
     font-weight="400"
     id="tspan328"><tspan
       class="TextPosition"
       x="241"
       y="1933.9171"
       id="tspan326"><tspan
         fill="#000000"
         stroke="none"
         id="tspan324">250%</tspan></tspan></tspan></text>
 <text
   class="SVGTextShape"
   id="text338"
   y="-994.08282"><tspan
     class="TextParagraph"
     font-family="'Liberation Sans', sans-serif"
     font-size="353px"
     font-weight="400"
     id="tspan336"><tspan
       class="TextPosition"
       x="241"
       y="1448.9171"
       id="tspan334"><tspan
         fill="#000000"
         stroke="none"
         id="tspan332">300%</tspan></tspan></tspan></text>
 <text
   class="SVGTextShape"
   id="text346"
   y="-994.08282"><tspan
     class="TextParagraph"
     font-family="'Liberation Sans', sans-serif"
     font-size="353px"
     font-weight="400"
     id="tspan344"><tspan
       class="TextPosition"
       x="241"
       y="963.91718"
       id="tspan342"><tspan
         fill="#000000"
         stroke="none"
         id="tspan340">350%</tspan></tspan></tspan></text>
 <text
   class="SVGTextShape"
   id="text354"
   y="-994.08282"><tspan
     class="TextParagraph"
     font-family="'Liberation Sans', sans-serif"
     font-size="353px"
     font-weight="400"
     id="tspan352"><tspan
       class="TextPosition"
       x="241"
       y="478.91714"
       id="tspan350"><tspan
         fill="#000000"
         stroke="none"
         id="tspan348">400%</tspan></tspan></tspan></text>
 
 <path
   fill="none"
   stroke="#004586"
   stroke-width="80"
   stroke-linejoin="round"
   d="m 8391,1257.9172 h 800"
   id="path364" />
 <path
   fill="#004586"
   stroke="none"
   d="m 8685,1257.9172 106,106 105,-106 -105,-105 z"
   id="path366" />
 <path
   fill="none"
   stroke="#004586"
   stroke-linejoin="round"
   d="m 8685,1257.9172 106,106 105,-106 -105,-105 z"
   id="path368" />
 <path
   fill="none"
   stroke="#ff420e"
   stroke-width="80"
   stroke-linejoin="round"
   d="m 8391,1755.9172 h 800"
   id="path370" />
 <path
   fill="#ff420e"
   stroke="none"
   d="m 8685,1650.9172 106,211 105,-211 z"
   id="path372" />
 <path
   fill="none"
   stroke="#ff420e"
   stroke-linejoin="round"
   d="m 8685,1650.9172 106,211 105,-211 z"
   id="path374" />
 <path
   fill="none"
   stroke="#ffd320"
   stroke-width="80"
   stroke-linejoin="round"
   d="m 8391,2252.9172 h 800"
   id="path376" />
 <path
   fill="#ffd320"
   stroke="none"
   d="m 8685,2358.9172 h 211 l -105,-211 z"
   id="path378" />
 <path
   fill="none"
   stroke="#ffd320"
   stroke-linejoin="round"
   d="m 8685,2358.9172 h 211 l -105,-211 z"
   id="path380" />
 <path
   fill="none"
   stroke="#579d1c"
   stroke-width="80"
   stroke-linejoin="round"
   d="m 8391,2750.9172 h 800"
   id="path382" />
 <path
   fill="#579d1c"
   stroke="none"
   d="m 8685,2856.9172 h 211 l -105,-211 z"
   id="path384" />
 <path
   fill="none"
   stroke="#579d1c"
   stroke-linejoin="round"
   d="m 8685,2856.9172 h 211 l -105,-211 z"
   id="path386" />
 <text
   class="SVGTextShape"
   id="text394"
   y="-994.08282"><tspan
     class="TextParagraph"
     font-family="'Liberation Sans', sans-serif"
     font-size="353px"
     font-weight="400"
     id="tspan392"><tspan
       class="TextPosition"
       x="9291"
       y="1377.9171"
       id="tspan390"><tspan
         fill="#000000"
         stroke="none"
         id="tspan388">akkerbouw</tspan></tspan></tspan></text>
 <text
   class="SVGTextShape"
   id="text402"
   y="-994.08282"><tspan
     class="TextParagraph"
     font-family="'Liberation Sans', sans-serif"
     font-size="353px"
     font-weight="400"
     id="tspan400"><tspan
       class="TextPosition"
       x="9291"
       y="1875.9171"
       id="tspan398"><tspan
         fill="#000000"
         stroke="none"
         id="tspan396">veehouderij</tspan></tspan></tspan></text>
 <text
   class="SVGTextShape"
   id="text410"
   y="-994.08282"><tspan
     class="TextParagraph"
     font-family="'Liberation Sans', sans-serif"
     font-size="353px"
     font-weight="400"
     id="tspan408"><tspan
       class="TextPosition"
       x="9291"
       y="2372.9172"
       id="tspan406"><tspan
         fill="#000000"
         stroke="none"
         id="tspan404">tuinbouw</tspan></tspan></tspan></text>
 <text
   class="SVGTextShape"
   id="text418"
   y="-994.08282"><tspan
     class="TextParagraph"
     font-family="'Liberation Sans', sans-serif"
     font-size="353px"
     font-weight="400"
     id="tspan416"><tspan
       class="TextPosition"
       x="9291"
       y="2870.9172"
       id="tspan414"><tspan
         fill="#000000"
         stroke="none"
         id="tspan412">totale landbouw</tspan></tspan></tspan></text>
</svg>
