<?xml version="1.0" encoding="utf-8"?>

<!DOCTYPE svg PUBLIC "-//W3C//DTD SVG 1.1//EN" "http://www.w3.org/Graphics/SVG/1.1/DTD/svg11.dtd">
<svg version="1.1" id="Layer_1" xmlns="http://www.w3.org/2000/svg" xmlns:xlink="http://www.w3.org/1999/xlink" x="0px" y="0px"
	 viewBox="0 0 2287.585 1688.82" enable-background="new 0 0 2287.585 1688.82" xml:space="preserve">
<g>
	<path fill="#DE2910" d="M546.849,297.648L546.849,297.648c-1.63,0.863-3.069,1.535-4.987,1.535c-1.535,0-2.302-0.767-3.837-0.767
		c-2.781,0-4.414,1.247-6.907,2.302c-1.728,0.767-3.165,1.344-3.836,3.07c-1.44,3.358-0.384,5.851-0.768,9.592
		c-0.577,4.699-2.781,6.907-5.372,10.744c-2.686,3.932-4.316,6.811-8.825,8.441c-1.728,0.577-2.781,1.63-4.605,1.919
		c-4.125,0.767-6.618-1.342-10.743-0.384c-2.781,0.672-4.316,2.207-5.756,4.604c-1.728,2.782-3.453,4.414-4.22,7.674
		c-0.384,1.728-0.194,2.781-0.384,4.605c-0.479,4.125-0.767,6.427-0.767,10.553c0,5.945,0.672,9.208,1.151,15.155
		c0.288,4.509,0.384,7.195,1.535,11.511c0.479,1.823,1.918,2.686,1.918,4.605c0,1.246-1.344,1.728-1.918,2.685
		c-1.44,2.207-2.207,3.742-3.453,6.139c-1.919,3.647-3.647,6.618-7.674,7.29c-1.055,0.096-1.919-0.384-3.069-0.384
		c-2.398-0.095-4.03,0.096-6.139,1.151c-2.495,1.247-3.837,2.302-6.139,3.837c-1.823,1.246-2.397,3.453-4.604,3.453
		c-0.767,0-0.863-0.958-1.535-1.151l1.151-4.605c-1.824-2.108-4.03-2.207-6.907-2.686c-9.018-0.19-14.006,0.479-23.021,0
		c-2.397-0.095-3.358-0.957-5.756-1.15c-5.371-0.863-8.25-2.493-12.662-5.372c-1.63-1.056-2.974-1.63-4.604-2.686
		c-2.302-1.535-3.359-3.837-6.139-3.837c-1.344,0-1.63,1.631-2.302,2.686c-1.728,2.686-1.535,4.798-1.919,8.058
		c-0.479,4.22-1.151,6.716-2.301,10.743c-1.535,5.371-2.496,8.537-4.605,13.813c-1.151,2.974-1.151,5.083-2.302,8.057
		c-2.59,6.234-4.316,9.881-7.673,15.732c-0.673,1.246-0.673,2.495-1.151,3.837c-2.686,6.618-4.51,10.36-6.523,17.266
		c-0.577,2.207-1.535,3.453-1.535,5.755c0,2.207,1.631,3.453,3.453,4.605c2.781,1.728,5.276,2.686,6.523,5.755
		c1.534,3.837,1.15,6.523,1.15,10.744c0,1.535-0.767,2.59-1.918,3.453c-1.729-1.246-2.879-2.207-4.221-3.836
		c-0.673-0.863-1.056-2.302-2.302-2.302c-4.798,0-7.1,2.686-11.894,2.686c-1.535,0-2.495,0.288-3.837-0.384
		c-1.823-0.863-2.302-2.591-3.453-4.221c-1.728-2.302-3.932-3.453-6.906-3.453c-2.207,0-3.358,1.246-5.372,1.919
		c-1.055,0.384-2.013,0.095-3.069,0.384c-3.07,0.862-4.699,1.728-7.674,3.07c-6.044,2.686-10.071,2.686-16.499,4.221
		c-2.302,0.577-3.932,0-6.139,0.767c-3.07,1.151-4.605,2.975-7.674,4.221c-3.453,1.44-6.811,0.193-9.208,3.07
		c-1.44,1.823-0.961,3.837-1.535,6.139c3.165,0.194,4.893-0.095,8.058,0c3.165,0.096,6.906,1.056,6.906,4.221
		c0,2.112-0.767,3.359-1.151,5.372c-1.344,6.716-1.919,10.648-1.919,17.46c0,4.411,0.574,7.002,1.535,11.318
		c0.862,3.741,1.246,6.044,2.686,9.592c0.958,2.495,1.055,4.221,2.302,6.523c0.957,1.823,2.302,2.685,3.07,4.604
		c0.479,1.151,0.288,2.207,0.767,3.453c1.44,3.741,2.493,5.851,3.837,9.592c1.246,3.359,3.07,5.181,3.07,8.826
		c0,2.207-0.479,4.316-2.302,5.371c-0.961,0.577-2.013-0.288-3.07,0c-1.246,0.384-1.918,1.44-3.069,1.919
		c-1.729,0.673-2.975,1.056-4.605,1.919c0.095,0.479-0.193,1.056,0,1.535c0.767,1.535,2.302,2.112,2.302,3.837
		c0,1.439-1.535,1.918-2.686,2.685c-2.59,1.729-4.221,2.591-7.29,3.453c-2.113,0.577-4.221,1.63-4.221,3.837
		c0,4.316,1.63,6.522,2.686,10.743c0.672,2.879,0.19,4.798,0.767,7.674c0.19,0.862,0.767,1.344,0.767,2.301
		c0,0.863-1.151,0.768-1.535,1.535c-0.479,1.056,0.479,0.384,0,1.535l0,0c0,1.535,0.767,3.837,0.767,5.372
		c0,3.165-4.221,3.069-7.291,3.836c-3.932,0.958-6.329,1.631-9.592,3.837c-3.932,2.686-4.028,7.962-8.826,8.442
		c-4.509,0.384-6.906,1.534-11.127,3.069c-4.699,1.725-7.195,3.742-11.511,6.523c-1.725,1.055-3.165,1.63-4.605,3.07
		c-1.246,1.246-1.725,2.301-3.069,3.453c-2.782,2.398-4.699,3.548-7.291,6.139c-3.358,3.358-5.371,5.372-9.208,8.057
		c-1.342,0.863-2.207,1.824-3.837,2.302c-4.316,1.246-7.002,0.479-11.511,1.151c-6.523,0.958-9.592,3.741-16.115,4.988
		c-3.643,0.672-5.562,1.439-9.208,1.535c-2.397,0-3.837-0.768-6.139-0.384c-3.548,0.573-3.453,4.794-4.987,8.057
		c-2.109,4.605-2.975,7.769-5.756,11.894c-1.919,2.877-4.988,2.686-8.441,3.453c-4.795,1.151-7.481,3.453-12.469,3.453
		c-3.837,0-6.238-2.112-8.251-5.372c-2.013-3.358-3.643-5.276-4.605-9.208c-4.22,3.165-7.097,4.411-11.894,6.522
		c-1.341,0.574-2.013,1.44-3.453,1.919c-1.824,0.574-3.26,0.673-4.988,1.535c-2.397,1.246-3.644,2.781-6.139,3.837
		c-3.069,1.341-5.562,1.724-7.674,4.22c-2.013,2.302-2.109,4.893-4.605,6.523c-3.453,2.302-6.618,1.63-10.743,2.302
		c-4.027,0.672-5.083,4.604-6.523,8.441c-0.957,2.686-2.301,4.126-2.301,7.002c0,1.919,0.384,2.879,0.384,4.798
		c0,1.725-1.151,2.686-2.302,3.932c-2.975,3.26-6.044,4.699-10.36,6.139l0,0c-0.384,1.728,0,1.728,0,3.548
		c0,3.07,0.961,4.893,2.301,7.579c0.767,1.535,2.302,2.112,2.302,3.837c0,2.974-2.302,4.316-2.302,7.29
		c0,1.919,1.345,2.781,1.919,4.605c1.44,4.414,3.453,6.811,3.453,11.511h6.044c4.221,0,5.851-3.837,10.072-3.837
		c4.893,0,7.1,2.975,11.511,4.988c3.548,1.535,7.673,2.59,7.673,6.522c0,2.879-4.22,3.263-4.22,6.139
		c0,2.207,1.246,3.358,1.919,5.371c0.577,1.631,0.384,2.975,1.151,4.605c1.344,2.781,4.987,3.359,4.987,6.523
		c0,3.932-3.453,5.66-3.453,9.592c0,1.246,1.247,1.823,1.919,2.686c1.247,1.535,2.013,2.879,3.07,4.604
		c0.961,1.631,2.686,2.591,2.686,4.605c0,1.344-1.151,2.013-1.919,3.07c-1.342,1.823-2.781,2.495-3.837,4.605l0,0
		c-0.767,4.797,0.289,7.099-1.535,11.511l0,0c3.932,0.577,6.234,3.548,9.977,4.604c4.316,1.247,7.001,0.767,11.511,0.767
		c0.577,2.495,0.672,4.798,3.07,5.756c1.344,0.479,2.301-0.479,3.836-0.384c2.398,0.095,3.548,1.728,4.988,3.453
		c1.344,1.63,2.112,2.974,3.453,4.604c3.165,3.647,5.755,5.949,5.755,10.744c0,1.918-1.919,2.685-1.919,4.604
		c0,2.013,1.729,2.879,2.686,4.605c1.151,2.112,1.344,3.741,1.919,6.139c0.767,3.165,2.879,5.756,6.139,5.756
		c3.647,0,5.182-3.07,8.825-3.07c1.344,0,1.63,1.631,2.302,2.686c2.397,3.453,3.07,6.811,6.906,8.441
		c4.126,1.729,6.428,3.359,10.744,4.605c4.097,1.213,6.657,0.884,10.755,1.48v0.001c5.838,0.918,9.006,1.973,14.567,1.973
		c0.578,7.385,4.221,11.029,8.058,17.266c3.453,5.657,4.414,9.592,6.906,15.732c1.824,4.506,3.837,6.618,5.756,11.127
		c1.151,2.686,1.919,4.794,4.221,6.523c3.647,2.685,6.332,3.643,9.592,6.906c1.919,1.919,3.837,3.355,3.837,6.139
		c0,2.108-1.631,3.069-2.302,4.987c-0.767,2.109-1.535,3.453-1.535,5.756c0,5.562,4.03,7.769,5.755,13.046
		c1.631,4.89,2.686,7.673,4.988,12.278c1.246,2.493,2.781,3.644,3.837,6.14c2.781,6.522,5.755,10.166,5.755,17.266
		c0,4.89-3.932,8.826-8.825,8.826c-4.221,0-6.522-3.07-8.825-6.523c-1.535-2.401-2.781-4.987-5.756-4.987
		c-1.63,0-2.013,1.724-3.453,2.301c-1.341,0.479-2.492,0.479-3.836,1.151c-1.44,0.767-3.07,1.342-3.07,3.07
		c0,2.877,2.013,4.316,3.07,6.907c0.961,2.301,1.246,3.836,1.918,6.139c0.673,2.302,0.289,4.221,1.919,6.139
		c1.247,1.535,3.165,1.919,3.837,3.836c1.151,3.26,0.767,5.657,1.151,9.209c0.384,3.07,2.112,4.604,2.302,7.673
		c0.095,2.302-0.384,3.644-0.384,5.946c0,2.397,0.862,3.836,1.919,5.948c0.193,0.479,0.095,1.151,0.384,1.535
		c2.685,3.355,6.522,2.397,10.743,3.07c1.919,0.285,3.263,0.574,4.988,1.535c2.59,1.535,2.974,4.027,5.371,5.755
		c1.824,1.247,3.453,1.535,5.756,1.535c1.63,0,2.59-0.767,4.22-0.767c3.549,0,5.372,2.493,7.291,5.372
		c1.246,1.82,2.495,2.588,4.221,3.837c2.397,1.724,4.125,2.686,6.139,4.987c2.013,2.398,2.975,4.411,5.756,5.756
		c3.932,1.919,6.716,2.109,10.743,3.837c2.781,1.151,3.358,3.548,5.756,5.371c2.207,1.631,4.125,2.204,6.139,4.221v-0.001
		c2.207,1.246,3.549,4.604,6.139,4.604c1.823,0,2.495-1.63,3.453-3.07c2.013-2.974,3.358-4.797,4.987-8.057
		c1.44-2.974,2.782-6.139,6.139-6.139c3.165,0,4.988,0.767,8.057,1.15c4.51,0.673,7.291,1.44,11.128,3.837
		c2.013,1.246,2.013,3.26,3.069,5.372c1.247,2.495,2.495,3.932,4.605,5.755c3.548,3.07,5.949,4.51,9.592,7.674
		c2.207,1.919,3.932,2.686,6.139,4.604c4.316,3.742,7.1,5.851,12.278,8.442c2.013,0.961,2.781,2.496,4.221,4.221
		c1.535,1.823,2.495,2.781,3.453,4.987c0.673,1.728,1.151,2.781,1.535,4.605c0.384,1.823,0.384,4.221,2.302,4.221
		c3.359,0,5.083-1.63,8.058-3.07c1.918-0.958,3.358-1.535,5.371-2.302c3.165-1.246,4.988-2.686,8.442-2.686
		c1.728,0,1.246,2.495,1.15,4.221c-0.095,1.823,0,2.781,0,4.605c0,3.646,2.782,5.083,5.372,7.673c1.63,1.63,2.495,2.781,3.837,4.605
		c2.974,4.03,6.427,5.083,11.127,6.906c3.165,1.151,5.372,1.535,8.441,3.07c1.151,0.577,2.207,0.672,3.07,1.535
		c2.975,2.974,1.824,9.208,6.139,9.208c2.207,0,3.165-1.919,5.371-1.919c0.767,0,0.863,0.961,1.535,1.151
		c3.07,1.151,4.51,2.781,7.674,3.837c3.453,1.151,6.044,0.767,9.592,1.919c3.837,1.246,5.565,3.548,9.208,5.371
		c2.879,1.44,4.893,1.63,8.058,2.302c4.798,1.056,7.867,0.384,12.662,1.151c1.919,0.289,3.07,1.056,4.987,1.535
		c2.014,0.478,3.359,0.577,5.372,1.151c4.699,1.439,7.484,3.07,12.374,3.07h9.401c1.919,0,2.877-0.863,4.699-1.151
		c5.372-0.863,9.497-2.686,14.964-2.686l0,0c0.862,0.289,0.577-0.384,1.535-0.384c1.728,0,2.495-1.44,3.837-2.302
		c3.647-2.495,6.332-3.837,10.743-3.837c1.151,0,2.207-0.288,3.07,0.384c0.961,0.767,0.672,1.919,1.151,3.07
		c0.479,1.151,1.151,1.824,1.534,3.07c0.194,0.673-0.19,1.246,0,1.919c0.194,0.672,1.056,0.862,1.151,1.535
		c0.384,1.439,0.384,2.302,0.384,3.836c0,5.467-4.987,7.579-4.987,13.046c0,1.247,0.672,1.919,1.151,3.07
		c0.961,2.397,2.301,4.798,3.836,6.907l0,0c1.535-2.112,1.728-3.932,2.302-6.523c1.151-4.699,3.359-6.906,6.139-10.743
		c2.112-2.974,4.316-4.03,6.139-7.29c1.44-2.686,1.631-4.699,2.686-7.674c0.767-2.112,2.112-3.165,3.837-4.605
		c1.151-0.961,1.728-2.013,3.07-2.685c2.879-1.44,5.083-1.44,8.057-2.686c2.013-0.862,2.59-2.591,4.605-3.453
		c1.055-0.384,2.013-0.478,3.069-0.767c2.591-0.862,4.126-2.302,6.907-2.302c2.59,0,3.165,2.398,4.988,4.221
		c2.112,2.109,3.548,3.741,6.522,4.605c4.125,1.151,6.427,2.207,10.743,2.685c6.428,0.673,10.17,0.574,16.499,1.535
		c2.781,0.384,4.414,0.767,7.291,1.151c0,4.795-0.384,7.674,0.767,12.278c0.384,1.824,0.672,3.26,1.918,4.605
		c1.729,1.824,3.647,1.824,6.139,2.302c4.125,0.767,6.523,0.574,10.743,1.151c0.289,3.643,1.728,5.66,2.302,9.208
		c0.862,5.276,0.384,8.442,0.384,13.813l0,0c5.467,1.344,8.153,1.246,13.813,1.919c1.919,0.193,2.879,0.767,4.798,0.767
		c7.002,0,10.743-2.397,17.456-4.221c3.742-0.961,6.045-1.919,9.593-3.453c2.013-0.863,3.548-1.151,5.371-2.302
		c3.453-2.302,5.467-3.548,8.826-6.139c2.879-2.207,4.316-4.125,7.673-5.372c6.139-2.301,11.223-0.288,16.499-4.22
		c4.03-2.975,6.618-4.605,9.976-8.442c2.013-2.397,2.975-4.125,5.372-6.139c2.495-2.112,4.414-3.359,7.673-3.837
		c2.975-0.479,5.182,0.191,7.674-1.535c2.781-1.919,3.165-5.565,6.522-6.139c1.056-0.194,1.919,0.384,3.07,0.384
		c2.013-0.096,3.07-0.673,4.988-1.151c4.414-1.247,6.044-4.126,9.976-6.523c1.439-0.862,2.112-2.302,3.837-2.302
		c1.535,0,1.823,1.63,2.301,3.07c0.673,2.109,1.247,3.548,2.302,5.372c0.767,1.246,1.535,2.686,3.07,2.686
		c2.013,0,3.263-1.345,4.605-2.686c2.397-2.397,3.548-4.221,6.139-6.523c1.728-1.535,2.686-3.07,4.988-3.07
		c2.013,0,2.686,1.919,3.837,3.453c3.742,5.083,7.768,9.304,14.197,10.359l0,0c1.055-4.509,2.112-7.29,3.836-11.511
		c1.151-2.879,2.208-6.139,5.372-6.139c1.919,0,2.781,1.056,4.605,1.535c3.069,0.862,5.181,1.246,8.057,2.685
		c2.495,1.247,4.03,2.398,6.139,4.221c1.535,1.246,3.453,2.013,3.453,4.125v8.249c0,1.823,1.056,2.784,1.535,4.509
		c1.344,4.605,1.344,7.484,1.919,12.278c0.961,0.193,1.344,0.767,2.302,0.767c2.112,0,2.495-3.07,4.605-3.07
		c1.246,0,1.919,0.673,3.069,1.151c2.302,0.961,3.933,2.302,4.988,4.605c0.479,1.056,1.151,1.728,1.151,2.974v14.004
		c0,1.151,0.577,1.919,0.767,2.974c0.577,3.359,0.767,5.372,0.767,8.825c0,10.265-5.756,15.252-7.291,25.324
		c-0.768,4.987-1.63,7.962-3.453,12.662c-1.535,3.837-1.44,7.385-4.988,9.592c-0.958,0.577-2.013,0.384-3.07,0.767
		c-3.165,1.151-3.548,4.316-5.755,6.907c-0.384,0.479-1.056,0.384-1.535,0.767c-3.837,3.069-5.179,5.66-8.442,9.208
		c-2.876,3.165-2.301,6.333-3.836,10.359c-1.725,4.414-4.221,6.907-4.221,11.705c0,1.919,2.013,2.492,3.07,4.027
		c1.055,1.535,1.535,2.686,1.535,4.605c0,3.647-2.109,5.467-2.109,9.114v9.687c2.686-1.341,3.453-3.26,5.562-5.371
		c1.345-1.342,2.782-1.919,4.605-2.686c3.647-1.63,5.949-2.686,9.976-2.686c4.605,0,7.1,1.151,11.705,1.151
		c1.725,0,2.686-0.767,4.411-0.767c1.151,0,1.919,0.384,3.07,0.577c0.095,0.574,0.384,1.151,0.384,1.82
		c0,2.401-1.535,3.647-1.535,6.045c0,2.207,1.44,3.358,2.302,5.371c1.246,2.781,1.344,4.605,1.535,7.674
		c0.384,4.893-0.574,8.346,2.302,12.278c1.15,1.63,2.879,2.013,4.604,3.069c2.207,1.345,3.548,2.591,6.14,3.07
		c4.798,0.961,10.743,1.63,10.743,6.523c0,2.112-2.686,2.207-3.837,3.837c-0.767,1.055-0.767,2.112-0.767,3.453
		c0,2.207,1.535,3.165,1.535,5.372c0,6.522-5.755,9.208-5.755,15.732c0,2.686,3.164,3.836,5.851,3.836h7.483
		c1.919,0,2.877,0.578,4.699,1.151c1.151,0.384,2.207,0.289,3.07,1.151c1.63,1.631,0.095,3.837,0.767,6.14
		c0.479,1.919,1.728,2.781,2.302,4.604c0.767,2.398,0.961,3.933,2.302,6.139c1.344,2.207,3.548,2.495,6.139,3.07
		c2.014,0.479,3.263,1.151,5.372,1.151c5.467,0,8.537-1.44,13.429-3.837c4.221-2.109,5.949-6.139,10.743-6.139
		c1.151,0,1.44,1.345,1.919,2.302c1.246,2.302,2.397,3.164,3.837,5.372l0,0c0.767,2.397,1.63,4.221,2.686,6.522
		c1.246,2.88,1.823,4.988,4.22,6.907c1.344-1.342,1.919-3.07,3.837-3.07c2.397,0,3.165,2.112,5.372,3.07
		c1.63,0.673,2.781,0.862,4.604,1.151c-0.479-5.756-1.535-9.015-1.535-14.774c0-2.877,2.302-4.221,2.302-7.098
		c0-1.918-1.919-2.301-3.07-3.836c-1.341-1.824-2.301-3.165-2.301-5.467c0-3.837,0.767-6.044,0.767-9.881
		c0-3.07-0.479-4.893-0.673-7.962c2.496,0.672,4.125,0.384,6.811,0.288c4.798-0.288,7.1,0.479,11.894,0.384l0,0
		c2.302-1.344,4.988-4.125,6.14-6.522c1.344-2.686,1.535-6.523,4.604-6.523c1.345,0,1.919,1.056,3.07,1.535
		c3.548,1.44,5.949,1.725,9.209,3.837c1.246,0.767,1.15,2.207,2.301,3.07c2.207,1.724,4.03,2.685,6.907,2.685
		c0.961,0,1.535-0.767,2.302-1.15c4.987-2.975,5.371-9.977,11.127-9.977c4.605,0,6.522,4.221,11.127,4.221
		c1.63,0,2.397-0.961,3.837-1.535c4.221-1.823,6.522-3.837,11.127-3.837c1.824,0,2.781,1.151,4.605,1.151
		c2.207,0,3.453-1.246,5.371-2.302c1.919-1.056,3.165-1.63,4.988-2.685c3.358-2.014,6.427-2.879,8.057-6.523
		c1.631-3.647,3.837-5.467,7.291-7.29c1.055-0.479,1.919-0.673,3.07-1.151c2.495-1.056,3.358-3.837,6.139-3.837
		c1.535,0,1.824,1.919,2.686,3.07c1.344,1.823,2.207,2.974,3.837,4.604c2.112,2.109,2.974,4.221,5.755,5.372
		c4.988,2.109,8.635,0.574,13.813,2.302c1.824,0.574,2.781,1.342,4.605,1.919c3.453,1.151,5.66,0.672,9.208,1.535
		c2.975,0.672,4.988,0.862,7.674,2.302c1.728,0.957,3.453,1.823,3.453,3.836c0,0.673-0.672,0.958-0.767,1.535
		c-0.384,1.824-0.673,2.975-1.535,4.605c-1.535,2.876-5.372,3.548-5.372,6.906c0,2.591,2.302,3.359,4.221,4.988
		c1.63,1.344,2.59,2.495,3.836,4.221c1.247,1.728,1.63,3.453,3.453,4.604c1.63,1.056,2.879,1.344,4.605,2.302
		c3.647,2.207,5.276,4.414,8.825,6.907c2.495,1.728,2.302,5.755,5.372,5.755c3.263,0,4.414-3.453,7.673-3.453
		c3.263,0,4.988,1.44,7.674,3.07c2.207,1.344,4.189,2.7,6.589,3.851l0,0c1.385-0.418,2.879-0.792,4.538-1.165
		c4.125-0.961,6.618-2.397,9.592-5.371c2.112-2.112,2.781-3.837,4.988-5.756c2.013,2.781,3.837,5.372,7.385,5.372h7.579
		c3.453,5.178,6.044,10.359,12.278,10.359c2.302,0,3.165-2.302,4.221-4.221c1.439-2.59,2.301-4.414,3.069-7.29l1.535-0.384
		c3.165,6.427,9.497,6.522,13.046,12.662c-5.276,3.453-8.825,7.48-8.825,13.813c0,3.259,1.535,5.083,2.686,8.057
		c1.439,3.549,2.112,5.756,3.836,9.209c1.63,3.358,3.933,4.316,6.523,6.906c2.302,2.302,3.165,5.756,6.522,5.756
		c2.591,0,4.126-1.63,5.756-3.453c1.728-1.919,3.453-3.453,3.453-6.139c0-1.345-2.109-1.056-3.07-1.919
		c-1.439-1.345-2.109-2.782-2.686-4.605c-0.767-2.397-0.957-3.932-1.151-6.523c-1.151,0.19-1.919,0.767-3.069,0.767
		c-2.302,0-3.07-2.685-3.07-4.987c0-2.013,1.919-2.781,2.686-4.605c0.672-1.728,1.344-2.879,1.918-4.605l1.535-4.604
		c0.578-1.535,0.961-3.453,2.686-3.453c2.112,0,3.07,1.725,4.605,3.07c2.207,1.919,3.453,3.548,6.139,4.604
		c1.63-2.495,2.014-4.699,4.605-6.139c2.013-1.056,3.837-0.673,6.14-1.151c3.069-0.577,4.604-2.207,7.673-2.686
		c4.988-0.862,8.441,0.191,13.046-1.919c3.548-1.535,4.699-4.509,6.139-8.057c2.301,1.151,3.548,2.686,6.139,2.686
		c2.591,0,3.932-0.863,6.523-1.151c2.397-0.289,4.03,0.288,6.139-0.767c1.919-0.961,1.919-3.165,2.302-5.372
		c1.83-3.66,1.899,4.605,6.907,4.605c2.207,0,3.263-1.728,4.604-3.453c2.207-2.781,4.03-4.03,6.907-6.139
		c1.151-0.767,2.686-1.247,3.07-2.686c3.179-10.476-1.257-8.163,4.987-1.919l0.767-1.535v-9.497c0-11.909,3.2-10.356,6.907-0.479
		c0.577,1.724,0.384,3.165,1.535,4.604c1.246,1.535,2.685,1.725,4.604,2.302l1.919-9.592c-0.289-2.207-1.439-3.358-2.302-5.372
		c-1.056-2.397-1.151-4.22-1.151-6.906c0-3.837,1.247-7.002,4.605-8.826c2.207,2.975,4.316,4.221,5.756,7.674
		c1.246,2.974,1.439,4.893,3.069,7.673c1.728,2.877,4.51,3.165,7.674,4.221c1.823,0.574,2.686,1.535,4.604,1.535
		c3.359,0,4.798-2.302,7.674-3.837c3.548-1.919,5.565-3.358,8.825-5.755c2.496-0.578,3.647-1.728,6.14-2.302
		c0.193,2.397,0,3.741,0,6.139c0.577,0,0.862,0.384,1.439,0.384c2.109,0,2.975-1.63,4.699-2.685
		c4.316-2.686,5.949-5.756,10.744-7.291c1.151,3.548,0.862,8.441,4.604,8.441c1.535,0,2.397-0.862,3.453-1.918
		c2.397-2.398,3.07-4.414,4.988-7.291c2.013,0.958,2.207,3.07,4.22,3.837c1.056,0.384,1.919,0.384,3.07,0.384
		c3.647,0,5.565-1.919,9.208-2.302c3.742-0.384,6.234-0.767,9.209-3.07c1.823-1.344,3.453-1.344,4.987-3.07
		c1.345-1.534,1.151-3.263,1.151-5.371c0-2.686-0.957-4.316-1.535-6.907c-0.672-2.974-0.573-4.893-1.918-7.673h6.139
		c0-2.397,0.193-4.699,2.302-5.756c0.478-0.193,1.056,0.096,1.535,0c1.728,2.975,2.495,5.083,4.988,7.291
		c1.728-2.975,3.548-4.51,6.522-6.14c2.59-1.439,3.263-3.932,6.139-4.604c2.495-0.578,4.604-0.289,6.139-2.302
		c1.056-1.344,0.862-2.496,1.151-4.221c2.112-0.095,3.263,0,5.372,0c2.974,0,3.165-4.605,6.139-4.605
		c0.961,0,1.344,1.151,2.302,1.151c2.302,0,2.302-2.879,3.07-4.987c0.862-2.495,2.781-3.166,4.221-5.372
		c1.344-2.112,0.961-4.221,1.918-6.523c0.479-1.344,1.151-3.069,2.686-3.069c1.824,0,2.781,1.151,4.605,1.151
		c2.495,0,2.112-4.605,4.605-4.605c2.207,0,3.165,1.919,5.371,1.919c4.03,0,6.811-3.263,7.291-7.291
		c0.193-1.823-0.863-2.879-0.384-4.604c0.862-3.263,3.647-4.221,5.755-6.907c1.919-2.495,2.686-4.604,4.988-6.906
		c3.263-3.263,4.414-5.949,7.673-9.209c1.535-1.535,3.263-1.823,4.605-3.453c4.125-4.893,5.85-8.251,6.906-14.58l-4.604-3.453
		c2.302-1.728,5.371-2.495,5.371-5.467v-9.019c0-2.492-1.534-3.741-1.534-6.234c0-2.59,1.534-3.741,2.301-6.139
		c0.863-2.975,0.673-4.893,1.151-8.058c3.165,2.493,4.126,5.277,7.674,7.291c1.823-3.263,3.263-5.182,6.139-7.674
		c1.151-0.961,2.112-1.246,3.07-2.301c0.384-0.479,1.44-0.479,1.535-1.151c0.767-3.07,0-4.988,0.767-8.058
		c0.095-0.672,0.862-0.862,1.151-1.535l3.07,3.07c4.316-3.07,5.467-6.811,6.906-11.894c0.289-1.151,0.384-2.112,1.151-3.07
		c0.767-0.961,2.207-1.151,2.686-2.302c1.055-2.301,0-3.932,0-6.522c1.344,0,2.207,0.191,3.453,0
		c1.439-0.193,2.207-1.728,2.685-3.07c0.767-2.013,1.151-3.548,2.302-5.371c2.591-3.933,5.949-4.51,10.359-6.139
		c2.496-0.862,4.316-1.246,6.14-3.07c4.414-4.414,3.837-10.359,5.372-16.499c0-2.397-0.191-3.741-0.191-6.139
		c2.686-0.479,5.562-1.535,5.562-4.221c0-1.535-0.288-2.397-0.767-3.837c-0.19-0.577-1.151-0.767-1.151-1.439v-7.769l0.767-3.07
		c4.893,0.767,6.333,4.316,10.744,6.523c0.479-1.056,1.15-1.824,1.15-3.07c0-1.823-0.479-2.974-1.15-4.605
		c-0.191-0.672-1.151-0.767-1.151-1.535c0-4.03,1.823-6.139,3.836-9.592c-2.301,0.574-3.836,0.479-6.139,1.151
		c-3.932,1.056-5.563,3.165-9.209,4.988l-1.534-0.384c0.862-1.151,1.439-2.207,2.685-3.07c0.384-0.193,1.247,0,1.535-0.384
		c1.344-1.44,1.247-2.974,2.302-4.605c2.591-3.836,5.276-5.565,9.592-7.29c-1.534-1.535-2.974-2.207-4.604-3.453
		c-2.877-2.302-4.126-4.125-6.907-6.522c-2.013-1.729-3.741-2.398-6.139-3.453c-1.725-0.767-2.975-1.056-4.605-1.919
		c-1.44-0.767-1.725-2.686-3.453-2.686c-5.371,0-8.346,1.919-13.429,3.453c-1.535,0.479-2.207,1.535-3.836,1.535
		c-2.686,0-3.837-2.013-5.372-4.221c-0.862-1.246-2.397-0.767-3.932-0.767c-16.884,0,1.915-6.093,7.769-6.522
		c2.974-0.194,4.893,0.672,7.673-0.384c1.056-0.384,1.44-1.344,1.919-2.302c0.961-1.728,1.728-3.07,3.07-4.605
		c4.414-5.083,8.346-7.385,14.964-8.441c2.974-0.479,4.798-1.246,7.673-2.302c2.495-0.862,4.988-0.673,6.139-3.07
		c0.288-0.672,1.151-0.767,1.151-1.535c0-3.263-2.591-4.604-3.453-7.673c-0.289-1.056,0-2.013-0.384-3.07
		c-0.574-1.439-2.013-1.63-3.07-2.686c-1.63-1.63-2.59-2.879-4.605-3.836c-2.301-1.151-3.836-1.151-6.139-2.302
		c-2.591-1.247-3.932-2.686-6.14-4.605c-3.932-3.358-4.125-7.385-4.987-12.662c4.316,2.109,7.195,2.59,11.511,4.605
		c1.535,0.672,1.728,2.013,3.07,3.069c0.805,0.643,9.213,8.451,6.906,3.837c-1.151-1.63-1.63-3.07-3.07-4.605
		c-2.302-2.495-4.893-2.974-7.673-4.987l0.384-1.535c1.246-0.193,2.013-0.289,3.263-0.384l11.318,1.919
		c-2.877-3.837-3.548-6.907-6.523-10.743c-2.492-3.263-5.371-3.742-8.825-6.139c-0.767-0.479-1.246-0.961-1.919-1.535
		c-0.574-0.479-1.535-0.672-1.535-1.535c0-1.246,1.151-1.823,1.151-3.07c0-2.112-1.919-2.879-3.07-4.604
		c-1.151-1.728-1.823-3.07-3.07-4.605c-2.781-3.263-4.893-5.083-8.441-7.673c-3.932-2.879-4.027-6.907-5.372-11.511
		c-0.672-2.496-1.534-3.933-2.302-6.523c-0.673-2.495-0.958-4.125-1.919-6.523c-0.574-1.344-1.725-2.013-1.919-3.453
		c-1.246-7.291-1.246-11.894-4.221-18.801c-1.823-4.221-4.411-6.044-6.522-10.359c-1.342-2.112-1.824-3.742-2.686-6.139
		c-0.862-2.495-1.824-3.836-3.07-6.139c-2.207-4.221-4.509-7.1-8.825-9.209c-2.302-1.151-3.837-1.534-6.139-2.685
		c-2.876-1.44-4.509-2.975-7.673-3.453c-3.548-0.577-5.946,0.095-9.209-1.535l0.767-3.07c-0.672-2.686-2.301-4.125-2.301-6.906
		c0-3.548,2.301-5.372,4.604-8.058c2.686-3.165,3.548-5.66,5.756-9.208c0.961-1.63,1.63-2.781,2.302-4.605
		c0.672-1.823,0.862-3.932,2.685-4.604c1.056-0.384,2.014-0.096,3.07-0.384c0.673-0.194,0.862-0.961,1.535-1.151
		c1.728-0.578,3.07-0.578,4.605-1.535c0.479-0.289,0.384-1.056,0.767-1.535c1.344-1.63,2.112-2.879,3.453-4.605
		c1.345-1.728,3.359-1.728,4.605-3.453c2.013-2.782,2.975-4.988,5.756-6.907c3.165-2.112,5.565-2.302,9.208-3.837
		c3.647-1.535,6.523-4.03,6.523-8.057c0-1.246-1.151-1.824-1.151-3.07c0-2.013,1.919-2.686,3.453-3.837
		c1.535-1.151,2.591-2.013,3.837-3.453c-1.151-0.673-2.013-1.247-3.07-1.919c0.479-0.193,1.056-0.193,1.535-0.384
		c0.193,0-0.191-0.767,0-0.767c2.207-0.862,3.837,0.288,6.14-0.384c1.919-0.479,2.781-1.63,4.604-2.302
		c2.975-1.151,5.083-1.151,8.058-2.302c1.151-0.479,1.919-1.439,3.07-1.919c2.302-1.055,4.125-0.767,6.522-1.535
		c1.44-0.479,1.919-1.728,3.07-2.685c2.302-2.014,3.165-4.51,6.139-4.988c4.316-0.768,6.716-1.056,11.127-1.535
		c1.535-0.095,2.397-0.767,3.836-1.151c1.056-0.288,2.207-0.095,3.07-0.768c0.479-0.288,0.384-1.055,0.767-1.535
		c1.246-1.535,1.824-2.879,2.686-4.604c0.862-1.824,1.728-2.975,2.302-4.988c-3.742-0.577-5.851-1.535-9.209-3.07
		c-3.643-1.63-6.329-1.728-9.208-4.604c-0.095,1.341-0.289,2.108-0.384,3.453h-14.485c-2.588,0-3.739-1.535-6.234-1.918
		c-3.548-0.578-5.946,0.095-9.209-1.535c-3.26-1.631-4.509-3.647-7.673-5.372c-2.013-1.056-3.548-2.013-4.221-4.221
		c-0.574-1.919-0.095-4.125-1.919-4.987c-0.479-0.194-0.957,0.384-1.535,0.384c-1.918,0.095-2.974,1.055-4.604,1.919
		c-4.316,2.207-5.756,5.083-9.593,8.057c-0.672,0.479-1.341,0.673-1.918,1.151c-2.109,1.919-2.876,3.932-5.372,5.371
		c-3.26,1.919-5.945,1.631-9.208,3.453c0.862,1.725,1.919,2.686,3.453,3.837c-3.069,4.221-7.195,4.509-12.278,5.756
		c-3.26,0.766-5.083,1.534-8.441,1.534c-3.644,0-5.945-0.862-8.825-3.069c-2.207-1.631-4.028-2.112-6.523-3.07
		c-1.824-0.673-3.453-1.824-3.453-3.837c0-4.605,2.495-6.906,2.686-11.511c0-1.824,0-2.974,0.767-4.605
		c0.673-1.344,1.919-1.823,2.686-3.069c0.577-1.056,1.055-2.113,1.919-3.07c0.288-0.384,1.151-0.096,1.535-0.384
		c0.672-0.577,0.767-1.344,0.767-2.302c0-3.165-2.591-4.509-4.988-6.523c-0.958-0.768-1.44-1.918-2.686-2.302
		c-1.725-0.578-3.07,0-4.988,0c-6.617,0.19-10.264-0.384-16.882-1.151c-6.33-0.768-10.36-0.479-15.732-3.837
		c-1.919-1.151-2.686-2.686-3.837-4.605c-1.725-2.879-2.974-4.604-4.221-7.673c-1.056-2.591-2.685-4.03-2.685-6.907
		c0-5.66,2.207-8.73,3.453-14.197c1.63-7.099,8.92-7.385,12.278-14.197c4.605,2.302,6.234,5.083,8.442,9.593
		c5.182-1.247,7.867-3.359,12.662-5.756c2.496-1.246,4.125-2.302,6.906-2.302c1.535,0,2.398,0.673,3.837,0.384
		c3.453-0.672,4.605-3.07,7.291-5.371c2.59-2.207,4.604-4.221,4.604-7.674c0-1.151-0.767-1.919-0.767-3.07
		c0-5.083,1.151-9.208,5.372-11.894c1.535-0.961,2.974-1.055,4.605-1.919c3.453-1.823,4.699-4.316,8.057-6.139
		c1.728-0.961,2.974-1.63,4.605-2.686c6.139-0.479,9.402-2.781,15.348-4.221c1.918-0.479,3.836-0.479,4.604-2.302
		c1.728-4.126,0.961-7.385,3.453-11.128c1.151-1.823,1.919-3.165,3.837-4.22c1.728-0.961,3.453-1.056,4.604-2.686
		c1.535-2.112,2.207-3.837,3.453-6.139c1.824-3.358,3.932-4.699,5.756-8.057c1.246-2.302,1.919-5.372,4.604-5.372
		c3.359,0,4.893,2.397,7.674,4.221c3.263,2.207,5.371,3.259,9.208,4.221c2.879,0.672,4.798,0.19,7.674,0.767
		c1.918,0.384,2.781,1.63,4.604,2.301c1.728,0.574,2.879,0.673,4.605,1.535c-0.384,0.767-1.151,1.342-1.151,2.302
		c0,2.397,3.07,2.493,4.221,4.605c0.862,1.63,0.384,2.876,0.384,4.794c0,2.017-1.056,3.07-1.919,4.798
		c-2.975,5.562-4.893,8.631-8.442,13.813c-2.492,3.644-4.22,5.756-7.29,8.825c-1.63,1.631-2.591,2.782-4.221,4.221
		c-0.479,0.384-0.573,1.151-1.151,1.535c-1.056,0.767-3.069,0.574-3.069,1.919c0,1.919,1.534,2.686,1.534,4.605
		c0,2.974-2.492,4.125-3.453,6.906c-0.384,1.056-0.574,2.013-0.767,3.07c4.22,0.288,6.522,0.479,10.743,1.151
		c-1.246,3.07-3.837,4.316-3.837,7.673c0,1.919,1.247,2.877,1.919,4.605c-3.453,2.013-5.945,2.397-9.208,4.605
		c-0.673,0.384-0.767,1.246-1.535,1.534c-2.397,1.056-5.756,1.151-5.756,3.837c0,1.342,1.344,2.302,2.686,2.302
		c3.165,0,4.316-2.781,6.523-4.988c3.647-3.647,7.099-4.987,12.278-4.987c1.823,0,2.974-0.479,4.604-1.151
		c0.479-0.193,1.151,0.288,1.535,0c1.056-0.767,1.247-2.013,1.919-3.07c1.728-2.59,3.263-3.932,4.988-6.523
		c0.767-1.246,1.056-2.302,1.919-3.453c1.246-1.631,2.302-2.879,4.22-3.453c1.728-0.577,2.879-0.095,4.605-0.384
		c4.03-0.767,5.467-3.453,9.208-4.988c2.782-1.151,4.893-0.767,7.674-1.918c4.221-1.729,7.002-4.317,8.057-8.825
		c1.344,0.767,2.207,1.535,3.837,1.535c4.221,0,6.906-0.767,10.743-2.302c2.591-1.055,4.03-2.686,6.907-2.686
		c2.397,0,3.741,1.535,6.139,1.535c4.699,0,6.811-3.453,11.511-3.453c0.465,0,0.885,0.057,1.276,0.155l0,0
		c1.728-4.22,2.562-8.023,5.248-11.666c1.728-2.397,3.932-3.07,6.522-4.605c4.03-2.495,5.756-4.604,9.593-7.29
		c4.699-3.263,6.618-5.756,11.127-9.208c3.358-2.591,5.467-3.647,8.825-6.139c2.302-1.728,3.359-3.837,6.139-4.605
		c1.056-0.288,2.013,0.096,3.07,0c2.59-0.384,4.22-1.246,6.522-2.685c6.716-4.126,8.826-8.635,12.662-15.348
		c3.165-5.467,6.907-7.674,9.593-13.429c1.439-3.07,2.207-5.083,3.836-8.058c0.961-1.728,1.44-3.837,3.453-3.837
		c1.344,0,2.013,1.342,3.07,1.919c3.741,2.302,5.565,4.699,8.441,8.058c3.359,3.932,7.385,4.604,12.662,4.604
		c7.385,0,11.416-0.767,18.801-1.918c0.767-0.096,1.246-0.673,1.919-0.767c6.044-1.535,9.592-2.782,14.58-6.523
		c-3.26-2.397-4.221-5.276-5.372-9.208c-1.439-5.181-3.358-7.769-5.371-12.662c1.246,0.672,2.207,0.957,3.453,1.535
		c4.316,2.108,6.716,4.22,11.511,4.22c3.933,0,6.618-0.288,9.977-2.302c1.439-0.862,1.919-2.013,3.453-2.685
		c3.742-1.631,6.139-2.302,9.209-4.988c2.397-2.013,4.22-2.879,6.139-5.372c2.302-2.974,2.975-6.044,6.523-6.906
		c2.495-0.673,3.932,0.095,6.522,0.384c0-4.509,0.578-7.1,1.151-11.511c0.384-3.263,0.384-5.467,1.918-8.442
		c0.193-0.479,0.096-1.151,0.384-1.535c1.246-1.439,2.879-0.961,4.605-1.534c3.07-1.151,4.414-3.453,7.673-3.453
		c0.673,0,0.961,0.672,1.535,0.767v7.769c0,1.246,1.151,1.823,1.535,2.974c1.728,4.699,3.914,9.383,8.806,10.534l0,0
		c0-3.07-0.365-2.956-0.365-6.026c0-1.728-0.288-3.263,0.767-4.509c1.631-1.919,3.932-1.535,6.14-2.686
		c3.647-2.013,5.756-3.837,9.592-5.372c7.002-2.876,8.058-10.264,8.058-17.938v-5.755c0-3.739-0.289-6.041,0.384-9.688
		c0.672-3.548,1.534-5.562,1.534-9.208c0-7.291-0.957-11.511-1.534-18.801c-0.191-2.397-0.767-3.837-1.151-6.139
		c-0.574-3.453-0.289-5.755-1.151-9.208c-0.863-3.548-1.918-5.562-1.918-9.208c-0.574-3.837-1.726-6.044-3.07-9.593
		c5.756-0.957,8.824-2.397,14.58-3.069c1.824-0.19,2.879,0.288,4.604,0c3.549-0.574,4.125-4.51,4.988-8.058
		c1.056-4.22,1.247-6.713,1.918-11.127c5.083,1.246,7.867,1.44,12.662,3.07c3.453,1.151,5.083,3.07,8.442,4.604
		c1.823,0.767,3.07,0.961,4.988,1.535c5.372,1.728,8.346,3.453,14.007,3.453c2.204,0,3.836-0.191,5.562-1.535
		c1.535-1.151,1.151-3.07,1.535-4.987c0.193-1.056,0.672-1.919,0.767-3.07c0.288-3.26-0.863-5.66,0.767-8.442
		c0.961-1.725,2.496-2.301,4.22-3.453c2.495-1.631,3.933-2.975,5.756-5.372c1.919-2.493,1.823-4.605,2.686-7.673
		c0.479-1.919,1.246-3.165,1.918-4.988c1.535-4.125,2.112-6.713,3.836-10.743c2.302-5.467,6.812-6.907,9.209-12.278
		c1.728-3.837,1.055-6.523,1.535-10.744c0.384-3.069,0.862-4.987,2.302-7.674c0.961-1.824,2.302-2.781,2.302-4.893v-9.399
		c0-2.591,0.673-4.221,1.919-6.428c0.673-1.246,2.781-0.862,3.07-2.301c0.193-1.056,0-1.919,0-3.07
		c0.193-4.893-0.574-8.058,0.767-12.662c1.344-4.699,6.427-4.51,10.743-6.907c4.509-2.492,6.139-6.713,6.139-11.894
		c0-2.876-1.631-4.316-2.686-6.906c-1.246-3.165-0.767-5.372-0.767-8.826c0-4.027-0.289-6.713,1.151-10.36
		c0.479-1.151,1.918-1.725,1.918-3.07c0-2.013-1.725-3.07-3.454-3.836c-1.151-0.479-1.823-1.151-3.165-1.151h-9.019
		c-3.07,0-4.89,0.961-7.77,1.918c-2.876,0.961-4.794,0.863-7.673,1.919c-2.493,0.863-3.741,2.302-6.139,3.453
		c-4.794,2.397-7.864,3.358-12.662,5.756c-3.836,1.919-5.467,4.125-9.208,6.139c-3.837,2.013-6.618,2.112-10.743,3.453
		c-4.126,1.344-4.605,5.276-6.523,9.208c-1.055,2.112-3.741,1.247-6.139,1.535c-1.824,0.193-2.876,0.862-4.604,1.151
		c-4.316,0.862-6.713,1.919-11.127,1.919c-5.563,0-8.346-3.453-13.909-3.453h-7.867c-2.588,0-4.028,1.535-6.618,1.535
		c-2.397,0-1.629-3.548-2.302-5.755c-0.768-2.686-2.974-3.549-5.372-4.988c-4.411-2.686-5.371-7.097-5.371-12.374v-17.266
		c0-2.782-2.493-3.647-3.837-6.045c-1.342-2.397-2.302-4.125-2.302-6.906c0-2.877,1.44-4.316,2.686-6.907l-1.535-0.384
		c-2.492,0.578-3.932,0.767-6.522,0.767c-4.51,0-7.385-1.341-10.744-4.22c-3.358-2.877-5.371-4.699-7.673-8.442
		c-4.794-7.673-7.291-13.717-15.732-16.882c-1.725-0.574-2.686-1.535-4.605-1.535c-3.741,0-5.467,3.069-9.208,3.069
		c-2.686,0-3.837-1.823-6.139-3.069c-2.302-1.247-4.028-1.919-6.14-3.453c-1.151-0.767-1.246-2.591-2.686-3.07
		c-1.055-0.384-2.013-0.095-3.07-0.384c-2.397-0.767-3.548-2.686-6.139-2.686c-3.932,0-5.276,3.837-9.209,3.837
		c-1.15,0-2.013-0.479-3.069-0.767c-5.66-1.63-9.015-4.316-12.278-9.208c-2.686-4.126-4.221-6.618-6.907-10.743v-3.932
		c0-5.372,3.453-7.963,3.453-13.334c0-0.673-0.673-0.961-0.767-1.535c-0.673-2.495-2.013-3.932-3.453-6.139
		c-1.439-2.207-2.397-3.741-3.453-6.139c-2.301-5.083-1.341-8.826-3.836-13.813c-2.014-4.03-4.028-5.851-6.907-9.208
		c-0.957-1.151-2.108-1.729-2.686-3.07c-1.246-2.879-1.823-4.699-2.685-7.674c-1.247-4.03-2.686-6.333-2.686-10.553
		c0-1.535,0-2.588,0.384-4.028c0.193-0.862,1.151-1.344,1.151-2.301c0-1.824-1.824-2.207-3.07-3.453
		c-1.44-1.44-2.397-2.686-3.07-4.605c-1.151-3.263,0.095-5.755-0.767-9.208c-0.957-3.837-2.876-5.565-4.221-9.209
		c-0.862-2.397-1.534-3.932-2.685-6.139c-0.863-1.535-2.686-2.013-2.686-3.837c0-2.781,1.919-4.125,1.919-6.906
		c0-3.07-6.523-1.535-6.523-4.605c0-2.112,1.151-3.263,1.151-5.372c0-2.879-1.919-4.22-2.686-6.906
		c-0.957-3.548-0.957-6.523-3.836-8.825c-1.631-1.247-3.26-1.729-4.221-3.453c-1.151-2.013,0.193-4.605-1.535-6.139
		c-0.767-0.672-2.207-0.095-3.07-0.767c-1.439-1.246-1.151-3.07-2.302-4.604c-1.246-1.631-3.069-1.729-4.22-3.453
		c-0.574-0.862-0.384-1.919-0.384-3.07c-0.096-2.397,0.767-4.414-0.767-6.139c-0.767-0.961-1.919-1.056-3.07-1.535
		c-5.372-2.495-8.631-3.359-14.197-5.372c-2.013-0.673-3.165-2.302-5.372-2.302c-3.836,0-4.604,4.988-8.441,4.988
		c-1.919,0-2.781-1.246-4.221-2.302c-1.535-1.151-2.974-1.728-4.604-2.686c-1.247-0.767-1.535-2.207-2.686-3.07
		c-3.07-2.397-5.276-3.358-9.208-3.836c-1.824-0.194-2.877,0.19-4.605-0.384c-5.945-1.919-8.73-4.988-14.197-8.058
		c-2.781-1.535-4.794-2.013-7.674-3.453c-2.108-1.056-3.069-2.302-5.371-3.07l-26.859,6.522c-3.453-0.193-5.372-1.535-8.825-1.535
		c-3.932,0-6.329,0.574-9.976,1.919c-2.492,0.863-3.643,2.207-6.139,3.07c-2.591,0.862-4.316,0.958-6.907,1.919
		c-5.66,2.207-9.208,4.221-15.348,4.221c-3.932,0-6.329-0.961-9.976-2.302c-1.246-0.384-1.725-1.535-3.07-1.535
		c-1.535,0-2.108,1.151-3.07,2.302c-1.341,1.63-2.301,2.781-3.453,4.604c-2.782,4.221-4.893,6.33-7.291,10.744
		c-2.207,3.932-3.932,6.044-6.522,9.592c-1.824,2.492-2.686,4.509-5.372,6.139c-1.056,0.574-3.07,0.574-3.07,1.919
		c0,4.411,1.535,6.714,1.535,11.128c2.686,0.288,4.125-0.384,6.811-0.384c2.877,0,5.756-0.289,7.002,2.301
		c1.056,2.109,1.151,3.837,1.535,6.139c0.289,1.919,0.193,3.259,1.151,4.988c2.397,4.411,6.522,6.428,6.522,11.511
		c0,3.358-0.384,5.562-1.918,8.441c-1.056,2.013-2.591,2.686-3.837,4.605c-1.246,1.919-1.63,3.259-3.07,4.987
		c-0.384,0.479-1.055,0.384-1.535,0.767c-2.781,2.207-4.893,2.975-7.673,4.988c-1.151,0.862-1.63,2.013-2.686,3.07
		c-2.109,2.108-4.028,2.974-5.756,5.371c-4.604,6.234-5.851,10.839-7.673,18.418c0,4.509,0.289,7.48-1.535,11.511
		c-1.823,4.028-5.372,5.083-6.906,9.209c-1.342,3.548-1.151,6.044-2.686,9.592c-0.958,2.207-2.109,3.453-3.837,4.988
		c-0.479,0.383-1.151,0.288-1.535,0.767c-1.535,2.014-0.862,4.221-1.919,6.523c-1.341,2.877-2.59,4.605-3.07,7.864
		c2.398-0.191,3.742,0,6.139,0v4.319c0,2.686-1.342,4.027-1.919,6.618c-0.862,3.643-1.439,6.522-4.604,8.441
		c-2.109,1.246-3.742,1.44-6.139,1.919c-3.548,0.672-5.66,1.342-9.208,1.919c-3.932,0.573-5.756,2.492-9.209,4.604
		c-2.59,1.535-4.125,2.686-6.139,4.988c-1.44,1.728-2.109,3.165-3.837,4.605c-1.151,0.961-2.302,1.344-3.453,2.302
		c-3.358,2.879-5.371,4.316-9.208,6.522l-38.369-18.034l0,0c-5.756,7.674-9.497,11.701-13.813,20.336l-15.732,47.578v7.196
		c0,1.534,1.151,2.397,1.151,3.932c0,4.125-5.467,3.741-8.058,6.906c-1.439,1.824-1.919,3.548-3.836,4.988
		c-1.056,0.767-2.014,1.151-3.07,1.919c-1.151,0.862-0.767,2.301-0.767,3.836c0,4.798,2.879,7.868,6.906,10.36
		c2.495,1.535,4.03,2.495,6.14,4.604c2.112,2.112,3.164,4.605,6.139,4.605c2.974,0,4.413-1.919,6.906-3.453
		c2.781-1.725,4.893-2.207,8.057-2.686c4.414-0.672,7.1-1.246,11.511-1.918c2.301-0.289,3.741-1.151,6.139-1.151
		c4.03,0,6.427,1.439,9.592,3.836c2.014,1.535,3.263,2.975,5.756,3.453c0.577,0.095,0.862,0.767,1.535,0.767
		c2.879,0,3.358-2.974,5.372-4.988c1.534-1.534,2.59-2.492,3.836-4.22c2.975-4.028,6.427-6.523,11.511-6.523
		c5.661,0,8.346,2.686,13.813,4.221c1.824,0.479,2.879,0.862,4.605,1.535c7.195,2.974,12.758,4.604,16.499,11.511
		c1.823,3.453,2.207,5.949,3.453,9.592c0.193,0.767,1.056,0.961,1.535,1.535c2.301,2.686,3.836,4.414,6.906,6.139
		c2.397,1.344,3.741,2.781,6.14,4.22c3.069,1.919,5.66,2.014,8.057,4.605c0.384,0.479,1.246,0.479,1.535,1.151
		c0.862,1.919,0.767,3.263,0.767,5.372c0,5.467-0.384,8.634-1.919,13.813c-0.958,3.358-2.302,5.276-3.837,8.441
		c-0.957,1.919-1.63,3.165-2.686,4.988c-0.767,1.246-1.15,3.069-2.685,3.069c-4.221,0-6.714-2.397-9.209-5.755
		c-1.725-2.397-2.397-4.605-4.987-6.139c-3.165-1.919-5.563-2.397-9.209-3.07c-3.26-0.672-5.083-1.534-8.441-1.534
		c-5.178,0-8.057,1.63-13.046,3.069c-7.195,2.112-9.015,9.977-16.499,9.977c-2.207,0-3.358-1.056-5.372-1.919
		c-1.341-0.574-1.534-2.302-3.069-2.302c-2.493,0-2.686,3.07-3.453,5.372c-0.384,1.344-1.056,2.207-1.535,3.453
		c-1.63,4.126-4.509,7.291-9.015,7.291c-4.414,0-6.523-2.686-10.936-2.686c-2.975,0-4.221,2.397-6.139,4.605
		c-1.44,1.728-2.686,2.685-4.605,3.836c-4.699,2.879-8.057,6.045-8.057,11.512c0,4.22,1.535,6.522,1.535,10.743
		c0,1.535-1.44,2.397-2.686,3.07c-1.63,0.961-2.781,1.63-4.605,1.918c-1.823,0.289-3.069-0.19-4.987,0
		c-2.975,0.289-3.548,3.165-5.372,5.372c-3.07,3.647-6.139,4.988-10.743,6.523c-4.411,1.439-6.811,3.453-11.511,3.453
		c-3.548,0-5.661-1.341-8.442-3.453c-2.013-1.535-3.165-3.453-5.755-3.453c-6.234,0-9.304,5.083-11.894,10.743
		c-1.342,3.07-2.591,4.988-4.605,7.673c-2.302,3.07-3.644,5.277-6.907,7.291c-2.781,1.728-4.893,2.495-7.674,4.221
		c-2.876,1.728-4.699,2.879-7.674,4.604c-3.069,1.728-5.371,1.824-8.825,2.302c-3.453,0.479-5.66,1.151-9.208,1.151
		c-9.304,0-14.486-4.125-21.871-9.592c-1.823-1.342-2.492-2.877-4.22-4.221c-2.014-1.63-3.932-2.109-6.523-2.686
		c-2.302-0.479-3.741-1.151-6.139-1.151c-4.893,0-7.291,3.07-11.128,6.139c-2.301,1.823-3.932,2.781-5.371,5.371
		c-2.302,4.221-2.493,7.674-5.372,11.512c0,5.66-3.837,8.536-3.837,14.197c0,1.151,0.289,2.112,0.767,3.069
		c0.767,1.44,2.591,1.345,3.453,2.686c1.919,2.879,2.879,4.798,5.372,7.291c2.013,2.013,3.741,2.59,5.755,4.604
		c0.863,0.863,1.247,2.014,1.919,3.07c1.151,1.728,2.781,2.013,4.605,3.07c-1.535,3.165-3.165,4.699-4.988,7.673
		c-2.686,4.414-4.125,8.058-8.825,10.36c-3.26,1.63-5.756,0.767-9.208,1.918c-2.493,0.767-3.644,2.302-6.14,3.07
		c-3.453,2.591-5.756,4.605-8.825,7.674c-1.056,1.055-2.014,1.246-3.07,2.302c-2.109,2.112-2.975,3.836-4.988,6.139
		c-5.562,6.427-8.632,10.455-14.197,16.883c-4.987,5.755-10.838,5.949-18.417,6.522c-4.316,0.289-5.85,3.837-9.977,4.988
		c-0.479,0.095-1.056-0.095-1.535,0c-3.165,0.961-5.083,1.535-8.441,1.535c-9.113,0-14.292-1.535-23.405-1.535
		c-5.277,0-8.248,0.767-13.525,0.767h-23.598c-4.699,0-6.809,2.974-11.223,4.605c-4.411,1.63-7.097,2.397-11.511,3.836
		c-9.399,3.07-14.197,5.661-23.789,8.442c-7.195,2.112-11.032,4.414-17.65,7.673c-1.823,0.862-3.26,1.151-4.988,2.302
		c-3.741,2.495-5.467,4.414-9.208,6.907c-4.027,2.685-6.044,5.371-10.743,6.522c-0.574,0.095-0.862,0.767-1.535,0.767
		c-2.781,0-4.125-1.919-6.907-1.919c-2.685,0-4.987,1.344-6.906-0.384c-1.725-1.535-1.535-3.741-1.535-6.139
		c0-2.398,0.577-3.837,1.151-6.139c-1.824,0.384-2.876,1.151-4.605,1.919c-2.207,0.961-3.836,1.151-6.139,1.919
		c-3.932,1.246-6.523,2.302-10.743,2.302c-6.045,0-9.688-0.191-15.348-2.302c-1.824-0.673-2.782-1.63-4.605-2.302
		c-4.125-1.63-6.713-2.591-10.743-4.605c-1.824-0.862-2.781-2.207-4.605-3.07c-2.686-1.341-4.605-1.439-7.673-1.918
		c-7.481-1.725-12.758-1.247-19.569-4.605c-8.346-4.125-9.783-12.374-18.801-14.964c-0.478-0.095-1.055,0.095-1.534,0
		c-6.045-1.725-9.497-2.974-15.732-4.221c-2.591-0.479-4.316-1.151-6.907-1.535c-7.002-0.957-10.934-1.918-18.034-1.918
		c-19.857,0-31.174,1.246-51.031,1.918c-25.707-3.069-40.095-8.057-65.995-8.057c-8.631,0-13.62,1.535-22.254,1.535
		c-3.165,0-5.946-0.095-7.674-2.686c-2.686-4.027-3.742-7.097-7.29-10.359c-1.631-1.44-2.591-2.591-4.221-4.221
		c-2.013-2.013-4.699-2.492-5.372-5.371c-0.672-2.877-0.095-4.795-0.767-7.674c-1.918-7.769-7.29-10.648-8.825-18.418
		c-0.673-3.643-1.151-6.139-3.07-9.208c-1.151-1.823-2.302-2.781-4.22-3.837c-1.631-0.862-3.453-1.534-3.453-3.453
		c0-2.591,3.07-3.453,3.07-6.045c0-0.767-0.096-1.246,0-2.013h-13.718c-2.686,0-3.932-1.724-6.234-3.07
		c-3.07-1.725-4.794-3.259-7.673-5.371c-5.372-4.028-8.346-6.329-13.429-10.743c-5.277-4.605-8.249-7.481-14.197-11.128
		c-3.549-2.207-5.661-3.836-9.593-5.371c-1.725-0.673-2.781-1.535-4.699-1.535h-31.367l-25.707-3.837h-7.962
		c-4.795,0-7.769,0.577-12.374-0.767c-3.548-0.957-5.562-2.013-9.208-2.686c-3.932-0.767-3.837-5.178-5.372-8.825
		c-0.862-2.013-2.397-2.686-3.453-4.605c-1.631-2.974-2.686-4.987-2.686-8.441c0-2.877,1.439-4.509,3.453-6.522
		c1.631-4.126,2.782-7.291,4.988-11.128c2.495-4.411,5.372-7.097,5.372-12.278c0-3.165-1.919-4.604-2.686-7.673
		c-0.384-1.44-0.19-2.302-0.384-3.837l2.686-12.662c-0.191-2.109-0.191-3.453-0.768-5.372c-1.246-3.836-3.359-5.467-4.988-9.208
		c-1.535-3.548-2.108-5.756-3.837-9.208c-1.63-3.359-3.932-4.699-6.522-7.291c-2.877-2.876-3.453-5.467-4.988-9.208
		c-1.055-2.686-2.686-4.028-3.453-6.907c-0.863-3.165-1.631-4.794-3.07-7.673c-0.767-1.63-1.44-2.781-1.919-4.605
		c-0.479-1.823-0.767-4.22-2.686-4.22s-2.974,0.384-4.893,0.384c-4.988,0-9.111-0.574-11.99-4.605
		c-1.535-2.109-1.439-4.411-3.453-6.139c-2.686-2.397-5.563-1.63-9.209-1.919c-4.22-0.288-6.713-0.767-10.743-1.918
		c-7.769-2.207-10.934-7.291-16.115-13.429c-2.59-3.07-4.316-5.372-8.057-6.907c-1.725-0.673-2.877-1.151-4.605-1.919
		c-2.686-1.151-5.372-2.397-5.372-5.371c0-2.109,0.863-3.742-0.383-5.372c-1.151-1.535-2.975-1.535-4.605-2.686
		c-1.151-0.767-1.44-1.919-2.302-3.07c-0.577-0.767-1.535-0.957-1.535-1.918c0-3.453,2.302-5.083,3.07-8.442
		c0.767-3.07,1.724-5.467,3.453-8.057l0,0c-4.221,0-6.714-1.151-10.744,0c-4.22,1.151-8.057,2.492-12.278,3.836L546.849,297.648z
		 M1346.85,1581.868c-2.495,0-3.647-1.918-6.139-1.918c-1.344,0-2.112,0.767-3.07,1.535c-0.479,0.383-0.289,1.246-0.767,1.534
		c-0.961,0.673-1.919,0.673-3.07,1.151c-1.151,0.479-1.823,1.151-3.069,1.151c-0.767,0-0.479-1.246-1.151-1.535
		c-1.63-0.862-2.782-1.151-4.605-1.535l-1.535,0.767c1.535,1.535,2.591,2.495,3.837,4.221c-2.207,1.151-3.548,1.919-5.756,3.07
		c-3.548,1.919-4.22,4.988-7.29,7.673c-1.728,1.44-2.591,2.781-4.605,3.837c-3.453,1.919-6.906,3.647-6.906,7.673
		c0,3.07,2.685,4.51,2.685,7.579v9.783c0,5.564,4.605,8.156,9.593,10.647c5.083,2.496,7.29,6.907,13.045,6.907
		c2.302,0,3.358-1.63,5.371-2.686c2.207-1.151,3.644-2.108,6.139-2.686c3.07-0.767,5.178-0.384,8.057-1.535
		c1.247-0.478,1.919-1.439,3.07-1.918c3.359-1.535,5.66-1.919,9.208-3.07c2.207-0.673,4.221-0.096,6.139-1.535
		c1.63-1.151,1.919-2.975,2.302-4.988c0.767-3.548,1.535-5.562,1.919-9.208c0.193-1.824,0-2.876,0.384-4.605
		c0.767-3.259,2.013-4.893,3.069-8.057c1.63-4.893,4.126-7.195,6.907-11.511c1.919-2.975,3.837-4.893,3.837-8.442
		c0-1.725-1.63-2.207-2.686-3.453c-1.342-1.535-2.493-3.07-4.605-3.07c-1.535,0-1.823,1.919-3.07,2.686
		c-2.301,1.439-4.125,2.301-6.906,2.301c-5.276,0-7.769-3.836-13.046-3.836c-1.246,0-1.63,1.439-2.686,1.919
		c-0.479,0.19-1.055-0.096-1.535,0C1348.769,1581.101,1348.097,1581.867,1346.85,1581.868L1346.85,1581.868z"/>
	<g>
		<polygon fill="#FFDE00" points="417.854,752.082 386.723,656.271 355.592,752.082 254.85,752.082 336.352,811.297 
			305.221,907.108 386.723,847.893 468.225,907.108 437.094,811.297 518.596,752.082 		"/>
		<polygon fill="#FFDE00" points="610.914,672.518 628.19,701.313 631.138,667.862 663.863,660.329 632.96,647.188 635.908,613.737 
			613.861,639.067 582.958,625.926 600.236,654.721 578.189,680.051 		"/>
		<polygon fill="#FFDE00" points="697.59,761.003 702.339,794.246 718.037,764.561 751.12,770.317 727.738,746.214 743.436,716.528 
			713.287,731.318 689.906,707.215 694.655,740.458 664.506,755.247 		"/>
		<polygon fill="#FFDE00" points="753.679,871.52 720.12,872.724 708.604,841.18 699.379,873.468 665.82,874.672 693.677,893.424 
			684.452,925.712 710.894,905.013 738.752,923.764 727.236,892.22 		"/>
		<polygon fill="#FFDE00" points="634.129,936.562 613.151,962.784 581.73,950.936 600.186,978.99 579.209,1005.212 
			611.593,996.328 630.049,1024.382 631.608,990.838 663.992,981.954 632.571,970.106 		"/>
	</g>
</g>
</svg>
