<?xml version="1.0" encoding="UTF-8" standalone="no"?>
<svg xmlns:rdf="http://www.w3.org/1999/02/22-rdf-syntax-ns#" xmlns="http://www.w3.org/2000/svg" height="220.31" viewBox="0 0 639.375 220.3125" width="639.38" version="1.1" xmlns:cc="http://creativecommons.org/ns#" xmlns:dc="http://purl.org/dc/elements/1.1/">
<path d="m0.22139 190.08 0.24736-30.24l5.3906-1.7063 5.3906-1.7063v-28.768-28.768l2.8125-1.2449 2.8125-1.2449v-5.9822-5.9822l1.875-1.0035 1.875-1.0035v-3.7618-3.7618l2.2758-2.1092 2.2758-2.1092 0.30228-3.6988 0.30228-3.6988 2.5602-1.2211 2.5602-1.2211 1.8929 1.0131 1.8929 1.0131v3.2153 3.2153l1.8262 0.97738 1.8262 0.97738 0.28313 4.915 0.28313 4.915 2.1094 0.92543 2.1094 0.92543v5.4027 5.4027l1.875 1.875c1.0312 1.0312 2.2969 1.875 2.8125 1.875h0.9375v9.6562 9.6562l1.125 1.125c0.61875 0.61875 1.8844 1.125 2.8125 1.125h1.6875v-15.944-15.944l2.3438-2.0379 2.3438-2.0379v-2.1281-2.1281l1.3161-0.74971 1.3161-0.74971 0.32457-2.2963 0.32457-2.2963 3.0185-1.7578 3.0185-1.7578 2.8114 1.6608c3.976 2.3487 3.8421 1.0382 3.833 37.538l-0.0083 33.194 1.4608 0.56055 1.4608 0.56056 0.94285-0.94285 0.94285-0.94284 0.02973-21.916 0.02973-21.916 1.0111-1.2404c0.55609-0.68222 2.6213-2.0619 4.5894-3.0659l3.5784-1.8255 0.03372-1.6216c0.117-5.465 11.447-12.912 15.967-10.492l1.8134 0.97048 0.0143 2.5451c0.0174 3.0851 0.73954 4.2647 3.5013 5.719l2.1094 1.1108v2.1751 2.1751l3.0469 0.91618 3.0469 0.91618-0.32189 1.3288c-0.17705 0.73085-0.0329 5.6253 0.32038 10.876l0.64227 9.5476 2.687 0.93669 2.687 0.9367 0.0582 38.237 0.0582 38.237 0.83714 0.83713 0.83713 0.83713 0.9723-0.60092 0.97231-0.60093-0.52944-22.708-0.52943-22.708 1.9826-1.7859 1.9826-1.7859v-3.997-3.997l3.1913-1.9723 3.1913-1.9723 2.3304 1.0618 2.3304 1.0618 0.54835 3.4122 0.54836 3.4122 1.8679 1.1606 1.8678 1.1606 0.26519 10.558 0.26512 10.558h3.7372 3.7372l0.3592-1.8652c0.19756-1.0258 1.1526-2.4208 2.1222-3.1l1.763-1.2349v-4.265-4.265l2.3438-1.8436 2.3438-1.8436v-3.649-3.649l1.875-1.0035 1.875-1.0035v-9.1145-9.1145l4.2123-2.5444 4.2123-2.5443 1.3203 0.50664c1.3859 0.53183 2.4081 3.2738 2.4298 6.5176 0.007 1.057 0.54014 2.4492 1.1847 3.0936l1.1719 1.1717 0.0965 13.159 0.0965 13.159 2.4816 2.3011 2.4816 2.3011v22.931 22.931h1.0096c0.55529 0 2.2428-1.2332 3.75-2.7404l2.76-2.74v-3.4186-3.4186l2.1034 0.29958 2.1033 0.29958 0.47478 2.5089 0.47478 2.5089 4.2188 3.3414c2.3203 1.8377 4.9079 3.3454 5.7503 3.3504l1.5315 0.009 3.3903-3.7527 3.3903-3.7527v-2.341-2.341h2.3259 2.3259l0.59139 2.3563 0.5914 2.3563 4.246 3.7374c5.1099 4.4979 5.7984 4.5547 10.043 0.82783l3.3139-2.9096v-2.7154-2.7154h2.2693 2.2693l0.57112 2.6003 0.57112 2.6003 3.318 2.6475c4.3486 3.4699 4.3566 3.4517 4.1887-9.5274l-0.14437-11.16 6.5291-10.69 6.5291-10.69 1.715-0.25264 1.7149-0.25262 6.5625 4.3507c11.502 7.625 24.608 15.373 26.004 15.373h1.3515l1.0706-2.1094c1.0754-2.1188 7.2258-12.916 9.1855-16.125l1.0489-1.7178 2.2329 0.56041c1.2281 0.30824 6.6623 3.4682 12.076 7.0222 5.4138 3.554 11.269 7.2638 13.012 8.244 1.7431 0.98018 4.052 2.2898 5.1308 2.9102l1.9615 1.1281 1.6189-1.465c0.89036-0.80577 2.3892-3.0009 3.3308-4.8781 0.94156-1.8772 2.9283-5.6279 4.415-8.3349l2.703-4.9219h1.5683c0.86257 0 6.0727 2.9479 11.578 6.551 5.5054 3.603 12.158 7.6396 14.784 8.9701l4.774 2.4192 1.0996-0.42198c0.6048-0.23208 3.1988-4.3166 5.7645-9.0767 2.5656-4.7601 5.1729-8.8554 5.7939-9.1008l1.1291-0.4461 5.9022 3.5746c3.2462 1.966 7.1678 4.4843 8.7147 5.5961 5.5408 3.9825 17.24 10.685 18.65 10.685h1.4379l0.26832-9.1406 0.26832-9.1406 16.919-0.0613 16.919-0.0613 1.1027-0.68148 1.1027-0.68149 0.037-61.236 0.0369-61.236 1.4525-4.891 1.4525-4.891 3.2832-3.1884 3.2832-3.1884 3.6204-0.97487 3.6204-0.97487 5.0401 0.21091 5.0401 0.21091 3.7202-2.9897 3.7202-2.9897 3.2625-0.11501c1.7944-0.06325 5.5828 0.18361 8.4188 0.54858l5.1562 0.66359 5.4385-4.7779 5.4385-4.7779 2.4405-0.61254 2.4405-0.61254 6.397 2.0603 6.397 2.0603 7.7552-2.4818 7.7552-2.4818 5.625-0.066907 5.625-0.066907 3.8388 1.9774 3.8388 1.9774 3.0934 3.5232c1.7014 1.9378 3.9272 5.4431 4.9462 7.7896s2.8329 5.5783 4.0309 7.1818l2.1781 2.9154 4.9744 3.0938c15.216 9.4634 20.109 13.857 23.328 20.947l1.7612 3.8784 0.0206 3.6412c0.0113 2.0027-0.46902 5.2754-1.0674 7.2727l-1.088 3.6315-3.1701 3.7035-3.1701 3.7035-5.9441 2.9263-5.9442 2.9263-4.0946 0.51278-4.0946 0.51278 0.9375-0.89843c0.51562-0.49414 3.2578-1.8314 6.0938-2.9717 2.8359-1.1403 6.806-3.214 8.8224-4.6081l3.6662-2.5348 2.184-4.6901 2.1841-4.6901 0.004-3.75c0.002-2.0625-0.41391-5.2541-0.92461-7.0925l-0.92854-3.3425-3.2874-3.8406-3.2874-3.8406-6.3257-3.9419c-3.4791-2.168-8.1551-5.6856-10.391-7.8169l-4.0652-3.8751-3.1539-6.2126-3.1539-6.2126-3.7137-2.9413c-7.8652-6.2294-12.582-6.9549-22.048-3.3917-3.4127 1.2845-8.4681 2.6015-11.234 2.9266l-5.0295 0.59112-4.3818-2.5679-4.3818-2.5679-2.9268 0.58536-2.9268 0.58536-3.2253 3.768c-1.7739 2.0724-4.4276 4.3898-5.8971 5.1497l-2.6718 1.3817h-4.2212-4.2212l-2.4055-1.096-2.4055-1.096-2.5605 2.4525c-1.4083 1.3489-4.1105 3.1-6.005 3.8914l-3.4445 1.4389-5.2018-1.0447-5.2018-1.0447-2.8985 1.2006-2.8985 1.2006-2.2832 3.3601-2.2832 3.3601v2.6642 2.6642l6.7969-0.56418c12.045-0.99983 20.576-1.1198 33.984-0.47801l13.125 0.62827 9.7851-1.0993 9.7851-1.0993 6.8959 1.4409 6.8959 1.4409 7.4981-2.6641 7.498-2.6641 3.3591 0.54511 3.3591 0.54511 1.7587 1.5916c0.96729 0.87539 1.7587 2.2042 1.7587 2.9529v1.3613l-1.6406-0.70009c-0.90234-0.38505-3.3953-1.3623-5.5399-2.1717l-3.8992-1.4716-5.243 2.6527-5.2429 2.6527-5.3891-0.55243c-2.97-0.295-6.45-0.662-7.74-0.806l-2.34-0.264 0.12 2.344c0.0656 1.2891 0.82136 24.703 1.6794 52.031 0.85801 27.328 1.7929 53.59 2.0775 58.359l0.51751 8.6719h10.545 10.545l0.61509 18.984c0.3383 10.441 0.6162 24.785 0.61755 31.875l0.002 12.891h-293.45-293.45l0.24736-30.234zm40.801-33.489 0.24131-60.286-1.0507-1.266-1.0507-1.266-0.84369 0.52143-0.84369 0.52143 0.45185 45.171c0.24852 24.844 0.46504 52.484 0.48116 61.421l0.02931 16.25 1.1719-0.39054 1.1719-0.39054zm65.135-4.2451c-0.1366-35.062-0.46104-64.699-0.72099-65.859l-0.47264-2.1094h-1.8621-1.8621l0.0671 64.773c0.0369 35.625 0.30381 65.39 0.59304 66.143l0.52589 1.3704 1.99-0.28394 1.9901-0.28394-0.24834-63.75zm337.31 58.259c0.0157-0.0738 0.28464-4.0248 0.59757-8.7802l0.56896-8.6461-2.5356-0.96405-2.5356-0.96405-5.0932 0.59861-5.0932 0.5986v9.2012 9.2012l5.8594 0.27911c4.9633 0.23643 8.1122 0.0359 8.2317-0.52432zm-55.441-1.7256 0.81359-2.1584-0.14769-6.7752-0.1477-6.7752-0.9995-0.9995-0.9995-0.9995-7.8816 0.27467-7.8816 0.27467-0.27162 8.8279-0.27162 8.8279 1.054 0.65138c0.57969 0.35827 4.3988 0.732 8.4868 0.83053l7.4328 0.17915zm21.928 0.84537c0.25643-0.66823 0.349-4.7273 0.20573-9.0202l-0.26051-7.8052-1.2773-0.80925-1.2773-0.80924-7.189-0.0143c-3.9539-0.008-7.8563 0.24172-8.6719 0.5547l-1.5 0.58v8.6497c0 10.551-0.68212 9.8997 10.368 9.8997h9.1184zm17.346-8.332 0.26757-9.0782-4.0176-0.60211c-2.2097-0.33116-5.6784-0.46471-7.7082-0.2968l-3.6907 0.30531 0.0298 5.1562c0.0164 2.8359 0.0952 7.1779 0.17504 9.6488l0.14523 4.4926 7.2656-0.27381 7.2656-0.27381zm-147.56 7.1265c0.73161-1.9065 0.71609-13.342-0.0218-16.095l-0.56528-2.1094h-5.4009-5.4009l-1.0886 1.3117-1.0886 1.3117 0.11373 6.8914c0.0625 3.7903 0.31825 7.6297 0.56824 8.5321l0.45451 1.6406h5.9303 5.9303l0.56906-1.4829zm16.507-7.8151v-9.2981l-6.6456-0.3113-6.6456-0.31131-0.85406 1.0331-0.85404 1.0331 0.60876 8.5763 0.60876 8.5763h6.8909 6.8909zm17.812-0.0769v-9.375h-7.5-7.5v8.75c0 10.496-0.40264 10 8.125 10h6.875zm19.499 1.886c0.15397-3.8611 0.0405-7.9744-0.25224-9.1406l-0.53219-2.1204h-7.9509-7.9509v9.4115 9.4115l8.2031-0.27088 8.2031-0.27087zm17.822 0.92646c0.15945-3.3516 0.0349-7.4648-0.27685-9.1406l-0.56675-3.0469h-7.4575-7.4575v9.4129 9.4129l7.7344-0.27228 7.7344-0.27229zm15.916-2.5781-0.26832-9.1406h-6.5625-6.5625l-0.27481 7.8904c-0.15114 4.3397-0.0589 8.453 0.20495 9.1406l0.47976 1.2502h6.6259 6.6259zm128.87 7.6095 1.6406-0.47024v-6.0306-6.0306h-10.781-10.781l0.36958 11.481c0.0728 2.2629 8.115 1.3975 19.552 1.0502zm30.234-6.4376v-6.5625h-9.8438-9.8438l-0.28297 6.0084-0.28299 6.0084 1.2205 0.7922 1.2205 0.79219 8.9062-0.23808 8.9062-0.23807zm30.938 0v-6.5625h-9.8438-9.8438l-0.28502 5.52c-0.15676 3.036-0.0589 6.1094 0.2176 6.8298l0.50264 1.3098 9.6261-0.26735 9.6261-0.26736zm-420.07-7.7344-0.63876-12.891-1.2739-3.75c-0.70067-2.0625-1.2801-5.5181-1.2876-7.679l-0.0136-3.9291-1.0423-0.64418-1.0423-0.64419-0.81833 1.292-0.81832 1.292 0.0188 5.1562 0.0188 5.1562 1.3398 2.3438 1.3398 2.3438 0.0332 3.4441c0.0183 1.8943 0.44646 5.4802 0.95154 7.9688 0.50507 2.4886 1.1637 6.5286 1.4637 8.9778l0.54539 4.4531h0.93139 0.9314l-0.63876-12.891zm-70.714-17.992v-10.257l-0.9033-0.55827-0.9033-0.55827-1.9092 1.9092-1.9092 1.9092 0.04115 1.6406c0.02263 0.90235 0.64909 3.3281 1.3921 5.3906 0.74304 2.0625 1.3573 5.332 1.3651 7.2656l0.01412 3.5156h1.4062 1.4062zm431.02 8.4418c0.12891-0.0328 0.23438-1.958 0.23438-4.2783v-4.2188l-5.3906-0.20181c-8.6289-0.32304-13.926-0.14109-15.699 0.53923l-1.6504 0.6333 0.55549 3.4232 0.55551 3.4232 1.2051 0.81393 1.2051 0.81393 9.375-0.44412c5.1562-0.24427 9.4805-0.47093 9.6094-0.50369zm26.719 0.35119 2.5781-0.55975v-4.1443-4.1443h-10.312-10.312v4.1594 4.1594l3.0469 0.29378c6.986 0.67357 12.579 0.76148 15 0.23579zm32.812-0.31515 0.70313-0.0956v-4.2494-4.2495l-10.547 0.26508-10.547 0.26508-0.29834 3.1081-0.29834 3.1081 1.102 1.3278 1.102 1.3278 9.0401-0.3559c4.9721-0.19574 9.3565-0.39892 9.7433-0.45152zm-375.03-9.4616-0.2677-8.7043-1.8417-2.3413c-1.0129-1.2877-1.8417-2.9172-1.8417-3.6211s-0.42188-1.2798-0.9375-1.2798h-0.9375v4.8481 4.848l1.4289 1.5789 1.4289 1.5789 0.58469 6.2613 0.58468 6.2612 1.0333-0.36275 1.0333-0.36276zm329.45-18.099c0.70844-0.70842 1.202-20.656 1.7882-72.267l0.5737-50.513-2.648 0.64821c-1.4564 0.35651-3.8248 0.8839-5.2631 1.172l-2.6151 0.52377-1.6797-1.5201c-3.0987-2.8043-3.5295 117.48-0.43863 122.48l0.54412 0.88039 4.6696-0.50201c2.5683-0.2761 4.8493-0.68167 5.0689-0.90125zm30.34-32.06c0.25781-17.531 0.46875-44.531 0.46875-60v-28.125l-1.4062 0.44189c-0.77344 0.24304-3.5156 0.47344-6.0938 0.512l-4.6875 0.07011 0.12203 3.238c0.0671 1.7809 0.41717 23.91 0.7779 49.175 0.36072 25.266 0.79637 48.047 0.96812 50.625 0.17174 2.5781 0.34904 7.3473 0.39399 10.598l0.0818 5.9107 4.4531-0.28574 4.4531-0.28574 0.46875-31.875zm-520.13 7.2656c0.15896-10.184 0.15361-22.418-0.01189-27.187l-0.30091-8.6719h-1.3397-1.3397v27.188 27.188h1.3516 1.3516zm4.5-10.55v-27.188h-1.4062-1.4062v26.562 26.562l0.625 0.625c0.34375 0.34375 0.97656 0.625 1.4062 0.625h0.78125zm33.536 4.1515-0.25475-18.683h-0.9375-0.9375l-0.25534 18.254c-0.14044 10.039-0.02114 18.864 0.26511 19.61l0.52045 1.3563 0.92714-0.92714 0.92714-0.92714zm54.589-4.6202v-23.796l-0.9375-0.5794-0.9375-0.5794v24.954 24.954l0.9375-0.5794 0.9375-0.5794zm-28.125 10.674v-3.7461l1.797-3.9446 1.797-3.9446-0.15635-10.301-0.15635-10.301h-1.875-1.875l-0.2445 7.5-0.2445 7.5-0.96426 1.8823-0.96426 1.8823 0.43413 8.4302c0.23877 4.6366 0.46631 8.7715 0.50564 9.1887l0.07151 0.75844 0.9375-0.5794 0.9375-0.5794z"/>
</svg>
