<?xml version="1.0" encoding="UTF-8" standalone="no"?>
<!-- Created with Inkscape (http://www.inkscape.org/) -->

<svg
   width="841mm"
   height="594mm"
   viewBox="0 0 841 594"
   version="1.1"
   id="svg8"
   inkscape:version="1.1.2 (0a00cf5339, 2022-02-04)"
   sodipodi:docname="1541195068.svg"
   xmlns:inkscape="http://www.inkscape.org/namespaces/inkscape"
   xmlns:sodipodi="http://sodipodi.sourceforge.net/DTD/sodipodi-0.dtd"
   xmlns="http://www.w3.org/2000/svg"
   xmlns:svg="http://www.w3.org/2000/svg"
   xmlns:rdf="http://www.w3.org/1999/02/22-rdf-syntax-ns#"
   xmlns:cc="http://creativecommons.org/ns#"
   xmlns:dc="http://purl.org/dc/elements/1.1/">
  <defs
     id="defs2" />
  <sodipodi:namedview
     id="base"
     pagecolor="#ffffff"
     bordercolor="#666666"
     borderopacity="1.0"
     inkscape:pageopacity="0.0"
     inkscape:pageshadow="2"
     inkscape:zoom="0.1767767"
     inkscape:cx="967.32205"
     inkscape:cy="605.28339"
     inkscape:document-units="mm"
     inkscape:current-layer="layer1"
     showgrid="false"
     inkscape:window-width="1876"
     inkscape:window-height="1051"
     inkscape:window-x="0"
     inkscape:window-y="0"
     inkscape:window-maximized="1"
     inkscape:pagecheckerboard="0" />
  <metadata
     id="metadata5">
    <rdf:RDF>
      <cc:Work
         rdf:about="">
        <dc:format>image/svg+xml</dc:format>
        <dc:type
           rdf:resource="http://purl.org/dc/dcmitype/StillImage" />
      </cc:Work>
    </rdf:RDF>
  </metadata>
  <g
     inkscape:label="Layer 1"
     inkscape:groupmode="layer"
     id="layer1"
     transform="translate(0,297)">
    <rect
       style="fill:#ffffff;stroke-width:0.282001"
       id="rect864"
       width="723.84918"
       height="551.44366"
       x="59.444626"
       y="-274.65915" />
    <path
       style="fill:#000000;stroke-width:2.53537369"
       d="M 47.198544,287.77952 C 46.264325,286.84527 45.5,158.14591 45.5,1.7809691 45.5,-215.96068 46.212219,-283.23117 48.542431,-285.56138 c 4.777538,-4.77755 740.624399,-4.38248 744.593349,0.3996 2.08997,2.51822 2.68369,79.93227 2.21196,288.3987431 L 794.70296,288.19346 421.80012,288.83597 C 216.70348,289.18885 48.132828,288.71383 47.198544,287.77958 Z M 415.08117,222.90779 414.39699,169.03111 395.4356,167.14073 C 338.17768,161.43231 286.63045,125.79558 261.36273,74.450437 l -6.61834,-13.448654 -15.81265,1.69336 -15.81275,1.693384 9.96714,-23.31988 c 5.48187,-12.82593 10.66083,-25.50554 11.50865,-28.176825 1.49999,-4.7260149 -0.9915,-4.8569009 -92.43816,-4.8569009 H 58.176875 V 142.40973 276.78451 H 236.97123 415.76549 Z m -262.61609,15.52919 c -1.61475,-22.41687 -9.38931,-31.34939 -11.30935,-12.9938 l -0.99453,9.50769 -0.42618,-9.50769 c -0.32773,-7.30574 -1.48265,-9.50767 -4.98784,-9.50767 -3.69514,0 -4.43978,1.8062 -3.91988,9.50767 l 0.64181,9.50769 -2.06243,-9.77181 c -1.88075,-8.9108 -4.54385,-12.39722 -11.64866,-15.24978 -1.3944,-0.55984 -0.37875,-2.67682 2.25726,-4.70426 4.34527,-3.34217 4.3991,-3.83721 0.57639,-5.30411 -3.39825,-1.304 -3.6531,-2.51967 -1.3134,-6.2661 2.18775,-3.5032 2.14543,-9.13879 -0.17177,-22.87753 -2.96056,-17.55224 -3.60098,-18.69833 -17.24342,-30.85768 -13.467796,-12.0036 -13.757849,-12.51044 -5.863349,-10.24634 8.785159,2.51958 13.682519,5.74196 21.283089,14.00414 5.9304,6.44666 4.75973,3.96579 -8.09695,-17.15846 -11.19667,-18.39671 -12.634336,-22.8216 -6.67124,-20.5333 5.61786,2.15579 18.86752,30.95816 20.25473,44.03017 1.82453,17.19341 5.94615,40.31922 7.68832,43.13805 3.134,5.07093 8.98117,2.66276 7.78433,-3.20591 -0.63962,-3.13751 -1.87584,-14.83193 -2.7466,-25.98757 -3.06328,-39.2445 -7.52438,-52.32031 -24.87326,-72.90593 -13.477544,-15.992044 -9.39079,-19.22433 4.69586,-3.71404 17.06318,18.78776 25.42726,46.61846 27.15982,90.3718 0.52607,13.28467 1.78025,19.16755 4.26296,19.99513 2.92139,0.97375 3.22583,-3.2913 1.79637,-25.161 -3.61551,-55.31194 -4.45121,-94.859213 -2.07695,-98.282671 4.33592,-6.252099 8.65985,-0.395996 7.01267,9.498031 -3.95716,23.76949 -4.50731,38.59374 -2.79131,75.20883 1.62438,34.65976 2.35919,39.38672 6.0142,38.68793 3.60604,-0.68922 4.33349,-6.56502 5.43142,-43.86853 1.02358,-34.77864 2.13451,-44.65902 5.76965,-51.31235 7.20923,-13.19497 9.90547,-9.50084 3.70095,5.0707 -4.85569,11.40394 -5.77717,18.72801 -6.4329,51.12708 -0.63892,31.5561 -0.19766,37.34515 2.66409,34.97018 2.2873,-1.89835 3.65857,-10.16471 4.11744,-24.82165 0.37805,-12.08654 1.96677,-24.97076 3.52963,-28.63176 l 2.84162,-6.65622 0.93486,6.84688 c 0.51389,3.76578 -0.36868,9.28288 -1.96222,12.26017 -3.66753,6.85285 -1.87074,8.72023 4.90267,5.09521 4.24229,-2.2704 5.2879,-2.09526 5.2879,0.88595 0,2.04374 -2.56707,4.08049 -5.7046,4.52607 -4.96972,0.70578 -5.80326,2.52483 -6.47092,14.12089 -0.43768,7.60636 0.30905,13.31075 1.74261,13.31075 4.57567,0 2.53293,20.57685 -2.54704,25.65675 -2.6222,2.62228 -4.76763,3.80042 -4.76763,2.61819 0,-1.18224 -3.36815,-2.24533 -7.48478,-2.36241 -7.33423,-0.20836 -7.50305,0.0771 -8.39444,14.19257 -0.5002,7.92299 -1.12531,11.41048 -1.38901,7.75005 z m -3.01476,-30.10757 c 0,-1.39447 -1.77874,-2.53538 -3.95272,-2.53538 -2.17396,0 -3.24753,1.14091 -2.38576,2.53538 0.86187,1.39447 2.64054,2.5354 3.95272,2.5354 1.31211,0 2.38576,-1.14093 2.38576,-2.5354 z m 12.67681,0 c 0,-1.39447 -2.34911,-2.53538 -5.22034,-2.53538 -2.87122,0 -4.51522,1.14091 -3.65346,2.53538 0.86185,1.39447 3.21104,2.5354 5.22043,2.5354 2.00936,0 3.65337,-1.14093 3.65337,-2.5354 z m -22.81835,-2.53538 c 0,-1.39449 -2.34912,-2.5354 -5.22035,-2.5354 -2.87123,0 -4.51523,1.14091 -3.65346,2.5354 0.86186,1.39447 3.21103,2.53538 5.22042,2.53538 2.00936,0 3.65339,-1.14091 3.65339,-2.53538 z m 30.42452,0 c 0,-1.39449 -0.50308,-2.5354 -1.11807,-2.5354 -0.61519,0 -1.82315,1.14091 -2.68502,2.5354 -0.86177,1.39447 -0.35863,2.53538 1.11808,2.53538 1.47676,0 2.68501,-1.14091 2.68501,-2.53538 z M 133.19576,79.901689 c -7.04855,-10.372819 -8.00592,-13.553162 -4.08,-13.553162 2.84572,0 13.71157,20.144913 11.86294,21.993523 -0.67053,0.67054 -4.17285,-3.12766 -7.78294,-8.440361 z m 650.098,62.508041 V 8.0349211 H 682.33336 581.37298 L 578.42493,26.997525 C 567.99933,94.05728 514.9952,149.85064 447.87621,164.41604 l -19.5348,4.23925 v 54.06458 54.06464 H 605.81759 783.29376 Z M 656.5251,251.82027 c 0,-1.18014 1.75585,-5.6655 3.90185,-9.96734 2.14608,-4.30186 4.5868,-13.60449 5.42392,-20.6725 l 1.52199,-12.85102 h -25.15433 c -13.8349,0 -31.06481,1.53318 -38.28863,3.40701 -7.22384,1.87377 -12.60524,2.55106 -11.95878,1.50495 2.89495,-4.68399 27.34713,-10.45404 49.97553,-11.7929 28.46869,-1.68431 27.25685,0.10776 20.07612,-29.68356 l -4.23005,-17.54929 -13.9445,-2.82855 c -7.66955,-1.55576 -16.2264,-4.13533 -19.01533,-5.73248 -4.68793,-2.68465 -4.73429,-3.03351 -0.6145,-4.62066 7.60195,-2.9288 21.88579,1.28507 30.75614,9.07336 l 8.48224,7.44755 1.19664,-24.68636 c 0.82662,-17.05419 2.76314,-28.21362 6.26372,-36.09549 5.59736,-12.60308 11.84268,-19.069476 15.95993,-16.524876 1.68799,1.043166 -1.56567,9.456696 -8.76268,22.659956 -12.20729,22.39449 -13.76973,32.25158 -9.722,61.33229 l 1.72555,12.39689 3.26387,-17.53952 c 1.79515,-9.64674 4.35266,-18.62833 5.68347,-19.95914 1.53598,-1.53589 1.60289,1.16601 0.18334,7.39804 -3.41041,14.97216 -5.50271,50.0075 -3.18575,53.34531 2.3108,3.32882 42.95217,8.44747 67.07236,8.44747 11.57195,0 15.06515,0.75405 13.01068,2.80858 -4.47325,4.47325 -34.52409,5.7694 -55.4597,2.39215 -10.5696,-1.70503 -19.82573,-2.49183 -20.56922,-1.74843 -0.7434,0.74348 1.19046,5.46497 4.29749,10.49228 3.10703,5.0273 4.95556,9.83409 4.10781,10.68188 -2.10908,2.10899 -11.23952,-6.46066 -13.08776,-12.284 -2.60927,-8.22099 -5.47504,-5.16651 -6.96632,7.42507 -1.55537,13.13259 -6.38747,25.86921 -9.81442,25.86921 -1.17067,0 -2.12838,-0.96564 -2.12838,-2.14588 z m 27.88906,-125.46389 c 0,-4.68938 10.04363,-14.82634 13.53627,-13.66212 5.49814,1.8327 2.97296,7.71258 -5.29628,12.33226 -6.04524,3.37723 -8.23999,3.73142 -8.23999,1.32986 z m -240.1615,1.92766 c 70.89575,-18.37099 114.56802,-90.146342 96.73176,-158.97874 -15.4692,-59.697656 -67.43226,-100.71595 -127.58966,-100.71595 -32.90861,0 -59.55342,9.41066 -85.69406,30.26621 -11.28255,9.001424 -31.15458,34.253493 -34.24005,43.509852 -1.05928,3.17775 -32.45389,-11.435137 -32.45389,-15.105909 0,-1.158169 4.66931,-9.33015 10.37636,-18.160041 27.54595,-42.618962 74.07745,-71.019662 123.73898,-75.524542 l 19.27481,-1.74849 0.71997,-48.17213 c 0.396,-26.49458 0.0869,-50.7469 -0.68633,-53.89388 l -1.40648,-5.72184 -176.78971,0.65115 -176.789732,0.65111 -0.656147,135.0388 -0.656156,135.0387871 97.000225,-0.664073 97.00034,-0.664072 3.80302,-8.1850741 c 2.09166,-4.501789 4.54965,-8.209808 5.46217,-8.239977 2.35199,-0.07762 60.45759,67.66791 60.45759,70.487906 0,1.280398 -6.8836,3.1068 -15.29678,4.05872 l -15.29678,1.730584 7.02295,12.903484 c 15.08031,27.707535 50.06772,53.909195 82.4604,61.753615 18.67281,4.52191 45.35013,4.38931 63.50712,-0.3155 z M 410.60187,69.517723 c 0.006,-2.440295 1.75483,-14.422199 3.8896,-26.626475 2.82884,-16.171719 3.14967,-23.556968 1.18312,-27.231466 -2.48098,-4.635827 -3.88442,-3.665319 -17.42275,12.048032 -8.0984,9.399507 -16.64287,18.674178 -18.98782,20.610327 -3.159,2.608404 -3.84929,5.72823 -2.6646,12.043073 2.25265,12.007632 -2.94765,11.139454 -16.60005,-2.771346 L 348.91516,46.295886 370.0901,24.601988 391.26505,2.9080221 l 0.15667,-21.3927691 0.1567,-21.3927 -5.6154,3.673134 c -5.12115,3.34996 -5.87336,3.19126 -8.54615,-1.802906 -2.62098,-4.89734 -3.17963,-5.031384 -5.28587,-1.267697 -3.19486,5.708766 -13.86315,5.45355 -15.38556,-0.367968 -1.81606,-6.944747 0.86683,-21.921141 3.23933,-18.082425 1.09063,1.764684 1.36537,7.014403 0.61019,11.666062 -1.07522,6.626381 -0.49661,8.4576 2.67323,8.4576 4.35295,0 9.29473,-7.325381 9.29473,-13.777922 0,-2.183362 -1.644,-3.96974 -3.65339,-3.96974 -2.00937,0 -4.47843,-1.334822 -5.48667,-2.96625 -1.22199,-1.977104 -0.46644,-2.441588 2.26661,-1.392947 2.42779,0.931612 11.12772,-2.450813 21.33275,-8.294035 18.16054,-10.398506 40.44642,-18.612168 58.43268,-21.536081 12.09072,-1.965394 12.48817,-1.237519 8.05042,14.744119 -1.8834,6.782615 -3.7908,9.291712 -6.32433,8.319534 -2.27299,-0.872287 -3.6421,0.235003 -3.6664,2.965322 -0.0287,3.227625 -0.57495,3.512063 -2.10747,1.096988 -1.39807,-2.203482 -5.28912,3.1383 -12.0042,16.479965 -5.46454,10.857075 -11.71713,20.067656 -13.89446,20.467894 -2.4879,0.457069 -6.42244,-3.751772 -10.58851,-11.327541 -6.62324,-12.043856 -6.63113,-12.04859 -8.3935,-5.026931 -1.74361,6.947203 -0.117,23.83825 2.5524,26.50789 0.75852,0.758501 7.58154,1.893387 15.1624,2.522091 l 13.78339,1.142999 3.75558,-13.611527 c 2.06557,-7.486369 4.87119,-18.1752 6.23469,-23.753025 1.36349,-5.577806 2.59605,-7.859634 2.73899,-5.070769 0.29322,5.7258 -6.85594,41.531426 -8.97858,44.9658931 -0.76016,1.229963 1.6992,6.682514 5.46512,12.116802 l 6.84723,9.8806099 -4.07013,23.878284 c -5.06474,29.712739 -5.09724,28.728718 1.00047,30.32327 2.78896,0.729319 5.07079,2.573776 5.07079,4.098747 0,1.742684 -6.59326,2.772783 -17.74766,2.772783 -15.21528,0 -17.74645,-0.633176 -17.73953,-4.436916 z m 25.3457,-0.633872 c -2.09167,-1.351718 -7.79626,-2.361466 -12.67687,-2.243816 -8.13081,0.196087 -8.34313,0.383782 -2.53541,2.243816 3.48617,1.116483 9.19076,2.126232 12.67688,2.243813 4.98332,0.168273 5.52537,-0.311187 2.5354,-2.243813 z M 375.09856,61.81584 c 0,-1.09852 -3.32889,-5.947448 -7.39759,-10.775375 -5.75332,-6.826889 -8.08553,-8.108238 -10.49257,-5.764828 -2.42271,2.358753 -1.40905,4.699082 4.66724,10.775305 7.45553,7.455524 13.22292,9.970011 13.22292,5.764898 z m 56.6309,-4.173797 c 0.76732,-1.999682 2.66748,-12.928402 4.22256,-24.286217 2.79879,-20.441151 2.75899,-20.740194 -3.92748,-29.5066149 -7.55442,-9.904394 -7.81279,-10.030737 -24.59992,-12.030419 -16.17072,-1.9261591 -15.99738,3.008504 0.47722,13.58019 6.88603,4.41879 12.93415,9.2761999 13.44019,10.7942199 0.50595,1.517994 0.0891,8.575088 -0.92596,15.682339 -3.53733,24.76301 -2.92967,29.402198 3.8511,29.402198 3.337,0 6.695,-1.636088 7.46235,-3.635696 z M 389.37302,31.906158 C 406.69401,12.475846 407.57937,10.738193 402.17259,6.7846321 398.8,4.3185171 395.1418,6.6084791 380.252,20.50813 c -18.41093,17.186289 -19.98514,19.852985 -14.78788,25.050324 5.33324,5.333162 8.6965,3.412751 23.9089,-13.652296 z m 38.13299,-79.513761 c 4.42115,-8.791135 7.43157,-17.565019 6.68997,-19.497741 -0.89894,-2.342615 -0.0726,-3.024084 2.48049,-2.044584 5.05273,1.938937 7.72425,-2.762578 5.83863,-10.275375 l -1.51594,-6.040013 -17.10421,5.822325 c -17.5398,5.970488 -48.79639,20.795316 -48.79639,23.143782 0,0.721987 1.66609,5.300175 3.70248,10.173834 l 3.70239,8.861194 15.59182,-11.47801 c 15.31778,-11.276306 27.1895,-16.51304 14.10815,-6.2232 -3.67415,2.890135 -6.68037,7.199897 -6.68037,9.577303 0,5.979779 7.44577,16.0617 11.01192,14.910769 1.61292,-0.520322 6.54997,-8.139206 10.97106,-16.930284 z m 23.65376,-31.977535 c 0,-3.99405 -1.44485,-6.188775 -4.07432,-6.188775 -2.6736,0 -3.54522,1.378716 -2.53533,4.01041 0.84642,2.20574 1.53892,5.695837 1.53892,7.755731 0,2.059997 1.14095,3.040209 2.53541,2.178431 1.39442,-0.861843 2.53532,-4.35194 2.53532,-7.755797 z M 87.557881,-101.34891 c 0.71581,-1.1583 7.803722,-3.99828 15.750919,-6.31109 16.72633,-4.86775 51.48533,-5.34554 84.10561,-1.15608 11.81624,1.51752 28.57749,2.75918 37.24711,2.75918 17.11973,0 23.28941,3.49851 10.63342,6.02974 -12.69269,2.538539 -32.39919,1.742236 -54.15246,-2.18812 -25.70576,-4.64452 -64.72286,-4.85195 -81.75198,-0.43479 -7.223831,1.87382 -12.548522,2.45927 -11.832619,1.30102 z m 97.387609,-49.16419 c -22.54073,-4.22776 -73.70259,-5.02132 -86.034774,-1.33453 -12.50101,3.73724 -12.39781,1.54023 0.163865,-3.48594 14.255549,-5.70394 47.140799,-7.69627 71.043939,-4.30416 10.6703,1.51423 32.17267,3.52886 47.78309,4.47696 19.00298,1.15421 27.03002,2.48082 24.28952,4.01451 -7.13614,3.99361 -37.53617,4.32981 -57.24549,0.63316 z m 16.47997,-52.03801 c -6.97229,-0.87163 -24.83437,-3.09878 -39.69354,-4.94918 -25.64892,-3.19406 -52.75656,-1.79205 -71.912695,3.71929 -2.761491,0.79444 0.112875,-1.0948 6.388209,-4.19837 9.835256,-4.8645 15.606306,-5.65594 41.833716,-5.73693 35.84309,-0.11075 110.85692,6.27236 103.76729,8.8298 -8.1153,2.92738 -26.93918,4.01598 -40.38298,2.33539 z m 581.25666,62.90049 -0.65601,-135.00862 -176.8424,-0.65111 -176.8423,-0.65113 v 54.09597 54.09598 l 20.20181,4.34117 c 64.67645,13.89829 116.3317,66.670586 128.64009,131.42206 2.1982,11.564196 4.37021,22.4519606 4.82672,24.1950821 0.64612,2.467901 23.01277,3.169197 101.0791,3.169197 h 100.24912 z m -192.07679,38.23482 c 9.64185,-4.70305 15.9257,-5.5917 40.56601,-5.73695 39.41154,-0.23213 107.01346,6.16671 98.66542,9.33936 -7.19475,2.734406 -44.37402,1.191816 -78.17667,-3.24357 -22.51091,-2.95376 -49.29386,-1.45996 -67.44296,3.761595 -2.7615,0.794513 0.11288,-1.059694 6.3882,-4.120435 z m 120.69319,-28.2214 c -6.45987,-4.72359 0.0887,-12.29956 7.97706,-9.22849 6.93788,2.70105 7.3109,6.41698 0.98408,9.80301 -3.2928,1.76221 -6.00307,1.58844 -8.96114,-0.57424 z m -66.25124,-4.41986 c -2.24123,-3.62629 3.49334,-10.03047 8.98159,-10.03047 4.84298,0 7.49298,4.40909 5.71451,9.5077 -1.33753,3.83442 -12.40606,4.22809 -14.6961,0.52247 z m -58.97097,-7.96753 c -2.32024,-2.32022 -2.05646,-4.05908 1.15356,-7.60611 7.61472,-8.41425 16.16834,-4.14835 11.00967,5.4908 -3.09037,5.77435 -7.70219,6.57643 -12.16323,2.11531 z m 84.53474,-29.72324 c -1.32893,-2.15025 0.65255,-10.3703 2.50016,-10.3703 0.4571,0 3.88193,1.15985 7.61042,2.57741 5.62395,2.13818 6.24719,3.2183 3.65768,6.33841 -3.46601,4.1763 -11.5578,5.03111 -13.76826,1.45448 z m -54.65197,-12.87228 c -4.99084,-3.18164 -0.24075,-11.44254 6.58002,-11.44254 5.69627,0 8.03711,8.62045 3.17712,11.70039 -4.30999,2.73133 -5.10083,2.71038 -9.75714,-0.25801 z m 98.10128,-19.40445 c -2.24186,-2.24189 6.39685,-16.36411 9.39812,-15.36372 5.30433,1.76815 7.62643,8.88329 4.23346,12.97154 -3.38118,4.07412 -10.67052,5.35324 -13.63158,2.39218 z m -134.89058,-8.56074 c -0.97491,-1.57745 0.84976,-5.65939 4.05484,-9.07107 5.2462,-5.58428 6.21671,-5.81369 9.73031,-2.30009 2.9684,2.9684 3.24418,4.95378 1.15158,8.29222 -3.27977,5.23227 -12.439,7.12028 -14.93673,3.07894 z m 73.28,-13.69705 c -0.75943,-1.97898 0.5613,-6.56263 2.93556,-10.18583 3.38696,-5.16903 5.06625,-5.9652 7.79883,-3.69744 1.91532,1.5896 3.48243,4.80414 3.48243,7.14341 0,8.69059 -11.39525,14.09284 -14.21682,6.73986 z"
       id="path4496"
       inkscape:connector-curvature="0" />
  </g>
</svg>
