<?xml version="1.0" encoding="utf-8"?>

<!DOCTYPE svg PUBLIC "-//W3C//DTD SVG 1.1//EN" "http://www.w3.org/Graphics/SVG/1.1/DTD/svg11.dtd">
<svg version="1.1" id="Layer_1" xmlns="http://www.w3.org/2000/svg" xmlns:xlink="http://www.w3.org/1999/xlink" x="0px" y="0px"
	 viewBox="0 0 2164.702 1636.78" enable-background="new 0 0 2164.702 1636.78" xml:space="preserve">
<g id="Brain_Silhouette">
</g>
<g>
	<path d="M1119.621,983.072L965.088,697.088c-61.674-114.264-241.723-110.69-241.723-110.69H573.854H424.531
		c0,0-180.049-3.574-241.762,110.69L28.312,983.072c-14.754,26.731,13.006,47.19,56.923,53.844
		c43.92,6.768,88.865-5.057,100.386-26.465l150.198-278.759l40.951-0.039l-260.545,482.724h245.26l0.077,0.114v354.277
		c0,26.998,43.576,49.545,96.619,49.622c46.772,0.077,96.127-25.172,96.127-52.094v-351.919h39.28v351.919
		c0,26.922,49.395,52.17,96.164,52.094c53.045-0.077,96.545-22.624,96.545-49.622v-354.277l0.151-0.114h245.223L771.126,731.653
		l40.951,0.039l150.161,278.759c11.558,21.407,56.503,33.232,100.423,26.465C1106.578,1030.262,1134.338,1009.804,1119.621,983.072z
		"/>
	<path d="M560.542,541.951c144.531,0,261.875-117.228,261.875-261.798c0-144.533-117.344-261.763-261.875-261.763
		c-144.57,0-261.84,117.231-261.84,261.763C298.702,424.723,415.972,541.951,560.542,541.951z M373.335,244.175
		c1.007-1.106,1.024-1.14,1.766-3.705c2.324-8.017,6.724-15.955,11.637-20.988c1.892-1.942,2.315-2.104,6.064-4.349
		c0.457-5.312,0.481-14.51,9.187-25.765c4.188-5.412,10.92-11.47,18.663-15.608c0.66-2.719,1.993-6.136,6.105-10.614
		c-5.748-1.286-10.914-4.969-14.11-10.027c8.561-1.329,17.137-2.563,25.72-3.76c1.063-1.086,2.261-2.216,3.607-3.378
		c-36.09,5.106-35.28,4.745-38.751,3.693c-6.293-1.539-11.213-6.24-14.669-11.528c26.05-2.333,52.123-4.466,78.186-6.676
		c4.211-1.69,8.114-2.952,11.534-3.931c-95.701,7.767-93.332,8.945-100.086,6.241c-8.533-3.507-14.889-11.412-17.202-20.27
		c45.859-0.073,91.718-0.052,137.577-0.01c4.792-0.219,9.35,1.558,12.958,4.516c5.836-0.832,11.622-0.988,17.493-0.836
		c4.038-2.169,8.064-3.775,12.111-4.911c-0.35-9.094,6.543-17.822,15.548-19.501c9.915-2.345,20.658,4.764,22.762,14.658
		c0.394,1.468,0.571,2.958,0.568,4.441c12.182-1.305,22.801-0.231,33.814,3.436c1.549-0.703,3.19-1.207,4.892-1.458
		c2.155-0.31-9.015-0.741,141.42,2.481c-2.241,8.418-8.962,15.402-17.328,17.872c-4.959,1.495-3.086,1.742-69.501-4.061
		c1.416,1.041,2.799,2.133,4.145,3.282c18.36,1.531,36.721,3.06,55.063,4.778c-4.575,7.235-12.616,13.014-21.527,12.083
		c-0.072-0.01-0.143-0.02-0.215-0.029c9.415,8.898,17.295,19.18,22.743,22.378c8.794,5.179,15.058,16.113,18.453,26.258
		c1.297,3.881,1.591,2.958,4.257,8.255c3.159,6.3,5.455,15.114,1.031,20.613c-0.72,0.888-0.688,0.827,0.303,2.566
		c7.115,12.399-1.753,28.157-11.552,38.562c-3.619,17.577-14.803,33.743-54.851,41.118c-1.333,4.251-2.756,5.565-6.703,9.616
		l-0.248,2.168c-0.508,4.324-1.472,3.727-1.099,5.478c2.442,11.256-14.929,18.855-18.265,21.624
		c-26.369,21.822-49.723,17.673-57.27,18.422c-5.683,0.558-16.745-1.147-23.996-2.451c-3.214,3.096-7.243,5.86-12.102,8.136
		c-0.911,1.389-1.95,2.853-3.116,4.337c2.147-0.891,4.288-1.794,6.404-2.758c18.437,17.281,6.943,43.068-7.622,44.289
		c2.45-3.371,5.811-6.094,7.559-9.957c2.785-6.094,3.623-13.538,0.398-19.642c-1.913-3.985-5.34-6.893-8.978-9.253
		c-0.205,0.23-0.41,0.461-0.621,0.69c-0.105,12.868-0.987,65.058-3.008,80.963c-0.178,2.272-1.037,4.397-2.146,6.376
		c-3.497-7.945-3.781-37.294-4.564-77.776c-2.55,3.737-6.347,10.23-10.122,17.005c0.184,0.473,0.382,0.938,0.594,1.396
		c1.675,4.01,5.266,6.69,7.559,10.303c-4.245-0.481-8.08-2.905-11.034-6.471c-4.847,8.895-9.069,17.131-9.72,18.958
		c-2.891,8.063-8.435,16.281-16.595,18.419c-3.099,0.817-6.106-0.113-7.85-0.33c-12.154-1.493,4.675-28.717,3.307-32.264
		c-0.135-0.352-1.751,0.337-8.701,1.793c-5.191,1.092-2.761,0.844-10.946,0.987c-16.649,0.284-13.504,3.109-35.153-1.844
		c-10.432-2.389-16.646-4.784-23.291-8.983c-8.51-5.376-14.972-13.563-15.608-19.783c-0.112-1.089-0.123-1.102-1.395-2.402
		c-2.304-2.351-3.12-4.253-3.882-9.007c-0.536-3.359-0.365-1.339,1.031-8.609c-2.302-0.002-7.428,0.036-9.796-0.221
		c-30.382-3.305-41.818-29.664-43.101-60.074C360.923,305.607,359.804,259.044,373.335,244.175z"/>
	<path d="M563.386,131.038c9.35-1.1,16.597-9.973,16.618-19.169c-1.64,0.176-3.303,0.386-5.005,0.648
		c-11.884-2.849-22.953-3.311-33.873-0.246c0.021,0.549,0.061,1.099,0.136,1.649C542.069,124.515,552.906,132.954,563.386,131.038z"
		/>
	<path d="M490.682,136.137c0.188,3.853-0.544,7.769,0.314,11.58c1.591,9.214,8.397,17.161,17.077,20.5
		c13.565,5.635,31.531-3.508,43.535,14.742c-0.063-11.978,0.314-23.977-0.23-35.944c-3.585,21.64-26.537,19.991-32.583,7.538
		c-3.162-5.403-1.738-11.758-0.042-17.37c1.618-7.254-1.676-14.614-7.228-19.167c-6.584,0.938-13.232,2.738-20.144,5.969
		c-1.811,0.846-6.582,1.688-13.103,3.554c0.473-0.038,0.933-0.076,1.411-0.115C484.934,126.724,490.232,130.85,490.682,136.137z"/>
	<path d="M602.084,131.698c-0.942,6.732,4.073,13.171,1.403,19.841c-3.831,14.26-27.843,19.279-34.017-3.319
		c0.042,11.611,0.094,23.212-0.01,34.824c10.703-17.917,31.157-9.437,43.838-14.951c9.915-3.895,17.276-13.999,17.108-24.762
		c0.157-3.947-0.974-8.502,1.78-11.842c2.377-3.476,6.785-4.596,10.784-4c11.446,0.999,21.487,1.878,30.332,2.651
		c-14.688-10.802-33.162-15.771-55.864-13.554c-1.213-0.462-2.418-0.881-3.619-1.281
		C607.418,118.21,602.632,124.625,602.084,131.698z"/>
	<path d="M485.729,131.959c-2.209-0.974-4.513-1.968-6.984-1.508c-4.001,0.344-8.002,0.68-12.003,1.019
		c-2.956,1.187-6.063,2.582-9.263,4.244c-6.759,3.51-11.734,7.014-15.504,10.266c9.866-1.396,22.483-3.199,38.707-5.51
		C482.212,137.55,483.929,134.723,485.729,131.959z"/>
	<path d="M635.253,131.865c1.822,2.848,3.612,5.727,5.266,8.701c23.434,3.131,46.826,6.533,70.249,9.687
		c-9.017-8.522-19.442-15.774-30.501-14.302c-0.922-0.87-1.863-1.712-2.821-2.529c-11.509-0.96-23.017-1.919-34.519-2.928
		C640.258,130.022,637.682,130.86,635.253,131.865z"/>
	<path d="M575.081,143.194c3.518,0.408,6.293-4.178,3.958-6.984c-2.136-2.953-6.209-1.811-9.308-2.063
		c-8.544,0.377-17.223-0.618-25.694,0.492c-4.209,1.508-3.036,8.586,1.497,8.502C555.377,143.33,565.24,143.236,575.081,143.194z"/>
	<path d="M505.769,181.766c24.706,1.874,34.247-5.086,45.587,12.323c-3.345-28.298-30.73-16.606-45.482-23.547
		c-9.004-3.874-15.977-12.271-17.747-21.956c-0.869-4.481-0.262-9.057-0.408-13.58C473.984,150.287,484.289,178.532,505.769,181.766
		z"/>
	<path d="M614.878,181.808c20.774-2.666,32.825-30.283,18.49-46.801c-0.094,4.837,0.639,9.779-0.649,14.522
		c-2.031,9.444-9.046,17.485-17.925,21.181c-15.565,7.003-40.821-5.2-45.147,23.17C582.312,176.69,588.038,183.672,614.878,181.808z
		"/>
	<path d="M434.949,163.296c14.501-2.816,28.918-6.135,43.42-9.015c0.147-3.56,0.471-7.12,1.215-10.617
		c-13.731,1.959-27.481,3.78-41.215,5.695c-5.164,5.276-7.286,9.526-9.311,11.45c-0.854,0.811-1.611,1.587-2.299,2.336
		C429.41,163.74,432.186,163.825,434.949,163.296z"/>
	<path d="M681.542,162.459c13.146,3.03,20.296-0.369,26.877-9.339c-22.249-3.487-44.603-6.198-66.873-9.486
		c0.565,3.508,0.942,7.046,1.11,10.596C655.618,156.973,668.59,159.663,681.542,162.459z"/>
	<path d="M554.508,242.44c4-0.953,8.01-1.906,11.999-2.921c0.031-31.086,0.147-62.172,0.126-93.257
		c-4.115-0.031-8.23-0.031-12.334-0.01C554.267,178.311,554.298,210.381,554.508,242.44z"/>
	<path d="M458.664,174.269c7.79-2.262,15.538-4.659,23.275-7.067c-1.309-3.267-2.356-6.617-3.204-10.03
		c-13.883,3.068-27.861,5.717-41.713,8.941C442.278,172.154,450.56,176.321,458.664,174.269z"/>
	<path d="M662.371,174.269c8.093,2.021,16.449-2.063,21.642-8.198c-13.852-3.11-27.788-5.895-41.671-8.858
		c-0.859,3.403-1.947,6.743-3.246,10.009C646.844,169.589,654.591,171.997,662.371,174.269z"/>
	<path d="M483.468,169.924c-7.926,2.429-15.925,4.628-23.757,7.319c4.816,4.994,11.789,7.926,18.752,7.497
		c4.89-0.838,9.224-3.487,13.758-5.361C488.891,176.625,485.949,173.452,483.468,169.924z"/>
	<path d="M628.856,179.326c4.335,1.916,8.533,4.366,13.203,5.34c7.141,0.712,14.354-2.335,19.307-7.444
		c-7.853-2.649-15.841-4.848-23.746-7.308C635.138,173.432,632.206,176.614,628.856,179.326z"/>
	<path d="M495.341,181.357c-4.199,1.801-8.418,3.56-12.501,5.612c3.937,3.371,8.481,6.334,13.716,7.057
		c19.091,2.036,47.221-5.214,55.335,16.134C547.998,168.997,516.875,193.462,495.341,181.357z"/>
	<path d="M624.72,193.984c5.162-0.764,9.674-3.654,13.433-7.141c-4.104-1.937-8.282-3.696-12.449-5.476
		c-11.905,5.694-15.508,3.004-38.3,3.769c-7.808,0.27-16.98,6.79-18.03,25.254C576.102,188.84,606.254,196.084,624.72,193.984z"/>
	<path d="M499.969,215.197c2.188-3.172,6.303-4.586,10.041-4.303c3.152,0.23,5.539,2.471,7.905,4.314
		c5.654,4.628,13.297,5.78,20.385,5.884c2.848,0.272,4.89-1.717,6.491-3.769c-5.329-1.246-11.182-1.215-15.862-4.397
		c5.612-0.283,11.224,0.188,16.846,0.199c-0.241-2.408-0.419-5.088-2.398-6.795c-4.879-4.806-12.114-5.884-18.658-6.397
		c-10.617-0.586-22.071,0.492-30.981,6.827c-6.502,4.586-8.47,13.936-5.141,21.003c6.123,13.074,27.995,20.313,43.252,24.573
		c6.753-4.607,14.449-7.465,22.207-9.842C531.995,236.452,491.858,228.876,499.969,215.197z M531.034,204.915
		c0.429,0.66,1.298,1.958,1.728,2.607c-3.141,0.953-7.235,0.995-8.847-2.46C526.28,204.884,528.657,204.852,531.034,204.915z"/>
	<path d="M581.07,318.83c-8.428,3.968-17.653,5.811-26.06,9.852c0.188,11.737,0.136,23.484,0.272,35.232
		c-6.031-3.455-11.978-8.135-14.302-14.93c-2.178-6.272,0.314-13.444,5.204-17.715c12.662-11.196,31.23-9.04,47.723-24.51
		c13.571-13.199,13.783-37.416-5.204-51.44c-10.763,3.361-21.904,5.371-32.698,8.544c-2.031,0.272-1.225,2.638-1.434,4
		c0.167,12.889,0.157,25.788,0.304,38.687c-12.939-5.391-24.624-12.189-22.061-26.029c0.754-6.387,5.779-11.224,11.056-14.354
		c16.711-10.207,72.67-14.202,86.986-35.536c4.167-5.937,4.314-14.595-0.094-20.438c-8.605-10.969-31.226-12.245-44.592-8.575
		c-5.424,1.393-11.203,5.151-11.036,11.465c5.706,0.063,11.412-0.429,17.119-0.22c-4.722,3.288-10.753,3.12-16.114,4.596
		c1.728,1.644,3.497,3.727,6.146,3.602c8.219,0.209,16.909-1.78,23.034-7.58c4.785-4.555,14.187-2.963,16.532,3.382
		c3.575,9.838-20.07,16.247-32.342,19.799c-27.891,7.905-54.451,9.489-66.527,28.5c-9.971,14.836-7.852,38.283,16.585,50.11
		c1.968-0.66,3.654-1.937,5.455-2.932c6.617-4,14.061-6.23,21.286-8.858c0.105-14.093,0.126-28.175,0.199-42.268
		c6.261,2.492,12.763,5.214,17.391,10.324c5.958,6.293,6.533,17.244,0.492,23.683c-13.29,14.657-35.785,11.842-50.058,29.358
		c-8.417,10.173-12.79,31.842,11.737,46.655c6.083-4.251,12.91-7.214,19.558-10.439c0.314-11.737,0.356-23.484,0.492-35.221
		c3.853,2.084,7.842,4.23,10.68,7.664c7.89,9.403,4.716,23.481-13.632,31.829c-8.104,3.863-17.014,7.685-21.956,15.632
		c-7.19,10.443-4.968,23.914,1.562,31.797c0.944-1.732,1.911-3.488,2.881-5.227c-2.757-7.067-2.446-15.689,2.667-21.597
		c5.664-7.099,15.119-8.711,22.877-12.543c0.093-0.043,0.179-0.09,0.271-0.134c3.469-5.288,5.121-9.482,5.121-9.482
		s2.885,0.61,6.981,1.346C597.788,351.163,596.167,331.06,581.07,318.83z M587.792,206.517c2.806-1.455,6.471-2.953,9.235-0.523
		C594.524,208.506,590.504,208.894,587.792,206.517z"/>
	<path d="M555.775,390.263c1.095-1.604,1.966-2.715,2.497-3.099c2.725-1.964,5.127-4.187,7.221-6.464
		c0.003-0.402,0.006-0.768,0.008-1.091c0.206,0.129,0.408,0.268,0.613,0.4c0.793-0.892,1.539-1.788,2.238-2.679
		c-4.268,1.772-8.559,3.49-12.725,5.503C555.68,385.351,555.728,387.825,555.775,390.263z"/>
</g>
<g>
	<path d="M1906.034,584.451h-402.457c-128.829,0-234.46,59.549-234.46,133.088v322.11c0,25.134,34.638,45.479,78.709,45.479
		c44.11,0,79.74-20.344,79.74-45.479V749.214h40.647c0,0,0.952,758.371,0.952,808.221c0,33.653,47.796,60.955,106.888,60.955
		c59.014,0,106.849-27.303,106.849-60.955v-469.303h43.844v469.303c0,33.653,47.872,60.955,106.849,60.955
		c59.015,0,107.345-27.303,107.345-60.955V749.214h41.067v290.435c0,25.134,35.743,45.479,79.774,45.479
		c44.072,0,78.599-20.344,78.599-45.479v-322.11C2140.38,644,2034.899,584.451,1906.034,584.451z"/>
	<path d="M1704.79,541.954c144.532,0,261.877-117.229,261.877-261.799c0-144.534-117.345-261.764-261.877-261.764
		c-144.571,0-261.841,117.232-261.841,261.764C1442.948,424.725,1560.219,541.954,1704.79,541.954z M1507.751,230.315
		c0.991-1.738,1.023-1.678,0.303-2.566c-4.424-5.5-2.128-14.313,1.031-20.613c2.666-5.297,2.96-4.374,4.257-8.255
		c3.395-10.145,9.658-21.079,18.453-26.258c5.471-3.211,13.394-13.566,22.861-22.489c-4.777,0.422-5.442,0.068-7.182-0.459
		c-6.293-1.539-11.214-6.24-14.669-11.528c18.34-1.642,36.691-3.183,55.043-4.723c1.381-1.18,2.802-2.3,4.257-3.367
		c-64.853,5.477-63.722,6.102-69.665,3.723c-8.533-3.507-14.888-11.412-17.202-20.27c45.859-0.073,91.718-0.052,137.577-0.01
		c3.049-0.139,6.005,0.528,8.681,1.793c11.03-3.671,21.666-4.742,33.872-3.426c-0.134-8.947,6.684-17.444,15.556-19.098
		c9.915-2.345,20.658,4.764,22.762,14.658c0.43,1.604,0.607,3.235,0.565,4.853c4.023,1.135,8.026,2.735,12.041,4.892
		c5.855-0.152,11.625,0.003,17.445,0.829c2.647-2.153,5.815-3.653,9.222-4.156c2.155-0.31-9.015-0.741,141.42,2.481
		c-2.24,8.418-8.962,15.402-17.328,17.872c-5.619,1.694-2.446,1.788-99.833-6.711c-0.168-0.025-0.339-0.029-0.509-0.048
		c3.502,0.992,7.522,2.281,11.873,4.028c26.057,2.224,52.136,4.291,78.176,6.73c-4.575,7.235-12.616,13.014-21.526,12.083
		c-10.68-1.437-21.353-2.928-32.026-4.42c1.404,1.205,2.646,2.377,3.746,3.501c8.58,1.189,17.155,2.415,25.715,3.756
		c-4.059,5.532-8.34,8.938-14.105,10.03c4.103,4.473,5.434,7.886,6.094,10.602c7.744,4.138,14.476,10.196,18.664,15.608
		c8.706,11.254,8.731,20.453,9.187,25.765c3.749,2.245,4.171,2.406,6.063,4.349c4.914,5.032,9.313,12.971,11.637,20.988
		c0.742,2.566,0.759,2.6,1.766,3.705c13.531,14.87,12.412,61.432,12.263,64.96c-1.283,30.41-12.719,56.769-43.102,60.074
		c-2.368,0.257-7.494,0.219-9.796,0.221c1.396,7.27,1.567,5.25,1.031,8.609c-0.762,4.754-1.579,6.656-3.882,9.007
		c-1.273,1.3-1.283,1.313-1.395,2.402c-0.636,6.22-7.098,14.407-15.608,19.783c-6.645,4.199-12.859,6.594-23.291,8.983
		c-21.648,4.953-18.504,2.128-35.153,1.844c-8.186-0.143-5.756,0.105-10.946-0.987c-6.949-1.456-8.565-2.145-8.701-1.793
		c-1.368,3.547,15.461,30.771,3.307,32.264c-1.743,0.217-4.751,1.147-7.85,0.33c-8.16-2.138-13.704-10.355-16.595-18.419
		c-0.652-1.826-4.871-10.058-9.716-18.95c-3.042,3.626-6.97,6.014-11.157,6.365c2.45-3.371,5.811-6.094,7.56-9.957
		c0.25-0.547,0.478-1.108,0.695-1.675c-3.727-6.687-7.474-13.098-10.02-16.849c-0.316,19.985-1.209,58.098-2.884,71.282
		c-0.178,2.272-1.036,4.397-2.146,6.376c-3.708-8.423-3.804-40.902-4.712-85.206c0.456-0.22,0.916-0.43,1.374-0.644
		c-0.679-0.682-1.329-1.373-1.95-2.068c-2.528,1.433-4.844,3.182-6.732,5.549c-5.455,6.303-5.444,15.695-2.073,22.992
		c1.675,4.01,5.266,6.69,7.559,10.303c-13.63-1.545-23.038-23.102-12.596-38.268c2.095-3.369,4.908-5.992,8.066-8.196
		c-0.54-0.84-1.036-1.649-1.483-2.414c-0.579,0.375-1.158,0.749-1.725,1.146c-3.346-2.021-6.137-4.172-8.47-6.401
		c-7.249,1.307-18.394,3.032-24.106,2.471c-7.547-0.749-30.901,3.401-57.27-18.422c-3.336-2.769-20.707-10.368-18.266-21.624
		c0.373-1.751-0.591-1.154-1.099-5.478l-0.248-2.168c-3.948-4.05-5.371-5.365-6.703-9.616
		c-40.048-7.375-51.232-23.541-54.851-41.118C1509.504,258.472,1500.636,242.713,1507.751,230.315z"/>
	<path d="M1685.511,113.919c0.806,10.596,11.643,19.035,22.123,17.119c9.211-1.084,16.383-9.71,16.616-18.757
		c-10.942-3.087-22.033-2.629-33.943,0.227c-1.68-0.258-3.321-0.466-4.941-0.64C1685.377,112.55,1685.417,113.234,1685.511,113.919z
		"/>
	<path d="M1634.93,136.137c0.188,3.853-0.544,7.769,0.314,11.58c1.592,9.214,8.397,17.161,17.077,20.5
		c13.565,5.635,31.531-3.508,43.535,14.742c-0.063-11.978,0.314-23.977-0.23-35.944c-3.585,21.64-26.536,19.991-32.583,7.538
		c-3.162-5.403-1.738-11.758-0.042-17.37c2.001-8.968-3.502-18.107-11.505-21.89c-1.203,0.401-2.41,0.821-3.625,1.284
		c-22.651-2.212-41.093,2.729-55.765,13.481c9.211-0.778,19.75-1.653,31.832-2.632
		C1629.182,126.724,1634.479,130.85,1634.93,136.137z"/>
	<path d="M1746.332,131.698c-0.942,6.732,4.073,13.171,1.403,19.841c-3.831,14.26-27.843,19.279-34.017-3.319
		c0.042,11.611,0.094,23.212-0.01,34.824c10.703-17.917,31.157-9.437,43.838-14.951c9.915-3.895,17.276-13.999,17.108-24.762
		c0.157-3.947-0.974-8.502,1.78-11.842c2.277-3.33,6.415-4.48,10.276-4.047c-6.355-1.801-11-2.631-12.781-3.463
		c-6.928-3.239-13.592-5.04-20.192-5.976C1749.599,121.367,1746.747,126.341,1746.332,131.698z"/>
	<path d="M1629.977,131.959c-2.209-0.974-4.513-1.968-6.984-1.508c-11.713,1.008-23.43,1.99-35.147,2.973
		c-0.953,0.813-1.89,1.651-2.807,2.517c-11.012-1.465-21.394,5.718-30.384,14.192c7.355-0.649,24.46-3.137,70.275-9.662
		C1626.459,137.55,1628.176,134.723,1629.977,131.959z"/>
	<path d="M1779.501,131.865c1.822,2.848,3.612,5.727,5.266,8.701c12.821,1.713,25.63,3.506,38.438,5.297
		c-3.754-3.222-8.694-6.686-15.376-10.156c-3.194-1.659-6.295-3.053-9.247-4.238c-3.802-0.324-7.605-0.642-11.406-0.976
		C1784.506,130.022,1781.93,130.86,1779.501,131.865z"/>
	<path d="M1719.329,143.194c3.518,0.408,6.293-4.178,3.958-6.984c-2.136-2.953-6.209-1.811-9.308-2.063
		c-8.544,0.377-17.223-0.618-25.694,0.492c-4.209,1.508-3.036,8.586,1.497,8.502C1699.625,143.33,1709.487,143.236,1719.329,143.194
		z"/>
	<path d="M1650.017,181.766c24.706,1.874,34.247-5.086,45.587,12.323c-3.345-28.298-30.73-16.606-45.482-23.547
		c-9.004-3.874-15.978-12.271-17.747-21.956c-0.869-4.481-0.262-9.057-0.408-13.58
		C1618.232,150.287,1628.536,178.532,1650.017,181.766z"/>
	<path d="M1759.126,181.808c20.774-2.666,32.825-30.283,18.49-46.801c-0.094,4.837,0.639,9.779-0.649,14.522
		c-2.031,9.444-9.046,17.485-17.925,21.181c-15.565,7.003-40.821-5.2-45.147,23.17
		C1726.56,176.69,1732.286,183.672,1759.126,181.808z"/>
	<path d="M1579.197,163.296c14.501-2.816,28.918-6.135,43.419-9.015c0.147-3.56,0.471-7.12,1.215-10.617
		c-22.312,3.183-44.676,5.999-66.935,9.455C1561.566,160.511,1570.444,164.972,1579.197,163.296z"/>
	<path d="M1786.903,154.229c12.962,2.743,25.935,5.434,38.886,8.229c5.038,1.161,9.19,1.37,12.772,0.691
		c-0.691-0.753-1.451-1.533-2.31-2.348c-2.024-1.923-4.145-6.168-9.3-11.438c-13.722-1.901-27.456-3.707-41.158-5.73
		C1786.359,147.141,1786.736,150.68,1786.903,154.229z"/>
	<path d="M1698.755,242.44c4-0.953,8.01-1.906,11.999-2.921c0.031-31.086,0.147-62.172,0.126-93.257
		c-4.115-0.031-8.229-0.031-12.334-0.01C1698.515,178.311,1698.546,210.381,1698.755,242.44z"/>
	<path d="M1581.27,166.113c5.256,6.041,13.538,10.208,21.642,8.156c7.79-2.262,15.538-4.659,23.275-7.067
		c-1.309-3.267-2.356-6.617-3.204-10.03C1609.1,160.239,1595.122,162.888,1581.27,166.113z"/>
	<path d="M1806.619,174.269c8.093,2.021,16.448-2.063,21.642-8.198c-13.852-3.11-27.788-5.895-41.671-8.858
		c-0.859,3.403-1.947,6.743-3.246,10.009C1791.091,169.589,1798.839,171.997,1806.619,174.269z"/>
	<path d="M1627.716,169.924c-7.926,2.429-15.925,4.628-23.757,7.319c4.816,4.994,11.789,7.926,18.752,7.497
		c4.89-0.838,9.224-3.487,13.758-5.361C1633.139,176.625,1630.197,173.452,1627.716,169.924z"/>
	<path d="M1773.104,179.326c4.335,1.916,8.533,4.366,13.203,5.34c7.141,0.712,14.355-2.335,19.307-7.444
		c-7.853-2.649-15.841-4.848-23.746-7.308C1779.386,173.432,1776.454,176.614,1773.104,179.326z"/>
	<path d="M1639.589,181.357c-4.198,1.801-8.418,3.56-12.501,5.612c3.937,3.371,8.481,6.334,13.716,7.057
		c19.091,2.036,47.221-5.214,55.335,16.134C1692.245,168.997,1661.122,193.462,1639.589,181.357z"/>
	<path d="M1768.968,193.984c5.162-0.764,9.674-3.654,13.433-7.141c-4.104-1.937-8.282-3.696-12.449-5.476
		c-11.905,5.694-15.508,3.004-38.3,3.769c-7.808,0.27-16.98,6.79-18.03,25.254C1720.35,188.84,1750.502,196.084,1768.968,193.984z"
		/>
	<path d="M1644.217,215.197c2.188-3.172,6.303-4.586,10.041-4.303c3.151,0.23,5.539,2.471,7.905,4.314
		c5.654,4.628,13.297,5.78,20.385,5.884c2.848,0.272,4.89-1.717,6.491-3.769c-5.329-1.246-11.182-1.215-15.862-4.397
		c5.612-0.283,11.224,0.188,16.846,0.199c-0.241-2.408-0.419-5.088-2.398-6.795c-4.879-4.806-12.114-5.884-18.658-6.397
		c-10.617-0.586-22.071,0.492-30.981,6.827c-6.502,4.586-8.47,13.936-5.141,21.003c6.123,13.074,27.995,20.313,43.252,24.573
		c6.753-4.607,14.449-7.465,22.207-9.842C1676.243,236.452,1636.106,228.876,1644.217,215.197z M1675.281,204.915
		c0.429,0.66,1.298,1.958,1.728,2.607c-3.141,0.953-7.235,0.995-8.847-2.46C1670.528,204.884,1672.905,204.852,1675.281,204.915z"/>
	<path d="M1725.318,318.83c-8.428,3.968-17.653,5.811-26.06,9.852c0.188,11.737,0.136,23.484,0.272,35.232
		c-6.031-3.455-11.978-8.135-14.302-14.93c-2.178-6.272,0.314-13.444,5.204-17.715c12.662-11.196,31.23-9.04,47.723-24.51
		c13.571-13.199,13.783-37.416-5.204-51.44c-10.763,3.361-21.903,5.371-32.698,8.544c-2.031,0.272-1.225,2.638-1.434,4
		c0.167,12.889,0.157,25.788,0.303,38.687c-12.939-5.391-24.623-12.189-22.06-26.029c0.754-6.387,5.779-11.224,11.056-14.354
		c16.711-10.207,72.67-14.202,86.986-35.536c4.167-5.937,4.314-14.595-0.094-20.438c-8.605-10.969-31.226-12.245-44.592-8.575
		c-5.423,1.393-11.203,5.151-11.035,11.465c5.706,0.063,11.412-0.429,17.119-0.22c-4.722,3.288-10.753,3.12-16.114,4.596
		c1.728,1.644,3.497,3.727,6.146,3.602c8.219,0.209,16.909-1.78,23.034-7.58c4.785-4.555,14.187-2.963,16.532,3.382
		c3.575,9.838-20.07,16.247-32.342,19.799c-27.891,7.905-54.451,9.489-66.527,28.5c-9.971,14.836-7.852,38.283,16.585,50.11
		c1.968-0.66,3.654-1.937,5.455-2.932c6.617-4,14.061-6.23,21.286-8.858c0.105-14.093,0.126-28.175,0.199-42.268
		c6.261,2.492,12.763,5.214,17.391,10.324c5.958,6.293,6.533,17.244,0.492,23.683c-13.29,14.657-35.785,11.842-50.058,29.358
		c-7.268,8.785-11.504,26.141,3.267,40.254c4.038-0.728,6.872-1.327,6.872-1.327s1.079,2.741,3.323,6.582
		c5.635-3.649,11.804-6.369,17.833-9.293c0.314-11.737,0.356-23.484,0.492-35.221c3.853,2.084,7.842,4.23,10.68,7.664
		c7.89,9.403,4.716,23.481-13.632,31.829c-4.668,2.225-9.599,4.442-13.89,7.436c1.538,2.391,3.458,5.028,5.776,7.62
		c5.054-2.864,10.974-4.44,16.145-6.994C1742.069,360.842,1743.892,333.877,1725.318,318.83z M1732.04,206.517
		c2.806-1.455,6.471-2.953,9.235-0.523C1738.772,208.506,1734.752,208.894,1732.04,206.517z"/>
	<path d="M1719.005,374.573c-5.864,2.67-11.914,4.896-17.755,7.617c1.738,1.748,3.662,3.437,5.785,4.967
		c0.545,0.394,1.447,1.551,2.583,3.224c0.077-4.878,0.12-8.681,0.132-10.772c3.864,2.429,7.57,5.444,9.591,9.653
		c2.935,5.556,2.499,12.219,0.297,17.967c0.977,1.753,1.952,3.522,2.902,5.267C1730.077,403.51,1732.141,386.886,1719.005,374.573z"
		/>
</g>
</svg>
