<?xml version="1.0" encoding="UTF-8" standalone="no"?>
<!-- Created with Inkscape (http://www.inkscape.org/) -->

<svg
   xmlns:dc="http://purl.org/dc/elements/1.1/"
   xmlns:cc="http://creativecommons.org/ns#"
   xmlns:rdf="http://www.w3.org/1999/02/22-rdf-syntax-ns#"
   xmlns:svg="http://www.w3.org/2000/svg"
   xmlns="http://www.w3.org/2000/svg"
   xmlns:sodipodi="http://sodipodi.sourceforge.net/DTD/sodipodi-0.dtd"
   xmlns:inkscape="http://www.inkscape.org/namespaces/inkscape"
   id="svg3376"
   version="1.1"
   inkscape:version="0.91 r13725"
   width="463.125"
   height="473.4375"
   viewBox="0 0 463.125 473.4375"
   sodipodi:docname="BushmanPainting8.svg">
  <metadata
     id="metadata3382">
    <rdf:RDF>
      <cc:Work
         rdf:about="">
        <dc:format>image/svg+xml</dc:format>
        <dc:type
           rdf:resource="http://purl.org/dc/dcmitype/StillImage" />
        <dc:title></dc:title>
      </cc:Work>
    </rdf:RDF>
  </metadata>
  <defs
     id="defs3380" />
  <sodipodi:namedview
     pagecolor="#ffffff"
     bordercolor="#666666"
     borderopacity="1"
     objecttolerance="10"
     gridtolerance="10"
     guidetolerance="10"
     inkscape:pageopacity="0"
     inkscape:pageshadow="2"
     inkscape:window-width="1600"
     inkscape:window-height="837"
     id="namedview3378"
     showgrid="false"
     inkscape:zoom="1.4151815"
     inkscape:cx="231.5625"
     inkscape:cy="236.71875"
     inkscape:window-x="-8"
     inkscape:window-y="-8"
     inkscape:window-maximized="1"
     inkscape:current-layer="svg3376" />
  <path
     style="fill:#000000"
     d="m 98.90625,469.75433 c -3.501563,-0.84503 -7.03125,-2.70106 -7.03125,-3.69726 0,-0.41357 -3.748692,-0.72896 -8.330427,-0.70086 -9.048742,0.0555 -10.841565,-0.67794 -11.620771,-4.7541 -1.114244,-5.82879 3.535446,-10.51226 9.335657,-9.40348 1.388283,0.26539 4.450182,-0.10211 6.80422,-0.81666 2.354039,-0.71455 5.615715,-1.30374 7.248168,-1.30933 3.798141,-0.013 4.843443,-1.24769 19.537733,-23.07799 4.12821,-6.133 8.03958,-12.20559 8.69195,-13.49465 1.18283,-2.33726 4.88769,-7.82871 6.81917,-10.10753 0.55999,-0.66072 2.7739,-4.24656 4.91979,-7.96856 3.61904,-6.27713 5.28353,-9.31278 11.11567,-20.27231 1.20867,-2.27131 4.42426,-6.05339 7.14575,-8.40462 5.41093,-4.67479 6.84974,-6.76443 13.31694,-19.34073 2.38637,-4.64063 5.85677,-10.77934 7.71198,-13.64157 1.85521,-2.86225 4.03504,-6.7883 4.84408,-8.72457 0.80902,-1.93628 3.94588,-6.97726 6.9708,-11.20218 6.04059,-8.43696 7.57333,-11.06159 10.441,-17.87898 2.96906,-7.05845 3.28971,-5.16745 -5.66288,-33.39645 -2.69818,-8.50781 -5.20961,-16.10156 -5.58094,-16.875 -0.37135,-0.77344 -1.6313,-3.9375 -2.7999,-7.03125 -1.89625,-5.02011 -6.35246,-15.31688 -12.57758,-29.0625 -3.82528,-8.44656 -16.45541,-48.9898 -16.45541,-52.82256 0,-1.05079 -0.34527,-2.12392 -0.76727,-2.38473 -0.84984,-0.52523 -8.81573,4.61129 -15.23921,9.82645 -5.4066,4.38956 -15.12859,10.15259 -32.95708,19.53638 -3.98465,2.09727 -7.642399,3.81321 -8.128343,3.81321 -0.485935,0 -3.262634,1.37109 -6.170445,3.04687 l -5.286929,3.04688 0.75056,8.90625 c 0.412808,4.89844 0.754364,19.24219 0.759014,31.875 0.0082,22.15731 -0.06801,23.11779 -2.155824,27.1875 -4.443291,8.66115 -14.414423,13.42703 -28.304473,13.52861 -7.818413,0.0572 -9.345089,-0.20767 -12.499078,-2.16841 -7.059943,-4.38895 -10.555103,-9.85996 -16.241319,-25.4227 -1.789759,-4.89844 -3.819016,-10.38281 -4.509456,-12.1875 -0.690441,-1.80469 -2.137945,-6.13116 -3.216676,-9.61437 -1.078732,-3.48323 -2.344256,-7.06916 -2.812277,-7.96875 -0.468022,-0.8996 -1.280541,-3.32313 -1.805597,-5.38563 -2.534949,-9.95765 -3.245223,-12.39492 -4.371317,-15 C 9.3377731,193.03681 7.8107967,187.02396 6.627877,180 6.1502708,177.16406 5.3622161,173.15625 4.8766446,171.09375 4.391073,169.03125 3.4578191,162.56667 2.8027471,156.72802 c -1.1616248,-10.35354 -1.1413565,-10.67769 0.8206711,-13.125 4.9522314,-6.17709 4.9995281,-6.30772 3.841236,-10.60929 -0.5977815,-2.21999 -2.1200968,-5.26426 -3.382923,-6.76504 -1.8984576,-2.25618 -2.2477294,-3.55934 -2.0170144,-7.52557 0.200973,-3.45493 0.6363387,-4.72148 1.5562539,-4.52738 0.7024713,0.14822 1.7986275,-0.44357 2.4359025,-1.3151 0.6372751,-0.87153 1.6445571,-1.2843 2.2384044,-0.91729 C 10.003452,112.99906 9.5534475,114.375 7.5,114.375 c -1.6235622,0 -1.875,0.625 -1.875,4.6607 0,4.47237 0.1231104,4.69237 3.046875,5.4448 2.450301,0.63058 3.108756,1.32418 3.362916,3.54243 0.173821,1.51708 1.132395,3.52175 2.130163,4.45483 2.085202,1.95002 1.62018,3.20764 -1.645118,4.4491 -1.279345,0.48642 -2.8950007,2.30247 -3.6447273,4.09682 -0.7406849,1.77271 -1.8240358,3.51812 -2.4074465,3.87868 -0.7130432,0.44068 -0.8751382,2.68966 -0.494507,6.86098 0.3114319,3.41298 0.8193145,10.21322 1.128628,15.11166 0.3093135,4.89844 0.9473246,9.04688 1.4178025,9.21875 0.4704778,0.17188 0.8554143,1.54869 0.8554143,3.05959 0,1.51091 0.3771947,3.47966 0.83821,4.37501 0.994654,1.93173 5.731105,16.88362 10.910007,34.4404 3.466558,11.75182 5.28436,17.03201 7.512802,21.82251 1.265814,2.72112 2.301481,5.5344 2.301481,6.25172 0,0.71733 1.403781,4.18627 3.119513,7.70875 7.457888,15.31142 9.30871,16.7328 21.724237,16.68356 6.337401,-0.0251 9.954238,-0.56879 14.53125,-2.18423 7.280706,-2.56971 8.921723,-3.92143 11.420882,-9.40742 1.803569,-3.95907 1.879204,-5.56004 1.484826,-31.42948 -0.552268,-36.22623 -3.491787,-56.91679 -10.855595,-76.40991 -3.719215,-9.84533 -6.795374,-13.97091 -12.638188,-16.94968 -2.168746,-1.10566 -5.373059,-2.89499 -7.120696,-3.97629 -4.768991,-2.95065 -15.645984,-3.31106 -23.428984,-0.77632 -6.431256,2.09451 -11.290466,2.52227 -11.479433,1.01054 -0.172248,-1.37799 -0.392848,-2.06415 -1.601994,-4.98291 -1.504275,-3.63116 -1.381061,-4.39209 0.711192,-4.39209 1.498414,0 1.752321,-0.56154 1.496841,-3.31042 -0.370697,-3.98854 -2.206552,-6.59688 -3.636618,-5.16681 -1.603406,1.6034 -2.477233,1.12137 -2.477233,-1.36652 0,-2.05113 0.40744,-2.34375 3.263389,-2.34375 2.805207,0 3.338594,0.36197 3.799034,2.57813 0.294605,1.41796 1.146393,4.63048 1.892861,7.1389 0.746469,2.50843 1.357216,5.56702 1.357216,6.79687 0,1.58844 0.527051,2.2361 1.819672,2.2361 2.543189,0 3.243157,-1.55935 2.974247,-6.62587 -0.219258,-4.13103 -0.08191,-4.41023 2.4033,-4.88531 3.475149,-0.66432 3.777484,-0.3928 4.531391,4.06954 0.579165,3.42804 0.884297,3.77046 3.128449,3.51071 2.631478,-0.30458 2.77864,-0.89081 1.578471,-6.28794 -0.608106,-2.73464 -0.488906,-3.10323 0.838803,-2.59375 1.044928,0.40098 1.780968,-0.0368 2.26596,-1.34791 0.593333,-1.60394 0.904677,-1.71726 1.789343,-0.6513 1.243032,1.49776 1.826546,8.30416 0.847698,9.88796 -0.703824,1.13882 5.543422,2.82812 6.589645,1.78189 0.305003,-0.305 0.135097,-2.67596 -0.377569,-5.26878 -0.731182,-3.69798 -0.672488,-4.71424 0.27227,-4.71424 0.662415,0 1.887427,-0.68303 2.722248,-1.51786 0.834822,-0.83481 1.762295,-1.27341 2.061051,-0.97466 0.872915,0.87291 2.094889,8.22209 2.139192,12.86551 0.03945,4.13507 0.221165,4.40355 5.39334,7.96875 2.94388,2.02923 6.5164,5.37701 7.938933,7.43951 2.670735,3.87224 6.700968,14.97927 7.824043,21.5625 1.078103,6.3196 3.346142,13.59375 4.238457,13.59375 0.465244,0 2.650151,-0.82055 4.855352,-1.82345 2.2052,-1.00289 6.682041,-2.79586 9.948545,-3.98437 6.945689,-2.52718 13.100229,-7.9399 18.519229,-16.28708 3.81833,-5.88157 13.6041,-16.11388 19.70626,-20.60548 12.23038,-9.00239 15.10627,-12.28473 17.08892,-19.50408 l 0.99162,-3.6107 -2.99756,0.52096 c -4.3337,0.75318 -12.07789,-1.50176 -13.1113,-3.81773 -0.57485,-1.28827 -0.22653,-4.43212 1.08066,-9.753908 1.0609,-4.319102 2.21279,-10.5951 2.55974,-13.946662 0.76831,-7.421991 3.45339,-14.990017 6.67797,-18.822211 3.38708,-4.025327 4.05653,-9.025355 4.09183,-30.561229 0.0247,-15.02879 0.30029,-19.138191 1.34182,-20.002584 1.87376,-1.555078 2.86084,-0.59587 4.08666,3.971248 0.88853,3.310461 2.86355,26.496794 2.91681,34.242901 0.011,1.593417 0.56104,2.109375 2.24891,2.109375 1.30423,0 2.45163,-0.682988 2.75619,-1.640625 0.28699,-0.902344 2.25727,-6.492188 4.37839,-12.421875 2.12112,-5.929688 5.29883,-14.942673 7.06154,-20.028855 1.76273,-5.086183 3.63488,-9.7656244 4.16033,-10.398759 0.52546,-0.6331343 0.7323,-1.3742259 0.45965,-1.6468703 -0.27264,-0.2726442 0.01,-1.6049215 0.62737,-2.9606162 C 183.6747,2.7008092 184.78577,1.875 186.24424,1.875 c 3.10428,0 2.85908,3.0973185 -1.1504,14.53125 -1.80812,5.15625 -3.84136,11.282958 -4.51832,13.614907 -0.67695,2.331948 -1.71619,5.179605 -2.30942,6.328125 -0.59323,1.14852 -1.48106,2.895157 -1.97296,3.881416 -0.49189,0.98626 -1.1746,3.905779 -1.51712,6.487821 l -0.62277,4.694622 3.62651,1.006951 c 1.99456,0.553824 4.50832,1.009304 5.58613,1.01218 3.08062,0.0083 12.65031,5.239856 16.96482,9.274471 5.6411,5.275146 6.13567,8.924697 2.06839,15.263008 -1.71551,2.673374 -4.29303,6.145978 -5.72785,7.716897 -1.43481,1.570919 -2.60875,3.126697 -2.60875,3.457283 0,0.330587 -1.79297,1.795548 -3.98438,3.255469 C 181.88113,97.860263 180,100.23622 180,105.12858 c 0,2.44655 0.34376,4.66072 0.76392,4.92039 0.42016,0.25967 4.53344,0.94521 9.14063,1.52341 4.60718,0.5782 9.64232,1.47818 11.1892,1.99994 2.69439,0.90881 10.75102,3.08143 22.25147,6.00051 2.95706,0.75057 6.38257,1.36467 7.61225,1.36467 1.22967,0 4.92745,0.86061 8.21728,1.91246 8.65486,2.76722 13.16929,2.6458 16.95585,-0.45605 3.76061,-3.0806 16.74215,-15.77465 16.43418,-16.07024 -0.72389,-0.6948 -36.15146,5.00183 -38.3003,6.15855 -3.10745,1.67273 -16.42901,3.07578 -18.5296,1.95158 -2.43681,-1.30414 -2.53008,-3.0248 -0.27461,-5.06598 2.49022,-2.25361 15.55011,-5.33543 22.14053,-5.22463 3.12424,0.0525 11.5867,-0.96608 18.80545,-2.26357 7.21875,-1.2975 15.86719,-2.632458 19.21875,-2.966573 3.35156,-0.334125 9.67969,-1.1871 14.0625,-1.895494 4.38281,-0.708394 12.28052,-1.575919 17.55045,-1.927828 l 9.5817,-0.639844 -1.86921,3.86881 c -1.68779,3.493329 -2.20828,3.872029 -5.36295,3.902059 -6.6475,0.0633 -20.16355,2.54659 -20.92138,3.84391 -0.41094,0.7035 -1.72034,2.5898 -2.90976,4.19179 -14.09562,18.98471 -18.88432,24.12273 -25.59424,27.46121 -4.35044,2.16454 -5.05111,2.22818 -18.67433,1.69615 -7.78486,-0.30404 -17.43101,-1.2296 -21.43589,-2.05683 -7.19293,-1.48574 -9.72756,-1.29506 -8.53054,0.64175 0.33794,0.5468 0.72361,4.42 0.85704,8.6071 0.13343,4.18711 0.72809,11.19886 1.32146,15.58167 0.59337,4.38281 1.68527,15.14062 2.42644,23.90625 1.74399,20.62567 4.37418,34.51252 8.87821,46.875 1.12714,3.09375 2.24621,7.10156 2.48681,8.90625 0.2406,1.80469 0.77396,4.125 1.18523,5.15625 0.41127,1.03125 1.48486,4.97461 2.38574,8.76303 2.22632,9.36215 6.24378,17.88678 10.37798,22.02098 3.33026,3.33026 4.56947,4.03601 13.55974,7.72249 2.32031,0.95145 5.69531,2.62632 7.5,3.72195 1.80469,1.09563 6.65625,3.56543 10.78125,5.48844 12.97275,6.04771 25.61192,13.23924 39.32592,22.37593 8.46701,5.64099 11.22955,6.31343 25.93699,6.31343 13.55039,0 13.58898,0.007 34.58084,6.68748 4.21707,1.34195 21.57812,9.96619 23.49902,11.67333 0.80727,0.71743 2.91665,1.5673 4.6875,1.88859 5.59002,1.01422 13.41138,3.36582 16.81348,5.05522 1.80469,0.89615 4.96875,1.92856 7.03125,2.29423 2.0625,0.36567 4.74229,1.30441 5.95507,2.08607 1.21279,0.78166 2.98612,1.21696 3.94073,0.96733 2.37986,-0.62234 16.49416,0.93579 20.82892,2.29939 2.38957,0.7517 3.71107,1.80545 4.07309,3.24784 0.65716,2.61836 -1.14779,11.45856 -2.71509,13.29783 -0.62987,0.73917 -3.88741,6.25232 -7.23897,12.25145 -5.3019,9.49012 -6.43613,10.94675 -8.72857,11.20961 -3.20097,0.36703 -5.2004,-1.16284 -6.93116,-5.30339 -1.19156,-2.85064 -1.12995,-3.42599 0.69886,-6.52559 1.81124,-3.06983 1.89064,-3.76637 0.8191,-7.18623 -1.71065,-5.45967 -4.18608,-7.75859 -10.1377,-9.41482 -6.17664,-1.71884 -22.19969,-6.49712 -28.22053,-8.41573 -2.32031,-0.73938 -5.80544,-1.62128 -7.74473,-1.95976 -1.93929,-0.33847 -3.75716,-0.98945 -4.0397,-1.44662 -0.28255,-0.45718 -1.37389,-0.83123 -2.42519,-0.83123 -1.05131,0 -6.19438,-1.25684 -11.42905,-2.79298 -9.93923,-2.91672 -17.85792,-4.99989 -34.36133,-9.03942 -5.41406,-1.3252 -12.58594,-3.3777 -15.9375,-4.56112 -3.35156,-1.18341 -9.46875,-3.23493 -13.59375,-4.55893 -10.54425,-3.38437 -17.03099,-5.66492 -22.98428,-8.0806 -2.82739,-1.14728 -6.82822,-2.74168 -8.89072,-3.54312 -2.0625,-0.80145 -6.49219,-2.62945 -9.84375,-4.06223 -15.11963,-6.4636 -26.18273,-10.34141 -30.9375,-10.84415 -4.90742,-0.51887 -5.3857,-0.37032 -9.911,3.07807 -8.92032,6.79751 -12.95564,12.63228 -25.52306,36.90448 -10.80056,20.85976 -17.59107,30.50322 -24.99999,35.50344 -2.3911,1.61373 -4.56717,2.93406 -4.83572,2.93406 -0.26855,0 -2.79755,2.00391 -5.62001,4.45313 -3.32441,2.88479 -5.98651,6.26909 -7.5588,9.60937 -9.15632,19.45245 -11.11407,22.63892 -18.89642,30.75621 -11.32595,11.8134 -21.00986,23.39789 -24.05413,28.77504 -3.5457,6.26285 -7.90896,10.80292 -10.26915,10.68529 -1.05901,-0.0528 -3.1911,-0.4014 -4.73797,-0.77471 z m 132.93887,-359.9879 2.03033,-0.75108 -2.01424,-0.63929 c -2.07566,-0.65879 -6.61221,0.0825 -8.26746,1.35088 -0.51563,0.39512 -1.99219,0.94523 -3.28125,1.22245 -1.28906,0.27723 0.32161,0.29347 3.57927,0.0361 3.25765,-0.25738 6.83666,-0.80596 7.95335,-1.21904 z m -74.0763,-65.50878 c 0.0484,-6.304829 -0.30869,-11.856403 -0.79353,-12.336831 -0.5499,-0.544886 -0.96288,3.894308 -1.09774,11.799904 -0.14882,8.724016 0.0985,12.568522 0.79354,12.336831 0.64131,-0.213768 1.04184,-4.519279 1.09773,-11.799904 z m 14.76099,0.869562 c 0.0164,-0.843404 0.63191,-2.328707 1.3678,-3.300673 0.73588,-0.971966 1.62014,-3.714154 1.96501,-6.09375 0.34487,-2.379596 1.03709,-5.115731 1.53825,-6.080299 0.61213,-1.178155 0.59632,-1.559159 -0.0482,-1.160848 -0.52765,0.326102 -1.64694,2.802793 -2.4873,5.50376 -0.84038,2.700966 -1.92732,5.643405 -2.41543,6.538752 -0.48808,0.895347 -0.88745,2.452481 -0.88745,3.460297 0,1.007816 -0.42188,2.093125 -0.9375,2.411799 -0.51563,0.318674 -0.9349,1.714665 -0.93173,3.102203 l 0.006,2.522797 1.40047,-2.685288 c 0.77026,-1.476908 1.4139,-3.375346 1.43029,-4.21875 z M 55.3125,240.03181 c 0,-3.26394 -2.260029,-8.54823 -5.627008,-13.15681 -1.318484,-1.80469 -3.356942,-5.17969 -4.529905,-7.5 -1.172964,-2.32031 -2.933516,-5.48438 -3.912337,-7.03125 -3.499246,-5.53001 -5.61825,-11.07847 -5.61825,-14.71095 0,-2.91682 -0.566789,-4.16828 -2.701244,-5.9643 -1.485684,-1.25012 -2.919279,-3.22679 -3.185764,-4.3926 -0.266485,-1.16581 -1.787697,-7.18215 -3.380469,-13.36965 -4.087,-15.87691 -3.869417,-19.77466 1.281579,-22.95816 5.559606,-3.43602 17.962872,-1.81457 19.661612,2.57031 1.170996,3.02264 3.210428,18.28154 3.261784,24.40446 0.03926,4.6812 0.604518,7.9247 1.797187,10.3125 3.238514,6.48369 6.450825,16.56899 8.126778,25.51464 0.917714,4.89844 2.238376,10.04545 2.934804,11.43782 1.303558,2.60619 1.716376,10.67328 0.683876,13.36393 -0.646601,1.68502 -5.083725,4.26075 -7.339837,4.26075 -0.985536,0 -1.452806,-0.89437 -1.452806,-2.78069 z M 24.974512,114.66202 c -1.174364,-1.17437 -0.582857,-7.57125 0.806738,-8.72452 1.218511,-1.01127 1.40625,-0.53334 1.40625,3.57988 0,4.4786 -0.865939,6.49168 -2.212988,5.14464 z M 49.6875,110.68033 c 0,-1.00082 0.421875,-2.0804 0.9375,-2.39908 0.531711,-0.32861 0.9375,0.45902 0.9375,1.81967 0,1.31949 -0.421875,2.39908 -0.9375,2.39908 -0.515625,0 -0.9375,-0.81885 -0.9375,-1.81967 z m -13.125,0.41342 c 0,-0.25781 0.210937,-0.46875 0.46875,-0.46875 0.257812,0 0.46875,0.21094 0.46875,0.46875 0,0.25781 -0.210938,0.46875 -0.46875,0.46875 -0.257813,0 -0.46875,-0.21094 -0.46875,-0.46875 z m -7.5,-2.8125 c 0,-0.77344 0.421875,-1.40625 0.9375,-1.40625 0.515625,0 0.9375,0.63281 0.9375,1.40625 0,0.77344 -0.421875,1.40625 -0.9375,1.40625 -0.515625,0 -0.9375,-0.63281 -0.9375,-1.40625 z m 24.534979,-1.38433 c -1.375872,-3.10831 -0.817194,-4.90277 1.276294,-4.09943 0.835801,0.32073 1.376227,1.77723 1.376227,3.70906 0,3.92367 -1.021958,4.07407 -2.652521,0.39037 z M 40.9375,107.1875 c -0.34375,-0.34375 -0.625,-1.06093 -0.625,-1.59375 0,-0.58744 0.43666,-0.53209 1.109375,0.14062 0.610157,0.61016 0.891407,1.32735 0.625,1.59375 -0.266407,0.26641 -0.765625,0.20313 -1.109375,-0.14062 z m 9.6875,-1.25 c 0,-0.6875 0.28125,-0.96875 0.625,-0.625 0.34375,0.34375 0.34375,0.90625 0,1.25 -0.34375,0.34375 -0.625,0.0625 -0.625,-0.625 z"
     id="path3386"
     inkscape:connector-curvature="0" />
</svg>
