<?xml version="1.0" encoding="utf-8"?>

<!DOCTYPE svg PUBLIC "-//W3C//DTD SVG 1.1//EN" "http://www.w3.org/Graphics/SVG/1.1/DTD/svg11.dtd">
<svg version="1.1" id="Layer_1" xmlns="http://www.w3.org/2000/svg" xmlns:xlink="http://www.w3.org/1999/xlink" x="0px" y="0px"
	 viewBox="0 0 2220.175 1644.428" enable-background="new 0 0 2220.175 1644.428" xml:space="preserve">
<g>
	<path d="M795.053,1402.546c11.64,3.643,22.905,4.909,32.588,11.143c18.819,12.116,27.572,33.806,21.915,55.211
		c-4.563,17.264-23.62,22.383-36.451,9.934c-4.352-4.222-7.45-9.221-10.531-14.316c-28.541-47.192-77.62-54.273-94.64-41.475
		c54.648,4.119,53.411,38.227,42.031,48.989c-5.192,4.911-21.086,4.927-30.465,0.099c-5.627-2.896-11.863-9.029-17.678-4.148
		c-6.071,5.095-3.104,13.506-1.612,20.487c10.101,47.25-28.337,53.414-42.627,48.994c-36.228-11.207-8.982-39.835-30.297-38.454
		c-31.766,2.058-31.943-26.12-59.625-18.45c-116.954,32.406-164.41-59.529-238.742-58.069c-17.803,0.349-9.558,11.98-12.007,22.938
		c-9.765,43.678-75.794,17.813-55.698-28.684c9.507-21.996-35.153-12.116-19.679-55.997c8.025-22.756,14.395-25.918,3.569-27.323
		c-46.296-6.008-68.487-11.356-81.531-52.777c-10.857-34.476-2.628-58.43-25.559-52.545c-2.185,0.561-4.267,1.519-6.45,2.091
		c-12.004,3.144-20.269-2.548-21.051-14.918c-2.917-46.158,20.612-51.66-3.888-59.318c-29.323-9.165-36.249-52.62-38.705-83.246
		C56.366,928.59,46.441,854.733,81.691,646.764c1.21-7.137-2.364-10.674-9.321-9.209c-6.954,1.465-13.815,7.801-19.549-4.907
		c-7.544-16.719,9.368-37.946-6.307-47.456c-19.378-11.756-22.439-29.458-5.3-44.653c9.131-8.095,33.725-36.386,37.148-47.423
		c4.045-13.043,4.24-13.153-8.365-15.481c-13.027-2.406-8.32-17.361-1.796-25.111c12.645-15.022-1.423-26.738,16.6-24.322
		c39.844,5.339,6.946-25.059,17.585-52.443c8.46-21.776-21.688-4.116-29.338-25.819c-3.301-9.364-1.373-17.011,5.948-23.588
		c18.917-16.997,29.703,5.043,36.337-2.905c15.081-18.07-20.723-41.494-18.173-62.582c3.61-29.857,30.771-10.776,37.991-8.647
		c11.381,3.355,21.639-2.542,24.959-13.992c4.295-14.809,3.419-32.52,25.101-30.546c27.418,2.497,13.038,25.148,7.575,36.143
		c5.405,0.327,32.953-22.761,66.233-6.188c5.927,2.952,7.962,7.212,5.866,14.564c-4.613,16.18-8.505,32.549-17.178,47.18
		c-6.565,11.075,7.649,32.681,10.956,39.954c2.531,5.566,5.667,4.707,9.115,1.286c9.18-9.107,14.051-20.18,15.276-33.064
		c2.971-31.243,20.685-38.063,31.117-32.325c13.148,7.232,6.048,28.654-3.616,38.099c-21.473,20.988-23.917,23.114-21.776,27.686
		c2.085,4.452,5.511,1.022,8.136,0.6c30.159-4.847,59.742-2.723,88.798,6.749c2.918,0.951,6.073,1.273,8.87,2.468
		c2.943,1.258,5.655,1.981,7.337-1.275c3.085-5.976-3.125-8.323-10.943-15.113c-26.872-23.337,0.007-60.978,29.148-61.246
		c18.631-0.171,31.362,16.739,20.632,36.185c-2.816,5.103-13.163,17.075,3.832,19.946c94.585,15.978,166.745-39.707,272.539-31.615
		c108.628,8.308,100.177,77.967,125.419,49.138c6.746-7.705,13.082-16.821,24.57-18.208c4.109-0.496,8.254-2.284,12.473,1.794
		c3.546,3.428,21.713-1.876,24.593-6.289c38.113-58.399,80.199-78.067,132.906-93.055c7.302-2.076,6.644-5.903,4.245-10.665
		c-4.876-9.679-13.605-14.8-23.335-18.407c-7.579-2.809-12.337,18.042-34.171,13.947c-5.774-1.083-12.737,0.792-17.917-3.164
		c-38.284-29.234,2.513-71.477,30.388-56.697c12.046,6.387,26.262-12.073,17.908-23.174c-10.285-13.667-21.782,3.692-38.167,11.684
		c-2.689,1.312-5.191,0.484-7.086,0.57c-9.037,0.407-18.549,2.466-27.101-2.583c-23.202-13.699-18.147-49.762,4.598-62.5
		c8.883-4.975,18.096-4.563,27.79-5.529c24.878-2.478,47.336,13.56,65.378,31.034c8.81,8.533,24.656,5.295,30.335-5.885
		c1.387-2.732-0.699-1.835-1.33-2.499c-13.575-14.28-15.212-40.313-1.845-54.934c7.357-8.047,14.827-18.227,27.156-18.735
		c13.117-0.541,26.867-3.612,39.381,1.879c28.406,12.465,39.109,48.256,19.068,71.553c-2.315,2.691-1.657,3.238-0.124,5.135
		c24.608,30.432,37.409-24.012,81.639-27.636c13.37-1.095,28.187-2.963,41.284,5.865c23.583,15.894,29.843,61.238-11.772,66.029
		c-32.695,3.764-39.873-28.51-54.759-14.905c-5.507,5.033-6.294,12.185-2.159,18.019c6.161,8.693,9.521,8.882,19.08,5.466
		c32.29-11.539,54.859,28.735,40.421,45.197c-7.506,8.558-13.65,18.977-29.902,16.32c-11.466-1.875-20.92-3.427-27.735-12.979
		c-1.807-2.533-4.218-2.28-5.898-1.333c-8.394,4.73-18.781,6.52-23.105,17.232c-7.116,17.629,9.725,8.587,48.41,26.687
		c44.34,20.746,78.425,57.649,90.015,81.264c1.311,2.671,3.625,2.704,5.794,2.352c6.903-1.122,13.612,1.681,20.994-1.115
		c12.514-4.739,25.829,8.472,33.451,19.357c14.015,20.014,24.794-11.936,49.759-27.295c35.955-22.121,79.693-24.711,119.943-23.23
		c71.813,2.642,141.893,46.095,227.069,31.988c20.943-3.469,3.177-18.708,1.682-28.827c-6.642-44.991,67.747-30.622,63.736,14.288
		c-1.919,21.482-26.486,24.711-21.431,34.395c3.822,7.321,14.094-4.317,54.508-9.433c17.298-2.19,34.268-1.349,51.277,1.849
		c2.183,0.41,4.566,3.162,6.78-0.023c2.803-4.032,1.087-6.772-20.43-27.15c-10.652-10.088-18.47-31.9-3.792-40.088
		c9.967-5.56,26.833,4.716,29.229,26.479c1.448,13.159,4.098,25.941,12.961,36.498c6.625,7.892,9.307,7.295,14.543-1.399
		c10.439-17.33,13.316-34.285,1.804-52.555c-6.299-9.998-7.411-22.229-10.906-33.431c-5.404-17.326,38.483-26.409,66.119-8.563
		c1.81,1.169,3.336,3.155,6.422,2.52c-0.528-6.916-13.567-17.07-6.051-30.178c3.787-6.604,10.75-6.134,16.415-5.966
		c12.937,0.383,16.433,4.698,19.552,17.474c1.358,5.565,3.018,36.677,33.706,24.986c8.569-3.264,16.9-11.424,26.27-2.815
		c23.408,21.508-22.815,51.068-14.533,70.224c3.275,7.575,5.043,8.806,12.485,5.178c31.076-15.149,48.252,34.375,16.576,39.311
		c-27.412,4.272-2.601,3.871-15.946,53.617c-2.558,9.535,3.323,15.875,14.317,13.655c14.235-2.875,15.785-2.153,16.708,12.311
		c0.607,9.512,8.229,8.787,11.516,22.915c1.969,8.462-1.544,13.91-10.006,13.296c-8.507-0.617-9.013,3.769-7.776,9.816
		c0.724,3.539,1.475,7.497,3.552,10.262c9.917,13.203,17.389,28.365,31.222,38.482c15.992,11.696,22.702,37.335,1.996,47.317
		c-21.109,10.176-2.245,30.388-9.409,47.843c-4.846,11.809-11.775,8.008-20.256,6.43c-11.922-2.218-11.366,1.646-1.325,52.174
		c28.706,144.441,12.935,390.252-3.959,433.608c-5.928,15.215-13.724,28.816-31.831,32.916c-8.043,1.821-10.028,7.594-6.45,15.973
		c5.468,12.806,6.804,26.142,6.17,39.8c-0.701,15.109-8.406,20.774-22.943,17.134c-16.068-4.021-21.343-2.334-23.294,14.735
		c-7.186,62.874-28.74,77.088-53.309,82.413c-40.022,8.673-44.123,4.616-39.368,15.293c11.261,25.285,19.046,42.554-3.698,57.667
		c-11.819,7.854-11.82,7.854-6.469,21.5c4.663,11.89,0.692,29.716-8.408,37.746c-13.325,11.759-48.606,15.569-49.641-20.375
		c-0.422-14.62-6.132-18.38-21.007-15.893c-81.689,13.657-110.747,81.544-219.379,60.31c-19.019-3.718-23.26-8.219-34.116,1.453
		c-29.63,26.396-45.979,5.466-44.736,20.857c3.426,42.426-54.233,44.598-64.89,8.046c-5.299-18.175,10.682-38.131-0.916-45.949
		c-10.043-6.77-10.834,10.755-41.044,7.791c-14.643-1.437-24.819-37.672,16.343-49.248c5.759-1.62,11.749-3.252,19.509-2.585
		c-18.675-14.921-69.916-2.732-94.605,40.127c-3.083,5.351-6.166,10.69-10.771,15.103c-13.076,12.53-32.794,8.141-36.027-9.54
		c-3.303-18.063-2.511-36.47,13.453-50c13.197-11.184,22.92-12.136,39.749-16.346c-13.077-11.911-83.933,9.506-69.542,70.329
		c4.573,19.33,31.623,36.302,49.978,23.591c4.145-2.87,6.832-6.425,7.672-10.45c5.174-24.811,35.711-24.865,47.249-2.594
		c20.953,40.444-24.276,97.309-76.219,78.649c-17.627-6.332-23.173-21.618-31.766-14.545c-3.276,2.697-6.002,5.679-3.984,10.685
		c4.593,11.392,4.952,22.716-4.637,31.657c-18.742,17.475-59.699,18.954-62.54-17.398c-1.678-21.474,4.323-57.04-31.631-74.606
		c-28.4-13.875-69.427-0.155-81.515,33.992c-6.468,18.27,21.497,51.597,27.06,33.107c3.684-12.245,10.679-16.513,23.805-15.142
		c49.794,5.198,28.106,68.442-8.057,70.443c-5.62,0.311-11.516,2.236-17.199,1.5c-55.233-7.148-56.501-48.851-79.531-52.972
		c-29.355-5.253-33.343,52.88-91.311,52.919c-8.531,0.006-17.92-0.376-25.122-5.32c-64.046-43.96,13.137-96.386,30.258-49.058
		c2.116,5.849,28.718-5.463,24.988-33.858c-5.397-41.089-94.012-67.254-110.798,2.07c-1.798,7.424,1.057,15.705-4.337,22.403
		c-0.806,1,12.435,40.272-25.886,43.36c-16.819,1.355-48.159-7.815-40.896-37.465c2.787-11.375,1.138-14.326-3.685-17.252
		c-7.656-4.644-15.097,9.974-30.182,15.465c-45.492,16.559-85.123-24.876-81.087-62.266c4.119-38.158,42.808-39.647,49.482-20.463
		c3.937,11.319,8.976,20.904,22.706,21.32c56.068,1.699,51.469-95.279-11.849-99.064
		C809.55,1401.476,802.981,1398.076,795.053,1402.546z M414.006,1139.372c128.93,90.899,240.056-7.259,407.612,39.849
		c83.05,23.35,83.349,45.52,98.643,36.86c2.537-1.436,4.194-4.254,2.734-6.4c-6.323-9.293-5.62-20.581-9.411-30.638
		c-51.014-135.353-74.28-180.936-119.711-227.273c-55.66-56.77-130.789-89.754-209.085-96.089
		c-85.387-6.909-132.007,37.311-225.693,24.944c-67.778-8.947-70.158-36.756-77.96-14.839
		C275.903,880.49,296.581,1056.585,414.006,1139.372z M1626.052,857.022c-80.054,7.942-159.571,45.578-216.412,113.785
		c-35.768,42.92-52.086,78.879-94.92,187.214c-6.537,16.533-13.982,33.054-14.161,51.423c-0.075,7.734,6.11,11.622,12.276,7.083
		c20.268-14.92,84.552-47.374,183.844-51.816c30.987-1.386,86.725,8.62,169.766,15.292
		c149.26,11.994,247.34-130.228,270.783-277.474c4.309-27.067,8.195-54.807-15.133-40.595
		c-48.204,29.367-120.298,23.403-177.276,8.447C1698.879,858.321,1673.971,852.269,1626.052,857.022z M975.97,1249.542
		c-0.749,31.222,30.089,61.132,69.308,101.621c20.483,21.147,33.241-20.916,61.911-13.027c10.655,2.933,17.385-9.508,42.628,12.899
		c8.072,7.165,13.185,8.562,21.202,1.862c11.389-9.518,24.074-17.161,32.694-30.366c9.128-13.984,21.683-25.716,30.832-39.903
		c15.541-24.099,12.495-55.872-6.992-72.402c-15.175-12.873-36.002-6.843-36.338,18.32c-0.132,9.873,6.468,13.12,14.131,16.447
		c13.826,6.003,20.846,15.957,15.548,32.64c-3.123,9.834-10.193,10.435-20.334,10.77c-14.863,0.49-23.455-6.051-31.492-16.231
		c-13.153-16.66-5.427-38.615-21.459-30.447c-21.053,10.726-32.085-14.215-26.883-38.15c2.741-12.612,10.576-22.839,19.878-31.91
		c13.941-13.596,13.747-14.031-4.056-22.273c-46.84-21.686-8.81-97.788,15.563-62.506c11.74,16.994,3.445,29.2,17.16,40.039
		c10.017,7.917,22.922,8.593,34.323,12.877c13.757,5.17,25.396-8.088,4.564-17.575c-8.142-3.708-14.341-9.749-20.859-15.343
		c-57.604-49.44-57.403-148.185-77.115-148.553c-5.191-0.097-6.63,5.025-8.471,9.141c-24.566,54.909-20.991,102.972-77.091,146.671
		c-3.975,3.096-32.062,17.801-22.197,23.336c5.079,2.849,12.494,3.851,15.907,2.198c8.958-4.339,18.816-5.2,27.835-9.349
		c16.713-7.689,13.517-24.972,18.745-37.406c10.395-24.726,34.301-16.313,39.285,3.005c5.432,21.053-0.811,49.129-27.316,57.062
		c-27.958,8.368,36.075,24.933,22.369,74.454c-4.2,15.176-13.7,20.235-27.808,13.832c-17.981-8.161-3.091,33.087-41.232,47.088
		c-5.545,2.036-9.798-3.219-14.458-0.161c-6.62,4.344-20.978-8.775-18.823-21.871c4.941-30.017,41.564-15.592,31.252-47.393
		C1018.798,1190.002,977.603,1203.612,975.97,1249.542z M1253.23,723.939c0.011-6.54-1.468-11.974-8.089-15.326
		c-27.253-13.794-111.78,154.774-90.144,209.532c3.441,8.709,1.454,18.95,3.753,28.419c0.245,1.01,20.234,123.93,59.972,136.589
		c5.71,1.819,10.982-0.099,14.376-4.347c5.562-6.962-3.632-15.666-9.563-21.082c-45.95-41.963-43.907-126.675-47.307-158.166
		c-1.002-9.286,1.618-19.398,1.741-28.398c0.126-9.248,3.319-17.521,4.319-26.175c1.171-10.136,6.878-20.072,13.34-28.686
		c34.394-45.846-0.982-32.703,39.968-65.663C1244.213,743.701,1253.384,736.849,1253.23,723.939z M1061.663,849.466
		c1.056-3.387-15.811-64.445-60.27-124.383c-18.575-25.042-31.655-16.519-33.23-8.334c-3.5,18.192,2.999,22.573,22.38,38.603
		c28.134,23.269,9.767,33.709,29.525,54.794c19.375,20.677,22.898,64.173,24.491,78.352c0.489,4.357-2.958,7.965-1.453,12.371
		c3.215,9.418,1.224,10.065-6.063,66.23c-7.824,60.302-29.975,81.333-45.314,95.83c-13.559,12.815,0.721,23.369,5.01,22.582
		c5.612-1.031,12.589-3.117,15.81-7.256c31.652-40.684,46.125-99.919,50.385-141.019c0.431-4.155,6.527-6.22,3.277-11.035
		c-2.297-3.404-1.197-7.18-1.181-10.774c0.09-21.009,3.729-42.191-3.32-62.835C1061.36,851.576,1061.663,850.338,1061.663,849.466z
		 M884.065,1293.002c3.387-18.171-8.238-29.482-25.859-37.304c-22.231-9.868-44.642-19.345-68.622-23.871
		c-14.763-2.787-29.288-8.359-44.733-5.978c-2.764,0.426-7.082-1.743-8.004,2.559c-0.697,3.253,2.572,5.375,4.745,7.628
		c32.069,33.254,103.722,50.459,133.389,106.492c2.179,4.115,5.741,10.2,11.516,7.531c5.114-2.362,3.013-8.816,2.062-13.203
		C885.634,1323.356,883.603,1309.824,884.065,1293.002z M1469.292,1225.663c-19.577,0.724-65.609,9.64-114.853,34.142
		c-26.825,13.347-12.536,30.437-23.043,80.692c-0.695,3.323-1.719,8.401,2.63,9.754c4.367,1.359,7.368-1.935,9.922-5.9
		c18.473-28.671,25.293-39.508,87.494-75.65C1516.871,1219.064,1472.718,1226.552,1469.292,1225.663z M836.635,562.75
		c78.296,27.177,165.373,79.426,194.453,123.428c13.878,20.999,20.802,35.19,26.7,31.279c2.009-1.333,2.271-3.412,1.122-4.825
		c-8.682-10.671-9.565-43.376-13.411-58.621c-4.361-17.287-10.523-34.235-11.263-52.304c-0.228-5.581-3.94-7.564-8.249-3.154
		c-14.17,14.501-32.307,17.141-51.189,16.22c-10.368-0.506-19.124-4.891-25.898-13.754c-17.801-23.289,1.013-48.919-18.724-41.691
		c-16.109,5.899-32.793,14.671-52.44,11.86C863.687,569.176,851.193,561.163,836.635,562.75z M1384.7,560.076
		c-34.192,9.342-44.941,13.138-58.338,10.904c-41.6-6.935-45.689-28.963-47.1,6.968c-0.856,21.802-15.552,37.135-36.997,36.895
		c-50.206-0.562-48.885-30.779-56.23-13.28c-3.167,7.545-0.14,15.594-3.147,23.137c-11.265,28.257-10.064,59.41-20.14,87.967
		c-1.966,5.572,4.126,8.715,6.385,3.086c2.683-6.683,8.185-11.364,12.067-17.209c15.156-22.821,20.41-34.443,74.62-72.291
		c34.449-24.052,71.598-42.914,110.961-57.554C1372.914,566.417,1379.776,565.64,1384.7,560.076z M569.869,797.81
		c-1.942,10.737,17.613,17.582,28.38,14.174c35.26-11.161,54.683,3.632,127.207,36.768c13.384,6.115,26.138-1.781-52.461-49.249
		c-104.237-62.952-99.093-61.171-109.198-62.103c-23.566-2.172-34.823,30.643,1.32,33.957c8.017,0.735,11.378,7.743,8.363,15.446
		C572.075,790.392,568.824,793.424,569.869,797.81z M1628.351,812.78c19.071,0.421,26.033-9.337,18.588-26.049
		c-3.395-7.62,0.481-14.479,8.999-15.767c2.771-0.419,5.666-0.212,8.367-0.862c30.403-7.31,9.687-48.834-26.026-25.639
		c-48.668,31.61-162.579,92.695-152.607,105.174c5.742,7.186,84.379-43.414,112.851-41.403
		C1608.522,808.941,1618.412,811.21,1628.351,812.78z M334.323,1288.663c33.812-16.891,62.812-56.799,38.538-44.448
		c-57.827,29.425-130.286,49.302-181.381,9.098c-2.124-1.671-4.427-4.113-7.39-2.551c-3.425,1.806-4.1,5.262-3.426,8.855
		c2.933,15.624,9.69,28.777,24.644,36.096C235.054,1310.271,287.76,1311.924,334.323,1288.663z M2013.742,1296.282
		c15.901-7.061,22.44-20.329,25.832-35.988c0.7-3.231,0.729-7.03-2.926-9.065c-6.006-3.343-7.058,5.204-27.347,14.207
		c-52.002,23.073-113.236,4.839-163.129-22.041c-2.22-1.196-4.882-3.28-6.975-1.182c-2.654,2.66,0.36,5.473,1.761,7.44
		C1882.963,1308.609,1969.838,1315.778,2013.742,1296.282z M1725.645,1387.445c0,3.183,0.318,4.695-0.054,6.012
		c-1.701,6.007-0.501,13.957-7.876,16.63c-15.183,5.502-27.605-25.841-36.562-19.309c-7.101,5.178,16.55,59.717,40.627,51.592
		c11.986-4.045,24.463-6.136,36.265-10.588c18.663-7.04,30.488-23.719,47.186-33.556c2.787-1.642,11.906-17.185-2.058-25.146
		c-14.854-8.468-21.372,10.509-30.442,19.609c-12.635,12.676-28.155,3.887-29.145-11.906c-1.21-19.318,15.007-28.345,0.206-37.246
		c-10.048-6.043-25.73-0.143-21.2,18.001C1724.881,1370.708,1722.78,1380.213,1725.645,1387.445z M477.376,1375.643
		c0.014,22.127-17.789,31.34-32.443,13.943c-8.722-10.355-15.273-25.602-29.54-15.123c-8.97,6.588-7.317,20.016,3.931,27.505
		c6.581,4.381,13.32,8.327,18.96,14.063c21.513,21.879,41.36,17.787,55.231,24.877c30.626,15.653,61.761-61.517,39.913-49.658
		c-10.552,5.729-18.616,22.663-30.264,19.112c-6.919-2.109-8.527-12.402-8.453-19.637c0.291-28.414,10.097-40.142-2.835-47.381
		c-10.527-5.893-25.252,0.996-20.035,14.727C474.301,1364.545,476.034,1371.297,477.376,1375.643z M1069.674,561.246
		c0.265,1.005,21.921,83.511,22.847,86.393c3.006,9.354,25.613,14.259,32.541,7.514c3.009-2.929,10.105-32.777,25.548-93.727
		C1123.411,580.149,1097.134,579.429,1069.674,561.246z M634.76,1379.361c0.272,7.112,3.243,9.08,9.958,6.385
		c35.708-14.333,53.557-42.925,61.391-78.777c5.742-26.277-42.555-20.112-59.34,5.343
		C632.816,1333.472,633.721,1352.237,634.76,1379.361z M1532.331,1290.22c-12.389-1.152-20.058,5.032-17.498,19.421
		c5.264,29.585,25.833,61.62,60.612,75.973c6.225,2.569,9.754,0.656,10.194-6.21
		C1588.662,1332.227,1579.416,1294.599,1532.331,1290.22z M1314.788,422.173c13.49,9.301,25.65,17.066,31.335,31.044
		c5.359,13.175,6.696,26.487-3.317,37.884c-19.978,22.737-43.203,17.218-67.423-1.143c-19.749-14.971-4.488,38.173,46.566,42.187
		c18.632,1.465,35.415-6.48,45.658-24.103C1389.522,470.34,1354.146,425.58,1314.788,422.173z M904.676,423.079
		c-3.67-1.725-3.641-1.645-12.511,1.543c-69.983,25.153-51.29,112.905,6.172,108.266c6.044-0.488,11.39-3.789,17.265-5.345
		c16.228-4.298,29.174-13.515,36.083-29.441c1.245-2.87,4.172-6.788-0.213-9.721c-5.813-3.887-5.738,3.941-26.478,13.823
		C884.728,521.392,835.957,465.15,904.676,423.079z M2003.228,258.563c24.231,20.328-3.832,36.634,6.669,59.295
		c1.766,3.812,3.229,7.763,4.919,11.613c8.774,19.992,1.829,40.925-15.329,49.062c-1.534,0.728-2.969,1.735-3.36,3.887
		c1.781,0.643,3.615,1.894,5.424,1.859c22.141-0.425,27.871,41.491-5.292,54.743c-10.199,4.075-24.438-0.834-25.929,9.424
		c-0.524,3.603,3.278,4.011,5.869,4.867c26.468,8.746,58.073-40.29,63.262-47.296c20.841-28.137,5.16-55.893-19.658-93.831
		c-18.773-28.697,21.547-21.014,11.062-33.575C2023.411,269.681,2014.728,262.313,2003.228,258.563z M219.268,257.127
		c-13.586,4.657-21.264,12.966-29.322,20.783c-3.879,3.763-2.091,6.558,1.56,8.637c4.804,2.734,16.768,1.528,14.11,14.736
		c-3.142,15.619-47.371,61.568-31.29,92.81c10.961,21.294,25.682,39.648,45.15,53.79c13.443,9.765,30.901,7.171,30.77,0.889
		c-0.12-5.744-6.53-7.651-12.275-7.623c-35.89,0.179-54.454-49.793-17.888-56.732c1.436-0.272,3.09-0.259,3.401-1.883
		c0.528-2.758-1.557-3.943-3.653-4.926c-9.993-4.687-14.303-13.197-17.331-23.378c-6.567-22.077,18.471-35.693,7.258-63.037
		C204.319,277.928,207.143,268.249,219.268,257.127z M942.024,359.249c1.128,14.508,2.476,28.904,20.028,33.636
		c0.273,0.074,0.686,0.002,0.819,0.169c4.893,6.16,8.522-0.059,11.991-1.771c3.8-1.874,6.055-5.326,3.372-10.546
		c-4.312-8.392,6.81-11.506,1.952-17.258c-1.96-2.32-2.856-6.614,0.378-9.095c2.591-1.987,4.814-5.806,9.492-3.213
		c4.033,2.236,8.303-0.921,12.716-0.74c4.475,0.184,4.306-6.771-0.654-12.634c-10.757-12.714-14.553-31.188,2.918-41.987
		c2.907-1.797,6.676-3.017,3.891-7.368c-6.966-10.886-15.342,1.185-25.98,8.722c-8.789,6.227-18.899,12.08-25.537,19.479
		C939.513,336.595,940.737,342.708,942.024,359.249z M1240.04,355.354c-0.39,9.375,4.074,18.278,1.496,27.607
		c-1.337,4.838,8.807,15.358,12.597,12.835c6.86-4.566,15.588-6.447,19.484-15.618c22.19-52.228-25.02-72.935-52.369-94.915
		c-4.72-3.793-7.483-0.017-9.605,3.174c-6.55,9.852,21.488,7.217,14.32,36.088c-3.61,14.543-14.792,14.208-11.112,24.728
		c2.052,5.864,5.094-0.618,7.545,0.908C1224.361,351.386,1240.366,347.507,1240.04,355.354z M1549.8,399.079
		c-16.613-11.314-38.598,81.628-61.909,146.942c-6.266,17.556-24.388,49.878-11.234,55.693c11.16,4.934,16.141-15.827,68.83-166.039
		C1554.66,409.526,1557.915,404.605,1549.8,399.079z M744.471,575.396c-34.273-87.146-32.935-99.676-53.93-154.315
		c-9.28-24.151-22.209-28.061-23.584-16.589c-1.07,8.928-3.804-0.665,58.372,173.371c2.34,6.55,5.552,12.82,8.75,19.019
		c4.467,8.661,14.784,7.13,13.323-3.373C746.423,586.473,749.905,589.214,744.471,575.396z M569.8,1328.424
		c-9.668-34.525-8.987-29.998-36.012-67.59c-24.537-34.131-50.294-19.893-50.157-3.775c0.134,15.681,2.582,14.875,55.471,62.745
		c6.704,6.068,13.966,11.403,21.802,15.916C567.142,1339.313,569.862,1337.794,569.8,1328.424z M1728.35,1242.984
		c-24.291-14.592-46.752,25.051-52.557,32.36c-26.237,33.033-32.876,73.683-14.91,59.301c9.678-7.748-5.246,8.911,66.208-56.369
		C1740.564,1265.969,1739.319,1249.573,1728.35,1242.984z M1444.525,852.607c9.847,5.6,19.015-13.592,22.968-18.285
		c34.08-40.462,75.694-57.538,138.091-88.575c3.351-1.667,9.042-3.738,7.843-7.52c-3.42-10.79-112.054,27.969-159.953,78.099
		C1443.265,827.012,1431.667,845.294,1444.525,852.607z M774.62,825.813c-35.169-51.722-163.736-98.243-167.405-87.725
		c-1.56,4.472,5.252,6.297,9.032,8.193c67.407,33.797,117.649,55.809,144.039,98.932
		C770.209,861.428,792.906,852.706,774.62,825.813z M584.378,349.373c18.673,3.204,89.907,12.558,134.22,34.288
		c9.668,4.741,14.244-4.221,10.999-12.566c-9.964-25.618-21.984-43.31-87.414-34.617
		C623.282,338.989,604.866,343.282,584.378,349.373z M1634.686,350.087c-4.493-3.385-59.55-20.877-109.376-13.381
		c-31.335,4.714-47.757,57.642-23.56,47.017C1541.717,366.172,1593.741,354.638,1634.686,350.087z M1304.248,684.876
		c-17.961-29.911-32.267-17.159-28.871-9.243c22.613,52.708,44.486,65.63,57.546,97.651c6.726,16.491,17.701,22.151,24.994,18.346
		C1376.715,781.821,1328.813,725.786,1304.248,684.876z M873.413,791.063c3.692-2.059,6.992-4.805,8.804-8.885
		c18.697-42.083,59.214-79.086,61.392-110.146c0.474-6.754-1.087-8.438-7.442-6.167c-13.215,4.722-16.176,14.762-33.842,40.672
		c-14.54,21.327-29.741,42.227-41.307,65.432C854.054,785.941,861.638,797.631,873.413,791.063z M1464.689,765.974
		c6.13,3.799,5.716-6.37,49.339-25.002c36.824-15.728,105.564-36.062,68.737-38.722c-15.74-1.138-76.466,7.592-98.774,20.633
		C1464.673,734.175,1454.738,759.806,1464.689,765.974z M625.888,706.169c18.915,16.535,84.023,28.538,123.755,58.85
		c8.15,6.218,11.473-4.604,8.902-13.582c-9.817-34.277-44.894-40.348-106.085-48.983
		C644.204,701.287,634.934,699.689,625.888,706.169z M821.255,783.328c-33.808-82.111-46.486-148.075-59.653-142.119
		c-5.136,2.323-5.829,7.033-3.81,12.305c49.079,128.14,47.403,149.246,59.014,146.813
		C823.982,798.824,824.112,790.267,821.255,783.328z M1397.891,790.24c-1.399,4.818,1.101,8.914,5.841,10.094
		c5.531,1.377,7.802-3.668,9.291-7.852c54.852-154.153,54.523-145.934,46.08-151.132c-12.99-7.997-25.114,57.593-57.96,136.306
		C1399.517,781.551,1397.568,785.278,1397.891,790.24z M1216.539,901.183c1.208,5.401-2.138,11.549,3.656,14.597
		c4.835,2.544,7.927-2.637,11.688-4.478c13.942-6.825,27.582-6.032,40.881,1.392c2.194,1.225,5.03,1.876,6.498,3.308
		c3.874,3.781,5.447-0.817,7.4-1.8c6.035-3.036-5.321-12.796-7.803-13.907c-32.524-14.555-10.617-58.312-40.073-41.946
		C1221.438,867.987,1218.186,884.338,1216.539,901.183z M973.608,855.383c-22.351,1.587,0.235,29.268-32.42,45.573
		c-2.838,1.417-4.897,3.717-7.068,5.981c-3.342,3.486-1.502,5.815,1.076,8.473c2.185,2.254,2.888,3.332,6.72,0.743
		c16.58-11.202,34.043-14.138,51.707-1.655c1,0.707,9.642,4.797,9.895-2.961C1004.734,874.134,990.818,859.454,973.608,855.383z
		 M1990.715,1237.664c7.118-9.771,17.105-15.248,27.072-21.156c35.214-20.872-30.254-69.586-29.193-43.347
		c0.208,5.132-0.83,9.882-2.582,14.849C1965.645,1245.773,1981.906,1249.754,1990.715,1237.664z M241.008,1209.994
		c-1.796-12.004-8.961-22.593-9.221-34.989c-0.194-9.263-3.954-11.979-12.115-7.927c-32.318,16.046-31.547,40.28-19.824,47.517
		c36.049,22.256,34.323,31.849,41.805,27.696C246.907,1239.374,244.264,1231.755,241.008,1209.994z M1877.296,825.46
		c2.51-6.573-2.594-9.447-7.148-12.62c-25.718-17.92-36.849-38.776-56.533-53.217c-22.21-16.294-23.974,23.262-5.969,36.537
		c5.151,3.798,8.507-2.418,12.865-3.457c16.121-3.844,26.476,11.92,18.615,24.027c-1.185,1.825-11.088,11.592-6.265,16.866
		c2.976,3.254,6.859,2.535,10.175,0.826C1857.156,827.142,1872.705,837.484,1877.296,825.46z M420.986,757.665
		c-2.107-4.5-5.093-5.378-9.254-1.943c-34.803,28.722-39.716,44.199-63.868,58.717c-3.632,2.183-6.688,6.237-4.75,10.833
		c5.131,12.174,19.398,2.528,31.759,8.071c3.951,1.772,8.378,4.751,12.214-0.043c4.196-5.244-0.114-8.779-3.043-12.508
		c-5.882-7.489-8.071-15.121-2.088-22.239c17.142-20.396,23.807,11.616,36.866-8.35
		C426.435,778.561,426.062,768.508,420.986,757.665z M1940.42,778.948c-22.735-6.329-46.396-7.186-69.482-11.469
		c-7.038-1.305-8.909,8.237,3.252,13.811c14.291,6.552,16.863,16.233,29.999,28.207c15.267,13.917,24.451-3.366,38.534-6.47
		C1953.166,800.724,1955.057,783.023,1940.42,778.948z M351.334,777.692c5.966-2.65,5.428-12.955-4.572-10.112
		c-24.404,6.939-77.508,2.819-77.303,24.564c0.057,6.001,3.734,10.54,9.286,11.558c6.209,1.138,10.663,4.818,15.596,7.872
		C317.55,825.94,324.029,789.818,351.334,777.692z M765.208,355.806c33.872,50.036,20.618,34.427,37.126,80.787
		c1.867,5.244,7.624,6.193,9.368,1.641c7.503-19.586,27.463-21.209,20.642-30.599C825.533,398.258,795.457,353.813,765.208,355.806z
		 M1449.646,355.484c-28.666,9.889-39.594,22.389-61.885,52.483c-6.653,8.981,11.293,8.243,20.968,30.236
		c1.398,3.178,6.553,7.621,11.412-7.98c8.091-25.983,12.411-47.292,30.608-67.463c1.405-1.557,2.608-3.748,2.846-5.769
		C1453.799,355.257,1451.535,355.737,1449.646,355.484z M1285.13,1399.488c-1.952-25.225-22.739-41.623-43.578-38.767
		c-6.697,0.918-5.569,5.282-5.744,9.043c-0.418,9.002,25.759,22.895,28.517,49.962c1.75,17.18,1.801,21.787,7.48,23.706
		c2.937,0.992,4.69-1.976,6.377-4.235C1285.869,1428.907,1286.43,1416.297,1285.13,1399.488z M935.054,1406.427
		c0.325,10.119-0.887,17.57,2.618,24.442c2.615,5.127,4.959,13.13,10.896,12.112c6.577-1.129,7.03-9.172,7.132-15.621
		c0.45-28.426,15.839-38.051,25.724-50.532c8.222-10.383,0.636-17.88-7.924-16.736
		C940.77,1364.465,933.35,1392.105,935.054,1406.427z M986.224,1429.107c-2.206,15.568,14.241,11.264,27.517,16.107
		c10.343,3.773,19.178,10.285,29.206,14.602c4.803,2.068,4.486,0.102,4.926-3.018c0.69-4.886-2.733-8.08-4.884-11.668
		c-8.484-14.148-16.921-28.344-26.009-42.104C1004.499,1384.129,985.263,1409.045,986.224,1429.107z M1213.298,1396.708
		c-4.73-1.003-7.537,2.779-9.694,6.219c-34.419,54.893-32.591,53.52-30.399,56.001c2.788,3.156,6.573-0.27,9.101-1.604
		c14.404-7.603,28.624-15.212,45.351-16.76c14.666-1.357,5.019-27.842-2.409-37.633
		C1222.371,1399.139,1218.768,1396.718,1213.298,1396.708z M856.799,958.596c-3.801,7.84,10.807,2.632,10.193,12.871
		c-1.117,18.626,50.23-13.321,34.279-40.313c-5.413-9.16-10.189-18.549-18.088-25.896c-5.98-5.562-9.954-0.556-9.496,4.288
		c1.433,15.15,2.667,23.308-11.069,37.259C859.713,949.755,855.542,952.745,856.799,958.596z M1316.438,946.514
		c-2.501,11.01,19.411,28.52,29.533,30.289c12.654,2.211,2.117-9.763,13.051-12.225c5.495-1.237,6.891-7.051,3.331-11.955
		c-10.29-14.174-18.632-13.326-15.702-43.759c0.382-3.967-3.646-8.877-8.743-4.178
		C1326.662,915.053,1318.622,927.213,1316.438,946.514z M932.006,1095.586c3.342-4.868-2.287-7.193-7.937-18.109
		c-12.585-24.315-9.806-49.229-2.387-74.182c1.207-4.06,2.381-8.272-1.504-10.583c-14.132-8.407-39.561,40.279-9.915,97.921
		C915.995,1101.778,927.628,1101.964,932.006,1095.586z M1290.838,1086.26c-2.988,3.781-4.544,7.066-0.795,10.842
		c12.791,12.885,31.844-16.573,33.074-56.427c0.958-31.037-10.48-52.893-21.912-47.839c-5.517,2.439-3.065,8.136-1.918,12.141
		C1307.054,1032.103,1308.177,1064.32,1290.838,1086.26z M312.701,1388.231c-0.264,0,2.066,0.322,4.275-0.056
		c9.03-1.547,12.055-8.194,6.688-15.458c-26.604-36.004-50.039-26.389-56.341-12.566c-5.727,12.56,1.644,28.735,13.511,27.674
		C290.762,1386.937,300.396,1388.505,312.701,1388.231z M401.076,1334.499c-0.776,1.834-0.178,4.003,1.774,5.262
		c1.949,1.257,3.045-0.611,4.418-1.361c35.577-19.439,28.439-6.052,51.165-17.464c11.481-5.765,11.96-19.605,1.163-26.599
		C432.912,1277.051,413.488,1305.164,401.076,1334.499z M1934.865,1386.748c22.698,4.045,23.457-22.586,14.852-31.46
		c-8.068-8.32-20.446-9.377-31.639-3.201c-10.245,5.653-16.661,14.865-23.376,23.867c-4.982,6.679,5.223,12.758,12.439,12.302
		C1921.216,1387.365,1931.083,1386.074,1934.865,1386.748z M1753.21,1307.489c0.109,22.566,35.471,13.418,58.756,30.162
		c11.981,8.615,9.486-8.924-9.553-33.613C1780.907,1276.151,1753.143,1293.601,1753.21,1307.489z M1611.808,1250.009
		c-31.136,29.032,5.852,74.066,20.682,47.138C1649.488,1266.279,1631.781,1231.385,1611.808,1250.009z M518.499,757.07
		c-1.758-3.427-3.856-13.536-25.949-17.711c-11.799-2.23-20.232,5.62-29.422,9.837c-3.809,1.748-7.804,7.455-12.363,10.483
		c-3.254,2.16-6.694,4.304-5.642,8.354c2.927,11.263,16.424-0.205,27.485,10.389c10.792,10.337,10.387-14.735,35.233-11.687
		C514.258,767.522,516.405,762.544,518.499,757.07z M614.561,1372.935c0.64-22.209-15.538-34.63-19.834-32.195
		c-2.336,1.324-2.411,4.264-2.722,6.856c-5.439,45.335-18.197,52.683-24.002,70.085c-0.675,2.022-2.998,4.191-0.507,6.045
		c2.163,1.609,4.41-0.487,6.166-1.56C593.709,1409.912,615.412,1396.557,614.561,1372.935z M583.847,1256.341
		c-9.813,25.795,8.744,60.973,24.78,45.472C641.769,1269.78,596.501,1223.078,583.847,1256.341z M1733.578,739.405
		c-11.328-0.376-20.017,3.008-27.362,9.809c-6.409,5.935-2.666,18.698,6.958,17.466c22.849-2.925,23.936,20.897,33.797,12.091
		c12.28-10.965,24.689,0.3,28.619-10.481c1.52-4.17-2.325-7.226-5.494-8.204c-9.084-2.804-11.709-14.407-23.089-15.227
		C1743.26,744.59,1738.305,738.94,1733.578,739.405z M1610.945,1391.644c7.953,14.28,21.522,21.799,34.779,29.744
		c2.249,1.348,4.703,4.653,7.393,1.991c2.478-2.453-0.245-5.473-1.499-7.695c-12.566-22.257-22.36-45.355-23.628-71.371
		C1627.222,1328.544,1593.064,1359.54,1610.945,1391.644z M128.778,1103.175c3.212,1.414,7.125-0.993,11.203-1.811
		c3.922-0.786,7.95-2.899,6.902-7.669c-1.234-5.619-5.282-3.877-9.438-2.769c-12.106,3.229-19.283-3.414-18.074-16.032
		c0.849-8.864,12.014-11.113,9.45-16.964c-4.026-9.188-12.1,1.738-23.598-10.415c-11.249-11.889-13.605-14.228-17.01-12.099
		c-2.851,1.783-2.207,5.337-0.781,7.665C102.588,1067.812,89.322,1103.019,128.778,1103.175z M2122.66,1079.503
		c2.323-13.068,4.159-26.024,10.98-37.682c1.334-2.279,0.724-4.218-1.277-5.863c-3.549-2.919-5.5-0.578-17.635,11.902
		c-11.095,11.411-18.485,1.39-22.302,9.337c-3.897,8.114,16.385,11.945,5.899,29.968c-8.034,13.809-21.169-4.658-24.511,5.831
		c-1.406,4.411,1.821,7.229,5.495,8.157C2101.03,1106.639,2118.77,1101.393,2122.66,1079.503z M750.034,491.827
		c12.823,18.824,1.51,25.364,18.61,49.424c5.145,7.239,9.546,2.041,9.419-3.064c-0.031-1.253-3.821-33.638-5.613-45.85
		c-2.703-18.42-6.41-33.849-18.078-30.305C747.59,464.092,732.947,466.744,750.034,491.827z M1450.923,475.873
		c-10.734,63.155-10.196,67.314-4.575,68.85c6.13,1.675,14.666-20.027,15.97-27.728c2.031-12,4.688-23.434,12.682-33.078
		C1489.9,465.943,1455.472,449.113,1450.923,475.873z M449.65,729.381c8.011,0.806,21.655-11.357,32.863-13.907
		c31.149-7.087,41.794,11.041,48.248,1.762c3.607-5.186-5.408-11.218-11.743-13.768C464.545,681.545,425.621,726.963,449.65,729.381
		z M1768.052,729.373c8.485,0.116,11.161-3.853,8.795-10.364c-11.909-32.784-95.07-21.072-86.872-2.255
		c2.327,5.339,6.536,2.89,10.578,1.468c17.688-6.222,34.995-6.815,51.701,3.56C1757.641,725.127,1763.125,728.754,1768.052,729.373z
		 M1143.332,1397.019c2.428-0.946,5.672,1.423,6.787-2.19c0.971-3.145-0.776-5.366-3.131-7.268
		c-39.095-31.577-78.797-1.633-76.831,7.132c1.151,5.133,12.412-0.602,20.765,0.771
		C1108.472,1398.348,1126.176,1392.067,1143.332,1397.019z M735.268,1289.165c-16.111-1.749-6.604,21.522-11.863,33.325
		c-1.235,2.772-3.321,5.967,0.155,8.407c7.995,5.611,11.981-7.485,43.4-14.666C784.38,1312.25,756.891,1292.465,735.268,1289.165z
		 M1452.113,1315.316c13.083,4.172,25.833,8.76,37.54,16.118c3.403,2.14,10.999,1.108,7.889-8.244
		c-2.372-7.131-4.264-14.247-2.727-22.08C1500.763,1270.779,1431.038,1308.595,1452.113,1315.316z M1905.311,1210.258
		c2.754,9.808,19.505,20.329,29.5,18.635c17.739-3.005,19.587-28.487,2.106-29.416c-12.725-0.676-22.421-27.444-30.259-2.473
		C1905.91,1199.388,1903.373,1203.356,1905.311,1210.258z M315.424,1205.117c0.545-3.571-1.307-7.253-2.475-10.881
		c-6.229-19.351-17.478,3.808-31.432,6.135c-18.943,3.159-9.055,33.441,11.21,27.554
		C307.312,1223.687,315.612,1216.112,315.424,1205.117z M675.651,1455.4c-0.796-4.488,0.908-12.012-7.087-12.265
		c-61.509-1.948-59.58,8.801-48.706,12.815c13.141,4.85,26.279,9.773,39.662,13.876C669.139,1472.776,675.7,1466.768,675.651,1455.4
		z M1556.883,1470.346c15.001-3.518,29.524-8.542,43.785-14.316c2.39-0.968,5.886-1.862,5.221-5.646
		c-1.457-8.284-39.317-7.478-46.723-7.467c-12.549,0.019-13.273,0.267-14.201,12.173
		C1544.208,1464.807,1550.941,1471.247,1556.883,1470.346z M1052.308,483.371c-6.469-0.244-13.757,5.85-12.756,10.532
		c2.771,12.971,11.175,29.713,15.819,17.221c3.438-9.247,7.277-27.07,29.863-31.112c4.107-0.735,8.588-3.5,7.229-6.847
		c-4.186-10.31-4.703-17.51-11.714-17.039c-6.504,0.437-1.874,1.863-11.415,16.377
		C1065.129,478.899,1059.573,483.364,1052.308,483.371z M107.261,991.235c0.139,11.293,17.569,32.397,28.826,34.903
		c5.614,1.249,9.534-2.898,6.63-8.14c-13.655-24.647-6.499-42.547-22.83-42.018C114.509,976.154,107.192,985.588,107.261,991.235z
		 M2113.201,990.771c-0.124-6.26-6.31-14.016-12.169-14.462c-17.288-1.316-9.152,17.055-23.615,42.095
		c-2.526,4.373,0.846,8.475,5.652,7.834C2094.815,1024.672,2113.438,1002.751,2113.201,990.771z M1129.781,472.35
		c-0.908,16.685,15.234-4.35,31.989,29.458c2.353,4.748,1.563,13.509,7.689,13.277c5.732-0.217,7.081-8.705,9.417-13.868
		c4.77-10.543,1.211-16.025-10.564-17.793c-17.193-2.582-15.046-11.894-24.916-23.753c-1.915-2.3-5.344-6.527-8.623-1.236
		C1132.315,462.401,1129.507,466.46,1129.781,472.35z M827.264,884.446c-9.821-16.392-35.86,13.936-27.569,32.892
		c1.622,3.709,3.486,7.18,8.608,6.265C822.851,921.004,838.081,902.502,827.264,884.446z M1406.571,882.114
		c-16.386-9.235-27.335,22.527-3.719,37.193c3.886,2.413,8.325,6.076,13.145,3.792
		C1425.731,918.486,1425.404,892.729,1406.571,882.114z M1870.803,392.194c15.765,5.054,9.627-1.394,41.016,10.07
		c24.582,8.978,36.129-18.998,16.491-20.994C1908.397,379.246,1889.241,382.566,1870.803,392.194z M352.197,391.402
		c-20.947-8.89-40.353-12.263-60.503-9.996c-14.79,1.664-11.559,23.759,10.555,22.251c6.906-0.471,12.967-3.634,19.221-5.843
		C330.738,394.541,340.849,396.054,352.197,391.402z M363.804,1319.989c-14.748,7.428-7.838,19.594,0.228,43.67
		c0.84,2.509,1.426,5.834,5.155,5.855c3.406,0.019,6.061-1.756,7.487-4.731C390.57,1335.79,375.61,1314.043,363.804,1319.989z
		 M287.724,452.026c6.014-3.236,12.936,3.056,49.967-22.277c1.971-1.348,5.576-1.797,4.623-5.069
		c-2.815-9.669-32.108,9.109-56.203,7.839c-5.467-0.288-11.003,3.174-11.537,10.024
		C274.215,447.154,281.598,452.206,287.724,452.026z M1879.103,427.563c16.56,11.155,33.225,22.416,53.824,24.116
		c5.324,0.439,12.035-1.818,12.72-8.842c0.697-7.142-5.646-8.707-10.921-10.523c0,0-15.544,0.962-33.651-6.014
		C1881.307,418.682,1874.469,424.441,1879.103,427.563z M1839.674,1343.478c-0.306,7.683-0.494,15.472,4.571,21.852
		c2.498,3.147,7.288,7.849,9.958,2.092c5.719-12.33,11.593-25.094,9.646-39.411c-0.757-5.565-5.736-7.587-10.141-9.197
		c-4.74-1.732-7.697,1.995-10.329,5.236C1838.696,1329.819,1839.722,1336.788,1839.674,1343.478z M912.574,448.874
		c-14.451,7.012-8.277,27.036,7.972,22.197c6.074-1.809,37.368-15.347,28.759-23.444C940.75,439.58,938.153,436.461,912.574,448.874
		z M904.712,1340.348c0,6.435-0.392,12.153,0.22,17.762c0.781,7.157,6.337,7.259,8.008,0.356
		c3.547-14.654,7.734-29.07,13.254-43.169c5.833-14.898-18.553-23.699-18.278-12.795
		C908.243,1315.51,902.155,1327.934,904.712,1340.348z M1295.018,1317.085c13.228,32.354,11.043,46.946,16.536,46.386
		c9.673-0.984,2.057-52.326,0.894-61.188C1311.042,1291.567,1288.025,1299.979,1295.018,1317.085z M887.245,1540.771
		c-2,17.965,14.604,30.515,14.188,14.283c-1.119-43.585,24.336-43.23,13.883-54.784c-3.228-3.568-4.741-0.441-6.67,0.542
		C892.227,1509.175,888.916,1524.582,887.245,1540.771z M1285.156,440.504c-11.822-1.699-15.955,14.552-10.146,17.791
		c8.476,4.726,16.489,10.73,26.097,13.009c12.441,2.952,20.326-13.122,9.181-21.162
		C1302.894,444.809,1293.502,443.758,1285.156,440.504z M1311.423,1500.464c-6.221-2.574-7.699,0.399-8.032,5.484
		c-0.197,3.012,1.692,5.145,3.457,7.438c21.456,27.881,5.167,56.48,19.354,46.67
		C1339.937,1550.558,1332.896,1509.351,1311.423,1500.464z M1498.861,415.653c-5.328-0.728-11.568-2.342-16.011-0.369
		c-8.397,3.729-8.884,10.575-3.117,17.788c2.802,3.504,5.053,9.908,8.096,10.256c6.566,0.751,2.576-7.742,6.502-10.904
		C1502.598,425.763,1501.347,415.992,1498.861,415.653z M720.021,420.597c-0.682,6.162,4.5,9.391,7.133,13.805
		c1.789,3,0.374,8.596,4.579,8.908c4.153,0.309,4.792-5.573,7.976-7.857c1.473-1.057,1.907-3.517,3.35-4.667
		c3.96-3.16,2.114-6.33,0.583-9.685c-4.001-8.769-11.53-6.161-18.491-6.065C720.949,415.094,719.547,416.781,720.021,420.597z
		 M1836.429,1208.265c35.139,8.708,35.322,15.642,32.589-7.71c-1.453-12.413-9.753-2.113-23.276,0.11
		C1841.977,1201.283,1838.268,1203.098,1836.429,1208.265z M355.334,1217.094c22.445-9.434,32.804-6.535,25.511-13.594
		c-4.015-3.886-9.519-3.087-14.254-4.379c-4.305-1.174-7.704-6.673-12.77-3.73c-5.244,3.046-0.79,9.22-3.482,13.311
		C349.651,1209.749,348.687,1219.888,355.334,1217.094z M1185.973,177.626c-3.259-2.592-3.226-8.672-8.929-9.439
		c-3.603-0.485-14.326,8.346-14.719,11.924c-0.311,2.831,9.171,14.4,11.87,14.484
		C1176.39,194.662,1185.833,181.425,1185.973,177.626z M86.201,922.237c8.296-2.706,25.138-19.582,12.911-27.145
		c-4.557-2.818-10.252,0.349-12.516,6.368c-1.954,5.194-1.267,10.982-4.29,16.049C80.466,920.593,83.503,921.695,86.201,922.237z
		 M2116.985,904.271c9.404,21.176,24.405,19.418,21.277,13.998c-3.408-5.905-2.048-12.817-5.428-18.517
		C2126.497,889.067,2113.967,897.473,2116.985,904.271z M1037.087,178.921c0.526,6.633,3.425,12.538,9.316,15.407
		c3.134,1.527,10.137-8.527,9.981-13.613C1056.036,169.397,1035.678,161.147,1037.087,178.921z M1262.744,1073.046
		c0.847,1.248,0.205,4.717,0.587,8.039c0.276,2.397,1.883,3.923,3.872,1.521c16.63-20.085,12.258-38.943,2.214-29.395
		C1264.252,1058.12,1260.624,1063.68,1262.744,1073.046z M547.861,1227.804c-3.029,0.663-7.901-1.918-9.632,2.213
		c-1.489,3.553,2.434,6.352,4.529,9.231c1.304,1.792,2.156,3.907,3.409,5.743c4.817,7.061,17.873-5.26,16.676-10.609
		C561.526,1228.504,556.495,1227.804,547.861,1227.804z M956.885,1081.627c-0.825-9.662,5.648-21.031-5.868-28.35
		c-1.767-1.123-1.652-5.485-5.511-3.267C933.352,1056.994,957.948,1094.088,956.885,1081.627z M1673.354,1227.811
		c-22.412-1.867-17.538,15.539-3.515,19.327c4.805,1.298,5.242-5.364,8.718-8.958c2.164-2.238,4.907-4.958,3.845-7.86
		C1680.937,1226.316,1676.543,1228.198,1673.354,1227.811z M220.445,1100.101c-2.987,3.713-1.106,6.607,1.557,9.41
		c6.039,6.357,0.058,9.782,5.059,10.541c2.947,0.447,4.735-1.927,6.047-4.014C244.784,1097.465,228.824,1089.688,220.445,1100.101z
		 M1985.176,1111.749c0.798,4.335,3.467,7.594,7.417,8.148c5.703,0.799,0.452-4.317,6.544-11.002
		c5.067-5.56-0.055-15.183-11.315-12.46C1980.552,1098.193,1984.884,1110.162,1985.176,1111.749z M190.074,510.511
		c3.915-0.696,7.769-0.75,11.053-2.145c3.182-1.352,8.604-0.852,8.501-6.189c-0.073-3.766-9.414-8.686-13.608-7.709
		c-4.965,1.156-13.73,7.492-11.72,12.325C185.37,509.369,187.602,510.49,190.074,510.511z M2035.794,507.824
		c2.199-3.725-5.241-16.472-17.947-12.228c-3.253,1.086-6.471,3.404-6.798,6.821
		C2010.547,507.671,2032.736,513.006,2035.794,507.824z M950.264,1149.279c0.221-7.911,0.259-7.816-6.886-4.997
		c-4.434,1.749-7.543-3.007-11.023,3.39c-3.008,5.529,9.899,7.822,9.948,17.292c0.007,1.445,4.375,3.227,4.548-0.247
		C947.117,1159.39,950.665,1154.771,950.264,1149.279z M1277.451,1166.91c1.47-5.774,3.073-10.037,7.695-12.663
		c2.331-1.324,3.698-3.642,2.469-6.918c-2.62-6.983-9.324,0.46-12.183-3.996c-3.785-5.899-4.509,0.128-4.954,1.521
		C1267.741,1153.43,1272.742,1159.614,1277.451,1166.91z M1271.528,820.28c10.375-2.44,3.591-15.466-4.352-11.978
		c-3.513,1.543-6.592,5.116-10.079,5.437c-5.344,0.493-4.29,4.902-4.477,6.871C1252.054,826.581,1269.374,820.786,1271.528,820.28z
		 M961.733,823.3c1.226-0.247,9.908,1.027,3.809-6.97c-3.216-4.218-16.98-13.762-21.157-4.921
		C939.191,822.402,958.326,821.899,961.733,823.3z M950.379,748.92c-0.835-5.634-6.303-4.798-9.897-5.812
		c-4.053-1.144-9.482,5.6-9.186,10.864C932.05,767.414,951.394,755.768,950.379,748.92z M971.88,110.679
		c-0.71-5.711-3.178-9.559-7.619-11.08c-3.254-1.115-10.88,6.103-10.097,9.404c1.037,4.375,3.084,8.893,8.478,8.901
		C967.679,117.911,969.387,113.118,971.88,110.679z M1138.561,148.695c4.374,0.72,6.878-1.574,8.042-4.971
		c2.455-7.161-6.393-6.1-10.319-9.405c-3.017-2.54-6.197-6.165-9.892-2.441c-4.142,4.174,2.242,5.67,3.659,8.213
		C1131.981,143.551,1132.698,149.24,1138.561,148.695z M526.093,1337.576c-2.541,5.846,1.557,10.949-0.436,16.231
		c-4.159,11.02,17.635,8.43,13.198-1.208C536.096,1346.605,533.666,1340.084,526.093,1337.576z M1694.463,1337.752
		c-8.583,2.483-11.133,9.513-12.809,16.466c-2.109,8.752,15.374,8.465,12.94,2.227
		C1692.117,1350.097,1696.552,1344.379,1694.463,1337.752z M905.477,793.862c5.833,0.018,24.57,6.747,23.927-4.444
		c-0.229-3.985-2.542-5.429-6.712-5.66C915.133,783.338,909.874,786.15,905.477,793.862z M1315.172,793.283
		c-4.873-6.274-9.279-9.902-16.4-9.512c-4.304,0.236-7.457,1.307-7.555,5.911C1290.997,800.123,1306.795,794.726,1315.172,793.283z
		 M1266.549,108.286c-1.487-4.904-6.239-7.656-10.318-8.361c-8.76-1.512-9.182,17.292,0.672,17.825
		C1262.206,118.038,1265.091,113.729,1266.549,108.286z M1288.627,753.294c-0.32-5.765-3.068-9.923-9.077-10.181
		c-9.741-0.418-9.598,15.992,2.708,16.899C1287.147,760.372,1289.051,758.036,1288.627,753.294z M1081.766,148.69
		c6.043-2.403,14.14-14.202,10.76-17.531c-3.364-3.312-5.219,3.492-14.674,5.664c-3.407,0.783-4.997,2.865-3.787,6.078
		C1075.093,145.635,1075.932,149.127,1081.766,148.69z M1570.204,1250.35c0.23-6.492-3.273-9.597-8.052-9.592
		c-12.571,0.013-12.063,14.125,3.134,15.861C1570.066,1257.165,1570.225,1253.039,1570.204,1250.35z M655.881,1256.569
		c14.206-2.232,14.975-14.99,2.576-15.714C648.057,1240.247,647.673,1257.859,655.881,1256.569z M995.568,506.257
		c-3.639,0.247-8.744,3.429-10.318,8.41c-0.5,1.582,11.887,8.3,14.629,7.833C1006.57,521.362,1004.208,505.669,995.568,506.257z
		 M1253.069,775.35c-6.845-3.917-9.683,1.722-12.561,5.817c-2.091,2.975-7.009,6.345-3.932,10.061
		c2.114,2.553,5.546-2.032,8.56-2.998C1253.668,785.497,1260.558,779.635,1253.069,775.35z M970.979,773.77
		c-4.744,1.139-9.935,5.354-4.203,10.127c4.347,3.62,9.793,5.083,14.785,7.438c1.659,0.783,2.62,0.314,2.976-1.464
		C985.155,786.786,974.724,774.054,970.979,773.77z M1216.911,516.465c-0.338,2.817,0.872,5.855,3.905,4.274
		c4.674-2.436,13.206,1.399,13.953-6.17c0.524-5.311-5.919-5.94-10.462-6.125C1219.115,508.233,1216.525,510.984,1216.911,516.465z
		 M1975.374,387.724c-3.139,2.042-10.427-0.154-10.276,6.415c0.123,5.353,6.673,8.361,10.46,7.825
		c5.088-0.72,1.375-7.668,3.749-11.415C1980.221,389.107,1978.78,386.773,1975.374,387.724z M244.164,387.348
		c-2.387,0.252-4.093,1.797-2.566,4.087c2.306,3.457-2.346,10.227,3.617,10.62c4.214,0.278,10.19-3.271,9.969-8.537
		C254.95,387.975,248.545,388.962,244.164,387.348z M2087.458,518.924c9.433-1.83,7.968-11.478-0.65-11.61
		c-3.134-0.048-5.87,0.599-6.013,4.243C2080.616,516.112,2084.432,517.364,2087.458,518.924z M1382.777,822.207
		c5.095,10.556,16.601,18.206,6.344,29.969C1400.405,843.388,1397.975,830.531,1382.777,822.207z M133.342,507.348
		c-4.267-0.864-6.428,2.586-6.508,5.648c-0.215,8.134,12.474,7.289,12.712-0.493C139.673,508.348,137.258,507.15,133.342,507.348z
		 M830.45,851.758c-3.43-9.033-4.192-17.174,4.666-23.412c1.321-0.93,1.243-2.37,0.186-3.708
		C831.705,820.085,815.725,837.974,830.45,851.758z M1879.201,1315.896c2.294,1.389,0.259,7.12,4.292,6.782
		c4.863-0.407,8.35-14.787,0.322-14.453C1879.609,1308.4,1879.652,1311.901,1879.201,1315.896z M336.817,1323.497
		c3.492-4.489,6.328-8.716,2.825-13.826c-1.321-1.928-3.906-2.546-5.793-0.185C329.266,1315.217,333.975,1318.909,336.817,1323.497z
		 M256.411,1145.692c-3.387,1.1-4.165,3.336-3.658,5.506c0.703,3.01,0.408,7.636,4.551,7.757c2.93,0.085,6.045-3.333,5.168-6.35
		C261.673,1149.86,258.405,1147.835,256.411,1145.692z M1964.232,1145.795c-2.115,2.096-5.728,3.486-6.133,7.043
		c-0.346,3.041,2.632,5.957,4.966,5.924c4.103-0.057,4.029-4.521,4.776-7.556C1968.43,1148.814,1967.422,1146.839,1964.232,1145.795
		z"/>
</g>
</svg>
