<?xml version="1.0" encoding="UTF-8" standalone="no"?>
<!-- Generator: Adobe Illustrator 12.0.1, SVG Export Plug-In . SVG Version: 6.00 Build 51448)  -->

<svg
   id="Layer_1"
   xml:space="preserve"
   overflow="visible"
   viewBox="0 0 234.591 300.238"
   version="1.1"
   enable-background="new 0 0 234.591 300.238"
   sodipodi:docname="johnny-automatic-cow-and-barn.svg"
   inkscape:version="1.1.2 (0a00cf5339, 2022-02-04)"
   xmlns:inkscape="http://www.inkscape.org/namespaces/inkscape"
   xmlns:sodipodi="http://sodipodi.sourceforge.net/DTD/sodipodi-0.dtd"
   xmlns="http://www.w3.org/2000/svg"
   xmlns:svg="http://www.w3.org/2000/svg"
   xmlns:rdf="http://www.w3.org/1999/02/22-rdf-syntax-ns#"
   xmlns:cc="http://creativecommons.org/ns#"
   xmlns:dc="http://purl.org/dc/elements/1.1/"><defs
   id="defs247" /><sodipodi:namedview
   id="namedview245"
   pagecolor="#ffffff"
   bordercolor="#666666"
   borderopacity="1.0"
   inkscape:pageshadow="2"
   inkscape:pageopacity="0.0"
   inkscape:pagecheckerboard="0"
   showgrid="false"
   inkscape:zoom="2.0372083"
   inkscape:cx="241.0161"
   inkscape:cy="201.74667"
   inkscape:window-width="1876"
   inkscape:window-height="1051"
   inkscape:window-x="0"
   inkscape:window-y="0"
   inkscape:window-maximized="1"
   inkscape:current-layer="layer2"><inkscape:grid
     type="xygrid"
     id="grid1082" /></sodipodi:namedview>

<metadata
   id="metadata242"><rdf:RDF><cc:Work><dc:format>image/svg+xml</dc:format><dc:type
         rdf:resource="http://purl.org/dc/dcmitype/StillImage" /><cc:license
         rdf:resource="http://creativecommons.org/publicdomain/zero/1.0/" /><dc:publisher><cc:Agent
           rdf:about="http://openclipart.org/"><dc:title>Openclipart</dc:title></cc:Agent></dc:publisher><dc:title>cow and barn</dc:title><dc:date>2006-10-08T17:58:19</dc:date><dc:description>a cow on the farm, in the field in front of a barn and silo</dc:description><dc:source>https://openclipart.org/detail/448/cow-and-barn-by-johnny_automatic</dc:source><dc:creator><cc:Agent><dc:title>johnny_automatic</dc:title></cc:Agent></dc:creator><dc:subject><rdf:Bag><rdf:li>animal</rdf:li><rdf:li>barn</rdf:li><rdf:li>black &amp; white</rdf:li><rdf:li>bovine</rdf:li><rdf:li>contour</rdf:li><rdf:li>cow</rdf:li><rdf:li>farm</rdf:li><rdf:li>mammal</rdf:li><rdf:li>outline</rdf:li><rdf:li>silo</rdf:li></rdf:Bag></dc:subject></cc:Work><cc:License
       rdf:about="http://creativecommons.org/licenses/publicdomain/"><cc:permits
         rdf:resource="http://creativecommons.org/ns#Reproduction" /><cc:permits
         rdf:resource="http://creativecommons.org/ns#Distribution" /><cc:permits
         rdf:resource="http://creativecommons.org/ns#DerivativeWorks" /></cc:License></rdf:RDF></metadata><g
   inkscape:groupmode="layer"
   id="layer1"
   inkscape:label="Layer 1"
   style="display:none"
   sodipodi:insensitive="true"><rect
     style="fill:#2b0000;stroke:#ffcc00;stroke-width:1.06583"
     id="rect1107"
     width="230.81882"
     height="288.78384"
     x="1.3883839"
     y="3.4709597" /></g><g
   inkscape:groupmode="layer"
   id="layer2"
   inkscape:label="Layer 2"
   style="display:inline"><path
     style="fill:#ffffff;fill-opacity:1;stroke:none;stroke-width:1px;stroke-linecap:butt;stroke-linejoin:miter;stroke-opacity:1"
     d="m 150.47796,147.34881 c 0.43108,1.63039 0.95794,3.26686 2.6728,3.83848 0.0776,0.0259 0.16362,0 0.24543,0 0.49087,0.0818 1.01056,0.0606 1.47261,0.24543 0.74722,0.29889 1.28327,1.10983 1.96347,1.4726 -0.3634,2.75494 2.72393,0.76047 3.68151,1.71804 0.0579,0.0579 -0.0681,0.20006 0,0.24544 0.95425,0.63617 2.18143,0.53446 3.19064,0.7363 1.39523,0.27904 2.8519,0.69898 4.17237,1.22717 3.10616,1.24246 5.38262,3.42761 8.34476,4.90868 0.43748,0.21874 1.25379,0.25874 1.71803,0.49086 0.20471,0.10235 0.89655,0.66283 1.22717,0.7363 0.17148,0.0381 1.97541,0.17158 2.45434,0.49087 0.0681,0.0454 0,0.16363 0,0.24544 0.16362,0.0818 0.3134,0.20106 0.49087,0.24543 1.54371,0.38593 3.29984,0.41454 4.90868,0.7363 1.1376,0.22752 2.50343,0 3.68151,0 2,0 6.59018,0 8.59018,0 2.04529,0 4.09659,0.15687 6.13585,0 0.77705,-0.0598 1.22476,-0.79706 1.96347,-0.98173 0.48278,-0.1207 0.99411,-0.10873 1.47261,-0.24544 0.5676,-0.16217 0.002,-0.73838 0.24543,-0.98173 0.17834,-0.17834 3.49081,-0.0547 3.68151,-0.24544 0.1157,-0.1157 -0.0608,-0.33894 0,-0.49086 0.26614,-0.66536 0.52422,-1.08181 0.7363,-1.71804 0.0982,-0.29452 -0.0982,-0.68722 0,-0.98174 0.10728,-0.32183 0.8263,-0.72267 0.98174,-0.98173 0.1331,-0.22185 0.11232,-0.51446 0.24543,-0.7363 0.86121,-1.43536 2.22577,-2.96208 3.43607,-4.17238 0.34082,-0.34082 0.97929,-0.48598 1.22717,-0.98174 0.2113,-0.42258 -0.0908,-1.26402 0,-1.71803 0.13294,-0.66469 0.37956,-1.29558 0.49087,-1.96348 0.37866,-2.27193 0,-6.16638 0,-8.59018 0,-3.93192 0.77988,-8.12686 0,-12.02626 -1.13037,-5.65187 -4.43613,-9.47059 -8.09932,-13.7443 -1.18259,-1.37969 -2.25205,-3.02881 -3.68151,-4.17238 -1.81994,-1.45596 -4.10042,-2.3699 -6.13584,-3.43607 -2.75085,-1.44092 -5.35841,-3.22218 -8.34476,-4.17238 -1.43751,-0.45739 -2.97599,-0.5381 -4.41781,-0.98174 -0.42108,-0.12956 -0.79371,-0.41205 -1.22717,-0.49086 -1.18711,-0.21584 -2.768,0.10224 -3.92694,-0.24544 -0.45692,-0.13707 -0.77461,-0.58545 -1.22717,-0.736299 -0.834,-0.278001 -3.14319,-0.09797 -3.92694,0 -2.12575,0.265719 -4.11413,0.840819 -6.13585,1.472599 -1.82693,0.57092 -3.86112,0.87799 -5.64498,1.47261 -0.68782,0.22927 -0.36781,0.94071 -1.96347,1.4726 -2.28267,0.76089 -4.6381,1.31529 -6.87215,2.20891 -1.05527,0.4221 -1.95167,1.16607 -2.94521,1.71803 -0.80751,0.44862 -1.90079,0.82768 -2.69977,1.22717 -1.18894,0.59447 0.92526,-0.20025 -0.24543,0.7363 -0.34403,0.27522 -0.83312,0.29384 -1.22717,0.49087 -2.51662,1.25831 -4.91659,2.9584 -6.38128,5.39955 -0.60168,1.00279 -1.7164,3.30598 -1.96348,4.41781 -0.0887,0.39931 0.0507,0.82127 0,1.22717 -0.0944,0.75512 -0.61109,1.45764 -0.7363,2.2089 -0.0942,0.56489 0.081,1.15112 0,1.71804 -0.10696,0.74876 -0.3125,1.49545 -0.49087,2.20891 -0.16799,0.67198 0.24007,4.17774 0,4.41781 -0.0578,0.0579 -0.18758,-0.0579 -0.24543,0 -0.42483,0.42483 -0.91822,1.25605 -1.4726,1.71803 -0.45321,0.37768 -1.01193,0.6132 -1.47261,0.98174 -1.91862,1.5349 -2.72967,4.56734 -3.19064,6.87215 -0.25764,1.28824 -0.91556,2.58669 -0.24543,3.92694 0.1186,0.2372 0.74454,0.86314 0.98174,0.98174 1.30005,0.65003 9.95331,0.24543 12.02626,0.24543 0.29578,0 1.26104,-0.34316 1.4726,-0.24543 0.352,0.1626 0.67247,0.38622 1.00871,0.57933 z"
     id="path3641" /><path
     style="fill:#ffffff;fill-opacity:1;stroke:none;stroke-width:1px;stroke-linecap:butt;stroke-linejoin:miter;stroke-opacity:1"
     d="m 60.741793,219.01755 c 0.18582,-1.12652 0.599064,-1.69445 1.561932,-2.25612 2.013088,-1.1743 1.746521,-0.67942 3.818056,-0.86774 0.350142,-0.0318 1.284802,-0.32378 1.735479,-0.17355 0.813066,0.27102 1.835335,0.65735 2.60322,1.04129 1.275709,0.63785 3.144461,3.95632 3.644508,5.20644 0.156411,0.39102 0.181197,0.82774 0.347096,1.21483 0.111978,0.26129 0.44413,0.56169 0.520644,0.86774 0.249872,0.99949 0.201712,2.10618 0.347096,3.12387 0.124545,0.87181 0.411361,1.72896 0.520644,2.60322 0.05023,0.40181 -0.05727,0.81396 0,1.21483 0.264758,1.85331 0.462161,3.69729 0.694192,5.55354 0.267991,2.14393 0.562189,4.28242 0.867739,6.42127 0.08365,0.58556 0.421809,1.14247 0.520644,1.73548 0.161993,0.97196 0.156364,1.99666 0.347096,2.95032 0.187225,0.93612 0.720865,2.06906 0.86774,2.95031 0.0831,0.49858 0.05165,1.07436 0.173548,1.56194 0.12743,0.50971 0.435125,1.04881 0.520644,1.56193 0.07939,0.47635 0.141376,4.95586 0,5.37999 -0.243246,0.72973 -0.369636,2.16596 -0.173548,2.95031 0.24266,0.97064 0.275579,1.97006 0.520644,2.95032 0.126462,0.50585 0.369563,0.58804 0.520644,1.04128 0.06131,0.18392 0.128964,3.77827 0,4.16516 -0.325177,0.97553 -1.2297,2.19164 -1.73548,2.95031 -0.386114,0.57917 -2.875544,3.3468 -3.470959,3.64451 -0.664955,0.33248 -2.044879,-0.12198 -2.776768,0 -0.180447,0.0301 -0.391289,0.0442 -0.520644,0.17355 -0.04091,0.0409 0.05488,0.15525 0,0.17355 -0.772546,0.25751 -1.951338,0 -2.776768,0 -0.304696,0 -2.099971,0.50324 -2.429671,0.17354 -0.122717,-0.12271 0,-0.34709 0,-0.52064 0,-1.77448 0.861037,-2.24272 1.561931,-3.64451 0.11794,-0.23588 0.402704,-0.45831 0.520644,-0.69419 0.158998,-0.31799 0.978401,-0.14583 1.144756,-0.47854 0.438937,-0.87787 -2.443904,5.55904 1.388384,-2.60322 0.101368,-0.2159 0.108489,-0.55328 0.234907,-0.7555 0.33164,-0.53062 -0.01561,-1.64324 0.182269,-2.23687 0.334251,-1.00275 0.244798,-2.31822 0,-3.29741 -0.176541,-0.70616 0.103488,-1.53171 0,-2.25612 -0.170433,-1.19304 -0.289294,-2.14067 -0.520644,-3.29742 -0.05467,-0.27336 0.08711,-0.60642 0,-0.86774 -0.537871,-1.61361 -1.144462,-3.18946 -1.561932,-4.85934 -0.0893,-0.35721 -0.452622,-1.32242 -0.613585,-1.64435 -0.59659,-1.19318 -0.254927,-2.13107 -0.582002,-3.43937 -0.194455,-0.77782 -1.039346,-2.99042 -1.470798,-3.6376 -0.106741,-0.16011 0.812164,-0.44017 0.757357,-0.82382 -0.105635,-0.73944 -0.519828,-1.38512 -0.694191,-2.08257 -0.08287,-0.33149 0.01004,-1.46154 0,-1.56194 -0.03822,-0.38221 -0.683606,-3.46037 -0.86774,-3.6445 -0.04091,-0.0409 -0.132643,0.0409 -0.173548,0 -0.293304,-0.29331 -0.321346,-1.33689 -0.520644,-1.73548 -0.11794,-0.23588 -0.402704,-0.45832 -0.520644,-0.6942 -0.09189,-0.18378 -0.106307,-0.49246 -0.173548,-0.69419 -0.21887,-0.65661 -0.652704,-1.26392 -0.86774,-1.90903 -0.217496,-0.65248 -0.939319,-1.01089 -1.041288,-1.21483 -0.174871,-0.34974 -0.07623,-1.54084 -0.347096,-2.08258 -0.431182,-0.86236 -0.967338,-1.81043 -1.561932,-2.60322 -0.271876,-0.3625 -0.662913,-0.63163 -0.86774,-1.04128 -0.406458,-0.81292 -0.173548,-3.72385 -0.173548,-4.6858"
     id="path2799"
     sodipodi:nodetypes="csssssssssssssssssssssssssscssssssssssssssssssssssssssssssc" /><path
     style="fill:#ffffff;fill-opacity:1;stroke:none;stroke-width:1px;stroke-linecap:butt;stroke-linejoin:miter;stroke-opacity:1"
     d="m 171.92645,251.44704 c -3.02712,0.74316 -5.81061,2.11684 -8.34475,3.92694 -0.5494,0.39243 -1.16827,0.81608 -1.59532,1.34989 -0.92934,1.16167 -1.72136,2.3988 -2.45434,3.68151 -0.27803,0.48655 -0.7037,0.86333 -0.98174,1.34988 -0.45589,0.79782 -0.81652,1.59057 -1.10445,2.45434 -0.3861,1.1583 -0.84029,2.37007 -1.10445,3.55879 -0.14145,0.63653 -0.17495,1.20639 -0.24543,1.84076 -0.14241,1.28167 -0.43301,2.5402 -0.61359,3.80422 -0.2391,1.6737 -0.52667,3.35434 -0.7363,5.0314 -0.0331,0.26442 -0.28232,2.40539 -0.36815,2.57705 -0.10195,0.20391 -0.16453,0.37088 -0.24544,0.61359 -0.0277,0.0831 -0.5291,4.18039 -0.36815,4.66324 0.10371,0.31113 0.8745,1.85624 1.10446,2.08619 0.14953,0.14954 0.46405,0.21862 0.61358,0.36815 0.0289,0.0289 -0.0289,0.0938 0,0.12272 0.2913,0.2913 1.43153,0.53164 1.84076,0.85902 0.54989,0.43991 0.90859,1.04959 1.4726,1.4726 0.45127,0.33845 1.39062,-0.73617 1.71804,-0.98173 0.74266,-0.557 1.32007,-1.33002 2.08618,-1.84076 0.37759,-0.25172 0.60415,-0.73001 0.98174,-0.98173 0.45337,-0.30225 -0.4487,0.69413 0.36815,-0.12272 0.38431,-0.38431 0.59214,-0.94957 0.85902,-1.34989 0.20975,-0.31462 0.50928,-0.55632 0.7363,-0.85902 0.28983,-0.0511 0.0562,-0.25723 0.12272,-0.36815 0.1625,-0.27084 0.48638,-0.65075 0.7363,-0.85902 0.33683,-0.28069 0.75352,-0.4731 1.10445,-0.7363 0.53093,-0.39819 1.00466,-0.88965 1.59532,-1.22717 0.42325,-0.24185 1.11204,-0.25302 1.47261,-0.61358 0.22862,-0.22863 0.41827,-0.70001 0.7363,-0.85902 0.81873,-0.40937 1.52761,-1.09599 2.08619,-1.84075 0.14769,-0.19693 0.0977,-0.29395 0.24543,-0.49087 0.0694,-0.0926 0.19986,-0.13909 0.24543,-0.24544 0.0822,-0.19171 0.0495,-0.41828 0.12272,-0.61358 0.0518,-0.1381 0.17948,-0.23623 0.24543,-0.36815 0.0933,-0.18656 0.0453,-0.41993 0.12272,-0.61359 0.043,-0.10742 0.19369,-0.14195 0.24544,-0.24543 0.33081,-0.66164 0.34811,-1.49513 0.49086,-2.20891 0.18999,-0.94992 0.62809,-1.84852 0.73631,-2.82249 0.0406,-0.36589 -0.0366,-0.73812 0,-1.10445 0.10231,-1.02318 0.31814,-2.08314 0.61358,-3.06792 0.14868,-0.4956 0.39831,-0.96353 0.49087,-1.47261 0.0881,-0.48462 0.0417,-0.98673 0.12271,-1.4726 0.40393,-2.42355 0.91683,-6.34147 -0.36815,-8.59019 -0.41596,-0.72794 -1.78656,-2.62273 -2.45434,-3.06792 -0.36939,-0.24626 -1.52662,-0.11783 -1.71803,-0.24543 -0.21794,-0.14529 -0.40906,-0.32725 -0.61359,-0.49087 z"
     id="path2731" /><path
     style="display:inline;fill:#ffffff;fill-opacity:1;stroke:#000000;stroke-width:1px;stroke-linecap:butt;stroke-linejoin:miter;stroke-opacity:1"
     d="m 133.62447,174.82183 c 3.49226,-0.32252 6.92255,-0.24903 10.30822,-0.49087 0.55237,-0.0395 1.20244,-0.319 1.71804,-0.49086 1.08506,-0.36169 2.93477,-0.32551 3.92694,-0.49087 0.33865,-0.0564 0.70867,-0.43626 0.98174,-0.49087 0.84749,-0.1695 2.10302,0 2.9452,0 1.71804,0 3.43757,-0.0715 5.15412,0 2.14783,0.0895 1.44551,-0.0271 1.96347,0.49087 0.23139,0.2314 0.65649,-0.0361 0.98173,0 1.03475,0.11497 1.71452,0.35012 2.69978,0.49087 1.03202,0.14743 2.18739,-0.25082 3.19064,0 1.33572,0.33393 0.15421,0.26471 1.96347,0.49086 1.41122,0.17641 2.6953,0.0608 4.17237,0.24544 0.75984,0.095 1.65606,0.39108 2.45434,0.49087 0.24354,0.0304 0.51678,-0.10977 0.73631,0 0.32687,0.16343 0.94535,0.75628 1.22717,0.98173 0.71837,0.5747 1.25658,1.3744 1.96347,1.96347 4.99546,4.16289 6.36994,9.03569 7.85388,14.97147 0.2491,0.9964 0,2.43096 0,3.43608 0,3.27245 0,6.5449 0,9.81735 0,0.85729 0.3546,1.39129 0.49087,2.20891 0.21611,1.29668 0.20675,6.12249 0,7.36301 -0.18623,1.11735 -1.32051,3.69881 -1.96347,4.66325 -0.26337,0.39506 -0.57768,0.7513 -0.7363,1.22717 -0.23139,0.69417 -0.30538,1.46692 -0.49087,2.2089 -0.14299,0.57197 -0.8238,0.75336 -0.98174,1.22717 -0.31207,0.93621 -0.0512,2.71041 -0.24543,3.68151 -0.2102,1.05098 -0.56255,2.14814 -0.7363,3.19064 -0.13705,0.82228 0.2614,1.91556 0,2.69978 -0.10976,0.32928 -0.55773,0.43867 -0.7363,0.7363 -0.85115,1.41858 -1.56255,3.30499 -1.96348,4.90868 -0.52861,2.11443 -0.41813,2.81802 0,4.90867 0.21066,1.05327 0,2.36623 0,3.43608 0,0.46791 0.26355,2.05902 0,2.45434 -0.46999,0.70498 -1.20678,1.2818 -1.71803,1.96347 -0.35307,0.47075 -0.70834,1.12671 -1.22717,1.4726 -1.46952,0.97968 -4.63788,0.7363 -6.38128,0.7363 -0.79934,0 -2.47698,-0.35683 -3.19065,0 -1.07913,0.53957 -3.14989,0.45676 -4.41781,0.24544 -2.39488,-0.39915 -4.76294,-1.37481 -7.11758,-1.96347 -0.61048,-0.15262 -1.34265,-0.12127 -1.96347,-0.24544 -0.93546,-0.18709 -1.80803,-0.68449 -2.69977,-0.98173 -1.07734,-0.35912 -2.84452,-0.14475 -3.68151,-0.98174 -0.0579,-0.0579 0.0629,-0.19306 0,-0.24543 -1.49268,-1.2439 -1.21355,-0.52362 -2.20891,-1.71804 -0.33828,-0.40594 -0.50213,-0.87592 -0.7363,-1.22717 -1.68203,-2.52305 -4.88567,-5.56171 -7.60845,-7.11758 -0.79416,-0.45381 -1.59473,-0.91459 -2.45434,-1.22717 -0.56637,-0.20596 -1.64334,-0.20809 -2.2089,-0.49087 -1.25371,-0.62685 -2.35993,-1.69496 -3.68151,-2.20891 -1.30294,-0.50669 -2.61312,-0.99484 -3.92695,-1.4726 -0.33106,-0.12038 -2.30274,-0.53778 -2.69977,-0.7363 -0.72439,-0.36219 -1.14536,-1.14536 -1.71804,-1.71804 -0.24543,-0.24543 -0.42585,-0.58107 -0.7363,-0.7363 -0.0732,-0.0366 -0.20884,0.0732 -0.24543,0 -0.0732,-0.14635 0.0732,-0.34452 0,-0.49087 -0.31474,-0.62947 -0.89351,-1.09839 -1.22717,-1.71803 -0.8673,-1.6107 -1.59347,-3.29454 -2.45434,-4.90868 -0.58827,-1.103 -1.31853,-2.23755 -1.71804,-3.43608 -0.0776,-0.23284 0.0481,-0.49563 0,-0.7363 -0.31953,-1.59768 -0.50883,-3.07099 -0.7363,-4.66324 -0.11351,-0.7946 0.1572,-1.66833 0,-2.45434 -0.29223,-1.46114 -0.57614,-7.75823 -0.24543,-9.08106 0.30042,-1.20169 0.99662,-2.32546 1.4726,-3.43607 0.47877,-1.11714 0.42131,-2.31522 0.98174,-3.43608 0.52518,-1.05037 1.44594,-1.91014 1.96347,-2.9452 0.54235,-1.0847 0.97402,-2.44406 1.71803,-3.43608 1.42759,-1.90345 2.84872,-3.90492 4.17238,-5.89041 1.14076,-1.71114 2.03939,-3.67267 3.19064,-5.39955 0.71332,-1.06998 1.10086,-2.57345 1.96347,-3.43607 0.23852,-0.23852 0.69249,-0.0719 0.98174,-0.24544 0.29098,-0.17459 1.36458,-0.98173 1.71804,-0.98173 0.013,0 0.67118,0.24543 1.96347,-0.98174 z"
     id="path2163" /><path
     fill="#ffffff"
     d="m 209.03796,10.548805 c -7.02,-0.232 -12.979,-0.035 -19.68,0.96 3.46,-6.5559999 15.87,-8.4239999 19.68,-0.96 z"
     id="path2"
     style="clip-rule:evenodd;fill-rule:evenodd" /><path
     d="m 189.35796,17.268805 c 2.049,0.191 0.457,4.022 0.96,5.76 -2.08,-0.315 -1.56,-4.156 -0.96,-5.76 z"
     id="path4"
     style="clip-rule:evenodd;fill-rule:evenodd" /><path
     d="m 199.91796,26.868805 c 1.563,0.163 1.102,3.938 0.48,4.8 -1.56,-0.163 -1.1,-3.938 -0.48,-4.8 z"
     id="path6"
     style="clip-rule:evenodd;fill-rule:evenodd" /><path
     d="m 200.87796,47.988805 c 2.401,-0.283 1.484,4.641 0.96,5.76 -1.8,-0.444 -0.62,-3.855 -0.96,-5.76 z"
     id="path8"
     style="clip-rule:evenodd;fill-rule:evenodd" /><path
     fill="#ffffff"
     d="m 107.27796,68.148805 c -7.600998,15.658 -32.942998,12.637 -54.239998,16.32 3.819,-10.633 16.295,-9.9 30.72,-12.48 8.913,-1.594 15.865,-3.119 23.519998,-3.84 z"
     id="path10"
     style="clip-rule:evenodd;fill-rule:evenodd" /><path
     fill="#ffffff"
     d="m 219.11796,79.188805 c 2.059,1.302 2.089,4.63 3.36,6.72 -1.839,1.362 -2.283,4.117 -1.921,7.68 -2.874,-1.954 0.722,-6.416 -2.399,-7.2 0.4,-2.357 2.25,-4.603 0.96,-7.2 z"
     id="path12"
     style="clip-rule:evenodd;fill-rule:evenodd" /><path
     fill="#ffffff"
     d="m 93.837962,81.588805 c -1.267,6.593 -6.894,12.931 -10.56,18.720005 -15.175,-0.632005 -25.877,1.222 -38.88,0 1.531,-5.509005 4.243,-9.837005 6.72,-14.400005 14.475,-1.205 28.559,-2.801 42.72,-4.32 z"
     id="path14"
     style="clip-rule:evenodd;fill-rule:evenodd" /><path
     fill="#ffffff"
     d="m 223.91796,89.748805 c 4.112,8.256 9.291,15.365005 7.2,27.360005 -3.487,0.503 -11.622,-0.754 -15.84,0.48 -2.521,6.516 0.392,15.495 -0.48,23.52 -2.127,-1.423 -1.397,-5.514 -1.439,-8.16 -0.17,-10.575 -1.588,-24.65 -0.48,-34.080005 0.301,-2.561 1.652,-5.022 3.36,-6.24 -0.148,1.749 0.076,3.124 0.479,4.32 1.441,0.639 3.672,0.488 5.761,0.48 1.62,-1.423 0.44,-5.636 1.44,-7.68 z"
     id="path16"
     style="clip-rule:evenodd;fill-rule:evenodd" /><path
     fill="#ffffff"
     d="m 50.157962,105.10881 h 1.44 c 0.75,1.101 0.75,4.659 0,5.76 1.542,1.073 4.521,0.263 6.24,0 0.021,-2.219 -0.268,-4.748 0.96,-5.76 2.543,-0.143 1.03,3.77 1.44,5.76 1.172,1.219 2.979,0.374 3.84,0.96 2.354,-0.686 -0.727,-6.807 2.4,-6.72 1.232,1.583 -0.07,3.838 0,5.76 4.057,3.328 6.646,-1.167 6.24,-5.28 2.246,-1.384 2.73,2.55 2.4,5.28 0.666,1.094 3.341,0.179 4.8,0.48 1.174,-1.226 -0.214,-5.014 0.96,-6.24 h 2.4 c 1.669,5.95 0.32,13.627 0.48,22.56 -2.146,-0.574 -2.814,-2.626 -4.8,-3.36 -2.58,-0.34 -3.933,0.547 -5.76,0.96 -4.185,-3.025 -12.48,-7.734 -17.28,-1.92 -2.361,-0.679 -0.832,-5.248 -1.92,-7.2 -0.778,-0.982 -3.542,0.022 -4.32,-0.96 0.265,-3.26 -0.564,-7.6 0.48,-10.08 z"
     id="path18"
     style="clip-rule:evenodd;fill-rule:evenodd" /><path
     fill="#ffffff"
     d="m 136.55796,117.10881 h 16.801 c 0.296,5.684 0.251,9.555 0,17.28 -3.481,0.018 -6.899,1.084 -10.08,0 -0.062,-0.861 0.587,-1.013 0.479,-1.92 -7.264,-1.807 -12.226,-0.517 -19.2,2.4 -1.978,0.378 -0.901,-2.298 -2.88,-1.92 -2.337,-0.417 -2.225,1.615 -3.84,1.92 -0.665,-0.295 -0.072,-1.848 -0.96,-1.92 4.214,-1.062 11.312,-2.541 18.24,-2.4 2.33,-2.63 -0.14,-10.06 1.44,-13.44 z"
     id="path20"
     style="clip-rule:evenodd;fill-rule:evenodd" /><path
     fill="#ffffff"
     d="m 47.757962,119.50881 c 1.093,0.987 1.658,2.502 1.44,4.8 -3.086,0.25 -2.46,-3.29 -1.44,-4.8 z"
     id="path22"
     style="clip-rule:evenodd;fill-rule:evenodd" /><path
     fill="#ffffff"
     d="m 109.67796,119.50881 c 1.78,-0.34 2.06,0.82 3.84,0.48 1.116,3.529 -0.418,12.252 1.92,12.96 -0.665,2.741 -3.489,2.456 -5.28,2.4 -0.84,-4.88 -0.63,-11.3 -0.48,-15.84 z"
     id="path24"
     style="clip-rule:evenodd;fill-rule:evenodd" /><path
     d="m 36.717962,127.66881 c 1.303,0.297 3.81,-0.609 4.32,0.48 0.395,2.78 -4.845,1.38 -4.32,-0.48 z"
     id="path26"
     style="clip-rule:evenodd;fill-rule:evenodd" /><path
     d="m 48.717962,129.58881 c -0.207,1.595 -5.805,2.573 -5.76,0 2.333,0.48 4.589,-0.82 5.76,0 z"
     id="path28"
     style="clip-rule:evenodd;fill-rule:evenodd" /><path
     d="m 76.557962,130.06881 c 0.391,2.108 -4.913,3.026 -4.8,0.479 1.626,-0.14 2.757,-0.76 4.8,-0.48 z"
     id="path30"
     style="clip-rule:evenodd;fill-rule:evenodd" /><path
     d="m 62.157962,131.98881 c -0.472,1.928 -1.857,2.943 -4.32,2.88 -0.536,-0.744 -1.56,-1 -1.44,-2.4 2.415,0.34 3.346,-0.81 5.76,-0.48 z"
     id="path32"
     style="clip-rule:evenodd;fill-rule:evenodd" /><path
     d="m 63.597962,131.98881 c 1.748,-0.148 3.124,0.076 4.32,0.48 -0.484,1.116 -1.652,1.548 -3.36,1.44 -0.006,-0.95 -1.309,-0.61 -0.96,-1.92 z"
     id="path34"
     style="clip-rule:evenodd;fill-rule:evenodd" /><path
     d="m 53.037962,134.38881 c -3.196,0.063 -6.759,-0.677 -11.04,-0.96 2.522,-2.11 9.155,-0.69 11.04,0.96 z"
     id="path36"
     style="clip-rule:evenodd;fill-rule:evenodd" /><path
     d="m 77.997962,132.46881 c 0.195,2.059 -3.751,2.722 -3.84,0.48 1.546,0.11 2.031,-0.85 3.84,-0.48 z"
     id="path38"
     style="clip-rule:evenodd;fill-rule:evenodd" /><path
     fill="#ffffff"
     d="m 141.83796,134.38881 c -5.832,1.848 -12.639,2.721 -18.24,4.8 1.506,-3.294 7.472,-2.129 9.12,-5.28 3.11,1.82 5.06,-1.56 9.12,0.48 z"
     id="path40"
     style="clip-rule:evenodd;fill-rule:evenodd" /><path
     d="m 72.717962,134.86881 c -0.31,2.307 -3.25,1.534 -4.8,1.44 0.252,-1.83 2.827,-1.33 4.8,-1.44 z"
     id="path42"
     style="clip-rule:evenodd;fill-rule:evenodd" /><path
     fill="#ffffff"
     d="m 173.99796,139.18881 v 2.4 c -2.279,1.02 -3.862,0.852 -6.72,0.48 1.09,-2.11 4.51,-1.89 6.72,-2.88 z"
     id="path44"
     style="clip-rule:evenodd;fill-rule:evenodd" /><path
     fill="#ffffff"
     d="m 143.27796,140.62881 c -1.46,-0.718 -3.159,1.451 -2.88,-0.48 0.8,0.06 3.05,-1.56 2.88,0.48 z"
     id="path46"
     style="clip-rule:evenodd;fill-rule:evenodd" /><path
     fill="#ffffff"
     d="m 138.95796,141.10881 v 3.36 c -0.861,-0.061 -1.013,0.587 -1.92,0.48 0.325,1.115 1.595,1.285 1.92,2.4 2.25,-1.386 3.991,-0.843 5.28,0.96 0.907,-1.358 3.325,-2.902 4.8,-0.96 -3.354,1.392 -4.613,2.062 -9.12,1.92 0.254,-0.386 0.501,-0.779 0.48,-1.44 -3.433,-0.129 -3.448,0.415 -6.24,0.48 -0.36,-1.64 1.95,-0.61 1.439,-2.4 -2.31,-0.628 -4.666,0.178 -7.199,-0.96 0.499,2.061 2.062,3.058 4.8,2.88 -4.977,4.084 -12.974,-1.922 -19.68,-1.44 4.073,-4.049 11.759,-1.617 17.28,-4.32 -0.054,1.813 0.939,2.581 2.4,2.88 1.04,-1.2 3.286,-1.194 3.84,-2.88 -1.545,-1.289 -3.159,0.345 -4.8,-0.48 1.67,-1.4 4.37,-0.8 6.72,-0.48 z"
     id="path48"
     style="clip-rule:evenodd;fill-rule:evenodd" /><path
     fill="#ffffff"
     d="m 27.117962,141.10881 c 2.069,1.611 5.091,2.269 5.28,5.76 -0.467,0.013 -0.373,0.587 -0.48,0.96 -1.928,0.472 -4.212,0.588 -6.72,0.48 -2.231,2.409 -3.743,5.538 -7.2,6.72 1.835,-5.64 8.957,-8.16 9.12,-13.92 z"
     id="path50"
     style="clip-rule:evenodd;fill-rule:evenodd" /><path
     d="m 84.237962,143.98881 c 0.238,1.55 -2.492,2.584 -3.36,1.44 0.084,-1.52 1.899,-1.3 3.36,-1.44 z"
     id="path52"
     style="clip-rule:evenodd;fill-rule:evenodd" /><path
     fill="#ffffff"
     d="m 173.51796,146.38881 c -1.764,-0.897 -2.655,0.317 -4.319,-0.48 0.31,-1.66 4.18,-0.95 4.32,0.48 z"
     id="path54"
     style="clip-rule:evenodd;fill-rule:evenodd" /><path
     d="m 87.117962,146.86881 c 1.003,1.144 -1.077,2.116 -1.44,3.36 -2.295,-2.12 -5.844,-0.029 -8.16,-1.92 2.536,-2.2 6.083,-0.42 9.6,-1.44 z"
     id="path56"
     style="clip-rule:evenodd;fill-rule:evenodd" /><path
     d="m 95.277962,148.30881 c -0.487,1.508 -6.543,2.669 -6.72,0 2.702,0.58 4.855,-1.27 6.72,0 z"
     id="path58"
     style="clip-rule:evenodd;fill-rule:evenodd" /><path
     d="m 77.517962,150.22881 c 2.326,-0.086 4.099,0.381 5.76,0.96 -0.341,3.11 -6.165,2.14 -5.76,-0.96 z"
     id="path60"
     style="clip-rule:evenodd;fill-rule:evenodd" /><path
     d="m 97.677962,150.22881 c -0.023,1.959 -3.559,2.212 -4.8,1.44 0.661,-1.42 3.476,-0.68 4.8,-1.44 z"
     id="path62"
     style="clip-rule:evenodd;fill-rule:evenodd" /><path
     d="m 85.677962,150.70881 h 4.8 c 0.153,2.83 -4.989,3.29 -4.8,0 z"
     id="path64"
     style="clip-rule:evenodd;fill-rule:evenodd" /><path
     d="m 149.99796,151.18881 c 0.384,2.304 -1.848,1.993 -2.88,2.88 -1.389,-0.212 -2.188,-1.013 -2.4,-2.4 2.24,-0.23 2.65,-0.14 5.28,-0.48 z"
     id="path66"
     style="clip-rule:evenodd;fill-rule:evenodd" /><path
     d="m 106.31796,151.66881 c 1.931,-0.33 2.74,0.46 4.32,0.48 0.42,1.541 -1.245,0.996 -1.44,1.92 -1.45,-0.31 -2.77,-0.75 -2.88,-2.4 z"
     id="path68"
     style="clip-rule:evenodd;fill-rule:evenodd" /><path
     d="m 104.39796,152.14881 c -0.361,2.04 -3.533,1.267 -5.759998,1.44 -0.295,-0.427 -0.58,-0.858 0,-0.96 1.16,-0.92 3.859998,-0.3 5.759998,-0.48 z"
     id="path70"
     style="clip-rule:evenodd;fill-rule:evenodd" /><path
     d="m 117.83796,152.62881 c -0.035,2.361 -5.167,3.693 -5.28,0.48 2.19,0.27 2.99,-0.85 5.28,-0.48 z"
     id="path72"
     style="clip-rule:evenodd;fill-rule:evenodd" /><path
     fill="#ffffff"
     d="m 208.07796,153.10881 c 0.326,1.754 0.67,3.49 0.479,5.76 -0.697,0.742 -2.457,0.423 -3.84,0.479 0.203,-1.003 -0.329,-1.271 -0.479,-1.92 -2.193,-0.341 -4.869,0.541 -5.761,0 0.94,-3.7 6.16,-3.12 9.6,-4.32 z"
     id="path74"
     style="clip-rule:evenodd;fill-rule:evenodd" /><path
     d="m 125.03796,154.06881 c -0.614,1.188 -5.59,2.788 -5.76,0 2.33,0.48 4.1,-1.31 5.76,0 z"
     id="path76"
     style="clip-rule:evenodd;fill-rule:evenodd" /><path
     d="m 130.79796,153.58881 c 0.389,0.092 0.479,0.481 0.96,0.48 v 0.96 c -1.184,0.063 -2.312,0.072 -2.88,-0.48 -0.34,-1.3 2.26,0.34 1.92,-0.96 z"
     id="path78"
     style="clip-rule:evenodd;fill-rule:evenodd" /><path
     d="m 105.83796,154.54881 c 2.131,-0.051 2.817,1.343 5.28,0.96 -1.04,2.06 -5.18,1.7 -5.28,-0.96 z"
     id="path80"
     style="clip-rule:evenodd;fill-rule:evenodd" /><path
     d="m 113.51796,155.98881 c 0.908,0.852 3.17,0.35 4.8,0.479 -0.35,2.25 -5.34,2.62 -4.8,-0.48 z"
     id="path82"
     style="clip-rule:evenodd;fill-rule:evenodd" /><path
     d="m 126.47796,156.46881 c -0.677,1.242 -1.551,2.289 -3.839,1.92 -0.413,-0.387 -0.286,-1.314 -0.96,-1.439 0.36,-1.22 3.1,-1.21 4.8,-0.48 z"
     id="path84"
     style="clip-rule:evenodd;fill-rule:evenodd" /><path
     d="m 129.83796,155.98881 c 2.351,0.311 2.255,0.083 4.8,0 0.057,2.136 -2.053,2.107 -3.359,2.88 -0.27,-1.17 -1.86,-1.02 -1.44,-2.88 z"
     id="path86"
     style="clip-rule:evenodd;fill-rule:evenodd" /><path
     fill="#ffffff"
     d="m 19.437962,159.34881 c 0.203,2.704 -1.768,5.892 1.92,5.761 -1.409,3.392 -4.39,5.21 -4.8,9.6 -2.889,-0.169 -2.641,2.8 -5.76,2.4 1.2,-2.199 0.895,-4.274 3.36,-4.32 0.454,-2.693 -1.549,-2.932 -3.36,-3.36 -0.766,0.722 0.014,2.021 0.96,2.4 -1.6,1.148 -1.9240002,0.606 -4.3200003,0.96 4.2910003,-4.19 4.3940003,-12.57 12.0000003,-13.44 z"
     id="path88"
     style="clip-rule:evenodd;fill-rule:evenodd" /><path
     fill="#ffffff"
     d="m 202.31796,159.34881 c -1.042,0.999 0.059,1.552 0.479,2.4 11.351,0.049 -1.483,0.881 -3.84,0.96 -0.553,-0.567 -0.543,-1.696 -0.48,-2.88 0.7,-0.74 2.46,-0.42 3.84,-0.48 z"
     id="path90"
     style="clip-rule:evenodd;fill-rule:evenodd" /><path
     fill="#ffffff"
     d="m 27.597962,159.82881 c 0.256,2.272 -2.719,1.31 -3.84,0.96 0.888,-0.71 2.281,-0.92 3.84,-0.96 z"
     id="path92"
     style="clip-rule:evenodd;fill-rule:evenodd" /><path
     fill="#ffffff"
     d="m 39.117962,162.22881 c -1.688,3.112 -4.076,5.523 -7.68,6.72 1.719,-3.08 4.872,-4.73 7.68,-6.72 z"
     id="path94"
     style="clip-rule:evenodd;fill-rule:evenodd" /><path
     fill="#ffffff"
     d="m 208.07796,171.82881 h -3.36 c 0.38,-1.11 3.59,-2.38 3.36,0 z"
     id="path96"
     style="clip-rule:evenodd;fill-rule:evenodd" /><path
     fill="#ffffff"
     d="m 175.91796,177.10881 c 1.255,-1.378 3.363,0.448 3.36,1.92 -1.31,-0.45 -2.05,-1.47 -3.36,-1.92 z"
     id="path98"
     style="clip-rule:evenodd;fill-rule:evenodd" /><path
     d="m 220.07796,180.46881 c -0.092,1.901 -5.247,2.215 -5.28,0 1.26,-0.46 4.11,-0.93 5.28,0 z"
     id="path100"
     style="clip-rule:evenodd;fill-rule:evenodd" /><path
     d="m 82.797962,180.94881 c -0.127,2.913 -1.338,4.742 -4.32,4.8 0.636,-2.39 1.07,-6.5 4.32,-4.8 z"
     id="path102"
     style="clip-rule:evenodd;fill-rule:evenodd" /><path
     fill="#ffffff"
     d="m 128.39796,186.70881 c 1.025,2.335 5.056,1.664 4.8,5.28 -1.173,0.427 -2.081,1.118 -3.84,0.96 0.49,-2.75 -2.74,-3.73 -0.96,-6.24 z"
     id="path104"
     style="clip-rule:evenodd;fill-rule:evenodd" /><path
     fill="#ffffff"
     d="m 117.35796,195.34881 c 1.485,-0.044 1.431,1.45 1.44,2.881 -1,-0.44 -1.46,-1.42 -1.44,-2.88 z"
     id="path106"
     style="clip-rule:evenodd;fill-rule:evenodd" /><path
     fill="#ffffff"
     d="m 100.55796,196.30881 h 1.44 c 1.302,2.506 0.693,4.899 -0.48,7.2 -0.07,-2.1 0.76,-4.93 -0.96,-7.2 z"
     id="path108"
     style="clip-rule:evenodd;fill-rule:evenodd" /><path
     d="m 137.51796,196.30881 c 2.113,0.768 4.484,1.277 5.761,2.881 -0.897,1.662 -2.018,3.102 -2.88,4.8 -2.06,-1.66 -4.92,-4.73 -2.88,-7.68 z"
     id="path110"
     style="clip-rule:evenodd;fill-rule:evenodd" /><path
     fill="#ffffff"
     d="m 193.67796,196.30881 c 2.12,11.777 -7.89,19.589 -6.24,34.08 -4.63,-12.6 4.66,-22.97 6.24,-34.08 z"
     id="path112"
     style="clip-rule:evenodd;fill-rule:evenodd" /><path
     fill="#ffffff"
     d="m 109.19796,196.78881 c 1.444,1.321 -0.482,3.331 -0.48,4.8 0.116,0.845 0.826,1.095 1.92,0.96 2.236,-0.164 2.074,-2.726 3.36,-3.84 1.359,1.041 1.939,2.86 2.4,4.8 -1.239,-0.041 -0.505,-2.055 -2.4,-1.439 -0.236,1.844 -2.618,1.541 -2.4,3.84 -2.125,-0.525 -2.387,0.813 -3.84,0.96 -1.013,-2.026 -2.268,-3.812 -2.4,-6.72 2.43,0.03 2.1,-2.7 3.84,-3.36 z"
     id="path114"
     style="clip-rule:evenodd;fill-rule:evenodd" /><path
     fill="#ffffff"
     d="m 118.79796,199.18881 c 1.259,1.461 1.055,4.385 2.4,5.76 -2.79,0.76 -2,-2.8 -2.4,-5.76 z"
     id="path116"
     style="clip-rule:evenodd;fill-rule:evenodd" /><path
     d="m 172.55796,203.50881 c -0.558,-0.078 -0.854,0.106 -0.96,0.48 -6.19,-1.6 1.31,-8.06 0.96,-0.48 z"
     id="path118"
     style="clip-rule:evenodd;fill-rule:evenodd" /><path
     fill="#ffffff"
     d="m 113.51796,208.78881 c 1.363,1.037 2.416,2.384 4.32,2.88 0.279,1.72 -1.42,1.46 -2.88,1.44 -0.64,-1.21 -2.21,-3.2 -1.44,-4.32 z"
     id="path120"
     style="clip-rule:evenodd;fill-rule:evenodd" /><path
     fill="#ffffff"
     d="m 180.71796,209.26881 c 1.698,-0.091 2.376,2.283 1.44,3.359 -1.91,0.31 -1.38,-1.82 -1.44,-3.36 z"
     id="path122"
     style="clip-rule:evenodd;fill-rule:evenodd" /><path
     d="m 165.35796,214.54881 c -0.438,2.282 -0.031,5.409 -2.881,5.28 -1.16,-2.16 -0.17,-5.78 2.88,-5.28 z"
     id="path124"
     style="clip-rule:evenodd;fill-rule:evenodd" /><path
     fill="#ffffff"
     d="m 194.63796,215.50881 c -0.287,9.678 0.594,20.035 -1.92,29.28 -3.4,-8.65 -0.33,-21.65 1.92,-29.28 z"
     id="path126"
     style="clip-rule:evenodd;fill-rule:evenodd" /><path
     d="m 159.59796,216.46881 c 2.288,1.169 0.287,4.637 -1.92,4.32 -0.95,-1.42 1.21,-3.05 1.92,-4.32 z"
     id="path128"
     style="clip-rule:evenodd;fill-rule:evenodd" /><path
     d="m 221.99796,230.38881 c -0.238,1.683 -2.47,1.371 -2.88,2.881 -2.173,0.054 -4.536,-1.589 -3.84,-2.881 1.27,-0.67 5.49,-0.89 6.72,0 z"
     id="path130"
     style="clip-rule:evenodd;fill-rule:evenodd" /><path
     d="m 203.75796,231.34881 c 1.383,0.057 3.143,-0.263 3.84,0.479 -0.09,2.58 -3.96,2.08 -3.84,-0.48 z"
     id="path132"
     style="clip-rule:evenodd;fill-rule:evenodd" /><path
     d="m 221.99796,235.66881 c -0.266,2.803 -4.727,3.659 -6.72,1.92 1.08,-1.8 4,-1.76 6.72,-1.92 z"
     id="path134"
     style="clip-rule:evenodd;fill-rule:evenodd" /><path
     d="m 210.95796,241.42881 c -0.368,1.552 -1.328,2.512 -2.88,2.88 -1.855,-0.063 -1.894,-1.946 -3.36,-2.399 1.05,-2.26 3.92,0.06 6.24,-0.48 z"
     id="path136"
     style="clip-rule:evenodd;fill-rule:evenodd" /><path
     d="m 219.11796,241.90881 c -0.791,2.274 -5.395,3.408 -6.24,0.479 1.59,-0.42 5.28,-2.46 6.24,-0.48 z"
     id="path138"
     style="clip-rule:evenodd;fill-rule:evenodd" /><path
     d="m 47.277962,243.34881 c 0.019,1.778 -0.737,2.782 -1.44,3.84 1.275,0.005 2.741,-0.182 3.36,0.479 0.078,2.537 -2.859,0.992 -4.32,0.96 1.442,-3.23 -3.249,-2.261 -3.36,-5.279 1.575,-1.22 3.348,0.56 5.76,0 z"
     id="path140"
     style="clip-rule:evenodd;fill-rule:evenodd" /><path
     d="m 58.797962,245.26881 c -1.264,0.461 -4.112,0.928 -5.28,0 0.533,-1.18 5.291,-2.65 5.28,0 z"
     id="path142"
     style="clip-rule:evenodd;fill-rule:evenodd" /><path
     d="m 218.15796,247.18881 c -3.321,1.555 -10.841,2.137 -12.96,-0.48 2.44,-1.9 12.21,-1.7 12.96,0.48 z"
     id="path144"
     style="clip-rule:evenodd;fill-rule:evenodd" /><path
     d="m 55.917962,248.62881 c -0.445,2.171 -4.635,1.568 -5.76,0.48 0.246,-1.54 4.831,-1.22 5.76,-0.48 z"
     id="path146"
     style="clip-rule:evenodd;fill-rule:evenodd" /><path
     d="m 44.877962,251.50881 c -1.756,0.214 -5.601,1.516 -6.24,-1.439 1.641,-0.78 5.75,-0.47 6.24,1.44 z"
     id="path148"
     style="clip-rule:evenodd;fill-rule:evenodd" /><path
     d="m 68.397962,251.98881 c -3.139,2.975 -7.83,-0.3 -11.52,-0.96 2.731,-3.67 9.021,-0.2 11.52,0.96 z"
     id="path150"
     style="clip-rule:evenodd;fill-rule:evenodd" /><path
     d="m 214.31796,250.06881 c -0.036,1.69 -3.167,1.873 -3.841,1.439 -0.69,-2.16 2.96,-2.44 3.84,-1.44 z"
     id="path152"
     style="clip-rule:evenodd;fill-rule:evenodd" /><path
     d="m 114.95796,251.02881 c -0.631,1.984 -4.507,1.695 -5.76,0.479 0.35,-1.64 4.69,-1.08 5.76,-0.48 z"
     id="path154"
     style="clip-rule:evenodd;fill-rule:evenodd" /><path
     d="m 54.477962,251.98881 c -0.245,2.371 -3.917,2.285 -5.28,0.96 0.563,-1.42 3.835,-1.94 5.28,-0.96 z"
     id="path156"
     style="clip-rule:evenodd;fill-rule:evenodd" /><path
     d="m 69.357962,251.50881 c 4.875,6.63 6.018,23.204 -3.36,25.44 -0.111,-1.871 1.031,-2.489 1.44,-3.84 -6.634,1.587 -12.613,1.311 -16.32,-2.88 -0.22,-1.5 1.025,-1.535 2.4,-1.44 0.37,-2.096 -1.297,-3.743 0,-5.28 1.618,0.302 2.209,1.631 2.4,3.36 3.571,0.859 4.575,-1.212 5.76,-3.84 1.689,2.151 4.703,2.977 4.8,6.72 1.664,-0.475 3.278,-1.808 3.36,0.96 4.423,-4.97 -0.12,-11.68 -0.48,-19.2 z"
     id="path158"
     style="clip-rule:evenodd;fill-rule:evenodd" /><path
     d="m 96.717962,252.46881 c -0.845,2.145 -3.54,1.153 -4.8,0 0.904,-1.68 3.554,-0.67 4.8,0 z"
     id="path160"
     style="clip-rule:evenodd;fill-rule:evenodd" /><path
     fill="#ffffff"
     d="m 189.35796,251.98881 h 0.96 c 3.354,3.046 -1.414,6.588 -0.48,11.52 3.72,6.565 1.92,15.11 -0.96,21.601 -3.14,-1.057 -1.486,-5.142 0,-6.721 1.72,-10.06 -2.08,-17.52 0.48,-26.4 z"
     id="path162"
     style="clip-rule:evenodd;fill-rule:evenodd" /><path
     d="m 58.797962,253.42881 c -0.646,2.516 -4.864,3.061 -7.2,2.4 0.875,-2.32 4.889,-1.51 7.2,-2.4 z"
     id="path164"
     style="clip-rule:evenodd;fill-rule:evenodd" /><path
     d="m 104.87796,253.90881 c -0.301,2.688 -3.074,1.62 -4.32,0.479 0.63,-1.38 3.04,-0.99 4.32,-0.48 z"
     id="path166"
     style="clip-rule:evenodd;fill-rule:evenodd" /><path
     d="m 225.35796,255.34881 c -1.244,1.534 -5.118,1.998 -6.721,0.48 1.29,-1.71 5.03,-1.66 6.72,-0.48 z"
     id="path168"
     style="clip-rule:evenodd;fill-rule:evenodd" /><path
     d="m 62.157962,254.86881 c 1.764,0.156 4.249,-0.409 5.28,0.479 -0.153,1.127 -1.486,1.075 -1.92,1.921 -0.153,1.272 2.689,-0.449 1.92,1.439 -2.143,0.933 -6.297,1.694 -7.2,-0.96 h 3.36 c 0.419,-1.86 -2.095,-0.78 -1.44,-2.88 z"
     id="path170"
     style="clip-rule:evenodd;fill-rule:evenodd" /><path
     d="m 90.957962,256.30881 c -0.08,2.261 -4.984,1.696 -5.76,0.479 0.97,-0.92 5.15,-2.21 5.76,-0.48 z"
     id="path172"
     style="clip-rule:evenodd;fill-rule:evenodd" /><path
     d="m 98.157962,255.82881 c -0.52,1.762 -4.55,2.771 -5.76,0.96 0.621,-1.5 4.566,-1.56 5.76,-0.96 z"
     id="path174"
     style="clip-rule:evenodd;fill-rule:evenodd" /><path
     d="m 113.03796,257.74881 c -4.407,-1.796 -8.237,4.006 -10.56,-0.479 3.75,0.05 8.83,-3 10.56,0.48 z"
     id="path176"
     style="clip-rule:evenodd;fill-rule:evenodd" /><path
     d="m 216.71796,258.22881 c -0.939,3.346 -7.258,1.776 -7.68,-0.96 1.63,-1.73 4.81,0.99 7.68,0.96 z"
     id="path178"
     style="clip-rule:evenodd;fill-rule:evenodd" /><path
     d="m 53.997962,258.22881 c -1.418,2.329 -5.153,0.087 -6.72,-0.48 0.995,-1.52 5.042,-0.23 6.72,0.48 z"
     id="path180"
     style="clip-rule:evenodd;fill-rule:evenodd" /><path
     fill="#ffffff"
     d="m 182.15796,257.26881 c 4.593,2.111 3.643,11.837 3.84,16.8 -3.35,0.214 -9.407,0.475 -13.92,-0.48 1.03,-5.369 3.308,-9.492 5.76,-13.439 1.512,-0.232 1.087,1.473 2.88,0.96 1.26,-0.5 1.57,-1.95 1.44,-3.84 z"
     id="path182"
     style="clip-rule:evenodd;fill-rule:evenodd" /><path
     fill="#ffffff"
     d="m 92.397962,261.58881 c -1.482,0.118 -2.713,0.487 -3.84,0.96 1.044,2.448 4.651,1.005 6.72,0.48 -0.629,4.118 -7.843,1.292 -9.12,0 1.167,-1.05 5.595,-4.41 6.24,-1.44 z"
     id="path184"
     style="clip-rule:evenodd;fill-rule:evenodd" /><path
     d="m 108.71796,261.58881 c -0.996,2.009 -5.083,1.609 -6.72,0.48 v -1.44 c 1.36,-0.5 4.78,0.5 6.72,0.96 z"
     id="path186"
     style="clip-rule:evenodd;fill-rule:evenodd" /><path
     d="m 221.51796,263.02881 c -0.354,2.424 -4.878,2.236 -6.239,0.96 0.8,-1.46 4.56,-1.92 6.24,-0.96 z"
     id="path188"
     style="clip-rule:evenodd;fill-rule:evenodd" /><path
     d="m 204.23796,265.90881 c 4.463,-0.356 7.469,1.035 9.6,0.479 -1.03,2.33 -5.168,1.552 -8.16,1.921 -0.15,-1.13 -1.67,-0.89 -1.44,-2.4 z"
     id="path190"
     style="clip-rule:evenodd;fill-rule:evenodd" /><path
     d="m 221.99796,267.82881 c -1.93,1.862 -6.611,3.165 -8.64,0.96 1.4,-1.77 6.18,-1.75 8.64,-0.96 z"
     id="path192"
     style="clip-rule:evenodd;fill-rule:evenodd" /><path
     d="m 47.277962,267.82881 c 1.436,0.805 3.215,1.266 2.88,3.84 -1.743,0.338 -2.613,1.547 -3.84,2.4 -2.147,-1.564 -2.504,-0.678 -4.8,-0.96 0.005,-1.275 -0.182,-2.741 0.48,-3.36 3.057,0.57 4.122,0.22 5.28,-1.92 z"
     id="path194"
     style="clip-rule:evenodd;fill-rule:evenodd" /><path
     d="m 211.91796,269.74881 c -1.3,2.454 -7.883,3.746 -8.16,-0.479 1.41,-0.27 6.15,-0.21 8.16,0.48 z"
     id="path196"
     style="clip-rule:evenodd;fill-rule:evenodd" /><path
     fill="#ffffff"
     d="m 86.157962,271.18881 c -1.122,0.147 -1.983,0.939 -2.88,0 0.083,-1.39 3.086,-2.32 2.88,0 z"
     id="path198"
     style="clip-rule:evenodd;fill-rule:evenodd" /><path
     d="m 213.35796,272.14881 c 2.85,-0.13 4.916,0.522 7.199,0.96 -1.14,2.97 -8.48,2.04 -7.2,-0.96 z"
     id="path200"
     style="clip-rule:evenodd;fill-rule:evenodd" /><path
     d="m 197.99796,272.62881 c 6.336,-0.156 9.262,0.263 13.92,1.92 -3.029,3.465 -7.68,-1.29 -11.04,0.96 -1.35,-0.57 -3.06,-0.78 -2.88,-2.88 z"
     id="path202"
     style="clip-rule:evenodd;fill-rule:evenodd" /><path
     fill="#ffffff"
     d="m 185.51796,277.42881 c -0.006,0.954 -1.31,0.61 -0.96,1.921 -1.047,0.087 -1.526,-0.394 -1.439,-1.44 0.56,-0.4 1.29,-0.63 2.4,-0.48 z"
     id="path204"
     style="clip-rule:evenodd;fill-rule:evenodd" /><path
     d="m 108.71796,285.10881 c 1.947,0.612 4.864,0.256 6.72,0.96 -0.117,1.963 -2.499,1.66 -3.84,2.399 0.984,1.399 -1.717,2.896 -3.84,3.841 -0.995,-1.565 -3.607,-1.513 -3.36,-4.32 1.77,0.63 4.368,0.432 6.24,0.96 0.09,-2.01 -2.36,-1.48 -1.92,-3.84 z"
     id="path206"
     style="clip-rule:evenodd;fill-rule:evenodd" /><path
     d="m 131.75796,286.06881 c 0.299,2.858 -3.298,1.821 -3.359,4.319 -2.084,-3.935 -7.242,-0.14 -9.121,-3.84 3.54,-1.4 8.16,-0.79 12.48,-0.48 z"
     id="path208"
     style="clip-rule:evenodd;fill-rule:evenodd" /><path
     d="m 145.19796,287.50881 c 1.042,1.146 1.266,3.641 0.479,5.28 -1.91,-0.81 -3.932,-1.508 -5.76,-2.4 v -2.399 c 1.03,-0.89 3.52,-0.32 5.28,-0.48 z"
     id="path210"
     style="clip-rule:evenodd;fill-rule:evenodd" /><path
     d="m 122.15796,290.86881 c -1.654,3.663 -6.953,2.104 -7.68,-1.44 1.59,-0.3 5.73,0.54 7.68,1.44 z"
     id="path212"
     style="clip-rule:evenodd;fill-rule:evenodd" /><path
     d="m 131.27796,289.42881 c 2.155,-0.235 3.597,0.244 5.279,0.48 -0.16,1.89 -5.84,2.37 -5.28,-0.48 z"
     id="path214"
     style="clip-rule:evenodd;fill-rule:evenodd" /><path
     d="m 157.67796,292.78881 c -1.099,2.99 -6.149,2.755 -7.68,0.48 0.32,-2.36 5.47,-0.61 7.68,-0.48 z"
     id="path216"
     style="clip-rule:evenodd;fill-rule:evenodd" /><path
     d="m 134.15796,293.74881 c 0.282,2.401 -4.641,1.484 -5.76,0.96 -0.255,-0.386 -0.501,-0.779 -0.48,-1.439 1.19,-0.59 5.79,-1.18 6.24,0.48 z"
     id="path218"
     style="clip-rule:evenodd;fill-rule:evenodd" /><path
     d="m 138.95796,294.70881 c 1.922,0.318 3.472,1.008 5.28,1.44 0.411,1.531 -0.756,1.484 -0.96,2.399 -2.3,-0.42 -4.29,-1.15 -4.32,-3.84 z"
     id="path220"
     style="clip-rule:evenodd;fill-rule:evenodd" /><path
     d="m 122.15796,297.58881 c 1.809,-0.369 2.294,0.586 3.84,0.48 0.2,1.95 -4.72,2.27 -3.84,-0.48 z"
     id="path222"
     style="clip-rule:evenodd;fill-rule:evenodd" /><path
     d="m 145.19796,299.98881 c -3.535,1.665 -11.124,4.313 -12.48,-0.96 4.52,0.1 8.18,-0.52 12.48,0.96 z"
     id="path224"
     style="clip-rule:evenodd;fill-rule:evenodd" /><path
     fill="#ffffff"
     d="m 210.95796,96.468805 c 0.539,1.832 -2.282,4.428005 -1.44,8.160005 -10.251,3.172 -16.667,13.178 -21.119,22.56 -1.028,2.166 -1.242,6.11 -4.801,5.76 0.585,-31.612 0.882,-67.606005 0.48,-96.960005 -0.101,-7.371 -0.449,-14.991 2.399,-21.6 7.058,-0.178 11.923,1.838 14.4,6.24 -2.046,1.154 -6.937,-0.536 -7.68,1.92 2.213,1.919 7.611,0.161 10.56,0.96 1.18,2.821 2.166,5.834 2.88,9.12 -4.068,0.189 -10.062,-1.855 -12.479,0.96 2.064,2.416 9.113,-0.153 12,1.44 1.133,1.708 1.43,6.403 0.479,8.64 -3.364,0.315 -7.994,-0.634 -10.56,0.48 1.17,3.558 5.998,0.542 11.04,1.92 0.658,4.553 0.466,11.725 0.479,18.24 0.734,2.174 -3.134,-0.254 -2.399,1.92 -0.442,1.882 2.531,0.348 2.88,1.44 -0.559,3.761 1.349,9.989 -1.44,11.52 2.3,0.854 3.475,9.955 0,10.56 -0.378,1.978 2.299,0.902 1.92,2.88 -0.8,4.049 -4.598,7.495005 -3.359,12.000005 3.14,-1.5 3.6,-5.678005 5.76,-8.160005 z m -20.64,-73.44 c -0.503,-1.738 1.089,-5.569 -0.96,-5.76 -0.6,1.604 -1.12,5.445 0.96,5.76 z m 10.08,8.64 c 0.621,-0.862 1.083,-4.637 -0.48,-4.8 -0.62,0.862 -1.08,4.637 0.48,4.8 z m 1.44,22.08 c 0.524,-1.119 1.441,-6.042 -0.96,-5.76 0.34,1.905 -0.84,5.316 0.96,5.76 z"
     id="path226"
     style="clip-rule:evenodd;fill-rule:evenodd" /><path
     fill="#ffffff"
     d="m 25.677962,155.02881 c 0.411,2.33 -3.112,0.728 -2.88,2.88 -1.329,0.51 1.15,-4.85 2.88,-2.88 z"
     id="path228"
     style="clip-rule:evenodd;fill-rule:evenodd" /><path
     fill="#ffffff"
     d="m 89.037962,185.74881 c 0.362,1.281 0.177,3.274 0,5.76 2.365,1.223 3.965,-1.982 4.8,-3.84 1.161,3.15 -1.725,8.745 -0.96,11.521 0.611,1.948 4.728,0.392 4.8,2.88 -1.466,0.347 -1.749,-0.491 -2.88,-0.48 -2.793,1.774 0.817,3.894 0.48,6.24 -0.916,0.204 -0.869,1.371 -2.4,0.96 -1.449,-1.919 0.433,-3.824 0.48,-5.76 -1.336,-1.937 -2.811,-3.225 -2.4,-5.76 -2.126,1.233 -2.824,3.896 -3.36,6.72 -2.285,0.115 -5.41,-0.609 -5.76,1.439 0.09,1.351 0.835,2.045 2.4,1.92 -0.22,4.221 2.083,5.918 4.8,7.2 -0.271,2.512 -0.109,4.59 2.88,3.84 0.072,3.128 1.366,5.034 1.92,7.681 2.731,0.331 2.776,-2.024 5.28,-1.92 0.054,-1.78 -2.229,-2.811 -0.96,-4.32 3.552998,1.247 3.090998,6.509 5.279998,9.12 3.201,-0.86 4.146,2.535 2.4,3.84 -1.755,-0.005 -2.571,-0.948 -3.36,-1.92 -0.88,0.56 -1.625,1.255 -2.4,1.92 -4.894998,-0.274 -6.554998,-4.519 -11.519998,-3.36 -1.72,-1 -2.565,-2.874 -3.84,-4.319 -0.26,-1.7 1.7,-1.181 1.44,-2.88 -0.417,-1.184 -1.119,-2.082 -2.88,-1.921 -1.994,1.22 -0.016,2.49 0,4.32 -1.468,-0.348 -1.412,0.828 -2.88,0.48 -0.31,1.91 1.271,1.93 0.96,3.84 -2.193,-0.441 -2.823,-3.656 -5.76,-1.92 -0.892,-0.868 -1.096,-2.424 -1.44,-3.84 1.264,-1.55 2.578,-1.19 4.32,-1.44 -0.133,-4.187 -3.719,-4.921 -3.36,-9.6 0.698,-0.742 2.457,-0.423 3.84,-0.48 -1.442,-4.862 -1.26,-16.053 -8.16,-11.04 0.451,2.109 1.826,3.294 1.44,6.24 -2.528,-2.271 -1.611,-7.988 -5.76,-8.64 -0.281,-3.001 0.431,-5.01 1.44,-6.721 -0.307,-1.732 -2.302,0.131 -4.32,-0.479 0.059,-7.628 9.643,-14.464 1.44,-19.2 -1.439,1.121 -1.012,4.108 -3.36,4.32 -0.051,-2.131 1.343,-2.817 0.96,-5.28 -4.654,4.146 -8.913,8.688 -10.08,16.32 -1.634,-3.789 1.406,-9.643 2.4,-12.96 -1.689,-2.392 0.602,-5.938 2.4,-7.681 2.194,-0.016 0.025,1.685 0.48,2.88 3.474,1.118 5.174,-3.84 9.6,-1.92 1.355,-1.364 2.008,-3.432 3.84,-4.319 5.438,1.257 9.946,4.442 14.88,4.8 0.001,1.602 -1.562,1.639 -1.44,3.359 -0.081,1.041 1.703,0.218 2.4,0.48 0.23,1.51 -0.684,1.876 -0.96,2.88 0.249,1.19 1.17,1.71 1.92,2.4 1.716,-0.524 2.143,-2.338 3.36,-3.36 1.65,0.431 0.669,3.49 3.84,2.4 -0.467,4.409 -6.604,2.507 -8.64,4.319 -1.49,1.391 -2.447,3.313 -2.88,5.761 0.17,0.63 0.845,0.755 0.96,1.439 1.29,-0.79 3.337,-0.82 4.32,-1.92 z m -10.56,0 c 2.982,-0.058 4.193,-1.887 4.32,-4.8 -3.25,-1.7 -3.684,2.41 -4.32,4.8 z"
     id="path230"
     style="clip-rule:evenodd;fill-rule:evenodd" /><path
     d="m 203.27796,134.86881 c -0.944,-1.963 -5.385,-0.674 -7.2,-0.48 -2.139,-1.221 0.406,-7.126 -2.4,-7.68 -0.389,0.091 -0.479,0.481 -0.96,0.48 -1.096,3.868 1.119,10.974 -0.479,15.36 -2.56,-0.161 -3.467,-1.973 -3.36,-4.8 -3.177,0.669 -6.945,3.286 -9.6,2.88 1.713,-3.566 7.884,-2.676 10.08,-5.76 -2.384,-1.976 -7.126,1.336 -9.601,2.4 -1.301,-0.459 0.453,-3.973 -1.439,-3.84 -1.973,5.2 0.355,13.909 -0.48,21.12 -3.01,0.29 -3.652,-1.788 -3.36,-4.8 -1.061,-2.939 -6.795,-1.205 -9.6,-2.4 -0.438,-2.038 0.784,-2.417 1.92,-2.88 -0.851,-0.75 -2.558,-0.643 -1.92,-2.88 -0.05,-2.129 2.667,-1.493 3.36,-2.88 -0.357,-1.083 -2.692,-0.188 -3.84,-0.48 -0.291,-1.149 -0.69,-2.19 -0.48,-3.84 2.216,0.176 2.763,0.591 4.8,0 0.288,-4.482 0.622,-9.726 0.48,-16.8 -1.578,-0.982 -4.861,-0.259 -7.2,-0.48 -1.875,12.295 1.612,25.887 0.479,37.44 -5.543,-0.856 -1.34,-11.459 -3.359,-15.84 -6.008,1.049 -9.905,1.463 -14.88,0.96 -0.359,1.479 1.654,0.585 0.96,2.4 -0.861,0.899 -2.946,0.574 -3.36,1.92 0.207,1.073 2.365,0.194 3.36,0.48 0.651,-0.149 0.397,-1.202 0.479,-1.92 h 4.8 c -1.639,2.58 2.49,3.503 0,4.8 0.377,1.063 2.972,-0.091 2.4,1.92 -4.65,1.182 -7.602,0.005 -11.52,2.88 -1.51,0.069 -1.649,-1.231 -1.921,-2.4 -1.207,0.553 -3.292,0.228 -3.359,1.92 -1.507,0.227 -1.269,-1.292 -2.4,-1.44 -7.501,2.799 -20.936,0.526 -28.8,-0.96 -1.789,0.738 -5.115998,2.827 -5.759998,-0.48 6.048998,-0.99 8.982998,-5.096 15.359998,-5.76 -0.148,-1.122 -0.939,-1.983 0,-2.88 3.15,0.64 5.851,0.351 7.68,-2.4 -2.645,1.219 -9.107,0.91 -12.48,0.96 -2.278,3.162 -5.807,5.073 -8.16,8.16 -1.45,-1.412 -4.040998,-0.827 -5.759998,0 -10.523,-6.81 -23.288,-3.2 -38.4,-3.36 0.516,-3.288 5.187,-3.871 8.16,-4.32 12.437,-1.88 26.11,-2.79 37.439998,-2.4 -3.814998,4.108 -13.881998,0.902 -20.159998,3.36 2.24,3.521 10.369,1.152 12.48,4.8 6.355998,-0.707 9.453998,-3.757 12.959998,-8.16 -7.097,-3.838 -19.461998,0.758 -28.319998,-1.44 3.205,-4.37 9.088,-2.871 12.48,-5.28 5.249,0.389 9.706998,0.769 15.839998,-0.48 -6.022,-4.775 -11.709998,0.418 -20.159998,-1.92 -1.966,0.435 -2.353,2.448 -3.84,3.36 -3.727,-5.373 -12.687,-3.647 -16.8,0.48 -4.304,-1.669 -8.236,0.514 -11.52,-0.96 -2.053,0.818 -2.949,2.882 -5.28,0.96 -0.225,-2.617 2.791,-0.563 3.36,-1.44 -1.834,-0.886 -5.24,-0.2 -4.8,-3.36 -7.47,-0.389 -14.251,-0.73 -23.04,-1.92 0.756,-5.644 4.21,-8.589 8.16,-11.04 -4.135,-3.807 0.802,-8.251 -1.44,-13.44 1.248,-1.292005 1.448,0.587 2.88,0.48 -0.77,-4.812005 0.654,-8.907005 2.4,-12.480005 4.312,0.647 0.502,9.417 3.84,11.04 5.109,-8.971 9.531,-18.629 17.28,-24.96 11.885,-1.774 27.898,-4.457 41.759998,-6.72 4.355,-0.711 9.809,-2.435 12.48,-1.92 2.194,0.423 6.191,4.449 8.64,6.24 3.238,2.369 6.131,3.544 8.64,5.76 4.9,4.326 5.97,11.382 9.601,16.32 14.822,-1.319 29.52,-1.364 42.239,-3.84 -0.031,-31.9 0.148,-44.086 0.48,-71.04 -0.654,-1.906 -2.528,-2.592 -3.36,-4.32 4.61,-6.4289999 12.71,-9.3689999 20.16,-12.9599999 8.117,1.963 14.841,5.319 20.16,10.0799999 0.674,3.394 -1.885,3.555 -2.88,5.28 -0.241,19.252 0.522,36.181 0.96,52.32 3.544,3.176 12.016,1.424 15.84,4.32 0.163,8.758 0.389,14.492 0.48,24.96 0.037,4.366005 0.985,9.142005 0.479,10.560005 -0.262,0.735 -1.829,1.296 -1.92,1.92 -0.845,5.82 1.161,10.832 0,16.8 0.072,0.888 1.625,0.295 1.92,0.96 -0.464,4.996 0.983,7.739 0,11.04 -1.99,-0.55 -1.87,1.01 -3.36,0.96 -0.802,-5.909 -0.494,-14.875 -0.96,-21.12 -3.061,3.123 -1.182,8.462 -0.96,12.48 0.162,2.921 0.252,6.234 -1.439,9.6 1.044,1.516 3.263,1.857 3.359,4.32 -1.751,2.089 -4.29,3.39 -6.72,4.8 0.961,0.959 2.996,0.844 3.84,1.92 -0.09,1.35 -1.565,1.313 -1.92,2.399 1.895,0.506 4.04,0.761 5.28,1.92 -2.673,4.636 -12.164,2.4 -17.76,2.88 -0.274,-6.211 -0.197,-10.592 -0.96,-16.799 -3.032,3.604 -1.048,13.984 -0.96,19.2 1.535,0.705 3.105,1.374 5.279,1.44 0.358,1.958 -3.108,0.091 -2.399,2.399 -0.759,1.879 1.246,0.994 1.439,1.92 -0.374,1.706 -2.243,1.917 -3.359,2.88 1.416,1.385 3.462,-0.674 5.76,0 1.427,-1.382 -1.202,-0.833 -0.96,-2.399 h 3.84 c -1.28,2.727 1.331,1.077 1.439,3.359 -2.51,0.21 -4.209,1.23 -6.72,1.44 -0.199,2.6 4.028,0.771 5.28,1.92 -0.359,1.881 -3.097,1.384 -3.36,3.36 -1.778,0.019 -2.782,-0.737 -3.84,-1.44 1.079,3.339 -5.642,6.043 -9.12,3.36 0.466,-1.935 4.871,0.07 3.84,-3.36 -1.778,-1.88 -7.941,1.036 -9.6,-1.92 1.64,-2.138 9.724,-0.415 13.92,-0.96 -1.407,-4.836 -15.2,1.978 -18.24,-1.92 2.445,0.045 3.795,-1.005 6.24,-0.96 -2.492,-5.658 -7.628,3.536 -11.04,0 -0.952,-1.106 0.121,-0.533 0.48,-1.44 -3.202,-0.015 -5.915,-3.319 -9.601,-3.84 -3.753,-0.529 -8.389,1.129 -12.479,0.96 -4.574,-0.188 -8.082,-3.398 -12.48,-4.319 -6.447,-1.351 -15.853,0.842 -16.8,-6.721 2.006,-0.245 3.252,0.268 4.32,0.96 0.025,-1.465 -1.729,-1.151 -1.44,-2.88 -2.17,0.391 -6.665,3.358 -6.72,-0.96 5.729,-1.501 6.58,1.229 12.479,1.44 0.412,1.531 -0.755,1.484 -0.96,2.399 4.84,-0.76 12.84,1.64 15.36,-1.439 7.262,2.389 13.048,-0.094 18.72,1.92 -1.406,2.113 -6.117,0.922 -8.64,1.92 2.6,3.232 7.772,-0.166 13.439,0.96 0.688,0.703 0.368,1.521 -0.96,1.44 2.594,0.432 5.507,2.063 8.16,0.96 v -5.28 c -4.304,-3.217 -10.073,-4.967 -13.92,-8.64 6.254,0.146 7.959,4.841 13.44,5.76 -2.038,-5.803 -9.41,-6.271 -13.44,-10.08 3.592,-1.146 9.248,3.838 12.96,5.76 2.067,-1.523 -0.669,-5.36 0.96,-7.68 4.595,-0.115 5.88,3.08 5.28,8.16 1.851,1.648 5.815,-0.223 8.64,-0.48 0.061,-1.749 -2.008,-2.29 0,-3.36 -1.76,-0.751 -6.701,1.986 -7.68,-1.44 0.499,-1.101 3.428,0.228 3.84,-0.96 -2.521,-0.678 -3.96,-2.44 -6.24,-3.36 2.004,-1.677 5.555,-1.805 6.24,-4.8 -2.244,-1.427 -5.484,0.263 -8.16,0 0.79,-2.2 6.21,-1.96 7.68,-1.92 z m -13.92,-123.360005 c 6.701,-0.995 12.66,-1.192 19.68,-0.96 -3.81,-7.4639999 -16.22,-5.5959999 -19.68,0.96 z m 15.84,93.120005 c -1.238,-4.505 2.56,-7.951005 3.359,-12.000005 0.379,-1.978 -2.298,-0.902 -1.92,-2.88 3.475,-0.605 2.3,-9.706 0,-10.56 2.789,-1.531 0.882,-7.759 1.44,-11.52 -0.349,-1.092 -3.322,0.442 -2.88,-1.44 -0.734,-2.174 3.134,0.254 2.399,-1.92 -0.014,-6.516 0.179,-13.688 -0.479,-18.24 -5.042,-1.378 -9.87,1.638 -11.04,-1.92 2.565,-1.114 7.195,-0.165 10.56,-0.48 0.95,-2.236 0.653,-6.932 -0.479,-8.64 -2.887,-1.594 -9.936,0.975 -12,-1.44 2.418,-2.815 8.411,-0.771 12.479,-0.96 -0.714,-3.285 -1.7,-6.299 -2.88,-9.12 -2.948,-0.8 -8.347,0.958 -10.56,-0.96 0.743,-2.456 5.634,-0.766 7.68,-1.92 -2.478,-4.402 -7.343,-6.417 -14.4,-6.24 -2.849,6.609 -2.5,14.229 -2.399,21.6 0.401,29.354 0.104,65.348005 -0.48,96.960005 3.559,0.35 3.772,-3.594 4.801,-5.76 4.452,-9.382 10.868,-19.388 21.119,-22.56 -0.842,-3.732 1.979,-6.328005 1.44,-8.160005 -2.16,2.482 -2.62,6.660005 -5.76,8.160005 z M 83.757962,71.988805 c -14.425,2.58 -26.901,1.847 -30.72,12.48 21.296,-3.683 46.639,-0.663 54.239998,-16.32 -7.654998,0.721 -14.606998,2.246 -23.519998,3.84 z m 134.399998,14.4 c 3.121,0.784 -0.475,5.246 2.399,7.2 -0.362,-3.562 0.082,-6.318 1.921,-7.68 -1.271,-2.09 -1.302,-5.418 -3.36,-6.72 1.29,2.597 -0.56,4.843 -0.96,7.2 z m -167.039998,-0.48 c -2.478,4.562 -5.189,8.891 -6.72,14.400005 13.003,1.222 23.705,-0.632005 38.88,0 3.666,-5.790005 9.293,-12.127005 10.56,-18.720005 -14.161,1.519 -28.245,3.115 -42.72,4.32 z m 171.359998,11.52 c -2.089,0.008 -4.319,0.159 -5.761,-0.48 -0.403,-1.196 -0.628,-2.572 -0.479,-4.32 -1.708,1.218 -3.06,3.68 -3.36,6.24 -1.107,9.430005 0.311,23.505005 0.48,34.080005 0.042,2.646 -0.688,6.736 1.439,8.16 0.872,-8.025 -2.04,-17.004 0.48,-23.52 4.218,-1.234 12.353,0.023 15.84,-0.48 2.091,-11.995 -3.088,-19.104005 -7.2,-27.360005 -1,2.044 0.18,6.257 -1.44,7.68 z m -96.48,0.48 c -6.856,5.304005 -15.125,9.195005 -22.08,14.400005 26.119,-1.177 52.216,-1.234 78.24,-2.88 0.799,-3.13 0.369,-9.685005 0.479,-14.880005 -17.66,-0.779 -38.62,2.509 -56.64,3.36 z M 49.677962,115.18881 c 0.778,0.982 3.542,-0.022 4.32,0.96 1.088,1.953 -0.441,6.521 1.92,7.2 4.8,-5.814 13.096,-1.105 17.28,1.92 1.827,-0.413 3.18,-1.3 5.76,-0.96 1.986,0.734 2.654,2.786 4.8,3.36 -0.16,-8.933 1.189,-16.61 -0.48,-22.56 h -2.4 c -1.174,1.226 0.214,5.014 -0.96,6.24 -1.459,-0.301 -4.134,0.614 -4.8,-0.48 0.33,-2.73 -0.155,-6.664 -2.4,-5.28 0.407,4.113 -2.183,8.608 -6.24,5.28 -0.07,-1.922 1.232,-4.178 0,-5.76 -3.126,-0.086 -0.046,6.034 -2.4,6.72 -0.861,-0.586 -2.668,0.259 -3.84,-0.96 -0.41,-1.99 1.104,-5.903 -1.44,-5.76 -1.228,1.012 -0.939,3.541 -0.96,5.76 -1.719,0.263 -4.697,1.073 -6.24,0 0.75,-1.101 0.75,-4.659 0,-5.76 h -1.44 c -1.044,2.48 -0.215,6.82 -0.48,10.08 z m 85.439998,15.36 c -6.928,-0.141 -14.026,1.338 -18.24,2.4 0.888,0.072 0.295,1.625 0.96,1.92 1.615,-0.305 1.502,-2.337 3.84,-1.92 1.979,-0.378 0.902,2.298 2.88,1.92 6.975,-2.917 11.937,-4.207 19.2,-2.4 0.107,0.907 -0.541,1.059 -0.479,1.92 3.181,1.084 6.599,0.018 10.08,0 0.251,-7.725 0.296,-11.596 0,-17.28 h -16.801 c -1.58,3.38 0.89,10.81 -1.44,13.44 z m -85.919998,-6.24 c 0.218,-2.298 -0.347,-3.813 -1.44,-4.8 -1.02,1.51 -1.646,5.05 1.44,4.8 z m 60.959998,11.04 c 1.791,0.056 4.615,0.341 5.28,-2.4 -2.338,-0.708 -0.804,-9.431 -1.92,-12.96 -1.78,0.34 -2.06,-0.82 -3.84,-0.48 -0.15,4.54 -0.36,10.96 0.48,15.84 z m 22.56,-1.44 c -1.648,3.151 -7.614,1.985 -9.12,5.28 5.602,-2.079 12.408,-2.952 18.24,-4.8 -4.06,-2.04 -6.01,1.34 -9.12,-0.48 z m 34.56,8.16 c 2.857,0.371 4.44,0.54 6.72,-0.48 v -2.4 c -2.21,0.99 -5.63,0.77 -6.72,2.88 z m -26.88,-1.92 c -0.279,1.931 1.42,-0.238 2.88,0.48 0.17,-2.04 -2.08,-0.42 -2.88,-0.48 z m -8.16,1.44 c 1.641,0.826 3.255,-0.809 4.8,0.48 -0.554,1.686 -2.8,1.68 -3.84,2.88 -1.461,-0.299 -2.454,-1.066 -2.4,-2.88 -5.521,2.703 -13.207,0.271 -17.28,4.32 6.707,-0.482 14.704,5.524 19.68,1.44 -2.738,0.178 -4.301,-0.819 -4.8,-2.88 2.533,1.138 4.89,0.332 7.199,0.96 0.511,1.79 -1.8,0.76 -1.439,2.4 2.792,-0.065 2.808,-0.609 6.24,-0.48 0.021,0.661 -0.227,1.054 -0.48,1.44 4.507,0.142 5.766,-0.528 9.12,-1.92 -1.475,-1.942 -3.893,-0.398 -4.8,0.96 -1.289,-1.803 -3.03,-2.346 -5.28,-0.96 -0.325,-1.115 -1.595,-1.285 -1.92,-2.4 0.907,0.107 1.059,-0.541 1.92,-0.48 v -3.36 c -2.35,-0.32 -5.05,-0.92 -6.72,0.48 z m 36.96,4.32 c 1.664,0.797 2.556,-0.417 4.319,0.48 -0.14,-1.43 -4.01,-2.14 -4.32,-0.48 z m 29.28,11.52 c 0.892,0.541 3.567,-0.341 5.761,0 0.15,0.649 0.683,0.917 0.479,1.92 1.383,-0.057 3.143,0.263 3.84,-0.479 0.19,-2.27 -0.153,-4.006 -0.479,-5.76 -3.44,1.2 -8.66,0.62 -9.6,4.32 z m 0,2.4 c -0.062,1.184 -0.072,2.312 0.48,2.88 2.356,-0.079 15.19,-0.911 3.84,-0.96 -0.421,-0.849 -1.521,-1.401 -0.479,-2.4 -1.38,0.06 -3.14,-0.26 -3.84,0.48 z m 6.24,12 h 3.36 c 0.23,-2.38 -2.98,-1.11 -3.36,0 z"
     id="path232"
     style="clip-rule:evenodd;fill-rule:evenodd" /><path
     fill="#ffffff"
     d="m 182.63796,94.548805 c -0.11,5.195 0.319,11.750005 -0.479,14.880005 -26.024,1.646 -52.121,1.703 -78.24,2.88 6.955,-5.205 15.224,-9.096 22.08,-14.400005 18.02,-0.851 38.98,-4.139 56.64,-3.36 z"
     id="path234"
     style="clip-rule:evenodd;fill-rule:evenodd" /><path
     d="m 17.517962,135.82881 c 8.34,0.62 14.67,3.25 22.56,4.32 0.251,2.332 -2.597,1.563 -3.84,2.4 0.348,1.732 3.657,0.503 4.8,1.44 0.061,0.861 -0.588,1.012 -0.48,1.92 24.758,16.453 59.593998,24.871 97.918998,26.88 20.295,1.063 41.522,-2.325 56.641,5.28 8.359,15.347 2.819,37.039 2.88,54.72 0.008,2.193 0.006,5.691 0.479,7.68 1.048,4.391 4.657,8.081 4.801,12.96 0.143,4.879 -2.248,8.294 -3.36,12.96 -3.091,-0.109 -3.281,-3.118 -4.8,-4.8 -2.596,4.325 0.115,10.876 0.479,15.36 5.233,2.787 13.256,0.624 19.2,0.479 -0.29,1.15 -0.69,2.19 -0.479,3.841 -1.833,0.247 -3.598,0.562 -4.32,1.92 2.73,1.59 7.906,0.733 10.56,2.399 -10.229,3.489 -27.502,5.4 -35.52,-1.439 -2.583,-0.183 -2.32,2.479 -4.8,2.399 -0.373,-0.427 -0.517,-1.084 -0.48,-1.92 -2.046,0.194 -4.944,-0.465 -6.24,0.48 -0.189,1.15 2.187,-0.267 1.44,1.439 -5.058,0.789 -9.16,1.598 -13.44,0.48 0.682,-4.278 3.071,-6.85 8.641,-6.24 -4.646,-5.997 0.218,-15.466 2.88,-20.16 -1.064,-1.187 -1.012,2.802 -3.36,1.92 0.916,-6.924 5.483,-10.196 8.641,-14.88 -1.237,-1.096 -2.716,0.477 -2.881,1.92 -3.674,-0.411 -6.905,-1.799 -8.64,-5.28 1.165,-2.416 2.245,0.363 4.32,-1.439 -0.603,1.461 -0.367,1.866 0.479,2.88 2.418,0.243 3.351,-1.011 3.84,0.96 1.985,-2.415 1.386,-6.282 -0.479,-8.16 0.958,-5.122 4.33,-7.829 5.76,-12.479 -1.577,-1.075 -2.762,2.342 -4.8,2.399 -0.049,-1.23 -1.789,-0.771 -2.4,-1.439 0.296,-2.904 0.743,-5.658 1.92,-7.68 1.582,0.018 3.396,-0.197 3.36,1.439 1.38,-1.021 3.936,-0.864 4.32,-2.88 -0.614,-2.658 -4.638,0.248 -4.32,-3.84 -1.393,0.367 -2.761,0.759 -3.36,1.92 -1.953,-1.247 -2.629,-3.771 -3.359,-6.24 5.825,-4.854 -1.761,-11.859 -0.96,-17.28 -1.333,-0.677 -2.796,0.242 -3.84,-1.439 v -6.24 c 2.61,0.909 3.511,3.529 4.319,6.24 2.185,1.016 4.526,1.873 5.28,4.319 0.355,2.115 -1.554,1.967 -1.92,3.36 0.613,0.581 3.04,-1.096 4.32,-1.439 1.231,0.048 0.771,1.788 1.439,2.399 1.652,-0.907 2.881,-2.239 2.4,-5.28 -2.384,-0.304 -1.587,2.573 -3.84,2.4 -2.725,-6.73 -10.048,-11.373 -12,-17.28 1.515,-0.234 1.694,0.865 3.359,0.48 1.062,-0.379 1.201,-1.679 1.92,-2.4 -0.731,-2.54 -3.894,-2.197 -5.76,-2.399 -7.194,-0.78 -16.546,0.66 -25.439,0 -3.351,2.25 -7.235,3.965 -8.16,8.64 5.105,0.522 6.475,7.156 3.84,11.52 -1.511,1.214 -2.342,-1.992 -4.32,-0.479 -0.977,0.463 -1.036,1.844 -0.96,3.36 2.57,0.271 5.484,3.162 5.76,7.199 -1.349,0.667 -2.76,1.27 -4.319,0.48 -1.808,1.241 -2.875,5.754 -5.28,4.8 -2.305,-0.788 -1.856,-3.519 -0.96,-5.28 -1.308,-1.52 -4.308,-0.913 -5.28,0.48 0.393,1.207 2.531,0.669 3.36,1.439 0.122,2.779 1.269,2.982 0.479,5.761 5.318,-0.531 9.343,-5.12 13.92,0 0.348,1.467 -0.49,1.749 -0.479,2.88 -3.79,0.91 -4.258,-1.502 -5.76,-2.88 0.634,2.885 2.35,4.689 4.319,6.24 0.537,-2.38 2.3,-0.553 3.841,0 1.644,-1.644 4.964,-4.22 7.68,-1.921 -0.155,4.805 -4.78,5.14 -7.68,7.2 -1.997,-0.762 -3.124,-3.056 -4.801,-0.479 -1.803,-0.437 -1.529,-2.951 -3.84,-2.88 -1.319,1.352 1.143,2.993 0.96,4.8 -1.478,1.882 -3.003,3.717 -6.72,3.359 -1.465,-1.095 -1.951,-3.169 -3.84,-3.84 0.237,4.002 3.393,8.375 7.2,8.641 6.438,0.448 12.715,-9.442 20.64,-9.12 5.081,0.206 13.976,5.576 9.6,13.439 -5.103,-1.122 -3.006,-7.576 -7.68,-8.16 -4.381,-0.547 -7.201,4.915 -10.56,7.681 -0.048,2.192 0.48,4.961 -1.44,5.28 5.032,4.933 12.273,7.513 21.12,6.239 -0.284,2.436 -2.989,2.451 -3.84,4.32 0.529,1.649 5.628,1.277 6.24,0 -0.393,-1.167 -2.531,0.951 -3.36,-0.48 0.057,-2.663 3.1,-2.34 3.84,-4.319 -0.277,-4.363 -4.725,-4.556 -4.32,-9.601 5.866,4.255 11.845,12.338 7.2,21.601 -0.896,0.939 -1.758,0.147 -2.88,0 -0.41,3.038 1.115,1.645 2.4,2.399 -1.746,6.574 -5.042,11.599 -8.16,16.801 -0.055,1.78 2.229,2.811 0.96,4.319 -2.019,0.418 -1.606,-1.594 -2.4,-2.399 -2.136,0.104 -2.143,2.337 -3.359,3.359 0.378,2.981 3.994,2.726 4.8,5.28 -5.157,0.222 -9.479,-4.605 -14.88,-5.76 -2.438,-0.521 -5.172,0.226 -7.681,-0.48 -2.128,-0.599 -3.586,-2.597 -5.76,-2.88 -10.526,-1.372 -23.39,1.425 -34.559998,0.96 -5.017,-0.209 -9.881,0.624 -14.4,0.48 -1.997,-0.063 -5.142,0.388 -6.24,-2.4 2.05,-2.909 7.852,-2.068 11.52,-3.36 -3.964,-1.818 -9.683,1.113 -12.96,0 -0.103,-3.462 2.287,-4.433 3.36,-6.72 -0.928,-7.314 -1.608,-14.918 -2.4,-21.12 -4.722,-2.158 -2.818,-10.941 -4.8,-15.84 -0.586,-0.693 -1.832,-0.728 -2.4,-1.44 0.743,-4.263 -1.99,-5.05 -1.92,-8.64 0.718,-1.332 1.963,0.833 2.4,-0.479 1.266,-1.735 -1.568,-2.689 -1.44,-4.801 -2.78,0.418 -1.484,2.766 -1.44,5.28 -1.879,0.279 -2.787,-0.413 -3.84,-0.96 -0.915,2.645 1.737,5.528 4.32,6.24 0.791,5.163 3.427,10.927 2.88,15.84 -2.971,-2.244 -2.34,-4.575 -3.36,-7.2 -1.413,-3.638 -4.184,-6.434 -6.24,-10.08 -1.982,-3.515 -2.815,-8.196 -5.28,-11.52 -4.301,-5.8 -7.974,-6.525 -8.64,-15.36 -0.14,-1.863 0.453,-4.337 0,-6.24 -1.242,-5.219 -7.096,-8.746 -11.04,-12 -7.771,2.679 -18.817,-2.602 -24.9600003,2.4 -2.186,-0.214 -3.566,-1.233 -5.28,-1.92 -1.217,-1.173 1.012,-1.022 0.48,-2.88 -1.115,-1.318 -2.726,0.838 -3.83999995,-0.48 2.16899995,-10.311 11.82300025,-13.137 12.96000025,-24.479 2.168,-1.992 4.345,-3.976 5.76,-6.72 -0.064,-2.336 -2.11,-2.69 -1.44,-5.76 0.803,-0.636 1.608,-1.271 3.36,-0.96 -0.435,-2.76 -3.784,-2.62 -3.84,-5.76 z m 0.48,19.2 c 3.457,-1.183 4.968,-4.312 7.2,-6.72 2.508,0.108 4.792,-0.008 6.72,-0.48 0.107,-0.373 0.013,-0.947 0.48,-0.96 -0.188,-3.492 -3.21,-4.149 -5.28,-5.76 -0.163,5.76 -7.285,8.28 -9.12,13.92 z m 4.8,2.88 c -0.232,-2.152 3.291,-0.55 2.88,-2.88 -1.73,-1.97 -4.209,3.39 -2.88,2.88 z m -15.3600003,14.88 c 2.3960001,-0.354 2.7200003,0.188 4.3200003,-0.96 -0.946,-0.379 -1.726,-1.679 -0.96,-2.4 1.812,0.429 3.814,0.667 3.36,3.36 -2.466,0.046 -2.16,2.121 -3.36,4.32 3.12,0.399 2.872,-2.569 5.76,-2.4 0.41,-4.39 3.391,-6.208 4.8,-9.6 -3.688,0.131 -1.717,-3.057 -1.92,-5.761 -7.606,0.87 -7.709,9.25 -12.0000003,13.44 z m 16.3200003,-12 c 1.121,0.35 4.097,1.312 3.84,-0.96 -1.559,0.04 -2.952,0.25 -3.84,0.96 z m 7.68,8.16 c 3.604,-1.196 5.993,-3.607 7.68,-6.72 -2.808,1.99 -5.961,3.64 -7.68,6.72 z m 53.28,18.72 c -0.115,-0.685 -0.79,-0.81 -0.96,-1.439 0.433,-2.447 1.391,-4.37 2.88,-5.761 2.036,-1.812 8.172,0.09 8.64,-4.319 -3.17,1.09 -2.19,-1.97 -3.84,-2.4 -1.217,1.022 -1.644,2.836 -3.36,3.36 -0.75,-0.69 -1.671,-1.21 -1.92,-2.4 0.276,-1.004 1.19,-1.37 0.96,-2.88 -0.698,-0.263 -2.481,0.561 -2.4,-0.48 -0.121,-1.721 1.441,-1.758 1.44,-3.359 -4.934,-0.357 -9.443,-3.543 -14.88,-4.8 -1.832,0.888 -2.484,2.955 -3.84,4.319 -4.426,-1.92 -6.126,3.038 -9.6,1.92 -0.455,-1.195 1.714,-2.896 -0.48,-2.88 -1.798,1.742 -4.089,5.289 -2.4,7.681 -0.994,3.317 -4.034,9.171 -2.4,12.96 1.167,-7.633 5.426,-12.175 10.08,-16.32 0.383,2.463 -1.011,3.149 -0.96,5.28 2.349,-0.212 1.921,-3.199 3.36,-4.32 8.203,4.736 -1.381,11.572 -1.44,19.2 2.018,0.61 4.013,-1.253 4.32,0.479 -1.009,1.711 -1.721,3.72 -1.44,6.721 4.148,0.651 3.232,6.368 5.76,8.64 0.386,-2.946 -0.989,-4.131 -1.44,-6.24 6.9,-5.013 6.718,6.178 8.16,11.04 -1.383,0.058 -3.142,-0.262 -3.84,0.48 -0.359,4.679 3.227,5.413 3.36,9.6 -1.742,0.25 -3.056,-0.109 -4.32,1.44 0.344,1.416 0.548,2.972 1.44,3.84 2.937,-1.736 3.566,1.479 5.76,1.92 0.311,-1.91 -1.27,-1.93 -0.96,-3.84 1.468,0.348 1.412,-0.828 2.88,-0.48 -0.016,-1.83 -1.994,-3.101 0,-4.32 1.762,-0.161 2.463,0.737 2.88,1.921 0.26,1.699 -1.7,1.18 -1.44,2.88 1.275,1.445 2.12,3.319 3.84,4.319 4.965,-1.158 6.625,3.086 11.519998,3.36 0.774,-0.665 1.52,-1.36 2.4,-1.92 0.789,0.972 1.605,1.915 3.36,1.92 1.746,-1.305 0.801,-4.7 -2.4,-3.84 -2.189,-2.611 -1.727,-7.873 -5.279998,-9.12 -1.27,1.51 1.014,2.54 0.96,4.32 -2.504,-0.104 -2.549,2.251 -5.28,1.92 -0.554,-2.646 -1.848,-4.553 -1.92,-7.681 -2.989,0.75 -3.151,-1.328 -2.88,-3.84 -2.718,-1.282 -5.021,-2.979 -4.8,-7.2 -1.565,0.125 -2.31,-0.569 -2.4,-1.92 0.351,-2.049 3.476,-1.324 5.76,-1.439 0.536,-2.824 1.234,-5.486 3.36,-6.72 -0.411,2.535 1.064,3.823 2.4,5.76 -0.047,1.936 -1.929,3.841 -0.48,5.76 1.531,0.411 1.484,-0.756 2.4,-0.96 0.337,-2.347 -3.273,-4.466 -0.48,-6.24 1.131,-0.011 1.414,0.827 2.88,0.48 -0.072,-2.488 -4.189,-0.932 -4.8,-2.88 -0.765,-2.775 2.121,-8.37 0.96,-11.521 -0.835,1.857 -2.435,5.062 -4.8,3.84 0.177,-2.485 0.362,-4.479 0,-5.76 -0.983,1.1 -3.03,1.13 -4.32,1.92 z m 94.559998,-8.64 c 0.003,-1.472 -2.105,-3.298 -3.36,-1.92 1.31,0.45 2.05,1.47 3.36,1.92 z m -49.92,13.92 c 1.759,0.158 2.667,-0.533 3.84,-0.96 0.256,-3.616 -3.774,-2.945 -4.8,-5.28 -1.78,2.51 1.45,3.49 0.96,6.24 z m -10.56,5.28 c -0.009,-1.431 0.045,-2.925 -1.44,-2.881 -0.02,1.46 0.44,2.44 1.44,2.88 z m -17.28,5.28 c 1.173,-2.301 1.782,-4.694 0.48,-7.2 h -1.44 c 1.72,2.27 0.89,5.1 0.96,7.2 z m 85.92,26.88 c -1.649,-14.491 8.36,-22.303 6.24,-34.08 -1.58,11.11 -10.87,21.48 -6.24,34.08 z m -82.08,-30.24 c 0.132,2.908 1.387,4.693 2.4,6.72 1.453,-0.146 1.715,-1.485 3.84,-0.96 -0.218,-2.299 2.164,-1.996 2.4,-3.84 1.895,-0.615 1.161,1.398 2.4,1.439 -0.46,-1.939 -1.041,-3.759 -2.4,-4.8 -1.286,1.114 -1.124,3.676 -3.36,3.84 -1.094,0.135 -1.805,-0.115 -1.92,-0.96 -0.002,-1.469 1.924,-3.479 0.48,-4.8 -1.74,0.66 -1.41,3.39 -3.84,3.36 z m 15.84,4.8 c -1.345,-1.375 -1.141,-4.299 -2.4,-5.76 0.4,2.96 -0.39,6.52 2.4,5.76 z m -6.24,8.16 c 1.459,0.02 3.159,0.279 2.88,-1.44 -1.904,-0.496 -2.957,-1.843 -4.32,-2.88 -0.77,1.12 0.8,3.11 1.44,4.32 z m 67.2,-0.48 c 0.936,-1.076 0.258,-3.45 -1.44,-3.359 0.06,1.54 -0.47,3.67 1.44,3.36 z m 10.56,32.16 c 2.514,-9.245 1.633,-19.603 1.92,-29.28 -2.25,7.63 -5.32,20.63 -1.92,29.28 z m -110.879998,12.96 c -0.907,-0.053 -0.333,-1.587 -1.44,-1.439 -0.365,4.205 0.599,7.081 0.48,11.04 2.58,-0.523 3.7,0.909 5.28,1.439 5.019,1.684 13.233,-0.802 20.159998,0.96 1.606,0.408 2.888,2.057 4.32,2.4 4.741,1.136 14.732,1.698 17.76,0 -13.085,-0.01 -24.939,-7.389 -35.999998,-4.8 -4.445,-1.553 -9.717,1.454 -9.6,-4.801 0.718,-0.082 1.771,0.172 1.92,-0.479 -0.448,-0.513 -1.771,-0.149 -1.44,-1.44 1.303,-0.297 3.81,0.609 4.32,-0.479 -0.567,-0.233 -1.088,-0.512 -1.44,-0.96 3.271,-1.392 6.985,0.606 11.04,0 -1.65,2.42 1.447,1.337 1.92,2.88 -0.354,0.766 -2.35,-0.109 -1.92,1.439 1.968,1.072 6.503998,-0.424 6.719998,2.4 5.26,-0.74 12.727,-4.124 18.24,-1.44 0.32,3.361 -5.135,0.946 -6.72,2.4 5.973,-0.015 21.277,1.709 26.88,-2.88 5.162,4.411 14.78,0.432 20.159,4.8 -4.872,2.168 -12.535,1.544 -17.279,3.84 4.578,1.182 10.174,1.347 15.359,1.92 1.405,-2.914 2.977,-5.664 4.32,-8.64 -2.047,-1.57 -2.182,-4.017 -0.479,-6.24 -1.826,0.706 -0.095,-2.146 -1.921,-1.439 -1.672,0.887 -1.358,3.761 -3.84,3.84 -0.581,-1.499 -1.164,-2.996 -1.92,-4.32 -2.33,-0.09 -1.51,2.97 -3.84,2.88 -1.797,-1.536 1.744,-4.282 -0.479,-4.8 -0.612,0.988 -0.766,2.435 -2.4,2.4 -3.356,-5.924 -10.724,-7.837 -13.44,-14.4 -18.888,1.212 -34.965,-2.597 -49.918998,-7.68 -2.6,6.2 -1.659,15.94 -4.801,21.6 z m 107.039998,20.64 c -1.486,1.579 -3.14,5.664 0,6.721 2.88,-6.49 4.68,-15.035 0.96,-21.601 -0.934,-4.932 3.834,-8.474 0.48,-11.52 h -0.96 c -2.56,8.88 1.24,16.34 -0.48,26.4 z m -8.16,-17.28 c -1.793,0.513 -1.368,-1.192 -2.88,-0.96 -2.452,3.947 -4.729,8.07 -5.76,13.439 4.513,0.955 10.57,0.694 13.92,0.48 -0.197,-4.963 0.753,-14.688 -3.84,-16.8 0.13,1.89 -0.18,3.34 -1.44,3.84 z m -94.559998,1.92 c 1.277,1.292 8.49,4.118 9.12,0 -2.068,0.524 -5.676,1.968 -6.72,-0.48 1.126,-0.473 2.358,-0.842 3.84,-0.96 -0.645,-2.97 -5.073,0.39 -6.24,1.44 z m -2.88,8.16 c 0.897,0.939 1.758,0.147 2.88,0 0.206,-2.32 -2.797,-1.39 -2.88,0 z m 99.839998,6.72 c -0.087,1.047 0.393,1.527 1.439,1.44 -0.35,-1.311 0.954,-0.967 0.96,-1.921 -1.11,-0.15 -1.84,0.08 -2.4,0.48 z"
     id="path236"
     style="clip-rule:evenodd;fill-rule:evenodd" /><path
     fill="#ffffff"
     d="m 86.637962,236.14881 c 14.954998,5.083 31.031998,8.892 49.918998,7.68 2.717,6.563 10.084,8.477 13.44,14.4 1.635,0.034 1.788,-1.412 2.4,-2.4 2.224,0.518 -1.317,3.264 0.479,4.8 2.33,0.09 1.51,-2.97 3.84,-2.88 0.756,1.324 1.339,2.821 1.92,4.32 2.481,-0.079 2.168,-2.953 3.84,-3.84 1.826,-0.706 0.095,2.146 1.921,1.439 -1.702,2.224 -1.567,4.67 0.479,6.24 -1.344,2.976 -2.915,5.726 -4.32,8.64 -5.186,-0.573 -10.781,-0.738 -15.359,-1.92 4.744,-2.296 12.407,-1.672 17.279,-3.84 -5.379,-4.368 -14.997,-0.389 -20.159,-4.8 -5.604,4.589 -20.908,2.865 -26.88,2.88 1.585,-1.454 7.041,0.961 6.72,-2.4 -5.514,-2.684 -12.98,0.7 -18.24,1.44 -0.216,-2.824 -4.751998,-1.328 -6.719998,-2.4 -0.43,-1.549 1.565,-0.674 1.92,-1.439 -0.473,-1.543 -3.57,-0.46 -1.92,-2.88 -4.055,0.606 -7.769,-1.392 -11.04,0 0.352,0.448 0.873,0.727 1.44,0.96 -0.511,1.089 -3.018,0.183 -4.32,0.479 -0.331,1.291 0.992,0.928 1.44,1.44 -0.148,0.651 -1.202,0.397 -1.92,0.479 -0.117,6.255 5.155,3.248 9.6,4.801 11.060998,-2.589 22.915998,4.79 35.999998,4.8 -3.028,1.698 -13.02,1.136 -17.76,0 -1.432,-0.344 -2.714,-1.992 -4.32,-2.4 -6.926998,-1.762 -15.140998,0.724 -20.159998,-0.96 -1.58,-0.53 -2.701,-1.963 -5.28,-1.439 0.119,-3.959 -0.845,-6.835 -0.48,-11.04 1.107,-0.147 0.533,1.387 1.44,1.439 3.142,-5.66 2.201,-15.4 4.8,-21.6 z m 22.559998,15.36 c 1.252,1.216 5.128,1.505 5.76,-0.479 -1.07,-0.6 -5.41,-1.16 -5.76,0.48 z m -17.279998,0.96 c 1.26,1.153 3.955,2.145 4.8,0 -1.246,-0.67 -3.896,-1.68 -4.8,0 z m 8.639998,1.92 c 1.246,1.141 4.019,2.208 4.32,-0.479 -1.28,-0.51 -3.69,-0.9 -4.32,0.48 z m -15.359998,2.4 c 0.775,1.217 5.68,1.781 5.76,-0.479 -0.61,-1.73 -4.79,-0.44 -5.76,0.48 z m 7.2,0 c 1.21,1.811 5.241,0.802 5.76,-0.96 -1.194,-0.6 -5.139,-0.54 -5.76,0.96 z m 10.079998,0.48 c 2.323,4.485 6.153,-1.316 10.56,0.479 -1.73,-3.48 -6.81,-0.43 -10.56,-0.48 z m -0.48,3.36 v 1.44 c 1.637,1.129 5.724,1.528 6.72,-0.48 -1.94,-0.46 -5.36,-1.46 -6.72,-0.96 z"
     id="path238"
     style="clip-rule:evenodd;fill-rule:evenodd" /></g></svg>
