<?xml version="1.0" encoding="UTF-8" standalone="no"?>
<!-- Created with Inkscape (http://www.inkscape.org/) -->
<svg xmlns:inkscape="http://www.inkscape.org/namespaces/inkscape" xmlns:rdf="http://www.w3.org/1999/02/22-rdf-syntax-ns#" xmlns="http://www.w3.org/2000/svg" xmlns:xlink="http://www.w3.org/1999/xlink" xmlns:ns1="http://sozi.baierouge.fr" xmlns:cc="http://creativecommons.org/ns#" xmlns:sodipodi="http://sodipodi.sourceforge.net/DTD/sodipodi-0.dtd" xmlns:dc="http://purl.org/dc/elements/1.1/" id="svg2" xml:space="preserve" viewBox="0 0 88.8 23.05" version="1.1" inkscape:version="0.91 r13725">
  <defs id="defs6">
    <linearGradient id="linearGradient24" y2="29.122" gradientUnits="userSpaceOnUse" x2="72.062" gradientTransform="matrix(.7972 -.06728 .27264 -.82584 -.080090 41.84)" y1="29.122" x1="-14.394">
      <stop id="stop26" style="stop-color:#abacb0" offset="0"/>
      <stop id="stop28" style="stop-color:#666669" offset="1"/>
    </linearGradient>
    <linearGradient id="linearGradient44" y2="34.195" gradientUnits="userSpaceOnUse" x2="76.242" gradientTransform="matrix(.79968 -.02384 .31312 -.80968 -.079879 41.84)" y1="34.195" x1="2.4595">
      <stop id="stop46" style="stop-color:#e6e7ed" offset="0"/>
      <stop id="stop48" style="stop-color:#666669" offset="1"/>
    </linearGradient>
    <linearGradient id="linearGradient62" y2="51.616" gradientUnits="userSpaceOnUse" x2="63.927" gradientTransform="matrix(.79864 .04632 .36984 -.77992 -.079990 41.84)" y1="51.616" x1="-12.075">
      <stop id="stop64" style="stop-color:#97989c" offset="0"/>
      <stop id="stop66" style="stop-color:#666669" offset="1"/>
    </linearGradient>
    <linearGradient id="linearGradient80" y2="-25.187" gradientUnits="userSpaceOnUse" x2="60.883" gradientTransform="matrix(.31144 -.73688 -.86624 -.00536 -.08027 41.84)" y1="-25.187" x1="47.72">
      <stop id="stop82" style="stop-color:#333336" offset="0"/>
      <stop id="stop84" style="stop-color:#3f4042" offset=".5176"/>
      <stop id="stop86" style="stop-color:#454647" offset="1"/>
    </linearGradient>
    <linearGradient id="linearGradient100" y2="-22.873" gradientUnits="userSpaceOnUse" x2="52.38" gradientTransform="matrix(.29712 -.7428 -.8668 .01296 -.080263 41.84)" y1="-22.873" x1="39.86">
      <stop id="stop102" style="stop-color:#343436" offset="0"/>
      <stop id="stop104" style="stop-color:#404042" offset=".12550"/>
      <stop id="stop106" style="stop-color:#505153" offset=".35690"/>
      <stop id="stop108" style="stop-color:#565759" offset=".53330"/>
      <stop id="stop110" style="stop-color:#535456" offset="0.702"/>
      <stop id="stop112" style="stop-color:#4a4a4c" offset=".83140"/>
      <stop id="stop114" style="stop-color:#3a3a3c" offset=".94120"/>
      <stop id="stop116" style="stop-color:#343436" offset=".97650"/>
      <stop id="stop118" style="stop-color:#343436" offset="1"/>
    </linearGradient>
    <linearGradient id="linearGradient134" y2="2.4033" gradientUnits="userSpaceOnUse" x2="52.652" gradientTransform="matrix(.15704 -.7844 -.7684 -.23712 -.080020 41.84)" y1="2.4033" x1="30.878">
      <stop id="stop136" style="stop-color:#77787a" offset="0"/>
      <stop id="stop138" style="stop-color:#575759" offset="1"/>
    </linearGradient>
    <linearGradient id="linearGradient152" y2="38.609" gradientUnits="userSpaceOnUse" x2="-3.2038" gradientTransform="matrix(.73872 .30696 .18888 -.78784 -.079922 41.84)" y1="38.609" x1="-11.217">
      <stop id="stop154" style="stop-color:#e6e7ed" offset="0"/>
      <stop id="stop156" style="stop-color:#a6a6ab" offset="1"/>
    </linearGradient>
    <linearGradient id="linearGradient172" y2="42.344" gradientUnits="userSpaceOnUse" x2="9.8251" gradientTransform="matrix(.78704 -.14328 .00456 -.814 -.079907 41.84)" y1="42.344" x1="-1.7622">
      <stop id="stop174" style="stop-color:#abacb0" offset="0"/>
      <stop id="stop176" style="stop-color:#666669" offset="1"/>
    </linearGradient>
    <radialGradient id="radialGradient190" gradientUnits="userSpaceOnUse" cy="4.1226" cx="31.597" gradientTransform="matrix(.29712 -.7428 .99536 .31936 -7.3315 39.513)" r="1.3463">
      <stop id="stop192" style="stop-color:#c4c5c9" offset="0"/>
      <stop id="stop194" style="stop-color:#666669" offset="1"/>
    </radialGradient>
    <radialGradient id="radialGradient212" gradientUnits="userSpaceOnUse" cy="-1.9312" cx="37.849" gradientTransform="matrix(.29712 -.7428 .99536 .31936 3.3166 42.93)" r="1.3463">
      <stop id="stop214" style="stop-color:#c4c5c9" offset="0"/>
      <stop id="stop216" style="stop-color:#666669" offset="1"/>
    </radialGradient>
    <radialGradient id="radialGradient230" gradientUnits="userSpaceOnUse" cy="-8.9507" cx="35.694" gradientTransform="matrix(.29712 -.7428 .99536 .31936 15.663 46.892)" r="1.3463">
      <stop id="stop232" style="stop-color:#c4c5c9" offset="0"/>
      <stop id="stop234" style="stop-color:#666669" offset="1"/>
    </radialGradient>
    <radialGradient id="radialGradient252" gradientUnits="userSpaceOnUse" cy="-14.911" cx="41.915" gradientTransform="matrix(.29712 -.7428 .99536 .31936 26.147 50.257)" r="1.3463">
      <stop id="stop254" style="stop-color:#c4c5c9" offset="0"/>
      <stop id="stop256" style="stop-color:#666669" offset="1"/>
    </radialGradient>
    <radialGradient id="radialGradient270" gradientUnits="userSpaceOnUse" cy="-20.928" cx="39.376" gradientTransform="matrix(.29712 -.7428 .99536 .31936 36.73 53.653)" r="1.3463">
      <stop id="stop272" style="stop-color:#c4c5c9" offset="0"/>
      <stop id="stop274" style="stop-color:#666669" offset="1"/>
    </radialGradient>
    <radialGradient id="radialGradient290" gradientUnits="userSpaceOnUse" cy="-26.879" cx="45.486" gradientTransform="matrix(.29712 -.7428 .99536 .31936 47.199 57.012)" r="1.3463">
      <stop id="stop292" style="stop-color:#c4c5c9" offset="0"/>
      <stop id="stop294" style="stop-color:#666669" offset="1"/>
    </radialGradient>
    <radialGradient id="radialGradient310" gradientUnits="userSpaceOnUse" cy="-33.992" cx="43.363" gradientTransform="matrix(.29712 -.7428 .99536 .31936 59.709 61.026)" r="1.3463">
      <stop id="stop312" style="stop-color:#c4c5c9" offset="0"/>
      <stop id="stop314" style="stop-color:#666669" offset="1"/>
    </radialGradient>
    <radialGradient id="radialGradient330" gradientUnits="userSpaceOnUse" cy="-39.961" cx="49.425" gradientTransform="matrix(.29712 -.7428 .99536 .31936 70.21 64.396)" r="1.3463">
      <stop id="stop332" style="stop-color:#c4c5c9" offset="0"/>
      <stop id="stop334" style="stop-color:#666669" offset="1"/>
    </radialGradient>
    <radialGradient id="radialGradient350" gradientUnits="userSpaceOnUse" cy="-46.294" cx="47.152" gradientTransform="matrix(.29712 -.7428 .99536 .31936 81.344 67.97)" r="1.3463">
      <stop id="stop352" style="stop-color:#c4c5c9" offset="0"/>
      <stop id="stop354" style="stop-color:#666669" offset="1"/>
    </radialGradient>
    <radialGradient id="radialGradient372" gradientUnits="userSpaceOnUse" cy="-52.264" cx="53.215" gradientTransform="matrix(.29712 -.7428 .99536 .31936 91.848 71.34)" r="1.3463">
      <stop id="stop374" style="stop-color:#c4c5c9" offset="0"/>
      <stop id="stop376" style="stop-color:#666669" offset="1"/>
    </radialGradient>
    <radialGradient id="radialGradient390" gradientUnits="userSpaceOnUse" cy="-57.343" cx="50.528" gradientTransform="matrix(.29712 -.7428 .99536 .31936 100.78 74.206)" r="1.3463">
      <stop id="stop392" style="stop-color:#c4c5c9" offset="0"/>
      <stop id="stop394" style="stop-color:#666669" offset="1"/>
    </radialGradient>
    <radialGradient id="radialGradient412" gradientUnits="userSpaceOnUse" cy="-64.724" cx="57.002" gradientTransform="matrix(.29712 -.7428 .99536 .31936 113.77 78.373)" r="1.3463">
      <stop id="stop414" style="stop-color:#c4c5c9" offset="0"/>
      <stop id="stop416" style="stop-color:#666669" offset="1"/>
    </radialGradient>
  </defs>
  <g id="g10" transform="matrix(1.25 0 0 -1.25 0 23.05)">
    <g id="g12">
      <g id="g14">
        <g id="g16">
          <g id="g22">
            <path id="path30" style="fill-rule:evenodd;fill:url(#linearGradient24)" d="m70.52 14.401-61.2-1.641c-0.054 0.028-0.121 0.067-0.199 0.118-0.082 0.027-0.133 0.054-0.16 0.082-0.027 0.027-0.055 0.039-0.082 0.039-1.277 0.75-2.801 1.519-4.559 2.32l-3.558 1.641 57.957 1.441 7.043-2.441c0.183-0.028 0.332-0.067 0.437-0.122l4.199-1.32c0.055 0 0.094-0.039 0.122-0.117z" inkscape:connector-curvature="0"/>
          </g>
        </g>
      </g>
      <path id="path32" style="fill-rule:evenodd;fill:#5b5c5e" d="m60 12.401c-8.668-0.215-16.852-0.469-24.559-0.762-15.496-0.371-24.199-0.586-26.121-0.64 0.082 0.293 0.133 0.546 0.16 0.761 0.028 0.16 0.04 0.293 0.04 0.399 1.308 0.133 3.027 0.203 5.16 0.203 2.16 0.078 4.199 0.133 6.121 0.156 1.972 0.11 3.801 0.176 5.48 0.199 1.68 0.11 3.824 0.203 6.438 0.282 1.894 0.082 3.84 0.187 5.84 0.32 2.214 0.082 4.546 0.121 7 0.121 2.429 0.027 4.629 0.066 6.601 0.121 1.973 0.133 3.985 0.199 6.039 0.199 2.028 0.051 4.188 0.09 6.481 0.118 2.054 0.109 4.066 0.175 6.043 0.199 0.105-0.239 0.156-0.426 0.156-0.559v-0.078c-0.024-0.137-0.133-0.309-0.317-0.523-0.132-0.133-0.269-0.2-0.402-0.2-3.519-0.05-6.906-0.156-10.16-0.316zm-50.68-10.68 61.602 1.758c0.078-0.16 0.117-0.348 0.117-0.559-0.027-0.187-0.144-0.375-0.359-0.558l-61.52-2.359c0 0.023 0.028 0.05 0.078 0.078 0.188 0.105 0.282 0.293 0.282 0.558 0.054 0.453-0.012 0.813-0.2 1.082z" inkscape:connector-curvature="0"/>
      <g id="g34">
        <g id="g36">
          <g id="g42">
            <path id="path50" style="fill-rule:evenodd;fill:url(#linearGradient44)" d="m9.52 12.159h-0.36c0.055 0.16 0.106 0.269 0.16 0.32-0.027 0.16-0.027 0.238 0 0.238v0.043l61.2 1.641 0.199-0.32c-1.973-0.028-3.985-0.094-6.039-0.2-2.293-0.027-4.453-0.066-6.481-0.121-2.054 0-4.066-0.066-6.039-0.199-1.972-0.055-4.176-0.094-6.601-0.121-2.454 0-4.786-0.039-7-0.121-2-0.133-3.946-0.238-5.84-0.316-2.614-0.083-4.758-0.176-6.442-0.282-1.679-0.027-3.504-0.093-5.476-0.199-1.922-0.027-3.961-0.082-6.121-0.16-2.133 0-3.852-0.07-5.16-0.203z" inkscape:connector-curvature="0"/>
          </g>
        </g>
      </g>
      <g id="g52">
        <g id="g54">
          <g id="g60">
            <path id="path68" style="fill-rule:evenodd;fill:url(#linearGradient62)" d="m70.922 3.479-61.602-1.758c-0.105 0.184-0.215 0.321-0.32 0.399l60.719 1.84h0.32l0.281-0.079c0.266-0.054 0.465-0.187 0.602-0.402z" inkscape:connector-curvature="0"/>
          </g>
        </g>
      </g>
      <g id="g70">
        <g id="g72">
          <g id="g78">
            <path id="path88" style="fill-rule:evenodd;fill:url(#linearGradient80)" d="m69.719 3.96-60.719-1.84c-0.16 0.187-0.359 0.32-0.602 0.398-0.343 0.215-0.679 0.402-1 0.563-0.238 0.183-0.476 0.347-0.718 0.48-0.188 0.188-0.305 0.32-0.36 0.399-0.32 0.214-0.586 0.507-0.8 0.878-0.106 0.27-0.172 0.575-0.2 0.922v0.36l55.399 1.441 0.562-0.281h-0.043l8.481-3.32z" inkscape:connector-curvature="0"/>
          </g>
        </g>
      </g>
      <g id="g90">
        <g id="g92">
          <g id="g98">
            <path id="path120" style="fill-rule:evenodd;fill:url(#linearGradient100)" d="m8.922 10.639 0.078-0.039h0.078l0.043 0.039c0.024 0.11 0.094 0.227 0.199 0.36 1.918 0.054 10.625 0.269 26.121 0.64 7.704 0.293 15.891 0.547 24.559 0.762l-0.078-1.039c-0.137-1.551-0.094-2.484 0.117-2.801 0.133-0.453 0.469-0.844 1-1.16l-0.32 0.16-55.399-1.441c-0.105 0.746-0.132 1.254-0.082 1.519-0.023 2.348-0.023 3.586 0 3.723 0 0.183 0.137 0.426 0.403 0.719l0.398 0.039c1.602-0.801 2.441-1.266 2.52-1.403 0.082-0.023 0.203-0.05 0.363-0.078z" inkscape:connector-curvature="0"/>
          </g>
        </g>
      </g>
      <path id="path122" style="fill-rule:evenodd;fill:#e6e7ed" d="m9.32 10.999c-0.105-0.133-0.175-0.25-0.199-0.36l-0.043-0.039h-0.078l-0.078 0.039v0.039c0 0.11 0.023 0.215 0.078 0.321v0.121c0 0.187 0.027 0.359 0.078 0.519-0.051 0.321-0.09 0.547-0.117 0.68l-0.32 0.398-7.961 4.203 0.082 0.04 3.558-1.641 2.121-1.117c0.774-0.27 1.454-0.614 2.039-1.039v-0.082l0.282-0.039c0.027 0 0.066-0.016 0.117-0.043 0.027 0 0.055-0.012 0.082-0.039 0.027-0.028 0.078-0.055 0.16-0.082 0.078-0.051 0.145-0.09 0.199-0.118v-0.039c-0.027 0-0.027-0.082 0-0.242-0.054-0.051-0.105-0.16-0.16-0.316v-0.043c-0.055-0.106 0-0.16 0.16-0.16 0 0.027 0.039 0.027 0.121 0 0 0.054 0.012 0.054 0.039 0v-0.2c-0.027-0.215-0.082-0.468-0.16-0.761z" inkscape:connector-curvature="0"/>
      <g id="g124">
        <g id="g126">
          <g id="g132">
            <path id="path140" style="fill-rule:evenodd;fill:url(#linearGradient134)" d="m5.641 12.081-0.602-0.563 0.082-3.558c0-0.532 0.012-1.145 0.039-1.84-0.023-0.075-0.039-0.149-0.039-0.219v0.18l-0.082-0.442c0.082-0.851 0.414-1.508 1-1.961l2.563-1.84c0.05-0.05 0.078-0.105 0.078-0.16 0.082-0.05 0.172-0.133 0.281-0.238 0.105-0.078 0.16-0.238 0.16-0.48-0.027-0.161-0.066-0.321-0.121-0.481-0.133-0.16-0.32-0.266-0.559-0.32-0.027 0-0.066-0.012-0.121-0.039l-8 5.64c-0.215 0.239-0.32 0.399-0.32 0.481l0.039 0.961c0.027 0.051 0.066 0.105 0.121 0.16v0.039h0.36l2.402-1.762c0.316-0.105 0.558 0.16 0.719 0.801v0.16c0.105 3.012 0.121 4.879 0.039 5.602-0.028 0.531-0.149 0.984-0.36 1.359-0.132 0.106-0.254 0.172-0.359 0.199-0.856 0.481-1.602 0.957-2.242 1.442-0.051 0.133-0.16 0.211-0.321 0.238-0.105 0.188-0.171 0.348-0.199 0.48v0.083c0 0.316 0.16 0.625 0.481 0.917l7.961-4.199 0.32-0.402c0.027-0.133 0.066-0.359 0.117-0.68-0.051-0.16-0.078-0.332-0.078-0.519v-0.117c-0.055-0.11-0.078-0.215-0.078-0.321v-0.043c-0.16 0.028-0.281 0.055-0.363 0.082-0.079 0.133-0.918 0.598-2.52 1.399l-0.398-0.039z" inkscape:connector-curvature="0"/>
          </g>
        </g>
      </g>
      <g id="g142">
        <g id="g144">
          <g id="g150">
            <path id="path158" style="fill-rule:evenodd;fill:url(#linearGradient152)" d="m0.68 7.639c0.132-0.051 0.425-0.293 0.879-0.719 0.722-0.507 1.203-0.812 1.441-0.917 0.215-0.055 0.375 0.066 0.48 0.359 0 0.371 0.012 0.785 0.04 1.238v1.641c0.054 2.265 0.054 3.426 0 3.48-0.133 0.293-0.2 0.508-0.2 0.641-0.054 0.133-0.175 0.266-0.359 0.398 0.105-0.027 0.227-0.093 0.359-0.199 0.215-0.375 0.332-0.828 0.36-1.359 0.082-0.719 0.066-2.586-0.039-5.602v-0.16c-0.161-0.637-0.403-0.906-0.719-0.797l-2.402 1.758h-0.321c0.028 0.105 0.067 0.187 0.121 0.242 0 0.024 0.055 0.039 0.16 0.039 0.028 0.106 0.094 0.09 0.2-0.043z" inkscape:connector-curvature="0"/>
          </g>
        </g>
      </g>
      <path id="path160" style="fill-rule:evenodd;fill:#95969a" d="m9 2.12c0.105-0.078 0.215-0.215 0.32-0.399 0.188-0.269 0.254-0.629 0.2-1.082 0-0.265-0.094-0.453-0.282-0.558-0.109-0.055-0.269-0.082-0.476-0.082l-0.16 0.082h-0.043l-0.118 0.078c0.239 0.054 0.426 0.16 0.559 0.32 0.055 0.16 0.094 0.32 0.121 0.481 0 0.242-0.055 0.402-0.16 0.48-0.106 0.105-0.199 0.188-0.281 0.238 0 0.055-0.028 0.11-0.078 0.16l-2.563 1.84c-0.586 0.453-0.918 1.11-1 1.961l0.082 0.442v-0.18c0 0.07 0.016 0.144 0.039 0.219-0.027 0.695-0.039 1.308-0.039 1.84l-0.082 3.558 0.602 0.563c-0.266-0.293-0.403-0.536-0.403-0.719-0.023-0.133-0.023-1.375 0-3.723-0.05-0.265-0.023-0.773 0.082-1.519v-0.36c0.028-0.347 0.094-0.652 0.2-0.918 0.214-0.375 0.48-0.668 0.8-0.879 0.055-0.082 0.172-0.214 0.36-0.402 0.242-0.133 0.48-0.293 0.718-0.48 0.321-0.161 0.657-0.348 1-0.559 0.243-0.082 0.442-0.215 0.602-0.402z" inkscape:connector-curvature="0"/>
      <g id="g162">
        <g id="g164">
          <g id="g170">
            <path id="path178" style="fill-rule:evenodd;fill:url(#linearGradient172)" d="m3.52 7.6c-0.028-0.453-0.04-0.867-0.04-1.238-0.105-0.297-0.265-0.414-0.48-0.363-0.238 0.109-0.719 0.414-1.441 0.921-0.454 0.426-0.747 0.665-0.879 0.719l2.84-0.039z" inkscape:connector-curvature="0"/>
          </g>
        </g>
      </g>
      <g id="g180">
        <g id="g182">
          <g id="g188">
            <path id="path196" style="fill-rule:evenodd;fill:url(#radialGradient190)" d="m7.281 17.042v-0.122c0-0.16-0.121-0.308-0.359-0.441-0.242-0.078-0.524-0.117-0.844-0.117-0.344 0-0.598 0.039-0.758 0.117-0.054 0.055-0.093 0.082-0.121 0.082-0.211 0.106-0.293 0.227-0.238 0.359 0 0.079 0.051 0.133 0.16 0.161 0.051 0.105 0.133 0.172 0.238 0.199 0.188 0.082 0.414 0.121 0.68 0.121h0.121c0.028 0.023 0.055 0.039 0.078 0.039h0.082c0.293 0 0.535-0.055 0.719-0.16 0.133-0.078 0.215-0.16 0.242-0.238z" inkscape:connector-curvature="0"/>
          </g>
        </g>
      </g>
      <path id="path198" style="fill-rule:evenodd;fill:#525355" d="m7.281 17.042c0.211-0.082 0.321-0.204 0.321-0.364-0.028-0.16-0.188-0.277-0.481-0.359-0.187-0.133-0.453-0.199-0.801-0.199-0.347 0-0.625 0.066-0.84 0.199-0.16 0.055-0.253 0.133-0.281 0.242 0.028 0 0.067-0.027 0.121-0.082 0.16-0.078 0.414-0.117 0.758-0.117 0.32 0 0.602 0.039 0.844 0.117 0.238 0.133 0.359 0.281 0.359 0.441v0.122z" inkscape:connector-curvature="0"/>
      <path id="path200" style="fill-rule:evenodd;fill:#525355" d="m11.719 13.362c0.027 0 0.066-0.016 0.121-0.043 0.187-0.078 0.441-0.117 0.762-0.117 0.343 0 0.625 0.039 0.839 0.117 0.266 0.133 0.399 0.266 0.399 0.398v0.161c0.187-0.106 0.281-0.227 0.281-0.36-0.027-0.156-0.16-0.277-0.402-0.359-0.266-0.133-0.574-0.199-0.918-0.199-0.293 0-0.563 0.066-0.801 0.199-0.16 0.054-0.254 0.121-0.281 0.203z" inkscape:connector-curvature="0"/>
      <g id="g202">
        <g id="g204">
          <g id="g210">
            <path id="path218" style="fill-rule:evenodd;fill:url(#radialGradient212)" d="m11.719 13.362c-0.16 0.133-0.227 0.25-0.199 0.355 0 0.11 0.054 0.176 0.16 0.203 0.027 0.079 0.093 0.133 0.199 0.161 0.215 0.105 0.441 0.16 0.68 0.16h0.082c0.054 0.023 0.093 0.039 0.121 0.039h0.039c0.32 0 0.574-0.067 0.758-0.199 0.16-0.055 0.253-0.121 0.281-0.203v-0.161c0-0.132-0.133-0.265-0.399-0.398-0.214-0.078-0.496-0.117-0.839-0.117-0.321 0-0.575 0.039-0.762 0.117-0.055 0.027-0.094 0.043-0.121 0.043z" inkscape:connector-curvature="0"/>
          </g>
        </g>
      </g>
      <g id="g220">
        <g id="g222">
          <g id="g228">
            <path id="path236" style="fill-rule:evenodd;fill:url(#radialGradient230)" d="m18.559 17.241v-0.16c0-0.161-0.145-0.293-0.438-0.403-0.215-0.078-0.496-0.117-0.84-0.117-0.293 0-0.547 0.039-0.761 0.117-0.028 0.028-0.067 0.043-0.122 0.043-0.16 0.133-0.226 0.254-0.199 0.36 0 0.105 0.055 0.172 0.16 0.199 0.028 0.082 0.094 0.133 0.2 0.16 0.214 0.105 0.441 0.16 0.679 0.16h0.121c0.028 0.028 0.055 0.039 0.082 0.039h0.118c0.269 0 0.496-0.066 0.679-0.199 0.16-0.055 0.27-0.121 0.321-0.199z" inkscape:connector-curvature="0"/>
          </g>
        </g>
      </g>
      <path id="path238" style="fill-rule:evenodd;fill:#525355" d="m18.559 17.241c0.16-0.11 0.242-0.242 0.242-0.403-0.028-0.132-0.16-0.25-0.403-0.359-0.238-0.105-0.519-0.16-0.839-0.16-0.344 0-0.637 0.055-0.879 0.16-0.133 0.082-0.227 0.16-0.282 0.242 0.055 0 0.094-0.015 0.122-0.043 0.214-0.078 0.468-0.117 0.761-0.117 0.344 0 0.625 0.039 0.84 0.117 0.293 0.11 0.438 0.242 0.438 0.403v0.16z" inkscape:connector-curvature="0"/>
      <path id="path240" style="fill-rule:evenodd;fill:#525355" d="m24.922 14.042c0.156-0.082 0.238-0.204 0.238-0.364-0.027-0.133-0.16-0.25-0.398-0.359-0.242-0.106-0.524-0.156-0.84-0.156-0.348 0-0.629 0.05-0.844 0.156-0.156 0.055-0.266 0.133-0.316 0.242 0.05 0 0.093-0.016 0.117-0.043 0.215-0.105 0.469-0.156 0.762-0.156 0.347 0 0.652 0.051 0.918 0.156 0.242 0.11 0.363 0.242 0.363 0.402v0.122z" inkscape:connector-curvature="0"/>
      <g id="g242">
        <g id="g244">
          <g id="g250">
            <path id="path258" style="fill-rule:evenodd;fill:url(#radialGradient252)" d="m22.762 13.561c-0.16 0.106-0.227 0.227-0.203 0.359 0 0.079 0.054 0.133 0.16 0.161 0.027 0.105 0.109 0.172 0.242 0.199 0.184 0.082 0.398 0.121 0.641 0.121h0.16c0.027 0.023 0.066 0.039 0.117 0.039h0.043c0.266 0 0.504-0.055 0.719-0.16 0.132-0.055 0.226-0.133 0.281-0.242v-0.118c0-0.16-0.121-0.292-0.363-0.402-0.266-0.105-0.571-0.156-0.918-0.156-0.293 0-0.547 0.051-0.762 0.156-0.024 0.027-0.067 0.043-0.117 0.043z" inkscape:connector-curvature="0"/>
          </g>
        </g>
      </g>
      <g id="g260">
        <g id="g262">
          <g id="g268">
            <path id="path276" style="fill-rule:evenodd;fill:url(#radialGradient270)" d="m26.641 16.92c-0.188 0.106-0.266 0.227-0.243 0.36 0 0.082 0.055 0.133 0.161 0.16 0.054 0.105 0.148 0.172 0.281 0.199 0.16 0.082 0.375 0.121 0.64 0.121h0.122c0.05 0.028 0.093 0.039 0.117 0.039h0.043c0.293 0 0.547-0.05 0.758-0.16 0.132-0.078 0.214-0.16 0.242-0.238v-0.121c0-0.16-0.121-0.305-0.364-0.442-0.238-0.078-0.531-0.117-0.878-0.117-0.321 0-0.586 0.039-0.801 0.117-0.024 0.055-0.051 0.082-0.078 0.082z" inkscape:connector-curvature="0"/>
          </g>
        </g>
      </g>
      <path id="path278" style="fill-rule:evenodd;fill:#525355" d="m28.762 17.401c0.183-0.082 0.277-0.199 0.277-0.359-0.051-0.161-0.199-0.282-0.437-0.364-0.243-0.133-0.524-0.199-0.84-0.199-0.348 0-0.617 0.066-0.801 0.199-0.188 0.055-0.293 0.137-0.32 0.242 0.027 0 0.054-0.027 0.078-0.082 0.215-0.078 0.48-0.117 0.801-0.117 0.347 0 0.64 0.039 0.878 0.117 0.243 0.137 0.364 0.282 0.364 0.442v0.121z" inkscape:connector-curvature="0"/>
      <g id="g280">
        <g id="g282">
          <g id="g288">
            <path id="path296" style="fill-rule:evenodd;fill:url(#radialGradient290)" d="m35.121 14.319v-0.117c0-0.16-0.121-0.293-0.359-0.403-0.242-0.105-0.524-0.16-0.84-0.16-0.348 0-0.602 0.055-0.762 0.16-0.055 0.028-0.094 0.039-0.121 0.039-0.211 0.11-0.305 0.227-0.277 0.364 0 0.078 0.078 0.133 0.238 0.16 0.027 0.105 0.094 0.172 0.199 0.199 0.16 0.078 0.387 0.117 0.68 0.117h0.082c0.051 0.028 0.094 0.039 0.117 0.039h0.043c0.32 0 0.574-0.05 0.758-0.156 0.133-0.082 0.215-0.16 0.242-0.242z" inkscape:connector-curvature="0"/>
          </g>
        </g>
      </g>
      <path id="path298" style="fill-rule:evenodd;fill:#525355" d="m35.121 14.319c0.211-0.078 0.32-0.199 0.32-0.359-0.027-0.161-0.187-0.282-0.48-0.36-0.215-0.133-0.496-0.199-0.84-0.199-0.348 0-0.629 0.066-0.844 0.199-0.132 0.055-0.211 0.133-0.238 0.242 0.027 0 0.066-0.015 0.121-0.043 0.16-0.105 0.414-0.16 0.758-0.16 0.32 0 0.602 0.055 0.84 0.16 0.242 0.11 0.363 0.243 0.363 0.403v0.117z" inkscape:connector-curvature="0"/>
      <g id="g300">
        <g id="g302">
          <g id="g308">
            <path id="path316" style="fill-rule:evenodd;fill:url(#radialGradient310)" d="m39.961 17.639v-0.16c0-0.133-0.133-0.266-0.402-0.398-0.211-0.082-0.493-0.121-0.84-0.121-0.348 0-0.614 0.043-0.797 0.121-0.027 0.027-0.055 0.039-0.082 0.039-0.215 0.133-0.281 0.254-0.199 0.359 0 0.109 0.05 0.176 0.16 0.199 0.027 0.082 0.094 0.137 0.199 0.16 0.16 0.11 0.387 0.161 0.68 0.161h0.082c0.05 0.027 0.093 0.043 0.117 0.043h0.043c0.316 0 0.558-0.067 0.719-0.204 0.16-0.05 0.265-0.117 0.32-0.199z" inkscape:connector-curvature="0"/>
          </g>
        </g>
      </g>
      <path id="path318" style="fill-rule:evenodd;fill:#525355" d="m39.961 17.639c0.184-0.105 0.281-0.226 0.281-0.359-0.054-0.16-0.215-0.281-0.48-0.36-0.215-0.132-0.496-0.199-0.84-0.199-0.32 0-0.602 0.067-0.844 0.199-0.133 0.055-0.211 0.122-0.238 0.2 0.027 0 0.055-0.012 0.082-0.039 0.183-0.082 0.449-0.121 0.797-0.121 0.347 0 0.629 0.043 0.84 0.121 0.269 0.132 0.402 0.265 0.402 0.398v0.16z" inkscape:connector-curvature="0"/>
      <g id="g320">
        <g id="g322">
          <g id="g328">
            <path id="path336" style="fill-rule:evenodd;fill:url(#radialGradient330)" d="m46.32 14.6v-0.16c0-0.133-0.132-0.266-0.398-0.398-0.215-0.082-0.496-0.122-0.844-0.122-0.316 0-0.586 0.04-0.797 0.122-0.027 0.023-0.054 0.039-0.082 0.039-0.187 0.132-0.254 0.254-0.199 0.359 0 0.105 0.039 0.172 0.121 0.199 0.051 0.082 0.133 0.149 0.238 0.199 0.215 0.082 0.442 0.122 0.68 0.122h0.082c0.051 0.027 0.09 0.039 0.117 0.039h0.082c0.293 0 0.52-0.051 0.68-0.161 0.188-0.078 0.293-0.16 0.32-0.238z" inkscape:connector-curvature="0"/>
          </g>
        </g>
      </g>
      <path id="path338" style="fill-rule:evenodd;fill:#525355" d="m46.32 14.6c0.188-0.105 0.282-0.226 0.282-0.359-0.055-0.16-0.204-0.281-0.442-0.36-0.238-0.132-0.519-0.203-0.84-0.203-0.347 0-0.64 0.071-0.879 0.203-0.136 0.051-0.214 0.118-0.242 0.2 0.028 0 0.055-0.016 0.082-0.039 0.211-0.082 0.481-0.122 0.797-0.122 0.348 0 0.629 0.04 0.844 0.122 0.266 0.132 0.398 0.265 0.398 0.398v0.16z" inkscape:connector-curvature="0"/>
      <g id="g340">
        <g id="g342">
          <g id="g348">
            <path id="path356" style="fill-rule:evenodd;fill:url(#radialGradient350)" d="m48.32 17.362c-0.187 0.105-0.254 0.223-0.199 0.355 0 0.082 0.039 0.137 0.117 0.161 0.055 0.109 0.149 0.175 0.282 0.203 0.16 0.078 0.386 0.117 0.679 0.117h0.082c0.051 0.055 0.09 0.082 0.117 0.082h0.043c0.293 0 0.547-0.067 0.758-0.199 0.133-0.055 0.215-0.133 0.242-0.243v-0.121c0-0.156-0.121-0.289-0.363-0.398-0.238-0.106-0.519-0.16-0.84-0.16-0.343 0-0.597 0.054-0.758 0.16-0.082 0.027-0.132 0.043-0.16 0.043z" inkscape:connector-curvature="0"/>
          </g>
        </g>
      </g>
      <path id="path358" style="fill-rule:evenodd;fill:#525355" d="m50.441 17.838c0.211-0.078 0.317-0.199 0.317-0.359-0.078-0.133-0.238-0.25-0.481-0.359-0.211-0.106-0.492-0.16-0.839-0.16-0.344 0-0.614 0.054-0.797 0.16-0.188 0.082-0.297 0.16-0.321 0.242 0.024 0 0.078-0.016 0.16-0.043 0.161-0.106 0.415-0.156 0.758-0.156 0.321 0 0.602 0.05 0.84 0.156 0.242 0.109 0.36 0.242 0.36 0.402 0.003 0.051 0.003 0.094 0.003 0.117z" inkscape:connector-curvature="0"/>
      <path id="path360" style="fill-rule:evenodd;fill:#525355" d="m54.719 14.319c0.027 0 0.066-0.012 0.121-0.039 0.16-0.078 0.414-0.117 0.758-0.117 0.32 0 0.601 0.039 0.843 0.117 0.239 0.105 0.36 0.238 0.36 0.398v0.16c0.211-0.105 0.32-0.238 0.32-0.398-0.027-0.133-0.187-0.254-0.48-0.359-0.215-0.106-0.496-0.161-0.844-0.161-0.344 0-0.613 0.055-0.797 0.161-0.16 0.078-0.254 0.16-0.281 0.238z" inkscape:connector-curvature="0"/>
      <g id="g362">
        <g id="g364">
          <g id="g370">
            <path id="path378" style="fill-rule:evenodd;fill:url(#radialGradient372)" d="m54.719 14.319c-0.211 0.133-0.305 0.254-0.278 0.359 0 0.11 0.079 0.176 0.239 0.203 0.027 0.079 0.093 0.133 0.199 0.161 0.16 0.105 0.387 0.16 0.68 0.16h0.082c0.054 0.023 0.093 0.039 0.121 0.039h0.039c0.32 0 0.574-0.067 0.758-0.199 0.136-0.055 0.214-0.122 0.242-0.204v-0.16c0-0.16-0.121-0.293-0.36-0.398-0.242-0.078-0.519-0.121-0.839-0.121-0.348 0-0.602 0.043-0.762 0.121-0.055 0.027-0.094 0.039-0.121 0.039z" inkscape:connector-curvature="0"/>
          </g>
        </g>
      </g>
      <g id="g380">
        <g id="g382">
          <g id="g388">
            <path id="path396" style="fill-rule:evenodd;fill:url(#radialGradient390)" d="m59.879 18.042v-0.161c0-0.132-0.117-0.269-0.359-0.402-0.239-0.078-0.52-0.117-0.84-0.117-0.348 0-0.614 0.039-0.801 0.117-0.024 0.027-0.051 0.039-0.078 0.039-0.215 0.137-0.309 0.254-0.281 0.363 0 0.106 0.078 0.172 0.238 0.2 0.027 0.082 0.094 0.148 0.203 0.199 0.16 0.082 0.383 0.121 0.68 0.121h0.078c0.054 0.027 0.093 0.039 0.121 0.039h0.039c0.32 0 0.562-0.055 0.719-0.16 0.164-0.078 0.257-0.16 0.281-0.238z" inkscape:connector-curvature="0"/>
          </g>
        </g>
      </g>
      <path id="path398" style="fill-rule:evenodd;fill:#525355" d="m59.879 18.042c0.215-0.11 0.32-0.227 0.32-0.364-0.027-0.16-0.187-0.277-0.48-0.359-0.215-0.133-0.492-0.199-0.84-0.199s-0.625 0.066-0.84 0.199c-0.133 0.055-0.215 0.121-0.242 0.199 0.027 0 0.055-0.012 0.082-0.039 0.187-0.078 0.453-0.117 0.801-0.117 0.32 0 0.597 0.039 0.84 0.117 0.238 0.133 0.359 0.27 0.359 0.402v0.161z" inkscape:connector-curvature="0"/>
      <path id="path400" style="fill-rule:evenodd;fill:#525355" d="m67.441 15.042c0.211-0.082 0.317-0.204 0.317-0.364-0.078-0.16-0.238-0.277-0.481-0.359-0.211-0.106-0.492-0.156-0.839-0.156-0.344 0-0.626 0.05-0.84 0.156-0.16 0.055-0.254 0.133-0.278 0.242 0.024 0 0.067-0.016 0.118-0.043 0.187-0.105 0.453-0.156 0.8-0.156 0.321 0 0.602 0.051 0.84 0.156 0.242 0.11 0.36 0.242 0.36 0.402 0.003 0.055 0.003 0.094 0.003 0.122z" inkscape:connector-curvature="0"/>
      <g id="g402">
        <g id="g404">
          <g id="g410">
            <path id="path418" style="fill-rule:evenodd;fill:url(#radialGradient412)" d="m65.32 14.561c-0.187 0.106-0.265 0.227-0.242 0.359 0 0.079 0.055 0.133 0.16 0.161 0.055 0.105 0.149 0.172 0.282 0.199 0.16 0.082 0.386 0.121 0.679 0.121h0.082c0.051 0.027 0.09 0.039 0.117 0.039h0.043c0.293 0 0.532-0.055 0.719-0.16 0.16-0.051 0.254-0.133 0.281-0.238v-0.122c0-0.16-0.121-0.292-0.359-0.402-0.242-0.105-0.52-0.156-0.84-0.156-0.347 0-0.613 0.051-0.801 0.156-0.054 0.027-0.093 0.043-0.121 0.043z" inkscape:connector-curvature="0"/>
          </g>
        </g>
      </g>
    </g>
  </g>
<metadata><rdf:RDF><cc:Work><dc:format>image/svg+xml</dc:format><dc:type rdf:resource="http://purl.org/dc/dcmitype/StillImage"/><cc:license rdf:resource="http://creativecommons.org/licenses/publicdomain/"/><dc:publisher><cc:Agent rdf:about="http://openclipart.org/"><dc:title>Openclipart</dc:title></cc:Agent></dc:publisher></cc:Work><cc:License rdf:about="http://creativecommons.org/licenses/publicdomain/"><cc:permits rdf:resource="http://creativecommons.org/ns#Reproduction"/><cc:permits rdf:resource="http://creativecommons.org/ns#Distribution"/><cc:permits rdf:resource="http://creativecommons.org/ns#DerivativeWorks"/></cc:License></rdf:RDF></metadata></svg>
