<?xml version="1.0" encoding="UTF-8" standalone="no"?>
<!-- Created with Inkscape (http://www.inkscape.org/) -->

<svg
   xmlns:dc="http://purl.org/dc/elements/1.1/"
   xmlns:cc="http://creativecommons.org/ns#"
   xmlns:rdf="http://www.w3.org/1999/02/22-rdf-syntax-ns#"
   xmlns:svg="http://www.w3.org/2000/svg"
   xmlns="http://www.w3.org/2000/svg"
   xmlns:sodipodi="http://sodipodi.sourceforge.net/DTD/sodipodi-0.dtd"
   xmlns:inkscape="http://www.inkscape.org/namespaces/inkscape"
   width="199.93387"
   height="361.53027"
   id="svg2"
   version="1.1"
   inkscape:version="0.48.4 r9939"
   sodipodi:docname="New document 1">
  <defs
     id="defs4" />
  <sodipodi:namedview
     id="base"
     pagecolor="#ffffff"
     bordercolor="#666666"
     borderopacity="1.0"
     inkscape:pageopacity="0.0"
     inkscape:pageshadow="2"
     inkscape:zoom="0.67867725"
     inkscape:cx="260.9381"
     inkscape:cy="140.9952"
     inkscape:document-units="cm"
     inkscape:current-layer="layer1"
     showgrid="false"
     inkscape:window-width="1152"
     inkscape:window-height="789"
     inkscape:window-x="-9"
     inkscape:window-y="-9"
     inkscape:window-maximized="1"
     units="cm"
     fit-margin-top="0"
     fit-margin-left="0"
     fit-margin-right="0"
     fit-margin-bottom="0" />
  <metadata
     id="metadata7">
    <rdf:RDF>
      <cc:Work
         rdf:about="">
        <dc:format>image/svg+xml</dc:format>
        <dc:type
           rdf:resource="http://purl.org/dc/dcmitype/StillImage" />
        <dc:title></dc:title>
      </cc:Work>
    </rdf:RDF>
  </metadata>
  <g
     inkscape:label="Layer 1"
     inkscape:groupmode="layer"
     id="layer1"
     transform="translate(-110.55378,-366.31652)">
    <g
       id="g3911"
       transform="translate(-187.12871,-2.9469089)">
      <path
         transform="matrix(1.1947762,0.01019316,-0.06480117,0.88446523,-74.412123,306.38383)"
         d="m 432.45889,92.090897 c 0,14.240913 -7.58642,25.785453 -16.94473,25.785453 -9.35831,0 -16.94472,-11.54454 -16.94472,-25.785453 0,-14.240912 7.58641,-25.785452 16.94472,-25.785452 9.35831,0 16.94473,11.54454 16.94473,25.785452 z"
         sodipodi:ry="25.785452"
         sodipodi:rx="16.944725"
         sodipodi:cy="92.090897"
         sodipodi:cx="415.51416"
         id="path2993"
         style="color:#000000;fill:#000080;fill-opacity:1;fill-rule:nonzero;stroke:none;stroke-width:3.75;marker:none;visibility:visible;display:inline;overflow:visible;enable-background:accumulate"
         sodipodi:type="arc" />
      <path
         sodipodi:type="arc"
         style="color:#000000;fill:#000080;fill-opacity:1;fill-rule:nonzero;stroke:none;stroke-width:3.75;marker:none;visibility:visible;display:inline;overflow:visible;enable-background:accumulate"
         id="path3763"
         sodipodi:cx="415.51416"
         sodipodi:cy="92.090897"
         sodipodi:rx="16.944725"
         sodipodi:ry="25.785452"
         d="m 432.45889,92.090897 c 0,14.240913 -7.58642,25.785453 -16.94473,25.785453 -9.35831,0 -16.94472,-11.54454 -16.94472,-25.785453 0,-14.240912 7.58641,-25.785452 16.94472,-25.785452 9.35831,0 16.94473,11.54454 16.94473,25.785452 z"
         transform="matrix(2.3478261,0,0,2.4,-566.6714,248.5928)" />
      <path
         transform="matrix(1.347826,0,0,2.4,-132.73903,350.99788)"
         d="m 432.45889,92.090897 c 0,14.240913 -7.58642,25.785453 -16.94473,25.785453 -9.35831,0 -16.94472,-11.54454 -16.94472,-25.785453 0,-14.240912 7.58641,-25.785452 16.94472,-25.785452 9.35831,0 16.94473,11.54454 16.94473,25.785452 z"
         sodipodi:ry="25.785452"
         sodipodi:rx="16.944725"
         sodipodi:cy="92.090897"
         sodipodi:cx="415.51416"
         id="path3765"
         style="color:#000000;fill:#000080;fill-opacity:1;fill-rule:nonzero;stroke:none;stroke-width:3.75;marker:none;visibility:visible;display:inline;overflow:visible;enable-background:accumulate"
         sodipodi:type="arc" />
      <path
         sodipodi:type="arc"
         style="color:#000000;fill:#000080;fill-opacity:1;fill-rule:nonzero;stroke:none;stroke-width:3.75;marker:none;visibility:visible;display:inline;overflow:visible;enable-background:accumulate"
         id="path3767"
         sodipodi:cx="415.51416"
         sodipodi:cy="92.090897"
         sodipodi:rx="16.944725"
         sodipodi:ry="25.785452"
         d="m 432.45889,92.090897 c 0,14.240913 -7.58642,25.785453 -16.94473,25.785453 -9.35831,0 -16.94472,-11.54454 -16.94472,-25.785453 0,-14.240912 7.58641,-25.785452 16.94472,-25.785452 9.35831,0 16.94473,11.54454 16.94473,25.785452 z"
         transform="matrix(1.3273496,0.23404696,-0.41675461,2.3635388,-121.2144,215.11235)" />
      <path
         transform="matrix(1.0000085,-0.00422787,0.00656214,2.0428412,-28.603509,390.43443)"
         d="m 432.45889,92.090897 c 0,14.240913 -7.58642,25.785453 -16.94473,25.785453 -9.35831,0 -16.94472,-11.54454 -16.94472,-25.785453 0,-14.240912 7.58641,-25.785452 16.94472,-25.785452 9.35831,0 16.94473,11.54454 16.94473,25.785452 z"
         sodipodi:ry="25.785452"
         sodipodi:rx="16.944725"
         sodipodi:cy="92.090897"
         sodipodi:cx="415.51416"
         id="path3769"
         style="color:#000000;fill:#000080;fill-opacity:1;fill-rule:nonzero;stroke:none;stroke-width:3.75;marker:none;visibility:visible;display:inline;overflow:visible;enable-background:accumulate"
         sodipodi:type="arc" />
      <path
         sodipodi:type="arc"
         style="color:#000000;fill:#000080;fill-opacity:1;fill-rule:nonzero;stroke:none;stroke-width:3.75;marker:none;visibility:visible;display:inline;overflow:visible;enable-background:accumulate"
         id="path3771"
         sodipodi:cx="415.51416"
         sodipodi:cy="92.090897"
         sodipodi:rx="16.944725"
         sodipodi:ry="25.785452"
         d="m 432.45889,92.090897 c 0,14.240913 -7.58642,25.785453 -16.94473,25.785453 -9.35831,0 -16.94472,-11.54454 -16.94472,-25.785453 0,-14.240912 7.58641,-25.785452 16.94472,-25.785452 9.35831,0 16.94473,11.54454 16.94473,25.785452 z"
         transform="matrix(0.80436628,-0.0031635,0.00527832,1.528556,53.175197,509.92079)" />
      <path
         transform="matrix(0.33177001,0.68420213,-1.5426508,0.97028783,364.8369,63.176243)"
         d="m 432.45889,92.090897 c 0,14.240913 -7.58642,25.785453 -16.94473,25.785453 -9.35831,0 -16.94472,-11.54454 -16.94472,-25.785453 0,-14.240912 7.58641,-25.785452 16.94472,-25.785452 9.35831,0 16.94473,11.54454 16.94473,25.785452 z"
         sodipodi:ry="25.785452"
         sodipodi:rx="16.944725"
         sodipodi:cy="92.090897"
         sodipodi:cx="415.51416"
         id="path3773"
         style="color:#000000;fill:#000080;fill-opacity:1;fill-rule:nonzero;stroke:none;stroke-width:3.75;marker:none;visibility:visible;display:inline;overflow:visible;enable-background:accumulate"
         sodipodi:type="arc" />
      <path
         sodipodi:type="arc"
         style="color:#000000;fill:#000080;fill-opacity:1;fill-rule:nonzero;stroke:none;stroke-width:3.75;marker:none;visibility:visible;display:inline;overflow:visible;enable-background:accumulate"
         id="path3775"
         sodipodi:cx="415.51416"
         sodipodi:cy="92.090897"
         sodipodi:rx="16.944725"
         sodipodi:ry="25.785452"
         d="m 432.45889,92.090897 c 0,14.240913 -7.58642,25.785453 -16.94473,25.785453 -9.35831,0 -16.94472,-11.54454 -16.94472,-25.785453 0,-14.240912 7.58641,-25.785452 16.94472,-25.785452 9.35831,0 16.94473,11.54454 16.94473,25.785452 z"
         transform="matrix(0.40619783,0.31168479,-0.97944231,1.6801863,245.94507,189.42364)" />
      <path
         transform="matrix(0.29579294,0.25304383,-0.66607976,1.4365759,255.77894,243.223)"
         d="m 432.45889,92.090897 c 0,14.240913 -7.58642,25.785453 -16.94473,25.785453 -9.35831,0 -16.94472,-11.54454 -16.94472,-25.785453 0,-14.240912 7.58641,-25.785452 16.94472,-25.785452 9.35831,0 16.94473,11.54454 16.94473,25.785452 z"
         sodipodi:ry="25.785452"
         sodipodi:rx="16.944725"
         sodipodi:cy="92.090897"
         sodipodi:cx="415.51416"
         id="path3777"
         style="color:#000000;fill:#000080;fill-opacity:1;fill-rule:nonzero;stroke:none;stroke-width:3.75;marker:none;visibility:visible;display:inline;overflow:visible;enable-background:accumulate"
         sodipodi:type="arc" />
      <path
         sodipodi:type="arc"
         style="color:#000000;fill:#000080;fill-opacity:1;fill-rule:nonzero;stroke:none;stroke-width:3.75;marker:none;visibility:visible;display:inline;overflow:visible;enable-background:accumulate"
         id="path3781"
         sodipodi:cx="415.51416"
         sodipodi:cy="92.090897"
         sodipodi:rx="16.944725"
         sodipodi:ry="25.785452"
         d="m 432.45889,92.090897 c 0,14.240913 -7.58642,25.785453 -16.94473,25.785453 -9.35831,0 -16.94472,-11.54454 -16.94472,-25.785453 0,-14.240912 7.58641,-25.785452 16.94472,-25.785452 9.35831,0 16.94473,11.54454 16.94473,25.785452 z"
         transform="matrix(-0.41443233,0.67179812,1.366134,1.247755,503.16484,47.750993)" />
      <path
         inkscape:transform-center-y="-30.469647"
         inkscape:transform-center-x="-56.302703"
         transform="matrix(-0.76356109,0.34690294,0.77921875,1.6250276,719.22706,164.23651)"
         d="m 432.45889,92.090897 c 0,14.240913 -7.58642,25.785453 -16.94473,25.785453 -9.35831,0 -16.94472,-11.54454 -16.94472,-25.785453 0,-14.240912 7.58641,-25.785452 16.94472,-25.785452 9.35831,0 16.94473,11.54454 16.94473,25.785452 z"
         sodipodi:ry="25.785452"
         sodipodi:rx="16.944725"
         sodipodi:cy="92.090897"
         sodipodi:cx="415.51416"
         id="path3783"
         style="color:#000000;fill:#000080;fill-opacity:1;fill-rule:nonzero;stroke:none;stroke-width:3.75;marker:none;visibility:visible;display:inline;overflow:visible;enable-background:accumulate"
         sodipodi:type="arc" />
      <path
         sodipodi:type="arc"
         style="color:#000000;fill:#000080;fill-opacity:1;fill-rule:nonzero;stroke:none;stroke-width:3.75;marker:none;visibility:visible;display:inline;overflow:visible;enable-background:accumulate"
         id="path3785"
         sodipodi:cx="415.51416"
         sodipodi:cy="92.090897"
         sodipodi:rx="16.944725"
         sodipodi:ry="25.785452"
         d="m 432.45889,92.090897 c 0,14.240913 -7.58642,25.785453 -16.94473,25.785453 -9.35831,0 -16.94472,-11.54454 -16.94472,-25.785453 0,-14.240912 7.58641,-25.785452 16.94472,-25.785452 9.35831,0 16.94473,11.54454 16.94473,25.785452 z"
         transform="matrix(0.66973065,0,0,0.47704853,30.748324,475.77658)" />
      <path
         transform="matrix(0.45862066,-0.04975203,0.21810767,1.5173693,177.23774,558.30482)"
         d="m 432.45889,92.090897 c 0,14.240913 -7.58642,25.785453 -16.94473,25.785453 -9.35831,0 -16.94472,-11.54454 -16.94472,-25.785453 0,-14.240912 7.58641,-25.785452 16.94472,-25.785452 9.35831,0 16.94473,11.54454 16.94473,25.785452 z"
         sodipodi:ry="25.785452"
         sodipodi:rx="16.944725"
         sodipodi:cy="92.090897"
         sodipodi:cx="415.51416"
         id="path3787"
         style="color:#000000;fill:#000080;fill-opacity:1;fill-rule:nonzero;stroke:none;stroke-width:3.75;marker:none;visibility:visible;display:inline;overflow:visible;enable-background:accumulate"
         sodipodi:type="arc" />
      <path
         sodipodi:type="arc"
         style="color:#000000;fill:#000080;fill-opacity:1;fill-rule:nonzero;stroke:none;stroke-width:3.75;marker:none;visibility:visible;display:inline;overflow:visible;enable-background:accumulate"
         id="path3789"
         sodipodi:cx="415.51416"
         sodipodi:cy="92.090897"
         sodipodi:rx="16.944725"
         sodipodi:ry="25.785452"
         d="m 432.45889,92.090897 c 0,14.240913 -7.58642,25.785453 -16.94473,25.785453 -9.35831,0 -16.94472,-11.54454 -16.94472,-25.785453 0,-14.240912 7.58641,-25.785452 16.94472,-25.785452 9.35831,0 16.94473,11.54454 16.94473,25.785452 z"
         transform="matrix(0.68478249,0,0,1.2642857,134.10839,537.9161)" />
      <path
         transform="matrix(0.2484508,0.17589341,-0.50044294,0.33828236,363.87247,584.82193)"
         d="m 432.45889,92.090897 c 0,14.240913 -7.58642,25.785453 -16.94473,25.785453 -9.35831,0 -16.94472,-11.54454 -16.94472,-25.785453 0,-14.240912 7.58641,-25.785452 16.94472,-25.785452 9.35831,0 16.94473,11.54454 16.94473,25.785452 z"
         sodipodi:ry="25.785452"
         sodipodi:rx="16.944725"
         sodipodi:cy="92.090897"
         sodipodi:cx="415.51416"
         id="path3791"
         style="color:#000000;fill:#000080;fill-opacity:1;fill-rule:nonzero;stroke:none;stroke-width:3.75;marker:none;visibility:visible;display:inline;overflow:visible;enable-background:accumulate"
         sodipodi:type="arc" />
      <path
         sodipodi:type="arc"
         style="color:#000000;fill:#000080;fill-opacity:1;fill-rule:nonzero;stroke:none;stroke-width:3.75;marker:none;visibility:visible;display:inline;overflow:visible;enable-background:accumulate"
         id="path3793"
         sodipodi:cx="415.51416"
         sodipodi:cy="92.090897"
         sodipodi:rx="16.944725"
         sodipodi:ry="25.785452"
         d="m 432.45889,92.090897 c 0,14.240913 -7.58642,25.785453 -16.94473,25.785453 -9.35831,0 -16.94472,-11.54454 -16.94472,-25.785453 0,-14.240912 7.58641,-25.785452 16.94472,-25.785452 9.35831,0 16.94473,11.54454 16.94473,25.785452 z"
         transform="matrix(0.14215061,0.70156907,-0.61644922,0.33654093,427.03153,313.79124)" />
      <path
         inkscape:transform-center-y="-15.102908"
         inkscape:transform-center-x="-55.254541"
         transform="matrix(0.65792577,0.18989665,-0.35059836,1.2147012,176.0812,476.102)"
         d="m 432.45889,92.090897 c 0,14.240913 -7.58642,25.785453 -16.94473,25.785453 -9.35831,0 -16.94472,-11.54454 -16.94472,-25.785453 0,-14.240912 7.58641,-25.785452 16.94472,-25.785452 9.35831,0 16.94473,11.54454 16.94473,25.785452 z"
         sodipodi:ry="25.785452"
         sodipodi:rx="16.944725"
         sodipodi:cy="92.090897"
         sodipodi:cx="415.51416"
         id="path3795"
         style="color:#000000;fill:#000080;fill-opacity:1;fill-rule:nonzero;stroke:none;stroke-width:3.75;marker:none;visibility:visible;display:inline;overflow:visible;enable-background:accumulate"
         sodipodi:type="arc" />
      <path
         sodipodi:type="arc"
         style="color:#000000;fill:#000080;fill-opacity:1;fill-rule:nonzero;stroke:none;stroke-width:3.75;marker:none;visibility:visible;display:inline;overflow:visible;enable-background:accumulate"
         id="path3797"
         sodipodi:cx="415.51416"
         sodipodi:cy="92.090897"
         sodipodi:rx="16.944725"
         sodipodi:ry="25.785452"
         d="m 432.45889,92.090897 c 0,14.240913 -7.58642,25.785453 -16.94473,25.785453 -9.35831,0 -16.94472,-11.54454 -16.94472,-25.785453 0,-14.240912 7.58641,-25.785452 16.94472,-25.785452 9.35831,0 16.94473,11.54454 16.94473,25.785452 z"
         transform="matrix(-0.40465654,0.15213203,0.21563515,0.9731344,574.11078,508.51439)"
         inkscape:transform-center-y="-2.0657507" />
      <path
         sodipodi:type="arc"
         style="color:#000000;fill:#000080;fill-opacity:1;fill-rule:nonzero;stroke:none;stroke-width:3.75;marker:none;visibility:visible;display:inline;overflow:visible;enable-background:accumulate"
         id="path3799"
         sodipodi:cx="415.51416"
         sodipodi:cy="92.090897"
         sodipodi:rx="16.944725"
         sodipodi:ry="25.785452"
         d="m 432.45889,92.090897 c 0,14.240913 -7.58642,25.785453 -16.94473,25.785453 -9.35831,0 -16.94472,-11.54454 -16.94472,-25.785453 0,-14.240912 7.58641,-25.785452 16.94472,-25.785452 9.35831,0 16.94473,11.54454 16.94473,25.785452 z"
         transform="matrix(0.23500609,0.31031722,-0.95719485,1.261424,325.15887,221.92554)" />
      <path
         transform="matrix(-0.34690271,0.17658751,0.31046409,1.5527474,490.362,255.08425)"
         d="m 432.45889,92.090897 c 0,14.240913 -7.58642,25.785453 -16.94473,25.785453 -9.35831,0 -16.94472,-11.54454 -16.94472,-25.785453 0,-14.240912 7.58641,-25.785452 16.94472,-25.785452 9.35831,0 16.94473,11.54454 16.94473,25.785452 z"
         sodipodi:ry="25.785452"
         sodipodi:rx="16.944725"
         sodipodi:cy="92.090897"
         sodipodi:cx="415.51416"
         id="path3801"
         style="color:#000000;fill:#000080;fill-opacity:1;fill-rule:nonzero;stroke:none;stroke-width:3.75;marker:none;visibility:visible;display:inline;overflow:visible;enable-background:accumulate"
         sodipodi:type="arc" />
      <path
         sodipodi:type="arc"
         style="color:#000000;fill:#000080;fill-opacity:1;fill-rule:nonzero;stroke:none;stroke-width:3.75;marker:none;visibility:visible;display:inline;overflow:visible;enable-background:accumulate"
         id="path3803"
         sodipodi:cx="415.51416"
         sodipodi:cy="92.090897"
         sodipodi:rx="16.944725"
         sodipodi:ry="25.785452"
         d="m 432.45889,92.090897 c 0,14.240913 -7.58642,25.785453 -16.94473,25.785453 -9.35831,0 -16.94472,-11.54454 -16.94472,-25.785453 0,-14.240912 7.58641,-25.785452 16.94472,-25.785452 9.35831,0 16.94473,11.54454 16.94473,25.785452 z"
         transform="matrix(0.34690271,0.17658751,-0.31046409,1.5527474,329.24695,250.29552)" />
      <path
         transform="matrix(-0.34690271,0.17658751,0.31046409,1.5527474,555.14164,301.34811)"
         d="m 432.45889,92.090897 c 0,14.240913 -7.58642,25.785453 -16.94473,25.785453 -9.35831,0 -16.94472,-11.54454 -16.94472,-25.785453 0,-14.240912 7.58641,-25.785452 16.94472,-25.785452 9.35831,0 16.94473,11.54454 16.94473,25.785452 z"
         sodipodi:ry="25.785452"
         sodipodi:rx="16.944725"
         sodipodi:cy="92.090897"
         sodipodi:cx="415.51416"
         id="path3813"
         style="color:#000000;fill:#000080;fill-opacity:1;fill-rule:nonzero;stroke:none;stroke-width:3.75;marker:none;visibility:visible;display:inline;overflow:visible;enable-background:accumulate"
         sodipodi:type="arc" />
      <path
         sodipodi:type="arc"
         style="color:#000000;fill:#000080;fill-opacity:1;fill-rule:nonzero;stroke:none;stroke-width:3.75;marker:none;visibility:visible;display:inline;overflow:visible;enable-background:accumulate"
         id="path3815"
         sodipodi:cx="415.51416"
         sodipodi:cy="92.090897"
         sodipodi:rx="16.944725"
         sodipodi:ry="25.785452"
         d="m 432.45889,92.090897 c 0,14.240913 -7.58642,25.785453 -16.94473,25.785453 -9.35831,0 -16.94472,-11.54454 -16.94472,-25.785453 0,-14.240912 7.58641,-25.785452 16.94472,-25.785452 9.35831,0 16.94473,11.54454 16.94473,25.785452 z"
         transform="matrix(-0.34690271,0.17658751,0.31046409,1.5527474,508.25661,467.5295)" />
      <path
         transform="matrix(0.34690271,0.17658751,-0.31046409,1.5527474,273.50586,473.25989)"
         d="m 432.45889,92.090897 c 0,14.240913 -7.58642,25.785453 -16.94473,25.785453 -9.35831,0 -16.94472,-11.54454 -16.94472,-25.785453 0,-14.240912 7.58641,-25.785452 16.94472,-25.785452 9.35831,0 16.94473,11.54454 16.94473,25.785452 z"
         sodipodi:ry="25.785452"
         sodipodi:rx="16.944725"
         sodipodi:cy="92.090897"
         sodipodi:cx="415.51416"
         id="path3817"
         style="color:#000000;fill:#000080;fill-opacity:1;fill-rule:nonzero;stroke:none;stroke-width:3.75;marker:none;visibility:visible;display:inline;overflow:visible;enable-background:accumulate"
         sodipodi:type="arc" />
      <path
         inkscape:transform-center-y="6.0165309"
         sodipodi:type="arc"
         style="color:#000000;fill:#000080;fill-opacity:1;fill-rule:nonzero;stroke:none;stroke-width:3.75;marker:none;visibility:visible;display:inline;overflow:visible;enable-background:accumulate"
         id="path3819"
         sodipodi:cx="415.51416"
         sodipodi:cy="92.090897"
         sodipodi:rx="16.944725"
         sodipodi:ry="25.785452"
         d="m 432.45889,92.090897 c 0,14.240913 -7.58642,25.785453 -16.94473,25.785453 -9.35831,0 -16.94472,-11.54454 -16.94472,-25.785453 0,-14.240912 7.58641,-25.785452 16.94472,-25.785452 9.35831,0 16.94473,11.54454 16.94473,25.785452 z"
         transform="matrix(0.08984949,0.25723476,-0.41424771,0.16083647,392.08796,603.0809)" />
      <path
         inkscape:transform-center-x="-8.5694904"
         transform="matrix(0.45453896,0.37445359,-0.17734271,0.45588625,219.28895,516.56736)"
         d="m 432.45889,92.090897 c 0,14.240913 -7.58642,25.785453 -16.94473,25.785453 -9.35831,0 -16.94472,-11.54454 -16.94472,-25.785453 0,-14.240912 7.58641,-25.785452 16.94472,-25.785452 9.35831,0 16.94473,11.54454 16.94473,25.785452 z"
         sodipodi:ry="25.785452"
         sodipodi:rx="16.944725"
         sodipodi:cy="92.090897"
         sodipodi:cx="415.51416"
         id="path3821"
         style="color:#000000;fill:#000080;fill-opacity:1;fill-rule:nonzero;stroke:none;stroke-width:3.75;marker:none;visibility:visible;display:inline;overflow:visible;enable-background:accumulate"
         sodipodi:type="arc"
         inkscape:transform-center-y="9.7488507" />
      <path
         transform="matrix(-0.15041392,0.33804258,-0.77711247,-0.2512911,583.0307,303.7615)"
         d="m 432.45889,92.090897 c 0,14.240913 -7.58642,25.785453 -16.94473,25.785453 -9.35831,0 -16.94472,-11.54454 -16.94472,-25.785453 0,-14.240912 7.58641,-25.785452 16.94472,-25.785452 9.35831,0 16.94473,11.54454 16.94473,25.785452 z"
         sodipodi:ry="25.785452"
         sodipodi:rx="16.944725"
         sodipodi:cy="92.090897"
         sodipodi:cx="415.51416"
         id="path3823"
         style="color:#000000;fill:#000080;fill-opacity:1;fill-rule:nonzero;stroke:none;stroke-width:3.75;marker:none;visibility:visible;display:inline;overflow:visible;enable-background:accumulate"
         sodipodi:type="arc" />
      <path
         sodipodi:type="arc"
         style="color:#000000;fill:#000080;fill-opacity:1;fill-rule:nonzero;stroke:none;stroke-width:3.75;marker:none;visibility:visible;display:inline;overflow:visible;enable-background:accumulate"
         id="path3825"
         sodipodi:cx="415.51416"
         sodipodi:cy="92.090897"
         sodipodi:rx="16.944725"
         sodipodi:ry="25.785452"
         d="m 432.45889,92.090897 c 0,14.240913 -7.58642,25.785453 -16.94473,25.785453 -9.35831,0 -16.94472,-11.54454 -16.94472,-25.785453 0,-14.240912 7.58641,-25.785452 16.94472,-25.785452 9.35831,0 16.94473,11.54454 16.94473,25.785452 z"
         transform="matrix(-0.27686905,-0.24543973,-0.60335051,0.55047177,646.66183,543.22009)" />
      <path
         transform="matrix(-0.1139435,-0.35201422,-0.79927135,0.16797711,596.74601,631.06269)"
         d="m 432.45889,92.090897 c 0,14.240913 -7.58642,25.785453 -16.94473,25.785453 -9.35831,0 -16.94472,-11.54454 -16.94472,-25.785453 0,-14.240912 7.58641,-25.785452 16.94472,-25.785452 9.35831,0 16.94473,11.54454 16.94473,25.785452 z"
         sodipodi:ry="25.785452"
         sodipodi:rx="16.944725"
         sodipodi:cy="92.090897"
         sodipodi:cx="415.51416"
         id="path3827"
         style="color:#000000;fill:#000080;fill-opacity:1;fill-rule:nonzero;stroke:none;stroke-width:3.75;marker:none;visibility:visible;display:inline;overflow:visible;enable-background:accumulate"
         sodipodi:type="arc" />
      <path
         transform="matrix(-0.37511793,-0.03474258,-0.20014596,0.69933738,485.51421,452.88078)"
         d="m 432.45889,92.090897 c 0,14.240913 -7.58642,25.785453 -16.94473,25.785453 -9.35831,0 -16.94472,-11.54454 -16.94472,-25.785453 0,-14.240912 7.58641,-25.785452 16.94472,-25.785452 9.35831,0 16.94473,11.54454 16.94473,25.785452 z"
         sodipodi:ry="25.785452"
         sodipodi:rx="16.944725"
         sodipodi:cy="92.090897"
         sodipodi:cx="415.51416"
         id="path3829"
         style="color:#000000;fill:#000080;fill-opacity:1;fill-rule:nonzero;stroke:none;stroke-width:3.75;marker:none;visibility:visible;display:inline;overflow:visible;enable-background:accumulate"
         sodipodi:type="arc" />
      <path
         sodipodi:type="arc"
         style="color:#000000;fill:#000080;fill-opacity:1;fill-rule:nonzero;stroke:none;stroke-width:3.75;marker:none;visibility:visible;display:inline;overflow:visible;enable-background:accumulate"
         id="path3831"
         sodipodi:cx="415.51416"
         sodipodi:cy="92.090897"
         sodipodi:rx="16.944725"
         sodipodi:ry="25.785452"
         d="m 432.45889,92.090897 c 0,14.240913 -7.58642,25.785453 -16.94473,25.785453 -9.35831,0 -16.94472,-11.54454 -16.94472,-25.785453 0,-14.240912 7.58641,-25.785452 16.94472,-25.785452 9.35831,0 16.94473,11.54454 16.94473,25.785452 z"
         transform="matrix(-0.23757026,0.05998472,-0.20043617,-0.45753717,431.51361,530.08604)" />
      <path
         transform="matrix(0.498984,0.4467148,-0.19691442,0.21995498,267.77833,298.72884)"
         d="m 432.45889,92.090897 c 0,14.240913 -7.58642,25.785453 -16.94473,25.785453 -9.35831,0 -16.94472,-11.54454 -16.94472,-25.785453 0,-14.240912 7.58641,-25.785452 16.94472,-25.785452 9.35831,0 16.94473,11.54454 16.94473,25.785452 z"
         sodipodi:ry="25.785452"
         sodipodi:rx="16.944725"
         sodipodi:cy="92.090897"
         sodipodi:cx="415.51416"
         id="path3833"
         style="color:#000000;fill:#000080;fill-opacity:1;fill-rule:nonzero;stroke:none;stroke-width:3.75;marker:none;visibility:visible;display:inline;overflow:visible;enable-background:accumulate"
         sodipodi:type="arc" />
      <path
         transform="matrix(-0.01141921,0.24475988,-0.49598502,0.05927719,511.66845,388.2638)"
         d="m 432.45889,92.090897 c 0,14.240913 -7.58642,25.785453 -16.94473,25.785453 -9.35831,0 -16.94472,-11.54454 -16.94472,-25.785453 0,-14.240912 7.58641,-25.785452 16.94472,-25.785452 9.35831,0 16.94473,11.54454 16.94473,25.785452 z"
         sodipodi:ry="25.785452"
         sodipodi:rx="16.944725"
         sodipodi:cy="92.090897"
         sodipodi:cx="415.51416"
         id="path3835"
         style="color:#000000;fill:#000080;fill-opacity:1;fill-rule:nonzero;stroke:none;stroke-width:3.75;marker:none;visibility:visible;display:inline;overflow:visible;enable-background:accumulate"
         sodipodi:type="arc" />
      <path
         sodipodi:type="arc"
         style="color:#000000;fill:#000080;fill-opacity:1;fill-rule:nonzero;stroke:none;stroke-width:3.75;marker:none;visibility:visible;display:inline;overflow:visible;enable-background:accumulate"
         id="path3837"
         sodipodi:cx="415.51416"
         sodipodi:cy="92.090897"
         sodipodi:rx="16.944725"
         sodipodi:ry="25.785452"
         d="m 432.45889,92.090897 c 0,14.240913 -7.58642,25.785453 -16.94473,25.785453 -9.35831,0 -16.94472,-11.54454 -16.94472,-25.785453 0,-14.240912 7.58641,-25.785452 16.94472,-25.785452 9.35831,0 16.94473,11.54454 16.94473,25.785452 z"
         transform="matrix(0.10104709,0.22322025,-0.41488628,0.27818034,465.02235,387.7342)" />
      <path
         sodipodi:type="arc"
         style="color:#000000;fill:#000080;fill-opacity:1;fill-rule:nonzero;stroke:none;stroke-width:3.75;marker:none;visibility:visible;display:inline;overflow:visible;enable-background:accumulate"
         id="path3909"
         sodipodi:cx="415.51416"
         sodipodi:cy="92.090897"
         sodipodi:rx="16.944725"
         sodipodi:ry="25.785452"
         d="m 432.45889,92.090897 c 0,14.240913 -7.58642,25.785453 -16.94473,25.785453 -9.35831,0 -16.94472,-11.54454 -16.94472,-25.785453 0,-14.240912 7.58641,-25.785452 16.94472,-25.785452 9.35831,0 16.94473,11.54454 16.94473,25.785452 z"
         transform="matrix(-0.46091306,0.08081531,-0.05070355,1.5837417,637.61662,415.64487)" />
    </g>
  </g>
</svg>
