<?xml version="1.0" encoding="UTF-8" standalone="no"?>
<svg
   xmlns:dc="http://purl.org/dc/elements/1.1/"
   xmlns:cc="http://creativecommons.org/ns#"
   xmlns:rdf="http://www.w3.org/1999/02/22-rdf-syntax-ns#"
   xmlns:svg="http://www.w3.org/2000/svg"
   xmlns="http://www.w3.org/2000/svg"
   xmlns:xlink="http://www.w3.org/1999/xlink"
   enable-background="new"
   version="1.1"
   viewBox="0 0 744.09 1052.4"
   id="svg2">
  <title
     id="title4055">Milk tetra pack</title>
  <defs
     id="defs4">
    <filter
       x="-.066367"
       y="-.28125"
       width="1.1327"
       height="1.5625"
       id="filter4192">
      <feGaussianBlur
         stdDeviation="13.027454"
         id="feGaussianBlur4194" />
    </filter>
    <filter
       x="-.34553"
       y="-.34553"
       width="1.6911"
       height="1.6911"
       id="filter4336">
      <feGaussianBlur
         stdDeviation="29.34994"
         id="feGaussianBlur4338" />
    </filter>
    <linearGradient
       y2="518.51"
       x2="1514.8"
       gradientTransform="matrix(.49735 -.11392 0 .57327 -180.01 393.81)"
       y1="11.529"
       gradientUnits="userSpaceOnUse"
       x1="1456.2"
       id="linearGradient4537">
      <stop
         offset="0"
         style="stop-color:#003ec1"
         id="stop3995" />
      <stop
         offset="1"
         style="stop-color:#7eceff"
         id="stop3997" />
    </linearGradient>
    <linearGradient
       y2="891.08"
       x2="443.78"
       gradientTransform="matrix(.82859 0 0 .82859 83.565 103.14)"
       y1="705.26"
       gradientUnits="userSpaceOnUse"
       x1="404.65"
       id="linearGradient4801">
      <stop
         offset="0"
         style="stop-color:#499600"
         id="stop4797" />
      <stop
         offset="1"
         style="stop-color:#2c5a00"
         id="stop4799" />
    </linearGradient>
    <radialGradient
       r="349.3"
       gradientTransform="matrix(-.042327 .28045 -.72852 -.10995 710.26 578.7)"
       cx="265.75"
       cy="542.54"
       gradientUnits="userSpaceOnUse"
       id="radialGradient4811">
      <stop
         offset="0"
         style="stop-color:#a9e300"
         id="stop4805" />
      <stop
         offset="1"
         style="stop-color:#739a00"
         id="stop4807" />
    </radialGradient>
    <filter
       id="filter4829">
      <feGaussianBlur
         stdDeviation="6.7791345"
         id="feGaussianBlur4831" />
    </filter>
    <linearGradient
       id="linearGradient7422">
      <stop
         style="stop-color:#ffffff;stop-opacity:0.66379309"
         offset="0"
         id="stop7424" />
      <stop
         id="stop7430"
         offset="0.53773713"
         style="stop-color:#ffffff;stop-opacity:0.58908045" />
      <stop
         style="stop-color:#ffffff;stop-opacity:0.28160921"
         offset="1"
         id="stop7426" />
    </linearGradient>
    <pattern
       id="Polkadots-large-8"
       patternTransform="translate(0,0) scale(10,10)"
       height="10"
       width="10"
       patternUnits="userSpaceOnUse">
      <circle
         id="circle5992-7"
         r="0.45"
         cy="0.810"
         cx="2.567"
         style="fill:black;stroke:none" />
      <circle
         id="circle5994-2"
         r="0.45"
         cy="2.33"
         cx="3.048"
         style="fill:black;stroke:none" />
      <circle
         id="circle5996-0"
         r="0.45"
         cy="2.415"
         cx="4.418"
         style="fill:black;stroke:none" />
      <circle
         id="circle5998-5"
         r="0.45"
         cy="3.029"
         cx="1.844"
         style="fill:black;stroke:none" />
      <circle
         id="circle6000-7"
         r="0.45"
         cy="1.363"
         cx="6.08"
         style="fill:black;stroke:none" />
      <circle
         id="circle6002-1"
         r="0.45"
         cy="4.413"
         cx="5.819"
         style="fill:black;stroke:none" />
      <circle
         id="circle6004-2"
         r="0.45"
         cy="4.048"
         cx="4.305"
         style="fill:black;stroke:none" />
      <circle
         id="circle6006-9"
         r="0.45"
         cy="3.045"
         cx="5.541"
         style="fill:black;stroke:none" />
      <circle
         id="circle6008-8"
         r="0.45"
         cy="5.527"
         cx="4.785"
         style="fill:black;stroke:none" />
      <circle
         id="circle6010-8"
         r="0.45"
         cy="5.184"
         cx="2.667"
         style="fill:black;stroke:none" />
      <circle
         id="circle6012-5"
         r="0.45"
         cy="1.448"
         cx="7.965"
         style="fill:black;stroke:none" />
      <circle
         id="circle6014-4"
         r="0.45"
         cy="5.049"
         cx="7.047"
         style="fill:black;stroke:none" />
      <circle
         id="circle6016-1"
         r="0.45"
         cy="0.895"
         cx="4.340"
         style="fill:black;stroke:none" />
      <circle
         id="circle6018-8"
         r="0.45"
         cy="0.340"
         cx="7.125"
         style="fill:black;stroke:none" />
      <circle
         id="circle6020-0"
         r="0.45"
         cy="1.049"
         cx="9.553"
         style="fill:black;stroke:none" />
      <circle
         id="circle6022-7"
         r="0.45"
         cy="2.689"
         cx="7.006"
         style="fill:black;stroke:none" />
      <circle
         id="circle6024-3"
         r="0.45"
         cy="2.689"
         cx="8.909"
         style="fill:black;stroke:none" />
      <circle
         id="circle6026-7"
         r="0.45"
         cy="4.407"
         cx="9.315"
         style="fill:black;stroke:none" />
      <circle
         id="circle6028-1"
         r="0.45"
         cy="3.870"
         cx="7.820"
         style="fill:black;stroke:none" />
      <circle
         id="circle6030-9"
         r="0.45"
         cy="5.948"
         cx="8.270"
         style="fill:black;stroke:none" />
      <circle
         id="circle6032-0"
         r="0.45"
         cy="7.428"
         cx="7.973"
         style="fill:black;stroke:none" />
      <circle
         id="circle6034-8"
         r="0.45"
         cy="8.072"
         cx="9.342"
         style="fill:black;stroke:none" />
      <circle
         id="circle6036-3"
         r="0.45"
         cy="9.315"
         cx="8.206"
         style="fill:black;stroke:none" />
      <circle
         id="circle6038-9"
         r="0.45"
         cy="9.475"
         cx="9.682"
         style="fill:black;stroke:none" />
      <circle
         id="circle6040-2"
         r="0.45"
         cy="6.186"
         cx="9.688"
         style="fill:black;stroke:none" />
      <circle
         id="circle6042-9"
         r="0.45"
         cy="6.296"
         cx="3.379"
         style="fill:black;stroke:none" />
      <circle
         id="circle6044-1"
         r="0.45"
         cy="8.204"
         cx="2.871"
         style="fill:black;stroke:none" />
      <circle
         id="circle6046-1"
         r="0.45"
         cy="8.719"
         cx="4.59"
         style="fill:black;stroke:none" />
      <circle
         id="circle6048-9"
         r="0.45"
         cy="9.671"
         cx="3.181"
         style="fill:black;stroke:none" />
      <circle
         id="circle6050-0"
         r="0.45"
         cy="7.315"
         cx="5.734"
         style="fill:black;stroke:none" />
      <circle
         id="circle6052-9"
         r="0.45"
         cy="6.513"
         cx="6.707"
         style="fill:black;stroke:none" />
      <circle
         id="circle6054-8"
         r="0.45"
         cy="9.670"
         cx="5.730"
         style="fill:black;stroke:none" />
      <circle
         id="circle6056-3"
         r="0.45"
         cy="8.373"
         cx="6.535"
         style="fill:black;stroke:none" />
      <circle
         id="circle6058-1"
         r="0.45"
         cy="7.154"
         cx="4.37"
         style="fill:black;stroke:none" />
      <circle
         id="circle6060-3"
         r="0.45"
         cy="7.25"
         cx="0.622"
         style="fill:black;stroke:none" />
      <circle
         id="circle6062-0"
         r="0.45"
         cy="5.679"
         cx="0.831"
         style="fill:black;stroke:none" />
      <circle
         id="circle6064-2"
         r="0.45"
         cy="8.519"
         cx="1.257"
         style="fill:black;stroke:none" />
      <circle
         id="circle6066-5"
         r="0.45"
         cy="6.877"
         cx="1.989"
         style="fill:black;stroke:none" />
      <circle
         id="circle6068-1"
         r="0.45"
         cy="3.181"
         cx="0.374"
         style="fill:black;stroke:none" />
      <circle
         id="circle6070-2"
         r="0.45"
         cy="1.664"
         cx="1.166"
         style="fill:black;stroke:none" />
      <circle
         id="circle6072-5"
         r="0.45"
         cy="0.093"
         cx="1.151"
         style="fill:black;stroke:none" />
      <circle
         id="circle6074-6"
         r="0.45"
         cy="10.093"
         cx="1.151"
         style="fill:black;stroke:none" />
      <circle
         id="circle6076-6"
         r="0.45"
         cy="4.451"
         cx="1.302"
         style="fill:black;stroke:none" />
      <circle
         id="circle6078-8"
         r="0.45"
         cy="3.763"
         cx="3.047"
         style="fill:black;stroke:none" />
    </pattern>
    <pattern
       xlink:href="#Polkadots-large-8"
       id="pattern6712"
       patternTransform="matrix(2.0178541,0,0,2.3977915,-2.9512596,944.40308)" />
    <pattern
       xlink:href="#Polkadots-large-8"
       id="pattern6804"
       patternTransform="matrix(2.0178541,0,0,2.3977915,-2.9512596,944.40308)" />
    <pattern
       xlink:href="#Polkadots-large-8"
       id="pattern6896"
       patternTransform="matrix(2.0178541,0,0,2.3977915,-2.9512596,944.40308)" />
    <radialGradient
       xlink:href="#linearGradient7422"
       id="radialGradient7428"
       cx="31.115318"
       cy="1006.9303"
       fx="31.115318"
       fy="1006.9303"
       r="6.2908585"
       gradientTransform="matrix(10.117106,-0.23584247,0.85836864,53.255727,-1736.9853,-52891.797)"
       gradientUnits="userSpaceOnUse" />
    <filter
       height="1.0088786"
       y="-0.0044393014"
       width="1.0013627"
       x="-0.00068133515"
       id="filter6479"
       style="color-interpolation-filters:sRGB">
      <feGaussianBlur
         id="feGaussianBlur6481"
         stdDeviation="0.048985564" />
    </filter>
  </defs>
  <g
     id="layer2">
    <g
       id="g3923">
      <path
         d="m250.38 1019.1s-176.05-17.605-189.74-19.561c-13.694-1.95-15.651-9.77-27.387-17.6-11.736-7.82-103.67-95.84-111.5-101.71-7.8243-5.8682-9.7803-19.561 9.7803-23.473 19.561-3.9121 453.81-142.79 453.81-142.79s-66.506 299.28-134.97 305.15z"
         transform="matrix(.82859 0 0 .82859 83.565 103.14)"
         style="filter:url(#filter4829);opacity:.63636;fill:#000000"
         id="path4815" />
      <path
         d="m479.73 135.66 151.73 64.811c-27.963-15.236 9.9743 14.972 9.9743 18.917v567.03c0 3.9455-2.28 7.644-5.112 8.2927l-339.74 77.818c-2.83 0.65-147.67-223.76-149.65-201.97l1.98-458.13c0-3.9455 287.47-79.361 330.82-76.768z"
         style="fill:url(#linearGradient4537)"
         id="rect3991" />
      <g
         transform="matrix(.49735 -.14711 0 .57327 -260.59 638.58)"
         id="g4340">
        <path
           transform="translate(20,-20)"
           d="M 1641.2708,-30.876499 A 101.93155,101.93155 0 0 1 1539.3392,71.05505 101.93155,101.93155 0 0 1 1437.4077,-30.876499 101.93155,101.93155 0 0 1 1539.3392,-132.80805 101.93155,101.93155 0 0 1 1641.2708,-30.876499 Z"
           style="fill:#ffff00"
           id="path4256" />
        <path
           transform="matrix(1.678 0 0 1.678 -1023.6 .93325)"
           d="M 1641.2708,-30.876499 A 101.93155,101.93155 0 0 1 1539.3392,71.05505 101.93155,101.93155 0 0 1 1437.4077,-30.876499 101.93155,101.93155 0 0 1 1539.3392,-132.80805 101.93155,101.93155 0 0 1 1641.2708,-30.876499 Z"
           style="opacity:.8;filter:url(#filter4336);fill:#ffff00"
           id="path4256-4" />
      </g>
      <path
         d="m647.03 426.05c-41.782 22.605-46.227 11.624-46.227 11.624s-24.002 29.643-32.892 39.445c-8.8899 9.8024-84.453 123.35-84.453 123.35l161.53 5.7508 2.0468-180.17z"
         style="fill:#e3dbdb"
         id="path4036" />
      <path
         d="m523.56 595.1 18.227-53.014 29.164-45.043 20.658-29.921-12.152 45.614-1.215 26.972 4.8605 12.569 3.6455-33.294 14.582-28.124 10.936 3.7686 4.8606 29.377s8.5061-17.923-2.4302 24.53-10.936 42.453-10.936 42.453l19.442-16.956 13.367-116.01 9.6977-11.895-1.7639 165.85-130.66 19.608 8.506-30.529-6.0757-38.822 12.152-21.803-4.8606 54.663z"
         style="fill:#d4c6c6"
         id="path4072" />
      <path
         d="m430.48 528.44c-7.145 2.1134-13.321 6.723-16.27 11.641-2.6094-0.45403-5.8408-0.22254-9.337 0.81157-4.6376 1.3717-8.7984 3.8765-11.673 6.7549-2.0294-1.4054-5.2396-1.7525-8.8551-0.68312-5.3548 1.5839-9.8232 5.7486-10.876 9.8422-0.88253-0.0766-1.8655 0.0265-2.8981 0.33196-3.5084 1.0377-6.4096 4.0662-6.9208 7.0499-0.48779 0.0649-1.0025 0.17173-1.5326 0.32844-3.1489 0.93139-5.7061 3.1822-5.7901 5.0721-2.7834 1.1712-4.8383 2.9635-4.8383 4.3746 0 1.6842-13.969 8.4014 6.5191 2.3413l103.39-30.582c3.8688-1.1444 7.0073-3.9844 7.0073-6.3422 0-2.0269-2.3231-3.0368-5.4316-2.5538-0.60844-2.1954-3.5688-3.1204-7.1309-2.0668-0.33491 0.0991-0.66585 0.21293-0.98867 0.33921-0.33144-3.9223-4.1854-6.1401-9.4112-5.7659-3.2629-2.2479-8.7488-2.7323-14.966-0.89326z"
         style="fill:#ffffff"
         id="path4074" />
      <path
         d="m148.82 482.84c9.7212-8.5296 86.43 32.932 152.83 97.212 76.299-12.94 162.09-19.974 209.76-4.8793 51.949 16.446 133.96 9.7815 133.96 9.7815l-501.38 237.15 4.8177-339.26z"
         style="fill:url(#radialGradient4811)"
         id="path4123" />
      <path
         d="m642.36 566.02c2.9699 33.66-0.32572 157.66-4.2835 275.08-55.437 22.376-230.34 69.847-332.97 100.92-42.248-23.374-104.09-57.891-157.15-92.132-3.5563-71.861-2.2854-147.41-1.4646-217.2 53.041 6.8178 93.582 9.8164 154.2 69.604 45.89-32.496 71.606-62.109 177.12-81.286 167.66-30.472 160.59-56.97 164.55-54.99z"
         style="fill:url(#linearGradient4801)"
         id="path4034" />
      <path
         d="m1297 739.62c-50.901-3.2103-34.246 64.217 12.216 70.855 85.515 12.216 139.08-35.118 173.47-31.763 100.17 9.7731 250.22 8.1476 254.1-26.876 5.4489-49.244-168.53-56.885-293.19-46.422-58.837 4.9384-87.524 37.931-146.6 34.206z"
         transform="matrix(.49735 -.11392 0 .57327 -269.76 458.91)"
         style="opacity:.25296;filter:url(#filter4192);fill:#000000"
         id="path4182" />
      <path
         d="m609.98 438.21s-24.013 29.632-32.903 39.435c-2.4543 2.7063-10.066 13.444-19.692 27.394-2.9209 15.421 3.9093 20.896 11.796 5.5757 8.5062-16.523 34.022-35.287 34.022-35.287s-3.6466 23.491-6.077 31.214c-2.4303 7.7222 9.7293 11.132 9.7293 11.132s2.42-18.925 10.926-25.643c8.5061-6.718 4.8658-11.248 10.942-24.25 6.0757-13.002 17.012 0.58027 13.366 7.2612-2.2086 4.0476-3.1775 13.353 4.9178 9.0539l-0.96583-57.514c-41.782 22.605-36.062 11.629-36.062 11.629z"
         style="fill:#f2f2f2"
         id="path4038" />
      <path
         d="m352.83 347.25c-8.0346 2.3765-14.97 9.214-18.169 17.072-10.848 5.026-18.899 14.029-18.899 21.91 0 9.2828 11.156 13.504 24.914 9.435 1.8303-0.54136 3.613-1.21 5.3309-1.9709 2.4227 0.40287 5.396 0.19543 8.6414-0.76448 5.0726-1.5004 9.5417-4.4353 12.154-7.6616 3.2245 0.70906 7.4865 0.45494 12.154-0.92559 9.3842-2.7757 17.117-9.1425 18.122-14.694 2.1896 0.80782 4.9708 0.85864 8.0042-0.0385 7.0466-2.0843 12.76-8.4705 12.76-14.272 0-5.8017-5.7134-8.8082-12.76-6.7239-6.9953 2.0691-12.678 8.3791-12.76 14.147-3.3292-1.0859-8.0818-0.99544-13.366 0.56759-2.2991 0.68002-4.4865 1.5959-6.5122 2.6428 0.28396-1.4452 0.43526-2.8919 0.43526-4.3387 0-11.217-8.976-17.66-20.049-14.385z"
         style="fill:#ffffff"
         id="path4101" />
      <path
         style="fill:#ffffff"
         d="m608.63 315.02c-8.5533 2.5299-15.816 9.248-18.417 16.376-1.9436-0.14404-4.1468 0.0979-6.4966 0.79296-7.7177 2.2828-13.972 8.5172-13.972 13.932 0 5.0042 5.3452 7.5492 12.247 6.1052 0.64124 4.5988 4.697 7.1023 9.6205 5.646 4.3758-1.2943 8.0749-5.311 9.2942-9.6821 2.367 0.14951 4.9803-0.14741 7.7243-0.95904 1.2663-0.37455 2.5003-0.83463 3.6991-1.3808-0.0323 0.33401-0.0621 0.67008-0.0621 1.0037 0 5.0282 3.8038 7.9756 8.5015 6.5861 3.9372-1.1646 7.2524-5.0119 8.2218-9.1858 2.5862 0.83477 5.8527 0.83069 9.4029-0.21942 8.3888-2.4813 7.1282-8.59 7.1282-15.165 0-6.5753 1.2606-11.125-7.1282-8.6436-4.0167 1.1881-7.6659 3.4786-10.382 6.2776 0.0306-0.37745 0.0621-0.75425 0.0621-1.1291 0-8.896-8.7053-13.531-19.443-10.354z"
         id="path4111" />
      <path
         d="m220.13 403.95c-6.3304-3.4028-11.802-1.6434-14.415 3.7851-2.3119-3.3134-5.175-6.0759-8.2725-7.741-4.1089-2.2087-7.7953-2.0383-10.342 0.0188-1.798-4.3543-4.6422-8.0735-7.8454-9.7953-4.7444-2.5503-8.7033 0.12395-9.6358 6.0116-0.78191-0.99054-1.6528-1.7756-2.5676-2.2674-3.1084-1.6709-5.6789 0.61345-6.1318 5.1544-0.43216-0.36643-0.88817-0.6882-1.3578-0.94076-2.7899-1.4997-5.0556-0.19324-5.13 2.9171-2.4661-0.73801-4.2867 0.28408-4.2867 2.6677 0 2.8448-12.376 0.55906 5.7759 10.317 18.152 9.7577 88.177 47.399 91.605 49.242 3.4279 1.8426 6.2085 0.10809 6.2085-3.8747 0-3.4238-2.0582-7.3967-4.8124-9.6144-0.53905-4.3021-3.1619-8.7535-6.3179-10.45-0.2967-0.15948-0.58986-0.29007-0.87592-0.39183-0.29368-6.9487-3.7082-14.456-8.3382-18.924-2.8909-6.9813-7.7514-13.153-13.26-16.114z"
         style="fill:#ffffff"
         id="path4074-5" />
      <path
         d="m471.41 128.97c-2.5072 0.0661-4.7632 0.35304-6.8047 0.82372l-304.89 70.303c-17.75 4.0926-19.841 20.159-19.841 33.003v596.79c0 12.13 3.6808 23.425 7.8075 26.091l141.43 91.774c7.1069 4.6126 13.299 4.7898 26.144 0.98487l317.31-93.994c9.3339-2.7648 17.101-13.537 17.101-25.303v-612.96c0-12.645-4.7325-20.092-20.593-27.344-15.861-7.2517-78.395-34.846-128.68-53.99-11.826-4.6055-21.47-6.3762-28.992-6.178zm0.0713 13.824c6.8135 0.0881 17.212 2.3245 34.095 8.8998 13.394 5.2164 61.254 21.527 97.612 40.094 17.967 9.1753 22.646 15.455-3.8858 21.614l-273.23 63.427c-5.7024 1.3236-27.53 1.3096-43.55-7.0912-20.942-10.982-64.303-32.55-81.728-41.956-12.975-7.0043-31.739-15.558-8.2731-21.005l273.23-63.43c1.5825-0.36732 3.4592-0.58448 5.7302-0.55513zm155.02 77.126c6.6267 0.10117 11.586 6.1749 11.586 14.917v588.52c0 9.9906-6.5793 19.141-14.505 21.489l-297.51 88.121c-7.9256 2.3476-14.523-4.6036-14.523-14.594v-605.92c0-9.9906 6.4806-19.577 14.523-21.489l297.51-70.697c1.0052-0.23891 1.9721-0.35469 2.9188-0.34024zm-469.15 0.0179c0.41982-0.0144 0.86141 0.0834 1.3072 0.32233l131.92 70.715c1.7077 0.91518 3.2551 3.617 4.4051 7.2524l-79.077 49.943-62.102-124.29c0.90898-2.45 2.1302-3.8908 3.5456-3.9396zm-5.1214 35.743c16.58 33.535 45.108 91.036 50.892 101.16 6.6025 11.554 11.17 12.816 22.724 6.2138 10.8-6.1715 64.038-44.188 71.181-49.298v604.63c0 9.9906-7.1271 13.866-10.529 11.675l-127.84-82.33c-3.4023-2.1902-6.4287-11.48-6.4287-21.471v-570.57z"
         style="fill:#000000"
         id="rect3806-27-2" />
      <rect
         x="188"
         y="612.72"
         width="131.16"
         height="7.9199"
         transform="matrix(.87558 .48308 0 1 0 0)"
         style="fill:#999999"
         id="rect4571" />
      <rect
         x="188"
         y="628.76"
         width="131.16"
         height="7.9199"
         transform="matrix(.87558 .48308 0 1 0 0)"
         style="fill:#999999"
         id="rect4571-6" />
      <rect
         x="188"
         y="644.81"
         width="131.16"
         height="7.9199"
         transform="matrix(.87558 .48308 0 1 0 0)"
         style="fill:#999999"
         id="rect4571-6-1" />
      <rect
         x="188"
         y="676.9"
         width="131.16"
         height="7.9199"
         transform="matrix(.87558 .48308 0 1 0 0)"
         style="fill:#999999"
         id="rect4571-6-1-0" />
      <rect
         x="188"
         y="692.94"
         width="108.88"
         height="7.9199"
         transform="matrix(.87558 .48308 0 1 0 0)"
         style="fill:#999999"
         id="rect4571-6-1-0-1" />
      <rect
         x="190.8"
         y="702.48"
         width="133.12"
         height="7.9199"
         transform="matrix(.86270 .50572 0 1 0 0)"
         style="fill:#999999"
         id="rect4571-6-1-0-6" />
      <rect
         x="190.8"
         y="721.96"
         width="80.224"
         height="7.9199"
         transform="matrix(.86270 .50572 0 1 0 0)"
         style="fill:#999999"
         id="rect4571-6-1-0-6-1" />
      <path
         d="m194.31 323.38-3.96-95.039 334.62-79.199 13.86 7.92-336.6 81.179 1.98 100.98-9.8999-15.84z"
         style="fill:#000000"
         id="path4727" />
      <rect
         x="164.59"
         y="134.65"
         width="176.43"
         height="643.33"
         ry="8.3033"
         rx="8.008"
         transform="matrix(.88191 .47141 0 1 0 0)"
         style="opacity:.5;fill:#000000"
         id="rect4813" />
      <g
         transform="translate(4.3311 11.55)"
         style="opacity:.5"
         id="g3123">
        <rect
           x="389.5"
           y="881.34"
           width="216.56"
           height="27.43"
           transform="matrix(.96 -.28 0 1 0 0)"
           style="color:#000000;enable-background:accumulate;fill:#ffffff"
           id="rect3085" />
        <rect
           x="412.06"
           y="928.34"
           width="171.44"
           height="14.944"
           transform="matrix(.96 -.28 0 1 0 0)"
           style="color:#000000;enable-background:accumulate;fill:#ffffff"
           id="rect3085-2" />
        <rect
           x="394.01"
           y="947.95"
           width="207.53"
           height="14.944"
           transform="matrix(.96 -.28 0 1 0 0)"
           style="color:#000000;enable-background:accumulate;fill:#ffffff"
           id="rect3085-2-2" />
      </g>
      <g
         transform="matrix(0.43534907,0,0,0.45910976,652.59239,272.78728)"
         id="g6449">
        <path
           style="opacity:0.878;fill:#f6fcff;fill-opacity:1;fill-rule:evenodd;stroke:none;stroke-width:1px;stroke-linecap:butt;stroke-linejoin:miter;stroke-opacity:1"
           d="m -595.19036,919.31439 c -12.4395,-40.75011 1.0656,-62.77875 17.7122,-82.54137 l -51.6606,-337.26685 -7.38,-134.90687 c 0,0 3.8916,-49.60396 199.26225,-58.57798 93.53773,-4.29651 190.40618,30.17655 190.40618,30.17655 19.1096,12.10996 18.49878,36.14343 15.49818,57.69042 3.41293,125.97204 -35.98334,295.50684 -55.35063,444.66012 34.29882,24.53893 27.93758,55.45605 17.7122,86.97948 -9.73355,14.22552 -63.44905,49.57939 -156.4578,49.70256 -151.83968,0.20415 -169.74198,-55.91606 -169.74198,-55.91606 z"
           id="path4808" />
        <path
           style="fill:#f8f8f8;fill-opacity:1;fill-rule:evenodd;stroke:none;stroke-width:1px;stroke-linecap:butt;stroke-linejoin:miter;stroke-opacity:1"
           d="m -619.25336,540.04155 46.0753,281.98146 3.6861,29.48826 81.09269,31.33127 49.76143,11.0581 88.46478,-12.90111 49.76143,-22.1162 14.74413,-12.90111 55.29048,-305.94067 c -83.55006,-71.87763 -240.82077,-88.46477 -388.87634,0 z"
           id="path5706" />
        <path
           style="color:#000000;font-style:normal;font-variant:normal;font-weight:normal;font-stretch:normal;font-size:medium;line-height:normal;font-family:sans-serif;text-indent:0;text-align:start;text-decoration:none;text-decoration-line:none;text-decoration-style:solid;text-decoration-color:#000000;letter-spacing:normal;word-spacing:normal;text-transform:none;direction:ltr;block-progression:tb;writing-mode:lr-tb;baseline-shift:baseline;text-anchor:start;white-space:normal;clip-rule:nonzero;display:inline;overflow:visible;visibility:visible;opacity:1;isolation:auto;mix-blend-mode:normal;color-interpolation:sRGB;color-interpolation-filters:linearRGB;solid-color:#000000;solid-opacity:1;fill:#366372;fill-opacity:0.64080458;fill-rule:nonzero;stroke:none;stroke-width:2.83464575;stroke-linecap:round;stroke-linejoin:bevel;stroke-miterlimit:4;stroke-dasharray:none;stroke-dashoffset:0;stroke-opacity:1;marker:none;color-rendering:auto;image-rendering:auto;shape-rendering:auto;text-rendering:auto;enable-background:accumulate"
           d="m -431.71831,299.92432 c -60.94325,0.52465 -123.20555,5.28872 -181.48935,29.03503 -11.2653,4.5898 -20.6684,11.68187 -27.1206,20.37376 -4.7026,6.33497 -8.1154,18.5909 -3.3682,31.11256 -0.3428,6.08713 0.2879,6.11517 0.4482,12.40856 2.3769,93.3203 18.0668,184.408 32.7372,275.66705 8.1883,50.93696 16.059,101.927 21.1199,153.38861 2.816,15.79063 -6.7633,27.97946 -13.8827,41.38432 -5.4363,10.23652 -7.1908,20.51047 -5.3921,34.98301 3.6731,29.55479 23.0748,46.8595 43.7283,58.20657 56.1577,30.85383 119.54595,30.25909 179.69747,26.47492 41.52578,-2.61238 84.45617,-15.28572 117.53653,-46.06469 13.71787,-12.76317 17.631,-35.42941 15.35844,-55.44721 -1.95391,-17.21013 -9.22954,-33.52474 -21.45883,-43.70342 4.13319,-58.01876 13.11618,-115.15697 22.44486,-172.2455 8.57631,-52.48445 17.39198,-104.93488 23.10562,-157.97263 4.4357,-41.17507 8.33933,-83.74854 7.83933,-125.08407 2.66584,-8.47244 2.97373,-14.99413 -0.79944,-23.60192 -12.08071,-27.55988 -39.24947,-35.23785 -61.78451,-41.87209 -48.49818,-14.27778 -98.91258,-17.47157 -148.72012,-17.04286 z m 0,14.27737 c 36.79571,0.4185 75.93746,2.18837 112.57469,10.4945 23.39099,5.30301 44.76231,10.47326 67.01171,20.55232 9.177,4.15721 13.10067,12.10547 13.45003,16.5229 0.98789,12.4911 -26.24465,23.76897 -38.50774,27.06061 -53.14116,14.26417 -107.66118,24.65503 -162.07131,23.99564 -29.53075,-0.35793 -59.55098,-3.30443 -88.25713,-8.5822 -31.7259,-5.83304 -65.8202,-11.21812 -93.3648,-32.29054 -3.2813,-2.5103 -3.3976,-7.03504 -3.2214,-10.18657 0.9407,-16.82613 34.1748,-26.7384 46.2415,-30.40077 47.2288,-14.33433 97.55364,-17.71831 146.14445,-17.16589 z m -195.99975,80.86758 c 44.213,27.59703 96.5039,36.15474 145.35366,39.50748 75.04801,5.15079 152.0314,-0.46953 224.23075,-28.14482 14.21583,-5.44912 22.02996,-10.58119 21.29152,3.88359 -3.57044,69.9392 -14.36545,138.64122 -24.75555,207.29969 -10.45928,69.11582 -26.08704,139.9236 -32.18503,209.81885 -17.01702,-4.72664 -43.72522,-14.44532 -66.27062,-17.14072 -71.24893,-8.51898 -138.51156,-11.53829 -206.54783,16.59701 -4.3873,-55.23149 -17.6572,-108.90264 -26.6532,-163.27604 -10.6473,-64.35468 -23.4008,-125.47468 -29.3231,-190.75747 -2.4956,-27.50952 -4.9041,-50.10636 -5.1406,-77.78757 z m 196.36445,421.10618 c 45.4627,0.005 91.27443,6.94094 134.49604,24.36133 -28.84237,35.52331 -103.00486,49.08536 -149.2382,46.69686 -46.23334,-2.3885 -85.16159,-16.79707 -119.43339,-46.82955 43.1153,-17.27001 88.84819,-24.23272 134.17555,-24.22864 z m 148.26857,34.38418 c 9.72195,7.59829 14.39013,23.17253 15.14008,36.58079 1.03581,18.51869 -7.51505,34.60194 -22.06071,44.03481 -54.69489,35.46955 -118.00421,35.55529 -177.87564,33.21102 -36.38185,-1.42425 -71.49635,-14.22688 -104.26765,-33.87109 -24.5784,-14.73317 -28.1682,-63.58308 -6.3128,-81.74792 43.8985,42.05119 102.61217,56.35973 153.37155,54.86607 50.75937,-1.49434 104.33899,-15.34355 142.00517,-53.07368 z"
           id="path4724" />
        <ellipse
           style="opacity:0.54500002;fill:#f0eded;fill-opacity:1;stroke:none;stroke-width:1;stroke-linecap:round;stroke-linejoin:round;stroke-miterlimit:4;stroke-dasharray:none;stroke-opacity:1"
           id="path5719"
           cx="-428.50125"
           cy="537.27704"
           rx="177.85104"
           ry="46.99691" />
        <path
           style="opacity:1;fill:url(#radialGradient7428);fill-opacity:1;fill-rule:evenodd;stroke:none;stroke-width:1.0629921;stroke-linecap:butt;stroke-linejoin:miter;stroke-miterlimit:4;stroke-dasharray:none;stroke-opacity:1"
           d="m -584.25426,414.43326 c 7.6668,158.56689 26.8597,308.16881 56.7922,460.04131 -30.6662,19.81365 -35.3801,43.52921 -44.8792,66.52481 l 17.7429,11.29671 c 4.3321,-28.87702 18.3325,-53.10362 36.5296,-75.31122 -16.5744,-151.17976 -24.1746,-294.74184 -12.9567,-449.26461 -17.743,-1.0489 -35.4859,-2.28438 -53.2288,-13.287 z"
           id="path4812" />
      </g>
      <g
         id="text6456"
         style="font-style:normal;font-weight:normal;font-size:40.8685379px;line-height:125%;font-family:sans-serif;letter-spacing:0px;word-spacing:0px;opacity:0.83499995;fill:#000000;fill-opacity:1;stroke:none;stroke-width:1px;stroke-linecap:butt;stroke-linejoin:miter;stroke-opacity:1;filter:url(#filter6479)"
         transform="matrix(0.87585675,-0.25027586,0.27295592,0.86633749,-166.68441,227.00433)">
        <path
           id="path6461"
           style="font-style:normal;font-variant:normal;font-weight:normal;font-stretch:normal;font-family:Trattatello;-inkscape-font-specification:Trattatello;fill:#ffffff;fill-opacity:1"
           d="m 421.44287,759.95646 q 0,-0.65389 0.20434,-1.10345 0.24522,-0.49042 0.61303,-0.85824 0.40869,-0.36781 0.89911,-0.69476 0.49042,-0.32695 1.02171,-0.6539 1.10345,-0.69476 2.00256,-1.14432 0.93998,-0.44955 2.28864,-0.44955 0.85824,0 1.51214,0.0409 0.65389,0 1.34866,0.53129 0.57216,0.44955 0.7765,0.98084 0.24521,0.53129 0.24521,1.3078 0,0.40868 -0.16347,0.85824 -0.12261,0.44955 -0.40869,0.81737 -0.24521,0.36781 -0.65389,0.61302 -0.36782,0.20435 -0.81738,0.20435 -0.44955,0 -0.73563,-0.20435 -0.24521,-0.24521 -0.49042,-0.49042 -0.20434,-0.24521 -0.49042,-0.44955 -0.24522,-0.24521 -0.6539,-0.24521 -0.53129,0 -1.10345,0.1226 -0.53129,0.0817 -0.98085,0.32695 -0.44955,0.24521 -0.73563,0.61303 -0.28608,0.36782 -0.28608,0.89911 0,0.49042 0.32695,0.69476 0.32695,0.20434 0.7765,0.28608 0.49042,0.0817 1.02171,0.16348 0.5313,0.0817 0.98085,0.32694 1.10345,0.57216 1.87995,1.02172 0.81737,0.44955 1.83909,1.14432 0.36781,0.20434 0.65389,0.36781 0.28608,0.12261 0.53129,0.24521 0.28608,0.12261 0.57216,0.28608 0.28608,0.16348 0.6539,0.44956 1.18519,0.93997 1.87995,1.92082 0.73564,0.93998 0.73564,2.49298 l 0,0.93998 q 0,0.49042 0.16347,0.8991 0.16347,0.36782 0.16347,0.89911 0,0.85824 -0.36781,1.38953 -0.32695,0.53129 -0.6539,1.22606 -0.0817,0.32695 0,0.57216 0.0817,0.20434 -0.1226,0.44955 -0.16348,0.53129 -0.5313,0.69477 -0.36781,0.16347 -0.69476,0.57216 -0.36782,0.32695 -0.69477,0.57216 -0.32694,0.24521 -0.65389,0.49042 -0.32695,0.20434 -0.69477,0.40868 -0.32695,0.20435 -0.81737,0.44956 -0.7765,0.44955 -1.38953,0.61303 -0.61303,0.20434 -1.4304,0.40868 -0.28608,0.0817 -0.49042,0.24521 -0.20434,0.20435 -0.53129,0.20435 -0.36782,0 -0.57216,-0.0817 -0.20434,-0.0409 -0.44955,-0.0409 -0.61303,0 -0.98085,0.12261 -0.32695,0.1226 -0.85824,0.1226 -0.32695,0 -0.53129,-0.16347 -0.16347,-0.12261 -0.49042,-0.20435 -0.44956,-0.16347 -0.81737,-0.16347 -0.32695,0.0409 -0.7765,-0.0409 -0.44956,0 -0.73564,-0.28608 -0.28608,-0.24521 -0.73563,-0.53129 -0.44956,-0.24521 -0.85824,-0.36782 -0.40869,-0.0817 -0.85824,-0.53129 -0.44955,-0.24521 -0.49042,-0.61303 -0.0409,-0.40868 -0.28608,-0.85823 -0.32695,-0.69477 -0.57216,-1.06259 -0.24521,-0.40868 -0.24521,-1.22605 0,-1.18519 0.8991,-2.04343 0.89911,-0.89911 2.16604,-0.89911 0.7765,0 1.47126,0.36782 0.69477,0.32695 0.69477,1.02171 0,0.24521 -0.0817,0.36782 -0.0409,0.12261 -0.0409,0.28608 0,0.28608 0.12261,0.44955 0.1226,0.16348 0.1226,0.36782 0,0.0817 -0.0817,0.24521 -0.0409,0.12261 -0.0409,0.20434 0,0.61303 0.32695,1.06259 0.32695,0.40868 0.81737,0.73563 0.53129,0.28608 1.18519,0.44955 0.65389,0.12261 1.30779,0.12261 1.30779,0 2.37037,-0.61303 1.10345,-0.61303 1.96169,-1.63474 0.49043,-0.53129 0.81737,-1.10345 0.32695,-0.57216 0.32695,-1.4304 0,-0.49042 -0.24521,-0.89911 -0.24521,-0.44955 -0.24521,-0.89911 0,-0.20434 0.0409,-0.20434 0.0817,-0.0409 0.0817,-0.1226 0,-0.6539 -0.36782,-1.06259 -0.32695,-0.44955 -0.85824,-0.7765 -0.53129,-0.32695 -1.18519,-0.61303 -0.61303,-0.28608 -1.22605,-0.61302 -0.16348,-0.0817 -0.28608,-0.28608 -0.0817,-0.20435 -0.28608,-0.28608 -0.40869,-0.20435 -0.81737,-0.20435 -0.40869,-0.0409 -0.77651,-0.36781 -0.32694,-0.20435 -0.44955,-0.40869 -0.12261,-0.24521 -0.44955,-0.49042 -0.44956,-0.20434 -0.81737,-0.20434 -0.32695,-0.0409 -0.77651,-0.36782 -0.24521,-0.28608 -0.44955,-0.49042 -0.16347,-0.20435 -0.32695,-0.53129 -0.32695,-0.40869 -0.81737,-0.6539 -0.44955,-0.24521 -0.44955,-0.85824 l 0,-1.02171 q 0,-0.24521 -0.0409,-0.49043 -0.0409,-0.24521 -0.0409,-0.53129 0,-0.16347 0.0409,-0.24521 0.0409,-0.1226 0.0409,-0.28608 0,-0.20434 0.0409,-0.32695 0.0817,-0.16347 0.0817,-0.24521 z" />
        <path
           id="path6463"
           style="font-style:normal;font-variant:normal;font-weight:normal;font-stretch:normal;font-family:Trattatello;-inkscape-font-specification:Trattatello;fill:#ffffff;fill-opacity:1"
           d="m 450.30372,756.4009 1.47127,0.36782 0.81737,0 q 0.53129,0.16347 0.98084,0.32695 0.40869,0.16347 0.77651,0.32694 0.36781,0.12261 0.49042,0.24521 0.61303,0.32695 1.38953,0.57216 0.81737,0.20435 1.34866,0.77651 0.32695,0.28608 0.6539,0.98084 0.36781,0.69477 0.69476,0.98085 1.38953,1.18518 1.75735,2.28863 0.40869,1.06259 0.40869,1.92083 l -0.12261,2.69732 0,1.14432 q 0,0.44955 -0.36782,1.34866 -0.32695,0.89911 -0.81737,1.87995 -0.44955,0.98085 -0.85824,1.83909 -0.40868,0.81737 -0.53129,1.06258 -0.28608,0.85824 -1.02171,1.4304 -0.69477,0.53129 -1.38953,0.85824 -1.10345,0.85824 -2.0843,1.553 -0.93997,0.69477 -2.12516,0.69477 -0.49042,0 -0.98085,-0.12261 -0.44955,-0.0817 -1.26692,-0.0817 -0.16347,0 -0.40869,0 -0.24521,0.0409 -0.53129,0.0817 -0.32695,0.0409 -0.65389,0.0409 l -0.69477,0 q -0.32695,0 -0.85824,-0.12261 -0.49042,-0.1226 -0.93997,-0.32694 -0.5313,-0.20435 -1.14432,-0.49043 -1.10345,-0.49042 -2.24777,-1.06258 -1.14432,-0.61303 -1.83909,-2.00256 -0.85824,-2.04342 -1.59387,-4.25032 -0.69477,-2.20691 -0.69477,-4.25033 0,-0.40869 0.0817,-0.73564 0.0817,-0.32694 0.20434,-0.65389 0.12261,-0.36782 0.28608,-0.73564 0.16348,-0.36781 0.32695,-0.93997 0,-0.61303 0.16348,-1.14432 0.20434,-0.53129 0.53129,-1.14432 0,-0.12261 0.36781,-0.7765 0.36782,-0.6539 0.89911,-1.38953 0.53129,-0.73564 1.10345,-1.3078 0.61303,-0.61303 1.02172,-0.61303 l 1.14432,-0.44955 q 0.53129,0 0.93997,-0.0409 0.44956,-0.0409 0.89911,-0.28608 0.44955,-0.20434 0.85824,-0.32695 0.40868,-0.16347 0.81737,-0.16347 l 1.96169,0 0.7765,0 z m -3.51469,3.18775 q -0.69477,0 -1.38953,0.93997 -0.69477,0.93998 -1.26693,2.16604 -0.53129,1.18518 -0.89911,2.28863 -0.32694,1.10345 -0.32694,1.4304 l 0,0.69477 0,2.49298 q 0,0.57216 0.69476,1.75735 0.73564,1.14431 1.79822,2.3295 1.06258,1.14432 2.24777,2.04343 1.22605,0.89911 2.2069,0.89911 l 0.7765,0 q 0.85824,0 1.83908,-0.44956 1.02172,-0.44955 1.83909,-1.22605 0.85824,-0.77651 1.4304,-1.79822 0.57216,-1.06258 0.57216,-2.2069 l 0,-1.14432 0,-2.69732 q 0,-0.85824 -0.24521,-1.34866 -0.20435,-0.5313 -0.57216,-0.98085 -0.36782,-0.49042 -0.85824,-1.06258 -0.49043,-0.61303 -1.02172,-1.63474 -0.32695,-0.24521 -0.73563,-0.61303 -0.36782,-0.36782 -0.81737,-0.69477 -0.40869,-0.32694 -0.89911,-0.57216 -0.44955,-0.24521 -0.85824,-0.24521 l -0.7765,0 q -0.32695,0 -0.7765,-0.0409 -0.44956,-0.0409 -0.89911,-0.1226 -0.49042,-0.0817 -1.06258,-0.20434 z" />
        <path
           id="path6465"
           style="font-style:normal;font-variant:normal;font-weight:normal;font-stretch:normal;font-family:Trattatello;-inkscape-font-specification:Trattatello;fill:#ffffff;fill-opacity:1"
           d="m 483.7195,756.31916 q 0.24521,0 0.61303,0.0817 0.40868,0.0817 0.7765,0.20434 0.36782,0.0817 0.61303,0.20435 0.28608,0.0817 0.28608,0.16347 0,0.93998 -0.53129,1.51214 -0.5313,0.53129 -1.38953,0.53129 l -1.26693,0 q -0.57216,0 -0.85824,0.20434 -0.28608,0.20434 -0.49042,0.53129 -0.16348,0.28608 -0.24521,0.73563 -0.0817,0.40869 -0.20435,0.81737 -0.20434,0.24522 -0.36781,0.49043 -0.16348,0.24521 -0.44956,0.40868 -0.16347,0.28608 -0.40868,0.53129 -0.20434,0.24521 -0.36782,0.49043 -0.24521,0.44955 -0.73563,1.38953 -0.44956,0.8991 -0.89911,2.04342 -0.44955,1.10345 -0.7765,2.24777 -0.32695,1.14432 -0.32695,2.04343 l 0,1.47127 -0.20434,1.14432 q 0,0.1226 0.0409,0.53129 0.0409,0.36781 0.1226,0.7765 0.0817,0.36782 0.20434,0.69476 0.12261,0.28608 0.28608,0.28608 0.28608,0.16348 1.18519,0.40869 0.89911,0.20434 1.83909,0.53129 0.98084,0.28608 1.71647,0.6539 0.73564,0.36781 0.73564,0.7765 0,0.20434 -0.0409,0.36782 -0.0817,0.32694 -0.40869,0.32694 -0.36781,0.32695 -0.65389,0.44956 -0.24521,0.1226 -0.49043,0.44955 -0.16347,0 -0.28608,0.16348 -0.0817,0.20434 -0.20434,0.40868 -0.0817,0.20434 -0.24521,0.36782 -0.16347,0.20434 -0.40868,0.20434 -0.32695,0 -0.85824,-0.24521 -0.49043,-0.20434 -1.06259,-0.20434 l -2.73819,0 q -0.32695,0 -0.65389,-0.0409 -0.28608,-0.0409 -0.6539,-0.12261 -0.32695,-0.0409 -0.61303,-0.20434 l -1.83908,0 q -0.69477,0 -1.02172,0.16347 -0.32694,0.20435 -1.02171,0.20435 l -0.69477,0 q -1.43039,0 -1.92082,-0.36782 -0.44955,-0.36782 -0.44955,-1.47127 0,-0.69476 0.36782,-1.34866 0.36781,-0.69476 1.22605,-0.69476 l 1.92082,0.44955 q 0.24522,0 0.57216,-0.12261 0.36782,-0.16347 0.61303,-0.36781 0.28608,-0.20434 0.40869,-0.49042 0.1226,-0.28608 0,-0.61303 l -0.44956,-4.53641 q 0,-0.32695 -0.0409,-0.6539 -0.0409,-0.36781 0.16348,-0.69476 0,-0.24521 -0.12261,-0.49042 -0.1226,-0.28608 -0.1226,-0.5313 0,-0.85823 -0.44956,-1.51213 -0.40868,-0.69477 -1.34866,-1.55301 -0.28608,-0.61302 -1.10345,-1.14431 -0.7765,-0.5313 -1.63474,-1.14432 -0.24521,-0.57216 -0.73563,-1.18519 -0.49043,-0.61303 -0.73564,-1.18519 -0.24521,-0.20434 -0.53129,-0.28608 -0.28608,-0.0817 -0.61303,-0.28608 -0.7765,-0.20434 -1.59387,-0.32695 -0.69476,-0.28608 -1.10345,-0.73563 -0.36782,-0.49042 -0.36782,-1.30779 0,-0.69477 0.28608,-1.14432 0.32695,-0.44956 1.18519,-0.44956 l 1.96169,0 q 0.57216,0 1.10345,0.24521 0.53129,0.20435 0.81737,0.20435 l 1.92082,0 q 0.12261,0 0.44956,0.0409 0.32694,0.0409 0.69476,0.0817 0.40869,0 0.81737,0.0409 0.40869,0.0409 0.6539,0.0409 l 0.89911,0 q 0.28608,0 0.32695,0.0817 0.0409,0.0409 0.0409,0.36781 0,0.32695 -0.24521,0.61303 -0.24521,0.28608 -0.53129,0.6539 -0.24521,0.32695 -0.49042,0.69476 -0.24521,0.36782 -0.24521,0.77651 0,0.44955 0.44955,1.14431 0.44956,0.69477 1.02172,1.38954 0.65389,0.7765 1.51213,1.67561 0,0.1226 0.0817,0.36781 0.0817,0.24521 0.16347,0.49042 0.12261,0.24522 0.24521,0.44956 0.16348,0.16347 0.28608,0.16347 0.28608,0 0.57216,-0.40868 0.28608,-0.40869 0.53129,-0.93998 0.24522,-0.53129 0.44956,-0.98084 0.20434,-0.49043 0.36781,-0.61303 0,-0.16348 0.24522,-0.57216 0.24521,-0.40869 0.53129,-0.85824 0.32695,-0.49042 0.57216,-0.93998 0.24521,-0.49042 0.24521,-0.81737 0,-0.24521 -0.32695,-0.40868 -0.32695,-0.16348 -0.69477,-0.36782 -0.36781,-0.24521 -0.69476,-0.57216 -0.32695,-0.32695 -0.32695,-0.93998 0,-0.16347 0.16347,-0.28608 0.20435,-0.1226 0.44956,-0.20434 0.28608,-0.0817 0.53129,-0.1226 0.28608,-0.0409 0.44955,-0.0409 0.24521,0.0817 0.44956,0.1226 0.20434,0.0409 0.36781,0.0817 0.20435,0 0.32695,0 l 0.7765,0 q 0.61303,-0.16347 1.06259,-0.16347 0.44955,-0.0409 1.553,-0.0409 0.40869,0 0.6539,-0.0409 0.28608,-0.0817 0.44955,-0.16348 0.20434,-0.1226 0.40869,-0.16347 0.20434,-0.0817 0.53129,-0.0817 z" />
        <path
           id="path6467"
           style="font-style:normal;font-variant:normal;font-weight:normal;font-stretch:normal;font-family:Trattatello;-inkscape-font-specification:Trattatello;fill:#ffffff;fill-opacity:1"
           d="m 527.61869,755.50179 q 1.38953,0 1.83908,0.7765 0.44956,0.77651 0.44956,1.63475 0,0.1226 -0.20435,0.36781 -0.16347,0.24521 -0.44955,0.49043 -0.24521,0.24521 -0.53129,0.44955 -0.24521,0.16347 -0.40869,0.16347 l -0.69476,0 q -0.28608,0 -0.49042,0.0409 -0.53129,0.0817 -0.73564,0.28608 -0.61303,0 -0.93997,0.28608 -0.28608,0.24521 -0.44956,0.6539 -0.16347,0.40868 -0.20434,0.89911 0,0.49042 0,0.8991 l 0,2.7382 0,2.94253 q 0,0.44955 0.12261,0.69477 0.1226,0.24521 0.20434,0.44955 0.20434,0.24521 0.20434,0.49042 0.0409,0.24521 0.0409,0.53129 l -0.12261,1.34866 q 0,0.57216 0.16348,1.14432 0.16347,0.53129 0.16347,0.77651 l 0.49042,1.14432 0,1.14431 q 0,0.73564 0.69477,1.02172 0.73563,0.28608 1.553,0.49042 0.85824,0.16347 1.55301,0.40869 0.73563,0.20434 0.73563,0.81737 0,1.22605 -1.14432,1.22605 l -1.47126,0 q -0.28608,0 -0.61303,0 -0.32695,0.0409 -0.6539,0.24521 l -3.39209,-0.24521 -1.14432,0 -0.7765,0 q -0.1226,0 -0.57216,0.0409 -0.44955,0.0409 -0.98084,0.0817 -0.49043,0.0409 -0.93998,0.0817 -0.44955,0.0409 -0.57216,0.0409 -0.61303,0 -0.89911,-0.0817 -0.24521,-0.0817 -0.24521,-0.61303 0,-0.57216 0.28608,-1.22606 0.32695,-0.69476 1.18519,-0.69476 l 0.7765,0 1.59387,0 q 0.28608,0 0.44956,-0.16348 0.20434,-0.20434 0.24521,-0.44955 0.0817,-0.28608 0.0817,-0.53129 0.0409,-0.28608 0.0409,-0.44956 0,-0.53129 -0.24522,-1.26692 -0.20434,-0.73563 -0.20434,-1.02171 l 0,-1.47127 0,-1.22606 0,-1.14432 q 0,-0.16347 -0.0817,-0.53129 -0.0409,-0.40868 -0.16347,-0.7765 -0.12261,-0.40868 -0.28608,-0.69476 -0.12261,-0.28608 -0.28608,-0.28608 -0.0817,0 -0.36782,0.36781 -0.24521,0.32695 -0.61302,0.89911 -0.32695,0.53129 -0.77651,1.22606 -0.40868,0.65389 -0.81737,1.30779 -0.36781,0.6539 -0.69476,1.18519 -0.32695,0.53129 -0.49042,0.81737 -0.32695,0.24521 -0.57216,0.65389 -0.20435,0.40869 -0.36782,0.85824 -0.16348,0.40869 -0.28608,0.85824 -0.12261,0.40869 -0.24521,0.69477 -0.32695,0.57216 -0.6539,1.02171 -0.28608,0.40869 -0.49042,0.69477 -0.32695,0.69476 -0.44956,0.81737 -0.1226,0.0817 -0.44955,0.0817 -0.49042,0 -0.6539,-0.32694 -0.1226,-0.32695 -0.49042,-0.93998 l -0.32695,-2.49298 q -0.28608,-0.73563 -0.65389,-1.51214 -0.36782,-0.7765 -0.69477,-1.553 -0.28608,-0.81737 -0.49042,-1.59387 -0.20434,-0.77651 -0.20434,-1.47127 l 0,-0.44956 q 0,-0.16347 -0.12261,-0.53129 -0.1226,-0.40868 -0.28608,-0.7765 -0.16347,-0.40868 -0.36782,-0.69476 -0.20434,-0.28608 -0.36781,-0.28608 -0.12261,0 -0.32695,0.36781 -0.20434,0.36782 -0.40869,0.85824 -0.16347,0.49043 -0.28608,1.02172 -0.1226,0.49042 -0.1226,0.73563 l 0,2.04343 0,0.7765 q -0.16348,1.06258 -0.32695,1.92082 -0.12261,0.73563 -0.24521,1.4304 -0.0817,0.69476 -0.0817,0.85824 0,1.14432 0.40869,1.553 0.40868,0.40869 0.89911,0.53129 0.49042,0.12261 0.8991,0.24521 0.40869,0.12261 0.40869,0.73564 0,0.44955 -0.20434,0.6539 -0.16348,0.24521 -0.40869,0.32694 -0.24521,0.12261 -0.49042,0.12261 -0.24521,0.0409 -0.36782,0.0409 l -1.59387,0 -3.88251,-0.69477 -0.77651,0 -0.69476,0 q -0.12261,0.0817 -0.28608,0.12261 -0.24521,0.1226 -0.53129,0.1226 l -0.7765,0 q -0.12261,0 -0.36782,-0.0409 -0.24521,-0.0409 -0.49042,-0.16348 -0.24521,-0.0817 -0.44956,-0.20434 -0.16347,-0.12261 -0.16347,-0.28608 0,-0.40869 0.28608,-0.69477 0.32695,-0.32694 0.69476,-0.53129 0.40869,-0.20434 0.77651,-0.28608 0.36781,-0.0817 0.49042,-0.0817 l 0.81737,0 q 0.12261,0 0.49042,-0.0409 0.36782,-0.0409 0.7765,-0.12261 0.44956,-0.0817 1.02172,-0.16347 0.28608,-0.28608 0.57216,-0.98085 0.28608,-0.73563 0.49042,-1.47127 0.20434,-0.7765 0.32695,-1.38953 0.16347,-0.65389 0.16347,-0.81737 l 0,-1.47126 0,-0.44956 q 0.12261,-0.1226 0.20434,-0.36781 0.0817,-0.28608 0.12261,-0.57216 0.0409,-0.32695 0.0409,-0.6539 l 0,-1.83908 q 0,-0.16348 0.0409,-0.49043 0.0817,-0.32695 0.16347,-0.65389 0.12261,-0.36782 0.24521,-0.77651 l 0,-1.14431 q 0.0817,-0.24522 0.16348,-0.49043 0.0817,-0.20434 0.1226,-0.44955 0.0409,-0.24521 0.0409,-0.53129 l 0,-0.89911 q 0,-0.12261 -0.1226,-0.53129 -0.12261,-0.44955 -0.28608,-0.89911 -0.16348,-0.53129 -0.36782,-1.18519 -0.20434,-0.28608 -0.57216,-0.53129 -0.36782,-0.24521 -0.69477,-0.49042 -0.24521,-0.20434 -0.61302,-0.36782 -0.32695,-0.20434 -0.53129,-0.57216 l 0,-0.44955 q 0,-0.24521 0.20434,-0.36782 0.20434,-0.1226 0.49042,-0.20434 0.28608,-0.0817 0.69477,-0.0817 l 1.02171,0 q 0.40868,0 0.57216,-0.0409 0.20434,-0.0817 0.28608,-0.16347 0.0817,-0.12261 0.1226,-0.16347 0.0409,-0.0817 0.16348,-0.0817 l 1.92082,0 0.7765,0 1.14432,0.44955 q 0.40869,1.06259 0.85824,2.61559 0.49042,1.51214 0.98084,3.22861 0.49043,1.71648 0.93998,3.43296 0.49042,1.67561 0.89911,3.02427 0.44955,1.34866 0.7765,2.2069 0.32695,0.81737 0.53129,0.81737 0.0817,-0.20434 0.20434,-0.36781 0.0817,-0.16348 0.20435,-0.32695 0.16347,-0.20434 0.28608,-0.32695 0.61303,-2.08429 1.63474,-4.33206 1.06258,-2.24777 1.87995,-4.2912 0,-0.85824 0.49042,-1.47127 0.53129,-0.65389 1.10345,-1.51213 0.12261,-0.28608 0.16348,-0.73564 0.0409,-0.49042 0.1226,-0.93997 0.12261,-0.49043 0.36782,-0.89911 0.24521,-0.40869 0.81737,-0.57216 l 1.59387,0 0.57216,0.32695 q 0.57216,0 1.06259,-0.0817 0.49042,-0.12261 0.93997,-0.24521 0.44956,-0.16347 0.93998,-0.36782 z" />
        <path
           id="path6469"
           style="font-style:normal;font-variant:normal;font-weight:normal;font-stretch:normal;font-family:Trattatello;-inkscape-font-specification:Trattatello;fill:#ffffff;fill-opacity:1"
           d="m 539.15064,756.31916 q 0.1226,0 0.40868,0.0817 0.28608,0.0409 0.61303,0.12261 0.32695,0.0409 0.61303,0.0817 0.32695,0.0409 0.49042,0.0409 0.0817,0 0.28608,0.16348 0.20435,0.16347 0.36782,0.40868 0.20434,0.24521 0.32695,0.57216 0.16347,0.28608 0.16347,0.57216 0,0.16347 -0.49042,0.28608 -0.49042,0.12261 -1.10345,0.24521 -0.61303,0.12261 -1.10345,0.28608 -0.49042,0.16347 -0.49042,0.40869 l 0,2.86079 q 0.0817,0.32695 0.20434,0.61303 0.0817,0.24521 0.16347,0.49042 0.0817,0.24522 0.0817,0.36782 l -0.44955,1.92082 q 0,0.12261 0.0409,0.44956 0.0817,0.32694 0.16348,0.69476 0.1226,0.36782 0.16347,0.69477 0.0817,0.32695 0.0817,0.44955 l 0.36782,2.04343 q 0,0.85824 -0.20435,1.59387 -0.16347,0.73563 -0.16347,1.02171 l 0,1.14432 q 0,0.24521 -0.24521,0.44956 -0.20434,0.16347 -0.20434,1.02171 0,0.16347 0.1226,0.40869 0.12261,0.20434 0.28608,0.40868 0.20434,0.16348 0.40869,0.28608 0.20434,0.12261 0.32695,0.12261 l 0.8991,0.24521 q 1.14432,0.53129 1.14432,1.71648 0,0.49042 -0.69476,0.7765 -0.6539,0.32695 -1.34866,0.32695 l -0.69477,0 -0.7765,0 -0.7765,0 -1.51214,-0.44956 q -0.24521,0 -0.69477,0.12261 -0.44955,0.1226 -0.93997,0.28608 -0.49042,0.16347 -0.89911,0.28608 -0.40868,0.1226 -0.53129,0.1226 -0.24521,0 -0.69477,-0.28608 -0.40868,-0.24521 -0.40868,-0.53129 0,-0.44955 0.44955,-0.7765 0.49043,-0.36782 1.02172,-0.69476 0.57216,-0.36782 0.93997,-0.77651 0.40869,-0.40868 0.28608,-1.02171 -0.32695,-0.61303 -0.16347,-0.89911 0.16347,-0.32695 0.16347,-0.61303 l 0,-1.10345 0,-2.73819 0,-5.92594 -0.44955,-1.10345 q 0.0817,-0.44955 0.20434,-0.85824 0.0817,-0.32694 0.16348,-0.61302 0.0817,-0.32695 0.0817,-0.49043 0,-0.81737 -0.1226,-1.26692 -0.12261,-0.49042 -0.32695,-0.7765 -0.20434,-0.20435 -0.44956,-0.24522 -0.24521,-0.0817 -0.53129,-0.0817 -0.24521,-0.0409 -0.53129,-0.0817 -0.28608,-0.0409 -0.53129,-0.16347 -0.24521,-0.16348 -0.40868,-0.53129 -0.16348,-0.36782 -0.16348,-1.14432 0,-0.16348 0.0409,-0.32695 0.0409,-0.12261 0.0817,-0.24521 0.0817,-0.12261 0.24521,-0.12261 l 0.7765,0 1.47127,0 q 0.16347,0 0.36782,0.0409 0.24521,0.0409 0.44955,0.12261 0.20434,0.0817 0.44955,0.16347 0.24521,0 0.61303,-0.0409 0.36782,-0.0409 0.69477,-0.1226 0.40868,-0.0817 0.85824,-0.16348 l 0.44955,0 q 0.16347,0 0.40869,-0.16347 l 0.16347,-0.16348 0,0 z" />
        <path
           id="path6471"
           style="font-style:normal;font-variant:normal;font-weight:normal;font-stretch:normal;font-family:Trattatello;-inkscape-font-specification:Trattatello;fill:#ffffff;fill-opacity:1"
           d="m 555.66025,756.97306 q 0.57216,0 1.06258,0.32695 0.5313,0.32695 0.5313,0.93997 l 0,0.77651 q -0.44956,0.32694 -0.85824,0.57216 -0.32695,0.20434 -0.6539,0.40868 -0.32695,0.16348 -0.44955,0.16348 l -1.22606,0 q -0.85824,0 -1.34866,0.49042 -0.49042,0.49042 -0.49042,1.34866 l 0,1.22606 q 0,1.10345 -0.28608,2.41124 -0.24522,1.30779 -0.49043,2.49298 l 0,2.24777 0,2.28864 0,1.14432 0,0.44955 q 0,0.12261 0.0409,0.44956 0.0817,0.28607 0.20434,0.61302 0.16348,0.28608 0.36782,0.53129 0.20434,0.20435 0.53129,0.20435 l 1.14432,0 1.22606,0 1.14432,0 q 0.1226,0 0.65389,-0.24521 0.57216,-0.24522 1.22606,-0.57216 0.6539,-0.32695 1.26692,-0.69477 0.6539,-0.36782 0.93998,-0.61303 0.32695,-0.28608 0.6539,-0.53129 0.32695,-0.28608 0.61302,-0.28608 0.24522,-0.57216 0.32695,-0.65389 0.12261,-0.12261 0.44956,-0.12261 0.24521,0 0.69476,0.28608 0.44956,0.24521 0.44956,0.49042 0,0.12261 -0.36782,0.98085 -0.32695,0.81737 -0.81737,1.87995 -0.49042,1.02171 -1.06258,2.00256 -0.57216,0.93997 -1.06259,1.26692 -0.1226,0.16348 -0.73563,0.20435 -0.57216,0.0817 -1.22606,0.1226 -0.73563,0.0409 -1.67561,0.0409 l -1.14431,0 -0.77651,0 q -0.85824,0 -1.71648,-0.16347 -0.85823,-0.16348 -1.14431,0.0409 l -0.5313,0.12261 -1.96168,0.44955 q -0.12261,0 -0.5313,-0.0817 -0.36781,-0.0409 -0.81737,-0.16348 -0.44955,-0.0817 -0.85824,-0.16347 -0.36781,-0.0409 -0.49042,-0.0409 -0.32695,0 -0.61303,0.0817 -0.28608,0.0817 -0.49042,0.16347 -0.24521,0.12261 -0.49042,0.20434 -0.44956,0 -0.69477,-0.20434 -0.20434,-0.20434 -0.32694,-0.49042 -0.0817,-0.28608 -0.12261,-0.57216 0,-0.28608 0,-0.44955 0,-0.85824 0.53129,-1.06259 0.57216,-0.20434 1.22606,-0.32695 0.65389,-0.16347 1.18518,-0.49042 0.57216,-0.36781 0.57216,-1.51213 l 0,-3.43296 0.32695,-3.06514 0,-1.47127 q 0,-0.16347 0.0409,-0.61303 0.0409,-0.49042 0.12261,-1.02171 0.0817,-0.61303 0.20434,-1.30779 0,-0.32695 -0.20434,-0.61303 -0.16348,-0.28608 -0.16348,-0.53129 l 0,-0.44956 q 0,-1.14432 -0.36781,-1.553 -0.32695,-0.44955 -0.77651,-0.6539 -0.40868,-0.24521 -0.7765,-0.53129 -0.32695,-0.28608 -0.32695,-1.14432 0,-0.40868 0.16348,-0.69476 0.20434,-0.32695 0.44955,-0.53129 0.24521,-0.20435 0.49042,-0.28608 0.24521,-0.0817 0.36782,-0.0817 l 8.86847,0 z" />
        <path
           id="path6473"
           style="font-style:normal;font-variant:normal;font-weight:normal;font-stretch:normal;font-family:Trattatello;-inkscape-font-specification:Trattatello;fill:#ffffff;fill-opacity:1"
           d="m 585.65202,756.31916 q 0.85824,0 1.43039,0.6539 0.61303,0.6539 0.61303,1.26692 0,0.73564 -0.73563,1.10345 -0.69477,0.32695 -1.59387,0.49043 -0.85824,0.1226 -1.67561,0.1226 -0.77651,0 -0.89911,0 -0.32695,0.24521 -0.98085,0.6539 -0.61302,0.36782 -0.93997,0.69476 -0.49043,0.49043 -1.06259,1.14432 -0.53129,0.6539 -1.02171,1.26693 -0.44955,0.61303 -0.7765,1.14432 -0.32695,0.53129 -0.32695,0.7765 0,0.32695 0.20434,0.57216 0.20435,0.24521 0.49043,0.7765 0.28608,0.49042 0.65389,0.93998 0.40869,0.40868 0.7765,0.7765 0.36782,0.36782 0.69477,0.6539 0.32695,0.24521 0.49042,0.36781 0.28608,0.28608 0.61303,0.77651 0.32695,0.49042 0.6539,1.02171 0.36781,0.53129 0.73563,1.06258 0.36782,0.49042 0.81737,0.7765 0.32695,0.32695 0.81737,0.73564 0.53129,0.40868 1.02172,0.85824 0.57216,0.49042 1.22605,1.02171 l 0.81737,0 q 0.32695,0 0.89911,-0.0409 0.57216,-0.0409 0.89911,0.36782 0.20434,0.24521 0.49042,0.89911 0.28608,0.61302 0.24521,1.26692 0,0.61303 -0.57216,1.10345 -0.53129,0.53129 -1.96169,0.57216 -0.69476,0 -1.10345,-0.0409 -0.40868,0 -0.73563,-0.0817 -0.32695,-0.0817 -0.69477,-0.24522 -0.32694,-0.16347 -0.8991,-0.40868 l -0.77651,-0.44956 q -0.53129,-0.20434 -1.02171,-0.65389 -0.44955,-0.44956 -0.89911,-1.06258 -0.85824,-0.93998 -1.96169,-2.24777 -1.06258,-1.34867 -1.92082,-2.53385 -0.57216,-1.02172 -1.18519,-1.92082 -0.61302,-0.93998 -1.18518,-1.47127 -0.61303,-0.44956 -1.14432,-0.44956 -0.24521,0 -0.53129,0.24522 -0.24522,0.24521 -0.24522,0.44955 0,0.69476 0.20435,1.47127 0.24521,0.73563 0.24521,1.22605 l 0,0.81737 0.32695,0.77651 0,1.14432 q 0,1.14431 0.65389,1.67561 0.6539,0.53129 1.4304,0.7765 0.81737,0.24521 1.47127,0.40868 0.6539,0.12261 0.6539,0.53129 0,0.49043 -0.24522,0.81737 -0.24521,0.32695 -0.57215,0.5313 -0.32695,0.20434 -0.6539,0.28608 -0.28608,0.0817 -0.36782,0.0817 l -0.57216,-0.20434 q -0.24521,0 -0.32695,0.0817 -0.0409,0.1226 -0.20434,0.1226 l -2.04343,0 q -0.36781,-0.0409 -0.69476,-0.16347 -0.28608,-0.0817 -0.57216,-0.20434 -0.28608,-0.12261 -0.44955,-0.32695 l -1.14432,0 q -0.16348,0 -0.77651,0.16347 -0.61302,0.12261 -1.34866,0.28608 -0.73563,0.20434 -1.51213,0.32695 -0.73564,0.16347 -1.14432,0.16347 l -0.44956,0 q -0.32694,0 -0.69476,-0.20434 -0.36782,-0.16347 -0.44956,-0.61303 0,-0.24521 0.16348,-0.65389 0.20434,-0.44956 0.49042,-0.85824 0.32695,-0.44956 0.6539,-0.77651 0.32695,-0.32694 0.65389,-0.32694 l 0.32695,0 1.26693,-0.32695 1.47127,0 q 0.24521,0 0.28607,-0.24521 0.0409,-0.28608 0.0409,-0.57216 l 0,-0.7765 q 0.0409,-0.24522 0.0817,-0.49043 0.0817,-0.53129 -0.0817,-0.98084 -0.20434,-0.7765 -0.1226,-1.47127 0.1226,-0.73563 0.1226,-1.26692 l 0,-0.77651 0,-1.59387 q 0,-0.53129 -0.0409,-1.02171 -0.0409,-0.53129 -0.28607,-0.81737 l 0,-1.92082 q 0.0817,-0.57216 0.16347,-1.02172 0.0817,-0.40868 0.1226,-0.7765 0.0409,-0.36782 0.0409,-0.57216 0,-1.26692 -0.65389,-1.75735 -0.6539,-0.49042 -1.47127,-0.69476 -0.7765,-0.20435 -1.4304,-0.36782 -0.6539,-0.20434 -0.6539,-0.93998 0,-0.49042 0.24522,-0.7765 0.28607,-0.32695 0.65389,-0.49042 0.36782,-0.20434 0.7765,-0.24521 0.40869,-0.0817 0.73564,-0.0817 l 0.65389,0 0.44956,0 q 0.1226,0 0.44955,0.0817 0.32695,0.0409 0.6539,0.1226 0.36782,0.0409 0.69476,0.0817 0.32695,0.0409 0.49043,0.0409 l 1.14432,0 1.59387,-0.32695 q 0.49042,0 1.14432,0.28608 0.65389,0.28608 0.65389,0.98085 0,0.24521 -0.0409,0.44955 0,0.20434 -0.16348,0.20434 -0.36782,0 -0.73563,0.20435 -0.32695,0.20434 -0.6539,0.53129 -0.28608,0.28608 -0.49042,0.73563 -0.16348,0.40869 -0.16348,0.81737 l 0,0.7765 q 0,0.40869 0.20435,1.34866 0.1226,0.49043 0.24521,1.06259 l 0,0.32695 q 0.0817,0.24521 0.20434,0.40868 0.0817,0.16347 0.20434,0.28608 0.12261,0.12261 0.24521,0.12261 0.20435,0 0.32695,-0.16348 0.16348,-0.16347 0.36782,-0.40868 0.69477,-0.89911 1.59387,-2.61559 0.44956,-0.7765 0.85824,-1.553 0.40869,-0.81738 0.85824,-1.51214 0.57216,-1.06258 1.14432,-1.67561 0.57216,-0.61303 0.98085,-0.61303 l 0.49042,0 q 0.32695,0 0.44955,-0.16347 0.16348,-0.16348 0.6539,-0.16348 l 3.43296,0 0,0 z" />
      </g>
    </g>
  </g>
  <metadata
     id="metadata4769">
    <rdf:RDF>
      <cc:Work>
        <dc:format>image/svg+xml</dc:format>
        <dc:type
           rdf:resource="http://purl.org/dc/dcmitype/StillImage" />
        <cc:license
           rdf:resource="http://creativecommons.org/licenses/publicdomain/" />
        <dc:publisher>
          <cc:Agent
             rdf:about="http://openclipart.org/">
            <dc:title>Openclipart</dc:title>
          </cc:Agent>
        </dc:publisher>
        <dc:title>Milk tetra pack</dc:title>
      </cc:Work>
      <cc:License
         rdf:about="http://creativecommons.org/licenses/publicdomain/">
        <cc:permits
           rdf:resource="http://creativecommons.org/ns#Reproduction" />
        <cc:permits
           rdf:resource="http://creativecommons.org/ns#Distribution" />
        <cc:permits
           rdf:resource="http://creativecommons.org/ns#DerivativeWorks" />
      </cc:License>
    </rdf:RDF>
  </metadata>
</svg>
