<?xml version="1.0" encoding="UTF-8"?>
<!DOCTYPE svg PUBLIC "-//W3C//DTD SVG 1.1//EN" "http://www.w3.org/Graphics/SVG/1.1/DTD/svg11.dtd">
<svg width="300mm" height="150mm" viewBox="0 0 30000 15000" version="1.1" xmlns="http://www.w3.org/2000/svg" xmlns:xlink="http://www.w3.org/1999/xlink" stroke-width="28.222" stroke-linejoin="round" xml:space="preserve">
 <path fill="rgb(255,255,255)" stroke="none" d="M 15000,15000 L 0,15000 0,0 30000,0 30000,15000 15000,15000 Z"/>
 <path fill="none" stroke="rgb(179,179,179)" stroke-linejoin="round" d="M 15856,12528 L 3177,12528 3177,621 28535,621 28535,12528 15856,12528 Z"/>
 <path fill="none" stroke="rgb(179,179,179)" stroke-linejoin="round" d="M 28535,12527 L 3177,12527"/>
 <path fill="none" stroke="rgb(179,179,179)" stroke-linejoin="round" d="M 28535,11336 L 3177,11336"/>
 <path fill="none" stroke="rgb(179,179,179)" stroke-linejoin="round" d="M 28535,10145 L 3177,10145"/>
 <path fill="none" stroke="rgb(179,179,179)" stroke-linejoin="round" d="M 28535,8954 L 3177,8954"/>
 <path fill="none" stroke="rgb(179,179,179)" stroke-linejoin="round" d="M 28535,7763 L 3177,7763"/>
 <path fill="none" stroke="rgb(179,179,179)" stroke-linejoin="round" d="M 28535,6574 L 3177,6574"/>
 <path fill="none" stroke="rgb(179,179,179)" stroke-linejoin="round" d="M 28535,5383 L 3177,5383"/>
 <path fill="none" stroke="rgb(179,179,179)" stroke-linejoin="round" d="M 28535,4192 L 3177,4192"/>
 <path fill="none" stroke="rgb(179,179,179)" stroke-linejoin="round" d="M 28535,3001 L 3177,3001"/>
 <path fill="none" stroke="rgb(179,179,179)" stroke-linejoin="round" d="M 28535,1810 L 3177,1810"/>
 <path fill="none" stroke="rgb(179,179,179)" stroke-linejoin="round" d="M 28535,620 L 3177,620"/>
 <path fill="none" stroke="rgb(179,179,179)" stroke-linejoin="round" d="M 3177,12677 L 3177,12527"/>
 <path fill="none" stroke="rgb(179,179,179)" stroke-linejoin="round" d="M 3177,12677 L 3177,12527"/>
 <path fill="none" stroke="rgb(179,179,179)" stroke-linejoin="round" d="M 5712,12677 L 5712,12527"/>
 <path fill="none" stroke="rgb(179,179,179)" stroke-linejoin="round" d="M 5712,12677 L 5712,12527"/>
 <path fill="none" stroke="rgb(179,179,179)" stroke-linejoin="round" d="M 8248,12677 L 8248,12527"/>
 <path fill="none" stroke="rgb(179,179,179)" stroke-linejoin="round" d="M 8248,12677 L 8248,12527"/>
 <path fill="none" stroke="rgb(179,179,179)" stroke-linejoin="round" d="M 10784,12677 L 10784,12527"/>
 <path fill="none" stroke="rgb(179,179,179)" stroke-linejoin="round" d="M 10784,12677 L 10784,12527"/>
 <path fill="none" stroke="rgb(179,179,179)" stroke-linejoin="round" d="M 13320,12677 L 13320,12527"/>
 <path fill="none" stroke="rgb(179,179,179)" stroke-linejoin="round" d="M 13320,12677 L 13320,12527"/>
 <path fill="none" stroke="rgb(179,179,179)" stroke-linejoin="round" d="M 15855,12677 L 15855,12527"/>
 <path fill="none" stroke="rgb(179,179,179)" stroke-linejoin="round" d="M 15855,12677 L 15855,12527"/>
 <path fill="none" stroke="rgb(179,179,179)" stroke-linejoin="round" d="M 18391,12677 L 18391,12527"/>
 <path fill="none" stroke="rgb(179,179,179)" stroke-linejoin="round" d="M 18391,12677 L 18391,12527"/>
 <path fill="none" stroke="rgb(179,179,179)" stroke-linejoin="round" d="M 20927,12677 L 20927,12527"/>
 <path fill="none" stroke="rgb(179,179,179)" stroke-linejoin="round" d="M 20927,12677 L 20927,12527"/>
 <path fill="none" stroke="rgb(179,179,179)" stroke-linejoin="round" d="M 23463,12677 L 23463,12527"/>
 <path fill="none" stroke="rgb(179,179,179)" stroke-linejoin="round" d="M 23463,12677 L 23463,12527"/>
 <path fill="none" stroke="rgb(179,179,179)" stroke-linejoin="round" d="M 25999,12677 L 25999,12527"/>
 <path fill="none" stroke="rgb(179,179,179)" stroke-linejoin="round" d="M 25999,12677 L 25999,12527"/>
 <path fill="none" stroke="rgb(179,179,179)" stroke-linejoin="round" d="M 28535,12677 L 28535,12527"/>
 <path fill="none" stroke="rgb(179,179,179)" stroke-linejoin="round" d="M 28535,12677 L 28535,12527"/>
 <path fill="none" stroke="rgb(179,179,179)" stroke-linejoin="round" d="M 3177,12527 L 28535,12527"/>
 <path fill="none" stroke="rgb(179,179,179)" stroke-linejoin="round" d="M 3027,12527 L 3177,12527"/>
 <path fill="none" stroke="rgb(179,179,179)" stroke-linejoin="round" d="M 3027,12527 L 3177,12527"/>
 <path fill="none" stroke="rgb(179,179,179)" stroke-linejoin="round" d="M 3027,11336 L 3177,11336"/>
 <path fill="none" stroke="rgb(179,179,179)" stroke-linejoin="round" d="M 3027,11336 L 3177,11336"/>
 <path fill="none" stroke="rgb(179,179,179)" stroke-linejoin="round" d="M 3027,10145 L 3177,10145"/>
 <path fill="none" stroke="rgb(179,179,179)" stroke-linejoin="round" d="M 3027,10145 L 3177,10145"/>
 <path fill="none" stroke="rgb(179,179,179)" stroke-linejoin="round" d="M 3027,8954 L 3177,8954"/>
 <path fill="none" stroke="rgb(179,179,179)" stroke-linejoin="round" d="M 3027,8954 L 3177,8954"/>
 <path fill="none" stroke="rgb(179,179,179)" stroke-linejoin="round" d="M 3027,7763 L 3177,7763"/>
 <path fill="none" stroke="rgb(179,179,179)" stroke-linejoin="round" d="M 3027,7763 L 3177,7763"/>
 <path fill="none" stroke="rgb(179,179,179)" stroke-linejoin="round" d="M 3027,6574 L 3177,6574"/>
 <path fill="none" stroke="rgb(179,179,179)" stroke-linejoin="round" d="M 3027,6574 L 3177,6574"/>
 <path fill="none" stroke="rgb(179,179,179)" stroke-linejoin="round" d="M 3027,5383 L 3177,5383"/>
 <path fill="none" stroke="rgb(179,179,179)" stroke-linejoin="round" d="M 3027,5383 L 3177,5383"/>
 <path fill="none" stroke="rgb(179,179,179)" stroke-linejoin="round" d="M 3027,4192 L 3177,4192"/>
 <path fill="none" stroke="rgb(179,179,179)" stroke-linejoin="round" d="M 3027,4192 L 3177,4192"/>
 <path fill="none" stroke="rgb(179,179,179)" stroke-linejoin="round" d="M 3027,3001 L 3177,3001"/>
 <path fill="none" stroke="rgb(179,179,179)" stroke-linejoin="round" d="M 3027,3001 L 3177,3001"/>
 <path fill="none" stroke="rgb(179,179,179)" stroke-linejoin="round" d="M 3027,1810 L 3177,1810"/>
 <path fill="none" stroke="rgb(179,179,179)" stroke-linejoin="round" d="M 3027,1810 L 3177,1810"/>
 <path fill="none" stroke="rgb(179,179,179)" stroke-linejoin="round" d="M 3027,620 L 3177,620"/>
 <path fill="none" stroke="rgb(179,179,179)" stroke-linejoin="round" d="M 3027,620 L 3177,620"/>
 <path fill="none" stroke="rgb(179,179,179)" stroke-linejoin="round" d="M 3177,12527 L 3177,620"/>
 <path fill="rgb(255,109,109)" stroke="none" d="M 15984,10653 L 16109,10778 16234,10653 16109,10528 15984,10653 Z"/>
 <path fill="none" stroke="rgb(255,109,109)" stroke-linejoin="round" d="M 15984,10653 L 16109,10778 16234,10653 16109,10528 15984,10653 Z"/>
 <path fill="rgb(255,109,109)" stroke="none" d="M 15730,10013 L 15855,10138 15980,10013 15855,9888 15730,10013 Z"/>
 <path fill="none" stroke="rgb(255,109,109)" stroke-linejoin="round" d="M 15730,10013 L 15855,10138 15980,10013 15855,9888 15730,10013 Z"/>
 <path fill="rgb(255,109,109)" stroke="none" d="M 14970,10528 L 15094,10653 15219,10528 15094,10403 14970,10528 Z"/>
 <path fill="none" stroke="rgb(255,109,109)" stroke-linejoin="round" d="M 14970,10528 L 15094,10653 15219,10528 15094,10403 14970,10528 Z"/>
 <path fill="rgb(73,35,0)" stroke="none" d="M 10659,9152 L 10909,9152 10659,8902 10909,8902 10659,9152 Z"/>
 <path fill="none" stroke="rgb(73,35,0)" stroke-linejoin="round" d="M 10659,9152 L 10909,9152 10659,8902 10909,8902 10659,9152 Z"/>
 <path fill="rgb(73,35,0)" stroke="none" d="M 6602,5768 L 6852,5768 6602,5518 6852,5518 6602,5768 Z"/>
 <path fill="none" stroke="rgb(73,35,0)" stroke-linejoin="round" d="M 6602,5768 L 6852,5768 6602,5518 6852,5518 6602,5768 Z"/>
 <path fill="rgb(73,35,0)" stroke="none" d="M 14970,10520 L 15219,10520 14970,10270 15219,10270 14970,10520 Z"/>
 <path fill="none" stroke="rgb(73,35,0)" stroke-linejoin="round" d="M 14970,10520 L 15219,10520 14970,10270 15219,10270 14970,10520 Z"/>
 <path fill="rgb(73,35,0)" stroke="none" d="M 18773,11196 L 19023,11196 18773,10946 19023,10946 18773,11196 Z"/>
 <path fill="none" stroke="rgb(73,35,0)" stroke-linejoin="round" d="M 18773,11196 L 19023,11196 18773,10946 19023,10946 18773,11196 Z"/>
 <path fill="rgb(73,35,0)" stroke="none" d="M 14717,11128 L 14967,11128 14717,10878 14967,10878 14717,11128 Z"/>
 <path fill="none" stroke="rgb(73,35,0)" stroke-linejoin="round" d="M 14717,11128 L 14967,11128 14717,10878 14967,10878 14717,11128 Z"/>
 <path fill="rgb(73,35,0)" stroke="none" d="M 19027,11239 L 19277,11239 19027,10989 19277,10989 19027,11239 Z"/>
 <path fill="none" stroke="rgb(73,35,0)" stroke-linejoin="round" d="M 19027,11239 L 19277,11239 19027,10989 19277,10989 19027,11239 Z"/>
 <path fill="rgb(0,0,0)" stroke="none" d="M 23970,10106 L 23995,10206 24095,10231 23995,10256 23970,10356 23945,10256 23845,10231 23945,10206 23970,10106 Z"/>
 <path fill="none" stroke="rgb(0,0,0)" stroke-linejoin="round" d="M 23970,10106 L 23995,10206 24095,10231 23995,10256 23970,10356 23945,10256 23845,10231 23945,10206 23970,10106 Z"/>
 <path fill="rgb(0,0,0)" stroke="none" d="M 18644,9443 L 18669,9543 18769,9568 18669,9593 18644,9693 18619,9593 18519,9568 18619,9543 18644,9443 Z"/>
 <path fill="none" stroke="rgb(0,0,0)" stroke-linejoin="round" d="M 18644,9443 L 18669,9543 18769,9568 18669,9593 18644,9693 18619,9593 18519,9568 18619,9543 18644,9443 Z"/>
 <path fill="rgb(0,0,0)" stroke="none" d="M 27520,10786 L 27545,10886 27645,10911 27545,10936 27520,11036 27495,10936 27395,10911 27495,10886 27520,10786 Z"/>
 <path fill="none" stroke="rgb(0,0,0)" stroke-linejoin="round" d="M 27520,10786 L 27545,10886 27645,10911 27545,10936 27520,11036 27495,10936 27395,10911 27495,10886 27520,10786 Z"/>
 <path fill="rgb(0,0,0)" stroke="none" d="M 16362,9121 L 16387,9221 16487,9246 16387,9271 16362,9371 16337,9271 16237,9246 16337,9221 16362,9121 Z"/>
 <path fill="none" stroke="rgb(0,0,0)" stroke-linejoin="round" d="M 16362,9121 L 16387,9221 16487,9246 16387,9271 16362,9371 16337,9271 16237,9246 16337,9221 16362,9121 Z"/>
 <path fill="rgb(0,0,0)" stroke="none" d="M 12813,7805 L 12838,7905 12938,7930 12838,7955 12813,8055 12788,7955 12688,7930 12788,7905 12813,7805 Z"/>
 <path fill="none" stroke="rgb(0,0,0)" stroke-linejoin="round" d="M 12813,7805 L 12838,7905 12938,7930 12838,7955 12813,8055 12788,7955 12688,7930 12788,7905 12813,7805 Z"/>
 <path fill="rgb(0,0,0)" stroke="none" d="M 22448,10393 L 22473,10493 22573,10518 22473,10543 22448,10643 22423,10543 22323,10518 22423,10493 22448,10393 Z"/>
 <path fill="none" stroke="rgb(0,0,0)" stroke-linejoin="round" d="M 22448,10393 L 22473,10493 22573,10518 22473,10543 22448,10643 22423,10543 22323,10518 22423,10493 22448,10393 Z"/>
 <path fill="rgb(180,120,4)" stroke="none" d="M 4062,1091 L 4062,1085 4062,1080 4061,1075 4060,1069 4059,1064 4058,1059 4056,1053 4055,1048 4053,1043 4051,1038 4048,1033 4046,1028 4043,1024 4040,1019 4036,1015 4033,1011 4029,1006 4026,1002 4022,999 4018,995 4013,992 4009,988 4004,985 4000,983 3995,980 3990,978 3985,975 3980,973 3975,972 3970,970 3964,969 3959,968 3954,967 3948,966 3943,966 3937,966 3932,966 3926,966 3921,967 3916,968 3910,969 3905,970 3900,972 3895,973 3889,975 3884,978 3880,980 3875,983 3870,985 3866,988 3861,992 3857,995 3853,999 3849,1002 3845,1006 3842,1011 3838,1015 3835,1019 3832,1024 3829,1028 3826,1033 3824,1038 3822,1043 3820,1048 3818,1053 3817,1059 3815,1064 3814,1069 3813,1075 3813,1080 3812,1085 3812,1091 3812,1096 3813,1102 3813,1107 3814,1113 3815,1118 3817,1123 3818,1128 3820,1134 3822,1139 3824,1144 3826,1149 3829,1153 3832,1158 3835,1163 3838,1167 3842,1171 3845,1175 3849,1179 3853,1183 3857,1187 3861,1190 3866,1193 3870,1196 3875,1199 3880,1202 3884,1204 3889,1206 3895,1208 3900,1210 3905,1212 3910,1213 3916,1214 3921,1215 3926,1215 3932,1216 3937,1216 3943,1216 3948,1215 3954,1215 3959,1214 3964,1213 3970,1212 3975,1210 3980,1208 3985,1206 3990,1204 3995,1202 4000,1199 4004,1196 4009,1193 4013,1190 4018,1187 4022,1183 4026,1179 4029,1175 4033,1171 4036,1167 4040,1163 4043,1158 4046,1153 4048,1149 4051,1144 4053,1139 4055,1134 4056,1128 4058,1123 4059,1118 4060,1113 4061,1107 4062,1102 4062,1096 4062,1091 Z"/>
 <path fill="none" stroke="rgb(180,120,4)" stroke-linejoin="round" d="M 4062,1091 L 4062,1085 4062,1080 4061,1075 4060,1069 4059,1064 4058,1059 4056,1053 4055,1048 4053,1043 4051,1038 4048,1033 4046,1028 4043,1024 4040,1019 4036,1015 4033,1011 4029,1006 4026,1002 4022,999 4018,995 4013,992 4009,988 4004,985 4000,983 3995,980 3990,978 3985,975 3980,973 3975,972 3970,970 3964,969 3959,968 3954,967 3948,966 3943,966 3937,966 3932,966 3926,966 3921,967 3916,968 3910,969 3905,970 3900,972 3895,973 3889,975 3884,978 3880,980 3875,983 3870,985 3866,988 3861,992 3857,995 3853,999 3849,1002 3845,1006 3842,1011 3838,1015 3835,1019 3832,1024 3829,1028 3826,1033 3824,1038 3822,1043 3820,1048 3818,1053 3817,1059 3815,1064 3814,1069 3813,1075 3813,1080 3812,1085 3812,1091 3812,1096 3813,1102 3813,1107 3814,1113 3815,1118 3817,1123 3818,1128 3820,1134 3822,1139 3824,1144 3826,1149 3829,1153 3832,1158 3835,1163 3838,1167 3842,1171 3845,1175 3849,1179 3853,1183 3857,1187 3861,1190 3866,1193 3870,1196 3875,1199 3880,1202 3884,1204 3889,1206 3895,1208 3900,1210 3905,1212 3910,1213 3916,1214 3921,1215 3926,1215 3932,1216 3937,1216 3943,1216 3948,1215 3954,1215 3959,1214 3964,1213 3970,1212 3975,1210 3980,1208 3985,1206 3990,1204 3995,1202 4000,1199 4004,1196 4009,1193 4013,1190 4018,1187 4022,1183 4026,1179 4029,1175 4033,1171 4036,1167 4040,1163 4043,1158 4046,1153 4048,1149 4051,1144 4053,1139 4055,1134 4056,1128 4058,1123 4059,1118 4060,1113 4061,1107 4062,1102 4062,1096 4062,1091 Z"/>
 <path fill="none" stroke="rgb(126,0,33)" stroke-width="50" stroke-linejoin="round" d="M 4087,620 L 4194,1504 4450,2912 4706,3927 4963,4700 5219,5313 5475,5813 5732,6231 5988,6587 6244,6893 6501,7162 6757,7399 7013,7609 7270,7798 7526,7970 7782,8126 8039,8268 8295,8399 8552,8520 8808,8632 9064,8736 9321,8833 9577,8924 9833,9009 10090,9088 10346,9164 10602,9235 10859,9302 11115,9366 11371,9426 11628,9484 11884,9538 12140,9591 12397,9641 12653,9688 12909,9734 13166,9778 13422,9820 13678,9860 13935,9899 14191,9936 14447,9972 14704,10007 14960,10040 15216,10073 15472,10104 15728,10134 15985,10163 16241,10192 16497,10219 16754,10246 17010,10272 17266,10297 17523,10321 17779,10344 18035,10367 18292,10390 18548,10412 18804,10433 19061,10453 19317,10473 19573,10493 19830,10512 20086,10531 20342,10549 20599,10567 20855,10584 21111,10601 21368,10617 21624,10634 21881,10649 22137,10665 22393,10680 22650,10695 22906,10709 23162,10723 23419,10737 23675,10751 23931,10764 24188,10777 24444,10790 24700,10803 24957,10815 25213,10827 25469,10839 25726,10851 25982,10862 26238,10874 26495,10885 26751,10896 27007,10906 27264,10917 27520,10927"/>
 <text class="SVGTextShape"><tspan class="TextParagraph" font-family="Latin Modern Roman" font-size="564px" font-weight="400"><tspan class="TextPosition" x="2793" y="13412"><tspan fill="rgb(0,0,0)" stroke="none">0%</tspan></tspan></tspan></text>
 <text class="SVGTextShape"><tspan class="TextParagraph" font-family="Latin Modern Roman" font-size="564px" font-weight="400"><tspan class="TextPosition" x="5183" y="13412"><tspan fill="rgb(0,0,0)" stroke="none">10%</tspan></tspan></tspan></text>
 <text class="SVGTextShape"><tspan class="TextParagraph" font-family="Latin Modern Roman" font-size="564px" font-weight="400"><tspan class="TextPosition" x="7719" y="13412"><tspan fill="rgb(0,0,0)" stroke="none">20%</tspan></tspan></tspan></text>
 <text class="SVGTextShape"><tspan class="TextParagraph" font-family="Latin Modern Roman" font-size="564px" font-weight="400"><tspan class="TextPosition" x="10255" y="13412"><tspan fill="rgb(0,0,0)" stroke="none">30%</tspan></tspan></tspan></text>
 <text class="SVGTextShape"><tspan class="TextParagraph" font-family="Latin Modern Roman" font-size="564px" font-weight="400"><tspan class="TextPosition" x="12791" y="13412"><tspan fill="rgb(0,0,0)" stroke="none">40%</tspan></tspan></tspan></text>
 <text class="SVGTextShape"><tspan class="TextParagraph" font-family="Latin Modern Roman" font-size="564px" font-weight="400"><tspan class="TextPosition" x="15327" y="13412"><tspan fill="rgb(0,0,0)" stroke="none">50%</tspan></tspan></tspan></text>
 <text class="SVGTextShape"><tspan class="TextParagraph" font-family="Latin Modern Roman" font-size="564px" font-weight="400"><tspan class="TextPosition" x="17863" y="13412"><tspan fill="rgb(0,0,0)" stroke="none">60%</tspan></tspan></tspan></text>
 <text class="SVGTextShape"><tspan class="TextParagraph" font-family="Latin Modern Roman" font-size="564px" font-weight="400"><tspan class="TextPosition" x="20399" y="13412"><tspan fill="rgb(0,0,0)" stroke="none">70%</tspan></tspan></tspan></text>
 <text class="SVGTextShape"><tspan class="TextParagraph" font-family="Latin Modern Roman" font-size="564px" font-weight="400"><tspan class="TextPosition" x="22935" y="13412"><tspan fill="rgb(0,0,0)" stroke="none">80%</tspan></tspan></tspan></text>
 <text class="SVGTextShape"><tspan class="TextParagraph" font-family="Latin Modern Roman" font-size="564px" font-weight="400"><tspan class="TextPosition" x="25471" y="13412"><tspan fill="rgb(0,0,0)" stroke="none">90%</tspan></tspan></tspan></text>
 <text class="SVGTextShape"><tspan class="TextParagraph" font-family="Latin Modern Roman" font-size="564px" font-weight="400"><tspan class="TextPosition" x="27861" y="13412"><tspan fill="rgb(0,0,0)" stroke="none">100%</tspan></tspan></tspan></text>
 <text class="SVGTextShape"><tspan class="TextParagraph" font-family="Latin Modern Roman" font-size="564px" font-weight="400"><tspan class="TextPosition" x="1895" y="12766"><tspan fill="rgb(0,0,0)" stroke="none">0,00</tspan></tspan></tspan></text>
 <text class="SVGTextShape"><tspan class="TextParagraph" font-family="Latin Modern Roman" font-size="564px" font-weight="400"><tspan class="TextPosition" x="1895" y="11575"><tspan fill="rgb(0,0,0)" stroke="none">0,20</tspan></tspan></tspan></text>
 <text class="SVGTextShape"><tspan class="TextParagraph" font-family="Latin Modern Roman" font-size="564px" font-weight="400"><tspan class="TextPosition" x="1895" y="10384"><tspan fill="rgb(0,0,0)" stroke="none">0,40</tspan></tspan></tspan></text>
 <text class="SVGTextShape"><tspan class="TextParagraph" font-family="Latin Modern Roman" font-size="564px" font-weight="400"><tspan class="TextPosition" x="1895" y="9193"><tspan fill="rgb(0,0,0)" stroke="none">0,60</tspan></tspan></tspan></text>
 <text class="SVGTextShape"><tspan class="TextParagraph" font-family="Latin Modern Roman" font-size="564px" font-weight="400"><tspan class="TextPosition" x="1895" y="8002"><tspan fill="rgb(0,0,0)" stroke="none">0,80</tspan></tspan></tspan></text>
 <text class="SVGTextShape"><tspan class="TextParagraph" font-family="Latin Modern Roman" font-size="564px" font-weight="400"><tspan class="TextPosition" x="1895" y="6812"><tspan fill="rgb(0,0,0)" stroke="none">1,00</tspan></tspan></tspan></text>
 <text class="SVGTextShape"><tspan class="TextParagraph" font-family="Latin Modern Roman" font-size="564px" font-weight="400"><tspan class="TextPosition" x="1895" y="5621"><tspan fill="rgb(0,0,0)" stroke="none">1,20</tspan></tspan></tspan></text>
 <text class="SVGTextShape"><tspan class="TextParagraph" font-family="Latin Modern Roman" font-size="564px" font-weight="400"><tspan class="TextPosition" x="1895" y="4430"><tspan fill="rgb(0,0,0)" stroke="none">1,40</tspan></tspan></tspan></text>
 <text class="SVGTextShape"><tspan class="TextParagraph" font-family="Latin Modern Roman" font-size="564px" font-weight="400"><tspan class="TextPosition" x="1895" y="3239"><tspan fill="rgb(0,0,0)" stroke="none">1,60</tspan></tspan></tspan></text>
 <text class="SVGTextShape"><tspan class="TextParagraph" font-family="Latin Modern Roman" font-size="564px" font-weight="400"><tspan class="TextPosition" x="1895" y="2048"><tspan fill="rgb(0,0,0)" stroke="none">1,80</tspan></tspan></tspan></text>
 <text class="SVGTextShape"><tspan class="TextParagraph" font-family="Latin Modern Roman" font-size="564px" font-weight="400"><tspan class="TextPosition" x="1895" y="858"><tspan fill="rgb(0,0,0)" stroke="none">2,00</tspan></tspan></tspan></text>
 <path fill="rgb(255,255,255)" stroke="none" d="M 25120,4347 L 21825,4347 21825,819 28414,819 28414,4347 25120,4347 Z"/>
 <path fill="none" stroke="rgb(179,179,179)" stroke-linejoin="round" d="M 25120,4347 L 21825,4347 21825,819 28414,819 28414,4347 25120,4347 Z"/>
 <path fill="rgb(180,120,4)" stroke="none" d="M 22447,1293 L 22446,1285 22446,1278 22445,1270 22444,1263 22442,1256 22441,1249 22439,1242 22436,1235 22434,1228 22431,1221 22427,1214 22424,1208 22420,1202 22416,1196 22412,1190 22407,1184 22402,1178 22397,1173 22392,1168 22386,1163 22380,1158 22374,1154 22368,1150 22362,1146 22356,1143 22349,1139 22342,1136 22335,1134 22328,1131 22321,1129 22314,1128 22307,1126 22300,1125 22292,1124 22285,1124 22278,1124 22270,1124 22263,1124 22255,1125 22248,1126 22241,1128 22234,1129 22227,1131 22220,1134 22213,1136 22206,1139 22199,1143 22193,1146 22187,1150 22181,1154 22175,1158 22169,1163 22163,1168 22158,1173 22153,1178 22148,1184 22143,1190 22139,1196 22135,1202 22131,1208 22128,1214 22124,1221 22121,1228 22119,1235 22116,1242 22114,1249 22113,1256 22111,1263 22110,1270 22109,1278 22109,1285 22109,1293 22109,1300 22109,1307 22110,1315 22111,1322 22113,1329 22114,1336 22116,1343 22119,1350 22121,1357 22124,1364 22128,1371 22131,1377 22135,1383 22139,1389 22143,1395 22148,1401 22153,1407 22158,1412 22163,1417 22169,1422 22175,1427 22181,1431 22187,1435 22193,1439 22199,1442 22206,1446 22213,1449 22220,1451 22227,1454 22234,1456 22241,1457 22248,1459 22255,1460 22263,1461 22270,1461 22278,1462 22285,1461 22292,1461 22300,1460 22307,1459 22314,1457 22321,1456 22328,1454 22335,1451 22342,1449 22349,1446 22356,1442 22362,1439 22368,1435 22374,1431 22380,1427 22386,1422 22392,1417 22397,1412 22402,1407 22407,1401 22412,1395 22416,1389 22420,1383 22424,1377 22427,1371 22431,1364 22434,1357 22436,1350 22439,1343 22441,1336 22442,1329 22444,1322 22445,1315 22446,1307 22446,1300 22447,1293 Z"/>
 <path fill="none" stroke="rgb(180,120,4)" stroke-linejoin="round" d="M 22447,1293 L 22446,1285 22446,1278 22445,1270 22444,1263 22442,1256 22441,1249 22439,1242 22436,1235 22434,1228 22431,1221 22427,1214 22424,1208 22420,1202 22416,1196 22412,1190 22407,1184 22402,1178 22397,1173 22392,1168 22386,1163 22380,1158 22374,1154 22368,1150 22362,1146 22356,1143 22349,1139 22342,1136 22335,1134 22328,1131 22321,1129 22314,1128 22307,1126 22300,1125 22292,1124 22285,1124 22278,1124 22270,1124 22263,1124 22255,1125 22248,1126 22241,1128 22234,1129 22227,1131 22220,1134 22213,1136 22206,1139 22199,1143 22193,1146 22187,1150 22181,1154 22175,1158 22169,1163 22163,1168 22158,1173 22153,1178 22148,1184 22143,1190 22139,1196 22135,1202 22131,1208 22128,1214 22124,1221 22121,1228 22119,1235 22116,1242 22114,1249 22113,1256 22111,1263 22110,1270 22109,1278 22109,1285 22109,1293 22109,1300 22109,1307 22110,1315 22111,1322 22113,1329 22114,1336 22116,1343 22119,1350 22121,1357 22124,1364 22128,1371 22131,1377 22135,1383 22139,1389 22143,1395 22148,1401 22153,1407 22158,1412 22163,1417 22169,1422 22175,1427 22181,1431 22187,1435 22193,1439 22199,1442 22206,1446 22213,1449 22220,1451 22227,1454 22234,1456 22241,1457 22248,1459 22255,1460 22263,1461 22270,1461 22278,1462 22285,1461 22292,1461 22300,1460 22307,1459 22314,1457 22321,1456 22328,1454 22335,1451 22342,1449 22349,1446 22356,1442 22362,1439 22368,1435 22374,1431 22380,1427 22386,1422 22392,1417 22397,1412 22402,1407 22407,1401 22412,1395 22416,1389 22420,1383 22424,1377 22427,1371 22431,1364 22434,1357 22436,1350 22439,1343 22441,1336 22442,1329 22444,1322 22445,1315 22446,1307 22446,1300 22447,1293 Z"/>
 <path fill="rgb(0,0,0)" stroke="none" d="M 22278,1983 L 22311,2118 22447,2152 22311,2185 22278,2321 22244,2185 22109,2152 22244,2118 22278,1983 Z"/>
 <path fill="none" stroke="rgb(0,0,0)" stroke-linejoin="round" d="M 22278,1983 L 22311,2118 22447,2152 22311,2185 22278,2321 22244,2185 22109,2152 22244,2118 22278,1983 Z"/>
 <path fill="rgb(73,35,0)" stroke="none" d="M 22109,3180 L 22447,3180 22109,2842 22447,2842 22109,3180 Z"/>
 <path fill="none" stroke="rgb(73,35,0)" stroke-linejoin="round" d="M 22109,3180 L 22447,3180 22109,2842 22447,2842 22109,3180 Z"/>
 <path fill="rgb(255,109,109)" stroke="none" d="M 22109,3870 L 22278,4039 22447,3870 22278,3701 22109,3870 Z"/>
 <path fill="none" stroke="rgb(255,109,109)" stroke-linejoin="round" d="M 22109,3870 L 22278,4039 22447,3870 22278,3701 22109,3870 Z"/>
 <text class="SVGTextShape"><tspan class="TextParagraph" font-family="Latin Modern Roman Caps" font-size="564px" font-weight="400"><tspan class="TextPosition" x="22802" y="1518"><tspan fill="rgb(0,0,0)" stroke="none">Cereals</tspan></tspan></tspan></text>
 <text class="SVGTextShape"><tspan class="TextParagraph" font-family="Latin Modern Roman Caps" font-size="564px" font-weight="400"><tspan class="TextPosition" x="22802" y="2377"><tspan fill="rgb(0,0,0)" stroke="none">Milkvee</tspan></tspan></tspan></text>
 <text class="SVGTextShape"><tspan class="TextParagraph" font-family="Latin Modern Roman Caps" font-size="564px" font-weight="400"><tspan class="TextPosition" x="22802" y="3236"><tspan fill="rgb(0,0,0)" stroke="none">Rund + schaap</tspan></tspan></tspan></text>
 <text class="SVGTextShape"><tspan class="TextParagraph" font-family="Latin Modern Roman Caps" font-size="564px" font-weight="400"><tspan class="TextPosition" x="22802" y="4095"><tspan fill="rgb(0,0,0)" stroke="none">Varken + pluimvee</tspan></tspan></tspan></text>
 <text class="SVGTextShape"><tspan class="TextParagraph" font-family="Latin Modern Roman" font-size="706px" font-weight="400"><tspan class="TextPosition" x="13105" y="14532"><tspan fill="rgb(0,0,0)" stroke="none">Aandeel dieren</tspan></tspan></tspan></text>
 <text class="SVGTextShape" transform="rotate(-90 1182 8211)"><tspan class="TextParagraph" font-family="Latin Modern Roman" font-size="706px" font-weight="400"><tspan class="TextPosition" x="1182" y="8211"><tspan fill="rgb(0,0,0)" stroke="none">EROEI</tspan></tspan></tspan></text>
</svg>