<?xml version="1.0" encoding="UTF-8"?>
<!DOCTYPE svg PUBLIC "-//W3C//DTD SVG 1.1//EN" "http://www.w3.org/Graphics/SVG/1.1/DTD/svg11.dtd">
<svg width="300mm" height="150mm" viewBox="0 0 30000 15000" version="1.1" xmlns="http://www.w3.org/2000/svg" xmlns:xlink="http://www.w3.org/1999/xlink" stroke-width="28.222" stroke-linejoin="round" xml:space="preserve">
 <path fill="rgb(255,255,255)" stroke="none" d="M 15000,14999 L 0,14999 0,0 30000,0 30000,14999 15000,14999 Z"/>
 <path fill="none" stroke="rgb(179,179,179)" stroke-linejoin="round" d="M 15772,12543 L 2582,12543 2582,673 28962,673 28962,12543 15772,12543 Z"/>
 <path fill="none" stroke="rgb(179,179,179)" stroke-linejoin="round" d="M 28962,12542 L 2582,12542"/>
 <path fill="none" stroke="rgb(179,179,179)" stroke-linejoin="round" d="M 28962,11059 L 2582,11059"/>
 <path fill="none" stroke="rgb(179,179,179)" stroke-linejoin="round" d="M 28962,9575 L 2582,9575"/>
 <path fill="none" stroke="rgb(179,179,179)" stroke-linejoin="round" d="M 28962,8091 L 2582,8091"/>
 <path fill="none" stroke="rgb(179,179,179)" stroke-linejoin="round" d="M 28962,6607 L 2582,6607"/>
 <path fill="none" stroke="rgb(179,179,179)" stroke-linejoin="round" d="M 28962,5123 L 2582,5123"/>
 <path fill="none" stroke="rgb(179,179,179)" stroke-linejoin="round" d="M 28962,3640 L 2582,3640"/>
 <path fill="none" stroke="rgb(179,179,179)" stroke-linejoin="round" d="M 28962,2156 L 2582,2156"/>
 <path fill="none" stroke="rgb(179,179,179)" stroke-linejoin="round" d="M 28962,672 L 2582,672"/>
 <path fill="none" stroke="rgb(179,179,179)" stroke-linejoin="round" d="M 2582,12692 L 2582,12542"/>
 <path fill="none" stroke="rgb(179,179,179)" stroke-linejoin="round" d="M 2582,12692 L 2582,12542"/>
 <path fill="none" stroke="rgb(179,179,179)" stroke-linejoin="round" d="M 5220,12692 L 5220,12542"/>
 <path fill="none" stroke="rgb(179,179,179)" stroke-linejoin="round" d="M 5220,12692 L 5220,12542"/>
 <path fill="none" stroke="rgb(179,179,179)" stroke-linejoin="round" d="M 7858,12692 L 7858,12542"/>
 <path fill="none" stroke="rgb(179,179,179)" stroke-linejoin="round" d="M 7858,12692 L 7858,12542"/>
 <path fill="none" stroke="rgb(179,179,179)" stroke-linejoin="round" d="M 10496,12692 L 10496,12542"/>
 <path fill="none" stroke="rgb(179,179,179)" stroke-linejoin="round" d="M 10496,12692 L 10496,12542"/>
 <path fill="none" stroke="rgb(179,179,179)" stroke-linejoin="round" d="M 13134,12692 L 13134,12542"/>
 <path fill="none" stroke="rgb(179,179,179)" stroke-linejoin="round" d="M 13134,12692 L 13134,12542"/>
 <path fill="none" stroke="rgb(179,179,179)" stroke-linejoin="round" d="M 15771,12692 L 15771,12542"/>
 <path fill="none" stroke="rgb(179,179,179)" stroke-linejoin="round" d="M 15771,12692 L 15771,12542"/>
 <path fill="none" stroke="rgb(179,179,179)" stroke-linejoin="round" d="M 18409,12692 L 18409,12542"/>
 <path fill="none" stroke="rgb(179,179,179)" stroke-linejoin="round" d="M 18409,12692 L 18409,12542"/>
 <path fill="none" stroke="rgb(179,179,179)" stroke-linejoin="round" d="M 21047,12692 L 21047,12542"/>
 <path fill="none" stroke="rgb(179,179,179)" stroke-linejoin="round" d="M 21047,12692 L 21047,12542"/>
 <path fill="none" stroke="rgb(179,179,179)" stroke-linejoin="round" d="M 23685,12692 L 23685,12542"/>
 <path fill="none" stroke="rgb(179,179,179)" stroke-linejoin="round" d="M 23685,12692 L 23685,12542"/>
 <path fill="none" stroke="rgb(179,179,179)" stroke-linejoin="round" d="M 26323,12692 L 26323,12542"/>
 <path fill="none" stroke="rgb(179,179,179)" stroke-linejoin="round" d="M 26323,12692 L 26323,12542"/>
 <path fill="none" stroke="rgb(179,179,179)" stroke-linejoin="round" d="M 28962,12692 L 28962,12542"/>
 <path fill="none" stroke="rgb(179,179,179)" stroke-linejoin="round" d="M 28962,12692 L 28962,12542"/>
 <path fill="none" stroke="rgb(179,179,179)" stroke-linejoin="round" d="M 2582,12542 L 28962,12542"/>
 <path fill="none" stroke="rgb(179,179,179)" stroke-linejoin="round" d="M 2432,12542 L 2582,12542"/>
 <path fill="none" stroke="rgb(179,179,179)" stroke-linejoin="round" d="M 2432,12542 L 2582,12542"/>
 <path fill="none" stroke="rgb(179,179,179)" stroke-linejoin="round" d="M 2432,11059 L 2582,11059"/>
 <path fill="none" stroke="rgb(179,179,179)" stroke-linejoin="round" d="M 2432,11059 L 2582,11059"/>
 <path fill="none" stroke="rgb(179,179,179)" stroke-linejoin="round" d="M 2432,9575 L 2582,9575"/>
 <path fill="none" stroke="rgb(179,179,179)" stroke-linejoin="round" d="M 2432,9575 L 2582,9575"/>
 <path fill="none" stroke="rgb(179,179,179)" stroke-linejoin="round" d="M 2432,8091 L 2582,8091"/>
 <path fill="none" stroke="rgb(179,179,179)" stroke-linejoin="round" d="M 2432,8091 L 2582,8091"/>
 <path fill="none" stroke="rgb(179,179,179)" stroke-linejoin="round" d="M 2432,6607 L 2582,6607"/>
 <path fill="none" stroke="rgb(179,179,179)" stroke-linejoin="round" d="M 2432,6607 L 2582,6607"/>
 <path fill="none" stroke="rgb(179,179,179)" stroke-linejoin="round" d="M 2432,5123 L 2582,5123"/>
 <path fill="none" stroke="rgb(179,179,179)" stroke-linejoin="round" d="M 2432,5123 L 2582,5123"/>
 <path fill="none" stroke="rgb(179,179,179)" stroke-linejoin="round" d="M 2432,3640 L 2582,3640"/>
 <path fill="none" stroke="rgb(179,179,179)" stroke-linejoin="round" d="M 2432,3640 L 2582,3640"/>
 <path fill="none" stroke="rgb(179,179,179)" stroke-linejoin="round" d="M 2432,2156 L 2582,2156"/>
 <path fill="none" stroke="rgb(179,179,179)" stroke-linejoin="round" d="M 2432,2156 L 2582,2156"/>
 <path fill="none" stroke="rgb(179,179,179)" stroke-linejoin="round" d="M 2432,672 L 2582,672"/>
 <path fill="none" stroke="rgb(179,179,179)" stroke-linejoin="round" d="M 2432,672 L 2582,672"/>
 <path fill="none" stroke="rgb(179,179,179)" stroke-linejoin="round" d="M 2582,12542 L 2582,672"/>
 <path fill="rgb(175,208,149)" stroke="none" d="M 2466,12285 L 2716,12285 2591,12035 2466,12285 Z"/>
 <path fill="none" stroke="rgb(175,208,149)" stroke-linejoin="round" d="M 2466,12285 L 2716,12285 2591,12035 2466,12285 Z"/>
 <path fill="rgb(175,208,149)" stroke="none" d="M 2508,12295 L 2758,12295 2633,12045 2508,12295 Z"/>
 <path fill="none" stroke="rgb(175,208,149)" stroke-linejoin="round" d="M 2508,12295 L 2758,12295 2633,12045 2508,12295 Z"/>
 <path fill="rgb(175,208,149)" stroke="none" d="M 19198,11032 L 19448,11032 19323,10782 19198,11032 Z"/>
 <path fill="none" stroke="rgb(175,208,149)" stroke-linejoin="round" d="M 19198,11032 L 19448,11032 19323,10782 19198,11032 Z"/>
 <path fill="rgb(175,208,149)" stroke="none" d="M 28837,7772 L 29087,7772 28962,7522 28837,7772 Z"/>
 <path fill="none" stroke="rgb(175,208,149)" stroke-linejoin="round" d="M 28837,7772 L 29087,7772 28962,7522 28837,7772 Z"/>
 <path fill="rgb(175,208,149)" stroke="none" d="M 28837,7267 L 29087,7267 28962,7017 28837,7267 Z"/>
 <path fill="none" stroke="rgb(175,208,149)" stroke-linejoin="round" d="M 28837,7267 L 29087,7267 28962,7017 28837,7267 Z"/>
 <path fill="rgb(175,208,149)" stroke="none" d="M 28837,8463 L 29087,8463 28962,8213 28837,8463 Z"/>
 <path fill="none" stroke="rgb(175,208,149)" stroke-linejoin="round" d="M 28837,8463 L 29087,8463 28962,8213 28837,8463 Z"/>
 <path fill="rgb(175,208,149)" stroke="none" d="M 28837,5730 L 29087,5730 28962,5480 28837,5730 Z"/>
 <path fill="none" stroke="rgb(175,208,149)" stroke-linejoin="round" d="M 28837,5730 L 29087,5730 28962,5480 28837,5730 Z"/>
 <path fill="rgb(175,208,149)" stroke="none" d="M 2581,12035 L 2581,12143 2476,12082 2466,12099 2572,12160 2466,12221 2476,12238 2581,12177 2581,12285 2601,12285 2601,12177 2706,12238 2716,12221 2611,12160 2716,12099 2706,12082 2601,12143 2601,12035 2581,12035 Z"/>
 <path fill="none" stroke="rgb(175,208,149)" stroke-linejoin="round" d="M 2581,12035 L 2581,12143 2476,12082 2466,12099 2572,12160 2466,12221 2476,12238 2581,12177 2581,12285 2601,12285 2601,12177 2706,12238 2716,12221 2611,12160 2716,12099 2706,12082 2601,12143 2601,12035 2581,12035 Z"/>
 <path fill="rgb(175,208,149)" stroke="none" d="M 2623,12045 L 2623,12153 2518,12092 2508,12109 2613,12170 2508,12231 2518,12248 2623,12187 2623,12295 2643,12295 2643,12187 2748,12248 2758,12231 2652,12170 2758,12109 2748,12092 2643,12153 2643,12045 2623,12045 Z"/>
 <path fill="none" stroke="rgb(175,208,149)" stroke-linejoin="round" d="M 2623,12045 L 2623,12153 2518,12092 2508,12109 2613,12170 2508,12231 2518,12248 2623,12187 2623,12295 2643,12295 2643,12187 2748,12248 2758,12231 2652,12170 2758,12109 2748,12092 2643,12153 2643,12045 2623,12045 Z"/>
 <path fill="rgb(175,208,149)" stroke="none" d="M 19314,10782 L 19314,10890 19208,10829 19198,10846 19304,10907 19198,10968 19208,10985 19314,10924 19314,11032 19333,11032 19333,10924 19439,10985 19448,10968 19343,10907 19448,10846 19439,10829 19333,10890 19333,10782 19314,10782 Z"/>
 <path fill="none" stroke="rgb(175,208,149)" stroke-linejoin="round" d="M 19314,10782 L 19314,10890 19208,10829 19198,10846 19304,10907 19198,10968 19208,10985 19314,10924 19314,11032 19333,11032 19333,10924 19439,10985 19448,10968 19343,10907 19448,10846 19439,10829 19333,10890 19333,10782 19314,10782 Z"/>
 <path fill="rgb(175,208,149)" stroke="none" d="M 28952,7522 L 28952,7630 28846,7569 28837,7586 28942,7647 28837,7708 28846,7725 28952,7664 28952,7772 28971,7772 28971,7664 29077,7725 29087,7708 28981,7647 29087,7586 29077,7569 28971,7630 28971,7522 28952,7522 Z"/>
 <path fill="none" stroke="rgb(175,208,149)" stroke-linejoin="round" d="M 28952,7522 L 28952,7630 28846,7569 28837,7586 28942,7647 28837,7708 28846,7725 28952,7664 28952,7772 28971,7772 28971,7664 29077,7725 29087,7708 28981,7647 29087,7586 29077,7569 28971,7630 28971,7522 28952,7522 Z"/>
 <path fill="rgb(175,208,149)" stroke="none" d="M 28952,7017 L 28952,7125 28846,7064 28837,7081 28942,7142 28837,7203 28846,7220 28952,7159 28952,7267 28971,7267 28971,7159 29077,7220 29087,7203 28981,7142 29087,7081 29077,7064 28971,7125 28971,7017 28952,7017 Z"/>
 <path fill="none" stroke="rgb(175,208,149)" stroke-linejoin="round" d="M 28952,7017 L 28952,7125 28846,7064 28837,7081 28942,7142 28837,7203 28846,7220 28952,7159 28952,7267 28971,7267 28971,7159 29077,7220 29087,7203 28981,7142 29087,7081 29077,7064 28971,7125 28971,7017 28952,7017 Z"/>
 <path fill="rgb(175,208,149)" stroke="none" d="M 28952,8213 L 28952,8321 28846,8260 28837,8277 28942,8338 28837,8399 28846,8416 28952,8355 28952,8463 28971,8463 28971,8355 29077,8416 29087,8399 28981,8338 29087,8277 29077,8260 28971,8321 28971,8213 28952,8213 Z"/>
 <path fill="none" stroke="rgb(175,208,149)" stroke-linejoin="round" d="M 28952,8213 L 28952,8321 28846,8260 28837,8277 28942,8338 28837,8399 28846,8416 28952,8355 28952,8463 28971,8463 28971,8355 29077,8416 29087,8399 28981,8338 29087,8277 29077,8260 28971,8321 28971,8213 28952,8213 Z"/>
 <path fill="rgb(175,208,149)" stroke="none" d="M 28952,5480 L 28952,5588 28846,5527 28837,5544 28942,5605 28837,5666 28846,5683 28952,5622 28952,5730 28971,5730 28971,5622 29077,5683 29087,5666 28981,5605 29087,5544 29077,5527 28971,5588 28971,5480 28952,5480 Z"/>
 <path fill="none" stroke="rgb(175,208,149)" stroke-linejoin="round" d="M 28952,5480 L 28952,5588 28846,5527 28837,5544 28942,5605 28837,5666 28846,5683 28952,5622 28952,5730 28971,5730 28971,5622 29077,5683 29087,5666 28981,5605 29087,5544 29077,5527 28971,5588 28971,5480 28952,5480 Z"/>
 <path fill="rgb(255,134,13)" stroke="none" d="M 2457,11722 L 2582,11972 2707,11722 2457,11722 Z"/>
 <path fill="none" stroke="rgb(255,134,13)" stroke-linejoin="round" d="M 2457,11722 L 2582,11972 2707,11722 2457,11722 Z"/>
 <path fill="rgb(255,134,13)" stroke="none" d="M 2472,11652 L 2597,11902 2722,11652 2472,11652 Z"/>
 <path fill="none" stroke="rgb(255,134,13)" stroke-linejoin="round" d="M 2472,11652 L 2597,11902 2722,11652 2472,11652 Z"/>
 <path fill="rgb(255,134,13)" stroke="none" d="M 2583,11409 L 2708,11659 2833,11409 2583,11409 Z"/>
 <path fill="none" stroke="rgb(255,134,13)" stroke-linejoin="round" d="M 2583,11409 L 2708,11659 2833,11409 2583,11409 Z"/>
 <path fill="rgb(255,134,13)" stroke="none" d="M 11543,9305 L 11668,9555 11793,9305 11543,9305 Z"/>
 <path fill="none" stroke="rgb(255,134,13)" stroke-linejoin="round" d="M 11543,9305 L 11668,9555 11793,9305 11543,9305 Z"/>
 <path fill="rgb(255,134,13)" stroke="none" d="M 15726,10914 L 15851,11164 15976,10914 15726,10914 Z"/>
 <path fill="none" stroke="rgb(255,134,13)" stroke-linejoin="round" d="M 15726,10914 L 15851,11164 15976,10914 15726,10914 Z"/>
 <path fill="rgb(255,134,13)" stroke="none" d="M 19631,10971 L 19756,11221 19881,10971 19631,10971 Z"/>
 <path fill="none" stroke="rgb(255,134,13)" stroke-linejoin="round" d="M 19631,10971 L 19756,11221 19881,10971 19631,10971 Z"/>
 <path fill="rgb(255,134,13)" stroke="none" d="M 22257,11245 L 22382,11494 22507,11245 22257,11245 Z"/>
 <path fill="none" stroke="rgb(255,134,13)" stroke-linejoin="round" d="M 22257,11245 L 22382,11494 22507,11245 22257,11245 Z"/>
 <path fill="rgb(255,134,13)" stroke="none" d="M 27600,3329 L 27725,3579 27850,3329 27600,3329 Z"/>
 <path fill="none" stroke="rgb(255,134,13)" stroke-linejoin="round" d="M 27600,3329 L 27725,3579 27850,3329 27600,3329 Z"/>
 <path fill="rgb(255,134,13)" stroke="none" d="M 27763,8393 L 27888,8643 28013,8393 27763,8393 Z"/>
 <path fill="none" stroke="rgb(255,134,13)" stroke-linejoin="round" d="M 27763,8393 L 27888,8643 28013,8393 27763,8393 Z"/>
 <path fill="rgb(255,134,13)" stroke="none" d="M 28837,1206 L 28962,1456 29087,1206 28837,1206 Z"/>
 <path fill="none" stroke="rgb(255,134,13)" stroke-linejoin="round" d="M 28837,1206 L 28962,1456 29087,1206 28837,1206 Z"/>
 <path fill="rgb(255,134,13)" stroke="none" d="M 2707,11847 L 2706,11842 2706,11836 2705,11831 2705,11825 2704,11820 2702,11815 2701,11809 2699,11804 2697,11799 2695,11794 2692,11789 2690,11785 2687,11780 2684,11775 2681,11771 2677,11767 2674,11763 2670,11759 2666,11755 2662,11751 2658,11748 2653,11745 2649,11742 2644,11739 2639,11736 2634,11734 2629,11732 2624,11730 2619,11728 2614,11726 2609,11725 2603,11724 2598,11723 2592,11723 2587,11722 2582,11722 2576,11722 2571,11723 2565,11723 2560,11724 2554,11725 2549,11726 2544,11728 2539,11730 2534,11732 2529,11734 2524,11736 2519,11739 2514,11742 2510,11745 2505,11748 2501,11751 2497,11755 2493,11759 2489,11763 2486,11767 2482,11771 2479,11775 2476,11780 2473,11785 2471,11789 2468,11794 2466,11799 2464,11804 2462,11809 2461,11815 2459,11820 2458,11825 2458,11831 2457,11836 2457,11842 2457,11847 2457,11853 2457,11858 2458,11863 2458,11869 2459,11874 2461,11879 2462,11885 2464,11890 2466,11895 2468,11900 2471,11905 2473,11910 2476,11914 2479,11919 2482,11923 2486,11927 2489,11932 2493,11935 2497,11939 2501,11943 2505,11946 2510,11949 2514,11952 2519,11955 2524,11958 2529,11960 2534,11963 2539,11965 2544,11966 2549,11968 2554,11969 2560,11970 2565,11971 2571,11972 2576,11972 2582,11972 2587,11972 2592,11972 2598,11971 2603,11970 2609,11969 2614,11968 2619,11966 2624,11965 2629,11963 2634,11960 2639,11958 2644,11955 2649,11952 2653,11949 2658,11946 2662,11943 2666,11939 2670,11935 2674,11932 2677,11927 2681,11923 2684,11919 2687,11914 2690,11910 2692,11905 2695,11900 2697,11895 2699,11890 2701,11885 2702,11879 2704,11874 2705,11869 2705,11863 2706,11858 2706,11853 2707,11847 Z"/>
 <path fill="none" stroke="rgb(255,134,13)" stroke-linejoin="round" d="M 2707,11847 L 2706,11842 2706,11836 2705,11831 2705,11825 2704,11820 2702,11815 2701,11809 2699,11804 2697,11799 2695,11794 2692,11789 2690,11785 2687,11780 2684,11775 2681,11771 2677,11767 2674,11763 2670,11759 2666,11755 2662,11751 2658,11748 2653,11745 2649,11742 2644,11739 2639,11736 2634,11734 2629,11732 2624,11730 2619,11728 2614,11726 2609,11725 2603,11724 2598,11723 2592,11723 2587,11722 2582,11722 2576,11722 2571,11723 2565,11723 2560,11724 2554,11725 2549,11726 2544,11728 2539,11730 2534,11732 2529,11734 2524,11736 2519,11739 2514,11742 2510,11745 2505,11748 2501,11751 2497,11755 2493,11759 2489,11763 2486,11767 2482,11771 2479,11775 2476,11780 2473,11785 2471,11789 2468,11794 2466,11799 2464,11804 2462,11809 2461,11815 2459,11820 2458,11825 2458,11831 2457,11836 2457,11842 2457,11847 2457,11853 2457,11858 2458,11863 2458,11869 2459,11874 2461,11879 2462,11885 2464,11890 2466,11895 2468,11900 2471,11905 2473,11910 2476,11914 2479,11919 2482,11923 2486,11927 2489,11932 2493,11935 2497,11939 2501,11943 2505,11946 2510,11949 2514,11952 2519,11955 2524,11958 2529,11960 2534,11963 2539,11965 2544,11966 2549,11968 2554,11969 2560,11970 2565,11971 2571,11972 2576,11972 2582,11972 2587,11972 2592,11972 2598,11971 2603,11970 2609,11969 2614,11968 2619,11966 2624,11965 2629,11963 2634,11960 2639,11958 2644,11955 2649,11952 2653,11949 2658,11946 2662,11943 2666,11939 2670,11935 2674,11932 2677,11927 2681,11923 2684,11919 2687,11914 2690,11910 2692,11905 2695,11900 2697,11895 2699,11890 2701,11885 2702,11879 2704,11874 2705,11869 2705,11863 2706,11858 2706,11853 2707,11847 Z"/>
 <path fill="rgb(255,134,13)" stroke="none" d="M 2722,11777 L 2722,11771 2722,11766 2721,11760 2720,11755 2719,11750 2718,11744 2716,11739 2715,11734 2713,11729 2710,11724 2708,11719 2705,11714 2702,11710 2699,11705 2696,11701 2693,11696 2689,11692 2685,11688 2682,11685 2677,11681 2673,11678 2669,11674 2664,11671 2660,11669 2655,11666 2650,11663 2645,11661 2640,11659 2635,11658 2629,11656 2624,11655 2619,11654 2613,11653 2608,11652 2603,11652 2597,11652 2592,11652 2586,11652 2581,11653 2575,11654 2570,11655 2565,11656 2559,11658 2554,11659 2549,11661 2544,11663 2539,11666 2535,11669 2530,11671 2525,11674 2521,11678 2517,11681 2513,11685 2509,11688 2505,11692 2501,11696 2498,11701 2495,11705 2492,11710 2489,11714 2486,11719 2484,11724 2482,11729 2480,11734 2478,11739 2476,11744 2475,11750 2474,11755 2473,11760 2473,11766 2472,11771 2472,11777 2472,11782 2473,11788 2473,11793 2474,11798 2475,11804 2476,11809 2478,11814 2480,11820 2482,11825 2484,11830 2486,11834 2489,11839 2492,11844 2495,11848 2498,11853 2501,11857 2505,11861 2509,11865 2513,11869 2517,11873 2521,11876 2525,11879 2530,11882 2535,11885 2539,11888 2544,11890 2549,11892 2554,11894 2559,11896 2565,11898 2570,11899 2575,11900 2581,11901 2586,11901 2592,11902 2597,11902 2603,11902 2608,11901 2613,11901 2619,11900 2624,11899 2629,11898 2635,11896 2640,11894 2645,11892 2650,11890 2655,11888 2660,11885 2664,11882 2669,11879 2673,11876 2677,11873 2682,11869 2685,11865 2689,11861 2693,11857 2696,11853 2699,11848 2702,11844 2705,11839 2708,11834 2710,11830 2713,11825 2715,11820 2716,11814 2718,11809 2719,11804 2720,11798 2721,11793 2722,11788 2722,11782 2722,11777 Z"/>
 <path fill="none" stroke="rgb(255,134,13)" stroke-linejoin="round" d="M 2722,11777 L 2722,11771 2722,11766 2721,11760 2720,11755 2719,11750 2718,11744 2716,11739 2715,11734 2713,11729 2710,11724 2708,11719 2705,11714 2702,11710 2699,11705 2696,11701 2693,11696 2689,11692 2685,11688 2682,11685 2677,11681 2673,11678 2669,11674 2664,11671 2660,11669 2655,11666 2650,11663 2645,11661 2640,11659 2635,11658 2629,11656 2624,11655 2619,11654 2613,11653 2608,11652 2603,11652 2597,11652 2592,11652 2586,11652 2581,11653 2575,11654 2570,11655 2565,11656 2559,11658 2554,11659 2549,11661 2544,11663 2539,11666 2535,11669 2530,11671 2525,11674 2521,11678 2517,11681 2513,11685 2509,11688 2505,11692 2501,11696 2498,11701 2495,11705 2492,11710 2489,11714 2486,11719 2484,11724 2482,11729 2480,11734 2478,11739 2476,11744 2475,11750 2474,11755 2473,11760 2473,11766 2472,11771 2472,11777 2472,11782 2473,11788 2473,11793 2474,11798 2475,11804 2476,11809 2478,11814 2480,11820 2482,11825 2484,11830 2486,11834 2489,11839 2492,11844 2495,11848 2498,11853 2501,11857 2505,11861 2509,11865 2513,11869 2517,11873 2521,11876 2525,11879 2530,11882 2535,11885 2539,11888 2544,11890 2549,11892 2554,11894 2559,11896 2565,11898 2570,11899 2575,11900 2581,11901 2586,11901 2592,11902 2597,11902 2603,11902 2608,11901 2613,11901 2619,11900 2624,11899 2629,11898 2635,11896 2640,11894 2645,11892 2650,11890 2655,11888 2660,11885 2664,11882 2669,11879 2673,11876 2677,11873 2682,11869 2685,11865 2689,11861 2693,11857 2696,11853 2699,11848 2702,11844 2705,11839 2708,11834 2710,11830 2713,11825 2715,11820 2716,11814 2718,11809 2719,11804 2720,11798 2721,11793 2722,11788 2722,11782 2722,11777 Z"/>
 <path fill="rgb(255,134,13)" stroke="none" d="M 2833,11534 L 2833,11529 2833,11523 2832,11518 2831,11513 2830,11507 2829,11502 2827,11497 2826,11492 2824,11486 2821,11481 2819,11477 2816,11472 2814,11467 2811,11463 2807,11458 2804,11454 2800,11450 2797,11446 2793,11442 2788,11438 2784,11435 2780,11432 2775,11429 2771,11426 2766,11423 2761,11421 2756,11419 2751,11417 2746,11415 2740,11414 2735,11412 2730,11411 2724,11410 2719,11410 2714,11409 2708,11409 2703,11409 2697,11410 2692,11410 2686,11411 2681,11412 2676,11414 2671,11415 2665,11417 2660,11419 2655,11421 2650,11423 2646,11426 2641,11429 2636,11432 2632,11435 2628,11438 2624,11442 2620,11446 2616,11450 2612,11454 2609,11458 2606,11463 2603,11467 2600,11472 2597,11477 2595,11481 2593,11486 2591,11492 2589,11497 2587,11502 2586,11507 2585,11513 2584,11518 2584,11523 2583,11529 2583,11534 2583,11540 2584,11545 2584,11551 2585,11556 2586,11561 2587,11567 2589,11572 2591,11577 2593,11582 2595,11587 2597,11592 2600,11597 2603,11601 2606,11606 2609,11610 2612,11615 2616,11619 2620,11623 2624,11626 2628,11630 2632,11633 2636,11637 2641,11640 2646,11643 2650,11645 2655,11648 2660,11650 2665,11652 2671,11653 2676,11655 2681,11656 2686,11657 2692,11658 2697,11659 2703,11659 2708,11659 2714,11659 2719,11659 2724,11658 2730,11657 2735,11656 2740,11655 2746,11653 2751,11652 2756,11650 2761,11648 2766,11645 2771,11643 2775,11640 2780,11637 2784,11633 2788,11630 2793,11626 2797,11623 2800,11619 2804,11615 2807,11610 2811,11606 2814,11601 2816,11597 2819,11592 2821,11587 2824,11582 2826,11577 2827,11572 2829,11567 2830,11561 2831,11556 2832,11551 2833,11545 2833,11540 2833,11534 Z"/>
 <path fill="none" stroke="rgb(255,134,13)" stroke-linejoin="round" d="M 2833,11534 L 2833,11529 2833,11523 2832,11518 2831,11513 2830,11507 2829,11502 2827,11497 2826,11492 2824,11486 2821,11481 2819,11477 2816,11472 2814,11467 2811,11463 2807,11458 2804,11454 2800,11450 2797,11446 2793,11442 2788,11438 2784,11435 2780,11432 2775,11429 2771,11426 2766,11423 2761,11421 2756,11419 2751,11417 2746,11415 2740,11414 2735,11412 2730,11411 2724,11410 2719,11410 2714,11409 2708,11409 2703,11409 2697,11410 2692,11410 2686,11411 2681,11412 2676,11414 2671,11415 2665,11417 2660,11419 2655,11421 2650,11423 2646,11426 2641,11429 2636,11432 2632,11435 2628,11438 2624,11442 2620,11446 2616,11450 2612,11454 2609,11458 2606,11463 2603,11467 2600,11472 2597,11477 2595,11481 2593,11486 2591,11492 2589,11497 2587,11502 2586,11507 2585,11513 2584,11518 2584,11523 2583,11529 2583,11534 2583,11540 2584,11545 2584,11551 2585,11556 2586,11561 2587,11567 2589,11572 2591,11577 2593,11582 2595,11587 2597,11592 2600,11597 2603,11601 2606,11606 2609,11610 2612,11615 2616,11619 2620,11623 2624,11626 2628,11630 2632,11633 2636,11637 2641,11640 2646,11643 2650,11645 2655,11648 2660,11650 2665,11652 2671,11653 2676,11655 2681,11656 2686,11657 2692,11658 2697,11659 2703,11659 2708,11659 2714,11659 2719,11659 2724,11658 2730,11657 2735,11656 2740,11655 2746,11653 2751,11652 2756,11650 2761,11648 2766,11645 2771,11643 2775,11640 2780,11637 2784,11633 2788,11630 2793,11626 2797,11623 2800,11619 2804,11615 2807,11610 2811,11606 2814,11601 2816,11597 2819,11592 2821,11587 2824,11582 2826,11577 2827,11572 2829,11567 2830,11561 2831,11556 2832,11551 2833,11545 2833,11540 2833,11534 Z"/>
 <path fill="rgb(255,134,13)" stroke="none" d="M 11793,9430 L 11793,9425 11793,9419 11792,9414 11791,9409 11790,9403 11789,9398 11788,9393 11786,9387 11784,9382 11782,9377 11779,9373 11777,9368 11774,9363 11771,9359 11767,9354 11764,9350 11760,9346 11757,9342 11753,9338 11749,9334 11744,9331 11740,9328 11735,9325 11731,9322 11726,9319 11721,9317 11716,9315 11711,9313 11706,9311 11701,9309 11695,9308 11690,9307 11685,9306 11679,9306 11674,9305 11668,9305 11663,9305 11657,9306 11652,9306 11647,9307 11641,9308 11636,9309 11631,9311 11626,9313 11620,9315 11615,9317 11611,9319 11606,9322 11601,9325 11597,9328 11592,9331 11588,9334 11584,9338 11580,9342 11576,9346 11573,9350 11569,9354 11566,9359 11563,9363 11560,9368 11557,9373 11555,9377 11553,9382 11551,9387 11549,9393 11548,9398 11546,9403 11545,9409 11544,9414 11544,9419 11543,9425 11543,9430 11543,9436 11544,9441 11544,9447 11545,9452 11546,9457 11548,9463 11549,9468 11551,9473 11553,9478 11555,9483 11557,9488 11560,9493 11563,9497 11566,9502 11569,9506 11573,9511 11576,9515 11580,9519 11584,9522 11588,9526 11592,9529 11597,9533 11601,9536 11606,9538 11611,9541 11615,9544 11620,9546 11626,9548 11631,9549 11636,9551 11641,9552 11647,9553 11652,9554 11657,9555 11663,9555 11668,9555 11674,9555 11679,9555 11685,9554 11690,9553 11695,9552 11701,9551 11706,9549 11711,9548 11716,9546 11721,9544 11726,9541 11731,9538 11735,9536 11740,9533 11744,9529 11749,9526 11753,9522 11757,9519 11760,9515 11764,9511 11767,9506 11771,9502 11774,9497 11777,9493 11779,9488 11782,9483 11784,9478 11786,9473 11788,9468 11789,9463 11790,9457 11791,9452 11792,9447 11793,9441 11793,9436 11793,9430 Z"/>
 <path fill="none" stroke="rgb(255,134,13)" stroke-linejoin="round" d="M 11793,9430 L 11793,9425 11793,9419 11792,9414 11791,9409 11790,9403 11789,9398 11788,9393 11786,9387 11784,9382 11782,9377 11779,9373 11777,9368 11774,9363 11771,9359 11767,9354 11764,9350 11760,9346 11757,9342 11753,9338 11749,9334 11744,9331 11740,9328 11735,9325 11731,9322 11726,9319 11721,9317 11716,9315 11711,9313 11706,9311 11701,9309 11695,9308 11690,9307 11685,9306 11679,9306 11674,9305 11668,9305 11663,9305 11657,9306 11652,9306 11647,9307 11641,9308 11636,9309 11631,9311 11626,9313 11620,9315 11615,9317 11611,9319 11606,9322 11601,9325 11597,9328 11592,9331 11588,9334 11584,9338 11580,9342 11576,9346 11573,9350 11569,9354 11566,9359 11563,9363 11560,9368 11557,9373 11555,9377 11553,9382 11551,9387 11549,9393 11548,9398 11546,9403 11545,9409 11544,9414 11544,9419 11543,9425 11543,9430 11543,9436 11544,9441 11544,9447 11545,9452 11546,9457 11548,9463 11549,9468 11551,9473 11553,9478 11555,9483 11557,9488 11560,9493 11563,9497 11566,9502 11569,9506 11573,9511 11576,9515 11580,9519 11584,9522 11588,9526 11592,9529 11597,9533 11601,9536 11606,9538 11611,9541 11615,9544 11620,9546 11626,9548 11631,9549 11636,9551 11641,9552 11647,9553 11652,9554 11657,9555 11663,9555 11668,9555 11674,9555 11679,9555 11685,9554 11690,9553 11695,9552 11701,9551 11706,9549 11711,9548 11716,9546 11721,9544 11726,9541 11731,9538 11735,9536 11740,9533 11744,9529 11749,9526 11753,9522 11757,9519 11760,9515 11764,9511 11767,9506 11771,9502 11774,9497 11777,9493 11779,9488 11782,9483 11784,9478 11786,9473 11788,9468 11789,9463 11790,9457 11791,9452 11792,9447 11793,9441 11793,9436 11793,9430 Z"/>
 <path fill="rgb(255,134,13)" stroke="none" d="M 15976,11039 L 15976,11033 15976,11028 15975,11023 15974,11017 15973,11012 15972,11006 15971,11001 15969,10996 15967,10991 15965,10986 15962,10981 15960,10976 15957,10972 15954,10967 15950,10963 15947,10958 15943,10954 15940,10950 15936,10947 15932,10943 15927,10940 15923,10936 15918,10933 15914,10931 15909,10928 15904,10926 15899,10923 15894,10921 15889,10920 15884,10918 15878,10917 15873,10916 15868,10915 15862,10914 15857,10914 15851,10914 15846,10914 15840,10914 15835,10915 15830,10916 15824,10917 15819,10918 15814,10920 15809,10921 15803,10923 15798,10926 15794,10928 15789,10931 15784,10933 15780,10936 15775,10940 15771,10943 15767,10947 15763,10950 15759,10954 15756,10958 15752,10963 15749,10967 15746,10972 15743,10976 15740,10981 15738,10986 15736,10991 15734,10996 15732,11001 15731,11006 15729,11012 15728,11017 15727,11023 15727,11028 15726,11033 15726,11039 15726,11044 15727,11050 15727,11055 15728,11061 15729,11066 15731,11071 15732,11076 15734,11082 15736,11087 15738,11092 15740,11097 15743,11101 15746,11106 15749,11111 15752,11115 15756,11119 15759,11123 15763,11127 15767,11131 15771,11135 15775,11138 15780,11141 15784,11144 15789,11147 15794,11150 15798,11152 15803,11154 15809,11156 15814,11158 15819,11160 15824,11161 15830,11162 15835,11163 15840,11163 15846,11164 15851,11164 15857,11164 15862,11163 15868,11163 15873,11162 15878,11161 15884,11160 15889,11158 15894,11156 15899,11154 15904,11152 15909,11150 15914,11147 15918,11144 15923,11141 15927,11138 15932,11135 15936,11131 15940,11127 15943,11123 15947,11119 15950,11115 15954,11111 15957,11106 15960,11101 15962,11097 15965,11092 15967,11087 15969,11082 15971,11076 15972,11071 15973,11066 15974,11061 15975,11055 15976,11050 15976,11044 15976,11039 Z"/>
 <path fill="none" stroke="rgb(255,134,13)" stroke-linejoin="round" d="M 15976,11039 L 15976,11033 15976,11028 15975,11023 15974,11017 15973,11012 15972,11006 15971,11001 15969,10996 15967,10991 15965,10986 15962,10981 15960,10976 15957,10972 15954,10967 15950,10963 15947,10958 15943,10954 15940,10950 15936,10947 15932,10943 15927,10940 15923,10936 15918,10933 15914,10931 15909,10928 15904,10926 15899,10923 15894,10921 15889,10920 15884,10918 15878,10917 15873,10916 15868,10915 15862,10914 15857,10914 15851,10914 15846,10914 15840,10914 15835,10915 15830,10916 15824,10917 15819,10918 15814,10920 15809,10921 15803,10923 15798,10926 15794,10928 15789,10931 15784,10933 15780,10936 15775,10940 15771,10943 15767,10947 15763,10950 15759,10954 15756,10958 15752,10963 15749,10967 15746,10972 15743,10976 15740,10981 15738,10986 15736,10991 15734,10996 15732,11001 15731,11006 15729,11012 15728,11017 15727,11023 15727,11028 15726,11033 15726,11039 15726,11044 15727,11050 15727,11055 15728,11061 15729,11066 15731,11071 15732,11076 15734,11082 15736,11087 15738,11092 15740,11097 15743,11101 15746,11106 15749,11111 15752,11115 15756,11119 15759,11123 15763,11127 15767,11131 15771,11135 15775,11138 15780,11141 15784,11144 15789,11147 15794,11150 15798,11152 15803,11154 15809,11156 15814,11158 15819,11160 15824,11161 15830,11162 15835,11163 15840,11163 15846,11164 15851,11164 15857,11164 15862,11163 15868,11163 15873,11162 15878,11161 15884,11160 15889,11158 15894,11156 15899,11154 15904,11152 15909,11150 15914,11147 15918,11144 15923,11141 15927,11138 15932,11135 15936,11131 15940,11127 15943,11123 15947,11119 15950,11115 15954,11111 15957,11106 15960,11101 15962,11097 15965,11092 15967,11087 15969,11082 15971,11076 15972,11071 15973,11066 15974,11061 15975,11055 15976,11050 15976,11044 15976,11039 Z"/>
 <path fill="rgb(255,134,13)" stroke="none" d="M 19881,11096 L 19881,11090 19880,11085 19880,11080 19879,11074 19878,11069 19877,11063 19875,11058 19873,11053 19871,11048 19869,11043 19867,11038 19864,11033 19861,11029 19858,11024 19855,11020 19852,11015 19848,11011 19844,11007 19840,11004 19836,11000 19832,10997 19828,10993 19823,10990 19818,10988 19814,10985 19809,10983 19804,10980 19799,10978 19793,10977 19788,10975 19783,10974 19778,10973 19772,10972 19767,10971 19761,10971 19756,10971 19750,10971 19745,10971 19740,10972 19734,10973 19729,10974 19724,10975 19718,10977 19713,10978 19708,10980 19703,10983 19698,10985 19693,10988 19689,10990 19684,10993 19680,10997 19676,11000 19671,11004 19667,11007 19664,11011 19660,11015 19657,11020 19653,11024 19650,11029 19648,11033 19645,11038 19643,11043 19640,11048 19638,11053 19637,11058 19635,11063 19634,11069 19633,11074 19632,11080 19631,11085 19631,11090 19631,11096 19631,11101 19631,11107 19632,11112 19633,11118 19634,11123 19635,11128 19637,11133 19638,11139 19640,11144 19643,11149 19645,11154 19648,11158 19650,11163 19653,11168 19657,11172 19660,11176 19664,11180 19667,11184 19671,11188 19676,11192 19680,11195 19684,11198 19689,11201 19693,11204 19698,11207 19703,11209 19708,11211 19713,11213 19718,11215 19724,11217 19729,11218 19734,11219 19740,11220 19745,11220 19750,11221 19756,11221 19761,11221 19767,11220 19772,11220 19778,11219 19783,11218 19788,11217 19793,11215 19799,11213 19804,11211 19809,11209 19814,11207 19818,11204 19823,11201 19828,11198 19832,11195 19836,11192 19840,11188 19844,11184 19848,11180 19852,11176 19855,11172 19858,11168 19861,11163 19864,11158 19867,11154 19869,11149 19871,11144 19873,11139 19875,11133 19877,11128 19878,11123 19879,11118 19880,11112 19880,11107 19881,11101 19881,11096 Z"/>
 <path fill="none" stroke="rgb(255,134,13)" stroke-linejoin="round" d="M 19881,11096 L 19881,11090 19880,11085 19880,11080 19879,11074 19878,11069 19877,11063 19875,11058 19873,11053 19871,11048 19869,11043 19867,11038 19864,11033 19861,11029 19858,11024 19855,11020 19852,11015 19848,11011 19844,11007 19840,11004 19836,11000 19832,10997 19828,10993 19823,10990 19818,10988 19814,10985 19809,10983 19804,10980 19799,10978 19793,10977 19788,10975 19783,10974 19778,10973 19772,10972 19767,10971 19761,10971 19756,10971 19750,10971 19745,10971 19740,10972 19734,10973 19729,10974 19724,10975 19718,10977 19713,10978 19708,10980 19703,10983 19698,10985 19693,10988 19689,10990 19684,10993 19680,10997 19676,11000 19671,11004 19667,11007 19664,11011 19660,11015 19657,11020 19653,11024 19650,11029 19648,11033 19645,11038 19643,11043 19640,11048 19638,11053 19637,11058 19635,11063 19634,11069 19633,11074 19632,11080 19631,11085 19631,11090 19631,11096 19631,11101 19631,11107 19632,11112 19633,11118 19634,11123 19635,11128 19637,11133 19638,11139 19640,11144 19643,11149 19645,11154 19648,11158 19650,11163 19653,11168 19657,11172 19660,11176 19664,11180 19667,11184 19671,11188 19676,11192 19680,11195 19684,11198 19689,11201 19693,11204 19698,11207 19703,11209 19708,11211 19713,11213 19718,11215 19724,11217 19729,11218 19734,11219 19740,11220 19745,11220 19750,11221 19756,11221 19761,11221 19767,11220 19772,11220 19778,11219 19783,11218 19788,11217 19793,11215 19799,11213 19804,11211 19809,11209 19814,11207 19818,11204 19823,11201 19828,11198 19832,11195 19836,11192 19840,11188 19844,11184 19848,11180 19852,11176 19855,11172 19858,11168 19861,11163 19864,11158 19867,11154 19869,11149 19871,11144 19873,11139 19875,11133 19877,11128 19878,11123 19879,11118 19880,11112 19880,11107 19881,11101 19881,11096 Z"/>
 <path fill="rgb(255,134,13)" stroke="none" d="M 22507,11369 L 22507,11363 22507,11358 22506,11352 22506,11347 22505,11342 22503,11336 22502,11331 22500,11326 22498,11321 22496,11316 22493,11311 22491,11306 22488,11302 22485,11297 22482,11293 22478,11288 22475,11284 22471,11280 22467,11277 22463,11273 22459,11270 22454,11266 22450,11263 22445,11261 22440,11258 22435,11255 22430,11253 22425,11251 22420,11250 22415,11249 22410,11248 22404,11247 22399,11246 22393,11245 22388,11245 22382,11245 22377,11245 22372,11245 22366,11246 22361,11247 22355,11248 22350,11249 22345,11250 22340,11251 22335,11253 22330,11255 22325,11258 22320,11261 22315,11263 22311,11266 22306,11270 22302,11273 22298,11277 22294,11280 22290,11284 22287,11288 22283,11293 22280,11297 22277,11302 22274,11306 22272,11311 22269,11316 22267,11321 22265,11326 22263,11331 22262,11336 22260,11342 22259,11347 22259,11352 22258,11358 22258,11363 22257,11369 22258,11374 22258,11380 22259,11385 22259,11390 22260,11396 22262,11401 22263,11406 22265,11412 22267,11417 22269,11422 22272,11426 22274,11431 22277,11436 22280,11440 22283,11445 22287,11449 22290,11453 22294,11457 22298,11461 22302,11465 22306,11468 22311,11471 22315,11474 22320,11477 22325,11480 22330,11482 22335,11484 22340,11486 22345,11488 22350,11490 22355,11491 22361,11492 22366,11493 22372,11493 22377,11494 22382,11494 22388,11494 22393,11493 22399,11493 22404,11492 22410,11491 22415,11490 22420,11488 22425,11486 22430,11484 22435,11482 22440,11480 22445,11477 22450,11474 22454,11471 22459,11468 22463,11465 22467,11461 22471,11457 22475,11453 22478,11449 22482,11445 22485,11440 22488,11436 22491,11431 22493,11426 22496,11422 22498,11417 22500,11412 22502,11406 22503,11401 22505,11396 22506,11390 22506,11385 22507,11380 22507,11374 22507,11369 Z"/>
 <path fill="none" stroke="rgb(255,134,13)" stroke-linejoin="round" d="M 22507,11369 L 22507,11363 22507,11358 22506,11352 22506,11347 22505,11342 22503,11336 22502,11331 22500,11326 22498,11321 22496,11316 22493,11311 22491,11306 22488,11302 22485,11297 22482,11293 22478,11288 22475,11284 22471,11280 22467,11277 22463,11273 22459,11270 22454,11266 22450,11263 22445,11261 22440,11258 22435,11255 22430,11253 22425,11251 22420,11250 22415,11249 22410,11248 22404,11247 22399,11246 22393,11245 22388,11245 22382,11245 22377,11245 22372,11245 22366,11246 22361,11247 22355,11248 22350,11249 22345,11250 22340,11251 22335,11253 22330,11255 22325,11258 22320,11261 22315,11263 22311,11266 22306,11270 22302,11273 22298,11277 22294,11280 22290,11284 22287,11288 22283,11293 22280,11297 22277,11302 22274,11306 22272,11311 22269,11316 22267,11321 22265,11326 22263,11331 22262,11336 22260,11342 22259,11347 22259,11352 22258,11358 22258,11363 22257,11369 22258,11374 22258,11380 22259,11385 22259,11390 22260,11396 22262,11401 22263,11406 22265,11412 22267,11417 22269,11422 22272,11426 22274,11431 22277,11436 22280,11440 22283,11445 22287,11449 22290,11453 22294,11457 22298,11461 22302,11465 22306,11468 22311,11471 22315,11474 22320,11477 22325,11480 22330,11482 22335,11484 22340,11486 22345,11488 22350,11490 22355,11491 22361,11492 22366,11493 22372,11493 22377,11494 22382,11494 22388,11494 22393,11493 22399,11493 22404,11492 22410,11491 22415,11490 22420,11488 22425,11486 22430,11484 22435,11482 22440,11480 22445,11477 22450,11474 22454,11471 22459,11468 22463,11465 22467,11461 22471,11457 22475,11453 22478,11449 22482,11445 22485,11440 22488,11436 22491,11431 22493,11426 22496,11422 22498,11417 22500,11412 22502,11406 22503,11401 22505,11396 22506,11390 22506,11385 22507,11380 22507,11374 22507,11369 Z"/>
 <path fill="rgb(255,134,13)" stroke="none" d="M 27850,3454 L 27850,3449 27849,3443 27849,3438 27848,3432 27847,3427 27846,3422 27844,3416 27842,3411 27840,3406 27838,3401 27836,3396 27833,3392 27830,3387 27827,3382 27824,3378 27821,3374 27817,3370 27813,3366 27809,3362 27805,3358 27801,3355 27797,3352 27792,3349 27787,3346 27783,3343 27778,3341 27773,3339 27768,3337 27762,3335 27757,3333 27752,3332 27747,3331 27741,3330 27736,3329 27730,3329 27725,3329 27719,3329 27714,3329 27709,3330 27703,3331 27698,3332 27693,3333 27687,3335 27682,3337 27677,3339 27672,3341 27667,3343 27662,3346 27658,3349 27653,3352 27649,3355 27645,3358 27640,3362 27637,3366 27633,3370 27629,3374 27626,3378 27622,3382 27619,3387 27617,3392 27614,3396 27612,3401 27609,3406 27607,3411 27606,3416 27604,3422 27603,3427 27602,3432 27601,3438 27600,3443 27600,3449 27600,3454 27600,3459 27600,3465 27601,3470 27602,3476 27603,3481 27604,3486 27606,3492 27607,3497 27609,3502 27612,3507 27614,3512 27617,3517 27619,3521 27622,3526 27626,3530 27629,3534 27633,3538 27637,3542 27640,3546 27645,3550 27649,3553 27653,3556 27658,3559 27662,3562 27667,3565 27672,3567 27677,3569 27682,3571 27687,3573 27693,3575 27698,3576 27703,3577 27709,3578 27714,3579 27719,3579 27725,3579 27730,3579 27736,3579 27741,3578 27747,3577 27752,3576 27757,3575 27762,3573 27768,3571 27773,3569 27778,3567 27783,3565 27787,3562 27792,3559 27797,3556 27801,3553 27805,3550 27809,3546 27813,3542 27817,3538 27821,3534 27824,3530 27827,3526 27830,3521 27833,3517 27836,3512 27838,3507 27840,3502 27842,3497 27844,3492 27846,3486 27847,3481 27848,3476 27849,3470 27849,3465 27850,3459 27850,3454 Z"/>
 <path fill="none" stroke="rgb(255,134,13)" stroke-linejoin="round" d="M 27850,3454 L 27850,3449 27849,3443 27849,3438 27848,3432 27847,3427 27846,3422 27844,3416 27842,3411 27840,3406 27838,3401 27836,3396 27833,3392 27830,3387 27827,3382 27824,3378 27821,3374 27817,3370 27813,3366 27809,3362 27805,3358 27801,3355 27797,3352 27792,3349 27787,3346 27783,3343 27778,3341 27773,3339 27768,3337 27762,3335 27757,3333 27752,3332 27747,3331 27741,3330 27736,3329 27730,3329 27725,3329 27719,3329 27714,3329 27709,3330 27703,3331 27698,3332 27693,3333 27687,3335 27682,3337 27677,3339 27672,3341 27667,3343 27662,3346 27658,3349 27653,3352 27649,3355 27645,3358 27640,3362 27637,3366 27633,3370 27629,3374 27626,3378 27622,3382 27619,3387 27617,3392 27614,3396 27612,3401 27609,3406 27607,3411 27606,3416 27604,3422 27603,3427 27602,3432 27601,3438 27600,3443 27600,3449 27600,3454 27600,3459 27600,3465 27601,3470 27602,3476 27603,3481 27604,3486 27606,3492 27607,3497 27609,3502 27612,3507 27614,3512 27617,3517 27619,3521 27622,3526 27626,3530 27629,3534 27633,3538 27637,3542 27640,3546 27645,3550 27649,3553 27653,3556 27658,3559 27662,3562 27667,3565 27672,3567 27677,3569 27682,3571 27687,3573 27693,3575 27698,3576 27703,3577 27709,3578 27714,3579 27719,3579 27725,3579 27730,3579 27736,3579 27741,3578 27747,3577 27752,3576 27757,3575 27762,3573 27768,3571 27773,3569 27778,3567 27783,3565 27787,3562 27792,3559 27797,3556 27801,3553 27805,3550 27809,3546 27813,3542 27817,3538 27821,3534 27824,3530 27827,3526 27830,3521 27833,3517 27836,3512 27838,3507 27840,3502 27842,3497 27844,3492 27846,3486 27847,3481 27848,3476 27849,3470 27849,3465 27850,3459 27850,3454 Z"/>
 <path fill="rgb(255,134,13)" stroke="none" d="M 28013,8518 L 28013,8513 28013,8507 28012,8502 28011,8496 28010,8491 28009,8486 28008,8481 28006,8475 28004,8470 28002,8465 27999,8460 27997,8456 27994,8451 27991,8446 27988,8442 27984,8438 27981,8434 27977,8430 27973,8426 27969,8422 27964,8419 27960,8416 27956,8413 27951,8410 27946,8407 27941,8405 27936,8403 27931,8401 27926,8399 27921,8397 27915,8396 27910,8395 27905,8394 27899,8394 27894,8393 27888,8393 27883,8393 27877,8394 27872,8394 27867,8395 27861,8396 27856,8397 27851,8399 27846,8401 27841,8403 27836,8405 27831,8407 27826,8410 27821,8413 27817,8416 27812,8419 27808,8422 27804,8426 27800,8430 27796,8434 27793,8438 27789,8442 27786,8446 27783,8451 27780,8456 27777,8460 27775,8465 27773,8470 27771,8475 27769,8481 27768,8486 27766,8491 27765,8496 27764,8502 27764,8507 27763,8513 27763,8518 27763,8524 27764,8529 27764,8534 27765,8540 27766,8545 27768,8550 27769,8556 27771,8561 27773,8566 27775,8571 27777,8576 27780,8581 27783,8585 27786,8590 27789,8594 27793,8598 27796,8603 27800,8606 27804,8610 27808,8614 27812,8617 27817,8620 27821,8624 27826,8626 27831,8629 27836,8631 27841,8634 27846,8636 27851,8637 27856,8639 27861,8640 27867,8641 27872,8642 27877,8643 27883,8643 27888,8643 27894,8643 27899,8643 27905,8642 27910,8641 27915,8640 27921,8639 27926,8637 27931,8636 27936,8634 27941,8631 27946,8629 27951,8626 27956,8624 27960,8620 27964,8617 27969,8614 27973,8610 27977,8606 27981,8603 27984,8598 27988,8594 27991,8590 27994,8585 27997,8581 27999,8576 28002,8571 28004,8566 28006,8561 28008,8556 28009,8550 28010,8545 28011,8540 28012,8534 28013,8529 28013,8524 28013,8518 Z"/>
 <path fill="none" stroke="rgb(255,134,13)" stroke-linejoin="round" d="M 28013,8518 L 28013,8513 28013,8507 28012,8502 28011,8496 28010,8491 28009,8486 28008,8481 28006,8475 28004,8470 28002,8465 27999,8460 27997,8456 27994,8451 27991,8446 27988,8442 27984,8438 27981,8434 27977,8430 27973,8426 27969,8422 27964,8419 27960,8416 27956,8413 27951,8410 27946,8407 27941,8405 27936,8403 27931,8401 27926,8399 27921,8397 27915,8396 27910,8395 27905,8394 27899,8394 27894,8393 27888,8393 27883,8393 27877,8394 27872,8394 27867,8395 27861,8396 27856,8397 27851,8399 27846,8401 27841,8403 27836,8405 27831,8407 27826,8410 27821,8413 27817,8416 27812,8419 27808,8422 27804,8426 27800,8430 27796,8434 27793,8438 27789,8442 27786,8446 27783,8451 27780,8456 27777,8460 27775,8465 27773,8470 27771,8475 27769,8481 27768,8486 27766,8491 27765,8496 27764,8502 27764,8507 27763,8513 27763,8518 27763,8524 27764,8529 27764,8534 27765,8540 27766,8545 27768,8550 27769,8556 27771,8561 27773,8566 27775,8571 27777,8576 27780,8581 27783,8585 27786,8590 27789,8594 27793,8598 27796,8603 27800,8606 27804,8610 27808,8614 27812,8617 27817,8620 27821,8624 27826,8626 27831,8629 27836,8631 27841,8634 27846,8636 27851,8637 27856,8639 27861,8640 27867,8641 27872,8642 27877,8643 27883,8643 27888,8643 27894,8643 27899,8643 27905,8642 27910,8641 27915,8640 27921,8639 27926,8637 27931,8636 27936,8634 27941,8631 27946,8629 27951,8626 27956,8624 27960,8620 27964,8617 27969,8614 27973,8610 27977,8606 27981,8603 27984,8598 27988,8594 27991,8590 27994,8585 27997,8581 27999,8576 28002,8571 28004,8566 28006,8561 28008,8556 28009,8550 28010,8545 28011,8540 28012,8534 28013,8529 28013,8524 28013,8518 Z"/>
 <path fill="rgb(255,134,13)" stroke="none" d="M 29087,1331 L 29086,1326 29086,1320 29085,1315 29085,1309 29084,1304 29082,1299 29081,1293 29079,1288 29077,1283 29075,1278 29072,1273 29070,1269 29067,1264 29064,1259 29061,1255 29057,1251 29054,1247 29050,1243 29046,1239 29042,1235 29038,1232 29033,1229 29029,1226 29024,1223 29019,1220 29014,1218 29009,1216 29004,1214 28999,1212 28994,1210 28989,1209 28983,1208 28978,1207 28972,1207 28967,1206 28962,1206 28956,1206 28951,1207 28945,1207 28940,1208 28934,1209 28929,1210 28924,1212 28919,1214 28914,1216 28909,1218 28904,1220 28899,1223 28894,1226 28890,1229 28885,1232 28881,1235 28877,1239 28873,1243 28869,1247 28866,1251 28862,1255 28859,1259 28856,1264 28853,1269 28851,1273 28848,1278 28846,1283 28844,1288 28842,1293 28841,1299 28839,1304 28838,1309 28838,1315 28837,1320 28837,1326 28837,1331 28837,1337 28837,1342 28838,1347 28838,1353 28839,1358 28841,1363 28842,1369 28844,1374 28846,1379 28848,1384 28851,1389 28853,1394 28856,1398 28859,1403 28862,1407 28866,1411 28869,1416 28873,1419 28877,1423 28881,1427 28885,1430 28890,1433 28894,1436 28899,1439 28904,1442 28909,1444 28914,1447 28919,1449 28924,1450 28929,1452 28934,1453 28940,1454 28945,1455 28951,1456 28956,1456 28962,1456 28967,1456 28972,1456 28978,1455 28983,1454 28989,1453 28994,1452 28999,1450 29004,1449 29009,1447 29014,1444 29019,1442 29024,1439 29029,1436 29033,1433 29038,1430 29042,1427 29046,1423 29050,1419 29054,1416 29057,1411 29061,1407 29064,1403 29067,1398 29070,1394 29072,1389 29075,1384 29077,1379 29079,1374 29081,1369 29082,1363 29084,1358 29085,1353 29085,1347 29086,1342 29086,1337 29087,1331 Z"/>
 <path fill="none" stroke="rgb(255,134,13)" stroke-linejoin="round" d="M 29087,1331 L 29086,1326 29086,1320 29085,1315 29085,1309 29084,1304 29082,1299 29081,1293 29079,1288 29077,1283 29075,1278 29072,1273 29070,1269 29067,1264 29064,1259 29061,1255 29057,1251 29054,1247 29050,1243 29046,1239 29042,1235 29038,1232 29033,1229 29029,1226 29024,1223 29019,1220 29014,1218 29009,1216 29004,1214 28999,1212 28994,1210 28989,1209 28983,1208 28978,1207 28972,1207 28967,1206 28962,1206 28956,1206 28951,1207 28945,1207 28940,1208 28934,1209 28929,1210 28924,1212 28919,1214 28914,1216 28909,1218 28904,1220 28899,1223 28894,1226 28890,1229 28885,1232 28881,1235 28877,1239 28873,1243 28869,1247 28866,1251 28862,1255 28859,1259 28856,1264 28853,1269 28851,1273 28848,1278 28846,1283 28844,1288 28842,1293 28841,1299 28839,1304 28838,1309 28838,1315 28837,1320 28837,1326 28837,1331 28837,1337 28837,1342 28838,1347 28838,1353 28839,1358 28841,1363 28842,1369 28844,1374 28846,1379 28848,1384 28851,1389 28853,1394 28856,1398 28859,1403 28862,1407 28866,1411 28869,1416 28873,1419 28877,1423 28881,1427 28885,1430 28890,1433 28894,1436 28899,1439 28904,1442 28909,1444 28914,1447 28919,1449 28924,1450 28929,1452 28934,1453 28940,1454 28945,1455 28951,1456 28956,1456 28962,1456 28967,1456 28972,1456 28978,1455 28983,1454 28989,1453 28994,1452 28999,1450 29004,1449 29009,1447 29014,1444 29019,1442 29024,1439 29029,1436 29033,1433 29038,1430 29042,1427 29046,1423 29050,1419 29054,1416 29057,1411 29061,1407 29064,1403 29067,1398 29070,1394 29072,1389 29075,1384 29077,1379 29079,1374 29081,1369 29082,1363 29084,1358 29085,1353 29085,1347 29086,1342 29086,1337 29087,1331 Z"/>
 <path fill="none" stroke="rgb(175,208,149)" stroke-width="50" stroke-linejoin="round" d="M 2591,12467 L 28962,7441"/>
 <path fill="none" stroke="rgb(255,134,13)" stroke-width="50" stroke-linejoin="round" d="M 2582,12478 L 28962,6016"/>
 <text class="SVGTextShape"><tspan class="TextParagraph" font-family="Latin Modern Roman" font-size="564px" font-weight="400"><tspan class="TextPosition" x="2198" y="13427"><tspan fill="rgb(0,0,0)" stroke="none">0%</tspan></tspan></tspan></text>
 <text class="SVGTextShape"><tspan class="TextParagraph" font-family="Latin Modern Roman" font-size="564px" font-weight="400"><tspan class="TextPosition" x="4691" y="13427"><tspan fill="rgb(0,0,0)" stroke="none">10%</tspan></tspan></tspan></text>
 <text class="SVGTextShape"><tspan class="TextParagraph" font-family="Latin Modern Roman" font-size="564px" font-weight="400"><tspan class="TextPosition" x="7329" y="13427"><tspan fill="rgb(0,0,0)" stroke="none">20%</tspan></tspan></tspan></text>
 <text class="SVGTextShape"><tspan class="TextParagraph" font-family="Latin Modern Roman" font-size="564px" font-weight="400"><tspan class="TextPosition" x="9967" y="13427"><tspan fill="rgb(0,0,0)" stroke="none">30%</tspan></tspan></tspan></text>
 <text class="SVGTextShape"><tspan class="TextParagraph" font-family="Latin Modern Roman" font-size="564px" font-weight="400"><tspan class="TextPosition" x="12605" y="13427"><tspan fill="rgb(0,0,0)" stroke="none">40%</tspan></tspan></tspan></text>
 <text class="SVGTextShape"><tspan class="TextParagraph" font-family="Latin Modern Roman" font-size="564px" font-weight="400"><tspan class="TextPosition" x="15243" y="13427"><tspan fill="rgb(0,0,0)" stroke="none">50%</tspan></tspan></tspan></text>
 <text class="SVGTextShape"><tspan class="TextParagraph" font-family="Latin Modern Roman" font-size="564px" font-weight="400"><tspan class="TextPosition" x="17881" y="13427"><tspan fill="rgb(0,0,0)" stroke="none">60%</tspan></tspan></tspan></text>
 <text class="SVGTextShape"><tspan class="TextParagraph" font-family="Latin Modern Roman" font-size="564px" font-weight="400"><tspan class="TextPosition" x="20519" y="13427"><tspan fill="rgb(0,0,0)" stroke="none">70%</tspan></tspan></tspan></text>
 <text class="SVGTextShape"><tspan class="TextParagraph" font-family="Latin Modern Roman" font-size="564px" font-weight="400"><tspan class="TextPosition" x="23157" y="13427"><tspan fill="rgb(0,0,0)" stroke="none">80%</tspan></tspan></tspan></text>
 <text class="SVGTextShape"><tspan class="TextParagraph" font-family="Latin Modern Roman" font-size="564px" font-weight="400"><tspan class="TextPosition" x="25795" y="13427"><tspan fill="rgb(0,0,0)" stroke="none">90%</tspan></tspan></tspan></text>
 <text class="SVGTextShape"><tspan class="TextParagraph" font-family="Latin Modern Roman" font-size="564px" font-weight="400"><tspan class="TextPosition" x="28288" y="13427"><tspan fill="rgb(0,0,0)" stroke="none">100%</tspan></tspan></tspan></text>
 <text class="SVGTextShape"><tspan class="TextParagraph" font-family="Latin Modern Roman" font-size="564px" font-weight="400"><tspan class="TextPosition" x="2041" y="12781"><tspan fill="rgb(0,0,0)" stroke="none">0</tspan></tspan></tspan></text>
 <text class="SVGTextShape"><tspan class="TextParagraph" font-family="Latin Modern Roman" font-size="564px" font-weight="400"><tspan class="TextPosition" x="2041" y="11297"><tspan fill="rgb(0,0,0)" stroke="none">5</tspan></tspan></tspan></text>
 <text class="SVGTextShape"><tspan class="TextParagraph" font-family="Latin Modern Roman" font-size="564px" font-weight="400"><tspan class="TextPosition" x="1750" y="9813"><tspan fill="rgb(0,0,0)" stroke="none">10</tspan></tspan></tspan></text>
 <text class="SVGTextShape"><tspan class="TextParagraph" font-family="Latin Modern Roman" font-size="564px" font-weight="400"><tspan class="TextPosition" x="1750" y="8329"><tspan fill="rgb(0,0,0)" stroke="none">15</tspan></tspan></tspan></text>
 <text class="SVGTextShape"><tspan class="TextParagraph" font-family="Latin Modern Roman" font-size="564px" font-weight="400"><tspan class="TextPosition" x="1750" y="6846"><tspan fill="rgb(0,0,0)" stroke="none">20</tspan></tspan></tspan></text>
 <text class="SVGTextShape"><tspan class="TextParagraph" font-family="Latin Modern Roman" font-size="564px" font-weight="400"><tspan class="TextPosition" x="1750" y="5362"><tspan fill="rgb(0,0,0)" stroke="none">25</tspan></tspan></tspan></text>
 <text class="SVGTextShape"><tspan class="TextParagraph" font-family="Latin Modern Roman" font-size="564px" font-weight="400"><tspan class="TextPosition" x="1750" y="3878"><tspan fill="rgb(0,0,0)" stroke="none">30</tspan></tspan></tspan></text>
 <text class="SVGTextShape"><tspan class="TextParagraph" font-family="Latin Modern Roman" font-size="564px" font-weight="400"><tspan class="TextPosition" x="1750" y="2394"><tspan fill="rgb(0,0,0)" stroke="none">35</tspan></tspan></tspan></text>
 <text class="SVGTextShape"><tspan class="TextParagraph" font-family="Latin Modern Roman" font-size="564px" font-weight="400"><tspan class="TextPosition" x="1750" y="910"><tspan fill="rgb(0,0,0)" stroke="none">40</tspan></tspan></tspan></text>
 <path fill="rgb(255,255,255)" stroke="none" d="M 4091,3048 L 2784,3048 2784,927 5398,927 5398,3048 4091,3048 Z"/>
 <path fill="none" stroke="rgb(179,179,179)" stroke-linejoin="round" d="M 4091,3048 L 2784,3048 2784,927 5398,927 5398,3048 4091,3048 Z"/>
 <path fill="rgb(255,134,13)" stroke="none" d="M 3482,1505 L 3481,1497 3481,1490 3480,1482 3479,1475 3477,1468 3476,1461 3474,1454 3471,1447 3469,1440 3466,1433 3462,1426 3459,1420 3455,1414 3451,1408 3447,1402 3442,1396 3437,1390 3432,1385 3427,1380 3421,1375 3415,1370 3409,1366 3403,1362 3397,1358 3391,1355 3384,1351 3377,1348 3370,1346 3363,1343 3356,1341 3349,1340 3342,1338 3335,1337 3327,1336 3320,1336 3313,1336 3305,1336 3298,1336 3290,1337 3283,1338 3276,1340 3269,1341 3262,1343 3255,1346 3248,1348 3241,1351 3234,1355 3228,1358 3222,1362 3216,1366 3210,1370 3204,1375 3198,1380 3193,1385 3188,1390 3183,1396 3178,1402 3174,1408 3170,1414 3166,1420 3163,1426 3159,1433 3156,1440 3154,1447 3151,1454 3149,1461 3148,1468 3146,1475 3145,1482 3144,1490 3144,1497 3144,1505 3144,1512 3144,1519 3145,1527 3146,1534 3148,1541 3149,1548 3151,1555 3154,1562 3156,1569 3159,1576 3163,1583 3166,1589 3170,1595 3174,1601 3178,1607 3183,1613 3188,1619 3193,1624 3198,1629 3204,1634 3210,1639 3216,1643 3222,1647 3228,1651 3234,1654 3241,1658 3248,1661 3255,1663 3262,1666 3269,1668 3276,1669 3283,1671 3290,1672 3298,1673 3305,1673 3313,1674 3320,1673 3327,1673 3335,1672 3342,1671 3349,1669 3356,1668 3363,1666 3370,1663 3377,1661 3384,1658 3391,1654 3397,1651 3403,1647 3409,1643 3415,1639 3421,1634 3427,1629 3432,1624 3437,1619 3442,1613 3447,1607 3451,1601 3455,1595 3459,1589 3462,1583 3466,1576 3469,1569 3471,1562 3474,1555 3476,1548 3477,1541 3479,1534 3480,1527 3481,1519 3481,1512 3482,1505 Z"/>
 <path fill="none" stroke="rgb(255,134,13)" stroke-linejoin="round" d="M 3482,1505 L 3481,1497 3481,1490 3480,1482 3479,1475 3477,1468 3476,1461 3474,1454 3471,1447 3469,1440 3466,1433 3462,1426 3459,1420 3455,1414 3451,1408 3447,1402 3442,1396 3437,1390 3432,1385 3427,1380 3421,1375 3415,1370 3409,1366 3403,1362 3397,1358 3391,1355 3384,1351 3377,1348 3370,1346 3363,1343 3356,1341 3349,1340 3342,1338 3335,1337 3327,1336 3320,1336 3313,1336 3305,1336 3298,1336 3290,1337 3283,1338 3276,1340 3269,1341 3262,1343 3255,1346 3248,1348 3241,1351 3234,1355 3228,1358 3222,1362 3216,1366 3210,1370 3204,1375 3198,1380 3193,1385 3188,1390 3183,1396 3178,1402 3174,1408 3170,1414 3166,1420 3163,1426 3159,1433 3156,1440 3154,1447 3151,1454 3149,1461 3148,1468 3146,1475 3145,1482 3144,1490 3144,1497 3144,1505 3144,1512 3144,1519 3145,1527 3146,1534 3148,1541 3149,1548 3151,1555 3154,1562 3156,1569 3159,1576 3163,1583 3166,1589 3170,1595 3174,1601 3178,1607 3183,1613 3188,1619 3193,1624 3198,1629 3204,1634 3210,1639 3216,1643 3222,1647 3228,1651 3234,1654 3241,1658 3248,1661 3255,1663 3262,1666 3269,1668 3276,1669 3283,1671 3290,1672 3298,1673 3305,1673 3313,1674 3320,1673 3327,1673 3335,1672 3342,1671 3349,1669 3356,1668 3363,1666 3370,1663 3377,1661 3384,1658 3391,1654 3397,1651 3403,1647 3409,1643 3415,1639 3421,1634 3427,1629 3432,1624 3437,1619 3442,1613 3447,1607 3451,1601 3455,1595 3459,1589 3462,1583 3466,1576 3469,1569 3471,1562 3474,1555 3476,1548 3477,1541 3479,1534 3480,1527 3481,1519 3481,1512 3482,1505 Z"/>
 <path fill="rgb(175,208,149)" stroke="none" d="M 3299,2299 L 3299,2445 3157,2362 3144,2385 3286,2468 3144,2550 3157,2573 3299,2490 3299,2637 3326,2637 3326,2490 3468,2573 3482,2550 3339,2468 3482,2385 3468,2362 3326,2445 3326,2299 3299,2299 Z"/>
 <path fill="none" stroke="rgb(175,208,149)" stroke-linejoin="round" d="M 3299,2299 L 3299,2445 3157,2362 3144,2385 3286,2468 3144,2550 3157,2573 3299,2490 3299,2637 3326,2637 3326,2490 3468,2573 3482,2550 3339,2468 3482,2385 3468,2362 3326,2445 3326,2299 3299,2299 Z"/>
 <text class="SVGTextShape"><tspan class="TextParagraph" font-family="Latin Modern Roman Caps" font-size="564px" font-weight="400"><tspan class="TextPosition" x="3837" y="1730"><tspan fill="rgb(0,0,0)" stroke="none">Mais</tspan></tspan></tspan></text>
 <text class="SVGTextShape"><tspan class="TextParagraph" font-family="Latin Modern Roman Caps" font-size="564px" font-weight="400"><tspan class="TextPosition" x="3837" y="2693"><tspan fill="rgb(0,0,0)" stroke="none">Rijst</tspan></tspan></tspan></text>
 <text class="SVGTextShape"><tspan class="TextParagraph" font-family="Latin Modern Roman" font-size="706px" font-weight="400"><tspan class="TextPosition" x="13484" y="14576"><tspan fill="rgb(0,0,0)" stroke="none">% spierkracht</tspan></tspan></tspan></text>
 <text class="SVGTextShape" transform="rotate(-90 1006 8121)"><tspan class="TextParagraph" font-family="Latin Modern Roman" font-size="706px" font-weight="400"><tspan class="TextPosition" x="1006" y="8121"><tspan fill="rgb(0,0,0)" stroke="none">EROEI</tspan></tspan></tspan></text>
</svg>