<?xml version="1.0" encoding="UTF-8" standalone="no"?>
<svg
   width="80mm"
   height="40mm"
   viewBox="0 0 8000 4000"
   version="1.1"
   stroke-width="28.222"
   stroke-linejoin="round"
   xml:space="preserve"
   id="svg255"
   sodipodi:docname="meino smit - landgebruik - verhouding.svg"
   inkscape:version="1.1.2 (0a00cf5339, 2022-02-04)"
   xmlns:inkscape="http://www.inkscape.org/namespaces/inkscape"
   xmlns:sodipodi="http://sodipodi.sourceforge.net/DTD/sodipodi-0.dtd"
   xmlns="http://www.w3.org/2000/svg"
   xmlns:svg="http://www.w3.org/2000/svg"><sodipodi:namedview
   id="namedview257"
   pagecolor="#ffffff"
   bordercolor="#666666"
   borderopacity="1.0"
   inkscape:pageshadow="2"
   inkscape:pageopacity="0.0"
   inkscape:pagecheckerboard="0"
   inkscape:document-units="mm"
   showgrid="false"
   inkscape:zoom="3.912526"
   inkscape:cx="151.3089"
   inkscape:cy="75.654449"
   inkscape:window-width="1876"
   inkscape:window-height="1051"
   inkscape:window-x="0"
   inkscape:window-y="0"
   inkscape:window-maximized="1"
   inkscape:current-layer="svg255" />
 <path
   fill="rgb(255,255,255)"
   stroke="none"
   d="M 4000,4000 L 0,4000 0,0 8000,0 8000,4000 4000,4000 Z"
   id="path2" />
 <path
   fill="none"
   stroke="rgb(0,0,0)"
   stroke-linejoin="round"
   d="M 4000,4000 L 0,4000 0,0 8000,0 8000,4000 4000,4000 Z"
   id="path4" />
 <defs
   id="defs11">
  <linearGradient
   id="Gradient_2"
   gradientUnits="userSpaceOnUse"
   x1="4226"
   y1="265"
   x2="4226"
   y2="3238">
   <stop
   offset="0.3"
   stop-color="rgb(204,0,0)"
   id="stop6" />
   <stop
   offset="1"
   stop-color="rgb(0,153,0)"
   id="stop8" />
  </linearGradient>
 </defs>
 <path
   fill="url(#Gradient_2)"
   stroke="rgb(179,179,179)"
   stroke-linejoin="round"
   d="M 4226,3238 L 617,3238 617,265 7835,265 7835,3238 4226,3238 Z"
   id="path13" />
 <path
   fill="none"
   stroke="rgb(179,179,179)"
   stroke-linejoin="round"
   d="M 7835,3237 L 617,3237"
   id="path15" />
 <path
   fill="none"
   stroke="rgb(179,179,179)"
   stroke-linejoin="round"
   d="M 7835,2387 L 617,2387"
   id="path17" />
 <path
   fill="none"
   stroke="rgb(179,179,179)"
   stroke-linejoin="round"
   d="M 7835,1538 L 617,1538"
   id="path19" />
 <path
   fill="none"
   stroke="rgb(179,179,179)"
   stroke-linejoin="round"
   d="M 7835,688 L 617,688"
   id="path21" />
 <path
   fill="none"
   stroke="rgb(179,179,179)"
   stroke-linejoin="round"
   d="M 617,3387 L 617,3237"
   id="path23" />
 <path
   fill="none"
   stroke="rgb(179,179,179)"
   stroke-linejoin="round"
   d="M 617,3387 L 617,3237"
   id="path25" />
 <path
   fill="none"
   stroke="rgb(179,179,179)"
   stroke-linejoin="round"
   d="M 1727,3387 L 1727,3237"
   id="path27" />
 <path
   fill="none"
   stroke="rgb(179,179,179)"
   stroke-linejoin="round"
   d="M 1727,3387 L 1727,3237"
   id="path29" />
 <path
   fill="none"
   stroke="rgb(179,179,179)"
   stroke-linejoin="round"
   d="M 2838,3387 L 2838,3237"
   id="path31" />
 <path
   fill="none"
   stroke="rgb(179,179,179)"
   stroke-linejoin="round"
   d="M 2838,3387 L 2838,3237"
   id="path33" />
 <path
   fill="none"
   stroke="rgb(179,179,179)"
   stroke-linejoin="round"
   d="M 3948,3387 L 3948,3237"
   id="path35" />
 <path
   fill="none"
   stroke="rgb(179,179,179)"
   stroke-linejoin="round"
   d="M 3948,3387 L 3948,3237"
   id="path37" />
 <path
   fill="none"
   stroke="rgb(179,179,179)"
   stroke-linejoin="round"
   d="M 5058,3387 L 5058,3237"
   id="path39" />
 <path
   fill="none"
   stroke="rgb(179,179,179)"
   stroke-linejoin="round"
   d="M 5058,3387 L 5058,3237"
   id="path41" />
 <path
   fill="none"
   stroke="rgb(179,179,179)"
   stroke-linejoin="round"
   d="M 6169,3387 L 6169,3237"
   id="path43" />
 <path
   fill="none"
   stroke="rgb(179,179,179)"
   stroke-linejoin="round"
   d="M 6169,3387 L 6169,3237"
   id="path45" />
 <path
   fill="none"
   stroke="rgb(179,179,179)"
   stroke-linejoin="round"
   d="M 7279,3387 L 7279,3237"
   id="path47" />
 <path
   fill="none"
   stroke="rgb(179,179,179)"
   stroke-linejoin="round"
   d="M 7279,3387 L 7279,3237"
   id="path49" />
 <path
   fill="none"
   stroke="rgb(179,179,179)"
   stroke-linejoin="round"
   d="M 1172,3349 L 1172,3237"
   id="path51" />
 <path
   fill="none"
   stroke="rgb(179,179,179)"
   stroke-linejoin="round"
   d="M 1172,3349 L 1172,3237"
   id="path53" />
 <path
   fill="none"
   stroke="rgb(179,179,179)"
   stroke-linejoin="round"
   d="M 2282,3349 L 2282,3237"
   id="path55" />
 <path
   fill="none"
   stroke="rgb(179,179,179)"
   stroke-linejoin="round"
   d="M 2282,3349 L 2282,3237"
   id="path57" />
 <path
   fill="none"
   stroke="rgb(179,179,179)"
   stroke-linejoin="round"
   d="M 3393,3349 L 3393,3237"
   id="path59" />
 <path
   fill="none"
   stroke="rgb(179,179,179)"
   stroke-linejoin="round"
   d="M 3393,3349 L 3393,3237"
   id="path61" />
 <path
   fill="none"
   stroke="rgb(179,179,179)"
   stroke-linejoin="round"
   d="M 4503,3349 L 4503,3237"
   id="path63" />
 <path
   fill="none"
   stroke="rgb(179,179,179)"
   stroke-linejoin="round"
   d="M 4503,3349 L 4503,3237"
   id="path65" />
 <path
   fill="none"
   stroke="rgb(179,179,179)"
   stroke-linejoin="round"
   d="M 5613,3349 L 5613,3237"
   id="path67" />
 <path
   fill="none"
   stroke="rgb(179,179,179)"
   stroke-linejoin="round"
   d="M 5613,3349 L 5613,3237"
   id="path69" />
 <path
   fill="none"
   stroke="rgb(179,179,179)"
   stroke-linejoin="round"
   d="M 6724,3349 L 6724,3237"
   id="path71" />
 <path
   fill="none"
   stroke="rgb(179,179,179)"
   stroke-linejoin="round"
   d="M 6724,3349 L 6724,3237"
   id="path73" />
 <path
   fill="none"
   stroke="rgb(179,179,179)"
   stroke-linejoin="round"
   d="M 7835,3349 L 7835,3237"
   id="path75" />
 <path
   fill="none"
   stroke="rgb(179,179,179)"
   stroke-linejoin="round"
   d="M 7835,3349 L 7835,3237"
   id="path77" />
 <path
   fill="none"
   stroke="rgb(179,179,179)"
   stroke-linejoin="round"
   d="M 617,3237 L 7835,3237"
   id="path79" />
 <path
   fill="none"
   stroke="rgb(179,179,179)"
   stroke-linejoin="round"
   d="M 467,3237 L 617,3237"
   id="path81" />
 <path
   fill="none"
   stroke="rgb(179,179,179)"
   stroke-linejoin="round"
   d="M 467,3237 L 617,3237"
   id="path83" />
 <path
   fill="none"
   stroke="rgb(179,179,179)"
   stroke-linejoin="round"
   d="M 467,2387 L 617,2387"
   id="path85" />
 <path
   fill="none"
   stroke="rgb(179,179,179)"
   stroke-linejoin="round"
   d="M 467,2387 L 617,2387"
   id="path87" />
 <path
   fill="none"
   stroke="rgb(179,179,179)"
   stroke-linejoin="round"
   d="M 467,1538 L 617,1538"
   id="path89" />
 <path
   fill="none"
   stroke="rgb(179,179,179)"
   stroke-linejoin="round"
   d="M 467,1538 L 617,1538"
   id="path91" />
 <path
   fill="none"
   stroke="rgb(179,179,179)"
   stroke-linejoin="round"
   d="M 467,688 L 617,688"
   id="path93" />
 <path
   fill="none"
   stroke="rgb(179,179,179)"
   stroke-linejoin="round"
   d="M 467,688 L 617,688"
   id="path95" />
 <path
   fill="none"
   stroke="rgb(179,179,179)"
   stroke-linejoin="round"
   d="M 617,3237 L 617,264"
   id="path97" />
 <path
   fill="none"
   stroke="rgb(255,211,32)"
   stroke-width="80"
   stroke-linejoin="round"
   d="M 617,3098 L 1172,2831 1727,2609 2282,2574 2838,2287 3393,1950 3948,1799 4503,1654 5058,1763 5613,1754 6169,1946 6724,1912 7279,1913 7835,1771"
   id="path99"
   style="stroke-width:49.99999862;stroke-miterlimit:4;stroke-dasharray:none" />
 <path
   fill="rgb(255,211,32)"
   stroke="none"
   d="M 492,2973 L 617,3223 742,2973 492,2973 Z"
   id="path101" />
 <path
   fill="none"
   stroke="rgb(255,211,32)"
   stroke-linejoin="round"
   d="M 492,2973 L 617,3223 742,2973 492,2973 Z"
   id="path103" />
 <path
   fill="rgb(255,211,32)"
   stroke="none"
   d="M 1047,2706 L 1172,2956 1297,2706 1047,2706 Z"
   id="path105" />
 <path
   fill="none"
   stroke="rgb(255,211,32)"
   stroke-linejoin="round"
   d="M 1047,2706 L 1172,2956 1297,2706 1047,2706 Z"
   id="path107" />
 <path
   fill="rgb(255,211,32)"
   stroke="none"
   d="M 1602,2484 L 1727,2734 1852,2484 1602,2484 Z"
   id="path109" />
 <path
   fill="none"
   stroke="rgb(255,211,32)"
   stroke-linejoin="round"
   d="M 1602,2484 L 1727,2734 1852,2484 1602,2484 Z"
   id="path111" />
 <path
   fill="rgb(255,211,32)"
   stroke="none"
   d="M 2157,2449 L 2282,2699 2407,2449 2157,2449 Z"
   id="path113" />
 <path
   fill="none"
   stroke="rgb(255,211,32)"
   stroke-linejoin="round"
   d="M 2157,2449 L 2282,2699 2407,2449 2157,2449 Z"
   id="path115" />
 <path
   fill="rgb(255,211,32)"
   stroke="none"
   d="M 2713,2162 L 2838,2412 2963,2162 2713,2162 Z"
   id="path117" />
 <path
   fill="none"
   stroke="rgb(255,211,32)"
   stroke-linejoin="round"
   d="M 2713,2162 L 2838,2412 2963,2162 2713,2162 Z"
   id="path119" />
 <path
   fill="rgb(255,211,32)"
   stroke="none"
   d="M 3268,1825 L 3393,2074 3518,1825 3268,1825 Z"
   id="path121" />
 <path
   fill="none"
   stroke="rgb(255,211,32)"
   stroke-linejoin="round"
   d="M 3268,1825 L 3393,2074 3518,1825 3268,1825 Z"
   id="path123" />
 <path
   fill="rgb(255,211,32)"
   stroke="none"
   d="M 3823,1674 L 3948,1924 4072,1674 3823,1674 Z"
   id="path125" />
 <path
   fill="none"
   stroke="rgb(255,211,32)"
   stroke-linejoin="round"
   d="M 3823,1674 L 3948,1924 4072,1674 3823,1674 Z"
   id="path127" />
 <path
   fill="rgb(255,211,32)"
   stroke="none"
   d="M 4378,1529 L 4503,1779 4628,1529 4378,1529 Z"
   id="path129" />
 <path
   fill="none"
   stroke="rgb(255,211,32)"
   stroke-linejoin="round"
   d="M 4378,1529 L 4503,1779 4628,1529 4378,1529 Z"
   id="path131" />
 <path
   fill="rgb(255,211,32)"
   stroke="none"
   d="M 4933,1638 L 5058,1888 5183,1638 4933,1638 Z"
   id="path133" />
 <path
   fill="none"
   stroke="rgb(255,211,32)"
   stroke-linejoin="round"
   d="M 4933,1638 L 5058,1888 5183,1638 4933,1638 Z"
   id="path135" />
 <path
   fill="rgb(255,211,32)"
   stroke="none"
   d="M 5488,1629 L 5613,1879 5738,1629 5488,1629 Z"
   id="path137" />
 <path
   fill="none"
   stroke="rgb(255,211,32)"
   stroke-linejoin="round"
   d="M 5488,1629 L 5613,1879 5738,1629 5488,1629 Z"
   id="path139" />
 <path
   fill="rgb(255,211,32)"
   stroke="none"
   d="M 6044,1821 L 6169,2070 6294,1821 6044,1821 Z"
   id="path141" />
 <path
   fill="none"
   stroke="rgb(255,211,32)"
   stroke-linejoin="round"
   d="M 6044,1821 L 6169,2070 6294,1821 6044,1821 Z"
   id="path143" />
 <path
   fill="rgb(255,211,32)"
   stroke="none"
   d="M 6599,1787 L 6724,2036 6849,1787 6599,1787 Z"
   id="path145" />
 <path
   fill="none"
   stroke="rgb(255,211,32)"
   stroke-linejoin="round"
   d="M 6599,1787 L 6724,2036 6849,1787 6599,1787 Z"
   id="path147" />
 <path
   fill="rgb(255,211,32)"
   stroke="none"
   d="M 7154,1788 L 7279,2037 7404,1788 7154,1788 Z"
   id="path149" />
 <path
   fill="none"
   stroke="rgb(255,211,32)"
   stroke-linejoin="round"
   d="M 7154,1788 L 7279,2037 7404,1788 7154,1788 Z"
   id="path151" />
 <path
   fill="rgb(255,211,32)"
   stroke="none"
   d="M 7710,1646 L 7835,1896 7960,1646 7710,1646 Z"
   id="path153" />
 <path
   fill="none"
   stroke="rgb(255,211,32)"
   stroke-linejoin="round"
   d="M 7710,1646 L 7835,1896 7960,1646 7710,1646 Z"
   id="path155" />
 <text
   class="SVGTextShape"
   id="text163"><tspan
     class="TextParagraph"
     font-family="Liberation Sans, sans-serif"
     font-size="282px"
     font-weight="400"
     id="tspan161"><tspan
       class="TextPosition"
       x="300"
       y="3752"
       id="tspan159"><tspan
         fill="rgb(0,0,0)"
         stroke="none"
         id="tspan157">1950</tspan></tspan></tspan></text>
 <text
   class="SVGTextShape"
   id="text171"><tspan
     class="TextParagraph"
     font-family="Liberation Sans, sans-serif"
     font-size="282px"
     font-weight="400"
     id="tspan169"><tspan
       class="TextPosition"
       x="1410"
       y="3752"
       id="tspan167"><tspan
         fill="rgb(0,0,0)"
         stroke="none"
         id="tspan165">1960</tspan></tspan></tspan></text>
 <text
   class="SVGTextShape"
   id="text179"><tspan
     class="TextParagraph"
     font-family="Liberation Sans, sans-serif"
     font-size="282px"
     font-weight="400"
     id="tspan177"><tspan
       class="TextPosition"
       x="2520"
       y="3752"
       id="tspan175"><tspan
         fill="rgb(0,0,0)"
         stroke="none"
         id="tspan173">1970</tspan></tspan></tspan></text>
 <text
   class="SVGTextShape"
   id="text187"><tspan
     class="TextParagraph"
     font-family="Liberation Sans, sans-serif"
     font-size="282px"
     font-weight="400"
     id="tspan185"><tspan
       class="TextPosition"
       x="3630"
       y="3752"
       id="tspan183"><tspan
         fill="rgb(0,0,0)"
         stroke="none"
         id="tspan181">1980</tspan></tspan></tspan></text>
 <text
   class="SVGTextShape"
   id="text195"><tspan
     class="TextParagraph"
     font-family="Liberation Sans, sans-serif"
     font-size="282px"
     font-weight="400"
     id="tspan193"><tspan
       class="TextPosition"
       x="4741"
       y="3752"
       id="tspan191"><tspan
         fill="rgb(0,0,0)"
         stroke="none"
         id="tspan189">1990</tspan></tspan></tspan></text>
 <text
   class="SVGTextShape"
   id="text203"><tspan
     class="TextParagraph"
     font-family="Liberation Sans, sans-serif"
     font-size="282px"
     font-weight="400"
     id="tspan201"><tspan
       class="TextPosition"
       x="5852"
       y="3752"
       id="tspan199"><tspan
         fill="rgb(0,0,0)"
         stroke="none"
         id="tspan197">2000</tspan></tspan></tspan></text>
 <text
   class="SVGTextShape"
   id="text211"><tspan
     class="TextParagraph"
     font-family="Liberation Sans, sans-serif"
     font-size="282px"
     font-weight="400"
     id="tspan209"><tspan
       class="TextPosition"
       x="6961"
       y="3752"
       id="tspan207"><tspan
         fill="rgb(0,0,0)"
         stroke="none"
         id="tspan205">2010</tspan></tspan></tspan></text>
 <text
   class="SVGTextShape"
   id="text219"><tspan
     class="TextParagraph"
     font-family="Liberation Sans, sans-serif"
     font-size="282px"
     font-weight="400"
     id="tspan217"><tspan
       class="TextPosition"
       x="208"
       y="3343"
       id="tspan215"><tspan
         fill="rgb(0,0,0)"
         stroke="none"
         id="tspan213">0</tspan></tspan></tspan></text>
 <text
   class="SVGTextShape"
   id="text227"><tspan
     class="TextParagraph"
     font-family="Liberation Sans, sans-serif"
     font-size="282px"
     font-weight="400"
     id="tspan225"><tspan
       class="TextPosition"
       x="208"
       y="2494"
       id="tspan223"><tspan
         fill="rgb(0,0,0)"
         stroke="none"
         id="tspan221">1</tspan></tspan></tspan></text>
 <text
   class="SVGTextShape"
   id="text235"><tspan
     class="TextParagraph"
     font-family="Liberation Sans, sans-serif"
     font-size="282px"
     font-weight="400"
     id="tspan233"><tspan
       class="TextPosition"
       x="208"
       y="1644"
       id="tspan231"><tspan
         fill="rgb(0,0,0)"
         stroke="none"
         id="tspan229">2</tspan></tspan></tspan></text>
 <text
   class="SVGTextShape"
   id="text243"><tspan
     class="TextParagraph"
     font-family="Liberation Sans, sans-serif"
     font-size="282px"
     font-weight="400"
     id="tspan241"><tspan
       class="TextPosition"
       x="208"
       y="795"
       id="tspan239"><tspan
         fill="rgb(0,0,0)"
         stroke="none"
         id="tspan237">3</tspan></tspan></tspan></text>
 <path
   fill="rgb(255,255,255)"
   fill-opacity="0.698"
   stroke="rgb(255,255,255)"
   stroke-opacity="0.698"
   d="M 1886,1115 L 789,1115 789,505 2983,505 2983,1115 1886,1115 Z"
   id="path245" />
 <text
   class="SVGTextShape"
   id="text253"><tspan
     class="TextParagraph"
     font-family="Liberation Sans, sans-serif"
     font-size="353px"
     font-weight="400"
     id="tspan251"><tspan
       class="TextPosition"
       x="854"
       y="930"
       id="tspan249"><tspan
         fill="rgb(0,0,0)"
         stroke="none"
         id="tspan247">indirect/direct</tspan></tspan></tspan></text>
</svg>
