<?xml version="1.0" encoding="UTF-8" standalone="no"?>
<svg
   width="300mm"
   height="136.5596mm"
   viewBox="0 0 30000 13655.96"
   version="1.1"
   stroke-width="28.222"
   stroke-linejoin="round"
   xml:space="preserve"
   id="svg506"
   sodipodi:docname="meino smit - landgebruik - alles - inset.svg"
   inkscape:version="1.1.1 (3bf5ae0d25, 2021-09-20)"
   xmlns:inkscape="http://www.inkscape.org/namespaces/inkscape"
   xmlns:sodipodi="http://sodipodi.sourceforge.net/DTD/sodipodi-0.dtd"
   xmlns="http://www.w3.org/2000/svg"
   xmlns:svg="http://www.w3.org/2000/svg"><defs
   id="defs510"><linearGradient
     id="Gradient_2"
     gradientUnits="userSpaceOnUse"
     x1="3882"
     y1="264"
     x2="3882"
     y2="2979">
   <stop
   offset="0.3"
   stop-color="rgb(204,0,0)"
   id="stop1331" />
   <stop
   offset="1"
   stop-color="rgb(0,153,0)"
   id="stop1333" />
  </linearGradient></defs><sodipodi:namedview
   id="namedview508"
   pagecolor="#ffffff"
   bordercolor="#666666"
   borderopacity="1.0"
   inkscape:pageshadow="2"
   inkscape:pageopacity="0.0"
   inkscape:pagecheckerboard="0"
   inkscape:document-units="mm"
   showgrid="false"
   inkscape:snap-global="true"
   inkscape:zoom="1.0433403"
   inkscape:cx="449.03854"
   inkscape:cy="273.16112"
   inkscape:window-width="1876"
   inkscape:window-height="1051"
   inkscape:window-x="0"
   inkscape:window-y="0"
   inkscape:window-maximized="1"
   inkscape:current-layer="svg506" />
 <path
   fill="#ffffff"
   stroke="none"
   d="M 15000,13655.96 H 0 V 0 h 30000 v 13655.96 z"
   id="path2"
   style="stroke-width:26.9279" />
 <path
   fill="none"
   stroke="#b3b3b3"
   stroke-linejoin="round"
   d="M 13688.281,12858.96 H 2784.2815 V 537.9595 H 24592.281 V 12858.96 Z"
   id="path4" />
 <path
   fill="none"
   stroke="#b3b3b3"
   stroke-linejoin="round"
   d="M 24592.281,12857.96 H 2784.2815"
   id="path6" />
 <path
   fill="none"
   stroke="#b3b3b3"
   stroke-linejoin="round"
   d="M 24592.281,11096.96 H 2784.2815"
   id="path8" />
 <path
   fill="none"
   stroke="#b3b3b3"
   stroke-linejoin="round"
   d="M 24592.281,9336.9595 H 2784.2815"
   id="path10" />
 <path
   fill="none"
   stroke="#b3b3b3"
   stroke-linejoin="round"
   d="M 24592.281,7576.9595 H 2784.2815"
   id="path12" />
 <path
   fill="none"
   stroke="#b3b3b3"
   stroke-linejoin="round"
   d="M 24592.281,5816.9595 H 2784.2815"
   id="path14" />
 <path
   fill="none"
   stroke="#b3b3b3"
   stroke-linejoin="round"
   d="M 24592.281,4056.9595 H 2784.2815"
   id="path16" />
 <path
   fill="none"
   stroke="#b3b3b3"
   stroke-linejoin="round"
   d="M 24592.281,2296.9595 H 2784.2815"
   id="path18" />
 <path
   fill="none"
   stroke="#b3b3b3"
   stroke-linejoin="round"
   d="M 24592.281,536.9595 H 2784.2815"
   id="path20" />
 <path
   fill="none"
   stroke="#b3b3b3"
   stroke-linejoin="round"
   d="M 2784.2815,12857.96 H 24592.281"
   id="path22" />
 <path
   fill="none"
   stroke="#b3b3b3"
   stroke-linejoin="round"
   d="m 2634.2815,12857.96 h 150"
   id="path24" />
 <path
   fill="none"
   stroke="#b3b3b3"
   stroke-linejoin="round"
   d="m 2634.2815,12857.96 h 150"
   id="path26" />
 <path
   fill="none"
   stroke="#b3b3b3"
   stroke-linejoin="round"
   d="m 2634.2815,11096.96 h 150"
   id="path28" />
 <path
   fill="none"
   stroke="#b3b3b3"
   stroke-linejoin="round"
   d="m 2634.2815,11096.96 h 150"
   id="path30" />
 <path
   fill="none"
   stroke="#b3b3b3"
   stroke-linejoin="round"
   d="m 2634.2815,9336.9595 h 150"
   id="path32" />
 <path
   fill="none"
   stroke="#b3b3b3"
   stroke-linejoin="round"
   d="m 2634.2815,9336.9595 h 150"
   id="path34" />
 <path
   fill="none"
   stroke="#b3b3b3"
   stroke-linejoin="round"
   d="m 2634.2815,7576.9595 h 150"
   id="path36" />
 <path
   fill="none"
   stroke="#b3b3b3"
   stroke-linejoin="round"
   d="m 2634.2815,7576.9595 h 150"
   id="path38" />
 <path
   fill="none"
   stroke="#b3b3b3"
   stroke-linejoin="round"
   d="m 2634.2815,5816.9595 h 150"
   id="path40" />
 <path
   fill="none"
   stroke="#b3b3b3"
   stroke-linejoin="round"
   d="m 2634.2815,5816.9595 h 150"
   id="path42" />
 <path
   fill="none"
   stroke="#b3b3b3"
   stroke-linejoin="round"
   d="m 2634.2815,4056.9595 h 150"
   id="path44" />
 <path
   fill="none"
   stroke="#b3b3b3"
   stroke-linejoin="round"
   d="m 2634.2815,4056.9595 h 150"
   id="path46" />
 <path
   fill="none"
   stroke="#b3b3b3"
   stroke-linejoin="round"
   d="m 2634.2815,2296.9595 h 150"
   id="path48" />
 <path
   fill="none"
   stroke="#b3b3b3"
   stroke-linejoin="round"
   d="m 2634.2815,2296.9595 h 150"
   id="path50" />
 <path
   fill="none"
   stroke="#b3b3b3"
   stroke-linejoin="round"
   d="m 2634.2815,536.9595 h 150"
   id="path52" />
 <path
   fill="none"
   stroke="#b3b3b3"
   stroke-linejoin="round"
   d="m 2634.2815,536.9595 h 150"
   id="path54" />
 <path
   fill="none"
   stroke="#b3b3b3"
   stroke-linejoin="round"
   d="M 2784.2815,12857.96 V 536.9595"
   id="path56" />
 <path
   fill="#333333"
   stroke="none"
   d="m 23423.281,12857.96 h 779 V 9615.9595 h -779 z"
   id="path58" />
 <path
   fill="#333333"
   stroke="none"
   d="m 21865.281,12857.96 h 779 V 9570.9595 h -779 z"
   id="path60" />
 <path
   fill="#333333"
   stroke="none"
   d="m 20308.281,12857.96 h 778 V 9416.9595 h -778 z"
   id="path62" />
 <path
   fill="#333333"
   stroke="none"
   d="m 18750.281,12857.96 h 779 V 9384.9595 h -779 z"
   id="path64" />
 <path
   fill="#333333"
   stroke="none"
   d="m 17192.281,12857.96 h 779 V 9374.9595 h -779 z"
   id="path66" />
 <path
   fill="#333333"
   stroke="none"
   d="m 15634.281,12857.96 h 779 V 9312.9595 h -779 z"
   id="path68" />
 <path
   fill="#333333"
   stroke="none"
   d="m 14077.281,12857.96 h 779 V 9308.9595 h -779 z"
   id="path70" />
 <path
   fill="#333333"
   stroke="none"
   d="m 12520.281,12857.96 h 779 V 9307.9595 h -779 z"
   id="path72" />
 <path
   fill="#333333"
   stroke="none"
   d="m 10962.281,12857.96 h 779 V 9178.9595 h -779 z"
   id="path74" />
 <path
   fill="#333333"
   stroke="none"
   d="m 9404.2815,12857.96 h 778.9995 V 9065.9595 h -778.9995 z"
   id="path76" />
 <path
   fill="#333333"
   stroke="none"
   d="m 7846.2815,12857.96 h 779 V 8859.9595 h -779 z"
   id="path78" />
 <path
   fill="#333333"
   stroke="none"
   d="m 6289.2815,12857.96 h 778 V 8753.9595 h -778 z"
   id="path80" />
 <path
   fill="#333333"
   stroke="none"
   d="m 4731.2815,12857.96 h 779 V 8783.9595 h -779 z"
   id="path82" />
 <path
   fill="#333333"
   stroke="none"
   d="m 3173.2815,12857.96 h 779 V 8743.9595 h -779 z"
   id="path84" />
 <path
   fill="#c5000b"
   stroke="none"
   d="m 23423.281,9615.9595 h 779 v -16 h -779 z"
   id="path86" />
 <path
   fill="#c5000b"
   stroke="none"
   d="m 21865.281,9570.9595 h 779 v -15 h -779 z"
   id="path88" />
 <path
   fill="#c5000b"
   stroke="none"
   d="m 12520.281,9307.9595 h 779 v -8 h -779 z"
   id="path90" />
 <path
   fill="#c5000b"
   stroke="none"
   d="m 3173.2815,8743.9595 h 779 v 0 z"
   id="path92" />
 <path
   fill="#ff950e"
   stroke="none"
   d="m 23423.281,9599.9595 h 779 v -9 h -779 z"
   id="path94" />
 <path
   fill="#ff950e"
   stroke="none"
   d="m 21865.281,9555.9595 h 779 v -8 h -779 z"
   id="path96" />
 <path
   fill="#ff950e"
   stroke="none"
   d="m 12520.281,9299.9595 h 779 v -4 h -779 z"
   id="path98" />
 <path
   fill="#ff950e"
   stroke="none"
   d="m 3173.2815,8743.9595 h 779 v 0 z"
   id="path100" />
 <path
   fill="#4b1f6f"
   stroke="none"
   d="m 23423.281,9590.9595 h 779 v -101 h -779 z"
   id="path102" />
 <path
   fill="#4b1f6f"
   stroke="none"
   d="m 21865.281,9547.9595 h 779 v -103 h -779 z"
   id="path104" />
 <path
   fill="#4b1f6f"
   stroke="none"
   d="m 12520.281,9295.9595 h 779 v -57 h -779 z"
   id="path106" />
 <path
   fill="#4b1f6f"
   stroke="none"
   d="m 3173.2815,8743.9595 h 779 v -17 h -779 z"
   id="path108" />
 <path
   fill="#aecf00"
   stroke="none"
   d="m 23423.281,9489.9595 h 779 v -2 h -779 z"
   id="path110" />
 <path
   fill="#aecf00"
   stroke="none"
   d="m 21865.281,9444.9595 h 779 v -2 h -779 z"
   id="path112" />
 <path
   fill="#aecf00"
   stroke="none"
   d="m 12520.281,9238.9595 h 779 v 0 z"
   id="path114" />
 <path
   fill="#aecf00"
   stroke="none"
   d="m 3173.2815,8726.9595 h 779 v 0 z"
   id="path116" />
 <path
   fill="#314004"
   stroke="none"
   d="m 23423.281,9487.9595 h 779 v -5456 h -779 z"
   id="path118" />
 <path
   fill="#314004"
   stroke="none"
   d="m 21865.281,9442.9595 h 779 v -4986 h -779 z"
   id="path120" />
 <path
   fill="#314004"
   stroke="none"
   d="m 12520.281,9238.9595 h 779 v -5929 h -779 z"
   id="path122" />
 <path
   fill="#314004"
   stroke="none"
   d="m 3173.2815,8726.9595 h 779 v -647 h -779 z"
   id="path124" />
 <path
   fill="#83caff"
   stroke="none"
   d="m 23423.281,4031.9595 h 779 v -2 h -779 z"
   id="path126" />
 <path
   fill="#83caff"
   stroke="none"
   d="m 21865.281,4456.9595 h 779 v -1 h -779 z"
   id="path128" />
 <path
   fill="#7e0021"
   stroke="none"
   d="m 23423.281,4029.9595 h 779 v 0 z"
   id="path130" />
 <path
   fill="#7e0021"
   stroke="none"
   d="m 21865.281,4455.9595 h 779 v 0 z"
   id="path132" />
 <path
   fill="#7e0021"
   stroke="none"
   d="m 12520.281,3309.9595 h 779 v -1 h -779 z"
   id="path134" />
 <path
   fill="#7e0021"
   stroke="none"
   d="m 3173.2815,8079.9595 h 779 v 0 z"
   id="path136" />
 <path
   fill="#579d1c"
   stroke="none"
   d="m 23423.281,4029.9595 h 779 v 0 z"
   id="path138" />
 <path
   fill="#579d1c"
   stroke="none"
   d="m 21865.281,4455.9595 h 779 v 0 z"
   id="path140" />
 <path
   fill="#579d1c"
   stroke="none"
   d="m 12520.281,3308.9595 h 779 v 0 z"
   id="path142" />
 <path
   fill="#579d1c"
   stroke="none"
   d="m 3173.2815,8079.9595 h 779 v 0 z"
   id="path144" />
 <path
   fill="#ffd320"
   stroke="none"
   d="m 23423.281,4029.9595 h 779 v 0 z"
   id="path146" />
 <path
   fill="#ffd320"
   stroke="none"
   d="m 21865.281,4455.9595 h 779 v 0 z"
   id="path148" />
 <path
   fill="#ffd320"
   stroke="none"
   d="m 12520.281,3308.9595 h 779 v 0 z"
   id="path150" />
 <path
   fill="#ff420e"
   stroke="none"
   d="m 23423.281,4029.9595 h 779 v -1 h -779 z"
   id="path152" />
 <path
   fill="#ff420e"
   stroke="none"
   d="m 21865.281,4455.9595 h 779 v -2 h -779 z"
   id="path154" />
 <path
   fill="#ff420e"
   stroke="none"
   d="m 12520.281,3308.9595 h 779 v -1 h -779 z"
   id="path156" />
 <path
   fill="#ff420e"
   stroke="none"
   d="m 3173.2815,8079.9595 h 779 v -1 h -779 z"
   id="path158" />
 <path
   fill="#004586"
   stroke="none"
   d="m 23423.281,4028.9595 h 779 v -7 h -779 z"
   id="path160" />
 <path
   fill="#004586"
   stroke="none"
   d="m 21865.281,4453.9595 h 779 v -6 h -779 z"
   id="path162" />
 <path
   fill="#004586"
   stroke="none"
   d="m 12520.281,3307.9595 h 779 v -7 h -779 z"
   id="path164" />
 <path
   fill="#004586"
   stroke="none"
   d="m 3173.2815,8078.9595 h 779 v -7 h -779 z"
   id="path166" />
 <path
   fill="#99ccff"
   stroke="none"
   d="m 20308.281,9416.9595 h 778 v -5366 h -778 z"
   id="path168" />
 <path
   fill="#99ccff"
   stroke="none"
   d="m 18750.281,9384.9595 h 779 v -5278 h -779 z"
   id="path170" />
 <path
   fill="#99ccff"
   stroke="none"
   d="m 17192.281,9374.9595 h 779 v -6081 h -779 z"
   id="path172" />
 <path
   fill="#99ccff"
   stroke="none"
   d="m 15634.281,9312.9595 h 779 v -6150 h -779 z"
   id="path174" />
 <path
   fill="#99ccff"
   stroke="none"
   d="m 14077.281,9308.9595 h 779 v -6614 h -779 z"
   id="path176" />
 <path
   fill="#99ccff"
   stroke="none"
   d="m 10962.281,9178.9595 h 779 v -5572 h -779 z"
   id="path178" />
 <path
   fill="#99ccff"
   stroke="none"
   d="m 9404.2815,9065.9595 h 778.9995 v -4234 h -778.9995 z"
   id="path180" />
 <path
   fill="#99ccff"
   stroke="none"
   d="m 7846.2815,8859.9595 h 779 v -3115 h -779 z"
   id="path182" />
 <path
   fill="#99ccff"
   stroke="none"
   d="m 6289.2815,8753.9595 h 778 v -3032 h -778 z"
   id="path184" />
 <path
   fill="#99ccff"
   stroke="none"
   d="m 4731.2815,8783.9595 h 779 v -1943 h -779 z"
   id="path186" />
 <path
   fill="none"
   stroke="#333333"
   stroke-width="80"
   stroke-linejoin="round"
   d="m 3562.2815,8743.9595 1558,40 1558,-30 1558,106 1558,206 1556.9995,113 1558,129 1558,1 1557,4 1557,62 1558,10 1558,32 1558,154 1558,45"
   id="path188" />
 <path
   fill="none"
   stroke="#99ccff"
   stroke-width="80"
   stroke-linejoin="round"
   d="m 3562.2815,8071.9595 1558,-1231 1558,-1119 1558,23 1558,-913 1556.9995,-1225 1558,-306 1558,-606 1557,468 1557,131 1558,813 1558,-56 1558,397 1558,-426"
   id="path190" />
 <text
   class="SVGTextShape"
   id="text198"
   x="-50.718513"
   y="-1344.0405"><tspan
     class="TextParagraph"
     font-family="'Liberation Sans', sans-serif"
     font-size="353px"
     font-weight="400"
     id="tspan196"><tspan
       class="TextPosition"
       x="3191.2815"
       y="13275.96"
       id="tspan194"><tspan
         fill="#000000"
         stroke="none"
         id="tspan192">1950</tspan></tspan></tspan></text>
 <text
   class="SVGTextShape"
   id="text206"
   x="-50.718513"
   y="-1344.0405"><tspan
     class="TextParagraph"
     font-family="'Liberation Sans', sans-serif"
     font-size="353px"
     font-weight="400"
     id="tspan204"><tspan
       class="TextPosition"
       x="4749.2812"
       y="13275.96"
       id="tspan202"><tspan
         fill="#000000"
         stroke="none"
         id="tspan200">1955</tspan></tspan></tspan></text>
 <text
   class="SVGTextShape"
   id="text214"
   x="-50.718513"
   y="-1344.0405"><tspan
     class="TextParagraph"
     font-family="'Liberation Sans', sans-serif"
     font-size="353px"
     font-weight="400"
     id="tspan212"><tspan
       class="TextPosition"
       x="6307.2812"
       y="13275.96"
       id="tspan210"><tspan
         fill="#000000"
         stroke="none"
         id="tspan208">1960</tspan></tspan></tspan></text>
 <text
   class="SVGTextShape"
   id="text222"
   x="-50.718513"
   y="-1344.0405"><tspan
     class="TextParagraph"
     font-family="'Liberation Sans', sans-serif"
     font-size="353px"
     font-weight="400"
     id="tspan220"><tspan
       class="TextPosition"
       x="7865.2812"
       y="13275.96"
       id="tspan218"><tspan
         fill="#000000"
         stroke="none"
         id="tspan216">1965</tspan></tspan></tspan></text>
 <text
   class="SVGTextShape"
   id="text230"
   x="-50.718513"
   y="-1344.0405"><tspan
     class="TextParagraph"
     font-family="'Liberation Sans', sans-serif"
     font-size="353px"
     font-weight="400"
     id="tspan228"><tspan
       class="TextPosition"
       x="9423.2812"
       y="13275.96"
       id="tspan226"><tspan
         fill="#000000"
         stroke="none"
         id="tspan224">1970</tspan></tspan></tspan></text>
 <text
   class="SVGTextShape"
   id="text238"
   x="-50.718513"
   y="-1344.0405"><tspan
     class="TextParagraph"
     font-family="'Liberation Sans', sans-serif"
     font-size="353px"
     font-weight="400"
     id="tspan236"><tspan
       class="TextPosition"
       x="10980.281"
       y="13275.96"
       id="tspan234"><tspan
         fill="#000000"
         stroke="none"
         id="tspan232">1975</tspan></tspan></tspan></text>
 <text
   class="SVGTextShape"
   id="text246"
   x="-50.718513"
   y="-1344.0405"><tspan
     class="TextParagraph"
     font-family="'Liberation Sans', sans-serif"
     font-size="353px"
     font-weight="400"
     id="tspan244"><tspan
       class="TextPosition"
       x="12538.281"
       y="13275.96"
       id="tspan242"><tspan
         fill="#000000"
         stroke="none"
         id="tspan240">1980</tspan></tspan></tspan></text>
 <text
   class="SVGTextShape"
   id="text254"
   x="-50.718513"
   y="-1344.0405"><tspan
     class="TextParagraph"
     font-family="'Liberation Sans', sans-serif"
     font-size="353px"
     font-weight="400"
     id="tspan252"><tspan
       class="TextPosition"
       x="14096.281"
       y="13275.96"
       id="tspan250"><tspan
         fill="#000000"
         stroke="none"
         id="tspan248">1985</tspan></tspan></tspan></text>
 <text
   class="SVGTextShape"
   id="text262"
   x="-50.718513"
   y="-1344.0405"><tspan
     class="TextParagraph"
     font-family="'Liberation Sans', sans-serif"
     font-size="353px"
     font-weight="400"
     id="tspan260"><tspan
       class="TextPosition"
       x="15654.281"
       y="13275.96"
       id="tspan258"><tspan
         fill="#000000"
         stroke="none"
         id="tspan256">1990</tspan></tspan></tspan></text>
 <text
   class="SVGTextShape"
   id="text270"
   x="-50.718513"
   y="-1344.0405"><tspan
     class="TextParagraph"
     font-family="'Liberation Sans', sans-serif"
     font-size="353px"
     font-weight="400"
     id="tspan268"><tspan
       class="TextPosition"
       x="17211.281"
       y="13275.96"
       id="tspan266"><tspan
         fill="#000000"
         stroke="none"
         id="tspan264">1995</tspan></tspan></tspan></text>
 <text
   class="SVGTextShape"
   id="text278"
   x="-50.718513"
   y="-1344.0405"><tspan
     class="TextParagraph"
     font-family="'Liberation Sans', sans-serif"
     font-size="353px"
     font-weight="400"
     id="tspan276"><tspan
       class="TextPosition"
       x="18769.281"
       y="13275.96"
       id="tspan274"><tspan
         fill="#000000"
         stroke="none"
         id="tspan272">2000</tspan></tspan></tspan></text>
 <text
   class="SVGTextShape"
   id="text286"
   x="-50.718513"
   y="-1344.0405"><tspan
     class="TextParagraph"
     font-family="'Liberation Sans', sans-serif"
     font-size="353px"
     font-weight="400"
     id="tspan284"><tspan
       class="TextPosition"
       x="20327.281"
       y="13275.96"
       id="tspan282"><tspan
         fill="#000000"
         stroke="none"
         id="tspan280">2005</tspan></tspan></tspan></text>
 <text
   class="SVGTextShape"
   id="text294"
   x="-50.718513"
   y="-1344.0405"><tspan
     class="TextParagraph"
     font-family="'Liberation Sans', sans-serif"
     font-size="353px"
     font-weight="400"
     id="tspan292"><tspan
       class="TextPosition"
       x="21885.281"
       y="13275.96"
       id="tspan290"><tspan
         fill="#000000"
         stroke="none"
         id="tspan288">2010</tspan></tspan></tspan></text>
 <text
   class="SVGTextShape"
   id="text302"
   x="-50.718513"
   y="-1344.0405"><tspan
     class="TextParagraph"
     font-family="'Liberation Sans', sans-serif"
     font-size="353px"
     font-weight="400"
     id="tspan300"><tspan
       class="TextPosition"
       x="23443.281"
       y="13275.96"
       id="tspan298"><tspan
         fill="#000000"
         stroke="none"
         id="tspan296">2015</tspan></tspan></tspan></text>
 <text
   class="SVGTextShape"
   id="text310"
   x="-50.718513"
   y="-1344.0405"><tspan
     class="TextParagraph"
     font-family="'Liberation Sans', sans-serif"
     font-size="353px"
     font-weight="400"
     id="tspan308"><tspan
       class="TextPosition"
       x="1873.2815"
       y="12978.96"
       id="tspan306"><tspan
         fill="#000000"
         stroke="none"
         id="tspan304">0 ha</tspan></tspan></tspan></text>
 <text
   class="SVGTextShape"
   id="text318"
   x="-50.718513"
   y="-1344.0405"><tspan
     class="TextParagraph"
     font-family="'Liberation Sans', sans-serif"
     font-size="353px"
     font-weight="400"
     id="tspan316"><tspan
       class="TextPosition"
       x="550.28149"
       y="11217.96"
       id="tspan314"><tspan
         fill="#000000"
         stroke="none"
         id="tspan312">1,000,000 ha</tspan></tspan></tspan></text>
 <text
   class="SVGTextShape"
   id="text326"
   x="-50.718513"
   y="-1344.0405"><tspan
     class="TextParagraph"
     font-family="'Liberation Sans', sans-serif"
     font-size="353px"
     font-weight="400"
     id="tspan324"><tspan
       class="TextPosition"
       x="550.28149"
       y="9457.96"
       id="tspan322"><tspan
         fill="#000000"
         stroke="none"
         id="tspan320">2,000,000 ha</tspan></tspan></tspan></text>
 <text
   class="SVGTextShape"
   id="text334"
   x="-50.718513"
   y="-1344.0405"><tspan
     class="TextParagraph"
     font-family="'Liberation Sans', sans-serif"
     font-size="353px"
     font-weight="400"
     id="tspan332"><tspan
       class="TextPosition"
       x="550.28149"
       y="7697.9595"
       id="tspan330"><tspan
         fill="#000000"
         stroke="none"
         id="tspan328">3,000,000 ha</tspan></tspan></tspan></text>
 <text
   class="SVGTextShape"
   id="text342"
   x="-50.718513"
   y="-1344.0405"><tspan
     class="TextParagraph"
     font-family="'Liberation Sans', sans-serif"
     font-size="353px"
     font-weight="400"
     id="tspan340"><tspan
       class="TextPosition"
       x="550.28149"
       y="5936.9595"
       id="tspan338"><tspan
         fill="#000000"
         stroke="none"
         id="tspan336">4,000,000 ha</tspan></tspan></tspan></text>
 <text
   class="SVGTextShape"
   id="text350"
   x="-50.718513"
   y="-1344.0405"><tspan
     class="TextParagraph"
     font-family="'Liberation Sans', sans-serif"
     font-size="353px"
     font-weight="400"
     id="tspan348"><tspan
       class="TextPosition"
       x="550.28149"
       y="4176.9595"
       id="tspan346"><tspan
         fill="#000000"
         stroke="none"
         id="tspan344">5,000,000 ha</tspan></tspan></tspan></text>
 <text
   class="SVGTextShape"
   id="text358"
   x="-50.718513"
   y="-1344.0405"><tspan
     class="TextParagraph"
     font-family="'Liberation Sans', sans-serif"
     font-size="353px"
     font-weight="400"
     id="tspan356"><tspan
       class="TextPosition"
       x="550.28149"
       y="2416.9595"
       id="tspan354"><tspan
         fill="#000000"
         stroke="none"
         id="tspan352">6,000,000 ha</tspan></tspan></tspan></text>
 <text
   class="SVGTextShape"
   id="text366"
   x="-50.718513"
   y="-1344.0405"><tspan
     class="TextParagraph"
     font-family="'Liberation Sans', sans-serif"
     font-size="353px"
     font-weight="400"
     id="tspan364"><tspan
       class="TextPosition"
       x="550.28149"
       y="656.95947"
       id="tspan362"><tspan
         fill="#000000"
         stroke="none"
         id="tspan360">7,000,000 ha</tspan></tspan></tspan></text>
 
 <path
   fill="#333333"
   stroke="none"
   d="m 25708.281,9247.9595 h -400 v -211 h 800 v 211 z"
   id="path376" />
 <path
   fill="#c5000b"
   stroke="none"
   d="m 25708.281,8749.9595 h -400 v -211 h 800 v 211 z"
   id="path378" />
 <path
   fill="#ff950e"
   stroke="none"
   d="m 25708.281,8251.9595 h -400 v -211 h 800 v 211 z"
   id="path380" />
 <path
   fill="#4b1f6f"
   stroke="none"
   d="m 25708.281,7753.9595 h -400 v -211 h 800 v 211 z"
   id="path382" />
 <path
   fill="#aecf00"
   stroke="none"
   d="m 25708.281,7255.9595 h -400 v -211 h 800 v 211 z"
   id="path384" />
 <path
   fill="#314004"
   stroke="none"
   d="m 25708.281,6757.9595 h -400 v -211 h 800 v 211 z"
   id="path386" />
 <path
   fill="#83caff"
   stroke="none"
   d="m 25708.281,6259.9595 h -400 v -210 h 800 v 210 z"
   id="path388" />
 <path
   fill="#7e0021"
   stroke="none"
   d="m 25708.281,5762.9595 h -400 v -211 h 800 v 211 z"
   id="path390" />
 <path
   fill="#579d1c"
   stroke="none"
   d="m 25708.281,5264.9595 h -400 v -211 h 800 v 211 z"
   id="path392" />
 <path
   fill="#ffd320"
   stroke="none"
   d="m 25708.281,4766.9595 h -400 v -211 h 800 v 211 z"
   id="path394" />
 <path
   fill="#ff420e"
   stroke="none"
   d="m 25708.281,4268.9595 h -400 v -211 h 800 v 211 z"
   id="path396" />
 <path
   fill="#004586"
   stroke="none"
   d="m 25708.281,3770.9595 h -400 v -211 h 800 v 211 z"
   id="path398" />
 <path
   fill="#99ccff"
   stroke="none"
   d="m 25708.281,3272.9595 h -400 v -211 h 800 v 211 z"
   id="path400" />
 <text
   class="SVGTextShape"
   id="text408"
   x="-50.718513"
   y="-1344.0405"><tspan
     class="TextParagraph"
     font-family="'Liberation Sans', sans-serif"
     font-size="353px"
     font-weight="400"
     id="tspan406"><tspan
       class="TextPosition"
       x="26208.281"
       y="3286.9595"
       id="tspan404"><tspan
         fill="#000000"
         stroke="none"
         id="tspan402">indirect landgebruik</tspan></tspan></tspan></text>
 <text
   class="SVGTextShape"
   id="text416"
   x="-50.718513"
   y="-1344.0405"><tspan
     class="TextParagraph"
     font-family="'Liberation Sans', sans-serif"
     font-size="353px"
     font-weight="400"
     id="tspan414"><tspan
       class="TextPosition"
       x="26208.281"
       y="3784.9595"
       id="tspan412"><tspan
         fill="#000000"
         stroke="none"
         id="tspan410">transport en infrastr. </tspan></tspan></tspan></text>
 <text
   class="SVGTextShape"
   id="text424"
   x="-50.718513"
   y="-1344.0405"><tspan
     class="TextParagraph"
     font-family="'Liberation Sans', sans-serif"
     font-size="353px"
     font-weight="400"
     id="tspan422"><tspan
       class="TextPosition"
       x="26208.281"
       y="4282.9595"
       id="tspan420"><tspan
         fill="#000000"
         stroke="none"
         id="tspan418">dienstverlening </tspan></tspan></tspan></text>
 <text
   class="SVGTextShape"
   id="text432"
   x="-50.718513"
   y="-1344.0405"><tspan
     class="TextParagraph"
     font-family="'Liberation Sans', sans-serif"
     font-size="353px"
     font-weight="400"
     id="tspan430"><tspan
       class="TextPosition"
       x="26208.281"
       y="4780.9595"
       id="tspan428"><tspan
         fill="#000000"
         stroke="none"
         id="tspan426">elektronica </tspan></tspan></tspan></text>
 <text
   class="SVGTextShape"
   id="text440"
   x="-50.718513"
   y="-1344.0405"><tspan
     class="TextParagraph"
     font-family="'Liberation Sans', sans-serif"
     font-size="353px"
     font-weight="400"
     id="tspan438"><tspan
       class="TextPosition"
       x="26208.281"
       y="5278.9595"
       id="tspan436"><tspan
         fill="#000000"
         stroke="none"
         id="tspan434">bestrijdingsmiddelen </tspan></tspan></tspan></text>
 <text
   class="SVGTextShape"
   id="text448"
   x="-50.718513"
   y="-1344.0405"><tspan
     class="TextParagraph"
     font-family="'Liberation Sans', sans-serif"
     font-size="353px"
     font-weight="400"
     id="tspan446"><tspan
       class="TextPosition"
       x="26208.281"
       y="5776.9595"
       id="tspan444"><tspan
         fill="#000000"
         stroke="none"
         id="tspan442">kunstmest </tspan></tspan></tspan></text>
 <text
   class="SVGTextShape"
   id="text456"
   x="-50.718513"
   y="-1344.0405"><tspan
     class="TextParagraph"
     font-family="'Liberation Sans', sans-serif"
     font-size="353px"
     font-weight="400"
     id="tspan454"><tspan
       class="TextPosition"
       x="26208.281"
       y="6273.9595"
       id="tspan452"><tspan
         fill="#000000"
         stroke="none"
         id="tspan450">dierlijke mest </tspan></tspan></tspan></text>
 <text
   class="SVGTextShape"
   id="text464"
   x="-50.718513"
   y="-1344.0405"><tspan
     class="TextParagraph"
     font-family="'Liberation Sans', sans-serif"
     font-size="353px"
     font-weight="400"
     id="tspan462"><tspan
       class="TextPosition"
       x="26208.281"
       y="6771.9595"
       id="tspan460"><tspan
         fill="#000000"
         stroke="none"
         id="tspan458">veevoer </tspan></tspan></tspan></text>
 <text
   class="SVGTextShape"
   id="text472"
   x="-50.718513"
   y="-1344.0405"><tspan
     class="TextParagraph"
     font-family="'Liberation Sans', sans-serif"
     font-size="353px"
     font-weight="400"
     id="tspan470"><tspan
       class="TextPosition"
       x="26208.281"
       y="7269.9595"
       id="tspan468"><tspan
         fill="#000000"
         stroke="none"
         id="tspan466">trekkers en machines </tspan></tspan></tspan></text>
 <text
   class="SVGTextShape"
   id="text480"
   x="-50.718513"
   y="-1344.0405"><tspan
     class="TextParagraph"
     font-family="'Liberation Sans', sans-serif"
     font-size="353px"
     font-weight="400"
     id="tspan478"><tspan
       class="TextPosition"
       x="26208.281"
       y="7767.9595"
       id="tspan476"><tspan
         fill="#000000"
         stroke="none"
         id="tspan474">gebouwen </tspan></tspan></tspan></text>
 <text
   class="SVGTextShape"
   id="text488"
   x="-50.718513"
   y="-1344.0405"><tspan
     class="TextParagraph"
     font-family="'Liberation Sans', sans-serif"
     font-size="353px"
     font-weight="400"
     id="tspan486"><tspan
       class="TextPosition"
       x="26208.281"
       y="8265.96"
       id="tspan484"><tspan
         fill="#000000"
         stroke="none"
         id="tspan482">mijnbouw </tspan></tspan></tspan></text>
 <text
   class="SVGTextShape"
   id="text496"
   x="-50.718513"
   y="-1344.0405"><tspan
     class="TextParagraph"
     font-family="'Liberation Sans', sans-serif"
     font-size="353px"
     font-weight="400"
     id="tspan494"><tspan
       class="TextPosition"
       x="26208.281"
       y="8763.96"
       id="tspan492"><tspan
         fill="#000000"
         stroke="none"
         id="tspan490">energie toelevering</tspan></tspan></tspan></text>
 <text
   class="SVGTextShape"
   id="text504"
   x="-50.718513"
   y="-1344.0405"><tspan
     class="TextParagraph"
     font-family="'Liberation Sans', sans-serif"
     font-size="353px"
     font-weight="400"
     id="tspan502"><tspan
       class="TextPosition"
       x="26208.281"
       y="9261.96"
       id="tspan500"><tspan
         fill="#000000"
         stroke="none"
         id="tspan498">direct landgebruik </tspan></tspan></tspan></text>
<g
   style="stroke-width:28.222;stroke-linejoin:round"
   id="g1632"
   transform="translate(2828.6185,536.6651)"><path
     fill="#ffffff"
     stroke="none"
     d="M 3686,3984 H 247 C -156.11014,2747.6159 -92.623941,1405.1873 247,0 h 6878 v 3984 z"
     id="path1327"
     sodipodi:nodetypes="cccccc" /><path
     fill="none"
     stroke="#000000"
     stroke-linejoin="round"
     d="M 3540.1843,3983.7056 H -44.337048 V 0.29439575 H 7124.7056 V 3983.7056 Z"
     id="path1329"
     style="stroke-width:28.8108" /><path
     fill="url(#Gradient_2)"
     stroke="#b3b3b3"
     stroke-linejoin="round"
     d="M 3882,2979 H 779 V 264 h 6207 v 2715 z"
     id="path1338"
     style="fill:url(#Gradient_2)" /><path
     fill="none"
     stroke="#b3b3b3"
     stroke-linejoin="round"
     d="M 6986,2978 H 779"
     id="path1340" /><path
     fill="none"
     stroke="#b3b3b3"
     stroke-linejoin="round"
     d="M 6986,2202 H 779"
     id="path1342" /><path
     fill="none"
     stroke="#b3b3b3"
     stroke-linejoin="round"
     d="M 6986,1426 H 779"
     id="path1344" /><path
     fill="none"
     stroke="#b3b3b3"
     stroke-linejoin="round"
     d="M 6986,650 H 779"
     id="path1346" /><path
     fill="none"
     stroke="#b3b3b3"
     stroke-linejoin="round"
     d="M 779,3128 V 2978"
     id="path1348" /><path
     fill="none"
     stroke="#b3b3b3"
     stroke-linejoin="round"
     d="M 779,3128 V 2978"
     id="path1350" /><path
     fill="none"
     stroke="#b3b3b3"
     stroke-linejoin="round"
     d="M 1222,3128 V 2978"
     id="path1352" /><path
     fill="none"
     stroke="#b3b3b3"
     stroke-linejoin="round"
     d="M 1222,3128 V 2978"
     id="path1354" /><path
     fill="none"
     stroke="#b3b3b3"
     stroke-linejoin="round"
     d="M 1665,3128 V 2978"
     id="path1356" /><path
     fill="none"
     stroke="#b3b3b3"
     stroke-linejoin="round"
     d="M 1665,3128 V 2978"
     id="path1358" /><path
     fill="none"
     stroke="#b3b3b3"
     stroke-linejoin="round"
     d="M 2109,3128 V 2978"
     id="path1360" /><path
     fill="none"
     stroke="#b3b3b3"
     stroke-linejoin="round"
     d="M 2109,3128 V 2978"
     id="path1362" /><path
     fill="none"
     stroke="#b3b3b3"
     stroke-linejoin="round"
     d="M 2552,3128 V 2978"
     id="path1364" /><path
     fill="none"
     stroke="#b3b3b3"
     stroke-linejoin="round"
     d="M 2552,3128 V 2978"
     id="path1366" /><path
     fill="none"
     stroke="#b3b3b3"
     stroke-linejoin="round"
     d="M 2995,3128 V 2978"
     id="path1368" /><path
     fill="none"
     stroke="#b3b3b3"
     stroke-linejoin="round"
     d="M 2995,3128 V 2978"
     id="path1370" /><path
     fill="none"
     stroke="#b3b3b3"
     stroke-linejoin="round"
     d="M 3439,3128 V 2978"
     id="path1372" /><path
     fill="none"
     stroke="#b3b3b3"
     stroke-linejoin="round"
     d="M 3439,3128 V 2978"
     id="path1374" /><path
     fill="none"
     stroke="#b3b3b3"
     stroke-linejoin="round"
     d="M 3882,3128 V 2978"
     id="path1376" /><path
     fill="none"
     stroke="#b3b3b3"
     stroke-linejoin="round"
     d="M 3882,3128 V 2978"
     id="path1378" /><path
     fill="none"
     stroke="#b3b3b3"
     stroke-linejoin="round"
     d="M 4325,3128 V 2978"
     id="path1380" /><path
     fill="none"
     stroke="#b3b3b3"
     stroke-linejoin="round"
     d="M 4325,3128 V 2978"
     id="path1382" /><path
     fill="none"
     stroke="#b3b3b3"
     stroke-linejoin="round"
     d="M 4769,3128 V 2978"
     id="path1384" /><path
     fill="none"
     stroke="#b3b3b3"
     stroke-linejoin="round"
     d="M 4769,3128 V 2978"
     id="path1386" /><path
     fill="none"
     stroke="#b3b3b3"
     stroke-linejoin="round"
     d="M 5212,3128 V 2978"
     id="path1388" /><path
     fill="none"
     stroke="#b3b3b3"
     stroke-linejoin="round"
     d="M 5212,3128 V 2978"
     id="path1390" /><path
     fill="none"
     stroke="#b3b3b3"
     stroke-linejoin="round"
     d="M 5655,3128 V 2978"
     id="path1392" /><path
     fill="none"
     stroke="#b3b3b3"
     stroke-linejoin="round"
     d="M 5655,3128 V 2978"
     id="path1394" /><path
     fill="none"
     stroke="#b3b3b3"
     stroke-linejoin="round"
     d="M 6099,3128 V 2978"
     id="path1396" /><path
     fill="none"
     stroke="#b3b3b3"
     stroke-linejoin="round"
     d="M 6099,3128 V 2978"
     id="path1398" /><path
     fill="none"
     stroke="#b3b3b3"
     stroke-linejoin="round"
     d="M 6542,3128 V 2978"
     id="path1400" /><path
     fill="none"
     stroke="#b3b3b3"
     stroke-linejoin="round"
     d="M 6542,3128 V 2978"
     id="path1402" /><path
     fill="none"
     stroke="#b3b3b3"
     stroke-linejoin="round"
     d="M 6986,3128 V 2978"
     id="path1404" /><path
     fill="none"
     stroke="#b3b3b3"
     stroke-linejoin="round"
     d="M 6986,3128 V 2978"
     id="path1406" /><path
     fill="none"
     stroke="#b3b3b3"
     stroke-linejoin="round"
     d="M 779,2978 H 6986"
     id="path1408" /><path
     fill="none"
     stroke="#b3b3b3"
     stroke-linejoin="round"
     d="M 634,2978 H 779"
     id="path1410" /><path
     fill="none"
     stroke="#b3b3b3"
     stroke-linejoin="round"
     d="M 634,2978 H 779"
     id="path1412" /><path
     fill="none"
     stroke="#b3b3b3"
     stroke-linejoin="round"
     d="M 634,2202 H 779"
     id="path1414" /><path
     fill="none"
     stroke="#b3b3b3"
     stroke-linejoin="round"
     d="M 634,2202 H 779"
     id="path1416" /><path
     fill="none"
     stroke="#b3b3b3"
     stroke-linejoin="round"
     d="M 634,1426 H 779"
     id="path1418" /><path
     fill="none"
     stroke="#b3b3b3"
     stroke-linejoin="round"
     d="M 634,1426 H 779"
     id="path1420" /><path
     fill="none"
     stroke="#b3b3b3"
     stroke-linejoin="round"
     d="M 634,650 H 779"
     id="path1422" /><path
     fill="none"
     stroke="#b3b3b3"
     stroke-linejoin="round"
     d="M 634,650 H 779"
     id="path1424" /><path
     fill="none"
     stroke="#b3b3b3"
     stroke-linejoin="round"
     d="M 779,2978 V 262"
     id="path1426" /><path
     fill="none"
     stroke="#ffd320"
     stroke-width="77"
     stroke-linejoin="round"
     d="m 1000,2851 444,-244 443,-203 443,-31 444,-262 443,-308 443,-138 444,-133 443,100 443,-9 444,176 443,-31 443,1 444,-130"
     id="path1428" /><path
     fill="#ffd320"
     stroke="none"
     d="m 879,2726 121,250 121,-250 z"
     id="path1430" /><path
     fill="none"
     stroke="#ffd320"
     stroke-linejoin="round"
     d="m 879,2726 121,250 121,-250 z"
     id="path1432" /><path
     fill="#ffd320"
     stroke="none"
     d="m 1323,2482 121,250 120,-250 z"
     id="path1434" /><path
     fill="none"
     stroke="#ffd320"
     stroke-linejoin="round"
     d="m 1323,2482 121,250 120,-250 z"
     id="path1436" /><path
     fill="#ffd320"
     stroke="none"
     d="m 1766,2279 121,250 120,-250 z"
     id="path1438" /><path
     fill="none"
     stroke="#ffd320"
     stroke-linejoin="round"
     d="m 1766,2279 121,250 120,-250 z"
     id="path1440" /><path
     fill="#ffd320"
     stroke="none"
     d="m 2209,2248 121,250 120,-250 z"
     id="path1442" /><path
     fill="none"
     stroke="#ffd320"
     stroke-linejoin="round"
     d="m 2209,2248 121,250 120,-250 z"
     id="path1444" /><path
     fill="#ffd320"
     stroke="none"
     d="m 2653,1987 121,249 120,-249 z"
     id="path1446" /><path
     fill="none"
     stroke="#ffd320"
     stroke-linejoin="round"
     d="m 2653,1987 121,249 120,-249 z"
     id="path1448" /><path
     fill="#ffd320"
     stroke="none"
     d="m 3096,1678 121,250 120,-250 z"
     id="path1450" /><path
     fill="none"
     stroke="#ffd320"
     stroke-linejoin="round"
     d="m 3096,1678 121,250 120,-250 z"
     id="path1452" /><path
     fill="#ffd320"
     stroke="none"
     d="m 3539,1540 121,250 120,-250 z"
     id="path1454" /><path
     fill="none"
     stroke="#ffd320"
     stroke-linejoin="round"
     d="m 3539,1540 121,250 120,-250 z"
     id="path1456" /><path
     fill="#ffd320"
     stroke="none"
     d="m 3983,1407 121,250 120,-250 z"
     id="path1458" /><path
     fill="none"
     stroke="#ffd320"
     stroke-linejoin="round"
     d="m 3983,1407 121,250 120,-250 z"
     id="path1460" /><path
     fill="#ffd320"
     stroke="none"
     d="m 4426,1507 121,250 120,-250 z"
     id="path1462" /><path
     fill="none"
     stroke="#ffd320"
     stroke-linejoin="round"
     d="m 4426,1507 121,250 120,-250 z"
     id="path1464" /><path
     fill="#ffd320"
     stroke="none"
     d="m 4869,1498 121,250 120,-250 z"
     id="path1466" /><path
     fill="none"
     stroke="#ffd320"
     stroke-linejoin="round"
     d="m 4869,1498 121,250 120,-250 z"
     id="path1468" /><path
     fill="#ffd320"
     stroke="none"
     d="m 5313,1674 121,250 120,-250 z"
     id="path1470" /><path
     fill="none"
     stroke="#ffd320"
     stroke-linejoin="round"
     d="m 5313,1674 121,250 120,-250 z"
     id="path1472" /><path
     fill="#ffd320"
     stroke="none"
     d="m 5756,1643 121,250 120,-250 z"
     id="path1474" /><path
     fill="none"
     stroke="#ffd320"
     stroke-linejoin="round"
     d="m 5756,1643 121,250 120,-250 z"
     id="path1476" /><path
     fill="#ffd320"
     stroke="none"
     d="m 6199,1644 121,250 120,-250 z"
     id="path1478" /><path
     fill="none"
     stroke="#ffd320"
     stroke-linejoin="round"
     d="m 6199,1644 121,250 120,-250 z"
     id="path1480" /><path
     fill="#ffd320"
     stroke="none"
     d="m 6643,1514 121,250 120,-250 z"
     id="path1482" /><path
     fill="none"
     stroke="#ffd320"
     stroke-linejoin="round"
     d="m 6643,1514 121,250 120,-250 z"
     id="path1484" /><text
     class="SVGTextShape"
     id="text1492"><tspan
       class="TextParagraph"
       font-family="'Liberation Sans', sans-serif"
       font-size="282px"
       font-weight="400"
       id="tspan1490"><tspan
         class="TextPosition"
         x="1"
         y="3084"
         id="tspan1488"><tspan
           fill="#000000"
           stroke="none"
           id="tspan1486">0.00</tspan></tspan></tspan></text><text
     class="SVGTextShape"
     id="text1500"><tspan
       class="TextParagraph"
       font-family="'Liberation Sans', sans-serif"
       font-size="282px"
       font-weight="400"
       id="tspan1498"><tspan
         class="TextPosition"
         x="1"
         y="2309"
         id="tspan1496"><tspan
           fill="#000000"
           stroke="none"
           id="tspan1494">1.00</tspan></tspan></tspan></text><text
     class="SVGTextShape"
     id="text1508"><tspan
       class="TextParagraph"
       font-family="'Liberation Sans', sans-serif"
       font-size="282px"
       font-weight="400"
       id="tspan1506"><tspan
         class="TextPosition"
         x="1"
         y="1532"
         id="tspan1504"><tspan
           fill="#000000"
           stroke="none"
           id="tspan1502">2.00</tspan></tspan></tspan></text><text
     class="SVGTextShape"
     id="text1516"><tspan
       class="TextParagraph"
       font-family="'Liberation Sans', sans-serif"
       font-size="282px"
       font-weight="400"
       id="tspan1514"><tspan
         class="TextPosition"
         x="1"
         y="757"
         id="tspan1512"><tspan
           fill="#000000"
           stroke="none"
           id="tspan1510">3.00</tspan></tspan></tspan></text><path
     fill="#ffffff"
     fill-opacity="0.698"
     stroke="#ffffff"
     stroke-opacity="0.698"
     d="M 2028.3611,1111 H 920 V 501 h 2217.7698 v 610 z"
     id="path1518"
     style="stroke-width:28.8859" /><text
     class="SVGTextShape"
     id="text1526"><tspan
       class="TextParagraph"
       font-family="'Liberation Sans', sans-serif"
       font-size="353px"
       font-weight="400"
       id="tspan1524"><tspan
         class="TextPosition"
         x="982"
         y="926"
         id="tspan1522"><tspan
           fill="#000000"
           stroke="none"
           id="tspan1520">indirect/direct</tspan></tspan></tspan></text></g></svg>
