<?xml version="1.0" encoding="UTF-8"?>
<!DOCTYPE svg PUBLIC "-//W3C//DTD SVG 1.1//EN" "http://www.w3.org/Graphics/SVG/1.1/DTD/svg11.dtd">
<svg width="300mm" height="150mm" viewBox="0 0 30000 15000" version="1.1" xmlns="http://www.w3.org/2000/svg" xmlns:xlink="http://www.w3.org/1999/xlink" stroke-width="28.222" stroke-linejoin="round" xml:space="preserve">
 <path fill="rgb(255,255,255)" stroke="none" d="M 15000,15000 L 0,15000 0,0 30000,0 30000,15000 15000,15000 Z"/>
 <path fill="none" stroke="rgb(179,179,179)" stroke-linejoin="round" d="M 12533,13215 L 4000,13215 4000,698 21066,698 21066,13215 12533,13215 Z"/>
 <path fill="none" stroke="rgb(179,179,179)" stroke-linejoin="round" d="M 21066,13214 L 4000,13214"/>
 <path fill="none" stroke="rgb(179,179,179)" stroke-linejoin="round" d="M 21066,11823 L 4000,11823"/>
 <path fill="none" stroke="rgb(179,179,179)" stroke-linejoin="round" d="M 21066,10432 L 4000,10432"/>
 <path fill="none" stroke="rgb(179,179,179)" stroke-linejoin="round" d="M 21066,9041 L 4000,9041"/>
 <path fill="none" stroke="rgb(179,179,179)" stroke-linejoin="round" d="M 21066,7650 L 4000,7650"/>
 <path fill="none" stroke="rgb(179,179,179)" stroke-linejoin="round" d="M 21066,6260 L 4000,6260"/>
 <path fill="none" stroke="rgb(179,179,179)" stroke-linejoin="round" d="M 21066,4869 L 4000,4869"/>
 <path fill="none" stroke="rgb(179,179,179)" stroke-linejoin="round" d="M 21066,3478 L 4000,3478"/>
 <path fill="none" stroke="rgb(179,179,179)" stroke-linejoin="round" d="M 21066,2087 L 4000,2087"/>
 <path fill="none" stroke="rgb(179,179,179)" stroke-linejoin="round" d="M 21066,696 L 4000,696"/>
 <path fill="none" stroke="rgb(179,179,179)" stroke-linejoin="round" d="M 4000,13214 L 21066,13214"/>
 <path fill="none" stroke="rgb(179,179,179)" stroke-linejoin="round" d="M 3850,13214 L 4000,13214"/>
 <path fill="none" stroke="rgb(179,179,179)" stroke-linejoin="round" d="M 3850,13214 L 4000,13214"/>
 <path fill="none" stroke="rgb(179,179,179)" stroke-linejoin="round" d="M 3850,11823 L 4000,11823"/>
 <path fill="none" stroke="rgb(179,179,179)" stroke-linejoin="round" d="M 3850,11823 L 4000,11823"/>
 <path fill="none" stroke="rgb(179,179,179)" stroke-linejoin="round" d="M 3850,10432 L 4000,10432"/>
 <path fill="none" stroke="rgb(179,179,179)" stroke-linejoin="round" d="M 3850,10432 L 4000,10432"/>
 <path fill="none" stroke="rgb(179,179,179)" stroke-linejoin="round" d="M 3850,9041 L 4000,9041"/>
 <path fill="none" stroke="rgb(179,179,179)" stroke-linejoin="round" d="M 3850,9041 L 4000,9041"/>
 <path fill="none" stroke="rgb(179,179,179)" stroke-linejoin="round" d="M 3850,7650 L 4000,7650"/>
 <path fill="none" stroke="rgb(179,179,179)" stroke-linejoin="round" d="M 3850,7650 L 4000,7650"/>
 <path fill="none" stroke="rgb(179,179,179)" stroke-linejoin="round" d="M 3850,6260 L 4000,6260"/>
 <path fill="none" stroke="rgb(179,179,179)" stroke-linejoin="round" d="M 3850,6260 L 4000,6260"/>
 <path fill="none" stroke="rgb(179,179,179)" stroke-linejoin="round" d="M 3850,4869 L 4000,4869"/>
 <path fill="none" stroke="rgb(179,179,179)" stroke-linejoin="round" d="M 3850,4869 L 4000,4869"/>
 <path fill="none" stroke="rgb(179,179,179)" stroke-linejoin="round" d="M 3850,3478 L 4000,3478"/>
 <path fill="none" stroke="rgb(179,179,179)" stroke-linejoin="round" d="M 3850,3478 L 4000,3478"/>
 <path fill="none" stroke="rgb(179,179,179)" stroke-linejoin="round" d="M 3850,2087 L 4000,2087"/>
 <path fill="none" stroke="rgb(179,179,179)" stroke-linejoin="round" d="M 3850,2087 L 4000,2087"/>
 <path fill="none" stroke="rgb(179,179,179)" stroke-linejoin="round" d="M 3850,696 L 4000,696"/>
 <path fill="none" stroke="rgb(179,179,179)" stroke-linejoin="round" d="M 3850,696 L 4000,696"/>
 <path fill="none" stroke="rgb(179,179,179)" stroke-linejoin="round" d="M 4000,13214 L 4000,696"/>
 <path fill="rgb(51,51,51)" stroke="none" d="M 20151,13214 L 20761,13214 20761,10652 20151,10652 20151,13214 Z"/>
 <path fill="rgb(51,51,51)" stroke="none" d="M 18932,13214 L 19542,13214 19542,10617 18932,10617 18932,13214 Z"/>
 <path fill="rgb(51,51,51)" stroke="none" d="M 17713,13214 L 18323,13214 18323,10495 17713,10495 17713,13214 Z"/>
 <path fill="rgb(51,51,51)" stroke="none" d="M 16494,13214 L 17104,13214 17104,10470 16494,10470 16494,13214 Z"/>
 <path fill="rgb(51,51,51)" stroke="none" d="M 15275,13214 L 15884,13214 15884,10462 15275,10462 15275,13214 Z"/>
 <path fill="rgb(51,51,51)" stroke="none" d="M 14057,13214 L 14666,13214 14666,10413 14057,10413 14057,13214 Z"/>
 <path fill="rgb(51,51,51)" stroke="none" d="M 12838,13214 L 13447,13214 13447,10409 12838,10409 12838,13214 Z"/>
 <path fill="rgb(51,51,51)" stroke="none" d="M 11619,13214 L 12228,13214 12228,10409 11619,10409 11619,13214 Z"/>
 <path fill="rgb(51,51,51)" stroke="none" d="M 10400,13214 L 11009,13214 11009,10307 10400,10307 10400,13214 Z"/>
 <path fill="rgb(51,51,51)" stroke="none" d="M 9181,13214 L 9790,13214 9790,10217 9181,10217 9181,13214 Z"/>
 <path fill="rgb(51,51,51)" stroke="none" d="M 7961,13214 L 8571,13214 8571,10055 7961,10055 7961,13214 Z"/>
 <path fill="rgb(51,51,51)" stroke="none" d="M 6742,13214 L 7352,13214 7352,9971 6742,9971 6742,13214 Z"/>
 <path fill="rgb(51,51,51)" stroke="none" d="M 5523,13214 L 6133,13214 6133,9995 5523,9995 5523,13214 Z"/>
 <path fill="rgb(51,51,51)" stroke="none" d="M 4304,13214 L 4914,13214 4914,9963 4304,9963 4304,13214 Z"/>
 <path fill="rgb(197,0,11)" stroke="none" d="M 20151,10652 L 20761,10652 20761,10640 20151,10640 20151,10652 Z"/>
 <path fill="rgb(197,0,11)" stroke="none" d="M 18932,10617 L 19542,10617 19542,10605 18932,10605 18932,10617 Z"/>
 <path fill="rgb(197,0,11)" stroke="none" d="M 11619,10409 L 12228,10409 12228,10402 11619,10402 11619,10409 Z"/>
 <path fill="rgb(197,0,11)" stroke="none" d="M 4304,9963 L 4914,9963 4914,9963 4304,9963 Z"/>
 <path fill="rgb(255,149,14)" stroke="none" d="M 20151,10640 L 20761,10640 20761,10633 20151,10633 20151,10640 Z"/>
 <path fill="rgb(255,149,14)" stroke="none" d="M 18932,10605 L 19542,10605 19542,10598 18932,10598 18932,10605 Z"/>
 <path fill="rgb(255,149,14)" stroke="none" d="M 11619,10402 L 12228,10402 12228,10399 11619,10399 11619,10402 Z"/>
 <path fill="rgb(255,149,14)" stroke="none" d="M 4304,9963 L 4914,9963 4914,9963 4304,9963 Z"/>
 <path fill="rgb(75,31,111)" stroke="none" d="M 20151,10633 L 20761,10633 20761,10552 20151,10552 20151,10633 Z"/>
 <path fill="rgb(75,31,111)" stroke="none" d="M 18932,10598 L 19542,10598 19542,10517 18932,10517 18932,10598 Z"/>
 <path fill="rgb(75,31,111)" stroke="none" d="M 11619,10399 L 12228,10399 12228,10355 11619,10355 11619,10399 Z"/>
 <path fill="rgb(75,31,111)" stroke="none" d="M 4304,9963 L 4914,9963 4914,9950 4304,9950 4304,9963 Z"/>
 <path fill="rgb(174,207,0)" stroke="none" d="M 20151,10552 L 20761,10552 20761,10551 20151,10551 20151,10552 Z"/>
 <path fill="rgb(174,207,0)" stroke="none" d="M 18932,10517 L 19542,10517 19542,10516 18932,10516 18932,10517 Z"/>
 <path fill="rgb(174,207,0)" stroke="none" d="M 11619,10355 L 12228,10355 12228,10354 11619,10354 11619,10355 Z"/>
 <path fill="rgb(174,207,0)" stroke="none" d="M 4304,9950 L 4914,9950 4914,9950 4304,9950 Z"/>
 <path fill="rgb(49,64,4)" stroke="none" d="M 20151,10551 L 20761,10551 20761,6240 20151,6240 20151,10551 Z"/>
 <path fill="rgb(49,64,4)" stroke="none" d="M 18932,10516 L 19542,10516 19542,6576 18932,6576 18932,10516 Z"/>
 <path fill="rgb(49,64,4)" stroke="none" d="M 11619,10354 L 12228,10354 12228,5669 11619,5669 11619,10354 Z"/>
 <path fill="rgb(49,64,4)" stroke="none" d="M 4304,9950 L 4914,9950 4914,9439 4304,9439 4304,9950 Z"/>
 <path fill="rgb(131,202,255)" stroke="none" d="M 20151,6240 L 20761,6240 20761,6239 20151,6239 20151,6240 Z"/>
 <path fill="rgb(131,202,255)" stroke="none" d="M 18932,6576 L 19542,6576 19542,6575 18932,6575 18932,6576 Z"/>
 <path fill="rgb(126,0,33)" stroke="none" d="M 20151,6239 L 20761,6239 20761,6239 20151,6239 Z"/>
 <path fill="rgb(126,0,33)" stroke="none" d="M 18932,6575 L 19542,6575 19542,6575 18932,6575 Z"/>
 <path fill="rgb(126,0,33)" stroke="none" d="M 11619,5669 L 12228,5669 12228,5669 11619,5669 Z"/>
 <path fill="rgb(126,0,33)" stroke="none" d="M 4304,9439 L 4914,9439 4914,9439 4304,9439 Z"/>
 <path fill="rgb(87,157,28)" stroke="none" d="M 20151,6239 L 20761,6239 20761,6239 20151,6239 Z"/>
 <path fill="rgb(87,157,28)" stroke="none" d="M 18932,6575 L 19542,6575 19542,6575 18932,6575 Z"/>
 <path fill="rgb(87,157,28)" stroke="none" d="M 11619,5669 L 12228,5669 12228,5669 11619,5669 Z"/>
 <path fill="rgb(87,157,28)" stroke="none" d="M 4304,9439 L 4914,9439 4914,9438 4304,9438 4304,9439 Z"/>
 <path fill="rgb(255,211,32)" stroke="none" d="M 20151,6239 L 20761,6239 20761,6238 20151,6238 20151,6239 Z"/>
 <path fill="rgb(255,211,32)" stroke="none" d="M 18932,6575 L 19542,6575 19542,6575 18932,6575 Z"/>
 <path fill="rgb(255,211,32)" stroke="none" d="M 11619,5669 L 12228,5669 12228,5669 11619,5669 Z"/>
 <path fill="rgb(255,66,14)" stroke="none" d="M 20151,6238 L 20761,6238 20761,6238 20151,6238 Z"/>
 <path fill="rgb(255,66,14)" stroke="none" d="M 18932,6575 L 19542,6575 19542,6574 18932,6574 18932,6575 Z"/>
 <path fill="rgb(255,66,14)" stroke="none" d="M 11619,5669 L 12228,5669 12228,5668 11619,5668 11619,5669 Z"/>
 <path fill="rgb(255,66,14)" stroke="none" d="M 4304,9438 L 4914,9438 4914,9438 4304,9438 Z"/>
 <path fill="rgb(0,69,134)" stroke="none" d="M 20151,6238 L 20761,6238 20761,6232 20151,6232 20151,6238 Z"/>
 <path fill="rgb(0,69,134)" stroke="none" d="M 18932,6574 L 19542,6574 19542,6569 18932,6569 18932,6574 Z"/>
 <path fill="rgb(0,69,134)" stroke="none" d="M 11619,5668 L 12228,5668 12228,5662 11619,5662 11619,5668 Z"/>
 <path fill="rgb(0,69,134)" stroke="none" d="M 4304,9438 L 4914,9438 4914,9433 4304,9433 4304,9438 Z"/>
 <path fill="rgb(153,204,255)" stroke="none" d="M 17713,10495 L 18323,10495 18323,6255 17713,6255 17713,10495 Z"/>
 <path fill="rgb(153,204,255)" stroke="none" d="M 16494,10470 L 17104,10470 17104,6300 16494,6300 16494,10470 Z"/>
 <path fill="rgb(153,204,255)" stroke="none" d="M 15275,10462 L 15884,10462 15884,5657 15275,5657 15275,10462 Z"/>
 <path fill="rgb(153,204,255)" stroke="none" d="M 14057,10413 L 14666,10413 14666,5554 14057,5554 14057,10413 Z"/>
 <path fill="rgb(153,204,255)" stroke="none" d="M 12838,10409 L 13447,10409 13447,5184 12838,5184 12838,10409 Z"/>
 <path fill="rgb(153,204,255)" stroke="none" d="M 10400,10307 L 11009,10307 11009,5905 10400,5905 10400,10307 Z"/>
 <path fill="rgb(153,204,255)" stroke="none" d="M 9181,10217 L 9790,10217 9790,6872 9181,6872 9181,10217 Z"/>
 <path fill="rgb(153,204,255)" stroke="none" d="M 7961,10055 L 8571,10055 8571,7593 7961,7593 7961,10055 Z"/>
 <path fill="rgb(153,204,255)" stroke="none" d="M 6742,9971 L 7352,9971 7352,7575 6742,7575 6742,9971 Z"/>
 <path fill="rgb(153,204,255)" stroke="none" d="M 5523,9995 L 6133,9995 6133,8460 5523,8460 5523,9995 Z"/>
 <path fill="none" stroke="rgb(51,51,51)" stroke-width="50" stroke-linejoin="round" d="M 4609,9963 L 5828,9995 7047,9971 8266,10055 9485,10217 10704,10307 11923,10409 13143,10409 14362,10413 15580,10462 16799,10470 18018,10495 19237,10617 20456,10652"/>
 <path fill="none" stroke="rgb(153,204,255)" stroke-width="50" stroke-linejoin="round" d="M 4609,9433 L 5828,8460 7047,7575 8266,7593 9485,6872 10704,5905 11923,5662 13143,5184 14362,5554 15580,5657 16799,6300 18018,6255 19237,6569 20456,6232"/>
 <text class="SVGTextShape" transform="rotate(-44.9 3952 14587)"><tspan class="TextParagraph" font-family="Latin Modern Roman" font-size="564px" font-weight="400"><tspan class="TextPosition" x="3952" y="14587"><tspan fill="rgb(0,0,0)" stroke="none">1950</tspan></tspan></tspan></text>
 <text class="SVGTextShape" transform="rotate(-44.9 5171 14587)"><tspan class="TextParagraph" font-family="Latin Modern Roman" font-size="564px" font-weight="400"><tspan class="TextPosition" x="5171" y="14587"><tspan fill="rgb(0,0,0)" stroke="none">1955</tspan></tspan></tspan></text>
 <text class="SVGTextShape" transform="rotate(-44.9 6390 14587)"><tspan class="TextParagraph" font-family="Latin Modern Roman" font-size="564px" font-weight="400"><tspan class="TextPosition" x="6390" y="14587"><tspan fill="rgb(0,0,0)" stroke="none">1960</tspan></tspan></tspan></text>
 <text class="SVGTextShape" transform="rotate(-44.9 7609 14587)"><tspan class="TextParagraph" font-family="Latin Modern Roman" font-size="564px" font-weight="400"><tspan class="TextPosition" x="7609" y="14587"><tspan fill="rgb(0,0,0)" stroke="none">1965</tspan></tspan></tspan></text>
 <text class="SVGTextShape" transform="rotate(-44.9 8828 14587)"><tspan class="TextParagraph" font-family="Latin Modern Roman" font-size="564px" font-weight="400"><tspan class="TextPosition" x="8828" y="14587"><tspan fill="rgb(0,0,0)" stroke="none">1970</tspan></tspan></tspan></text>
 <text class="SVGTextShape" transform="rotate(-44.9 10047 14587)"><tspan class="TextParagraph" font-family="Latin Modern Roman" font-size="564px" font-weight="400"><tspan class="TextPosition" x="10047" y="14587"><tspan fill="rgb(0,0,0)" stroke="none">1975</tspan></tspan></tspan></text>
 <text class="SVGTextShape" transform="rotate(-44.9 11266 14587)"><tspan class="TextParagraph" font-family="Latin Modern Roman" font-size="564px" font-weight="400"><tspan class="TextPosition" x="11266" y="14587"><tspan fill="rgb(0,0,0)" stroke="none">1980</tspan></tspan></tspan></text>
 <text class="SVGTextShape" transform="rotate(-44.9 12486 14587)"><tspan class="TextParagraph" font-family="Latin Modern Roman" font-size="564px" font-weight="400"><tspan class="TextPosition" x="12486" y="14587"><tspan fill="rgb(0,0,0)" stroke="none">1985</tspan></tspan></tspan></text>
 <text class="SVGTextShape" transform="rotate(-44.9 13705 14587)"><tspan class="TextParagraph" font-family="Latin Modern Roman" font-size="564px" font-weight="400"><tspan class="TextPosition" x="13705" y="14587"><tspan fill="rgb(0,0,0)" stroke="none">1990</tspan></tspan></tspan></text>
 <text class="SVGTextShape" transform="rotate(-44.9 14924 14587)"><tspan class="TextParagraph" font-family="Latin Modern Roman" font-size="564px" font-weight="400"><tspan class="TextPosition" x="14924" y="14587"><tspan fill="rgb(0,0,0)" stroke="none">1995</tspan></tspan></tspan></text>
 <text class="SVGTextShape" transform="rotate(-44.9 16143 14587)"><tspan class="TextParagraph" font-family="Latin Modern Roman" font-size="564px" font-weight="400"><tspan class="TextPosition" x="16143" y="14587"><tspan fill="rgb(0,0,0)" stroke="none">2000</tspan></tspan></tspan></text>
 <text class="SVGTextShape" transform="rotate(-44.9 17362 14587)"><tspan class="TextParagraph" font-family="Latin Modern Roman" font-size="564px" font-weight="400"><tspan class="TextPosition" x="17362" y="14587"><tspan fill="rgb(0,0,0)" stroke="none">2005</tspan></tspan></tspan></text>
 <text class="SVGTextShape" transform="rotate(-44.9 18581 14587)"><tspan class="TextParagraph" font-family="Latin Modern Roman" font-size="564px" font-weight="400"><tspan class="TextPosition" x="18581" y="14587"><tspan fill="rgb(0,0,0)" stroke="none">2010</tspan></tspan></tspan></text>
 <text class="SVGTextShape" transform="rotate(-44.9 19800 14587)"><tspan class="TextParagraph" font-family="Latin Modern Roman" font-size="564px" font-weight="400"><tspan class="TextPosition" x="19800" y="14587"><tspan fill="rgb(0,0,0)" stroke="none">2015</tspan></tspan></tspan></text>
 <text class="SVGTextShape"><tspan class="TextParagraph" font-family="Latin Modern Roman" font-size="564px" font-weight="400"><tspan class="TextPosition" x="2665" y="13453"><tspan fill="rgb(0,0,0)" stroke="none">0 ha</tspan></tspan></tspan></text>
 <text class="SVGTextShape"><tspan class="TextParagraph" font-family="Latin Modern Roman" font-size="564px" font-weight="400"><tspan class="TextPosition" x="601" y="12062"><tspan fill="rgb(0,0,0)" stroke="none">1.000.000 ha</tspan></tspan></tspan></text>
 <text class="SVGTextShape"><tspan class="TextParagraph" font-family="Latin Modern Roman" font-size="564px" font-weight="400"><tspan class="TextPosition" x="601" y="10671"><tspan fill="rgb(0,0,0)" stroke="none">2.000.000 ha</tspan></tspan></tspan></text>
 <text class="SVGTextShape"><tspan class="TextParagraph" font-family="Latin Modern Roman" font-size="564px" font-weight="400"><tspan class="TextPosition" x="601" y="9280"><tspan fill="rgb(0,0,0)" stroke="none">3.000.000 ha</tspan></tspan></tspan></text>
 <text class="SVGTextShape"><tspan class="TextParagraph" font-family="Latin Modern Roman" font-size="564px" font-weight="400"><tspan class="TextPosition" x="601" y="7889"><tspan fill="rgb(0,0,0)" stroke="none">4.000.000 ha</tspan></tspan></tspan></text>
 <text class="SVGTextShape"><tspan class="TextParagraph" font-family="Latin Modern Roman" font-size="564px" font-weight="400"><tspan class="TextPosition" x="601" y="6498"><tspan fill="rgb(0,0,0)" stroke="none">5.000.000 ha</tspan></tspan></tspan></text>
 <text class="SVGTextShape"><tspan class="TextParagraph" font-family="Latin Modern Roman" font-size="564px" font-weight="400"><tspan class="TextPosition" x="601" y="5107"><tspan fill="rgb(0,0,0)" stroke="none">6.000.000 ha</tspan></tspan></tspan></text>
 <text class="SVGTextShape"><tspan class="TextParagraph" font-family="Latin Modern Roman" font-size="564px" font-weight="400"><tspan class="TextPosition" x="601" y="3716"><tspan fill="rgb(0,0,0)" stroke="none">7.000.000 ha</tspan></tspan></tspan></text>
 <text class="SVGTextShape"><tspan class="TextParagraph" font-family="Latin Modern Roman" font-size="564px" font-weight="400"><tspan class="TextPosition" x="601" y="2325"><tspan fill="rgb(0,0,0)" stroke="none">8.000.000 ha</tspan></tspan></tspan></text>
 <text class="SVGTextShape"><tspan class="TextParagraph" font-family="Latin Modern Roman" font-size="564px" font-weight="400"><tspan class="TextPosition" x="601" y="934"><tspan fill="rgb(0,0,0)" stroke="none">9.000.000 ha</tspan></tspan></tspan></text>
 <path fill="rgb(51,51,51)" stroke="none" d="M 22252,12953 L 21852,12953 21852,12615 22652,12615 22652,12953 22252,12953 Z"/>
 <path fill="rgb(197,0,11)" stroke="none" d="M 22252,12072 L 21852,12072 21852,11734 22652,11734 22652,12072 22252,12072 Z"/>
 <path fill="rgb(255,149,14)" stroke="none" d="M 22252,11191 L 21852,11191 21852,10853 22652,10853 22652,11191 22252,11191 Z"/>
 <path fill="rgb(75,31,111)" stroke="none" d="M 22252,10310 L 21852,10310 21852,9972 22652,9972 22652,10310 22252,10310 Z"/>
 <path fill="rgb(174,207,0)" stroke="none" d="M 22252,9429 L 21852,9429 21852,9091 22652,9091 22652,9429 22252,9429 Z"/>
 <path fill="rgb(49,64,4)" stroke="none" d="M 22252,8548 L 21852,8548 21852,8210 22652,8210 22652,8548 22252,8548 Z"/>
 <path fill="rgb(131,202,255)" stroke="none" d="M 22252,7667 L 21852,7667 21852,7330 22652,7330 22652,7667 22252,7667 Z"/>
 <path fill="rgb(126,0,33)" stroke="none" d="M 22252,6787 L 21852,6787 21852,6449 22652,6449 22652,6787 22252,6787 Z"/>
 <path fill="rgb(87,157,28)" stroke="none" d="M 22252,5906 L 21852,5906 21852,5568 22652,5568 22652,5906 22252,5906 Z"/>
 <path fill="rgb(255,211,32)" stroke="none" d="M 22252,5025 L 21852,5025 21852,4687 22652,4687 22652,5025 22252,5025 Z"/>
 <path fill="rgb(255,66,14)" stroke="none" d="M 22252,4144 L 21852,4144 21852,3806 22652,3806 22652,4144 22252,4144 Z"/>
 <path fill="rgb(0,69,134)" stroke="none" d="M 22252,3263 L 21852,3263 21852,2925 22652,2925 22652,3263 22252,3263 Z"/>
 <path fill="rgb(153,204,255)" stroke="none" d="M 22252,2382 L 21852,2382 21852,2044 22652,2044 22652,2382 22252,2382 Z"/>
 <text class="SVGTextShape"><tspan class="TextParagraph" font-family="Latin Modern Roman Caps" font-size="564px" font-weight="400"><tspan class="TextPosition" x="22776" y="2438"><tspan fill="rgb(0,0,0)" stroke="none">indirect landgebruik</tspan></tspan></tspan></text>
 <text class="SVGTextShape"><tspan class="TextParagraph" font-family="Latin Modern Roman Caps" font-size="564px" font-weight="400"><tspan class="TextPosition" x="22776" y="3319"><tspan fill="rgb(0,0,0)" stroke="none">transport en infrastr. </tspan></tspan></tspan></text>
 <text class="SVGTextShape"><tspan class="TextParagraph" font-family="Latin Modern Roman Caps" font-size="564px" font-weight="400"><tspan class="TextPosition" x="22776" y="4200"><tspan fill="rgb(0,0,0)" stroke="none">dienstverlening </tspan></tspan></tspan></text>
 <text class="SVGTextShape"><tspan class="TextParagraph" font-family="Latin Modern Roman Caps" font-size="564px" font-weight="400"><tspan class="TextPosition" x="22776" y="5081"><tspan fill="rgb(0,0,0)" stroke="none">elektronica </tspan></tspan></tspan></text>
 <text class="SVGTextShape"><tspan class="TextParagraph" font-family="Latin Modern Roman Caps" font-size="564px" font-weight="400"><tspan class="TextPosition" x="22776" y="5962"><tspan fill="rgb(0,0,0)" stroke="none">bestrijdingsmiddelen </tspan></tspan></tspan></text>
 <text class="SVGTextShape"><tspan class="TextParagraph" font-family="Latin Modern Roman Caps" font-size="564px" font-weight="400"><tspan class="TextPosition" x="22776" y="6843"><tspan fill="rgb(0,0,0)" stroke="none">kunstmest </tspan></tspan></tspan></text>
 <text class="SVGTextShape"><tspan class="TextParagraph" font-family="Latin Modern Roman Caps" font-size="564px" font-weight="400"><tspan class="TextPosition" x="22776" y="7723"><tspan fill="rgb(0,0,0)" stroke="none">dierlijke mest </tspan></tspan></tspan></text>
 <text class="SVGTextShape"><tspan class="TextParagraph" font-family="Latin Modern Roman Caps" font-size="564px" font-weight="400"><tspan class="TextPosition" x="22776" y="8604"><tspan fill="rgb(0,0,0)" stroke="none">veevoer </tspan></tspan></tspan></text>
 <text class="SVGTextShape"><tspan class="TextParagraph" font-family="Latin Modern Roman Caps" font-size="564px" font-weight="400"><tspan class="TextPosition" x="22776" y="9485"><tspan fill="rgb(0,0,0)" stroke="none">trekkers en machines </tspan></tspan></tspan></text>
 <text class="SVGTextShape"><tspan class="TextParagraph" font-family="Latin Modern Roman Caps" font-size="564px" font-weight="400"><tspan class="TextPosition" x="22776" y="10366"><tspan fill="rgb(0,0,0)" stroke="none">gebouwen </tspan></tspan></tspan></text>
 <text class="SVGTextShape"><tspan class="TextParagraph" font-family="Latin Modern Roman Caps" font-size="564px" font-weight="400"><tspan class="TextPosition" x="22776" y="11247"><tspan fill="rgb(0,0,0)" stroke="none">mijnbouw </tspan></tspan></tspan></text>
 <text class="SVGTextShape"><tspan class="TextParagraph" font-family="Latin Modern Roman Caps" font-size="564px" font-weight="400"><tspan class="TextPosition" x="22776" y="12128"><tspan fill="rgb(0,0,0)" stroke="none">energie toelevering</tspan></tspan></tspan></text>
 <text class="SVGTextShape"><tspan class="TextParagraph" font-family="Latin Modern Roman Caps" font-size="564px" font-weight="400"><tspan class="TextPosition" x="22776" y="13009"><tspan fill="rgb(0,0,0)" stroke="none">direct landgebruik </tspan></tspan></tspan></text>
</svg>