<?xml version="1.0" encoding="UTF-8" standalone="no"?>
<svg
   width="80mm"
   height="40mm"
   viewBox="0 0 8000 4000"
   version="1.1"
   stroke-width="28.222"
   stroke-linejoin="round"
   xml:space="preserve"
   id="svg237"
   sodipodi:docname="meino smit - energie_ha - verhouding 2040.svg"
   inkscape:version="1.1.2 (0a00cf5339, 2022-02-04)"
   xmlns:inkscape="http://www.inkscape.org/namespaces/inkscape"
   xmlns:sodipodi="http://sodipodi.sourceforge.net/DTD/sodipodi-0.dtd"
   xmlns="http://www.w3.org/2000/svg"
   xmlns:svg="http://www.w3.org/2000/svg"><sodipodi:namedview
   id="namedview239"
   pagecolor="#ffffff"
   bordercolor="#666666"
   borderopacity="1.0"
   inkscape:pageshadow="2"
   inkscape:pageopacity="0.0"
   inkscape:pagecheckerboard="0"
   inkscape:document-units="mm"
   showgrid="false"
   inkscape:zoom="3.912526"
   inkscape:cx="151.3089"
   inkscape:cy="75.654449"
   inkscape:window-width="1876"
   inkscape:window-height="1051"
   inkscape:window-x="0"
   inkscape:window-y="0"
   inkscape:window-maximized="1"
   inkscape:current-layer="svg237" />
 <path
   fill="rgb(255,255,255)"
   stroke="none"
   d="M 4059,4000 L 119,4000 119,0 8000,0 8000,4000 4059,4000 Z"
   id="path2" />
 <path
   fill="none"
   stroke="rgb(0,0,0)"
   stroke-linejoin="round"
   d="M 4059,4000 L 119,4000 119,0 8000,0 8000,4000 4059,4000 Z"
   id="path4" />
 <defs
   id="defs11">
  <linearGradient
   id="Gradient_18"
   gradientUnits="userSpaceOnUse"
   x1="4152"
   y1="303"
   x2="4152"
   y2="2728">
   <stop
   offset="0.7"
   stop-color="rgb(204,0,0)"
   id="stop6" />
   <stop
   offset="1"
   stop-color="rgb(0,153,0)"
   id="stop8" />
  </linearGradient>
 </defs>
 <path
   fill="url(#Gradient_18)"
   stroke="rgb(179,179,179)"
   stroke-linejoin="round"
   d="M 4152,2728 L 691,2728 691,303 7613,303 7613,2728 4152,2728 Z"
   id="path13" />
 <path
   fill="none"
   stroke="rgb(179,179,179)"
   stroke-linejoin="round"
   d="M 7613,2727 L 691,2727"
   id="path15" />
 <path
   fill="none"
   stroke="rgb(179,179,179)"
   stroke-linejoin="round"
   d="M 7613,2380 L 691,2380"
   id="path17" />
 <path
   fill="none"
   stroke="rgb(179,179,179)"
   stroke-linejoin="round"
   d="M 7613,2033 L 691,2033"
   id="path19" />
 <path
   fill="none"
   stroke="rgb(179,179,179)"
   stroke-linejoin="round"
   d="M 7613,1688 L 691,1688"
   id="path21" />
 <path
   fill="none"
   stroke="rgb(179,179,179)"
   stroke-linejoin="round"
   d="M 7613,1341 L 691,1341"
   id="path23" />
 <path
   fill="none"
   stroke="rgb(179,179,179)"
   stroke-linejoin="round"
   d="M 7613,995 L 691,995"
   id="path25" />
 <path
   fill="none"
   stroke="rgb(179,179,179)"
   stroke-linejoin="round"
   d="M 7613,648 L 691,648"
   id="path27" />
 <path
   fill="none"
   stroke="rgb(179,179,179)"
   stroke-linejoin="round"
   d="M 7613,301 L 691,301"
   id="path29" />
 <path
   fill="none"
   stroke="rgb(179,179,179)"
   stroke-linejoin="round"
   d="M 691,2877 L 691,2727"
   id="path31" />
 <path
   fill="none"
   stroke="rgb(179,179,179)"
   stroke-linejoin="round"
   d="M 691,2877 L 691,2727"
   id="path33" />
 <path
   fill="none"
   stroke="rgb(179,179,179)"
   stroke-linejoin="round"
   d="M 2229,2877 L 2229,2727"
   id="path35" />
 <path
   fill="none"
   stroke="rgb(179,179,179)"
   stroke-linejoin="round"
   d="M 2229,2877 L 2229,2727"
   id="path37" />
 <path
   fill="none"
   stroke="rgb(179,179,179)"
   stroke-linejoin="round"
   d="M 3767,2877 L 3767,2727"
   id="path39" />
 <path
   fill="none"
   stroke="rgb(179,179,179)"
   stroke-linejoin="round"
   d="M 3767,2877 L 3767,2727"
   id="path41" />
 <path
   fill="none"
   stroke="rgb(179,179,179)"
   stroke-linejoin="round"
   d="M 5306,2877 L 5306,2727"
   id="path43" />
 <path
   fill="none"
   stroke="rgb(179,179,179)"
   stroke-linejoin="round"
   d="M 5306,2877 L 5306,2727"
   id="path45" />
 <path
   fill="none"
   stroke="rgb(179,179,179)"
   stroke-linejoin="round"
   d="M 6844,2877 L 6844,2727"
   id="path47" />
 <path
   fill="none"
   stroke="rgb(179,179,179)"
   stroke-linejoin="round"
   d="M 6844,2877 L 6844,2727"
   id="path49" />
 <path
   fill="none"
   stroke="rgb(179,179,179)"
   stroke-linejoin="round"
   d="M 1076,2839 L 1076,2727"
   id="path51" />
 <path
   fill="none"
   stroke="rgb(179,179,179)"
   stroke-linejoin="round"
   d="M 1076,2839 L 1076,2727"
   id="path53" />
 <path
   fill="none"
   stroke="rgb(179,179,179)"
   stroke-linejoin="round"
   d="M 1460,2839 L 1460,2727"
   id="path55" />
 <path
   fill="none"
   stroke="rgb(179,179,179)"
   stroke-linejoin="round"
   d="M 1460,2839 L 1460,2727"
   id="path57" />
 <path
   fill="none"
   stroke="rgb(179,179,179)"
   stroke-linejoin="round"
   d="M 1845,2839 L 1845,2727"
   id="path59" />
 <path
   fill="none"
   stroke="rgb(179,179,179)"
   stroke-linejoin="round"
   d="M 1845,2839 L 1845,2727"
   id="path61" />
 <path
   fill="none"
   stroke="rgb(179,179,179)"
   stroke-linejoin="round"
   d="M 2614,2839 L 2614,2727"
   id="path63" />
 <path
   fill="none"
   stroke="rgb(179,179,179)"
   stroke-linejoin="round"
   d="M 2614,2839 L 2614,2727"
   id="path65" />
 <path
   fill="none"
   stroke="rgb(179,179,179)"
   stroke-linejoin="round"
   d="M 2998,2839 L 2998,2727"
   id="path67" />
 <path
   fill="none"
   stroke="rgb(179,179,179)"
   stroke-linejoin="round"
   d="M 2998,2839 L 2998,2727"
   id="path69" />
 <path
   fill="none"
   stroke="rgb(179,179,179)"
   stroke-linejoin="round"
   d="M 3383,2839 L 3383,2727"
   id="path71" />
 <path
   fill="none"
   stroke="rgb(179,179,179)"
   stroke-linejoin="round"
   d="M 3383,2839 L 3383,2727"
   id="path73" />
 <path
   fill="none"
   stroke="rgb(179,179,179)"
   stroke-linejoin="round"
   d="M 4152,2839 L 4152,2727"
   id="path75" />
 <path
   fill="none"
   stroke="rgb(179,179,179)"
   stroke-linejoin="round"
   d="M 4152,2839 L 4152,2727"
   id="path77" />
 <path
   fill="none"
   stroke="rgb(179,179,179)"
   stroke-linejoin="round"
   d="M 4537,2839 L 4537,2727"
   id="path79" />
 <path
   fill="none"
   stroke="rgb(179,179,179)"
   stroke-linejoin="round"
   d="M 4537,2839 L 4537,2727"
   id="path81" />
 <path
   fill="none"
   stroke="rgb(179,179,179)"
   stroke-linejoin="round"
   d="M 4921,2839 L 4921,2727"
   id="path83" />
 <path
   fill="none"
   stroke="rgb(179,179,179)"
   stroke-linejoin="round"
   d="M 4921,2839 L 4921,2727"
   id="path85" />
 <path
   fill="none"
   stroke="rgb(179,179,179)"
   stroke-linejoin="round"
   d="M 5690,2839 L 5690,2727"
   id="path87" />
 <path
   fill="none"
   stroke="rgb(179,179,179)"
   stroke-linejoin="round"
   d="M 5690,2839 L 5690,2727"
   id="path89" />
 <path
   fill="none"
   stroke="rgb(179,179,179)"
   stroke-linejoin="round"
   d="M 6075,2839 L 6075,2727"
   id="path91" />
 <path
   fill="none"
   stroke="rgb(179,179,179)"
   stroke-linejoin="round"
   d="M 6075,2839 L 6075,2727"
   id="path93" />
 <path
   fill="none"
   stroke="rgb(179,179,179)"
   stroke-linejoin="round"
   d="M 6459,2839 L 6459,2727"
   id="path95" />
 <path
   fill="none"
   stroke="rgb(179,179,179)"
   stroke-linejoin="round"
   d="M 6459,2839 L 6459,2727"
   id="path97" />
 <path
   fill="none"
   stroke="rgb(179,179,179)"
   stroke-linejoin="round"
   d="M 7228,2839 L 7228,2727"
   id="path99" />
 <path
   fill="none"
   stroke="rgb(179,179,179)"
   stroke-linejoin="round"
   d="M 7228,2839 L 7228,2727"
   id="path101" />
 <path
   fill="none"
   stroke="rgb(179,179,179)"
   stroke-linejoin="round"
   d="M 7613,2839 L 7613,2727"
   id="path103" />
 <path
   fill="none"
   stroke="rgb(179,179,179)"
   stroke-linejoin="round"
   d="M 7613,2839 L 7613,2727"
   id="path105" />
 <path
   fill="none"
   stroke="rgb(179,179,179)"
   stroke-linejoin="round"
   d="M 691,2727 L 7613,2727"
   id="path107" />
 <path
   fill="none"
   stroke="rgb(179,179,179)"
   stroke-linejoin="round"
   d="M 544,2727 L 691,2727"
   id="path109" />
 <path
   fill="none"
   stroke="rgb(179,179,179)"
   stroke-linejoin="round"
   d="M 544,2727 L 691,2727"
   id="path111" />
 <path
   fill="none"
   stroke="rgb(179,179,179)"
   stroke-linejoin="round"
   d="M 544,2380 L 691,2380"
   id="path113" />
 <path
   fill="none"
   stroke="rgb(179,179,179)"
   stroke-linejoin="round"
   d="M 544,2380 L 691,2380"
   id="path115" />
 <path
   fill="none"
   stroke="rgb(179,179,179)"
   stroke-linejoin="round"
   d="M 544,2033 L 691,2033"
   id="path117" />
 <path
   fill="none"
   stroke="rgb(179,179,179)"
   stroke-linejoin="round"
   d="M 544,2033 L 691,2033"
   id="path119" />
 <path
   fill="none"
   stroke="rgb(179,179,179)"
   stroke-linejoin="round"
   d="M 544,1688 L 691,1688"
   id="path121" />
 <path
   fill="none"
   stroke="rgb(179,179,179)"
   stroke-linejoin="round"
   d="M 544,1688 L 691,1688"
   id="path123" />
 <path
   fill="none"
   stroke="rgb(179,179,179)"
   stroke-linejoin="round"
   d="M 544,1341 L 691,1341"
   id="path125" />
 <path
   fill="none"
   stroke="rgb(179,179,179)"
   stroke-linejoin="round"
   d="M 544,1341 L 691,1341"
   id="path127" />
 <path
   fill="none"
   stroke="rgb(179,179,179)"
   stroke-linejoin="round"
   d="M 544,995 L 691,995"
   id="path129" />
 <path
   fill="none"
   stroke="rgb(179,179,179)"
   stroke-linejoin="round"
   d="M 544,995 L 691,995"
   id="path131" />
 <path
   fill="none"
   stroke="rgb(179,179,179)"
   stroke-linejoin="round"
   d="M 544,648 L 691,648"
   id="path133" />
 <path
   fill="none"
   stroke="rgb(179,179,179)"
   stroke-linejoin="round"
   d="M 544,648 L 691,648"
   id="path135" />
 <path
   fill="none"
   stroke="rgb(179,179,179)"
   stroke-linejoin="round"
   d="M 544,301 L 691,301"
   id="path137" />
 <path
   fill="none"
   stroke="rgb(179,179,179)"
   stroke-linejoin="round"
   d="M 544,301 L 691,301"
   id="path139" />
 <path
   fill="none"
   stroke="rgb(179,179,179)"
   stroke-linejoin="round"
   d="M 691,2727 L 691,301"
   id="path141" />
 <path
   fill="none"
   stroke="rgb(255,211,32)"
   stroke-width="79"
   stroke-linejoin="round"
   d="M 691,2392 L 1076,2172 1460,1966 1845,1568 2229,1136 2614,941 2998,971 3383,827 3767,821 4152,640 4537,1060 4921,887 5306,917 5690,591 7613,2546"
   id="path143"
   style="stroke-width:49.99999862;stroke-miterlimit:4;stroke-dasharray:none" />
 <path
   fill="rgb(255,211,32)"
   stroke="none"
   d="M 568,2267 L 691,2517 815,2267 568,2267 Z"
   id="path145" />
 <path
   fill="none"
   stroke="rgb(255,211,32)"
   stroke-linejoin="round"
   d="M 568,2267 L 691,2517 815,2267 568,2267 Z"
   id="path147" />
 <path
   fill="rgb(255,211,32)"
   stroke="none"
   d="M 952,2047 L 1076,2297 1199,2047 952,2047 Z"
   id="path149" />
 <path
   fill="none"
   stroke="rgb(255,211,32)"
   stroke-linejoin="round"
   d="M 952,2047 L 1076,2297 1199,2047 952,2047 Z"
   id="path151" />
 <path
   fill="rgb(255,211,32)"
   stroke="none"
   d="M 1337,1841 L 1460,2090 1583,1841 1337,1841 Z"
   id="path153" />
 <path
   fill="none"
   stroke="rgb(255,211,32)"
   stroke-linejoin="round"
   d="M 1337,1841 L 1460,2090 1583,1841 1337,1841 Z"
   id="path155" />
 <path
   fill="rgb(255,211,32)"
   stroke="none"
   d="M 1722,1443 L 1845,1693 1968,1443 1722,1443 Z"
   id="path157" />
 <path
   fill="none"
   stroke="rgb(255,211,32)"
   stroke-linejoin="round"
   d="M 1722,1443 L 1845,1693 1968,1443 1722,1443 Z"
   id="path159" />
 <path
   fill="rgb(255,211,32)"
   stroke="none"
   d="M 2106,1011 L 2229,1261 2352,1011 2106,1011 Z"
   id="path161" />
 <path
   fill="none"
   stroke="rgb(255,211,32)"
   stroke-linejoin="round"
   d="M 2106,1011 L 2229,1261 2352,1011 2106,1011 Z"
   id="path163" />
 <path
   fill="rgb(255,211,32)"
   stroke="none"
   d="M 2491,816 L 2614,1066 2737,816 2491,816 Z"
   id="path165" />
 <path
   fill="none"
   stroke="rgb(255,211,32)"
   stroke-linejoin="round"
   d="M 2491,816 L 2614,1066 2737,816 2491,816 Z"
   id="path167" />
 <path
   fill="rgb(255,211,32)"
   stroke="none"
   d="M 2875,846 L 2998,1096 3121,846 2875,846 Z"
   id="path169" />
 <path
   fill="none"
   stroke="rgb(255,211,32)"
   stroke-linejoin="round"
   d="M 2875,846 L 2998,1096 3121,846 2875,846 Z"
   id="path171" />
 <path
   fill="rgb(255,211,32)"
   stroke="none"
   d="M 3260,702 L 3383,952 3506,702 3260,702 Z"
   id="path173" />
 <path
   fill="none"
   stroke="rgb(255,211,32)"
   stroke-linejoin="round"
   d="M 3260,702 L 3383,952 3506,702 3260,702 Z"
   id="path175" />
 <path
   fill="rgb(255,211,32)"
   stroke="none"
   d="M 3644,696 L 3767,946 3890,696 3644,696 Z"
   id="path177" />
 <path
   fill="none"
   stroke="rgb(255,211,32)"
   stroke-linejoin="round"
   d="M 3644,696 L 3767,946 3890,696 3644,696 Z"
   id="path179" />
 <path
   fill="rgb(255,211,32)"
   stroke="none"
   d="M 4029,515 L 4152,765 4276,515 4029,515 Z"
   id="path181" />
 <path
   fill="none"
   stroke="rgb(255,211,32)"
   stroke-linejoin="round"
   d="M 4029,515 L 4152,765 4276,515 4029,515 Z"
   id="path183" />
 <path
   fill="rgb(255,211,32)"
   stroke="none"
   d="M 4413,935 L 4537,1185 4660,935 4413,935 Z"
   id="path185" />
 <path
   fill="none"
   stroke="rgb(255,211,32)"
   stroke-linejoin="round"
   d="M 4413,935 L 4537,1185 4660,935 4413,935 Z"
   id="path187" />
 <path
   fill="rgb(255,211,32)"
   stroke="none"
   d="M 4798,762 L 4921,1012 5044,762 4798,762 Z"
   id="path189" />
 <path
   fill="none"
   stroke="rgb(255,211,32)"
   stroke-linejoin="round"
   d="M 4798,762 L 4921,1012 5044,762 4798,762 Z"
   id="path191" />
 <path
   fill="rgb(255,211,32)"
   stroke="none"
   d="M 5183,792 L 5306,1042 5429,792 5183,792 Z"
   id="path193" />
 <path
   fill="none"
   stroke="rgb(255,211,32)"
   stroke-linejoin="round"
   d="M 5183,792 L 5306,1042 5429,792 5183,792 Z"
   id="path195" />
 <path
   fill="rgb(255,211,32)"
   stroke="none"
   d="M 5567,466 L 5690,716 5813,466 5567,466 Z"
   id="path197" />
 <path
   fill="none"
   stroke="rgb(255,211,32)"
   stroke-linejoin="round"
   d="M 5567,466 L 5690,716 5813,466 5567,466 Z"
   id="path199" />
 <path
   fill="rgb(255,211,32)"
   stroke="none"
   d="M 7490,2421 L 7613,2671 7737,2421 7490,2421 Z"
   id="path201" />
 <path
   fill="none"
   stroke="rgb(255,211,32)"
   stroke-linejoin="round"
   d="M 7490,2421 L 7613,2671 7737,2421 7490,2421 Z"
   id="path203" />
 <text
   class="SVGTextShape"
   id="text211"><tspan
     class="TextParagraph"
     font-family="Latin Modern Roman"
     font-size="353px"
     font-weight="400"
     id="tspan209"><tspan
       class="TextPosition"
       x="263"
       y="2874"
       id="tspan207"><tspan
         fill="rgb(0,0,0)"
         stroke="none"
         id="tspan205">0</tspan></tspan></tspan></text>
 <text
   class="SVGTextShape"
   id="text219"><tspan
     class="TextParagraph"
     font-family="Latin Modern Roman"
     font-size="353px"
     font-weight="400"
     id="tspan217"><tspan
       class="TextPosition"
       x="263"
       y="2180"
       id="tspan215"><tspan
         fill="rgb(0,0,0)"
         stroke="none"
         id="tspan213">2</tspan></tspan></tspan></text>
 <text
   class="SVGTextShape"
   id="text227"><tspan
     class="TextParagraph"
     font-family="Latin Modern Roman"
     font-size="353px"
     font-weight="400"
     id="tspan225"><tspan
       class="TextPosition"
       x="263"
       y="1487"
       id="tspan223"><tspan
         fill="rgb(0,0,0)"
         stroke="none"
         id="tspan221">4</tspan></tspan></tspan></text>
 <text
   class="SVGTextShape"
   id="text235"><tspan
     class="TextParagraph"
     font-family="Latin Modern Roman"
     font-size="353px"
     font-weight="400"
     id="tspan233"><tspan
       class="TextPosition"
       x="263"
       y="795"
       id="tspan231"><tspan
         fill="rgb(0,0,0)"
         stroke="none"
         id="tspan229">6</tspan></tspan></tspan></text>
</svg>
