<?xml version="1.0" encoding="UTF-8"?>
<!DOCTYPE svg PUBLIC "-//W3C//DTD SVG 1.1//EN" "http://www.w3.org/Graphics/SVG/1.1/DTD/svg11.dtd">
<svg width="73mm" height="37mm" viewBox="0 0 7300 3700" version="1.1" xmlns="http://www.w3.org/2000/svg" xmlns:xlink="http://www.w3.org/1999/xlink" stroke-width="28.222" stroke-linejoin="round" xml:space="preserve">
 <path fill="rgb(255,255,255)" stroke="none" d="M 3667,3636 L 0,3636 0,0 7334,0 7334,3636 3667,3636 Z"/>
 <path fill="none" stroke="rgb(0,0,0)" stroke-linejoin="round" d="M 3667,3636 L 0,3636 0,0 7334,0 7334,3636 3667,3636 Z"/>
 <defs>
  <linearGradient id="Gradient_7" gradientUnits="userSpaceOnUse" x1="3984" y1="229" x2="3984" y2="2753">
   <stop offset="0.3" stop-color="rgb(204,0,0)"/>
   <stop offset="1" stop-color="rgb(0,153,0)"/>
  </linearGradient>
 </defs>
 <path fill="url(#Gradient_7)" stroke="rgb(179,179,179)" stroke-linejoin="round" d="M 3984,2753 L 878,2753 878,229 7090,229 7090,2753 3984,2753 Z"/>
 <path fill="none" stroke="rgb(179,179,179)" stroke-linejoin="round" d="M 7089,2752 L 878,2752"/>
 <path fill="none" stroke="rgb(179,179,179)" stroke-linejoin="round" d="M 7089,2391 L 878,2391"/>
 <path fill="none" stroke="rgb(179,179,179)" stroke-linejoin="round" d="M 7089,2030 L 878,2030"/>
 <path fill="none" stroke="rgb(179,179,179)" stroke-linejoin="round" d="M 7089,1670 L 878,1670"/>
 <path fill="none" stroke="rgb(179,179,179)" stroke-linejoin="round" d="M 7089,1309 L 878,1309"/>
 <path fill="none" stroke="rgb(179,179,179)" stroke-linejoin="round" d="M 7089,949 L 878,949"/>
 <path fill="none" stroke="rgb(179,179,179)" stroke-linejoin="round" d="M 7089,588 L 878,588"/>
 <path fill="none" stroke="rgb(179,179,179)" stroke-linejoin="round" d="M 7089,228 L 878,228"/>
 <path fill="none" stroke="rgb(179,179,179)" stroke-linejoin="round" d="M 878,2900 L 878,2752"/>
 <path fill="none" stroke="rgb(179,179,179)" stroke-linejoin="round" d="M 878,2900 L 878,2752"/>
 <path fill="none" stroke="rgb(179,179,179)" stroke-linejoin="round" d="M 1223,2900 L 1223,2752"/>
 <path fill="none" stroke="rgb(179,179,179)" stroke-linejoin="round" d="M 1223,2900 L 1223,2752"/>
 <path fill="none" stroke="rgb(179,179,179)" stroke-linejoin="round" d="M 1568,2900 L 1568,2752"/>
 <path fill="none" stroke="rgb(179,179,179)" stroke-linejoin="round" d="M 1568,2900 L 1568,2752"/>
 <path fill="none" stroke="rgb(179,179,179)" stroke-linejoin="round" d="M 1913,2900 L 1913,2752"/>
 <path fill="none" stroke="rgb(179,179,179)" stroke-linejoin="round" d="M 1913,2900 L 1913,2752"/>
 <path fill="none" stroke="rgb(179,179,179)" stroke-linejoin="round" d="M 2258,2900 L 2258,2752"/>
 <path fill="none" stroke="rgb(179,179,179)" stroke-linejoin="round" d="M 2258,2900 L 2258,2752"/>
 <path fill="none" stroke="rgb(179,179,179)" stroke-linejoin="round" d="M 2603,2900 L 2603,2752"/>
 <path fill="none" stroke="rgb(179,179,179)" stroke-linejoin="round" d="M 2603,2900 L 2603,2752"/>
 <path fill="none" stroke="rgb(179,179,179)" stroke-linejoin="round" d="M 2948,2900 L 2948,2752"/>
 <path fill="none" stroke="rgb(179,179,179)" stroke-linejoin="round" d="M 2948,2900 L 2948,2752"/>
 <path fill="none" stroke="rgb(179,179,179)" stroke-linejoin="round" d="M 3294,2900 L 3294,2752"/>
 <path fill="none" stroke="rgb(179,179,179)" stroke-linejoin="round" d="M 3294,2900 L 3294,2752"/>
 <path fill="none" stroke="rgb(179,179,179)" stroke-linejoin="round" d="M 3639,2900 L 3639,2752"/>
 <path fill="none" stroke="rgb(179,179,179)" stroke-linejoin="round" d="M 3639,2900 L 3639,2752"/>
 <path fill="none" stroke="rgb(179,179,179)" stroke-linejoin="round" d="M 3983,2900 L 3983,2752"/>
 <path fill="none" stroke="rgb(179,179,179)" stroke-linejoin="round" d="M 3983,2900 L 3983,2752"/>
 <path fill="none" stroke="rgb(179,179,179)" stroke-linejoin="round" d="M 4328,2900 L 4328,2752"/>
 <path fill="none" stroke="rgb(179,179,179)" stroke-linejoin="round" d="M 4328,2900 L 4328,2752"/>
 <path fill="none" stroke="rgb(179,179,179)" stroke-linejoin="round" d="M 4673,2900 L 4673,2752"/>
 <path fill="none" stroke="rgb(179,179,179)" stroke-linejoin="round" d="M 4673,2900 L 4673,2752"/>
 <path fill="none" stroke="rgb(179,179,179)" stroke-linejoin="round" d="M 5018,2900 L 5018,2752"/>
 <path fill="none" stroke="rgb(179,179,179)" stroke-linejoin="round" d="M 5018,2900 L 5018,2752"/>
 <path fill="none" stroke="rgb(179,179,179)" stroke-linejoin="round" d="M 5364,2900 L 5364,2752"/>
 <path fill="none" stroke="rgb(179,179,179)" stroke-linejoin="round" d="M 5364,2900 L 5364,2752"/>
 <path fill="none" stroke="rgb(179,179,179)" stroke-linejoin="round" d="M 5709,2900 L 5709,2752"/>
 <path fill="none" stroke="rgb(179,179,179)" stroke-linejoin="round" d="M 5709,2900 L 5709,2752"/>
 <path fill="none" stroke="rgb(179,179,179)" stroke-linejoin="round" d="M 6054,2900 L 6054,2752"/>
 <path fill="none" stroke="rgb(179,179,179)" stroke-linejoin="round" d="M 6054,2900 L 6054,2752"/>
 <path fill="none" stroke="rgb(179,179,179)" stroke-linejoin="round" d="M 6399,2900 L 6399,2752"/>
 <path fill="none" stroke="rgb(179,179,179)" stroke-linejoin="round" d="M 6399,2900 L 6399,2752"/>
 <path fill="none" stroke="rgb(179,179,179)" stroke-linejoin="round" d="M 6744,2900 L 6744,2752"/>
 <path fill="none" stroke="rgb(179,179,179)" stroke-linejoin="round" d="M 6744,2900 L 6744,2752"/>
 <path fill="none" stroke="rgb(179,179,179)" stroke-linejoin="round" d="M 7089,2900 L 7089,2752"/>
 <path fill="none" stroke="rgb(179,179,179)" stroke-linejoin="round" d="M 7089,2900 L 7089,2752"/>
 <path fill="none" stroke="rgb(179,179,179)" stroke-linejoin="round" d="M 878,2752 L 7089,2752"/>
 <path fill="none" stroke="rgb(179,179,179)" stroke-linejoin="round" d="M 728,2752 L 878,2752"/>
 <path fill="none" stroke="rgb(179,179,179)" stroke-linejoin="round" d="M 728,2752 L 878,2752"/>
 <path fill="none" stroke="rgb(179,179,179)" stroke-linejoin="round" d="M 728,2391 L 878,2391"/>
 <path fill="none" stroke="rgb(179,179,179)" stroke-linejoin="round" d="M 728,2391 L 878,2391"/>
 <path fill="none" stroke="rgb(179,179,179)" stroke-linejoin="round" d="M 728,2030 L 878,2030"/>
 <path fill="none" stroke="rgb(179,179,179)" stroke-linejoin="round" d="M 728,2030 L 878,2030"/>
 <path fill="none" stroke="rgb(179,179,179)" stroke-linejoin="round" d="M 728,1670 L 878,1670"/>
 <path fill="none" stroke="rgb(179,179,179)" stroke-linejoin="round" d="M 728,1670 L 878,1670"/>
 <path fill="none" stroke="rgb(179,179,179)" stroke-linejoin="round" d="M 728,1309 L 878,1309"/>
 <path fill="none" stroke="rgb(179,179,179)" stroke-linejoin="round" d="M 728,1309 L 878,1309"/>
 <path fill="none" stroke="rgb(179,179,179)" stroke-linejoin="round" d="M 728,949 L 878,949"/>
 <path fill="none" stroke="rgb(179,179,179)" stroke-linejoin="round" d="M 728,949 L 878,949"/>
 <path fill="none" stroke="rgb(179,179,179)" stroke-linejoin="round" d="M 728,588 L 878,588"/>
 <path fill="none" stroke="rgb(179,179,179)" stroke-linejoin="round" d="M 728,588 L 878,588"/>
 <path fill="none" stroke="rgb(179,179,179)" stroke-linejoin="round" d="M 728,228 L 878,228"/>
 <path fill="none" stroke="rgb(179,179,179)" stroke-linejoin="round" d="M 728,228 L 878,228"/>
 <path fill="none" stroke="rgb(179,179,179)" stroke-linejoin="round" d="M 878,2752 L 878,228"/>
 <path fill="none" stroke="rgb(255,211,32)" stroke-width="80" stroke-linejoin="round" d="M 878,2403 L 1223,2214 1568,2097 1913,1671 2258,1353 2603,1365 2949,1489 3294,1346 3639,1268 3983,1134 4328,1357 4673,1093 5018,993 5364,578 7089,2586"/>
 <path fill="rgb(255,211,32)" stroke="none" d="M 753,2279 L 878,2527 1003,2279 753,2279 Z"/>
 <path fill="none" stroke="rgb(255,211,32)" stroke-linejoin="round" d="M 753,2279 L 878,2527 1003,2279 753,2279 Z"/>
 <path fill="rgb(255,211,32)" stroke="none" d="M 1098,2090 L 1223,2338 1348,2090 1098,2090 Z"/>
 <path fill="none" stroke="rgb(255,211,32)" stroke-linejoin="round" d="M 1098,2090 L 1223,2338 1348,2090 1098,2090 Z"/>
 <path fill="rgb(255,211,32)" stroke="none" d="M 1443,1973 L 1568,2221 1693,1973 1443,1973 Z"/>
 <path fill="none" stroke="rgb(255,211,32)" stroke-linejoin="round" d="M 1443,1973 L 1568,2221 1693,1973 1443,1973 Z"/>
 <path fill="rgb(255,211,32)" stroke="none" d="M 1788,1547 L 1913,1795 2038,1547 1788,1547 Z"/>
 <path fill="none" stroke="rgb(255,211,32)" stroke-linejoin="round" d="M 1788,1547 L 1913,1795 2038,1547 1788,1547 Z"/>
 <path fill="rgb(255,211,32)" stroke="none" d="M 2133,1229 L 2258,1477 2383,1229 2133,1229 Z"/>
 <path fill="none" stroke="rgb(255,211,32)" stroke-linejoin="round" d="M 2133,1229 L 2258,1477 2383,1229 2133,1229 Z"/>
 <path fill="rgb(255,211,32)" stroke="none" d="M 2478,1241 L 2603,1489 2728,1241 2478,1241 Z"/>
 <path fill="none" stroke="rgb(255,211,32)" stroke-linejoin="round" d="M 2478,1241 L 2603,1489 2728,1241 2478,1241 Z"/>
 <path fill="rgb(255,211,32)" stroke="none" d="M 2824,1365 L 2949,1612 3074,1365 2824,1365 Z"/>
 <path fill="none" stroke="rgb(255,211,32)" stroke-linejoin="round" d="M 2824,1365 L 2949,1612 3074,1365 2824,1365 Z"/>
 <path fill="rgb(255,211,32)" stroke="none" d="M 3169,1222 L 3294,1470 3419,1222 3169,1222 Z"/>
 <path fill="none" stroke="rgb(255,211,32)" stroke-linejoin="round" d="M 3169,1222 L 3294,1470 3419,1222 3169,1222 Z"/>
 <path fill="rgb(255,211,32)" stroke="none" d="M 3514,1144 L 3639,1391 3763,1144 3514,1144 Z"/>
 <path fill="none" stroke="rgb(255,211,32)" stroke-linejoin="round" d="M 3514,1144 L 3639,1391 3763,1144 3514,1144 Z"/>
 <path fill="rgb(255,211,32)" stroke="none" d="M 3858,1010 L 3983,1258 4108,1010 3858,1010 Z"/>
 <path fill="none" stroke="rgb(255,211,32)" stroke-linejoin="round" d="M 3858,1010 L 3983,1258 4108,1010 3858,1010 Z"/>
 <path fill="rgb(255,211,32)" stroke="none" d="M 4203,1233 L 4328,1481 4453,1233 4203,1233 Z"/>
 <path fill="none" stroke="rgb(255,211,32)" stroke-linejoin="round" d="M 4203,1233 L 4328,1481 4453,1233 4203,1233 Z"/>
 <path fill="rgb(255,211,32)" stroke="none" d="M 4548,969 L 4673,1217 4798,969 4548,969 Z"/>
 <path fill="none" stroke="rgb(255,211,32)" stroke-linejoin="round" d="M 4548,969 L 4673,1217 4798,969 4548,969 Z"/>
 <path fill="rgb(255,211,32)" stroke="none" d="M 4893,869 L 5018,1117 5143,869 4893,869 Z"/>
 <path fill="none" stroke="rgb(255,211,32)" stroke-linejoin="round" d="M 4893,869 L 5018,1117 5143,869 4893,869 Z"/>
 <path fill="rgb(255,211,32)" stroke="none" d="M 5239,454 L 5364,702 5489,454 5239,454 Z"/>
 <path fill="none" stroke="rgb(255,211,32)" stroke-linejoin="round" d="M 5239,454 L 5364,702 5489,454 5239,454 Z"/>
 <path fill="rgb(255,211,32)" stroke="none" d="M 6964,2462 L 7089,2710 7214,2462 6964,2462 Z"/>
 <path fill="none" stroke="rgb(255,211,32)" stroke-linejoin="round" d="M 6964,2462 L 7089,2710 7214,2462 6964,2462 Z"/>
 <text class="SVGTextShape"><tspan class="TextParagraph" font-family="Liberation Sans, sans-serif" font-size="279px" font-weight="400"><tspan class="TextPosition" x="231" y="2857"><tspan fill="rgb(0,0,0)" stroke="none">1/0</tspan></tspan></tspan></text>
 <text class="SVGTextShape"><tspan class="TextParagraph" font-family="Liberation Sans, sans-serif" font-size="279px" font-weight="400"><tspan class="TextPosition" x="231" y="2497"><tspan fill="rgb(0,0,0)" stroke="none">1/1</tspan></tspan></tspan></text>
 <text class="SVGTextShape"><tspan class="TextParagraph" font-family="Liberation Sans, sans-serif" font-size="279px" font-weight="400"><tspan class="TextPosition" x="231" y="2136"><tspan fill="rgb(0,0,0)" stroke="none">1/2</tspan></tspan></tspan></text>
 <text class="SVGTextShape"><tspan class="TextParagraph" font-family="Liberation Sans, sans-serif" font-size="279px" font-weight="400"><tspan class="TextPosition" x="231" y="1775"><tspan fill="rgb(0,0,0)" stroke="none">1/3</tspan></tspan></tspan></text>
 <text class="SVGTextShape"><tspan class="TextParagraph" font-family="Liberation Sans, sans-serif" font-size="279px" font-weight="400"><tspan class="TextPosition" x="231" y="1415"><tspan fill="rgb(0,0,0)" stroke="none">1/4</tspan></tspan></tspan></text>
 <text class="SVGTextShape"><tspan class="TextParagraph" font-family="Liberation Sans, sans-serif" font-size="279px" font-weight="400"><tspan class="TextPosition" x="231" y="1054"><tspan fill="rgb(0,0,0)" stroke="none">1/5</tspan></tspan></tspan></text>
 <text class="SVGTextShape"><tspan class="TextParagraph" font-family="Liberation Sans, sans-serif" font-size="279px" font-weight="400"><tspan class="TextPosition" x="231" y="693"><tspan fill="rgb(0,0,0)" stroke="none">1/6</tspan></tspan></tspan></text>
 <text class="SVGTextShape"><tspan class="TextParagraph" font-family="Liberation Sans, sans-serif" font-size="279px" font-weight="400"><tspan class="TextPosition" x="231" y="334"><tspan fill="rgb(0,0,0)" stroke="none">1/7</tspan></tspan></tspan></text>
</svg>