<?xml version="1.0" encoding="UTF-8"?>
<!DOCTYPE svg PUBLIC "-//W3C//DTD SVG 1.1//EN" "http://www.w3.org/Graphics/SVG/1.1/DTD/svg11.dtd">
<svg width="150mm" height="75mm" viewBox="0 0 15000 7500" version="1.1" xmlns="http://www.w3.org/2000/svg" xmlns:xlink="http://www.w3.org/1999/xlink" stroke-width="28.222" stroke-linejoin="round" xml:space="preserve">
 <path fill="rgb(255,255,255)" stroke="none" d="M 7500,7500 L 0,7500 0,0 15000,0 15000,7500 7500,7500 Z"/>
 <path fill="none" stroke="rgb(179,179,179)" stroke-linejoin="round" d="M 9593,6700 L 4730,6700 4730,795 14457,795 14457,6700 9593,6700 Z"/>
 <path fill="none" stroke="rgb(179,179,179)" stroke-linejoin="round" d="M 4730,794 L 4730,6699"/>
 <path fill="none" stroke="rgb(179,179,179)" stroke-linejoin="round" d="M 5810,794 L 5810,6699"/>
 <path fill="none" stroke="rgb(179,179,179)" stroke-linejoin="round" d="M 6891,794 L 6891,6699"/>
 <path fill="none" stroke="rgb(179,179,179)" stroke-linejoin="round" d="M 7971,794 L 7971,6699"/>
 <path fill="none" stroke="rgb(179,179,179)" stroke-linejoin="round" d="M 9052,794 L 9052,6699"/>
 <path fill="none" stroke="rgb(179,179,179)" stroke-linejoin="round" d="M 10133,794 L 10133,6699"/>
 <path fill="none" stroke="rgb(179,179,179)" stroke-linejoin="round" d="M 11214,794 L 11214,6699"/>
 <path fill="none" stroke="rgb(179,179,179)" stroke-linejoin="round" d="M 12295,794 L 12295,6699"/>
 <path fill="none" stroke="rgb(179,179,179)" stroke-linejoin="round" d="M 13376,794 L 13376,6699"/>
 <path fill="none" stroke="rgb(179,179,179)" stroke-linejoin="round" d="M 14457,794 L 14457,6699"/>
 <path fill="none" stroke="rgb(179,179,179)" stroke-linejoin="round" d="M 4580,6699 L 4730,6699"/>
 <path fill="none" stroke="rgb(179,179,179)" stroke-linejoin="round" d="M 4580,6699 L 4730,6699"/>
 <path fill="none" stroke="rgb(179,179,179)" stroke-linejoin="round" d="M 4580,6206 L 4730,6206"/>
 <path fill="none" stroke="rgb(179,179,179)" stroke-linejoin="round" d="M 4580,6206 L 4730,6206"/>
 <path fill="none" stroke="rgb(179,179,179)" stroke-linejoin="round" d="M 4580,5714 L 4730,5714"/>
 <path fill="none" stroke="rgb(179,179,179)" stroke-linejoin="round" d="M 4580,5714 L 4730,5714"/>
 <path fill="none" stroke="rgb(179,179,179)" stroke-linejoin="round" d="M 4580,5222 L 4730,5222"/>
 <path fill="none" stroke="rgb(179,179,179)" stroke-linejoin="round" d="M 4580,5222 L 4730,5222"/>
 <path fill="none" stroke="rgb(179,179,179)" stroke-linejoin="round" d="M 4580,4730 L 4730,4730"/>
 <path fill="none" stroke="rgb(179,179,179)" stroke-linejoin="round" d="M 4580,4730 L 4730,4730"/>
 <path fill="none" stroke="rgb(179,179,179)" stroke-linejoin="round" d="M 4580,4238 L 4730,4238"/>
 <path fill="none" stroke="rgb(179,179,179)" stroke-linejoin="round" d="M 4580,4238 L 4730,4238"/>
 <path fill="none" stroke="rgb(179,179,179)" stroke-linejoin="round" d="M 4580,3747 L 4730,3747"/>
 <path fill="none" stroke="rgb(179,179,179)" stroke-linejoin="round" d="M 4580,3747 L 4730,3747"/>
 <path fill="none" stroke="rgb(179,179,179)" stroke-linejoin="round" d="M 4580,3254 L 4730,3254"/>
 <path fill="none" stroke="rgb(179,179,179)" stroke-linejoin="round" d="M 4580,3254 L 4730,3254"/>
 <path fill="none" stroke="rgb(179,179,179)" stroke-linejoin="round" d="M 4580,2762 L 4730,2762"/>
 <path fill="none" stroke="rgb(179,179,179)" stroke-linejoin="round" d="M 4580,2762 L 4730,2762"/>
 <path fill="none" stroke="rgb(179,179,179)" stroke-linejoin="round" d="M 4580,2270 L 4730,2270"/>
 <path fill="none" stroke="rgb(179,179,179)" stroke-linejoin="round" d="M 4580,2270 L 4730,2270"/>
 <path fill="none" stroke="rgb(179,179,179)" stroke-linejoin="round" d="M 4580,1778 L 4730,1778"/>
 <path fill="none" stroke="rgb(179,179,179)" stroke-linejoin="round" d="M 4580,1778 L 4730,1778"/>
 <path fill="none" stroke="rgb(179,179,179)" stroke-linejoin="round" d="M 4580,1286 L 4730,1286"/>
 <path fill="none" stroke="rgb(179,179,179)" stroke-linejoin="round" d="M 4580,1286 L 4730,1286"/>
 <path fill="none" stroke="rgb(179,179,179)" stroke-linejoin="round" d="M 4580,794 L 4730,794"/>
 <path fill="none" stroke="rgb(179,179,179)" stroke-linejoin="round" d="M 4580,794 L 4730,794"/>
 <path fill="none" stroke="rgb(179,179,179)" stroke-linejoin="round" d="M 4730,6699 L 4730,794"/>
 <path fill="none" stroke="rgb(179,179,179)" stroke-linejoin="round" d="M 4730,6849 L 4730,6699"/>
 <path fill="none" stroke="rgb(179,179,179)" stroke-linejoin="round" d="M 4730,6849 L 4730,6699"/>
 <path fill="none" stroke="rgb(179,179,179)" stroke-linejoin="round" d="M 5810,6849 L 5810,6699"/>
 <path fill="none" stroke="rgb(179,179,179)" stroke-linejoin="round" d="M 5810,6849 L 5810,6699"/>
 <path fill="none" stroke="rgb(179,179,179)" stroke-linejoin="round" d="M 6891,6849 L 6891,6699"/>
 <path fill="none" stroke="rgb(179,179,179)" stroke-linejoin="round" d="M 6891,6849 L 6891,6699"/>
 <path fill="none" stroke="rgb(179,179,179)" stroke-linejoin="round" d="M 7971,6849 L 7971,6699"/>
 <path fill="none" stroke="rgb(179,179,179)" stroke-linejoin="round" d="M 7971,6849 L 7971,6699"/>
 <path fill="none" stroke="rgb(179,179,179)" stroke-linejoin="round" d="M 9052,6849 L 9052,6699"/>
 <path fill="none" stroke="rgb(179,179,179)" stroke-linejoin="round" d="M 9052,6849 L 9052,6699"/>
 <path fill="none" stroke="rgb(179,179,179)" stroke-linejoin="round" d="M 10133,6849 L 10133,6699"/>
 <path fill="none" stroke="rgb(179,179,179)" stroke-linejoin="round" d="M 10133,6849 L 10133,6699"/>
 <path fill="none" stroke="rgb(179,179,179)" stroke-linejoin="round" d="M 11214,6849 L 11214,6699"/>
 <path fill="none" stroke="rgb(179,179,179)" stroke-linejoin="round" d="M 11214,6849 L 11214,6699"/>
 <path fill="none" stroke="rgb(179,179,179)" stroke-linejoin="round" d="M 12295,6849 L 12295,6699"/>
 <path fill="none" stroke="rgb(179,179,179)" stroke-linejoin="round" d="M 12295,6849 L 12295,6699"/>
 <path fill="none" stroke="rgb(179,179,179)" stroke-linejoin="round" d="M 13376,6849 L 13376,6699"/>
 <path fill="none" stroke="rgb(179,179,179)" stroke-linejoin="round" d="M 13376,6849 L 13376,6699"/>
 <path fill="none" stroke="rgb(179,179,179)" stroke-linejoin="round" d="M 14457,6849 L 14457,6699"/>
 <path fill="none" stroke="rgb(179,179,179)" stroke-linejoin="round" d="M 14457,6849 L 14457,6699"/>
 <path fill="none" stroke="rgb(179,179,179)" stroke-linejoin="round" d="M 4730,6699 L 14457,6699"/>
 <path fill="rgb(0,69,134)" stroke="none" d="M 4730,1163 L 4730,917 13127,917 13127,1163 4730,1163 Z"/>
 <path fill="rgb(0,69,134)" stroke="none" d="M 4730,1655 L 4730,1409 7885,1409 7885,1655 4730,1655 Z"/>
 <path fill="rgb(0,69,134)" stroke="none" d="M 4730,2147 L 4730,1901 6967,1901 6967,2147 4730,2147 Z"/>
 <path fill="rgb(0,69,134)" stroke="none" d="M 4730,2639 L 4730,2393 6686,2393 6686,2639 4730,2639 Z"/>
 <path fill="rgb(0,69,134)" stroke="none" d="M 4730,3131 L 4730,2885 6113,2885 6113,3131 4730,3131 Z"/>
 <path fill="rgb(153,204,255)" stroke="none" d="M 4730,3623 L 4730,3377 5918,3377 5918,3623 4730,3623 Z"/>
 <path fill="rgb(255,211,32)" stroke="none" d="M 4730,4115 L 4730,3869 5810,3869 5810,4115 4730,4115 Z"/>
 <path fill="rgb(0,69,134)" stroke="none" d="M 4730,4607 L 4730,4361 5746,4361 5746,4607 4730,4607 Z"/>
 <path fill="rgb(255,153,153)" stroke="none" d="M 4730,5099 L 4730,4853 5486,4853 5486,5099 4730,5099 Z"/>
 <path fill="rgb(153,0,0)" stroke="none" d="M 4730,5591 L 4730,5345 5270,5345 5270,5591 4730,5591 Z"/>
 <path fill="rgb(0,69,134)" stroke="none" d="M 4730,6083 L 4730,5837 4946,5837 4946,6083 4730,6083 Z"/>
 <path fill="rgb(0,69,134)" stroke="none" d="M 4730,6575 L 4730,6329 4794,6329 4794,6575 4730,6575 Z"/>
 <text class="SVGTextShape"><tspan class="TextParagraph" font-family="Latin Modern Roman" font-size="282px" font-weight="400"><tspan class="TextPosition" x="3792" y="6573"><tspan fill="rgb(0,0,0)" stroke="none">Niger</tspan></tspan></tspan></text>
 <text class="SVGTextShape"><tspan class="TextParagraph" font-family="Latin Modern Roman" font-size="282px" font-weight="400"><tspan class="TextPosition" x="2787" y="6081"><tspan fill="rgb(0,0,0)" stroke="none">Noord Korea</tspan></tspan></tspan></text>
 <text class="SVGTextShape"><tspan class="TextParagraph" font-family="Latin Modern Roman" font-size="282px" font-weight="400"><tspan class="TextPosition" x="749" y="5589"><tspan fill="rgb(0,0,0)" stroke="none">Minimaal nodig (ondergrens)</tspan></tspan></tspan></text>
 <text class="SVGTextShape"><tspan class="TextParagraph" font-family="Latin Modern Roman" font-size="282px" font-weight="400"><tspan class="TextPosition" x="696" y="5097"><tspan fill="rgb(0,0,0)" stroke="none">Minimaal nodig (bovengrens)</tspan></tspan></tspan></text>
 <text class="SVGTextShape"><tspan class="TextParagraph" font-family="Latin Modern Roman" font-size="282px" font-weight="400"><tspan class="TextPosition" x="3713" y="4605"><tspan fill="rgb(0,0,0)" stroke="none">China</tspan></tspan></tspan></text>
 <text class="SVGTextShape"><tspan class="TextParagraph" font-family="Latin Modern Roman" font-size="282px" font-weight="400"><tspan class="TextPosition" x="300" y="4113"><tspan fill="rgb(0,0,0)" stroke="none">Bovengrens stijging welbevinden</tspan></tspan></tspan></text>
 <text class="SVGTextShape"><tspan class="TextParagraph" font-family="Latin Modern Roman" font-size="282px" font-weight="400"><tspan class="TextPosition" x="3025" y="3620"><tspan fill="rgb(0,0,0)" stroke="none">Wereldwijd</tspan></tspan></tspan></text>
 <text class="SVGTextShape"><tspan class="TextParagraph" font-family="Latin Modern Roman" font-size="282px" font-weight="400"><tspan class="TextPosition" x="2998" y="3128"><tspan fill="rgb(0,0,0)" stroke="none">Zwitserland</tspan></tspan></tspan></text>
 <text class="SVGTextShape"><tspan class="TextParagraph" font-family="Latin Modern Roman" font-size="282px" font-weight="400"><tspan class="TextPosition" x="3184" y="2636"><tspan fill="rgb(0,0,0)" stroke="none">Nederland</tspan></tspan></tspan></text>
 <text class="SVGTextShape"><tspan class="TextParagraph" font-family="Latin Modern Roman" font-size="282px" font-weight="400"><tspan class="TextPosition" x="3448" y="2144"><tspan fill="rgb(0,0,0)" stroke="none">Rusland</tspan></tspan></tspan></text>
 <text class="SVGTextShape"><tspan class="TextParagraph" font-family="Latin Modern Roman" font-size="282px" font-weight="400"><tspan class="TextPosition" x="2284" y="1652"><tspan fill="rgb(0,0,0)" stroke="none">Verenigde Staten</tspan></tspan></tspan></text>
 <text class="SVGTextShape"><tspan class="TextParagraph" font-family="Latin Modern Roman" font-size="282px" font-weight="400"><tspan class="TextPosition" x="3554" y="1160"><tspan fill="rgb(0,0,0)" stroke="none">Quatar</tspan></tspan></tspan></text>
 <text class="SVGTextShape"><tspan class="TextParagraph" font-family="Latin Modern Roman" font-size="282px" font-weight="400"><tspan class="TextPosition" x="4650" y="7267"><tspan fill="rgb(0,0,0)" stroke="none">0</tspan></tspan></tspan></text>
 <text class="SVGTextShape"><tspan class="TextParagraph" font-family="Latin Modern Roman" font-size="282px" font-weight="400"><tspan class="TextPosition" x="5572" y="7267"><tspan fill="rgb(0,0,0)" stroke="none">100</tspan></tspan></tspan></text>
 <text class="SVGTextShape"><tspan class="TextParagraph" font-family="Latin Modern Roman" font-size="282px" font-weight="400"><tspan class="TextPosition" x="6653" y="7267"><tspan fill="rgb(0,0,0)" stroke="none">200</tspan></tspan></tspan></text>
 <text class="SVGTextShape"><tspan class="TextParagraph" font-family="Latin Modern Roman" font-size="282px" font-weight="400"><tspan class="TextPosition" x="7734" y="7267"><tspan fill="rgb(0,0,0)" stroke="none">300</tspan></tspan></tspan></text>
 <text class="SVGTextShape"><tspan class="TextParagraph" font-family="Latin Modern Roman" font-size="282px" font-weight="400"><tspan class="TextPosition" x="8815" y="7267"><tspan fill="rgb(0,0,0)" stroke="none">400</tspan></tspan></tspan></text>
 <text class="SVGTextShape"><tspan class="TextParagraph" font-family="Latin Modern Roman" font-size="282px" font-weight="400"><tspan class="TextPosition" x="9896" y="7267"><tspan fill="rgb(0,0,0)" stroke="none">500</tspan></tspan></tspan></text>
 <text class="SVGTextShape"><tspan class="TextParagraph" font-family="Latin Modern Roman" font-size="282px" font-weight="400"><tspan class="TextPosition" x="10977" y="7267"><tspan fill="rgb(0,0,0)" stroke="none">600</tspan></tspan></tspan></text>
 <text class="SVGTextShape"><tspan class="TextParagraph" font-family="Latin Modern Roman" font-size="282px" font-weight="400"><tspan class="TextPosition" x="12058" y="7267"><tspan fill="rgb(0,0,0)" stroke="none">700</tspan></tspan></tspan></text>
 <text class="SVGTextShape"><tspan class="TextParagraph" font-family="Latin Modern Roman" font-size="282px" font-weight="400"><tspan class="TextPosition" x="13139" y="7267"><tspan fill="rgb(0,0,0)" stroke="none">800</tspan></tspan></tspan></text>
 <text class="SVGTextShape"><tspan class="TextParagraph" font-family="Latin Modern Roman" font-size="282px" font-weight="400"><tspan class="TextPosition" x="14220" y="7267"><tspan fill="rgb(0,0,0)" stroke="none">900</tspan></tspan></tspan></text>
 <text class="SVGTextShape"><tspan class="TextParagraph" font-family="Latin Modern Roman" font-size="353px" font-weight="400"><tspan class="TextPosition" x="4385" y="503"><tspan fill="rgb(0,0,0)" stroke="none">Energiegebruik per persoon, per jaar (2014)</tspan></tspan></tspan></text>
</svg>