<?xml version="1.0" encoding="UTF-8"?>
<!DOCTYPE svg PUBLIC "-//W3C//DTD SVG 1.1//EN" "http://www.w3.org/Graphics/SVG/1.1/DTD/svg11.dtd">
<svg width="150mm" height="75mm" viewBox="0 0 15000 7500" version="1.1" xmlns="http://www.w3.org/2000/svg" xmlns:xlink="http://www.w3.org/1999/xlink" stroke-width="28.222" stroke-linejoin="round" xml:space="preserve">
 <path fill="rgb(255,255,255)" stroke="none" d="M 7500,7500 L 0,7500 0,0 15000,0 15000,7500 7500,7500 Z"/>
 <path fill="none" stroke="rgb(179,179,179)" stroke-linejoin="round" d="M 9782,6117 L 4727,6117 4727,159 14838,159 14838,6117 9782,6117 Z"/>
 <path fill="none" stroke="rgb(179,179,179)" stroke-linejoin="round" d="M 4727,157 L 4727,6116"/>
 <path fill="none" stroke="rgb(179,179,179)" stroke-linejoin="round" d="M 5850,157 L 5850,6116"/>
 <path fill="none" stroke="rgb(179,179,179)" stroke-linejoin="round" d="M 6974,157 L 6974,6116"/>
 <path fill="none" stroke="rgb(179,179,179)" stroke-linejoin="round" d="M 8096,157 L 8096,6116"/>
 <path fill="none" stroke="rgb(179,179,179)" stroke-linejoin="round" d="M 9220,157 L 9220,6116"/>
 <path fill="none" stroke="rgb(179,179,179)" stroke-linejoin="round" d="M 10343,157 L 10343,6116"/>
 <path fill="none" stroke="rgb(179,179,179)" stroke-linejoin="round" d="M 11467,157 L 11467,6116"/>
 <path fill="none" stroke="rgb(179,179,179)" stroke-linejoin="round" d="M 12590,157 L 12590,6116"/>
 <path fill="none" stroke="rgb(179,179,179)" stroke-linejoin="round" d="M 13714,157 L 13714,6116"/>
 <path fill="none" stroke="rgb(179,179,179)" stroke-linejoin="round" d="M 14838,157 L 14838,6116"/>
 <path fill="none" stroke="rgb(179,179,179)" stroke-linejoin="round" d="M 4577,6116 L 4727,6116"/>
 <path fill="none" stroke="rgb(179,179,179)" stroke-linejoin="round" d="M 4577,6116 L 4727,6116"/>
 <path fill="none" stroke="rgb(179,179,179)" stroke-linejoin="round" d="M 4577,5619 L 4727,5619"/>
 <path fill="none" stroke="rgb(179,179,179)" stroke-linejoin="round" d="M 4577,5619 L 4727,5619"/>
 <path fill="none" stroke="rgb(179,179,179)" stroke-linejoin="round" d="M 4577,5122 L 4727,5122"/>
 <path fill="none" stroke="rgb(179,179,179)" stroke-linejoin="round" d="M 4577,5122 L 4727,5122"/>
 <path fill="none" stroke="rgb(179,179,179)" stroke-linejoin="round" d="M 4577,4626 L 4727,4626"/>
 <path fill="none" stroke="rgb(179,179,179)" stroke-linejoin="round" d="M 4577,4626 L 4727,4626"/>
 <path fill="none" stroke="rgb(179,179,179)" stroke-linejoin="round" d="M 4577,4129 L 4727,4129"/>
 <path fill="none" stroke="rgb(179,179,179)" stroke-linejoin="round" d="M 4577,4129 L 4727,4129"/>
 <path fill="none" stroke="rgb(179,179,179)" stroke-linejoin="round" d="M 4577,3634 L 4727,3634"/>
 <path fill="none" stroke="rgb(179,179,179)" stroke-linejoin="round" d="M 4577,3634 L 4727,3634"/>
 <path fill="none" stroke="rgb(179,179,179)" stroke-linejoin="round" d="M 4577,3137 L 4727,3137"/>
 <path fill="none" stroke="rgb(179,179,179)" stroke-linejoin="round" d="M 4577,3137 L 4727,3137"/>
 <path fill="none" stroke="rgb(179,179,179)" stroke-linejoin="round" d="M 4577,2640 L 4727,2640"/>
 <path fill="none" stroke="rgb(179,179,179)" stroke-linejoin="round" d="M 4577,2640 L 4727,2640"/>
 <path fill="none" stroke="rgb(179,179,179)" stroke-linejoin="round" d="M 4577,2144 L 4727,2144"/>
 <path fill="none" stroke="rgb(179,179,179)" stroke-linejoin="round" d="M 4577,2144 L 4727,2144"/>
 <path fill="none" stroke="rgb(179,179,179)" stroke-linejoin="round" d="M 4577,1647 L 4727,1647"/>
 <path fill="none" stroke="rgb(179,179,179)" stroke-linejoin="round" d="M 4577,1647 L 4727,1647"/>
 <path fill="none" stroke="rgb(179,179,179)" stroke-linejoin="round" d="M 4577,1151 L 4727,1151"/>
 <path fill="none" stroke="rgb(179,179,179)" stroke-linejoin="round" d="M 4577,1151 L 4727,1151"/>
 <path fill="none" stroke="rgb(179,179,179)" stroke-linejoin="round" d="M 4577,654 L 4727,654"/>
 <path fill="none" stroke="rgb(179,179,179)" stroke-linejoin="round" d="M 4577,654 L 4727,654"/>
 <path fill="none" stroke="rgb(179,179,179)" stroke-linejoin="round" d="M 4577,157 L 4727,157"/>
 <path fill="none" stroke="rgb(179,179,179)" stroke-linejoin="round" d="M 4577,157 L 4727,157"/>
 <path fill="none" stroke="rgb(179,179,179)" stroke-linejoin="round" d="M 4727,6116 L 4727,157"/>
 <path fill="none" stroke="rgb(179,179,179)" stroke-linejoin="round" d="M 4727,6266 L 4727,6116"/>
 <path fill="none" stroke="rgb(179,179,179)" stroke-linejoin="round" d="M 4727,6266 L 4727,6116"/>
 <path fill="none" stroke="rgb(179,179,179)" stroke-linejoin="round" d="M 5850,6266 L 5850,6116"/>
 <path fill="none" stroke="rgb(179,179,179)" stroke-linejoin="round" d="M 5850,6266 L 5850,6116"/>
 <path fill="none" stroke="rgb(179,179,179)" stroke-linejoin="round" d="M 6974,6266 L 6974,6116"/>
 <path fill="none" stroke="rgb(179,179,179)" stroke-linejoin="round" d="M 6974,6266 L 6974,6116"/>
 <path fill="none" stroke="rgb(179,179,179)" stroke-linejoin="round" d="M 8096,6266 L 8096,6116"/>
 <path fill="none" stroke="rgb(179,179,179)" stroke-linejoin="round" d="M 8096,6266 L 8096,6116"/>
 <path fill="none" stroke="rgb(179,179,179)" stroke-linejoin="round" d="M 9220,6266 L 9220,6116"/>
 <path fill="none" stroke="rgb(179,179,179)" stroke-linejoin="round" d="M 9220,6266 L 9220,6116"/>
 <path fill="none" stroke="rgb(179,179,179)" stroke-linejoin="round" d="M 10343,6266 L 10343,6116"/>
 <path fill="none" stroke="rgb(179,179,179)" stroke-linejoin="round" d="M 10343,6266 L 10343,6116"/>
 <path fill="none" stroke="rgb(179,179,179)" stroke-linejoin="round" d="M 11467,6266 L 11467,6116"/>
 <path fill="none" stroke="rgb(179,179,179)" stroke-linejoin="round" d="M 11467,6266 L 11467,6116"/>
 <path fill="none" stroke="rgb(179,179,179)" stroke-linejoin="round" d="M 12590,6266 L 12590,6116"/>
 <path fill="none" stroke="rgb(179,179,179)" stroke-linejoin="round" d="M 12590,6266 L 12590,6116"/>
 <path fill="none" stroke="rgb(179,179,179)" stroke-linejoin="round" d="M 13714,6266 L 13714,6116"/>
 <path fill="none" stroke="rgb(179,179,179)" stroke-linejoin="round" d="M 13714,6266 L 13714,6116"/>
 <path fill="none" stroke="rgb(179,179,179)" stroke-linejoin="round" d="M 14838,6266 L 14838,6116"/>
 <path fill="none" stroke="rgb(179,179,179)" stroke-linejoin="round" d="M 14838,6266 L 14838,6116"/>
 <path fill="none" stroke="rgb(179,179,179)" stroke-linejoin="round" d="M 4727,6116 L 14838,6116"/>
 <path fill="rgb(0,69,134)" stroke="none" d="M 4727,530 L 4727,282 13456,282 13456,530 4727,530 Z"/>
 <path fill="rgb(0,69,134)" stroke="none" d="M 4727,1027 L 4727,778 8006,778 8006,1027 4727,1027 Z"/>
 <path fill="rgb(0,69,134)" stroke="none" d="M 4727,1523 L 4727,1275 7052,1275 7052,1523 4727,1523 Z"/>
 <path fill="rgb(0,69,134)" stroke="none" d="M 4727,2020 L 4727,1771 6760,1771 6760,2020 4727,2020 Z"/>
 <path fill="rgb(0,69,134)" stroke="none" d="M 4727,2516 L 4727,2268 6165,2268 6165,2516 4727,2516 Z"/>
 <path fill="rgb(153,204,255)" stroke="none" d="M 4727,3013 L 4727,2765 5962,2765 5962,3013 4727,3013 Z"/>
 <path fill="rgb(255,211,32)" stroke="none" d="M 4727,3509 L 4727,3261 5850,3261 5850,3509 4727,3509 Z"/>
 <path fill="rgb(0,69,134)" stroke="none" d="M 4727,4005 L 4727,3757 5783,3757 5783,4005 4727,4005 Z"/>
 <path fill="rgb(255,153,153)" stroke="none" d="M 4727,4502 L 4727,4253 5513,4253 5513,4502 4727,4502 Z"/>
 <path fill="rgb(153,0,0)" stroke="none" d="M 4727,4998 L 4727,4750 5288,4750 5288,4998 4727,4998 Z"/>
 <path fill="rgb(0,69,134)" stroke="none" d="M 4727,5495 L 4727,5246 4951,5246 4951,5495 4727,5495 Z"/>
 <path fill="rgb(0,69,134)" stroke="none" d="M 4727,5991 L 4727,5743 4794,5743 4794,5991 4727,5991 Z"/>
 <text class="SVGTextShape"><tspan class="TextParagraph" font-family="Latin Modern Roman" font-size="282px" font-weight="400"><tspan class="TextPosition" x="3789" y="5988"><tspan fill="rgb(0,0,0)" stroke="none">Niger</tspan></tspan></tspan></text>
 <text class="SVGTextShape"><tspan class="TextParagraph" font-family="Latin Modern Roman" font-size="282px" font-weight="400"><tspan class="TextPosition" x="2784" y="5492"><tspan fill="rgb(0,0,0)" stroke="none">Noord Korea</tspan></tspan></tspan></text>
 <text class="SVGTextShape"><tspan class="TextParagraph" font-family="Latin Modern Roman" font-size="282px" font-weight="400"><tspan class="TextPosition" x="746" y="4995"><tspan fill="rgb(0,0,0)" stroke="none">Minimaal nodig (ondergrens)</tspan></tspan></tspan></text>
 <text class="SVGTextShape"><tspan class="TextParagraph" font-family="Latin Modern Roman" font-size="282px" font-weight="400"><tspan class="TextPosition" x="693" y="4498"><tspan fill="rgb(0,0,0)" stroke="none">Minimaal nodig (bovengrens)</tspan></tspan></tspan></text>
 <text class="SVGTextShape"><tspan class="TextParagraph" font-family="Latin Modern Roman" font-size="282px" font-weight="400"><tspan class="TextPosition" x="3710" y="4002"><tspan fill="rgb(0,0,0)" stroke="none">China</tspan></tspan></tspan></text>
 <text class="SVGTextShape"><tspan class="TextParagraph" font-family="Latin Modern Roman" font-size="282px" font-weight="400"><tspan class="TextPosition" x="297" y="3505"><tspan fill="rgb(0,0,0)" stroke="none">Bovengrens stijging welbevinden</tspan></tspan></tspan></text>
 <text class="SVGTextShape"><tspan class="TextParagraph" font-family="Latin Modern Roman" font-size="282px" font-weight="400"><tspan class="TextPosition" x="3022" y="3009"><tspan fill="rgb(0,0,0)" stroke="none">Wereldwijd</tspan></tspan></tspan></text>
 <text class="SVGTextShape"><tspan class="TextParagraph" font-family="Latin Modern Roman" font-size="282px" font-weight="400"><tspan class="TextPosition" x="2995" y="2512"><tspan fill="rgb(0,0,0)" stroke="none">Zwitserland</tspan></tspan></tspan></text>
 <text class="SVGTextShape"><tspan class="TextParagraph" font-family="Latin Modern Roman" font-size="282px" font-weight="400"><tspan class="TextPosition" x="3181" y="2016"><tspan fill="rgb(0,0,0)" stroke="none">Nederland</tspan></tspan></tspan></text>
 <text class="SVGTextShape"><tspan class="TextParagraph" font-family="Latin Modern Roman" font-size="282px" font-weight="400"><tspan class="TextPosition" x="3445" y="1519"><tspan fill="rgb(0,0,0)" stroke="none">Rusland</tspan></tspan></tspan></text>
 <text class="SVGTextShape"><tspan class="TextParagraph" font-family="Latin Modern Roman" font-size="282px" font-weight="400"><tspan class="TextPosition" x="2281" y="1022"><tspan fill="rgb(0,0,0)" stroke="none">Verenigde Staten</tspan></tspan></tspan></text>
 <text class="SVGTextShape"><tspan class="TextParagraph" font-family="Latin Modern Roman" font-size="282px" font-weight="400"><tspan class="TextPosition" x="3551" y="526"><tspan fill="rgb(0,0,0)" stroke="none">Quatar</tspan></tspan></tspan></text>
 <text class="SVGTextShape" transform="rotate(-44.9 4342 7059)"><tspan class="TextParagraph" font-family="Latin Modern Roman" font-size="282px" font-weight="400"><tspan class="TextPosition" x="4342" y="7059"><tspan fill="rgb(0,0,0)" stroke="none">0 GJ</tspan></tspan></tspan></text>
 <text class="SVGTextShape" transform="rotate(-44.9 5241 7283)"><tspan class="TextParagraph" font-family="Latin Modern Roman" font-size="282px" font-weight="400"><tspan class="TextPosition" x="5241" y="7283"><tspan fill="rgb(0,0,0)" stroke="none">100 GJ</tspan></tspan></tspan></text>
 <text class="SVGTextShape" transform="rotate(-44.9 6365 7283)"><tspan class="TextParagraph" font-family="Latin Modern Roman" font-size="282px" font-weight="400"><tspan class="TextPosition" x="6365" y="7283"><tspan fill="rgb(0,0,0)" stroke="none">200 GJ</tspan></tspan></tspan></text>
 <text class="SVGTextShape" transform="rotate(-44.9 7488 7283)"><tspan class="TextParagraph" font-family="Latin Modern Roman" font-size="282px" font-weight="400"><tspan class="TextPosition" x="7488" y="7283"><tspan fill="rgb(0,0,0)" stroke="none">300 GJ</tspan></tspan></tspan></text>
 <text class="SVGTextShape" transform="rotate(-44.9 8612 7283)"><tspan class="TextParagraph" font-family="Latin Modern Roman" font-size="282px" font-weight="400"><tspan class="TextPosition" x="8612" y="7283"><tspan fill="rgb(0,0,0)" stroke="none">400 GJ</tspan></tspan></tspan></text>
 <text class="SVGTextShape" transform="rotate(-44.9 9735 7283)"><tspan class="TextParagraph" font-family="Latin Modern Roman" font-size="282px" font-weight="400"><tspan class="TextPosition" x="9735" y="7283"><tspan fill="rgb(0,0,0)" stroke="none">500 GJ</tspan></tspan></tspan></text>
 <text class="SVGTextShape" transform="rotate(-44.9 10858 7283)"><tspan class="TextParagraph" font-family="Latin Modern Roman" font-size="282px" font-weight="400"><tspan class="TextPosition" x="10858" y="7283"><tspan fill="rgb(0,0,0)" stroke="none">600 GJ</tspan></tspan></tspan></text>
 <text class="SVGTextShape" transform="rotate(-44.9 11981 7283)"><tspan class="TextParagraph" font-family="Latin Modern Roman" font-size="282px" font-weight="400"><tspan class="TextPosition" x="11981" y="7283"><tspan fill="rgb(0,0,0)" stroke="none">700 GJ</tspan></tspan></tspan></text>
 <text class="SVGTextShape" transform="rotate(-44.9 13105 7283)"><tspan class="TextParagraph" font-family="Latin Modern Roman" font-size="282px" font-weight="400"><tspan class="TextPosition" x="13105" y="7283"><tspan fill="rgb(0,0,0)" stroke="none">800 GJ</tspan></tspan></tspan></text>
 <text class="SVGTextShape" transform="rotate(-44.9 14229 7283)"><tspan class="TextParagraph" font-family="Latin Modern Roman" font-size="282px" font-weight="400"><tspan class="TextPosition" x="14229" y="7283"><tspan fill="rgb(0,0,0)" stroke="none">900 GJ</tspan></tspan></tspan></text>
</svg>