<?xml version="1.0" encoding="UTF-8" standalone="no"?>
<svg
   width="80mm"
   height="40mm"
   viewBox="0 0 8000 4000"
   version="1.1"
   stroke-width="28.222"
   stroke-linejoin="round"
   xml:space="preserve"
   id="svg255"
   sodipodi:docname="meino smit - energie - input - verhouding.svg"
   inkscape:version="1.1.2 (0a00cf5339, 2022-02-04)"
   xmlns:inkscape="http://www.inkscape.org/namespaces/inkscape"
   xmlns:sodipodi="http://sodipodi.sourceforge.net/DTD/sodipodi-0.dtd"
   xmlns="http://www.w3.org/2000/svg"
   xmlns:svg="http://www.w3.org/2000/svg"><sodipodi:namedview
   id="namedview257"
   pagecolor="#ffffff"
   bordercolor="#666666"
   borderopacity="1.0"
   inkscape:pageshadow="2"
   inkscape:pageopacity="0.0"
   inkscape:pagecheckerboard="0"
   inkscape:document-units="mm"
   showgrid="false"
   inkscape:zoom="3.912526"
   inkscape:cx="151.3089"
   inkscape:cy="75.654449"
   inkscape:window-width="1876"
   inkscape:window-height="1051"
   inkscape:window-x="0"
   inkscape:window-y="0"
   inkscape:window-maximized="1"
   inkscape:current-layer="svg255" />
 <path
   fill="rgb(255,255,255)"
   stroke="none"
   d="M 4000,4000 L 0,4000 0,0 8000,0 8000,4000 4000,4000 Z"
   id="path2" />
 <path
   fill="none"
   stroke="rgb(0,0,0)"
   stroke-linejoin="round"
   d="M 4000,4000 L 0,4000 0,0 8000,0 8000,4000 4000,4000 Z"
   id="path4" />
 <defs
   id="defs11">
  <linearGradient
   id="Gradient_3"
   gradientUnits="userSpaceOnUse"
   x1="4196"
   y1="252"
   x2="4196"
   y2="3028">
   <stop
   offset="0.3"
   stop-color="rgb(204,0,0)"
   id="stop6" />
   <stop
   offset="1"
   stop-color="rgb(0,153,0)"
   id="stop8" />
  </linearGradient>
 </defs>
 <path
   fill="url(#Gradient_3)"
   stroke="rgb(179,179,179)"
   stroke-linejoin="round"
   d="M 4196,3028 L 658,3028 658,252 7735,252 7735,3028 4196,3028 Z"
   id="path13" />
 <path
   fill="none"
   stroke="rgb(179,179,179)"
   stroke-linejoin="round"
   d="M 7734,3027 L 657,3027"
   id="path15" />
 <path
   fill="none"
   stroke="rgb(179,179,179)"
   stroke-linejoin="round"
   d="M 7734,2233 L 657,2233"
   id="path17" />
 <path
   fill="none"
   stroke="rgb(179,179,179)"
   stroke-linejoin="round"
   d="M 7734,1441 L 657,1441"
   id="path19" />
 <path
   fill="none"
   stroke="rgb(179,179,179)"
   stroke-linejoin="round"
   d="M 7734,647 L 657,647"
   id="path21" />
 <path
   fill="none"
   stroke="rgb(179,179,179)"
   stroke-linejoin="round"
   d="M 657,3177 L 657,3027"
   id="path23" />
 <path
   fill="none"
   stroke="rgb(179,179,179)"
   stroke-linejoin="round"
   d="M 657,3177 L 657,3027"
   id="path25" />
 <path
   fill="none"
   stroke="rgb(179,179,179)"
   stroke-linejoin="round"
   d="M 1746,3177 L 1746,3027"
   id="path27" />
 <path
   fill="none"
   stroke="rgb(179,179,179)"
   stroke-linejoin="round"
   d="M 1746,3177 L 1746,3027"
   id="path29" />
 <path
   fill="none"
   stroke="rgb(179,179,179)"
   stroke-linejoin="round"
   d="M 2835,3177 L 2835,3027"
   id="path31" />
 <path
   fill="none"
   stroke="rgb(179,179,179)"
   stroke-linejoin="round"
   d="M 2835,3177 L 2835,3027"
   id="path33" />
 <path
   fill="none"
   stroke="rgb(179,179,179)"
   stroke-linejoin="round"
   d="M 3924,3177 L 3924,3027"
   id="path35" />
 <path
   fill="none"
   stroke="rgb(179,179,179)"
   stroke-linejoin="round"
   d="M 3924,3177 L 3924,3027"
   id="path37" />
 <path
   fill="none"
   stroke="rgb(179,179,179)"
   stroke-linejoin="round"
   d="M 5012,3177 L 5012,3027"
   id="path39" />
 <path
   fill="none"
   stroke="rgb(179,179,179)"
   stroke-linejoin="round"
   d="M 5012,3177 L 5012,3027"
   id="path41" />
 <path
   fill="none"
   stroke="rgb(179,179,179)"
   stroke-linejoin="round"
   d="M 6101,3177 L 6101,3027"
   id="path43" />
 <path
   fill="none"
   stroke="rgb(179,179,179)"
   stroke-linejoin="round"
   d="M 6101,3177 L 6101,3027"
   id="path45" />
 <path
   fill="none"
   stroke="rgb(179,179,179)"
   stroke-linejoin="round"
   d="M 7190,3177 L 7190,3027"
   id="path47" />
 <path
   fill="none"
   stroke="rgb(179,179,179)"
   stroke-linejoin="round"
   d="M 7190,3177 L 7190,3027"
   id="path49" />
 <path
   fill="none"
   stroke="rgb(179,179,179)"
   stroke-linejoin="round"
   d="M 1202,3139 L 1202,3027"
   id="path51" />
 <path
   fill="none"
   stroke="rgb(179,179,179)"
   stroke-linejoin="round"
   d="M 1202,3139 L 1202,3027"
   id="path53" />
 <path
   fill="none"
   stroke="rgb(179,179,179)"
   stroke-linejoin="round"
   d="M 2291,3139 L 2291,3027"
   id="path55" />
 <path
   fill="none"
   stroke="rgb(179,179,179)"
   stroke-linejoin="round"
   d="M 2291,3139 L 2291,3027"
   id="path57" />
 <path
   fill="none"
   stroke="rgb(179,179,179)"
   stroke-linejoin="round"
   d="M 3380,3139 L 3380,3027"
   id="path59" />
 <path
   fill="none"
   stroke="rgb(179,179,179)"
   stroke-linejoin="round"
   d="M 3380,3139 L 3380,3027"
   id="path61" />
 <path
   fill="none"
   stroke="rgb(179,179,179)"
   stroke-linejoin="round"
   d="M 4468,3139 L 4468,3027"
   id="path63" />
 <path
   fill="none"
   stroke="rgb(179,179,179)"
   stroke-linejoin="round"
   d="M 4468,3139 L 4468,3027"
   id="path65" />
 <path
   fill="none"
   stroke="rgb(179,179,179)"
   stroke-linejoin="round"
   d="M 5557,3139 L 5557,3027"
   id="path67" />
 <path
   fill="none"
   stroke="rgb(179,179,179)"
   stroke-linejoin="round"
   d="M 5557,3139 L 5557,3027"
   id="path69" />
 <path
   fill="none"
   stroke="rgb(179,179,179)"
   stroke-linejoin="round"
   d="M 6646,3139 L 6646,3027"
   id="path71" />
 <path
   fill="none"
   stroke="rgb(179,179,179)"
   stroke-linejoin="round"
   d="M 6646,3139 L 6646,3027"
   id="path73" />
 <path
   fill="none"
   stroke="rgb(179,179,179)"
   stroke-linejoin="round"
   d="M 7734,3139 L 7734,3027"
   id="path75" />
 <path
   fill="none"
   stroke="rgb(179,179,179)"
   stroke-linejoin="round"
   d="M 7734,3139 L 7734,3027"
   id="path77" />
 <path
   fill="none"
   stroke="rgb(179,179,179)"
   stroke-linejoin="round"
   d="M 657,3027 L 7734,3027"
   id="path79" />
 <path
   fill="none"
   stroke="rgb(179,179,179)"
   stroke-linejoin="round"
   d="M 507,3027 L 657,3027"
   id="path81" />
 <path
   fill="none"
   stroke="rgb(179,179,179)"
   stroke-linejoin="round"
   d="M 507,3027 L 657,3027"
   id="path83" />
 <path
   fill="none"
   stroke="rgb(179,179,179)"
   stroke-linejoin="round"
   d="M 507,2233 L 657,2233"
   id="path85" />
 <path
   fill="none"
   stroke="rgb(179,179,179)"
   stroke-linejoin="round"
   d="M 507,2233 L 657,2233"
   id="path87" />
 <path
   fill="none"
   stroke="rgb(179,179,179)"
   stroke-linejoin="round"
   d="M 507,1441 L 657,1441"
   id="path89" />
 <path
   fill="none"
   stroke="rgb(179,179,179)"
   stroke-linejoin="round"
   d="M 507,1441 L 657,1441"
   id="path91" />
 <path
   fill="none"
   stroke="rgb(179,179,179)"
   stroke-linejoin="round"
   d="M 507,647 L 657,647"
   id="path93" />
 <path
   fill="none"
   stroke="rgb(179,179,179)"
   stroke-linejoin="round"
   d="M 507,647 L 657,647"
   id="path95" />
 <path
   fill="none"
   stroke="rgb(179,179,179)"
   stroke-linejoin="round"
   d="M 657,3027 L 657,251"
   id="path97" />
 <path
   fill="none"
   stroke="rgb(255,211,32)"
   stroke-width="80"
   stroke-linejoin="round"
   d="M 657,2262 L 1202,2387 1746,2526 2291,2576 2835,2544 3380,2403 3924,2301 4468,2197 5012,2126 5557,2156 6101,2170 6646,2120 7190,2131 7734,2035"
   id="path99"
   style="stroke-width:49.99999862;stroke-miterlimit:4;stroke-dasharray:none" />
 <path
   fill="rgb(255,211,32)"
   stroke="none"
   d="M 532,2137 L 657,2387 782,2137 532,2137 Z"
   id="path101" />
 <path
   fill="none"
   stroke="rgb(255,211,32)"
   stroke-linejoin="round"
   d="M 532,2137 L 657,2387 782,2137 532,2137 Z"
   id="path103" />
 <path
   fill="rgb(255,211,32)"
   stroke="none"
   d="M 1077,2262 L 1202,2512 1327,2262 1077,2262 Z"
   id="path105" />
 <path
   fill="none"
   stroke="rgb(255,211,32)"
   stroke-linejoin="round"
   d="M 1077,2262 L 1202,2512 1327,2262 1077,2262 Z"
   id="path107" />
 <path
   fill="rgb(255,211,32)"
   stroke="none"
   d="M 1621,2401 L 1746,2651 1871,2401 1621,2401 Z"
   id="path109" />
 <path
   fill="none"
   stroke="rgb(255,211,32)"
   stroke-linejoin="round"
   d="M 1621,2401 L 1746,2651 1871,2401 1621,2401 Z"
   id="path111" />
 <path
   fill="rgb(255,211,32)"
   stroke="none"
   d="M 2166,2451 L 2291,2701 2416,2451 2166,2451 Z"
   id="path113" />
 <path
   fill="none"
   stroke="rgb(255,211,32)"
   stroke-linejoin="round"
   d="M 2166,2451 L 2291,2701 2416,2451 2166,2451 Z"
   id="path115" />
 <path
   fill="rgb(255,211,32)"
   stroke="none"
   d="M 2710,2419 L 2835,2669 2960,2419 2710,2419 Z"
   id="path117" />
 <path
   fill="none"
   stroke="rgb(255,211,32)"
   stroke-linejoin="round"
   d="M 2710,2419 L 2835,2669 2960,2419 2710,2419 Z"
   id="path119" />
 <path
   fill="rgb(255,211,32)"
   stroke="none"
   d="M 3255,2278 L 3380,2528 3505,2278 3255,2278 Z"
   id="path121" />
 <path
   fill="none"
   stroke="rgb(255,211,32)"
   stroke-linejoin="round"
   d="M 3255,2278 L 3380,2528 3505,2278 3255,2278 Z"
   id="path123" />
 <path
   fill="rgb(255,211,32)"
   stroke="none"
   d="M 3799,2176 L 3924,2426 4048,2176 3799,2176 Z"
   id="path125" />
 <path
   fill="none"
   stroke="rgb(255,211,32)"
   stroke-linejoin="round"
   d="M 3799,2176 L 3924,2426 4048,2176 3799,2176 Z"
   id="path127" />
 <path
   fill="rgb(255,211,32)"
   stroke="none"
   d="M 4343,2072 L 4468,2322 4593,2072 4343,2072 Z"
   id="path129" />
 <path
   fill="none"
   stroke="rgb(255,211,32)"
   stroke-linejoin="round"
   d="M 4343,2072 L 4468,2322 4593,2072 4343,2072 Z"
   id="path131" />
 <path
   fill="rgb(255,211,32)"
   stroke="none"
   d="M 4887,2001 L 5012,2251 5137,2001 4887,2001 Z"
   id="path133" />
 <path
   fill="none"
   stroke="rgb(255,211,32)"
   stroke-linejoin="round"
   d="M 4887,2001 L 5012,2251 5137,2001 4887,2001 Z"
   id="path135" />
 <path
   fill="rgb(255,211,32)"
   stroke="none"
   d="M 5432,2031 L 5557,2281 5682,2031 5432,2031 Z"
   id="path137" />
 <path
   fill="none"
   stroke="rgb(255,211,32)"
   stroke-linejoin="round"
   d="M 5432,2031 L 5557,2281 5682,2031 5432,2031 Z"
   id="path139" />
 <path
   fill="rgb(255,211,32)"
   stroke="none"
   d="M 5976,2045 L 6101,2295 6226,2045 5976,2045 Z"
   id="path141" />
 <path
   fill="none"
   stroke="rgb(255,211,32)"
   stroke-linejoin="round"
   d="M 5976,2045 L 6101,2295 6226,2045 5976,2045 Z"
   id="path143" />
 <path
   fill="rgb(255,211,32)"
   stroke="none"
   d="M 6521,1996 L 6646,2245 6771,1996 6521,1996 Z"
   id="path145" />
 <path
   fill="none"
   stroke="rgb(255,211,32)"
   stroke-linejoin="round"
   d="M 6521,1996 L 6646,2245 6771,1996 6521,1996 Z"
   id="path147" />
 <path
   fill="rgb(255,211,32)"
   stroke="none"
   d="M 7065,2006 L 7190,2256 7315,2006 7065,2006 Z"
   id="path149" />
 <path
   fill="none"
   stroke="rgb(255,211,32)"
   stroke-linejoin="round"
   d="M 7065,2006 L 7190,2256 7315,2006 7065,2006 Z"
   id="path151" />
 <path
   fill="rgb(255,211,32)"
   stroke="none"
   d="M 7609,1911 L 7734,2160 7859,1911 7609,1911 Z"
   id="path153" />
 <path
   fill="none"
   stroke="rgb(255,211,32)"
   stroke-linejoin="round"
   d="M 7609,1911 L 7734,2160 7859,1911 7609,1911 Z"
   id="path155" />
 <text
   class="SVGTextShape"
   transform="rotate(1.9 653 3672)"
   id="text163"><tspan
     class="TextParagraph"
     font-family="Latin Modern Roman"
     font-size="353px"
     font-weight="400"
     id="tspan161"><tspan
       class="TextPosition"
       x="653"
       y="3672"
       id="tspan159"><tspan
         fill="rgb(0,0,0)"
         stroke="none"
         id="tspan157">1950</tspan></tspan></tspan></text>
 <text
   class="SVGTextShape"
   transform="rotate(1.9 1742 3672)"
   id="text171"><tspan
     class="TextParagraph"
     font-family="Latin Modern Roman"
     font-size="353px"
     font-weight="400"
     id="tspan169"><tspan
       class="TextPosition"
       x="1742"
       y="3672"
       id="tspan167"><tspan
         fill="rgb(0,0,0)"
         stroke="none"
         id="tspan165">1960</tspan></tspan></tspan></text>
 <text
   class="SVGTextShape"
   transform="rotate(1.9 2830 3672)"
   id="text179"><tspan
     class="TextParagraph"
     font-family="Latin Modern Roman"
     font-size="353px"
     font-weight="400"
     id="tspan177"><tspan
       class="TextPosition"
       x="2830"
       y="3672"
       id="tspan175"><tspan
         fill="rgb(0,0,0)"
         stroke="none"
         id="tspan173">1970</tspan></tspan></tspan></text>
 <text
   class="SVGTextShape"
   transform="rotate(1.9 3919 3672)"
   id="text187"><tspan
     class="TextParagraph"
     font-family="Latin Modern Roman"
     font-size="353px"
     font-weight="400"
     id="tspan185"><tspan
       class="TextPosition"
       x="3919"
       y="3672"
       id="tspan183"><tspan
         fill="rgb(0,0,0)"
         stroke="none"
         id="tspan181">1980</tspan></tspan></tspan></text>
 <text
   class="SVGTextShape"
   transform="rotate(1.9 5008 3672)"
   id="text195"><tspan
     class="TextParagraph"
     font-family="Latin Modern Roman"
     font-size="353px"
     font-weight="400"
     id="tspan193"><tspan
       class="TextPosition"
       x="5008"
       y="3672"
       id="tspan191"><tspan
         fill="rgb(0,0,0)"
         stroke="none"
         id="tspan189">1990</tspan></tspan></tspan></text>
 <text
   class="SVGTextShape"
   transform="rotate(1.9 6097 3672)"
   id="text203"><tspan
     class="TextParagraph"
     font-family="Latin Modern Roman"
     font-size="353px"
     font-weight="400"
     id="tspan201"><tspan
       class="TextPosition"
       x="6097"
       y="3672"
       id="tspan199"><tspan
         fill="rgb(0,0,0)"
         stroke="none"
         id="tspan197">2000</tspan></tspan></tspan></text>
 <text
   class="SVGTextShape"
   transform="rotate(1.9 7185 3672)"
   id="text211"><tspan
     class="TextParagraph"
     font-family="Latin Modern Roman"
     font-size="353px"
     font-weight="400"
     id="tspan209"><tspan
       class="TextPosition"
       x="7185"
       y="3672"
       id="tspan207"><tspan
         fill="rgb(0,0,0)"
         stroke="none"
         id="tspan205">2010</tspan></tspan></tspan></text>
 <text
   class="SVGTextShape"
   id="text219"><tspan
     class="TextParagraph"
     font-family="Latin Modern Roman"
     font-size="353px"
     font-weight="400"
     id="tspan217"><tspan
       class="TextPosition"
       x="222"
       y="3173"
       id="tspan215"><tspan
         fill="rgb(0,0,0)"
         stroke="none"
         id="tspan213">0</tspan></tspan></tspan></text>
 <text
   class="SVGTextShape"
   id="text227"><tspan
     class="TextParagraph"
     font-family="Latin Modern Roman"
     font-size="353px"
     font-weight="400"
     id="tspan225"><tspan
       class="TextPosition"
       x="222"
       y="2380"
       id="tspan223"><tspan
         fill="rgb(0,0,0)"
         stroke="none"
         id="tspan221">1</tspan></tspan></tspan></text>
 <text
   class="SVGTextShape"
   id="text235"><tspan
     class="TextParagraph"
     font-family="Latin Modern Roman"
     font-size="353px"
     font-weight="400"
     id="tspan233"><tspan
       class="TextPosition"
       x="222"
       y="1587"
       id="tspan231"><tspan
         fill="rgb(0,0,0)"
         stroke="none"
         id="tspan229">2</tspan></tspan></tspan></text>
 <text
   class="SVGTextShape"
   id="text243"><tspan
     class="TextParagraph"
     font-family="Latin Modern Roman"
     font-size="353px"
     font-weight="400"
     id="tspan241"><tspan
       class="TextPosition"
       x="222"
       y="794"
       id="tspan239"><tspan
         fill="rgb(0,0,0)"
         stroke="none"
         id="tspan237">3</tspan></tspan></tspan></text>
 <path
   fill="rgb(255,255,255)"
   fill-opacity="0.698"
   stroke="rgb(255,255,255)"
   stroke-opacity="0.698"
   d="M 1958,1107 L 781,1107 781,391 3134,391 3134,1107 1958,1107 Z"
   id="path245" />
 <text
   class="SVGTextShape"
   id="text253"><tspan
     class="TextParagraph"
     font-family="Latin Modern Roman"
     font-size="353px"
     font-weight="400"
     id="tspan251"><tspan
       class="TextPosition"
       x="846"
       y="895"
       id="tspan249"><tspan
         fill="rgb(0,0,0)"
         stroke="none"
         id="tspan247">indirect/direct</tspan></tspan></tspan></text>
</svg>
