<?xml version="1.0" encoding="UTF-8"?>
<!DOCTYPE svg PUBLIC "-//W3C//DTD SVG 1.1//EN" "http://www.w3.org/Graphics/SVG/1.1/DTD/svg11.dtd">
<svg width="150mm" height="75mm" viewBox="0 0 15000 7500" version="1.1" xmlns="http://www.w3.org/2000/svg" xmlns:xlink="http://www.w3.org/1999/xlink" stroke-width="28.222" stroke-linejoin="round" xml:space="preserve">
 <path fill="rgb(255,255,255)" stroke="none" d="M 7500,7500 L 0,7500 0,0 15000,0 15000,7500 7500,7500 Z"/>
 <path fill="none" stroke="rgb(179,179,179)" stroke-linejoin="round" d="M 8505,6281 L 2321,6281 2321,489 14689,489 14689,6281 8505,6281 Z"/>
 <path fill="none" stroke="rgb(179,179,179)" stroke-linejoin="round" d="M 14689,6280 L 2321,6280"/>
 <path fill="none" stroke="rgb(179,179,179)" stroke-linejoin="round" d="M 14689,5121 L 2321,5121"/>
 <path fill="none" stroke="rgb(179,179,179)" stroke-linejoin="round" d="M 14689,3962 L 2321,3962"/>
 <path fill="none" stroke="rgb(179,179,179)" stroke-linejoin="round" d="M 14689,2805 L 2321,2805"/>
 <path fill="none" stroke="rgb(179,179,179)" stroke-linejoin="round" d="M 14689,1646 L 2321,1646"/>
 <path fill="none" stroke="rgb(179,179,179)" stroke-linejoin="round" d="M 14689,487 L 2321,487"/>
 <path fill="none" stroke="rgb(179,179,179)" stroke-linejoin="round" d="M 2321,6430 L 2321,6280"/>
 <path fill="none" stroke="rgb(179,179,179)" stroke-linejoin="round" d="M 2321,6430 L 2321,6280"/>
 <path fill="none" stroke="rgb(179,179,179)" stroke-linejoin="round" d="M 3272,6430 L 3272,6280"/>
 <path fill="none" stroke="rgb(179,179,179)" stroke-linejoin="round" d="M 3272,6430 L 3272,6280"/>
 <path fill="none" stroke="rgb(179,179,179)" stroke-linejoin="round" d="M 4223,6430 L 4223,6280"/>
 <path fill="none" stroke="rgb(179,179,179)" stroke-linejoin="round" d="M 4223,6430 L 4223,6280"/>
 <path fill="none" stroke="rgb(179,179,179)" stroke-linejoin="round" d="M 5175,6430 L 5175,6280"/>
 <path fill="none" stroke="rgb(179,179,179)" stroke-linejoin="round" d="M 5175,6430 L 5175,6280"/>
 <path fill="none" stroke="rgb(179,179,179)" stroke-linejoin="round" d="M 6126,6430 L 6126,6280"/>
 <path fill="none" stroke="rgb(179,179,179)" stroke-linejoin="round" d="M 6126,6430 L 6126,6280"/>
 <path fill="none" stroke="rgb(179,179,179)" stroke-linejoin="round" d="M 7078,6430 L 7078,6280"/>
 <path fill="none" stroke="rgb(179,179,179)" stroke-linejoin="round" d="M 7078,6430 L 7078,6280"/>
 <path fill="none" stroke="rgb(179,179,179)" stroke-linejoin="round" d="M 8028,6430 L 8028,6280"/>
 <path fill="none" stroke="rgb(179,179,179)" stroke-linejoin="round" d="M 8028,6430 L 8028,6280"/>
 <path fill="none" stroke="rgb(179,179,179)" stroke-linejoin="round" d="M 8980,6430 L 8980,6280"/>
 <path fill="none" stroke="rgb(179,179,179)" stroke-linejoin="round" d="M 8980,6430 L 8980,6280"/>
 <path fill="none" stroke="rgb(179,179,179)" stroke-linejoin="round" d="M 9931,6430 L 9931,6280"/>
 <path fill="none" stroke="rgb(179,179,179)" stroke-linejoin="round" d="M 9931,6430 L 9931,6280"/>
 <path fill="none" stroke="rgb(179,179,179)" stroke-linejoin="round" d="M 10883,6430 L 10883,6280"/>
 <path fill="none" stroke="rgb(179,179,179)" stroke-linejoin="round" d="M 10883,6430 L 10883,6280"/>
 <path fill="none" stroke="rgb(179,179,179)" stroke-linejoin="round" d="M 11834,6430 L 11834,6280"/>
 <path fill="none" stroke="rgb(179,179,179)" stroke-linejoin="round" d="M 11834,6430 L 11834,6280"/>
 <path fill="none" stroke="rgb(179,179,179)" stroke-linejoin="round" d="M 12786,6430 L 12786,6280"/>
 <path fill="none" stroke="rgb(179,179,179)" stroke-linejoin="round" d="M 12786,6430 L 12786,6280"/>
 <path fill="none" stroke="rgb(179,179,179)" stroke-linejoin="round" d="M 13737,6430 L 13737,6280"/>
 <path fill="none" stroke="rgb(179,179,179)" stroke-linejoin="round" d="M 13737,6430 L 13737,6280"/>
 <path fill="none" stroke="rgb(179,179,179)" stroke-linejoin="round" d="M 14689,6430 L 14689,6280"/>
 <path fill="none" stroke="rgb(179,179,179)" stroke-linejoin="round" d="M 14689,6430 L 14689,6280"/>
 <path fill="none" stroke="rgb(179,179,179)" stroke-linejoin="round" d="M 2321,6280 L 14689,6280"/>
 <path fill="none" stroke="rgb(179,179,179)" stroke-linejoin="round" d="M 2171,6280 L 2321,6280"/>
 <path fill="none" stroke="rgb(179,179,179)" stroke-linejoin="round" d="M 2171,6280 L 2321,6280"/>
 <path fill="none" stroke="rgb(179,179,179)" stroke-linejoin="round" d="M 2171,5121 L 2321,5121"/>
 <path fill="none" stroke="rgb(179,179,179)" stroke-linejoin="round" d="M 2171,5121 L 2321,5121"/>
 <path fill="none" stroke="rgb(179,179,179)" stroke-linejoin="round" d="M 2171,3962 L 2321,3962"/>
 <path fill="none" stroke="rgb(179,179,179)" stroke-linejoin="round" d="M 2171,3962 L 2321,3962"/>
 <path fill="none" stroke="rgb(179,179,179)" stroke-linejoin="round" d="M 2171,2805 L 2321,2805"/>
 <path fill="none" stroke="rgb(179,179,179)" stroke-linejoin="round" d="M 2171,2805 L 2321,2805"/>
 <path fill="none" stroke="rgb(179,179,179)" stroke-linejoin="round" d="M 2171,1646 L 2321,1646"/>
 <path fill="none" stroke="rgb(179,179,179)" stroke-linejoin="round" d="M 2171,1646 L 2321,1646"/>
 <path fill="none" stroke="rgb(179,179,179)" stroke-linejoin="round" d="M 2171,487 L 2321,487"/>
 <path fill="none" stroke="rgb(179,179,179)" stroke-linejoin="round" d="M 2171,487 L 2321,487"/>
 <path fill="none" stroke="rgb(179,179,179)" stroke-linejoin="round" d="M 2321,6280 L 2321,487"/>
 <path fill="none" stroke="rgb(255,212,40)" stroke-width="80" stroke-linejoin="round" d="M 2321,1414 L 14689,1414"/>
 <path fill="none" stroke="rgb(232,162,2)" stroke-width="80" stroke-linejoin="round" d="M 2321,3036 L 14689,3036"/>
 <path fill="none" stroke="rgb(0,69,134)" stroke-width="50" stroke-linejoin="round" d="M 2321,880 L 3272,1260 4223,1549 5175,1971 6126,2428 7078,2720 8028,2965 8980,3048 9931,3148 10883,3308 11834,3399 12786,3503 13737,3670 14689,3755"/>
 <path fill="rgb(0,69,134)" stroke="none" d="M 2196,755 L 2196,1005 2446,1005 2446,755 2196,755 Z"/>
 <path fill="none" stroke="rgb(0,69,134)" stroke-linejoin="round" d="M 2196,755 L 2196,1005 2446,1005 2446,755 2196,755 Z"/>
 <path fill="rgb(0,69,134)" stroke="none" d="M 3147,1135 L 3147,1385 3397,1385 3397,1135 3147,1135 Z"/>
 <path fill="none" stroke="rgb(0,69,134)" stroke-linejoin="round" d="M 3147,1135 L 3147,1385 3397,1385 3397,1135 3147,1135 Z"/>
 <path fill="rgb(0,69,134)" stroke="none" d="M 4098,1424 L 4098,1674 4348,1674 4348,1424 4098,1424 Z"/>
 <path fill="none" stroke="rgb(0,69,134)" stroke-linejoin="round" d="M 4098,1424 L 4098,1674 4348,1674 4348,1424 4098,1424 Z"/>
 <path fill="rgb(0,69,134)" stroke="none" d="M 5050,1846 L 5050,2096 5300,2096 5300,1846 5050,1846 Z"/>
 <path fill="none" stroke="rgb(0,69,134)" stroke-linejoin="round" d="M 5050,1846 L 5050,2096 5300,2096 5300,1846 5050,1846 Z"/>
 <path fill="rgb(0,69,134)" stroke="none" d="M 6001,2303 L 6001,2553 6251,2553 6251,2303 6001,2303 Z"/>
 <path fill="none" stroke="rgb(0,69,134)" stroke-linejoin="round" d="M 6001,2303 L 6001,2553 6251,2553 6251,2303 6001,2303 Z"/>
 <path fill="rgb(0,69,134)" stroke="none" d="M 6953,2595 L 6953,2845 7203,2845 7203,2595 6953,2595 Z"/>
 <path fill="none" stroke="rgb(0,69,134)" stroke-linejoin="round" d="M 6953,2595 L 6953,2845 7203,2845 7203,2595 6953,2595 Z"/>
 <path fill="rgb(0,69,134)" stroke="none" d="M 7903,2840 L 7903,3090 8153,3090 8153,2840 7903,2840 Z"/>
 <path fill="none" stroke="rgb(0,69,134)" stroke-linejoin="round" d="M 7903,2840 L 7903,3090 8153,3090 8153,2840 7903,2840 Z"/>
 <path fill="rgb(0,69,134)" stroke="none" d="M 8855,2923 L 8855,3173 9105,3173 9105,2923 8855,2923 Z"/>
 <path fill="none" stroke="rgb(0,69,134)" stroke-linejoin="round" d="M 8855,2923 L 8855,3173 9105,3173 9105,2923 8855,2923 Z"/>
 <path fill="rgb(0,69,134)" stroke="none" d="M 9806,3023 L 9806,3273 10056,3273 10056,3023 9806,3023 Z"/>
 <path fill="none" stroke="rgb(0,69,134)" stroke-linejoin="round" d="M 9806,3023 L 9806,3273 10056,3273 10056,3023 9806,3023 Z"/>
 <path fill="rgb(0,69,134)" stroke="none" d="M 10758,3183 L 10758,3433 11008,3433 11008,3183 10758,3183 Z"/>
 <path fill="none" stroke="rgb(0,69,134)" stroke-linejoin="round" d="M 10758,3183 L 10758,3433 11008,3433 11008,3183 10758,3183 Z"/>
 <path fill="rgb(0,69,134)" stroke="none" d="M 11709,3274 L 11709,3524 11959,3524 11959,3274 11709,3274 Z"/>
 <path fill="none" stroke="rgb(0,69,134)" stroke-linejoin="round" d="M 11709,3274 L 11709,3524 11959,3524 11959,3274 11709,3274 Z"/>
 <path fill="rgb(0,69,134)" stroke="none" d="M 12661,3378 L 12661,3628 12911,3628 12911,3378 12661,3378 Z"/>
 <path fill="none" stroke="rgb(0,69,134)" stroke-linejoin="round" d="M 12661,3378 L 12661,3628 12911,3628 12911,3378 12661,3378 Z"/>
 <path fill="rgb(0,69,134)" stroke="none" d="M 13612,3545 L 13612,3794 13862,3794 13862,3545 13612,3545 Z"/>
 <path fill="none" stroke="rgb(0,69,134)" stroke-linejoin="round" d="M 13612,3545 L 13612,3794 13862,3794 13862,3545 13612,3545 Z"/>
 <path fill="rgb(0,69,134)" stroke="none" d="M 14564,3631 L 14564,3880 14814,3880 14814,3631 14564,3631 Z"/>
 <path fill="none" stroke="rgb(0,69,134)" stroke-linejoin="round" d="M 14564,3631 L 14564,3880 14814,3880 14814,3631 14564,3631 Z"/>
 <text class="SVGTextShape" transform="rotate(-44.9 1955 7205)"><tspan class="TextParagraph" font-family="Latin Modern Roman" font-size="282px" font-weight="400"><tspan class="TextPosition" x="1955" y="7205"><tspan fill="rgb(0,0,0)" stroke="none">1950</tspan></tspan></tspan></text>
 <text class="SVGTextShape" transform="rotate(-44.9 2906 7205)"><tspan class="TextParagraph" font-family="Latin Modern Roman" font-size="282px" font-weight="400"><tspan class="TextPosition" x="2906" y="7205"><tspan fill="rgb(0,0,0)" stroke="none">1955</tspan></tspan></tspan></text>
 <text class="SVGTextShape" transform="rotate(-44.9 3857 7205)"><tspan class="TextParagraph" font-family="Latin Modern Roman" font-size="282px" font-weight="400"><tspan class="TextPosition" x="3857" y="7205"><tspan fill="rgb(0,0,0)" stroke="none">1960</tspan></tspan></tspan></text>
 <text class="SVGTextShape" transform="rotate(-44.9 4809 7205)"><tspan class="TextParagraph" font-family="Latin Modern Roman" font-size="282px" font-weight="400"><tspan class="TextPosition" x="4809" y="7205"><tspan fill="rgb(0,0,0)" stroke="none">1965</tspan></tspan></tspan></text>
 <text class="SVGTextShape" transform="rotate(-44.9 5760 7205)"><tspan class="TextParagraph" font-family="Latin Modern Roman" font-size="282px" font-weight="400"><tspan class="TextPosition" x="5760" y="7205"><tspan fill="rgb(0,0,0)" stroke="none">1970</tspan></tspan></tspan></text>
 <text class="SVGTextShape" transform="rotate(-44.9 6712 7205)"><tspan class="TextParagraph" font-family="Latin Modern Roman" font-size="282px" font-weight="400"><tspan class="TextPosition" x="6712" y="7205"><tspan fill="rgb(0,0,0)" stroke="none">1975</tspan></tspan></tspan></text>
 <text class="SVGTextShape" transform="rotate(-44.9 7663 7205)"><tspan class="TextParagraph" font-family="Latin Modern Roman" font-size="282px" font-weight="400"><tspan class="TextPosition" x="7663" y="7205"><tspan fill="rgb(0,0,0)" stroke="none">1980</tspan></tspan></tspan></text>
 <text class="SVGTextShape" transform="rotate(-44.9 8615 7205)"><tspan class="TextParagraph" font-family="Latin Modern Roman" font-size="282px" font-weight="400"><tspan class="TextPosition" x="8615" y="7205"><tspan fill="rgb(0,0,0)" stroke="none">1985</tspan></tspan></tspan></text>
 <text class="SVGTextShape" transform="rotate(-44.9 9566 7205)"><tspan class="TextParagraph" font-family="Latin Modern Roman" font-size="282px" font-weight="400"><tspan class="TextPosition" x="9566" y="7205"><tspan fill="rgb(0,0,0)" stroke="none">1990</tspan></tspan></tspan></text>
 <text class="SVGTextShape" transform="rotate(-44.9 10518 7205)"><tspan class="TextParagraph" font-family="Latin Modern Roman" font-size="282px" font-weight="400"><tspan class="TextPosition" x="10518" y="7205"><tspan fill="rgb(0,0,0)" stroke="none">1995</tspan></tspan></tspan></text>
 <text class="SVGTextShape" transform="rotate(-44.9 11468 7205)"><tspan class="TextParagraph" font-family="Latin Modern Roman" font-size="282px" font-weight="400"><tspan class="TextPosition" x="11468" y="7205"><tspan fill="rgb(0,0,0)" stroke="none">2000</tspan></tspan></tspan></text>
 <text class="SVGTextShape" transform="rotate(-44.9 12420 7205)"><tspan class="TextParagraph" font-family="Latin Modern Roman" font-size="282px" font-weight="400"><tspan class="TextPosition" x="12420" y="7205"><tspan fill="rgb(0,0,0)" stroke="none">2005</tspan></tspan></tspan></text>
 <text class="SVGTextShape" transform="rotate(-44.9 13371 7205)"><tspan class="TextParagraph" font-family="Latin Modern Roman" font-size="282px" font-weight="400"><tspan class="TextPosition" x="13371" y="7205"><tspan fill="rgb(0,0,0)" stroke="none">2010</tspan></tspan></tspan></text>
 <text class="SVGTextShape" transform="rotate(-44.9 14323 7205)"><tspan class="TextParagraph" font-family="Latin Modern Roman" font-size="282px" font-weight="400"><tspan class="TextPosition" x="14323" y="7205"><tspan fill="rgb(0,0,0)" stroke="none">2015</tspan></tspan></tspan></text>
 <text class="SVGTextShape"><tspan class="TextParagraph" font-family="Latin Modern Roman" font-size="282px" font-weight="400"><tspan class="TextPosition" x="748" y="6401"><tspan fill="rgb(0,0,0)" stroke="none">0 are/pers</tspan></tspan></tspan></text>
 <text class="SVGTextShape"><tspan class="TextParagraph" font-family="Latin Modern Roman" font-size="282px" font-weight="400"><tspan class="TextPosition" x="748" y="5242"><tspan fill="rgb(0,0,0)" stroke="none">5 are/pers</tspan></tspan></tspan></text>
 <text class="SVGTextShape"><tspan class="TextParagraph" font-family="Latin Modern Roman" font-size="282px" font-weight="400"><tspan class="TextPosition" x="589" y="4083"><tspan fill="rgb(0,0,0)" stroke="none">10 are/pers</tspan></tspan></tspan></text>
 <text class="SVGTextShape"><tspan class="TextParagraph" font-family="Latin Modern Roman" font-size="282px" font-weight="400"><tspan class="TextPosition" x="589" y="2925"><tspan fill="rgb(0,0,0)" stroke="none">15 are/pers</tspan></tspan></tspan></text>
 <text class="SVGTextShape"><tspan class="TextParagraph" font-family="Latin Modern Roman" font-size="282px" font-weight="400"><tspan class="TextPosition" x="589" y="1766"><tspan fill="rgb(0,0,0)" stroke="none">20 are/pers</tspan></tspan></tspan></text>
 <text class="SVGTextShape"><tspan class="TextParagraph" font-family="Latin Modern Roman" font-size="282px" font-weight="400"><tspan class="TextPosition" x="589" y="607"><tspan fill="rgb(0,0,0)" stroke="none">25 are/pers</tspan></tspan></tspan></text>
</svg>