<?xml version="1.0" encoding="UTF-8" standalone="no"?>
<svg
   width="300mm"
   height="150mm"
   viewBox="0 0 30000 15000"
   version="1.1"
   stroke-width="28.222"
   stroke-linejoin="round"
   xml:space="preserve"
   id="svg502"
   sodipodi:docname="meino smit - arbeid - alles.svg"
   inkscape:version="1.1.2 (0a00cf5339, 2022-02-04)"
   xmlns:inkscape="http://www.inkscape.org/namespaces/inkscape"
   xmlns:sodipodi="http://sodipodi.sourceforge.net/DTD/sodipodi-0.dtd"
   xmlns="http://www.w3.org/2000/svg"
   xmlns:svg="http://www.w3.org/2000/svg"><defs
   id="defs506" /><sodipodi:namedview
   id="namedview504"
   pagecolor="#ffffff"
   bordercolor="#666666"
   borderopacity="1.0"
   inkscape:pageshadow="2"
   inkscape:pageopacity="0.0"
   inkscape:pagecheckerboard="0"
   inkscape:document-units="mm"
   showgrid="false"
   inkscape:zoom="1.0433403"
   inkscape:cx="566.4499"
   inkscape:cy="283.70418"
   inkscape:window-width="1876"
   inkscape:window-height="1051"
   inkscape:window-x="0"
   inkscape:window-y="0"
   inkscape:window-maximized="1"
   inkscape:current-layer="svg502" />
 <path
   fill="rgb(255,255,255)"
   stroke="none"
   d="M 15000,15000 L 0,15000 0,0 30000,0 30000,15000 15000,15000 Z"
   id="path2" />
 <path
   fill="none"
   stroke="rgb(179,179,179)"
   stroke-linejoin="round"
   d="M 12705,13215 L 4132,13215 4132,699 21277,699 21277,13215 12705,13215 Z"
   id="path4" />
 <path
   fill="none"
   stroke="rgb(179,179,179)"
   stroke-linejoin="round"
   d="M 21277,13214 L 4132,13214"
   id="path6" />
 <path
   fill="none"
   stroke="rgb(179,179,179)"
   stroke-linejoin="round"
   d="M 21277,11425 L 4132,11425"
   id="path8" />
 <path
   fill="none"
   stroke="rgb(179,179,179)"
   stroke-linejoin="round"
   d="M 21277,9637 L 4132,9637"
   id="path10" />
 <path
   fill="none"
   stroke="rgb(179,179,179)"
   stroke-linejoin="round"
   d="M 21277,7849 L 4132,7849"
   id="path12" />
 <path
   fill="none"
   stroke="rgb(179,179,179)"
   stroke-linejoin="round"
   d="M 21277,6062 L 4132,6062"
   id="path14" />
 <path
   fill="none"
   stroke="rgb(179,179,179)"
   stroke-linejoin="round"
   d="M 21277,4274 L 4132,4274"
   id="path16" />
 <path
   fill="none"
   stroke="rgb(179,179,179)"
   stroke-linejoin="round"
   d="M 21277,2486 L 4132,2486"
   id="path18" />
 <path
   fill="none"
   stroke="rgb(179,179,179)"
   stroke-linejoin="round"
   d="M 21277,698 L 4132,698"
   id="path20" />
 <path
   fill="none"
   stroke="rgb(179,179,179)"
   stroke-linejoin="round"
   d="M 4132,13214 L 21277,13214"
   id="path22" />
 <path
   fill="none"
   stroke="rgb(179,179,179)"
   stroke-linejoin="round"
   d="M 3982,13214 L 4132,13214"
   id="path24" />
 <path
   fill="none"
   stroke="rgb(179,179,179)"
   stroke-linejoin="round"
   d="M 3982,13214 L 4132,13214"
   id="path26" />
 <path
   fill="none"
   stroke="rgb(179,179,179)"
   stroke-linejoin="round"
   d="M 3982,11425 L 4132,11425"
   id="path28" />
 <path
   fill="none"
   stroke="rgb(179,179,179)"
   stroke-linejoin="round"
   d="M 3982,11425 L 4132,11425"
   id="path30" />
 <path
   fill="none"
   stroke="rgb(179,179,179)"
   stroke-linejoin="round"
   d="M 3982,9637 L 4132,9637"
   id="path32" />
 <path
   fill="none"
   stroke="rgb(179,179,179)"
   stroke-linejoin="round"
   d="M 3982,9637 L 4132,9637"
   id="path34" />
 <path
   fill="none"
   stroke="rgb(179,179,179)"
   stroke-linejoin="round"
   d="M 3982,7849 L 4132,7849"
   id="path36" />
 <path
   fill="none"
   stroke="rgb(179,179,179)"
   stroke-linejoin="round"
   d="M 3982,7849 L 4132,7849"
   id="path38" />
 <path
   fill="none"
   stroke="rgb(179,179,179)"
   stroke-linejoin="round"
   d="M 3982,6062 L 4132,6062"
   id="path40" />
 <path
   fill="none"
   stroke="rgb(179,179,179)"
   stroke-linejoin="round"
   d="M 3982,6062 L 4132,6062"
   id="path42" />
 <path
   fill="none"
   stroke="rgb(179,179,179)"
   stroke-linejoin="round"
   d="M 3982,4274 L 4132,4274"
   id="path44" />
 <path
   fill="none"
   stroke="rgb(179,179,179)"
   stroke-linejoin="round"
   d="M 3982,4274 L 4132,4274"
   id="path46" />
 <path
   fill="none"
   stroke="rgb(179,179,179)"
   stroke-linejoin="round"
   d="M 3982,2486 L 4132,2486"
   id="path48" />
 <path
   fill="none"
   stroke="rgb(179,179,179)"
   stroke-linejoin="round"
   d="M 3982,2486 L 4132,2486"
   id="path50" />
 <path
   fill="none"
   stroke="rgb(179,179,179)"
   stroke-linejoin="round"
   d="M 3982,698 L 4132,698"
   id="path52" />
 <path
   fill="none"
   stroke="rgb(179,179,179)"
   stroke-linejoin="round"
   d="M 3982,698 L 4132,698"
   id="path54" />
 <path
   fill="none"
   stroke="rgb(179,179,179)"
   stroke-linejoin="round"
   d="M 4132,13214 L 4132,698"
   id="path56" />
 <path
   fill="rgb(51,51,51)"
   stroke="none"
   d="M 20358,13214 L 20970,13214 20970,11191 20358,11191 20358,13214 Z"
   id="path58" />
 <path
   fill="rgb(51,51,51)"
   stroke="none"
   d="M 19133,13214 L 19746,13214 19746,11014 19133,11014 19133,13214 Z"
   id="path60" />
 <path
   fill="rgb(51,51,51)"
   stroke="none"
   d="M 17909,13214 L 18521,13214 18521,10722 17909,10722 17909,13214 Z"
   id="path62" />
 <path
   fill="rgb(51,51,51)"
   stroke="none"
   d="M 16684,13214 L 17296,13214 17296,10198 16684,10198 16684,13214 Z"
   id="path64" />
 <path
   fill="rgb(51,51,51)"
   stroke="none"
   d="M 15459,13214 L 16071,13214 16071,10073 15459,10073 15459,13214 Z"
   id="path66" />
 <path
   fill="rgb(51,51,51)"
   stroke="none"
   d="M 14235,13214 L 14848,13214 14848,9765 14235,9765 14235,13214 Z"
   id="path68" />
 <path
   fill="rgb(51,51,51)"
   stroke="none"
   d="M 13011,13214 L 13623,13214 13623,9544 13011,9544 13011,13214 Z"
   id="path70" />
 <path
   fill="rgb(51,51,51)"
   stroke="none"
   d="M 11786,13214 L 12398,13214 12398,9218 11786,9218 11786,13214 Z"
   id="path72" />
 <path
   fill="rgb(51,51,51)"
   stroke="none"
   d="M 10561,13214 L 11174,13214 11174,8967 10561,8967 10561,13214 Z"
   id="path74" />
 <path
   fill="rgb(51,51,51)"
   stroke="none"
   d="M 9337,13214 L 9949,13214 9949,8384 9337,8384 9337,13214 Z"
   id="path76" />
 <path
   fill="rgb(51,51,51)"
   stroke="none"
   d="M 8112,13214 L 8724,13214 8724,7093 8112,7093 8112,13214 Z"
   id="path78" />
 <path
   fill="rgb(51,51,51)"
   stroke="none"
   d="M 6887,13214 L 7499,13214 7499,5542 6887,5542 6887,13214 Z"
   id="path80" />
 <path
   fill="rgb(51,51,51)"
   stroke="none"
   d="M 5662,13214 L 6275,13214 6275,5159 5662,5159 5662,13214 Z"
   id="path82" />
 <path
   fill="rgb(51,51,51)"
   stroke="none"
   d="M 4438,13214 L 5050,13214 5050,3909 4438,3909 4438,13214 Z"
   id="path84" />
 <path
   fill="rgb(197,0,11)"
   stroke="none"
   d="M 20358,11191 L 20970,11191 20970,11080 20358,11080 20358,11191 Z"
   id="path86" />
 <path
   fill="rgb(197,0,11)"
   stroke="none"
   d="M 19133,11014 L 19746,11014 19746,10937 19133,10937 19133,11014 Z"
   id="path88" />
 <path
   fill="rgb(197,0,11)"
   stroke="none"
   d="M 11786,9218 L 12398,9218 12398,9109 11786,9109 11786,9218 Z"
   id="path90" />
 <path
   fill="rgb(197,0,11)"
   stroke="none"
   d="M 4438,3909 L 5050,3909 5050,3800 4438,3800 4438,3909 Z"
   id="path92" />
 <path
   fill="rgb(255,149,14)"
   stroke="none"
   d="M 20358,11080 L 20970,11080 20970,10252 20358,10252 20358,11080 Z"
   id="path94" />
 <path
   fill="rgb(255,149,14)"
   stroke="none"
   d="M 19133,10937 L 19746,10937 19746,10286 19133,10286 19133,10937 Z"
   id="path96" />
 <path
   fill="rgb(255,149,14)"
   stroke="none"
   d="M 11786,9109 L 12398,9109 12398,8665 11786,8665 11786,9109 Z"
   id="path98" />
 <path
   fill="rgb(255,149,14)"
   stroke="none"
   d="M 4438,3800 L 5050,3800 5050,3606 4438,3606 4438,3800 Z"
   id="path100" />
 <path
   fill="rgb(75,31,111)"
   stroke="none"
   d="M 20358,10252 L 20970,10252 20970,10078 20358,10078 20358,10252 Z"
   id="path102" />
 <path
   fill="rgb(75,31,111)"
   stroke="none"
   d="M 19133,10286 L 19746,10286 19746,10108 19133,10108 19133,10286 Z"
   id="path104" />
 <path
   fill="rgb(75,31,111)"
   stroke="none"
   d="M 11786,8665 L 12398,8665 12398,8519 11786,8519 11786,8665 Z"
   id="path106" />
 <path
   fill="rgb(75,31,111)"
   stroke="none"
   d="M 4438,3606 L 5050,3606 5050,3536 4438,3536 4438,3606 Z"
   id="path108" />
 <path
   fill="rgb(174,207,0)"
   stroke="none"
   d="M 20358,10078 L 20970,10078 20970,9982 20358,9982 20358,10078 Z"
   id="path110" />
 <path
   fill="rgb(174,207,0)"
   stroke="none"
   d="M 19133,10108 L 19746,10108 19746,10024 19133,10024 19133,10108 Z"
   id="path112" />
 <path
   fill="rgb(174,207,0)"
   stroke="none"
   d="M 11786,8519 L 12398,8519 12398,8457 11786,8457 11786,8519 Z"
   id="path114" />
 <path
   fill="rgb(174,207,0)"
   stroke="none"
   d="M 4438,3536 L 5050,3536 5050,3507 4438,3507 4438,3536 Z"
   id="path116" />
 <path
   fill="rgb(49,64,4)"
   stroke="none"
   d="M 20358,9982 L 20970,9982 20970,8520 20358,8520 20358,9982 Z"
   id="path118" />
 <path
   fill="rgb(49,64,4)"
   stroke="none"
   d="M 19133,10024 L 19746,10024 19746,8688 19133,8688 19133,10024 Z"
   id="path120" />
 <path
   fill="rgb(49,64,4)"
   stroke="none"
   d="M 11786,8457 L 12398,8457 12398,6367 11786,6367 11786,8457 Z"
   id="path122" />
 <path
   fill="rgb(49,64,4)"
   stroke="none"
   d="M 4438,3507 L 5050,3507 5050,2833 4438,2833 4438,3507 Z"
   id="path124" />
 <path
   fill="rgb(131,202,255)"
   stroke="none"
   d="M 20358,8520 L 20970,8520 20970,8441 20358,8441 20358,8520 Z"
   id="path126" />
 <path
   fill="rgb(131,202,255)"
   stroke="none"
   d="M 19133,8688 L 19746,8688 19746,8629 19133,8629 19133,8688 Z"
   id="path128" />
 <path
   fill="rgb(131,202,255)"
   stroke="none"
   d="M 11786,6367 L 12398,6367 12398,6360 11786,6360 11786,6367 Z"
   id="path130" />
 <path
   fill="rgb(131,202,255)"
   stroke="none"
   d="M 4438,2833 L 5050,2833 5050,2831 4438,2831 4438,2833 Z"
   id="path132" />
 <path
   fill="rgb(126,0,33)"
   stroke="none"
   d="M 20358,8441 L 20970,8441 20970,8433 20358,8433 20358,8441 Z"
   id="path134" />
 <path
   fill="rgb(126,0,33)"
   stroke="none"
   d="M 19133,8629 L 19746,8629 19746,8622 19133,8622 19133,8629 Z"
   id="path136" />
 <path
   fill="rgb(126,0,33)"
   stroke="none"
   d="M 11786,6360 L 12398,6360 12398,6344 11786,6344 11786,6360 Z"
   id="path138" />
 <path
   fill="rgb(126,0,33)"
   stroke="none"
   d="M 4438,2831 L 5050,2831 5050,2822 4438,2822 4438,2831 Z"
   id="path140" />
 <path
   fill="rgb(87,157,28)"
   stroke="none"
   d="M 20358,8433 L 20970,8433 20970,8364 20358,8364 20358,8433 Z"
   id="path142" />
 <path
   fill="rgb(87,157,28)"
   stroke="none"
   d="M 19133,8622 L 19746,8622 19746,8552 19133,8552 19133,8622 Z"
   id="path144" />
 <path
   fill="rgb(87,157,28)"
   stroke="none"
   d="M 11786,6344 L 12398,6344 12398,6189 11786,6189 11786,6344 Z"
   id="path146" />
 <path
   fill="rgb(87,157,28)"
   stroke="none"
   d="M 4438,2822 L 5050,2822 5050,2744 4438,2744 4438,2822 Z"
   id="path148" />
 <path
   fill="rgb(255,211,32)"
   stroke="none"
   d="M 20358,8364 L 20970,8364 20970,8150 20358,8150 20358,8364 Z"
   id="path150" />
 <path
   fill="rgb(255,211,32)"
   stroke="none"
   d="M 19133,8552 L 19746,8552 19746,8370 19133,8370 19133,8552 Z"
   id="path152" />
 <path
   fill="rgb(255,211,32)"
   stroke="none"
   d="M 11786,6189 L 12398,6189 12398,6154 11786,6154 11786,6189 Z"
   id="path154" />
 <path
   fill="rgb(255,66,14)"
   stroke="none"
   d="M 20358,8150 L 20970,8150 20970,7847 20358,7847 20358,8150 Z"
   id="path156" />
 <path
   fill="rgb(255,66,14)"
   stroke="none"
   d="M 19133,8370 L 19746,8370 19746,7985 19133,7985 19133,8370 Z"
   id="path158" />
 <path
   fill="rgb(255,66,14)"
   stroke="none"
   d="M 11786,6154 L 12398,6154 12398,5813 11786,5813 11786,6154 Z"
   id="path160" />
 <path
   fill="rgb(255,66,14)"
   stroke="none"
   d="M 4438,2744 L 5050,2744 5050,2386 4438,2386 4438,2744 Z"
   id="path162" />
 <path
   fill="rgb(0,69,134)"
   stroke="none"
   d="M 20358,7847 L 20970,7847 20970,7822 20358,7822 20358,7847 Z"
   id="path164" />
 <path
   fill="rgb(0,69,134)"
   stroke="none"
   d="M 19133,7985 L 19746,7985 19746,7961 19133,7961 19133,7985 Z"
   id="path166" />
 <path
   fill="rgb(0,69,134)"
   stroke="none"
   d="M 11786,5813 L 12398,5813 12398,5780 11786,5780 11786,5813 Z"
   id="path168" />
 <path
   fill="rgb(0,69,134)"
   stroke="none"
   d="M 4438,2386 L 5050,2386 5050,2372 4438,2372 4438,2386 Z"
   id="path170" />
 <path
   fill="rgb(153,204,255)"
   stroke="none"
   d="M 17909,10722 L 18521,10722 18521,7690 17909,7690 17909,10722 Z"
   id="path172" />
 <path
   fill="rgb(153,204,255)"
   stroke="none"
   d="M 16684,10198 L 17296,10198 17296,7105 16684,7105 16684,10198 Z"
   id="path174" />
 <path
   fill="rgb(153,204,255)"
   stroke="none"
   d="M 15459,10073 L 16071,10073 16071,6790 15459,6790 15459,10073 Z"
   id="path176" />
 <path
   fill="rgb(153,204,255)"
   stroke="none"
   d="M 14235,9765 L 14848,9765 14848,6156 14235,6156 14235,9765 Z"
   id="path178" />
 <path
   fill="rgb(153,204,255)"
   stroke="none"
   d="M 13011,9544 L 13623,9544 13623,5743 13011,5743 13011,9544 Z"
   id="path180" />
 <path
   fill="rgb(153,204,255)"
   stroke="none"
   d="M 10561,8967 L 11174,8967 11174,5243 10561,5243 10561,8967 Z"
   id="path182" />
 <path
   fill="rgb(153,204,255)"
   stroke="none"
   d="M 9337,8384 L 9949,8384 9949,4579 9337,4579 9337,8384 Z"
   id="path184" />
 <path
   fill="rgb(153,204,255)"
   stroke="none"
   d="M 8112,7093 L 8724,7093 8724,3451 8112,3451 8112,7093 Z"
   id="path186" />
 <path
   fill="rgb(153,204,255)"
   stroke="none"
   d="M 6887,5542 L 7499,5542 7499,2190 6887,2190 6887,5542 Z"
   id="path188" />
 <path
   fill="rgb(153,204,255)"
   stroke="none"
   d="M 5662,5159 L 6275,5159 6275,2124 5662,2124 5662,5159 Z"
   id="path190" />
 <path
   fill="none"
   stroke="rgb(153,204,255)"
   stroke-width="80"
   stroke-linejoin="round"
   d="M 4744,2372 L 5969,2124 7193,2190 8418,3451 9643,4579 10867,5243 12092,5780 13317,5743 14542,6156 15765,6790 16990,7105 18215,7690 19439,7961 20664,7822"
   id="path192"
   style="stroke-width:49.99999963;stroke-miterlimit:4;stroke-dasharray:none" />
 <path
   fill="none"
   stroke="rgb(51,51,51)"
   stroke-width="80"
   stroke-linejoin="round"
   d="M 4744,3909 L 5969,5159 7193,5542 8418,7093 9643,8384 10867,8967 12092,9218 13317,9544 14542,9765 15765,10073 16990,10198 18215,10722 19439,11014 20664,11191"
   id="path194"
   style="stroke-width:49.99999963;stroke-miterlimit:4;stroke-dasharray:none" />
 <text
   class="SVGTextShape"
   transform="rotate(-44.9 4087 14587)"
   id="text202"><tspan
     class="TextParagraph"
     font-family="Latin Modern Roman"
     font-size="564px"
     font-weight="400"
     id="tspan200"><tspan
       class="TextPosition"
       x="4087"
       y="14587"
       id="tspan198"><tspan
         fill="rgb(0,0,0)"
         stroke="none"
         id="tspan196">1950</tspan></tspan></tspan></text>
 <text
   class="SVGTextShape"
   transform="rotate(-44.9 5312 14587)"
   id="text210"><tspan
     class="TextParagraph"
     font-family="Latin Modern Roman"
     font-size="564px"
     font-weight="400"
     id="tspan208"><tspan
       class="TextPosition"
       x="5312"
       y="14587"
       id="tspan206"><tspan
         fill="rgb(0,0,0)"
         stroke="none"
         id="tspan204">1955</tspan></tspan></tspan></text>
 <text
   class="SVGTextShape"
   transform="rotate(-44.9 6536 14587)"
   id="text218"><tspan
     class="TextParagraph"
     font-family="Latin Modern Roman"
     font-size="564px"
     font-weight="400"
     id="tspan216"><tspan
       class="TextPosition"
       x="6536"
       y="14587"
       id="tspan214"><tspan
         fill="rgb(0,0,0)"
         stroke="none"
         id="tspan212">1960</tspan></tspan></tspan></text>
 <text
   class="SVGTextShape"
   transform="rotate(-44.9 7761 14587)"
   id="text226"><tspan
     class="TextParagraph"
     font-family="Latin Modern Roman"
     font-size="564px"
     font-weight="400"
     id="tspan224"><tspan
       class="TextPosition"
       x="7761"
       y="14587"
       id="tspan222"><tspan
         fill="rgb(0,0,0)"
         stroke="none"
         id="tspan220">1965</tspan></tspan></tspan></text>
 <text
   class="SVGTextShape"
   transform="rotate(-44.9 8986 14587)"
   id="text234"><tspan
     class="TextParagraph"
     font-family="Latin Modern Roman"
     font-size="564px"
     font-weight="400"
     id="tspan232"><tspan
       class="TextPosition"
       x="8986"
       y="14587"
       id="tspan230"><tspan
         fill="rgb(0,0,0)"
         stroke="none"
         id="tspan228">1970</tspan></tspan></tspan></text>
 <text
   class="SVGTextShape"
   transform="rotate(-44.9 10210 14587)"
   id="text242"><tspan
     class="TextParagraph"
     font-family="Latin Modern Roman"
     font-size="564px"
     font-weight="400"
     id="tspan240"><tspan
       class="TextPosition"
       x="10210"
       y="14587"
       id="tspan238"><tspan
         fill="rgb(0,0,0)"
         stroke="none"
         id="tspan236">1975</tspan></tspan></tspan></text>
 <text
   class="SVGTextShape"
   transform="rotate(-44.9 11435 14587)"
   id="text250"><tspan
     class="TextParagraph"
     font-family="Latin Modern Roman"
     font-size="564px"
     font-weight="400"
     id="tspan248"><tspan
       class="TextPosition"
       x="11435"
       y="14587"
       id="tspan246"><tspan
         fill="rgb(0,0,0)"
         stroke="none"
         id="tspan244">1980</tspan></tspan></tspan></text>
 <text
   class="SVGTextShape"
   transform="rotate(-44.9 12660 14587)"
   id="text258"><tspan
     class="TextParagraph"
     font-family="Latin Modern Roman"
     font-size="564px"
     font-weight="400"
     id="tspan256"><tspan
       class="TextPosition"
       x="12660"
       y="14587"
       id="tspan254"><tspan
         fill="rgb(0,0,0)"
         stroke="none"
         id="tspan252">1985</tspan></tspan></tspan></text>
 <text
   class="SVGTextShape"
   transform="rotate(-44.9 13885 14587)"
   id="text266"><tspan
     class="TextParagraph"
     font-family="Latin Modern Roman"
     font-size="564px"
     font-weight="400"
     id="tspan264"><tspan
       class="TextPosition"
       x="13885"
       y="14587"
       id="tspan262"><tspan
         fill="rgb(0,0,0)"
         stroke="none"
         id="tspan260">1990</tspan></tspan></tspan></text>
 <text
   class="SVGTextShape"
   transform="rotate(-44.9 15109 14587)"
   id="text274"><tspan
     class="TextParagraph"
     font-family="Latin Modern Roman"
     font-size="564px"
     font-weight="400"
     id="tspan272"><tspan
       class="TextPosition"
       x="15109"
       y="14587"
       id="tspan270"><tspan
         fill="rgb(0,0,0)"
         stroke="none"
         id="tspan268">1995</tspan></tspan></tspan></text>
 <text
   class="SVGTextShape"
   transform="rotate(-44.9 16334 14587)"
   id="text282"><tspan
     class="TextParagraph"
     font-family="Latin Modern Roman"
     font-size="564px"
     font-weight="400"
     id="tspan280"><tspan
       class="TextPosition"
       x="16334"
       y="14587"
       id="tspan278"><tspan
         fill="rgb(0,0,0)"
         stroke="none"
         id="tspan276">2000</tspan></tspan></tspan></text>
 <text
   class="SVGTextShape"
   transform="rotate(-44.9 17559 14587)"
   id="text290"><tspan
     class="TextParagraph"
     font-family="Latin Modern Roman"
     font-size="564px"
     font-weight="400"
     id="tspan288"><tspan
       class="TextPosition"
       x="17559"
       y="14587"
       id="tspan286"><tspan
         fill="rgb(0,0,0)"
         stroke="none"
         id="tspan284">2005</tspan></tspan></tspan></text>
 <text
   class="SVGTextShape"
   transform="rotate(-44.9 18783 14587)"
   id="text298"><tspan
     class="TextParagraph"
     font-family="Latin Modern Roman"
     font-size="564px"
     font-weight="400"
     id="tspan296"><tspan
       class="TextPosition"
       x="18783"
       y="14587"
       id="tspan294"><tspan
         fill="rgb(0,0,0)"
         stroke="none"
         id="tspan292">2010</tspan></tspan></tspan></text>
 <text
   class="SVGTextShape"
   transform="rotate(-44.9 20008 14587)"
   id="text306"><tspan
     class="TextParagraph"
     font-family="Latin Modern Roman"
     font-size="564px"
     font-weight="400"
     id="tspan304"><tspan
       class="TextPosition"
       x="20008"
       y="14587"
       id="tspan302"><tspan
         fill="rgb(0,0,0)"
         stroke="none"
         id="tspan300">2015</tspan></tspan></tspan></text>
 <text
   class="SVGTextShape"
   id="text314"><tspan
     class="TextParagraph"
     font-family="Latin Modern Roman"
     font-size="564px"
     font-weight="400"
     id="tspan312"><tspan
       class="TextPosition"
       x="2215"
       y="13453"
       id="tspan310"><tspan
         fill="rgb(0,0,0)"
         stroke="none"
         id="tspan308">0 FTE</tspan></tspan></tspan></text>
 <text
   class="SVGTextShape"
   id="text322"><tspan
     class="TextParagraph"
     font-family="Latin Modern Roman"
     font-size="564px"
     font-weight="400"
     id="tspan320"><tspan
       class="TextPosition"
       x="601"
       y="11664"
       id="tspan318"><tspan
         fill="rgb(0,0,0)"
         stroke="none"
         id="tspan316">100.000 FTE</tspan></tspan></tspan></text>
 <text
   class="SVGTextShape"
   id="text330"><tspan
     class="TextParagraph"
     font-family="Latin Modern Roman"
     font-size="564px"
     font-weight="400"
     id="tspan328"><tspan
       class="TextPosition"
       x="601"
       y="9876"
       id="tspan326"><tspan
         fill="rgb(0,0,0)"
         stroke="none"
         id="tspan324">200.000 FTE</tspan></tspan></tspan></text>
 <text
   class="SVGTextShape"
   id="text338"><tspan
     class="TextParagraph"
     font-family="Latin Modern Roman"
     font-size="564px"
     font-weight="400"
     id="tspan336"><tspan
       class="TextPosition"
       x="601"
       y="8088"
       id="tspan334"><tspan
         fill="rgb(0,0,0)"
         stroke="none"
         id="tspan332">300.000 FTE</tspan></tspan></tspan></text>
 <text
   class="SVGTextShape"
   id="text346"><tspan
     class="TextParagraph"
     font-family="Latin Modern Roman"
     font-size="564px"
     font-weight="400"
     id="tspan344"><tspan
       class="TextPosition"
       x="601"
       y="6300"
       id="tspan342"><tspan
         fill="rgb(0,0,0)"
         stroke="none"
         id="tspan340">400.000 FTE</tspan></tspan></tspan></text>
 <text
   class="SVGTextShape"
   id="text354"><tspan
     class="TextParagraph"
     font-family="Latin Modern Roman"
     font-size="564px"
     font-weight="400"
     id="tspan352"><tspan
       class="TextPosition"
       x="601"
       y="4512"
       id="tspan350"><tspan
         fill="rgb(0,0,0)"
         stroke="none"
         id="tspan348">500.000 FTE</tspan></tspan></tspan></text>
 <text
   class="SVGTextShape"
   id="text362"><tspan
     class="TextParagraph"
     font-family="Latin Modern Roman"
     font-size="564px"
     font-weight="400"
     id="tspan360"><tspan
       class="TextPosition"
       x="601"
       y="2724"
       id="tspan358"><tspan
         fill="rgb(0,0,0)"
         stroke="none"
         id="tspan356">600.000 FTE</tspan></tspan></tspan></text>
 <text
   class="SVGTextShape"
   id="text370"><tspan
     class="TextParagraph"
     font-family="Latin Modern Roman"
     font-size="564px"
     font-weight="400"
     id="tspan368"><tspan
       class="TextPosition"
       x="601"
       y="936"
       id="tspan366"><tspan
         fill="rgb(0,0,0)"
         stroke="none"
         id="tspan364">700.000 FTE</tspan></tspan></tspan></text>
 <path
   fill="rgb(51,51,51)"
   stroke="none"
   d="M 22463,12953 L 22063,12953 22063,12615 22863,12615 22863,12953 22463,12953 Z"
   id="path372" />
 <path
   fill="rgb(197,0,11)"
   stroke="none"
   d="M 22463,12072 L 22063,12072 22063,11734 22863,11734 22863,12072 22463,12072 Z"
   id="path374" />
 <path
   fill="rgb(255,149,14)"
   stroke="none"
   d="M 22463,11191 L 22063,11191 22063,10853 22863,10853 22863,11191 22463,11191 Z"
   id="path376" />
 <path
   fill="rgb(75,31,111)"
   stroke="none"
   d="M 22463,10310 L 22063,10310 22063,9972 22863,9972 22863,10310 22463,10310 Z"
   id="path378" />
 <path
   fill="rgb(174,207,0)"
   stroke="none"
   d="M 22463,9429 L 22063,9429 22063,9091 22863,9091 22863,9429 22463,9429 Z"
   id="path380" />
 <path
   fill="rgb(49,64,4)"
   stroke="none"
   d="M 22463,8548 L 22063,8548 22063,8210 22863,8210 22863,8548 22463,8548 Z"
   id="path382" />
 <path
   fill="rgb(131,202,255)"
   stroke="none"
   d="M 22463,7667 L 22063,7667 22063,7330 22863,7330 22863,7667 22463,7667 Z"
   id="path384" />
 <path
   fill="rgb(126,0,33)"
   stroke="none"
   d="M 22463,6787 L 22063,6787 22063,6449 22863,6449 22863,6787 22463,6787 Z"
   id="path386" />
 <path
   fill="rgb(87,157,28)"
   stroke="none"
   d="M 22463,5906 L 22063,5906 22063,5568 22863,5568 22863,5906 22463,5906 Z"
   id="path388" />
 <path
   fill="rgb(255,211,32)"
   stroke="none"
   d="M 22463,5025 L 22063,5025 22063,4687 22863,4687 22863,5025 22463,5025 Z"
   id="path390" />
 <path
   fill="rgb(255,66,14)"
   stroke="none"
   d="M 22463,4144 L 22063,4144 22063,3806 22863,3806 22863,4144 22463,4144 Z"
   id="path392" />
 <path
   fill="rgb(0,69,134)"
   stroke="none"
   d="M 22463,3263 L 22063,3263 22063,2925 22863,2925 22863,3263 22463,3263 Z"
   id="path394" />
 <path
   fill="rgb(153,204,255)"
   stroke="none"
   d="M 22463,2382 L 22063,2382 22063,2044 22863,2044 22863,2382 22463,2382 Z"
   id="path396" />
 <text
   class="SVGTextShape"
   id="text404"><tspan
     class="TextParagraph"
     font-family="Latin Modern Roman Caps"
     font-size="564px"
     font-weight="400"
     id="tspan402"><tspan
       class="TextPosition"
       x="22987"
       y="2438"
       id="tspan400"><tspan
         fill="rgb(0,0,0)"
         stroke="none"
         id="tspan398">indirecte arbeid</tspan></tspan></tspan></text>
 <text
   class="SVGTextShape"
   id="text412"><tspan
     class="TextParagraph"
     font-family="Latin Modern Roman Caps"
     font-size="564px"
     font-weight="400"
     id="tspan410"><tspan
       class="TextPosition"
       x="22987"
       y="3319"
       id="tspan408"><tspan
         fill="rgb(0,0,0)"
         stroke="none"
         id="tspan406">transport en infrastr.</tspan></tspan></tspan></text>
 <text
   class="SVGTextShape"
   id="text420"><tspan
     class="TextParagraph"
     font-family="Latin Modern Roman Caps"
     font-size="564px"
     font-weight="400"
     id="tspan418"><tspan
       class="TextPosition"
       x="22987"
       y="4200"
       id="tspan416"><tspan
         fill="rgb(0,0,0)"
         stroke="none"
         id="tspan414">dienstverlening</tspan></tspan></tspan></text>
 <text
   class="SVGTextShape"
   id="text428"><tspan
     class="TextParagraph"
     font-family="Latin Modern Roman Caps"
     font-size="564px"
     font-weight="400"
     id="tspan426"><tspan
       class="TextPosition"
       x="22987"
       y="5081"
       id="tspan424"><tspan
         fill="rgb(0,0,0)"
         stroke="none"
         id="tspan422">electronica</tspan></tspan></tspan></text>
 <text
   class="SVGTextShape"
   id="text436"><tspan
     class="TextParagraph"
     font-family="Latin Modern Roman Caps"
     font-size="564px"
     font-weight="400"
     id="tspan434"><tspan
       class="TextPosition"
       x="22987"
       y="5962"
       id="tspan432"><tspan
         fill="rgb(0,0,0)"
         stroke="none"
         id="tspan430">bestrijdingsmiddelen</tspan></tspan></tspan></text>
 <text
   class="SVGTextShape"
   id="text444"><tspan
     class="TextParagraph"
     font-family="Latin Modern Roman Caps"
     font-size="564px"
     font-weight="400"
     id="tspan442"><tspan
       class="TextPosition"
       x="22987"
       y="6843"
       id="tspan440"><tspan
         fill="rgb(0,0,0)"
         stroke="none"
         id="tspan438">kunstmest</tspan></tspan></tspan></text>
 <text
   class="SVGTextShape"
   id="text452"><tspan
     class="TextParagraph"
     font-family="Latin Modern Roman Caps"
     font-size="564px"
     font-weight="400"
     id="tspan450"><tspan
       class="TextPosition"
       x="22987"
       y="7723"
       id="tspan448"><tspan
         fill="rgb(0,0,0)"
         stroke="none"
         id="tspan446">dierlijke mest</tspan></tspan></tspan></text>
 <text
   class="SVGTextShape"
   id="text460"><tspan
     class="TextParagraph"
     font-family="Latin Modern Roman Caps"
     font-size="564px"
     font-weight="400"
     id="tspan458"><tspan
       class="TextPosition"
       x="22987"
       y="8604"
       id="tspan456"><tspan
         fill="rgb(0,0,0)"
         stroke="none"
         id="tspan454">veevoer</tspan></tspan></tspan></text>
 <text
   class="SVGTextShape"
   id="text468"><tspan
     class="TextParagraph"
     font-family="Latin Modern Roman Caps"
     font-size="564px"
     font-weight="400"
     id="tspan466"><tspan
       class="TextPosition"
       x="22987"
       y="9485"
       id="tspan464"><tspan
         fill="rgb(0,0,0)"
         stroke="none"
         id="tspan462">trekkers en machines</tspan></tspan></tspan></text>
 <text
   class="SVGTextShape"
   id="text476"><tspan
     class="TextParagraph"
     font-family="Latin Modern Roman Caps"
     font-size="564px"
     font-weight="400"
     id="tspan474"><tspan
       class="TextPosition"
       x="22987"
       y="10366"
       id="tspan472"><tspan
         fill="rgb(0,0,0)"
         stroke="none"
         id="tspan470">gebouwen</tspan></tspan></tspan></text>
 <text
   class="SVGTextShape"
   id="text484"><tspan
     class="TextParagraph"
     font-family="Latin Modern Roman Caps"
     font-size="564px"
     font-weight="400"
     id="tspan482"><tspan
       class="TextPosition"
       x="22987"
       y="11247"
       id="tspan480"><tspan
         fill="rgb(0,0,0)"
         stroke="none"
         id="tspan478">mijnbouw</tspan></tspan></tspan></text>
 <text
   class="SVGTextShape"
   id="text492"><tspan
     class="TextParagraph"
     font-family="Latin Modern Roman Caps"
     font-size="564px"
     font-weight="400"
     id="tspan490"><tspan
       class="TextPosition"
       x="22987"
       y="12128"
       id="tspan488"><tspan
         fill="rgb(0,0,0)"
         stroke="none"
         id="tspan486">energie toelevering</tspan></tspan></tspan></text>
 <text
   class="SVGTextShape"
   id="text500"><tspan
     class="TextParagraph"
     font-family="Latin Modern Roman Caps"
     font-size="564px"
     font-weight="400"
     id="tspan498"><tspan
       class="TextPosition"
       x="22987"
       y="13009"
       id="tspan496"><tspan
         fill="rgb(0,0,0)"
         stroke="none"
         id="tspan494">directe arbeid</tspan></tspan></tspan></text>
</svg>
