<?xml version="1.0" encoding="UTF-8"?>
<!DOCTYPE svg PUBLIC "-//W3C//DTD SVG 1.1//EN" "http://www.w3.org/Graphics/SVG/1.1/DTD/svg11.dtd">
<svg width="80mm" height="40mm" viewBox="0 0 8000 4000" version="1.1" xmlns="http://www.w3.org/2000/svg" xmlns:xlink="http://www.w3.org/1999/xlink" stroke-width="28.222" stroke-linejoin="round" xml:space="preserve">
 <path fill="rgb(255,255,255)" stroke="none" d="M 4023,4000 L 46,4000 46,0 8000,0 8000,4000 4023,4000 Z"/>
 <path fill="none" stroke="rgb(0,0,0)" stroke-linejoin="round" d="M 4023,4000 L 46,4000 46,0 8000,0 8000,4000 4023,4000 Z"/>
 <defs>
  <linearGradient id="Gradient_17" gradientUnits="userSpaceOnUse" x1="4214" y1="250" x2="4214" y2="2785">
   <stop offset="0.3" stop-color="rgb(204,0,0)"/>
   <stop offset="1" stop-color="rgb(0,153,0)"/>
  </linearGradient>
 </defs>
 <path fill="url(#Gradient_17)" stroke="rgb(179,179,179)" stroke-linejoin="round" d="M 4214,2785 L 698,2785 698,250 7730,250 7730,2785 4214,2785 Z"/>
 <path fill="none" stroke="rgb(179,179,179)" stroke-linejoin="round" d="M 7730,2784 L 698,2784"/>
 <path fill="none" stroke="rgb(179,179,179)" stroke-linejoin="round" d="M 7730,2059 L 698,2059"/>
 <path fill="none" stroke="rgb(179,179,179)" stroke-linejoin="round" d="M 7730,1335 L 698,1335"/>
 <path fill="none" stroke="rgb(179,179,179)" stroke-linejoin="round" d="M 7730,611 L 698,611"/>
 <path fill="none" stroke="rgb(179,179,179)" stroke-linejoin="round" d="M 698,2934 L 698,2784"/>
 <path fill="none" stroke="rgb(179,179,179)" stroke-linejoin="round" d="M 698,2934 L 698,2784"/>
 <path fill="none" stroke="rgb(179,179,179)" stroke-linejoin="round" d="M 2261,2934 L 2261,2784"/>
 <path fill="none" stroke="rgb(179,179,179)" stroke-linejoin="round" d="M 2261,2934 L 2261,2784"/>
 <path fill="none" stroke="rgb(179,179,179)" stroke-linejoin="round" d="M 3823,2934 L 3823,2784"/>
 <path fill="none" stroke="rgb(179,179,179)" stroke-linejoin="round" d="M 3823,2934 L 3823,2784"/>
 <path fill="none" stroke="rgb(179,179,179)" stroke-linejoin="round" d="M 5386,2934 L 5386,2784"/>
 <path fill="none" stroke="rgb(179,179,179)" stroke-linejoin="round" d="M 5386,2934 L 5386,2784"/>
 <path fill="none" stroke="rgb(179,179,179)" stroke-linejoin="round" d="M 6949,2934 L 6949,2784"/>
 <path fill="none" stroke="rgb(179,179,179)" stroke-linejoin="round" d="M 6949,2934 L 6949,2784"/>
 <path fill="none" stroke="rgb(179,179,179)" stroke-linejoin="round" d="M 1089,2896 L 1089,2784"/>
 <path fill="none" stroke="rgb(179,179,179)" stroke-linejoin="round" d="M 1089,2896 L 1089,2784"/>
 <path fill="none" stroke="rgb(179,179,179)" stroke-linejoin="round" d="M 1479,2896 L 1479,2784"/>
 <path fill="none" stroke="rgb(179,179,179)" stroke-linejoin="round" d="M 1479,2896 L 1479,2784"/>
 <path fill="none" stroke="rgb(179,179,179)" stroke-linejoin="round" d="M 1870,2896 L 1870,2784"/>
 <path fill="none" stroke="rgb(179,179,179)" stroke-linejoin="round" d="M 1870,2896 L 1870,2784"/>
 <path fill="none" stroke="rgb(179,179,179)" stroke-linejoin="round" d="M 2651,2896 L 2651,2784"/>
 <path fill="none" stroke="rgb(179,179,179)" stroke-linejoin="round" d="M 2651,2896 L 2651,2784"/>
 <path fill="none" stroke="rgb(179,179,179)" stroke-linejoin="round" d="M 3042,2896 L 3042,2784"/>
 <path fill="none" stroke="rgb(179,179,179)" stroke-linejoin="round" d="M 3042,2896 L 3042,2784"/>
 <path fill="none" stroke="rgb(179,179,179)" stroke-linejoin="round" d="M 3433,2896 L 3433,2784"/>
 <path fill="none" stroke="rgb(179,179,179)" stroke-linejoin="round" d="M 3433,2896 L 3433,2784"/>
 <path fill="none" stroke="rgb(179,179,179)" stroke-linejoin="round" d="M 4214,2896 L 4214,2784"/>
 <path fill="none" stroke="rgb(179,179,179)" stroke-linejoin="round" d="M 4214,2896 L 4214,2784"/>
 <path fill="none" stroke="rgb(179,179,179)" stroke-linejoin="round" d="M 4605,2896 L 4605,2784"/>
 <path fill="none" stroke="rgb(179,179,179)" stroke-linejoin="round" d="M 4605,2896 L 4605,2784"/>
 <path fill="none" stroke="rgb(179,179,179)" stroke-linejoin="round" d="M 4995,2896 L 4995,2784"/>
 <path fill="none" stroke="rgb(179,179,179)" stroke-linejoin="round" d="M 4995,2896 L 4995,2784"/>
 <path fill="none" stroke="rgb(179,179,179)" stroke-linejoin="round" d="M 5777,2896 L 5777,2784"/>
 <path fill="none" stroke="rgb(179,179,179)" stroke-linejoin="round" d="M 5777,2896 L 5777,2784"/>
 <path fill="none" stroke="rgb(179,179,179)" stroke-linejoin="round" d="M 6167,2896 L 6167,2784"/>
 <path fill="none" stroke="rgb(179,179,179)" stroke-linejoin="round" d="M 6167,2896 L 6167,2784"/>
 <path fill="none" stroke="rgb(179,179,179)" stroke-linejoin="round" d="M 6558,2896 L 6558,2784"/>
 <path fill="none" stroke="rgb(179,179,179)" stroke-linejoin="round" d="M 6558,2896 L 6558,2784"/>
 <path fill="none" stroke="rgb(179,179,179)" stroke-linejoin="round" d="M 7339,2896 L 7339,2784"/>
 <path fill="none" stroke="rgb(179,179,179)" stroke-linejoin="round" d="M 7339,2896 L 7339,2784"/>
 <path fill="none" stroke="rgb(179,179,179)" stroke-linejoin="round" d="M 7730,2896 L 7730,2784"/>
 <path fill="none" stroke="rgb(179,179,179)" stroke-linejoin="round" d="M 7730,2896 L 7730,2784"/>
 <path fill="none" stroke="rgb(179,179,179)" stroke-linejoin="round" d="M 698,2784 L 7730,2784"/>
 <path fill="none" stroke="rgb(179,179,179)" stroke-linejoin="round" d="M 549,2784 L 698,2784"/>
 <path fill="none" stroke="rgb(179,179,179)" stroke-linejoin="round" d="M 549,2784 L 698,2784"/>
 <path fill="none" stroke="rgb(179,179,179)" stroke-linejoin="round" d="M 549,2059 L 698,2059"/>
 <path fill="none" stroke="rgb(179,179,179)" stroke-linejoin="round" d="M 549,2059 L 698,2059"/>
 <path fill="none" stroke="rgb(179,179,179)" stroke-linejoin="round" d="M 549,1335 L 698,1335"/>
 <path fill="none" stroke="rgb(179,179,179)" stroke-linejoin="round" d="M 549,1335 L 698,1335"/>
 <path fill="none" stroke="rgb(179,179,179)" stroke-linejoin="round" d="M 549,611 L 698,611"/>
 <path fill="none" stroke="rgb(179,179,179)" stroke-linejoin="round" d="M 549,611 L 698,611"/>
 <path fill="none" stroke="rgb(179,179,179)" stroke-linejoin="round" d="M 698,2784 L 698,249"/>
 <path fill="none" stroke="rgb(255,211,32)" stroke-width="50" stroke-linejoin="round" d="M 698,2183 L 1089,2000 1479,1869 1870,1423 2261,1213 2651,1300 3042,1421 3433,1397 3823,1328 4214,1196 4605,1401 4995,1281 5386,1305 5777,1146 7730,2452"/>
 <path fill="rgb(255,211,32)" stroke="none" d="M 574,2058 L 698,2308 822,2058 574,2058 Z"/>
 <path fill="none" stroke="rgb(255,211,32)" stroke-linejoin="round" d="M 574,2058 L 698,2308 822,2058 574,2058 Z"/>
 <path fill="rgb(255,211,32)" stroke="none" d="M 964,1875 L 1089,2124 1213,1875 964,1875 Z"/>
 <path fill="none" stroke="rgb(255,211,32)" stroke-linejoin="round" d="M 964,1875 L 1089,2124 1213,1875 964,1875 Z"/>
 <path fill="rgb(255,211,32)" stroke="none" d="M 1355,1744 L 1479,1994 1603,1744 1355,1744 Z"/>
 <path fill="none" stroke="rgb(255,211,32)" stroke-linejoin="round" d="M 1355,1744 L 1479,1994 1603,1744 1355,1744 Z"/>
 <path fill="rgb(255,211,32)" stroke="none" d="M 1746,1298 L 1870,1548 1994,1298 1746,1298 Z"/>
 <path fill="none" stroke="rgb(255,211,32)" stroke-linejoin="round" d="M 1746,1298 L 1870,1548 1994,1298 1746,1298 Z"/>
 <path fill="rgb(255,211,32)" stroke="none" d="M 2136,1088 L 2261,1338 2385,1088 2136,1088 Z"/>
 <path fill="none" stroke="rgb(255,211,32)" stroke-linejoin="round" d="M 2136,1088 L 2261,1338 2385,1088 2136,1088 Z"/>
 <path fill="rgb(255,211,32)" stroke="none" d="M 2527,1175 L 2651,1425 2776,1175 2527,1175 Z"/>
 <path fill="none" stroke="rgb(255,211,32)" stroke-linejoin="round" d="M 2527,1175 L 2651,1425 2776,1175 2527,1175 Z"/>
 <path fill="rgb(255,211,32)" stroke="none" d="M 2918,1296 L 3042,1546 3166,1296 2918,1296 Z"/>
 <path fill="none" stroke="rgb(255,211,32)" stroke-linejoin="round" d="M 2918,1296 L 3042,1546 3166,1296 2918,1296 Z"/>
 <path fill="rgb(255,211,32)" stroke="none" d="M 3308,1272 L 3433,1522 3557,1272 3308,1272 Z"/>
 <path fill="none" stroke="rgb(255,211,32)" stroke-linejoin="round" d="M 3308,1272 L 3433,1522 3557,1272 3308,1272 Z"/>
 <path fill="rgb(255,211,32)" stroke="none" d="M 3699,1203 L 3823,1453 3948,1203 3699,1203 Z"/>
 <path fill="none" stroke="rgb(255,211,32)" stroke-linejoin="round" d="M 3699,1203 L 3823,1453 3948,1203 3699,1203 Z"/>
 <path fill="rgb(255,211,32)" stroke="none" d="M 4090,1071 L 4214,1321 4338,1071 4090,1071 Z"/>
 <path fill="none" stroke="rgb(255,211,32)" stroke-linejoin="round" d="M 4090,1071 L 4214,1321 4338,1071 4090,1071 Z"/>
 <path fill="rgb(255,211,32)" stroke="none" d="M 4480,1276 L 4605,1526 4729,1276 4480,1276 Z"/>
 <path fill="none" stroke="rgb(255,211,32)" stroke-linejoin="round" d="M 4480,1276 L 4605,1526 4729,1276 4480,1276 Z"/>
 <path fill="rgb(255,211,32)" stroke="none" d="M 4871,1156 L 4995,1406 5120,1156 4871,1156 Z"/>
 <path fill="none" stroke="rgb(255,211,32)" stroke-linejoin="round" d="M 4871,1156 L 4995,1406 5120,1156 4871,1156 Z"/>
 <path fill="rgb(255,211,32)" stroke="none" d="M 5262,1180 L 5386,1430 5510,1180 5262,1180 Z"/>
 <path fill="none" stroke="rgb(255,211,32)" stroke-linejoin="round" d="M 5262,1180 L 5386,1430 5510,1180 5262,1180 Z"/>
 <path fill="rgb(255,211,32)" stroke="none" d="M 5652,1021 L 5777,1271 5901,1021 5652,1021 Z"/>
 <path fill="none" stroke="rgb(255,211,32)" stroke-linejoin="round" d="M 5652,1021 L 5777,1271 5901,1021 5652,1021 Z"/>
 <path fill="rgb(255,211,32)" stroke="none" d="M 7606,2327 L 7730,2577 7854,2327 7606,2327 Z"/>
 <path fill="none" stroke="rgb(255,211,32)" stroke-linejoin="round" d="M 7606,2327 L 7730,2577 7854,2327 7606,2327 Z"/>
 <text class="SVGTextShape"><tspan class="TextParagraph" font-family="Latin Modern Roman" font-size="353px" font-weight="400"><tspan class="TextPosition" x="265" y="2931"><tspan fill="rgb(0,0,0)" stroke="none">0</tspan></tspan></tspan></text>
 <text class="SVGTextShape"><tspan class="TextParagraph" font-family="Latin Modern Roman" font-size="353px" font-weight="400"><tspan class="TextPosition" x="265" y="2206"><tspan fill="rgb(0,0,0)" stroke="none">1</tspan></tspan></tspan></text>
 <text class="SVGTextShape"><tspan class="TextParagraph" font-family="Latin Modern Roman" font-size="353px" font-weight="400"><tspan class="TextPosition" x="265" y="1481"><tspan fill="rgb(0,0,0)" stroke="none">2</tspan></tspan></tspan></text>
 <text class="SVGTextShape"><tspan class="TextParagraph" font-family="Latin Modern Roman" font-size="353px" font-weight="400"><tspan class="TextPosition" x="265" y="758"><tspan fill="rgb(0,0,0)" stroke="none">3</tspan></tspan></tspan></text>
 <path fill="rgb(255,255,255)" fill-opacity="0.698" stroke="rgb(255,255,255)" stroke-opacity="0.698" d="M 1866,1033 L 815,1033 815,317 2917,317 2917,1033 1866,1033 Z"/>
 <text class="SVGTextShape"><tspan class="TextParagraph" font-family="Latin Modern Roman" font-size="353px" font-weight="400"><tspan class="TextPosition" x="879" y="821"><tspan fill="rgb(0,0,0)" stroke="none">input/output</tspan></tspan></tspan></text>
</svg>