<?xml version="1.0" encoding="UTF-8" standalone="no"?>
<svg
   width="300mm"
   height="150mm"
   viewBox="0 0 30000 15000"
   version="1.1"
   stroke-width="28.222"
   stroke-linejoin="round"
   xml:space="preserve"
   id="svg530"
   sodipodi:docname="meino smit - energie_ha 2040.svg"
   inkscape:version="1.1.2 (0a00cf5339, 2022-02-04)"
   xmlns:inkscape="http://www.inkscape.org/namespaces/inkscape"
   xmlns:sodipodi="http://sodipodi.sourceforge.net/DTD/sodipodi-0.dtd"
   xmlns="http://www.w3.org/2000/svg"
   xmlns:svg="http://www.w3.org/2000/svg"><defs
   id="defs534" /><sodipodi:namedview
   id="namedview532"
   pagecolor="#ffffff"
   bordercolor="#666666"
   borderopacity="1.0"
   inkscape:pageshadow="2"
   inkscape:pageopacity="0.0"
   inkscape:pagecheckerboard="0"
   inkscape:document-units="mm"
   showgrid="false"
   inkscape:zoom="1.0433403"
   inkscape:cx="566.4499"
   inkscape:cy="283.70418"
   inkscape:window-width="1876"
   inkscape:window-height="1051"
   inkscape:window-x="0"
   inkscape:window-y="0"
   inkscape:window-maximized="1"
   inkscape:current-layer="svg530" />
 <path
   fill="rgb(255,255,255)"
   stroke="none"
   d="M 15000,15000 L 0,15000 0,0 30000,0 30000,15000 15000,15000 Z"
   id="path2" />
 <path
   fill="none"
   stroke="rgb(179,179,179)"
   stroke-linejoin="round"
   d="M 16043,11887 L 3259,11887 3259,698 28828,698 28828,11887 16043,11887 Z"
   id="path4" />
 <path
   fill="none"
   stroke="rgb(179,179,179)"
   stroke-linejoin="round"
   d="M 28828,11886 L 3259,11886"
   id="path6" />
 <path
   fill="none"
   stroke="rgb(179,179,179)"
   stroke-linejoin="round"
   d="M 28828,10642 L 3259,10642"
   id="path8" />
 <path
   fill="none"
   stroke="rgb(179,179,179)"
   stroke-linejoin="round"
   d="M 28828,9399 L 3259,9399"
   id="path10" />
 <path
   fill="none"
   stroke="rgb(179,179,179)"
   stroke-linejoin="round"
   d="M 28828,8156 L 3259,8156"
   id="path12" />
 <path
   fill="none"
   stroke="rgb(179,179,179)"
   stroke-linejoin="round"
   d="M 28828,6913 L 3259,6913"
   id="path14" />
 <path
   fill="none"
   stroke="rgb(179,179,179)"
   stroke-linejoin="round"
   d="M 28828,5670 L 3259,5670"
   id="path16" />
 <path
   fill="none"
   stroke="rgb(179,179,179)"
   stroke-linejoin="round"
   d="M 28828,4426 L 3259,4426"
   id="path18" />
 <path
   fill="none"
   stroke="rgb(179,179,179)"
   stroke-linejoin="round"
   d="M 28828,3183 L 3259,3183"
   id="path20" />
 <path
   fill="none"
   stroke="rgb(179,179,179)"
   stroke-linejoin="round"
   d="M 28828,1940 L 3259,1940"
   id="path22" />
 <path
   fill="none"
   stroke="rgb(179,179,179)"
   stroke-linejoin="round"
   d="M 28828,697 L 3259,697"
   id="path24" />
 <path
   fill="none"
   stroke="rgb(179,179,179)"
   stroke-linejoin="round"
   d="M 3259,12036 L 3259,11886"
   id="path26" />
 <path
   fill="none"
   stroke="rgb(179,179,179)"
   stroke-linejoin="round"
   d="M 3259,12036 L 3259,11886"
   id="path28" />
 <path
   fill="none"
   stroke="rgb(179,179,179)"
   stroke-linejoin="round"
   d="M 4679,12036 L 4679,11886"
   id="path30" />
 <path
   fill="none"
   stroke="rgb(179,179,179)"
   stroke-linejoin="round"
   d="M 4679,12036 L 4679,11886"
   id="path32" />
 <path
   fill="none"
   stroke="rgb(179,179,179)"
   stroke-linejoin="round"
   d="M 6100,12036 L 6100,11886"
   id="path34" />
 <path
   fill="none"
   stroke="rgb(179,179,179)"
   stroke-linejoin="round"
   d="M 6100,12036 L 6100,11886"
   id="path36" />
 <path
   fill="none"
   stroke="rgb(179,179,179)"
   stroke-linejoin="round"
   d="M 7520,12036 L 7520,11886"
   id="path38" />
 <path
   fill="none"
   stroke="rgb(179,179,179)"
   stroke-linejoin="round"
   d="M 7520,12036 L 7520,11886"
   id="path40" />
 <path
   fill="none"
   stroke="rgb(179,179,179)"
   stroke-linejoin="round"
   d="M 8941,12036 L 8941,11886"
   id="path42" />
 <path
   fill="none"
   stroke="rgb(179,179,179)"
   stroke-linejoin="round"
   d="M 8941,12036 L 8941,11886"
   id="path44" />
 <path
   fill="none"
   stroke="rgb(179,179,179)"
   stroke-linejoin="round"
   d="M 10361,12036 L 10361,11886"
   id="path46" />
 <path
   fill="none"
   stroke="rgb(179,179,179)"
   stroke-linejoin="round"
   d="M 10361,12036 L 10361,11886"
   id="path48" />
 <path
   fill="none"
   stroke="rgb(179,179,179)"
   stroke-linejoin="round"
   d="M 11782,12036 L 11782,11886"
   id="path50" />
 <path
   fill="none"
   stroke="rgb(179,179,179)"
   stroke-linejoin="round"
   d="M 11782,12036 L 11782,11886"
   id="path52" />
 <path
   fill="none"
   stroke="rgb(179,179,179)"
   stroke-linejoin="round"
   d="M 13202,12036 L 13202,11886"
   id="path54" />
 <path
   fill="none"
   stroke="rgb(179,179,179)"
   stroke-linejoin="round"
   d="M 13202,12036 L 13202,11886"
   id="path56" />
 <path
   fill="none"
   stroke="rgb(179,179,179)"
   stroke-linejoin="round"
   d="M 14623,12036 L 14623,11886"
   id="path58" />
 <path
   fill="none"
   stroke="rgb(179,179,179)"
   stroke-linejoin="round"
   d="M 14623,12036 L 14623,11886"
   id="path60" />
 <path
   fill="none"
   stroke="rgb(179,179,179)"
   stroke-linejoin="round"
   d="M 16043,12036 L 16043,11886"
   id="path62" />
 <path
   fill="none"
   stroke="rgb(179,179,179)"
   stroke-linejoin="round"
   d="M 16043,12036 L 16043,11886"
   id="path64" />
 <path
   fill="none"
   stroke="rgb(179,179,179)"
   stroke-linejoin="round"
   d="M 17463,12036 L 17463,11886"
   id="path66" />
 <path
   fill="none"
   stroke="rgb(179,179,179)"
   stroke-linejoin="round"
   d="M 17463,12036 L 17463,11886"
   id="path68" />
 <path
   fill="none"
   stroke="rgb(179,179,179)"
   stroke-linejoin="round"
   d="M 18884,12036 L 18884,11886"
   id="path70" />
 <path
   fill="none"
   stroke="rgb(179,179,179)"
   stroke-linejoin="round"
   d="M 18884,12036 L 18884,11886"
   id="path72" />
 <path
   fill="none"
   stroke="rgb(179,179,179)"
   stroke-linejoin="round"
   d="M 20304,12036 L 20304,11886"
   id="path74" />
 <path
   fill="none"
   stroke="rgb(179,179,179)"
   stroke-linejoin="round"
   d="M 20304,12036 L 20304,11886"
   id="path76" />
 <path
   fill="none"
   stroke="rgb(179,179,179)"
   stroke-linejoin="round"
   d="M 21725,12036 L 21725,11886"
   id="path78" />
 <path
   fill="none"
   stroke="rgb(179,179,179)"
   stroke-linejoin="round"
   d="M 21725,12036 L 21725,11886"
   id="path80" />
 <path
   fill="none"
   stroke="rgb(179,179,179)"
   stroke-linejoin="round"
   d="M 23145,12036 L 23145,11886"
   id="path82" />
 <path
   fill="none"
   stroke="rgb(179,179,179)"
   stroke-linejoin="round"
   d="M 23145,12036 L 23145,11886"
   id="path84" />
 <path
   fill="none"
   stroke="rgb(179,179,179)"
   stroke-linejoin="round"
   d="M 24566,12036 L 24566,11886"
   id="path86" />
 <path
   fill="none"
   stroke="rgb(179,179,179)"
   stroke-linejoin="round"
   d="M 24566,12036 L 24566,11886"
   id="path88" />
 <path
   fill="none"
   stroke="rgb(179,179,179)"
   stroke-linejoin="round"
   d="M 25986,12036 L 25986,11886"
   id="path90" />
 <path
   fill="none"
   stroke="rgb(179,179,179)"
   stroke-linejoin="round"
   d="M 25986,12036 L 25986,11886"
   id="path92" />
 <path
   fill="none"
   stroke="rgb(179,179,179)"
   stroke-linejoin="round"
   d="M 27407,12036 L 27407,11886"
   id="path94" />
 <path
   fill="none"
   stroke="rgb(179,179,179)"
   stroke-linejoin="round"
   d="M 27407,12036 L 27407,11886"
   id="path96" />
 <path
   fill="none"
   stroke="rgb(179,179,179)"
   stroke-linejoin="round"
   d="M 28828,12036 L 28828,11886"
   id="path98" />
 <path
   fill="none"
   stroke="rgb(179,179,179)"
   stroke-linejoin="round"
   d="M 28828,12036 L 28828,11886"
   id="path100" />
 <path
   fill="none"
   stroke="rgb(179,179,179)"
   stroke-linejoin="round"
   d="M 3259,11886 L 28828,11886"
   id="path102" />
 <path
   fill="none"
   stroke="rgb(179,179,179)"
   stroke-linejoin="round"
   d="M 3109,11886 L 3259,11886"
   id="path104" />
 <path
   fill="none"
   stroke="rgb(179,179,179)"
   stroke-linejoin="round"
   d="M 3109,11886 L 3259,11886"
   id="path106" />
 <path
   fill="none"
   stroke="rgb(179,179,179)"
   stroke-linejoin="round"
   d="M 3109,10642 L 3259,10642"
   id="path108" />
 <path
   fill="none"
   stroke="rgb(179,179,179)"
   stroke-linejoin="round"
   d="M 3109,10642 L 3259,10642"
   id="path110" />
 <path
   fill="none"
   stroke="rgb(179,179,179)"
   stroke-linejoin="round"
   d="M 3109,9399 L 3259,9399"
   id="path112" />
 <path
   fill="none"
   stroke="rgb(179,179,179)"
   stroke-linejoin="round"
   d="M 3109,9399 L 3259,9399"
   id="path114" />
 <path
   fill="none"
   stroke="rgb(179,179,179)"
   stroke-linejoin="round"
   d="M 3109,8156 L 3259,8156"
   id="path116" />
 <path
   fill="none"
   stroke="rgb(179,179,179)"
   stroke-linejoin="round"
   d="M 3109,8156 L 3259,8156"
   id="path118" />
 <path
   fill="none"
   stroke="rgb(179,179,179)"
   stroke-linejoin="round"
   d="M 3109,6913 L 3259,6913"
   id="path120" />
 <path
   fill="none"
   stroke="rgb(179,179,179)"
   stroke-linejoin="round"
   d="M 3109,6913 L 3259,6913"
   id="path122" />
 <path
   fill="none"
   stroke="rgb(179,179,179)"
   stroke-linejoin="round"
   d="M 3109,5670 L 3259,5670"
   id="path124" />
 <path
   fill="none"
   stroke="rgb(179,179,179)"
   stroke-linejoin="round"
   d="M 3109,5670 L 3259,5670"
   id="path126" />
 <path
   fill="none"
   stroke="rgb(179,179,179)"
   stroke-linejoin="round"
   d="M 3109,4426 L 3259,4426"
   id="path128" />
 <path
   fill="none"
   stroke="rgb(179,179,179)"
   stroke-linejoin="round"
   d="M 3109,4426 L 3259,4426"
   id="path130" />
 <path
   fill="none"
   stroke="rgb(179,179,179)"
   stroke-linejoin="round"
   d="M 3109,3183 L 3259,3183"
   id="path132" />
 <path
   fill="none"
   stroke="rgb(179,179,179)"
   stroke-linejoin="round"
   d="M 3109,3183 L 3259,3183"
   id="path134" />
 <path
   fill="none"
   stroke="rgb(179,179,179)"
   stroke-linejoin="round"
   d="M 3109,1940 L 3259,1940"
   id="path136" />
 <path
   fill="none"
   stroke="rgb(179,179,179)"
   stroke-linejoin="round"
   d="M 3109,1940 L 3259,1940"
   id="path138" />
 <path
   fill="none"
   stroke="rgb(179,179,179)"
   stroke-linejoin="round"
   d="M 3109,697 L 3259,697"
   id="path140" />
 <path
   fill="none"
   stroke="rgb(179,179,179)"
   stroke-linejoin="round"
   d="M 3109,697 L 3259,697"
   id="path142" />
 <path
   fill="none"
   stroke="rgb(179,179,179)"
   stroke-linejoin="round"
   d="M 3259,11886 L 3259,697"
   id="path144" />
 <path
   fill="none"
   stroke="rgb(255,66,14)"
   stroke-width="80"
   stroke-linejoin="round"
   d="M 3259,10454 L 4679,9827 6100,9108 7520,7861 8941,6127 10361,5888 11782,5264 13202,4605 14623,3797 16043,3144 17463,3853 18884,3775 20304,2849 21725,1589 28828,10849"
   id="path146"
   style="stroke-width:49.99999963;stroke-miterlimit:4;stroke-dasharray:none" />
 <path
   fill="rgb(255,66,14)"
   stroke="none"
   d="M 3134,10454 L 3259,10579 3384,10454 3259,10329 3134,10454 Z"
   id="path148" />
 <path
   fill="none"
   stroke="rgb(255,66,14)"
   stroke-linejoin="round"
   d="M 3134,10454 L 3259,10579 3384,10454 3259,10329 3134,10454 Z"
   id="path150" />
 <path
   fill="rgb(255,66,14)"
   stroke="none"
   d="M 4554,9827 L 4679,9952 4804,9827 4679,9702 4554,9827 Z"
   id="path152" />
 <path
   fill="none"
   stroke="rgb(255,66,14)"
   stroke-linejoin="round"
   d="M 4554,9827 L 4679,9952 4804,9827 4679,9702 4554,9827 Z"
   id="path154" />
 <path
   fill="rgb(255,66,14)"
   stroke="none"
   d="M 5975,9108 L 6100,9233 6225,9108 6100,8983 5975,9108 Z"
   id="path156" />
 <path
   fill="none"
   stroke="rgb(255,66,14)"
   stroke-linejoin="round"
   d="M 5975,9108 L 6100,9233 6225,9108 6100,8983 5975,9108 Z"
   id="path158" />
 <path
   fill="rgb(255,66,14)"
   stroke="none"
   d="M 7395,7861 L 7520,7986 7645,7861 7520,7736 7395,7861 Z"
   id="path160" />
 <path
   fill="none"
   stroke="rgb(255,66,14)"
   stroke-linejoin="round"
   d="M 7395,7861 L 7520,7986 7645,7861 7520,7736 7395,7861 Z"
   id="path162" />
 <path
   fill="rgb(255,66,14)"
   stroke="none"
   d="M 8816,6127 L 8941,6252 9066,6127 8941,6002 8816,6127 Z"
   id="path164" />
 <path
   fill="none"
   stroke="rgb(255,66,14)"
   stroke-linejoin="round"
   d="M 8816,6127 L 8941,6252 9066,6127 8941,6002 8816,6127 Z"
   id="path166" />
 <path
   fill="rgb(255,66,14)"
   stroke="none"
   d="M 10236,5888 L 10361,6013 10486,5888 10361,5763 10236,5888 Z"
   id="path168" />
 <path
   fill="none"
   stroke="rgb(255,66,14)"
   stroke-linejoin="round"
   d="M 10236,5888 L 10361,6013 10486,5888 10361,5763 10236,5888 Z"
   id="path170" />
 <path
   fill="rgb(255,66,14)"
   stroke="none"
   d="M 11657,5264 L 11782,5389 11907,5264 11782,5139 11657,5264 Z"
   id="path172" />
 <path
   fill="none"
   stroke="rgb(255,66,14)"
   stroke-linejoin="round"
   d="M 11657,5264 L 11782,5389 11907,5264 11782,5139 11657,5264 Z"
   id="path174" />
 <path
   fill="rgb(255,66,14)"
   stroke="none"
   d="M 13077,4605 L 13202,4730 13327,4605 13202,4480 13077,4605 Z"
   id="path176" />
 <path
   fill="none"
   stroke="rgb(255,66,14)"
   stroke-linejoin="round"
   d="M 13077,4605 L 13202,4730 13327,4605 13202,4480 13077,4605 Z"
   id="path178" />
 <path
   fill="rgb(255,66,14)"
   stroke="none"
   d="M 14498,3797 L 14623,3922 14748,3797 14623,3672 14498,3797 Z"
   id="path180" />
 <path
   fill="none"
   stroke="rgb(255,66,14)"
   stroke-linejoin="round"
   d="M 14498,3797 L 14623,3922 14748,3797 14623,3672 14498,3797 Z"
   id="path182" />
 <path
   fill="rgb(255,66,14)"
   stroke="none"
   d="M 15918,3144 L 16043,3269 16168,3144 16043,3019 15918,3144 Z"
   id="path184" />
 <path
   fill="none"
   stroke="rgb(255,66,14)"
   stroke-linejoin="round"
   d="M 15918,3144 L 16043,3269 16168,3144 16043,3019 15918,3144 Z"
   id="path186" />
 <path
   fill="rgb(255,66,14)"
   stroke="none"
   d="M 17338,3853 L 17463,3978 17588,3853 17463,3728 17338,3853 Z"
   id="path188" />
 <path
   fill="none"
   stroke="rgb(255,66,14)"
   stroke-linejoin="round"
   d="M 17338,3853 L 17463,3978 17588,3853 17463,3728 17338,3853 Z"
   id="path190" />
 <path
   fill="rgb(255,66,14)"
   stroke="none"
   d="M 18759,3775 L 18884,3900 19009,3775 18884,3650 18759,3775 Z"
   id="path192" />
 <path
   fill="none"
   stroke="rgb(255,66,14)"
   stroke-linejoin="round"
   d="M 18759,3775 L 18884,3900 19009,3775 18884,3650 18759,3775 Z"
   id="path194" />
 <path
   fill="rgb(255,66,14)"
   stroke="none"
   d="M 20179,2849 L 20304,2974 20429,2849 20304,2724 20179,2849 Z"
   id="path196" />
 <path
   fill="none"
   stroke="rgb(255,66,14)"
   stroke-linejoin="round"
   d="M 20179,2849 L 20304,2974 20429,2849 20304,2724 20179,2849 Z"
   id="path198" />
 <path
   fill="rgb(255,66,14)"
   stroke="none"
   d="M 21600,1589 L 21725,1714 21850,1589 21725,1464 21600,1589 Z"
   id="path200" />
 <path
   fill="none"
   stroke="rgb(255,66,14)"
   stroke-linejoin="round"
   d="M 21600,1589 L 21725,1714 21850,1589 21725,1464 21600,1589 Z"
   id="path202" />
 <path
   fill="rgb(255,66,14)"
   stroke="none"
   d="M 28703,10849 L 28828,10974 28953,10849 28828,10724 28703,10849 Z"
   id="path204" />
 <path
   fill="none"
   stroke="rgb(255,66,14)"
   stroke-linejoin="round"
   d="M 28703,10849 L 28828,10974 28953,10849 28828,10724 28703,10849 Z"
   id="path206" />
 <path
   fill="none"
   stroke="rgb(0,69,134)"
   stroke-width="80"
   stroke-linejoin="round"
   d="M 3259,10401 L 4679,10599 6100,10622 7520,10682 8941,10632 10361,10722 11782,10579 13202,10557 14623,10415 16043,10434 17463,10216 18884,10359 20304,10156 21725,10215 28828,9898"
   id="path208"
   style="stroke-width:49.99999963;stroke-miterlimit:4;stroke-dasharray:none" />
 <path
   fill="rgb(0,69,134)"
   stroke="none"
   d="M 3134,10276 L 3134,10526 3384,10526 3384,10276 3134,10276 Z"
   id="path210" />
 <path
   fill="none"
   stroke="rgb(0,69,134)"
   stroke-linejoin="round"
   d="M 3134,10276 L 3134,10526 3384,10526 3384,10276 3134,10276 Z"
   id="path212" />
 <path
   fill="rgb(0,69,134)"
   stroke="none"
   d="M 4554,10474 L 4554,10724 4804,10724 4804,10474 4554,10474 Z"
   id="path214" />
 <path
   fill="none"
   stroke="rgb(0,69,134)"
   stroke-linejoin="round"
   d="M 4554,10474 L 4554,10724 4804,10724 4804,10474 4554,10474 Z"
   id="path216" />
 <path
   fill="rgb(0,69,134)"
   stroke="none"
   d="M 5975,10497 L 5975,10747 6225,10747 6225,10497 5975,10497 Z"
   id="path218" />
 <path
   fill="none"
   stroke="rgb(0,69,134)"
   stroke-linejoin="round"
   d="M 5975,10497 L 5975,10747 6225,10747 6225,10497 5975,10497 Z"
   id="path220" />
 <path
   fill="rgb(0,69,134)"
   stroke="none"
   d="M 7395,10557 L 7395,10807 7645,10807 7645,10557 7395,10557 Z"
   id="path222" />
 <path
   fill="none"
   stroke="rgb(0,69,134)"
   stroke-linejoin="round"
   d="M 7395,10557 L 7395,10807 7645,10807 7645,10557 7395,10557 Z"
   id="path224" />
 <path
   fill="rgb(0,69,134)"
   stroke="none"
   d="M 8816,10507 L 8816,10757 9066,10757 9066,10507 8816,10507 Z"
   id="path226" />
 <path
   fill="none"
   stroke="rgb(0,69,134)"
   stroke-linejoin="round"
   d="M 8816,10507 L 8816,10757 9066,10757 9066,10507 8816,10507 Z"
   id="path228" />
 <path
   fill="rgb(0,69,134)"
   stroke="none"
   d="M 10236,10597 L 10236,10847 10486,10847 10486,10597 10236,10597 Z"
   id="path230" />
 <path
   fill="none"
   stroke="rgb(0,69,134)"
   stroke-linejoin="round"
   d="M 10236,10597 L 10236,10847 10486,10847 10486,10597 10236,10597 Z"
   id="path232" />
 <path
   fill="rgb(0,69,134)"
   stroke="none"
   d="M 11657,10454 L 11657,10704 11907,10704 11907,10454 11657,10454 Z"
   id="path234" />
 <path
   fill="none"
   stroke="rgb(0,69,134)"
   stroke-linejoin="round"
   d="M 11657,10454 L 11657,10704 11907,10704 11907,10454 11657,10454 Z"
   id="path236" />
 <path
   fill="rgb(0,69,134)"
   stroke="none"
   d="M 13077,10432 L 13077,10682 13327,10682 13327,10432 13077,10432 Z"
   id="path238" />
 <path
   fill="none"
   stroke="rgb(0,69,134)"
   stroke-linejoin="round"
   d="M 13077,10432 L 13077,10682 13327,10682 13327,10432 13077,10432 Z"
   id="path240" />
 <path
   fill="rgb(0,69,134)"
   stroke="none"
   d="M 14498,10290 L 14498,10540 14748,10540 14748,10290 14498,10290 Z"
   id="path242" />
 <path
   fill="none"
   stroke="rgb(0,69,134)"
   stroke-linejoin="round"
   d="M 14498,10290 L 14498,10540 14748,10540 14748,10290 14498,10290 Z"
   id="path244" />
 <path
   fill="rgb(0,69,134)"
   stroke="none"
   d="M 15918,10309 L 15918,10559 16168,10559 16168,10309 15918,10309 Z"
   id="path246" />
 <path
   fill="none"
   stroke="rgb(0,69,134)"
   stroke-linejoin="round"
   d="M 15918,10309 L 15918,10559 16168,10559 16168,10309 15918,10309 Z"
   id="path248" />
 <path
   fill="rgb(0,69,134)"
   stroke="none"
   d="M 17338,10091 L 17338,10341 17588,10341 17588,10091 17338,10091 Z"
   id="path250" />
 <path
   fill="none"
   stroke="rgb(0,69,134)"
   stroke-linejoin="round"
   d="M 17338,10091 L 17338,10341 17588,10341 17588,10091 17338,10091 Z"
   id="path252" />
 <path
   fill="rgb(0,69,134)"
   stroke="none"
   d="M 18759,10234 L 18759,10484 19009,10484 19009,10234 18759,10234 Z"
   id="path254" />
 <path
   fill="none"
   stroke="rgb(0,69,134)"
   stroke-linejoin="round"
   d="M 18759,10234 L 18759,10484 19009,10484 19009,10234 18759,10234 Z"
   id="path256" />
 <path
   fill="rgb(0,69,134)"
   stroke="none"
   d="M 20179,10031 L 20179,10281 20429,10281 20429,10031 20179,10031 Z"
   id="path258" />
 <path
   fill="none"
   stroke="rgb(0,69,134)"
   stroke-linejoin="round"
   d="M 20179,10031 L 20179,10281 20429,10281 20429,10031 20179,10031 Z"
   id="path260" />
 <path
   fill="rgb(0,69,134)"
   stroke="none"
   d="M 21600,10090 L 21600,10340 21850,10340 21850,10090 21600,10090 Z"
   id="path262" />
 <path
   fill="none"
   stroke="rgb(0,69,134)"
   stroke-linejoin="round"
   d="M 21600,10090 L 21600,10340 21850,10340 21850,10090 21600,10090 Z"
   id="path264" />
 <path
   fill="rgb(0,69,134)"
   stroke="none"
   d="M 28703,9773 L 28703,10023 28953,10023 28953,9773 28703,9773 Z"
   id="path266" />
 <path
   fill="none"
   stroke="rgb(0,69,134)"
   stroke-linejoin="round"
   d="M 28703,9773 L 28703,10023 28953,10023 28953,9773 28703,9773 Z"
   id="path268" />
 <text
   class="SVGTextShape"
   transform="rotate(-44.9 2602 13409)"
   id="text276"><tspan
     class="TextParagraph"
     font-family="Latin Modern Roman"
     font-size="564px"
     font-weight="400"
     id="tspan274"><tspan
       class="TextPosition"
       x="2602"
       y="13409"
       id="tspan272"><tspan
         fill="rgb(0,0,0)"
         stroke="none"
         id="tspan270">1950</tspan></tspan></tspan></text>
 <text
   class="SVGTextShape"
   transform="rotate(-44.9 4022 13409)"
   id="text284"><tspan
     class="TextParagraph"
     font-family="Latin Modern Roman"
     font-size="564px"
     font-weight="400"
     id="tspan282"><tspan
       class="TextPosition"
       x="4022"
       y="13409"
       id="tspan280"><tspan
         fill="rgb(0,0,0)"
         stroke="none"
         id="tspan278">1955</tspan></tspan></tspan></text>
 <text
   class="SVGTextShape"
   transform="rotate(-44.9 5443 13409)"
   id="text292"><tspan
     class="TextParagraph"
     font-family="Latin Modern Roman"
     font-size="564px"
     font-weight="400"
     id="tspan290"><tspan
       class="TextPosition"
       x="5443"
       y="13409"
       id="tspan288"><tspan
         fill="rgb(0,0,0)"
         stroke="none"
         id="tspan286">1960</tspan></tspan></tspan></text>
 <text
   class="SVGTextShape"
   transform="rotate(-44.9 6863 13409)"
   id="text300"><tspan
     class="TextParagraph"
     font-family="Latin Modern Roman"
     font-size="564px"
     font-weight="400"
     id="tspan298"><tspan
       class="TextPosition"
       x="6863"
       y="13409"
       id="tspan296"><tspan
         fill="rgb(0,0,0)"
         stroke="none"
         id="tspan294">1965</tspan></tspan></tspan></text>
 <text
   class="SVGTextShape"
   transform="rotate(-44.9 8284 13409)"
   id="text308"><tspan
     class="TextParagraph"
     font-family="Latin Modern Roman"
     font-size="564px"
     font-weight="400"
     id="tspan306"><tspan
       class="TextPosition"
       x="8284"
       y="13409"
       id="tspan304"><tspan
         fill="rgb(0,0,0)"
         stroke="none"
         id="tspan302">1970</tspan></tspan></tspan></text>
 <text
   class="SVGTextShape"
   transform="rotate(-44.9 9704 13409)"
   id="text316"><tspan
     class="TextParagraph"
     font-family="Latin Modern Roman"
     font-size="564px"
     font-weight="400"
     id="tspan314"><tspan
       class="TextPosition"
       x="9704"
       y="13409"
       id="tspan312"><tspan
         fill="rgb(0,0,0)"
         stroke="none"
         id="tspan310">1975</tspan></tspan></tspan></text>
 <text
   class="SVGTextShape"
   transform="rotate(-44.9 11125 13409)"
   id="text324"><tspan
     class="TextParagraph"
     font-family="Latin Modern Roman"
     font-size="564px"
     font-weight="400"
     id="tspan322"><tspan
       class="TextPosition"
       x="11125"
       y="13409"
       id="tspan320"><tspan
         fill="rgb(0,0,0)"
         stroke="none"
         id="tspan318">1980</tspan></tspan></tspan></text>
 <text
   class="SVGTextShape"
   transform="rotate(-44.9 12545 13409)"
   id="text332"><tspan
     class="TextParagraph"
     font-family="Latin Modern Roman"
     font-size="564px"
     font-weight="400"
     id="tspan330"><tspan
       class="TextPosition"
       x="12545"
       y="13409"
       id="tspan328"><tspan
         fill="rgb(0,0,0)"
         stroke="none"
         id="tspan326">1985</tspan></tspan></tspan></text>
 <text
   class="SVGTextShape"
   transform="rotate(-44.9 13966 13409)"
   id="text340"><tspan
     class="TextParagraph"
     font-family="Latin Modern Roman"
     font-size="564px"
     font-weight="400"
     id="tspan338"><tspan
       class="TextPosition"
       x="13966"
       y="13409"
       id="tspan336"><tspan
         fill="rgb(0,0,0)"
         stroke="none"
         id="tspan334">1990</tspan></tspan></tspan></text>
 <text
   class="SVGTextShape"
   transform="rotate(-44.9 15387 13409)"
   id="text348"><tspan
     class="TextParagraph"
     font-family="Latin Modern Roman"
     font-size="564px"
     font-weight="400"
     id="tspan346"><tspan
       class="TextPosition"
       x="15387"
       y="13409"
       id="tspan344"><tspan
         fill="rgb(0,0,0)"
         stroke="none"
         id="tspan342">1995</tspan></tspan></tspan></text>
 <text
   class="SVGTextShape"
   transform="rotate(-44.9 16807 13409)"
   id="text356"><tspan
     class="TextParagraph"
     font-family="Latin Modern Roman"
     font-size="564px"
     font-weight="400"
     id="tspan354"><tspan
       class="TextPosition"
       x="16807"
       y="13409"
       id="tspan352"><tspan
         fill="rgb(0,0,0)"
         stroke="none"
         id="tspan350">2000</tspan></tspan></tspan></text>
 <text
   class="SVGTextShape"
   transform="rotate(-44.9 18228 13409)"
   id="text364"><tspan
     class="TextParagraph"
     font-family="Latin Modern Roman"
     font-size="564px"
     font-weight="400"
     id="tspan362"><tspan
       class="TextPosition"
       x="18228"
       y="13409"
       id="tspan360"><tspan
         fill="rgb(0,0,0)"
         stroke="none"
         id="tspan358">2005</tspan></tspan></tspan></text>
 <text
   class="SVGTextShape"
   transform="rotate(-44.9 19648 13409)"
   id="text372"><tspan
     class="TextParagraph"
     font-family="Latin Modern Roman"
     font-size="564px"
     font-weight="400"
     id="tspan370"><tspan
       class="TextPosition"
       x="19648"
       y="13409"
       id="tspan368"><tspan
         fill="rgb(0,0,0)"
         stroke="none"
         id="tspan366">2010</tspan></tspan></tspan></text>
 <text
   class="SVGTextShape"
   transform="rotate(-44.9 21069 13409)"
   id="text380"><tspan
     class="TextParagraph"
     font-family="Latin Modern Roman"
     font-size="564px"
     font-weight="400"
     id="tspan378"><tspan
       class="TextPosition"
       x="21069"
       y="13409"
       id="tspan376"><tspan
         fill="rgb(0,0,0)"
         stroke="none"
         id="tspan374">2015</tspan></tspan></tspan></text>
 <text
   class="SVGTextShape"
   transform="rotate(-44.9 22489 13409)"
   id="text388"><tspan
     class="TextParagraph"
     font-family="Latin Modern Roman"
     font-size="564px"
     font-weight="400"
     id="tspan386"><tspan
       class="TextPosition"
       x="22489"
       y="13409"
       id="tspan384"><tspan
         fill="rgb(0,0,0)"
         stroke="none"
         id="tspan382">2020</tspan></tspan></tspan></text>
 <text
   class="SVGTextShape"
   transform="rotate(-44.9 23910 13409)"
   id="text396"><tspan
     class="TextParagraph"
     font-family="Latin Modern Roman"
     font-size="564px"
     font-weight="400"
     id="tspan394"><tspan
       class="TextPosition"
       x="23910"
       y="13409"
       id="tspan392"><tspan
         fill="rgb(0,0,0)"
         stroke="none"
         id="tspan390">2025</tspan></tspan></tspan></text>
 <text
   class="SVGTextShape"
   transform="rotate(-44.9 25330 13409)"
   id="text404"><tspan
     class="TextParagraph"
     font-family="Latin Modern Roman"
     font-size="564px"
     font-weight="400"
     id="tspan402"><tspan
       class="TextPosition"
       x="25330"
       y="13409"
       id="tspan400"><tspan
         fill="rgb(0,0,0)"
         stroke="none"
         id="tspan398">2030</tspan></tspan></tspan></text>
 <text
   class="SVGTextShape"
   transform="rotate(-44.9 26750 13409)"
   id="text412"><tspan
     class="TextParagraph"
     font-family="Latin Modern Roman"
     font-size="564px"
     font-weight="400"
     id="tspan410"><tspan
       class="TextPosition"
       x="26750"
       y="13409"
       id="tspan408"><tspan
         fill="rgb(0,0,0)"
         stroke="none"
         id="tspan406">2035</tspan></tspan></tspan></text>
 <text
   class="SVGTextShape"
   transform="rotate(-44.9 28171 13409)"
   id="text420"><tspan
     class="TextParagraph"
     font-family="Latin Modern Roman"
     font-size="564px"
     font-weight="400"
     id="tspan418"><tspan
       class="TextPosition"
       x="28171"
       y="13409"
       id="tspan416"><tspan
         fill="rgb(0,0,0)"
         stroke="none"
         id="tspan414">2040</tspan></tspan></tspan></text>
 <text
   class="SVGTextShape"
   id="text428"><tspan
     class="TextParagraph"
     font-family="Latin Modern Roman"
     font-size="564px"
     font-weight="400"
     id="tspan426"><tspan
       class="TextPosition"
       x="892"
       y="12125"
       id="tspan424"><tspan
         fill="rgb(0,0,0)"
         stroke="none"
         id="tspan422">0 GJ/ha</tspan></tspan></tspan></text>
 <text
   class="SVGTextShape"
   id="text436"><tspan
     class="TextParagraph"
     font-family="Latin Modern Roman"
     font-size="564px"
     font-weight="400"
     id="tspan434"><tspan
       class="TextPosition"
       x="601"
       y="10881"
       id="tspan432"><tspan
         fill="rgb(0,0,0)"
         stroke="none"
         id="tspan430">20 GJ/ha</tspan></tspan></tspan></text>
 <text
   class="SVGTextShape"
   id="text444"><tspan
     class="TextParagraph"
     font-family="Latin Modern Roman"
     font-size="564px"
     font-weight="400"
     id="tspan442"><tspan
       class="TextPosition"
       x="601"
       y="9638"
       id="tspan440"><tspan
         fill="rgb(0,0,0)"
         stroke="none"
         id="tspan438">40 GJ/ha</tspan></tspan></tspan></text>
 <text
   class="SVGTextShape"
   id="text452"><tspan
     class="TextParagraph"
     font-family="Latin Modern Roman"
     font-size="564px"
     font-weight="400"
     id="tspan450"><tspan
       class="TextPosition"
       x="601"
       y="8395"
       id="tspan448"><tspan
         fill="rgb(0,0,0)"
         stroke="none"
         id="tspan446">60 GJ/ha</tspan></tspan></tspan></text>
 <text
   class="SVGTextShape"
   id="text460"><tspan
     class="TextParagraph"
     font-family="Latin Modern Roman"
     font-size="564px"
     font-weight="400"
     id="tspan458"><tspan
       class="TextPosition"
       x="601"
       y="7151"
       id="tspan456"><tspan
         fill="rgb(0,0,0)"
         stroke="none"
         id="tspan454">80 GJ/ha</tspan></tspan></tspan></text>
 <text
   class="SVGTextShape"
   id="text468"><tspan
     class="TextParagraph"
     font-family="Latin Modern Roman"
     font-size="564px"
     font-weight="400"
     id="tspan466"><tspan
       class="TextPosition"
       x="310"
       y="5908"
       id="tspan464"><tspan
         fill="rgb(0,0,0)"
         stroke="none"
         id="tspan462">100 GJ/ha</tspan></tspan></tspan></text>
 <text
   class="SVGTextShape"
   id="text476"><tspan
     class="TextParagraph"
     font-family="Latin Modern Roman"
     font-size="564px"
     font-weight="400"
     id="tspan474"><tspan
       class="TextPosition"
       x="310"
       y="4664"
       id="tspan472"><tspan
         fill="rgb(0,0,0)"
         stroke="none"
         id="tspan470">120 GJ/ha</tspan></tspan></tspan></text>
 <text
   class="SVGTextShape"
   id="text484"><tspan
     class="TextParagraph"
     font-family="Latin Modern Roman"
     font-size="564px"
     font-weight="400"
     id="tspan482"><tspan
       class="TextPosition"
       x="310"
       y="3421"
       id="tspan480"><tspan
         fill="rgb(0,0,0)"
         stroke="none"
         id="tspan478">140 GJ/ha</tspan></tspan></tspan></text>
 <text
   class="SVGTextShape"
   id="text492"><tspan
     class="TextParagraph"
     font-family="Latin Modern Roman"
     font-size="564px"
     font-weight="400"
     id="tspan490"><tspan
       class="TextPosition"
       x="310"
       y="2178"
       id="tspan488"><tspan
         fill="rgb(0,0,0)"
         stroke="none"
         id="tspan486">160 GJ/ha</tspan></tspan></tspan></text>
 <text
   class="SVGTextShape"
   id="text500"><tspan
     class="TextParagraph"
     font-family="Latin Modern Roman"
     font-size="564px"
     font-weight="400"
     id="tspan498"><tspan
       class="TextPosition"
       x="310"
       y="935"
       id="tspan496"><tspan
         fill="rgb(0,0,0)"
         stroke="none"
         id="tspan494">180 GJ/ha</tspan></tspan></tspan></text>
 <path
   fill="none"
   stroke="rgb(255,66,14)"
   stroke-width="80"
   stroke-linejoin="round"
   d="M 11149,14502 L 11949,14502"
   id="path502" />
 <path
   fill="rgb(255,66,14)"
   stroke="none"
   d="M 11380,14502 L 11549,14671 11718,14502 11549,14333 11380,14502 Z"
   id="path504" />
 <path
   fill="none"
   stroke="rgb(255,66,14)"
   stroke-linejoin="round"
   d="M 11380,14502 L 11549,14671 11718,14502 11549,14333 11380,14502 Z"
   id="path506" />
 <path
   fill="none"
   stroke="rgb(0,69,134)"
   stroke-width="80"
   stroke-linejoin="round"
   d="M 14934,14502 L 15733,14502"
   id="path508" />
 <path
   fill="rgb(0,69,134)"
   stroke="none"
   d="M 15164,14333 L 15164,14671 15502,14671 15502,14333 15164,14333 Z"
   id="path510" />
 <path
   fill="none"
   stroke="rgb(0,69,134)"
   stroke-linejoin="round"
   d="M 15164,14333 L 15164,14671 15502,14671 15502,14333 15164,14333 Z"
   id="path512" />
 <text
   class="SVGTextShape"
   id="text520"><tspan
     class="TextParagraph"
     font-family="Latin Modern Roman Caps"
     font-size="564px"
     font-weight="400"
     id="tspan518"><tspan
       class="TextPosition"
       x="12073"
       y="14727"
       id="tspan516"><tspan
         fill="rgb(0,0,0)"
         stroke="none"
         id="tspan514">input/ha</tspan></tspan></tspan></text>
 <text
   class="SVGTextShape"
   id="text528"><tspan
     class="TextParagraph"
     font-family="Latin Modern Roman Caps"
     font-size="564px"
     font-weight="400"
     id="tspan526"><tspan
       class="TextPosition"
       x="15857"
       y="14727"
       id="tspan524"><tspan
         fill="rgb(0,0,0)"
         stroke="none"
         id="tspan522">output/ha</tspan></tspan></tspan></text>
</svg>
