<?xml version="1.0" encoding="UTF-8" standalone="no"?>
<svg
   width="80mm"
   height="40mm"
   viewBox="0 0 8000 4000"
   version="1.1"
   stroke-width="28.222"
   stroke-linejoin="round"
   xml:space="preserve"
   id="svg255"
   sodipodi:docname="meino smit - energie - volledig - verhouding.svg"
   inkscape:version="1.1.2 (0a00cf5339, 2022-02-04)"
   xmlns:inkscape="http://www.inkscape.org/namespaces/inkscape"
   xmlns:sodipodi="http://sodipodi.sourceforge.net/DTD/sodipodi-0.dtd"
   xmlns="http://www.w3.org/2000/svg"
   xmlns:svg="http://www.w3.org/2000/svg"><sodipodi:namedview
   id="namedview257"
   pagecolor="#ffffff"
   bordercolor="#666666"
   borderopacity="1.0"
   inkscape:pageshadow="2"
   inkscape:pageopacity="0.0"
   inkscape:pagecheckerboard="0"
   inkscape:document-units="mm"
   showgrid="false"
   inkscape:zoom="3.912526"
   inkscape:cx="151.3089"
   inkscape:cy="75.654449"
   inkscape:window-width="1876"
   inkscape:window-height="1051"
   inkscape:window-x="0"
   inkscape:window-y="0"
   inkscape:window-maximized="1"
   inkscape:current-layer="svg255" />
 <path
   fill="rgb(255,255,255)"
   stroke="none"
   d="M 4000,4000 L 0,4000 0,0 8000,0 8000,4000 4000,4000 Z"
   id="path2" />
 <path
   fill="none"
   stroke="rgb(0,0,0)"
   stroke-linejoin="round"
   d="M 4000,4000 L 0,4000 0,0 8000,0 8000,4000 4000,4000 Z"
   id="path4" />
 <defs
   id="defs11">
  <linearGradient
   id="Gradient_4"
   gradientUnits="userSpaceOnUse"
   x1="4196"
   y1="252"
   x2="4196"
   y2="3028">
   <stop
   offset="0.3"
   stop-color="rgb(204,0,0)"
   id="stop6" />
   <stop
   offset="1"
   stop-color="rgb(0,153,0)"
   id="stop8" />
  </linearGradient>
 </defs>
 <path
   fill="url(#Gradient_4)"
   stroke="rgb(179,179,179)"
   stroke-linejoin="round"
   d="M 4196,3028 L 658,3028 658,252 7735,252 7735,3028 4196,3028 Z"
   id="path13" />
 <path
   fill="none"
   stroke="rgb(179,179,179)"
   stroke-linejoin="round"
   d="M 7734,3027 L 657,3027"
   id="path15" />
 <path
   fill="none"
   stroke="rgb(179,179,179)"
   stroke-linejoin="round"
   d="M 7734,2233 L 657,2233"
   id="path17" />
 <path
   fill="none"
   stroke="rgb(179,179,179)"
   stroke-linejoin="round"
   d="M 7734,1441 L 657,1441"
   id="path19" />
 <path
   fill="none"
   stroke="rgb(179,179,179)"
   stroke-linejoin="round"
   d="M 7734,647 L 657,647"
   id="path21" />
 <path
   fill="none"
   stroke="rgb(179,179,179)"
   stroke-linejoin="round"
   d="M 657,3177 L 657,3027"
   id="path23" />
 <path
   fill="none"
   stroke="rgb(179,179,179)"
   stroke-linejoin="round"
   d="M 657,3177 L 657,3027"
   id="path25" />
 <path
   fill="none"
   stroke="rgb(179,179,179)"
   stroke-linejoin="round"
   d="M 1746,3177 L 1746,3027"
   id="path27" />
 <path
   fill="none"
   stroke="rgb(179,179,179)"
   stroke-linejoin="round"
   d="M 1746,3177 L 1746,3027"
   id="path29" />
 <path
   fill="none"
   stroke="rgb(179,179,179)"
   stroke-linejoin="round"
   d="M 2835,3177 L 2835,3027"
   id="path31" />
 <path
   fill="none"
   stroke="rgb(179,179,179)"
   stroke-linejoin="round"
   d="M 2835,3177 L 2835,3027"
   id="path33" />
 <path
   fill="none"
   stroke="rgb(179,179,179)"
   stroke-linejoin="round"
   d="M 3924,3177 L 3924,3027"
   id="path35" />
 <path
   fill="none"
   stroke="rgb(179,179,179)"
   stroke-linejoin="round"
   d="M 3924,3177 L 3924,3027"
   id="path37" />
 <path
   fill="none"
   stroke="rgb(179,179,179)"
   stroke-linejoin="round"
   d="M 5012,3177 L 5012,3027"
   id="path39" />
 <path
   fill="none"
   stroke="rgb(179,179,179)"
   stroke-linejoin="round"
   d="M 5012,3177 L 5012,3027"
   id="path41" />
 <path
   fill="none"
   stroke="rgb(179,179,179)"
   stroke-linejoin="round"
   d="M 6101,3177 L 6101,3027"
   id="path43" />
 <path
   fill="none"
   stroke="rgb(179,179,179)"
   stroke-linejoin="round"
   d="M 6101,3177 L 6101,3027"
   id="path45" />
 <path
   fill="none"
   stroke="rgb(179,179,179)"
   stroke-linejoin="round"
   d="M 7190,3177 L 7190,3027"
   id="path47" />
 <path
   fill="none"
   stroke="rgb(179,179,179)"
   stroke-linejoin="round"
   d="M 7190,3177 L 7190,3027"
   id="path49" />
 <path
   fill="none"
   stroke="rgb(179,179,179)"
   stroke-linejoin="round"
   d="M 1202,3139 L 1202,3027"
   id="path51" />
 <path
   fill="none"
   stroke="rgb(179,179,179)"
   stroke-linejoin="round"
   d="M 1202,3139 L 1202,3027"
   id="path53" />
 <path
   fill="none"
   stroke="rgb(179,179,179)"
   stroke-linejoin="round"
   d="M 2291,3139 L 2291,3027"
   id="path55" />
 <path
   fill="none"
   stroke="rgb(179,179,179)"
   stroke-linejoin="round"
   d="M 2291,3139 L 2291,3027"
   id="path57" />
 <path
   fill="none"
   stroke="rgb(179,179,179)"
   stroke-linejoin="round"
   d="M 3380,3139 L 3380,3027"
   id="path59" />
 <path
   fill="none"
   stroke="rgb(179,179,179)"
   stroke-linejoin="round"
   d="M 3380,3139 L 3380,3027"
   id="path61" />
 <path
   fill="none"
   stroke="rgb(179,179,179)"
   stroke-linejoin="round"
   d="M 4468,3139 L 4468,3027"
   id="path63" />
 <path
   fill="none"
   stroke="rgb(179,179,179)"
   stroke-linejoin="round"
   d="M 4468,3139 L 4468,3027"
   id="path65" />
 <path
   fill="none"
   stroke="rgb(179,179,179)"
   stroke-linejoin="round"
   d="M 5557,3139 L 5557,3027"
   id="path67" />
 <path
   fill="none"
   stroke="rgb(179,179,179)"
   stroke-linejoin="round"
   d="M 5557,3139 L 5557,3027"
   id="path69" />
 <path
   fill="none"
   stroke="rgb(179,179,179)"
   stroke-linejoin="round"
   d="M 6646,3139 L 6646,3027"
   id="path71" />
 <path
   fill="none"
   stroke="rgb(179,179,179)"
   stroke-linejoin="round"
   d="M 6646,3139 L 6646,3027"
   id="path73" />
 <path
   fill="none"
   stroke="rgb(179,179,179)"
   stroke-linejoin="round"
   d="M 7734,3139 L 7734,3027"
   id="path75" />
 <path
   fill="none"
   stroke="rgb(179,179,179)"
   stroke-linejoin="round"
   d="M 7734,3139 L 7734,3027"
   id="path77" />
 <path
   fill="none"
   stroke="rgb(179,179,179)"
   stroke-linejoin="round"
   d="M 657,3027 L 7734,3027"
   id="path79" />
 <path
   fill="none"
   stroke="rgb(179,179,179)"
   stroke-linejoin="round"
   d="M 507,3027 L 657,3027"
   id="path81" />
 <path
   fill="none"
   stroke="rgb(179,179,179)"
   stroke-linejoin="round"
   d="M 507,3027 L 657,3027"
   id="path83" />
 <path
   fill="none"
   stroke="rgb(179,179,179)"
   stroke-linejoin="round"
   d="M 507,2233 L 657,2233"
   id="path85" />
 <path
   fill="none"
   stroke="rgb(179,179,179)"
   stroke-linejoin="round"
   d="M 507,2233 L 657,2233"
   id="path87" />
 <path
   fill="none"
   stroke="rgb(179,179,179)"
   stroke-linejoin="round"
   d="M 507,1441 L 657,1441"
   id="path89" />
 <path
   fill="none"
   stroke="rgb(179,179,179)"
   stroke-linejoin="round"
   d="M 507,1441 L 657,1441"
   id="path91" />
 <path
   fill="none"
   stroke="rgb(179,179,179)"
   stroke-linejoin="round"
   d="M 507,647 L 657,647"
   id="path93" />
 <path
   fill="none"
   stroke="rgb(179,179,179)"
   stroke-linejoin="round"
   d="M 507,647 L 657,647"
   id="path95" />
 <path
   fill="none"
   stroke="rgb(179,179,179)"
   stroke-linejoin="round"
   d="M 657,3027 L 657,251"
   id="path97" />
 <path
   fill="none"
   stroke="rgb(255,211,32)"
   stroke-width="80"
   stroke-linejoin="round"
   d="M 657,2369 L 1202,2167 1746,2024 2291,1536 2835,1306 3380,1401 3924,1534 4468,1509 5012,1432 5557,1288 6101,1513 6646,1381 7190,1408 7734,1234"
   id="path99"
   style="stroke-width:49.99999862;stroke-miterlimit:4;stroke-dasharray:none" />
 <path
   fill="rgb(255,211,32)"
   stroke="none"
   d="M 532,2244 L 657,2494 782,2244 532,2244 Z"
   id="path101" />
 <path
   fill="none"
   stroke="rgb(255,211,32)"
   stroke-linejoin="round"
   d="M 532,2244 L 657,2494 782,2244 532,2244 Z"
   id="path103" />
 <path
   fill="rgb(255,211,32)"
   stroke="none"
   d="M 1077,2042 L 1202,2292 1327,2042 1077,2042 Z"
   id="path105" />
 <path
   fill="none"
   stroke="rgb(255,211,32)"
   stroke-linejoin="round"
   d="M 1077,2042 L 1202,2292 1327,2042 1077,2042 Z"
   id="path107" />
 <path
   fill="rgb(255,211,32)"
   stroke="none"
   d="M 1621,1900 L 1746,2149 1871,1900 1621,1900 Z"
   id="path109" />
 <path
   fill="none"
   stroke="rgb(255,211,32)"
   stroke-linejoin="round"
   d="M 1621,1900 L 1746,2149 1871,1900 1621,1900 Z"
   id="path111" />
 <path
   fill="rgb(255,211,32)"
   stroke="none"
   d="M 2166,1411 L 2291,1661 2416,1411 2166,1411 Z"
   id="path113" />
 <path
   fill="none"
   stroke="rgb(255,211,32)"
   stroke-linejoin="round"
   d="M 2166,1411 L 2291,1661 2416,1411 2166,1411 Z"
   id="path115" />
 <path
   fill="rgb(255,211,32)"
   stroke="none"
   d="M 2710,1181 L 2835,1431 2960,1181 2710,1181 Z"
   id="path117" />
 <path
   fill="none"
   stroke="rgb(255,211,32)"
   stroke-linejoin="round"
   d="M 2710,1181 L 2835,1431 2960,1181 2710,1181 Z"
   id="path119" />
 <path
   fill="rgb(255,211,32)"
   stroke="none"
   d="M 3255,1276 L 3380,1526 3505,1276 3255,1276 Z"
   id="path121" />
 <path
   fill="none"
   stroke="rgb(255,211,32)"
   stroke-linejoin="round"
   d="M 3255,1276 L 3380,1526 3505,1276 3255,1276 Z"
   id="path123" />
 <path
   fill="rgb(255,211,32)"
   stroke="none"
   d="M 3799,1409 L 3924,1659 4048,1409 3799,1409 Z"
   id="path125" />
 <path
   fill="none"
   stroke="rgb(255,211,32)"
   stroke-linejoin="round"
   d="M 3799,1409 L 3924,1659 4048,1409 3799,1409 Z"
   id="path127" />
 <path
   fill="rgb(255,211,32)"
   stroke="none"
   d="M 4343,1384 L 4468,1634 4593,1384 4343,1384 Z"
   id="path129" />
 <path
   fill="none"
   stroke="rgb(255,211,32)"
   stroke-linejoin="round"
   d="M 4343,1384 L 4468,1634 4593,1384 4343,1384 Z"
   id="path131" />
 <path
   fill="rgb(255,211,32)"
   stroke="none"
   d="M 4887,1307 L 5012,1557 5137,1307 4887,1307 Z"
   id="path133" />
 <path
   fill="none"
   stroke="rgb(255,211,32)"
   stroke-linejoin="round"
   d="M 4887,1307 L 5012,1557 5137,1307 4887,1307 Z"
   id="path135" />
 <path
   fill="rgb(255,211,32)"
   stroke="none"
   d="M 5432,1163 L 5557,1413 5682,1163 5432,1163 Z"
   id="path137" />
 <path
   fill="none"
   stroke="rgb(255,211,32)"
   stroke-linejoin="round"
   d="M 5432,1163 L 5557,1413 5682,1163 5432,1163 Z"
   id="path139" />
 <path
   fill="rgb(255,211,32)"
   stroke="none"
   d="M 5976,1388 L 6101,1638 6226,1388 5976,1388 Z"
   id="path141" />
 <path
   fill="none"
   stroke="rgb(255,211,32)"
   stroke-linejoin="round"
   d="M 5976,1388 L 6101,1638 6226,1388 5976,1388 Z"
   id="path143" />
 <path
   fill="rgb(255,211,32)"
   stroke="none"
   d="M 6521,1256 L 6646,1506 6771,1256 6521,1256 Z"
   id="path145" />
 <path
   fill="none"
   stroke="rgb(255,211,32)"
   stroke-linejoin="round"
   d="M 6521,1256 L 6646,1506 6771,1256 6521,1256 Z"
   id="path147" />
 <path
   fill="rgb(255,211,32)"
   stroke="none"
   d="M 7065,1283 L 7190,1533 7315,1283 7065,1283 Z"
   id="path149" />
 <path
   fill="none"
   stroke="rgb(255,211,32)"
   stroke-linejoin="round"
   d="M 7065,1283 L 7190,1533 7315,1283 7065,1283 Z"
   id="path151" />
 <path
   fill="rgb(255,211,32)"
   stroke="none"
   d="M 7609,1109 L 7734,1359 7859,1109 7609,1109 Z"
   id="path153" />
 <path
   fill="none"
   stroke="rgb(255,211,32)"
   stroke-linejoin="round"
   d="M 7609,1109 L 7734,1359 7859,1109 7609,1109 Z"
   id="path155" />
 <text
   class="SVGTextShape"
   id="text163"><tspan
     class="TextParagraph"
     font-family="Latin Modern Math"
     font-size="353px"
     font-weight="400"
     id="tspan161"><tspan
       class="TextPosition"
       x="287"
       y="3542"
       id="tspan159"><tspan
         fill="rgb(0,0,0)"
         stroke="none"
         id="tspan157">1950</tspan></tspan></tspan></text>
 <text
   class="SVGTextShape"
   id="text171"><tspan
     class="TextParagraph"
     font-family="Latin Modern Math"
     font-size="353px"
     font-weight="400"
     id="tspan169"><tspan
       class="TextPosition"
       x="1376"
       y="3542"
       id="tspan167"><tspan
         fill="rgb(0,0,0)"
         stroke="none"
         id="tspan165">1960</tspan></tspan></tspan></text>
 <text
   class="SVGTextShape"
   id="text179"><tspan
     class="TextParagraph"
     font-family="Latin Modern Math"
     font-size="353px"
     font-weight="400"
     id="tspan177"><tspan
       class="TextPosition"
       x="2464"
       y="3542"
       id="tspan175"><tspan
         fill="rgb(0,0,0)"
         stroke="none"
         id="tspan173">1970</tspan></tspan></tspan></text>
 <text
   class="SVGTextShape"
   id="text187"><tspan
     class="TextParagraph"
     font-family="Latin Modern Math"
     font-size="353px"
     font-weight="400"
     id="tspan185"><tspan
       class="TextPosition"
       x="3553"
       y="3542"
       id="tspan183"><tspan
         fill="rgb(0,0,0)"
         stroke="none"
         id="tspan181">1980</tspan></tspan></tspan></text>
 <text
   class="SVGTextShape"
   id="text195"><tspan
     class="TextParagraph"
     font-family="Latin Modern Math"
     font-size="353px"
     font-weight="400"
     id="tspan193"><tspan
       class="TextPosition"
       x="4642"
       y="3542"
       id="tspan191"><tspan
         fill="rgb(0,0,0)"
         stroke="none"
         id="tspan189">1990</tspan></tspan></tspan></text>
 <text
   class="SVGTextShape"
   id="text203"><tspan
     class="TextParagraph"
     font-family="Latin Modern Math"
     font-size="353px"
     font-weight="400"
     id="tspan201"><tspan
       class="TextPosition"
       x="5731"
       y="3542"
       id="tspan199"><tspan
         fill="rgb(0,0,0)"
         stroke="none"
         id="tspan197">2000</tspan></tspan></tspan></text>
 <text
   class="SVGTextShape"
   id="text211"><tspan
     class="TextParagraph"
     font-family="Latin Modern Math"
     font-size="353px"
     font-weight="400"
     id="tspan209"><tspan
       class="TextPosition"
       x="6819"
       y="3542"
       id="tspan207"><tspan
         fill="rgb(0,0,0)"
         stroke="none"
         id="tspan205">2010</tspan></tspan></tspan></text>
 <text
   class="SVGTextShape"
   id="text219"><tspan
     class="TextParagraph"
     font-family="Latin Modern Math"
     font-size="353px"
     font-weight="400"
     id="tspan217"><tspan
       class="TextPosition"
       x="222"
       y="3120"
       id="tspan215"><tspan
         fill="rgb(0,0,0)"
         stroke="none"
         id="tspan213">0</tspan></tspan></tspan></text>
 <text
   class="SVGTextShape"
   id="text227"><tspan
     class="TextParagraph"
     font-family="Latin Modern Math"
     font-size="353px"
     font-weight="400"
     id="tspan225"><tspan
       class="TextPosition"
       x="222"
       y="2327"
       id="tspan223"><tspan
         fill="rgb(0,0,0)"
         stroke="none"
         id="tspan221">1</tspan></tspan></tspan></text>
 <text
   class="SVGTextShape"
   id="text235"><tspan
     class="TextParagraph"
     font-family="Latin Modern Math"
     font-size="353px"
     font-weight="400"
     id="tspan233"><tspan
       class="TextPosition"
       x="222"
       y="1534"
       id="tspan231"><tspan
         fill="rgb(0,0,0)"
         stroke="none"
         id="tspan229">2</tspan></tspan></tspan></text>
 <text
   class="SVGTextShape"
   id="text243"><tspan
     class="TextParagraph"
     font-family="Latin Modern Math"
     font-size="353px"
     font-weight="400"
     id="tspan241"><tspan
       class="TextPosition"
       x="222"
       y="741"
       id="tspan239"><tspan
         fill="rgb(0,0,0)"
         stroke="none"
         id="tspan237">3</tspan></tspan></tspan></text>
 <path
   fill="rgb(255,255,255)"
   fill-opacity="0.698"
   stroke="rgb(255,255,255)"
   stroke-opacity="0.698"
   d="M 1831,944 L 774,944 774,387 2888,387 2888,944 1831,944 Z"
   id="path245" />
 <text
   class="SVGTextShape"
   id="text253"><tspan
     class="TextParagraph"
     font-family="Latin Modern Math"
     font-size="353px"
     font-weight="400"
     id="tspan251"><tspan
       class="TextPosition"
       x="839"
       y="759"
       id="tspan249"><tspan
         fill="rgb(0,0,0)"
         stroke="none"
         id="tspan247">input/output</tspan></tspan></tspan></text>
</svg>
