<?xml version="1.0" encoding="UTF-8"?>
<!DOCTYPE svg PUBLIC "-//W3C//DTD SVG 1.1//EN" "http://www.w3.org/Graphics/SVG/1.1/DTD/svg11.dtd">
<svg width="150mm" height="75mm" viewBox="0 0 15000 7500" version="1.1" xmlns="http://www.w3.org/2000/svg" xmlns:xlink="http://www.w3.org/1999/xlink" stroke-width="28.222" stroke-linejoin="round" xml:space="preserve">
 <path fill="rgb(255,255,255)" stroke="none" d="M 7500,7500 L 0,7500 0,0 15000,0 15000,7500 7500,7500 Z"/>
 <path fill="none" stroke="rgb(179,179,179)" stroke-linejoin="round" d="M 6278,6370 L 1107,6370 1107,350 11448,350 11448,6370 6278,6370 Z"/>
 <path fill="none" stroke="rgb(179,179,179)" stroke-linejoin="round" d="M 11448,6369 L 1107,6369"/>
 <path fill="none" stroke="rgb(179,179,179)" stroke-linejoin="round" d="M 11448,5508 L 1107,5508"/>
 <path fill="none" stroke="rgb(179,179,179)" stroke-linejoin="round" d="M 11448,4648 L 1107,4648"/>
 <path fill="none" stroke="rgb(179,179,179)" stroke-linejoin="round" d="M 11448,3788 L 1107,3788"/>
 <path fill="none" stroke="rgb(179,179,179)" stroke-linejoin="round" d="M 11448,2929 L 1107,2929"/>
 <path fill="none" stroke="rgb(179,179,179)" stroke-linejoin="round" d="M 11448,2069 L 1107,2069"/>
 <path fill="none" stroke="rgb(179,179,179)" stroke-linejoin="round" d="M 11448,1209 L 1107,1209"/>
 <path fill="none" stroke="rgb(179,179,179)" stroke-linejoin="round" d="M 11448,349 L 1107,349"/>
 <path fill="none" stroke="rgb(179,179,179)" stroke-linejoin="round" d="M 1107,6519 L 1107,6369"/>
 <path fill="none" stroke="rgb(179,179,179)" stroke-linejoin="round" d="M 1107,6519 L 1107,6369"/>
 <path fill="none" stroke="rgb(179,179,179)" stroke-linejoin="round" d="M 1902,6519 L 1902,6369"/>
 <path fill="none" stroke="rgb(179,179,179)" stroke-linejoin="round" d="M 1902,6519 L 1902,6369"/>
 <path fill="none" stroke="rgb(179,179,179)" stroke-linejoin="round" d="M 2698,6519 L 2698,6369"/>
 <path fill="none" stroke="rgb(179,179,179)" stroke-linejoin="round" d="M 2698,6519 L 2698,6369"/>
 <path fill="none" stroke="rgb(179,179,179)" stroke-linejoin="round" d="M 3493,6519 L 3493,6369"/>
 <path fill="none" stroke="rgb(179,179,179)" stroke-linejoin="round" d="M 3493,6519 L 3493,6369"/>
 <path fill="none" stroke="rgb(179,179,179)" stroke-linejoin="round" d="M 4289,6519 L 4289,6369"/>
 <path fill="none" stroke="rgb(179,179,179)" stroke-linejoin="round" d="M 4289,6519 L 4289,6369"/>
 <path fill="none" stroke="rgb(179,179,179)" stroke-linejoin="round" d="M 5084,6519 L 5084,6369"/>
 <path fill="none" stroke="rgb(179,179,179)" stroke-linejoin="round" d="M 5084,6519 L 5084,6369"/>
 <path fill="none" stroke="rgb(179,179,179)" stroke-linejoin="round" d="M 5880,6519 L 5880,6369"/>
 <path fill="none" stroke="rgb(179,179,179)" stroke-linejoin="round" d="M 5880,6519 L 5880,6369"/>
 <path fill="none" stroke="rgb(179,179,179)" stroke-linejoin="round" d="M 6675,6519 L 6675,6369"/>
 <path fill="none" stroke="rgb(179,179,179)" stroke-linejoin="round" d="M 6675,6519 L 6675,6369"/>
 <path fill="none" stroke="rgb(179,179,179)" stroke-linejoin="round" d="M 7471,6519 L 7471,6369"/>
 <path fill="none" stroke="rgb(179,179,179)" stroke-linejoin="round" d="M 7471,6519 L 7471,6369"/>
 <path fill="none" stroke="rgb(179,179,179)" stroke-linejoin="round" d="M 8265,6519 L 8265,6369"/>
 <path fill="none" stroke="rgb(179,179,179)" stroke-linejoin="round" d="M 8265,6519 L 8265,6369"/>
 <path fill="none" stroke="rgb(179,179,179)" stroke-linejoin="round" d="M 9061,6519 L 9061,6369"/>
 <path fill="none" stroke="rgb(179,179,179)" stroke-linejoin="round" d="M 9061,6519 L 9061,6369"/>
 <path fill="none" stroke="rgb(179,179,179)" stroke-linejoin="round" d="M 9856,6519 L 9856,6369"/>
 <path fill="none" stroke="rgb(179,179,179)" stroke-linejoin="round" d="M 9856,6519 L 9856,6369"/>
 <path fill="none" stroke="rgb(179,179,179)" stroke-linejoin="round" d="M 10652,6519 L 10652,6369"/>
 <path fill="none" stroke="rgb(179,179,179)" stroke-linejoin="round" d="M 10652,6519 L 10652,6369"/>
 <path fill="none" stroke="rgb(179,179,179)" stroke-linejoin="round" d="M 11448,6519 L 11448,6369"/>
 <path fill="none" stroke="rgb(179,179,179)" stroke-linejoin="round" d="M 11448,6519 L 11448,6369"/>
 <path fill="none" stroke="rgb(179,179,179)" stroke-linejoin="round" d="M 1107,6369 L 11448,6369"/>
 <path fill="none" stroke="rgb(179,179,179)" stroke-linejoin="round" d="M 957,6369 L 1107,6369"/>
 <path fill="none" stroke="rgb(179,179,179)" stroke-linejoin="round" d="M 957,6369 L 1107,6369"/>
 <path fill="none" stroke="rgb(179,179,179)" stroke-linejoin="round" d="M 957,5508 L 1107,5508"/>
 <path fill="none" stroke="rgb(179,179,179)" stroke-linejoin="round" d="M 957,5508 L 1107,5508"/>
 <path fill="none" stroke="rgb(179,179,179)" stroke-linejoin="round" d="M 957,4648 L 1107,4648"/>
 <path fill="none" stroke="rgb(179,179,179)" stroke-linejoin="round" d="M 957,4648 L 1107,4648"/>
 <path fill="none" stroke="rgb(179,179,179)" stroke-linejoin="round" d="M 957,3788 L 1107,3788"/>
 <path fill="none" stroke="rgb(179,179,179)" stroke-linejoin="round" d="M 957,3788 L 1107,3788"/>
 <path fill="none" stroke="rgb(179,179,179)" stroke-linejoin="round" d="M 957,2929 L 1107,2929"/>
 <path fill="none" stroke="rgb(179,179,179)" stroke-linejoin="round" d="M 957,2929 L 1107,2929"/>
 <path fill="none" stroke="rgb(179,179,179)" stroke-linejoin="round" d="M 957,2069 L 1107,2069"/>
 <path fill="none" stroke="rgb(179,179,179)" stroke-linejoin="round" d="M 957,2069 L 1107,2069"/>
 <path fill="none" stroke="rgb(179,179,179)" stroke-linejoin="round" d="M 957,1209 L 1107,1209"/>
 <path fill="none" stroke="rgb(179,179,179)" stroke-linejoin="round" d="M 957,1209 L 1107,1209"/>
 <path fill="none" stroke="rgb(179,179,179)" stroke-linejoin="round" d="M 957,349 L 1107,349"/>
 <path fill="none" stroke="rgb(179,179,179)" stroke-linejoin="round" d="M 957,349 L 1107,349"/>
 <path fill="none" stroke="rgb(179,179,179)" stroke-linejoin="round" d="M 1107,6369 L 1107,349"/>
 <path fill="none" stroke="rgb(0,204,204)" stroke-width="50" stroke-linejoin="round" d="M 1107,1579 L 1902,1449 2698,1404 3493,2329 4289,1891 5084,2124 5880,2650 6675,2470 7471,2443 8265,2552 9061,2447 9856,2671 10652,2811 11448,3042"/>
 <path fill="rgb(0,204,204)" stroke="none" d="M 982,1454 L 982,1704 1232,1704 1232,1454 982,1454 Z"/>
 <path fill="none" stroke="rgb(0,204,204)" stroke-linejoin="round" d="M 982,1454 L 982,1704 1232,1704 1232,1454 982,1454 Z"/>
 <path fill="rgb(0,204,204)" stroke="none" d="M 1777,1324 L 1777,1574 2027,1574 2027,1324 1777,1324 Z"/>
 <path fill="none" stroke="rgb(0,204,204)" stroke-linejoin="round" d="M 1777,1324 L 1777,1574 2027,1574 2027,1324 1777,1324 Z"/>
 <path fill="rgb(0,204,204)" stroke="none" d="M 2573,1279 L 2573,1529 2823,1529 2823,1279 2573,1279 Z"/>
 <path fill="none" stroke="rgb(0,204,204)" stroke-linejoin="round" d="M 2573,1279 L 2573,1529 2823,1529 2823,1279 2573,1279 Z"/>
 <path fill="rgb(0,204,204)" stroke="none" d="M 3368,2204 L 3368,2454 3618,2454 3618,2204 3368,2204 Z"/>
 <path fill="none" stroke="rgb(0,204,204)" stroke-linejoin="round" d="M 3368,2204 L 3368,2454 3618,2454 3618,2204 3368,2204 Z"/>
 <path fill="rgb(0,204,204)" stroke="none" d="M 4164,1766 L 4164,2016 4414,2016 4414,1766 4164,1766 Z"/>
 <path fill="none" stroke="rgb(0,204,204)" stroke-linejoin="round" d="M 4164,1766 L 4164,2016 4414,2016 4414,1766 4164,1766 Z"/>
 <path fill="rgb(0,204,204)" stroke="none" d="M 4959,1999 L 4959,2249 5209,2249 5209,1999 4959,1999 Z"/>
 <path fill="none" stroke="rgb(0,204,204)" stroke-linejoin="round" d="M 4959,1999 L 4959,2249 5209,2249 5209,1999 4959,1999 Z"/>
 <path fill="rgb(0,204,204)" stroke="none" d="M 5755,2525 L 5755,2775 6005,2775 6005,2525 5755,2525 Z"/>
 <path fill="none" stroke="rgb(0,204,204)" stroke-linejoin="round" d="M 5755,2525 L 5755,2775 6005,2775 6005,2525 5755,2525 Z"/>
 <path fill="rgb(0,204,204)" stroke="none" d="M 6550,2345 L 6550,2595 6800,2595 6800,2345 6550,2345 Z"/>
 <path fill="none" stroke="rgb(0,204,204)" stroke-linejoin="round" d="M 6550,2345 L 6550,2595 6800,2595 6800,2345 6550,2345 Z"/>
 <path fill="rgb(0,204,204)" stroke="none" d="M 7346,2318 L 7346,2568 7595,2568 7595,2318 7346,2318 Z"/>
 <path fill="none" stroke="rgb(0,204,204)" stroke-linejoin="round" d="M 7346,2318 L 7346,2568 7595,2568 7595,2318 7346,2318 Z"/>
 <path fill="rgb(0,204,204)" stroke="none" d="M 8140,2427 L 8140,2677 8390,2677 8390,2427 8140,2427 Z"/>
 <path fill="none" stroke="rgb(0,204,204)" stroke-linejoin="round" d="M 8140,2427 L 8140,2677 8390,2677 8390,2427 8140,2427 Z"/>
 <path fill="rgb(0,204,204)" stroke="none" d="M 8936,2322 L 8936,2572 9186,2572 9186,2322 8936,2322 Z"/>
 <path fill="none" stroke="rgb(0,204,204)" stroke-linejoin="round" d="M 8936,2322 L 8936,2572 9186,2572 9186,2322 8936,2322 Z"/>
 <path fill="rgb(0,204,204)" stroke="none" d="M 9731,2546 L 9731,2796 9981,2796 9981,2546 9731,2546 Z"/>
 <path fill="none" stroke="rgb(0,204,204)" stroke-linejoin="round" d="M 9731,2546 L 9731,2796 9981,2796 9981,2546 9731,2546 Z"/>
 <path fill="rgb(0,204,204)" stroke="none" d="M 10527,2686 L 10527,2936 10777,2936 10777,2686 10527,2686 Z"/>
 <path fill="none" stroke="rgb(0,204,204)" stroke-linejoin="round" d="M 10527,2686 L 10527,2936 10777,2936 10777,2686 10527,2686 Z"/>
 <path fill="rgb(0,204,204)" stroke="none" d="M 11323,2917 L 11323,3167 11573,3167 11573,2917 11323,2917 Z"/>
 <path fill="none" stroke="rgb(0,204,204)" stroke-linejoin="round" d="M 11323,2917 L 11323,3167 11573,3167 11573,2917 11323,2917 Z"/>
 <path fill="none" stroke="rgb(102,0,255)" stroke-width="50" stroke-linejoin="round" d="M 1107,3351 L 1902,3449 2698,3560 3493,2914 4289,3242 5084,2877 5880,2257 6675,2471 7471,2593 8265,2489 9061,2689 9856,2539 10652,2512 11448,2360"/>
 <path fill="rgb(102,0,255)" stroke="none" d="M 982,3351 L 1107,3476 1232,3351 1107,3226 982,3351 Z"/>
 <path fill="none" stroke="rgb(102,0,255)" stroke-linejoin="round" d="M 982,3351 L 1107,3476 1232,3351 1107,3226 982,3351 Z"/>
 <path fill="rgb(102,0,255)" stroke="none" d="M 1777,3449 L 1902,3574 2027,3449 1902,3324 1777,3449 Z"/>
 <path fill="none" stroke="rgb(102,0,255)" stroke-linejoin="round" d="M 1777,3449 L 1902,3574 2027,3449 1902,3324 1777,3449 Z"/>
 <path fill="rgb(102,0,255)" stroke="none" d="M 2573,3560 L 2698,3685 2823,3560 2698,3435 2573,3560 Z"/>
 <path fill="none" stroke="rgb(102,0,255)" stroke-linejoin="round" d="M 2573,3560 L 2698,3685 2823,3560 2698,3435 2573,3560 Z"/>
 <path fill="rgb(102,0,255)" stroke="none" d="M 3368,2914 L 3493,3039 3618,2914 3493,2789 3368,2914 Z"/>
 <path fill="none" stroke="rgb(102,0,255)" stroke-linejoin="round" d="M 3368,2914 L 3493,3039 3618,2914 3493,2789 3368,2914 Z"/>
 <path fill="rgb(102,0,255)" stroke="none" d="M 4164,3242 L 4289,3367 4414,3242 4289,3117 4164,3242 Z"/>
 <path fill="none" stroke="rgb(102,0,255)" stroke-linejoin="round" d="M 4164,3242 L 4289,3367 4414,3242 4289,3117 4164,3242 Z"/>
 <path fill="rgb(102,0,255)" stroke="none" d="M 4959,2877 L 5084,3002 5209,2877 5084,2752 4959,2877 Z"/>
 <path fill="none" stroke="rgb(102,0,255)" stroke-linejoin="round" d="M 4959,2877 L 5084,3002 5209,2877 5084,2752 4959,2877 Z"/>
 <path fill="rgb(102,0,255)" stroke="none" d="M 5755,2257 L 5880,2382 6005,2257 5880,2132 5755,2257 Z"/>
 <path fill="none" stroke="rgb(102,0,255)" stroke-linejoin="round" d="M 5755,2257 L 5880,2382 6005,2257 5880,2132 5755,2257 Z"/>
 <path fill="rgb(102,0,255)" stroke="none" d="M 6550,2471 L 6675,2596 6800,2471 6675,2346 6550,2471 Z"/>
 <path fill="none" stroke="rgb(102,0,255)" stroke-linejoin="round" d="M 6550,2471 L 6675,2596 6800,2471 6675,2346 6550,2471 Z"/>
 <path fill="rgb(102,0,255)" stroke="none" d="M 7346,2593 L 7471,2718 7595,2593 7471,2468 7346,2593 Z"/>
 <path fill="none" stroke="rgb(102,0,255)" stroke-linejoin="round" d="M 7346,2593 L 7471,2718 7595,2593 7471,2468 7346,2593 Z"/>
 <path fill="rgb(102,0,255)" stroke="none" d="M 8140,2489 L 8265,2614 8390,2489 8265,2364 8140,2489 Z"/>
 <path fill="none" stroke="rgb(102,0,255)" stroke-linejoin="round" d="M 8140,2489 L 8265,2614 8390,2489 8265,2364 8140,2489 Z"/>
 <path fill="rgb(102,0,255)" stroke="none" d="M 8936,2689 L 9061,2814 9186,2689 9061,2564 8936,2689 Z"/>
 <path fill="none" stroke="rgb(102,0,255)" stroke-linejoin="round" d="M 8936,2689 L 9061,2814 9186,2689 9061,2564 8936,2689 Z"/>
 <path fill="rgb(102,0,255)" stroke="none" d="M 9731,2539 L 9856,2664 9981,2539 9856,2414 9731,2539 Z"/>
 <path fill="none" stroke="rgb(102,0,255)" stroke-linejoin="round" d="M 9731,2539 L 9856,2664 9981,2539 9856,2414 9731,2539 Z"/>
 <path fill="rgb(102,0,255)" stroke="none" d="M 10527,2512 L 10652,2637 10777,2512 10652,2387 10527,2512 Z"/>
 <path fill="none" stroke="rgb(102,0,255)" stroke-linejoin="round" d="M 10527,2512 L 10652,2637 10777,2512 10652,2387 10527,2512 Z"/>
 <path fill="rgb(102,0,255)" stroke="none" d="M 11323,2360 L 11448,2485 11573,2360 11448,2235 11323,2360 Z"/>
 <path fill="none" stroke="rgb(102,0,255)" stroke-linejoin="round" d="M 11323,2360 L 11448,2485 11573,2360 11448,2235 11323,2360 Z"/>
 <path fill="none" stroke="rgb(255,211,32)" stroke-width="50" stroke-linejoin="round" d="M 1107,5576 L 1902,5608 2698,5542 3493,5263 4289,5373 5084,5505 5880,5598 6675,5565 7471,5470 8265,5465 9061,5371 9856,5296 10652,5183 11448,5104"/>
 <path fill="rgb(255,211,32)" stroke="none" d="M 982,5451 L 1107,5701 1232,5451 982,5451 Z"/>
 <path fill="none" stroke="rgb(255,211,32)" stroke-linejoin="round" d="M 982,5451 L 1107,5701 1232,5451 982,5451 Z"/>
 <path fill="rgb(255,211,32)" stroke="none" d="M 1777,5483 L 1902,5733 2027,5483 1777,5483 Z"/>
 <path fill="none" stroke="rgb(255,211,32)" stroke-linejoin="round" d="M 1777,5483 L 1902,5733 2027,5483 1777,5483 Z"/>
 <path fill="rgb(255,211,32)" stroke="none" d="M 2573,5417 L 2698,5667 2823,5417 2573,5417 Z"/>
 <path fill="none" stroke="rgb(255,211,32)" stroke-linejoin="round" d="M 2573,5417 L 2698,5667 2823,5417 2573,5417 Z"/>
 <path fill="rgb(255,211,32)" stroke="none" d="M 3368,5138 L 3493,5388 3618,5138 3368,5138 Z"/>
 <path fill="none" stroke="rgb(255,211,32)" stroke-linejoin="round" d="M 3368,5138 L 3493,5388 3618,5138 3368,5138 Z"/>
 <path fill="rgb(255,211,32)" stroke="none" d="M 4164,5248 L 4289,5498 4414,5248 4164,5248 Z"/>
 <path fill="none" stroke="rgb(255,211,32)" stroke-linejoin="round" d="M 4164,5248 L 4289,5498 4414,5248 4164,5248 Z"/>
 <path fill="rgb(255,211,32)" stroke="none" d="M 4959,5380 L 5084,5630 5209,5380 4959,5380 Z"/>
 <path fill="none" stroke="rgb(255,211,32)" stroke-linejoin="round" d="M 4959,5380 L 5084,5630 5209,5380 4959,5380 Z"/>
 <path fill="rgb(255,211,32)" stroke="none" d="M 5755,5473 L 5880,5723 6005,5473 5755,5473 Z"/>
 <path fill="none" stroke="rgb(255,211,32)" stroke-linejoin="round" d="M 5755,5473 L 5880,5723 6005,5473 5755,5473 Z"/>
 <path fill="rgb(255,211,32)" stroke="none" d="M 6550,5440 L 6675,5690 6800,5440 6550,5440 Z"/>
 <path fill="none" stroke="rgb(255,211,32)" stroke-linejoin="round" d="M 6550,5440 L 6675,5690 6800,5440 6550,5440 Z"/>
 <path fill="rgb(255,211,32)" stroke="none" d="M 7346,5345 L 7471,5595 7595,5345 7346,5345 Z"/>
 <path fill="none" stroke="rgb(255,211,32)" stroke-linejoin="round" d="M 7346,5345 L 7471,5595 7595,5345 7346,5345 Z"/>
 <path fill="rgb(255,211,32)" stroke="none" d="M 8140,5340 L 8265,5590 8390,5340 8140,5340 Z"/>
 <path fill="none" stroke="rgb(255,211,32)" stroke-linejoin="round" d="M 8140,5340 L 8265,5590 8390,5340 8140,5340 Z"/>
 <path fill="rgb(255,211,32)" stroke="none" d="M 8936,5246 L 9061,5496 9186,5246 8936,5246 Z"/>
 <path fill="none" stroke="rgb(255,211,32)" stroke-linejoin="round" d="M 8936,5246 L 9061,5496 9186,5246 8936,5246 Z"/>
 <path fill="rgb(255,211,32)" stroke="none" d="M 9731,5171 L 9856,5421 9981,5171 9731,5171 Z"/>
 <path fill="none" stroke="rgb(255,211,32)" stroke-linejoin="round" d="M 9731,5171 L 9856,5421 9981,5171 9731,5171 Z"/>
 <path fill="rgb(255,211,32)" stroke="none" d="M 10527,5058 L 10652,5308 10777,5058 10527,5058 Z"/>
 <path fill="none" stroke="rgb(255,211,32)" stroke-linejoin="round" d="M 10527,5058 L 10652,5308 10777,5058 10527,5058 Z"/>
 <path fill="rgb(255,211,32)" stroke="none" d="M 11323,4979 L 11448,5229 11573,4979 11323,4979 Z"/>
 <path fill="none" stroke="rgb(255,211,32)" stroke-linejoin="round" d="M 11323,4979 L 11448,5229 11573,4979 11323,4979 Z"/>
 <text class="SVGTextShape" transform="rotate(-44.9 741 7294)"><tspan class="TextParagraph" font-family="Latin Modern Roman" font-size="282px" font-weight="400"><tspan class="TextPosition" x="741" y="7294"><tspan fill="rgb(0,0,0)" stroke="none">1950</tspan></tspan></tspan></text>
 <text class="SVGTextShape" transform="rotate(-44.9 1536 7294)"><tspan class="TextParagraph" font-family="Latin Modern Roman" font-size="282px" font-weight="400"><tspan class="TextPosition" x="1536" y="7294"><tspan fill="rgb(0,0,0)" stroke="none">1955</tspan></tspan></tspan></text>
 <text class="SVGTextShape" transform="rotate(-44.9 2332 7294)"><tspan class="TextParagraph" font-family="Latin Modern Roman" font-size="282px" font-weight="400"><tspan class="TextPosition" x="2332" y="7294"><tspan fill="rgb(0,0,0)" stroke="none">1960</tspan></tspan></tspan></text>
 <text class="SVGTextShape" transform="rotate(-44.9 3127 7294)"><tspan class="TextParagraph" font-family="Latin Modern Roman" font-size="282px" font-weight="400"><tspan class="TextPosition" x="3127" y="7294"><tspan fill="rgb(0,0,0)" stroke="none">1965</tspan></tspan></tspan></text>
 <text class="SVGTextShape" transform="rotate(-44.9 3923 7294)"><tspan class="TextParagraph" font-family="Latin Modern Roman" font-size="282px" font-weight="400"><tspan class="TextPosition" x="3923" y="7294"><tspan fill="rgb(0,0,0)" stroke="none">1970</tspan></tspan></tspan></text>
 <text class="SVGTextShape" transform="rotate(-44.9 4718 7294)"><tspan class="TextParagraph" font-family="Latin Modern Roman" font-size="282px" font-weight="400"><tspan class="TextPosition" x="4718" y="7294"><tspan fill="rgb(0,0,0)" stroke="none">1975</tspan></tspan></tspan></text>
 <text class="SVGTextShape" transform="rotate(-44.9 5514 7294)"><tspan class="TextParagraph" font-family="Latin Modern Roman" font-size="282px" font-weight="400"><tspan class="TextPosition" x="5514" y="7294"><tspan fill="rgb(0,0,0)" stroke="none">1980</tspan></tspan></tspan></text>
 <text class="SVGTextShape" transform="rotate(-44.9 6309 7294)"><tspan class="TextParagraph" font-family="Latin Modern Roman" font-size="282px" font-weight="400"><tspan class="TextPosition" x="6309" y="7294"><tspan fill="rgb(0,0,0)" stroke="none">1985</tspan></tspan></tspan></text>
 <text class="SVGTextShape" transform="rotate(-44.9 7105 7294)"><tspan class="TextParagraph" font-family="Latin Modern Roman" font-size="282px" font-weight="400"><tspan class="TextPosition" x="7105" y="7294"><tspan fill="rgb(0,0,0)" stroke="none">1990</tspan></tspan></tspan></text>
 <text class="SVGTextShape" transform="rotate(-44.9 7900 7294)"><tspan class="TextParagraph" font-family="Latin Modern Roman" font-size="282px" font-weight="400"><tspan class="TextPosition" x="7900" y="7294"><tspan fill="rgb(0,0,0)" stroke="none">1995</tspan></tspan></tspan></text>
 <text class="SVGTextShape" transform="rotate(-44.9 8696 7294)"><tspan class="TextParagraph" font-family="Latin Modern Roman" font-size="282px" font-weight="400"><tspan class="TextPosition" x="8696" y="7294"><tspan fill="rgb(0,0,0)" stroke="none">2000</tspan></tspan></tspan></text>
 <text class="SVGTextShape" transform="rotate(-44.9 9491 7294)"><tspan class="TextParagraph" font-family="Latin Modern Roman" font-size="282px" font-weight="400"><tspan class="TextPosition" x="9491" y="7294"><tspan fill="rgb(0,0,0)" stroke="none">2005</tspan></tspan></tspan></text>
 <text class="SVGTextShape" transform="rotate(-44.9 10287 7294)"><tspan class="TextParagraph" font-family="Latin Modern Roman" font-size="282px" font-weight="400"><tspan class="TextPosition" x="10287" y="7294"><tspan fill="rgb(0,0,0)" stroke="none">2010</tspan></tspan></tspan></text>
 <text class="SVGTextShape" transform="rotate(-44.9 11082 7294)"><tspan class="TextParagraph" font-family="Latin Modern Roman" font-size="282px" font-weight="400"><tspan class="TextPosition" x="11082" y="7294"><tspan fill="rgb(0,0,0)" stroke="none">2015</tspan></tspan></tspan></text>
 <text class="SVGTextShape"><tspan class="TextParagraph" font-family="Latin Modern Roman" font-size="282px" font-weight="400"><tspan class="TextPosition" x="460" y="6490"><tspan fill="rgb(0,0,0)" stroke="none">0%</tspan></tspan></tspan></text>
 <text class="SVGTextShape"><tspan class="TextParagraph" font-family="Latin Modern Roman" font-size="282px" font-weight="400"><tspan class="TextPosition" x="301" y="5629"><tspan fill="rgb(0,0,0)" stroke="none">10%</tspan></tspan></tspan></text>
 <text class="SVGTextShape"><tspan class="TextParagraph" font-family="Latin Modern Roman" font-size="282px" font-weight="400"><tspan class="TextPosition" x="301" y="4769"><tspan fill="rgb(0,0,0)" stroke="none">20%</tspan></tspan></tspan></text>
 <text class="SVGTextShape"><tspan class="TextParagraph" font-family="Latin Modern Roman" font-size="282px" font-weight="400"><tspan class="TextPosition" x="301" y="3909"><tspan fill="rgb(0,0,0)" stroke="none">30%</tspan></tspan></tspan></text>
 <text class="SVGTextShape"><tspan class="TextParagraph" font-family="Latin Modern Roman" font-size="282px" font-weight="400"><tspan class="TextPosition" x="301" y="3049"><tspan fill="rgb(0,0,0)" stroke="none">40%</tspan></tspan></tspan></text>
 <text class="SVGTextShape"><tspan class="TextParagraph" font-family="Latin Modern Roman" font-size="282px" font-weight="400"><tspan class="TextPosition" x="301" y="2189"><tspan fill="rgb(0,0,0)" stroke="none">50%</tspan></tspan></tspan></text>
 <text class="SVGTextShape"><tspan class="TextParagraph" font-family="Latin Modern Roman" font-size="282px" font-weight="400"><tspan class="TextPosition" x="301" y="1329"><tspan fill="rgb(0,0,0)" stroke="none">60%</tspan></tspan></tspan></text>
 <text class="SVGTextShape"><tspan class="TextParagraph" font-family="Latin Modern Roman" font-size="282px" font-weight="400"><tspan class="TextPosition" x="301" y="469"><tspan fill="rgb(0,0,0)" stroke="none">70%</tspan></tspan></tspan></text>
 <path fill="none" stroke="rgb(0,204,204)" stroke-width="50" stroke-linejoin="round" d="M 11989,3251 L 12789,3251"/>
 <path fill="rgb(0,204,204)" stroke="none" d="M 12304,3167 L 12304,3336 12473,3336 12473,3167 12304,3167 Z"/>
 <path fill="none" stroke="rgb(0,204,204)" stroke-linejoin="round" d="M 12304,3167 L 12304,3336 12473,3336 12473,3167 12304,3167 Z"/>
 <path fill="none" stroke="rgb(102,0,255)" stroke-width="50" stroke-linejoin="round" d="M 11989,3749 L 12789,3749"/>
 <path fill="rgb(102,0,255)" stroke="none" d="M 12304,3749 L 12389,3833 12473,3749 12389,3665 12304,3749 Z"/>
 <path fill="none" stroke="rgb(102,0,255)" stroke-linejoin="round" d="M 12304,3749 L 12389,3833 12473,3749 12389,3665 12304,3749 Z"/>
 <path fill="none" stroke="rgb(255,211,32)" stroke-width="50" stroke-linejoin="round" d="M 11989,4246 L 12789,4246"/>
 <path fill="rgb(255,211,32)" stroke="none" d="M 12304,4162 L 12389,4331 12473,4162 12304,4162 Z"/>
 <path fill="none" stroke="rgb(255,211,32)" stroke-linejoin="round" d="M 12304,4162 L 12389,4331 12473,4162 12304,4162 Z"/>
 <text class="SVGTextShape"><tspan class="TextParagraph" font-family="Latin Modern Roman Caps" font-size="282px" font-weight="400"><tspan class="TextPosition" x="12889" y="3371"><tspan fill="rgb(0,0,0)" stroke="none">akkerbouw</tspan></tspan></tspan></text>
 <text class="SVGTextShape"><tspan class="TextParagraph" font-family="Latin Modern Roman Caps" font-size="282px" font-weight="400"><tspan class="TextPosition" x="12889" y="3868"><tspan fill="rgb(0,0,0)" stroke="none">veehouderij</tspan></tspan></tspan></text>
 <text class="SVGTextShape"><tspan class="TextParagraph" font-family="Latin Modern Roman Caps" font-size="282px" font-weight="400"><tspan class="TextPosition" x="12889" y="4366"><tspan fill="rgb(0,0,0)" stroke="none">tuinbouw</tspan></tspan></tspan></text>
</svg>