<?xml version="1.0" encoding="UTF-8"?>
<!DOCTYPE svg PUBLIC "-//W3C//DTD SVG 1.1//EN" "http://www.w3.org/Graphics/SVG/1.1/DTD/svg11.dtd">
<svg width="300mm" height="150mm" viewBox="0 0 30000 15000" version="1.1" xmlns="http://www.w3.org/2000/svg" xmlns:xlink="http://www.w3.org/1999/xlink" stroke-width="28.222" stroke-linejoin="round" xml:space="preserve">
 <path fill="rgb(255,255,255)" stroke="none" d="M 15000,15000 L 0,15000 0,0 30000,0 30000,15000 15000,15000 Z"/>
 <path fill="none" stroke="rgb(179,179,179)" stroke-linejoin="round" d="M 15415,10671 L 1432,10671 1432,2166 29398,2166 29398,10671 15415,10671 Z"/>
 <path fill="none" stroke="rgb(179,179,179)" stroke-linejoin="round" d="M 29398,10670 L 1432,10670"/>
 <path fill="none" stroke="rgb(179,179,179)" stroke-linejoin="round" d="M 29398,9252 L 1432,9252"/>
 <path fill="none" stroke="rgb(179,179,179)" stroke-linejoin="round" d="M 29398,7834 L 1432,7834"/>
 <path fill="none" stroke="rgb(179,179,179)" stroke-linejoin="round" d="M 29398,6418 L 1432,6418"/>
 <path fill="none" stroke="rgb(179,179,179)" stroke-linejoin="round" d="M 29398,5000 L 1432,5000"/>
 <path fill="none" stroke="rgb(179,179,179)" stroke-linejoin="round" d="M 29398,3582 L 1432,3582"/>
 <path fill="none" stroke="rgb(179,179,179)" stroke-linejoin="round" d="M 29398,2165 L 1432,2165"/>
 <path fill="none" stroke="rgb(179,179,179)" stroke-linejoin="round" d="M 1432,10820 L 1432,10670"/>
 <path fill="none" stroke="rgb(179,179,179)" stroke-linejoin="round" d="M 1432,10820 L 1432,10670"/>
 <path fill="none" stroke="rgb(179,179,179)" stroke-linejoin="round" d="M 3429,10820 L 3429,10670"/>
 <path fill="none" stroke="rgb(179,179,179)" stroke-linejoin="round" d="M 3429,10820 L 3429,10670"/>
 <path fill="none" stroke="rgb(179,179,179)" stroke-linejoin="round" d="M 5427,10820 L 5427,10670"/>
 <path fill="none" stroke="rgb(179,179,179)" stroke-linejoin="round" d="M 5427,10820 L 5427,10670"/>
 <path fill="none" stroke="rgb(179,179,179)" stroke-linejoin="round" d="M 7424,10820 L 7424,10670"/>
 <path fill="none" stroke="rgb(179,179,179)" stroke-linejoin="round" d="M 7424,10820 L 7424,10670"/>
 <path fill="none" stroke="rgb(179,179,179)" stroke-linejoin="round" d="M 9422,10820 L 9422,10670"/>
 <path fill="none" stroke="rgb(179,179,179)" stroke-linejoin="round" d="M 9422,10820 L 9422,10670"/>
 <path fill="none" stroke="rgb(179,179,179)" stroke-linejoin="round" d="M 11420,10820 L 11420,10670"/>
 <path fill="none" stroke="rgb(179,179,179)" stroke-linejoin="round" d="M 11420,10820 L 11420,10670"/>
 <path fill="none" stroke="rgb(179,179,179)" stroke-linejoin="round" d="M 13417,10820 L 13417,10670"/>
 <path fill="none" stroke="rgb(179,179,179)" stroke-linejoin="round" d="M 13417,10820 L 13417,10670"/>
 <path fill="none" stroke="rgb(179,179,179)" stroke-linejoin="round" d="M 15414,10820 L 15414,10670"/>
 <path fill="none" stroke="rgb(179,179,179)" stroke-linejoin="round" d="M 15414,10820 L 15414,10670"/>
 <path fill="none" stroke="rgb(179,179,179)" stroke-linejoin="round" d="M 17412,10820 L 17412,10670"/>
 <path fill="none" stroke="rgb(179,179,179)" stroke-linejoin="round" d="M 17412,10820 L 17412,10670"/>
 <path fill="none" stroke="rgb(179,179,179)" stroke-linejoin="round" d="M 19409,10820 L 19409,10670"/>
 <path fill="none" stroke="rgb(179,179,179)" stroke-linejoin="round" d="M 19409,10820 L 19409,10670"/>
 <path fill="none" stroke="rgb(179,179,179)" stroke-linejoin="round" d="M 21407,10820 L 21407,10670"/>
 <path fill="none" stroke="rgb(179,179,179)" stroke-linejoin="round" d="M 21407,10820 L 21407,10670"/>
 <path fill="none" stroke="rgb(179,179,179)" stroke-linejoin="round" d="M 23405,10820 L 23405,10670"/>
 <path fill="none" stroke="rgb(179,179,179)" stroke-linejoin="round" d="M 23405,10820 L 23405,10670"/>
 <path fill="none" stroke="rgb(179,179,179)" stroke-linejoin="round" d="M 25402,10820 L 25402,10670"/>
 <path fill="none" stroke="rgb(179,179,179)" stroke-linejoin="round" d="M 25402,10820 L 25402,10670"/>
 <path fill="none" stroke="rgb(179,179,179)" stroke-linejoin="round" d="M 27400,10820 L 27400,10670"/>
 <path fill="none" stroke="rgb(179,179,179)" stroke-linejoin="round" d="M 27400,10820 L 27400,10670"/>
 <path fill="none" stroke="rgb(179,179,179)" stroke-linejoin="round" d="M 29398,10820 L 29398,10670"/>
 <path fill="none" stroke="rgb(179,179,179)" stroke-linejoin="round" d="M 29398,10820 L 29398,10670"/>
 <path fill="none" stroke="rgb(179,179,179)" stroke-linejoin="round" d="M 1432,10670 L 29398,10670"/>
 <path fill="none" stroke="rgb(179,179,179)" stroke-linejoin="round" d="M 1282,10670 L 1432,10670"/>
 <path fill="none" stroke="rgb(179,179,179)" stroke-linejoin="round" d="M 1282,10670 L 1432,10670"/>
 <path fill="none" stroke="rgb(179,179,179)" stroke-linejoin="round" d="M 1282,9252 L 1432,9252"/>
 <path fill="none" stroke="rgb(179,179,179)" stroke-linejoin="round" d="M 1282,9252 L 1432,9252"/>
 <path fill="none" stroke="rgb(179,179,179)" stroke-linejoin="round" d="M 1282,7834 L 1432,7834"/>
 <path fill="none" stroke="rgb(179,179,179)" stroke-linejoin="round" d="M 1282,7834 L 1432,7834"/>
 <path fill="none" stroke="rgb(179,179,179)" stroke-linejoin="round" d="M 1282,6418 L 1432,6418"/>
 <path fill="none" stroke="rgb(179,179,179)" stroke-linejoin="round" d="M 1282,6418 L 1432,6418"/>
 <path fill="none" stroke="rgb(179,179,179)" stroke-linejoin="round" d="M 1282,5000 L 1432,5000"/>
 <path fill="none" stroke="rgb(179,179,179)" stroke-linejoin="round" d="M 1282,5000 L 1432,5000"/>
 <path fill="none" stroke="rgb(179,179,179)" stroke-linejoin="round" d="M 1282,3582 L 1432,3582"/>
 <path fill="none" stroke="rgb(179,179,179)" stroke-linejoin="round" d="M 1282,3582 L 1432,3582"/>
 <path fill="none" stroke="rgb(179,179,179)" stroke-linejoin="round" d="M 1282,2165 L 1432,2165"/>
 <path fill="none" stroke="rgb(179,179,179)" stroke-linejoin="round" d="M 1282,2165 L 1432,2165"/>
 <path fill="none" stroke="rgb(179,179,179)" stroke-linejoin="round" d="M 1432,10670 L 1432,2165"/>
 <path fill="rgb(255,255,0)" stroke="none" d="M 27733,10670 L 28399,10670 28399,9252 27733,9252 27733,10670 Z"/>
 <path fill="rgb(165,42,42)" stroke="none" d="M 25735,10670 L 26401,10670 26401,8827 25735,8827 25735,10670 Z"/>
 <path fill="rgb(150,150,255)" stroke="none" d="M 23738,10670 L 24403,10670 24403,8543 23738,8543 23738,10670 Z"/>
 <path fill="rgb(100,100,255)" stroke="none" d="M 21740,10670 L 22406,10670 22406,8118 21740,8118 21740,10670 Z"/>
 <path fill="rgb(255,255,150)" stroke="none" d="M 19742,10670 L 20408,10670 20408,8104 19742,8104 19742,10670 Z"/>
 <path fill="rgb(0,0,200)" stroke="none" d="M 17745,10670 L 18410,10670 18410,2165 17745,2165 17745,10670 Z"/>
 <path fill="rgb(150,0,150)" stroke="none" d="M 15747,10670 L 16413,10670 16413,8543 15747,8543 15747,10670 Z"/>
 <path fill="rgb(75,75,75)" stroke="none" d="M 13750,10670 L 14416,10670 14416,10414 13750,10414 13750,10670 Z"/>
 <path fill="rgb(50,100,50)" stroke="none" d="M 11753,10670 L 12419,10670 12419,10173 11753,10173 11753,10670 Z"/>
 <path fill="rgb(150,150,150)" stroke="none" d="M 9755,10670 L 10421,10670 10421,10102 9755,10102 9755,10670 Z"/>
 <path fill="rgb(50,50,50)" stroke="none" d="M 7757,10670 L 8423,10670 8423,9847 7757,9847 7757,10670 Z"/>
 <path fill="rgb(100,100,100)" stroke="none" d="M 5760,10670 L 6426,10670 6426,7976 5760,7976 5760,10670 Z"/>
 <path fill="rgb(200,200,200)" stroke="none" d="M 3762,10670 L 4428,10670 4428,9252 3762,9252 3762,10670 Z"/>
 <path fill="rgb(10,10,10)" stroke="none" d="M 1764,10670 L 2430,10670 2430,3582 1764,3582 1764,10670 Z"/>
 <path fill="rgb(229,229,0)" stroke="none" d="M 28399,10670 L 29065,10670 29065,10138 28399,10138 28399,10670 Z"/>
 <path fill="rgb(148,37,37)" stroke="none" d="M 26401,10670 L 27067,10670 27067,10386 26401,10386 26401,10670 Z"/>
 <path fill="rgb(135,135,229)" stroke="none" d="M 24403,10670 L 25069,10670 25069,8543 24403,8543 24403,10670 Z"/>
 <path fill="rgb(90,90,229)" stroke="none" d="M 22406,10670 L 23072,10670 23072,9819 22406,9819 22406,10670 Z"/>
 <path fill="rgb(229,229,135)" stroke="none" d="M 20408,10670 L 21074,10670 21074,8104 20408,8104 20408,10670 Z"/>
 <path fill="rgb(0,0,180)" stroke="none" d="M 18410,10670 L 19076,10670 19076,9082 18410,9082 18410,10670 Z"/>
 <path fill="rgb(135,0,135)" stroke="none" d="M 16413,10670 L 17079,10670 17079,10528 16413,10528 16413,10670 Z"/>
 <path fill="rgb(67,67,67)" stroke="none" d="M 14416,10670 L 15081,10670 15081,10528 14416,10528 14416,10670 Z"/>
 <path fill="rgb(45,90,45)" stroke="none" d="M 12419,10670 L 13084,10670 13084,10492 12419,10492 12419,10670 Z"/>
 <path fill="rgb(135,135,135)" stroke="none" d="M 10421,10670 L 11087,10670 11087,10457 10421,10457 10421,10670 Z"/>
 <path fill="rgb(45,45,45)" stroke="none" d="M 8423,10670 L 9089,10670 9089,10457 8423,10457 8423,10670 Z"/>
 <path fill="rgb(90,90,90)" stroke="none" d="M 6426,10670 L 7091,10670 7091,7976 6426,7976 6426,10670 Z"/>
 <path fill="rgb(180,180,180)" stroke="none" d="M 4428,10670 L 5094,10670 5094,9252 4428,9252 4428,10670 Z"/>
 <path fill="rgb(9,9,9)" stroke="none" d="M 2430,10670 L 3096,10670 3096,3582 2430,3582 2430,10670 Z"/>
 <text class="SVGTextShape" transform="rotate(-44.9 1531 12435)"><tspan class="TextParagraph" font-family="Latin Modern Roman" font-size="564px" font-weight="400"><tspan class="TextPosition" x="1531" y="12435"><tspan fill="rgb(0,0,0)" stroke="none">kolen </tspan></tspan></tspan></text>
 <text class="SVGTextShape" transform="rotate(-44.9 3097 12867)"><tspan class="TextParagraph" font-family="Latin Modern Roman" font-size="564px" font-weight="400"><tspan class="TextPosition" x="3097" y="12867"><tspan fill="rgb(0,0,0)" stroke="none">aardgas </tspan></tspan></tspan></text>
 <text class="SVGTextShape" transform="rotate(-44.9 5845 12117)"><tspan class="TextParagraph" font-family="Latin Modern Roman" font-size="564px" font-weight="400"><tspan class="TextPosition" x="5845" y="12117"><tspan fill="rgb(0,0,0)" stroke="none">olie </tspan></tspan></tspan></text>
 <text class="SVGTextShape" transform="rotate(-44.9 6944 13015)"><tspan class="TextParagraph" font-family="Latin Modern Roman" font-size="564px" font-weight="400"><tspan class="TextPosition" x="6944" y="13015"><tspan fill="rgb(0,0,0)" stroke="none">teerzand </tspan></tspan></tspan></text>
 <text class="SVGTextShape" transform="rotate(-44.9 8510 13447)"><tspan class="TextParagraph" font-family="Latin Modern Roman" font-size="564px" font-weight="400"><tspan class="TextPosition" x="8510" y="13447"><tspan fill="rgb(0,0,0)" stroke="none">leisteenolie </tspan></tspan></tspan></text>
 <text class="SVGTextShape" transform="rotate(-44.9 10920 13035)"><tspan class="TextParagraph" font-family="Latin Modern Roman" font-size="564px" font-weight="400"><tspan class="TextPosition" x="10920" y="13035"><tspan fill="rgb(0,0,0)" stroke="none">biodiesel </tspan></tspan></tspan></text>
 <text class="SVGTextShape" transform="rotate(-44.9 13142 12810)"><tspan class="TextParagraph" font-family="Latin Modern Roman" font-size="564px" font-weight="400"><tspan class="TextPosition" x="13142" y="12810"><tspan fill="rgb(0,0,0)" stroke="none">ethanol </tspan></tspan></tspan></text>
 <text class="SVGTextShape" transform="rotate(-44.9 14429 13521)"><tspan class="TextParagraph" font-family="Latin Modern Roman" font-size="564px" font-weight="400"><tspan class="TextPosition" x="14429" y="13521"><tspan fill="rgb(0,0,0)" stroke="none">kernenergie </tspan></tspan></tspan></text>
 <text class="SVGTextShape" transform="rotate(-44.9 16332 13615)"><tspan class="TextParagraph" font-family="Latin Modern Roman" font-size="564px" font-weight="400"><tspan class="TextPosition" x="16332" y="13615"><tspan fill="rgb(0,0,0)" stroke="none">waterkracht </tspan></tspan></tspan></text>
 <text class="SVGTextShape" transform="rotate(-44.9 18330 13615)"><tspan class="TextParagraph" font-family="Latin Modern Roman" font-size="564px" font-weight="400"><tspan class="TextPosition" x="18330" y="13615"><tspan fill="rgb(0,0,0)" stroke="none">windenergie </tspan></tspan></tspan></text>
 <text class="SVGTextShape" transform="rotate(-44.9 19880 14063)"><tspan class="TextParagraph" font-family="Latin Modern Roman" font-size="564px" font-weight="400"><tspan class="TextPosition" x="19880" y="14063"><tspan fill="rgb(0,0,0)" stroke="none">getijde-energie </tspan></tspan></tspan></text>
 <text class="SVGTextShape" transform="rotate(-44.9 22531 13409)"><tspan class="TextParagraph" font-family="Latin Modern Roman" font-size="564px" font-weight="400"><tspan class="TextPosition" x="22531" y="13409"><tspan fill="rgb(0,0,0)" stroke="none">golfenergie </tspan></tspan></tspan></text>
 <text class="SVGTextShape" transform="rotate(-44.9 24491 13447)"><tspan class="TextParagraph" font-family="Latin Modern Roman" font-size="564px" font-weight="400"><tspan class="TextPosition" x="24491" y="13447"><tspan fill="rgb(0,0,0)" stroke="none">geothermie </tspan></tspan></tspan></text>
 <text class="SVGTextShape" transform="rotate(-44.9 25311 14625)"><tspan class="TextParagraph" font-family="Latin Modern Roman" font-size="564px" font-weight="400"><tspan class="TextPosition" x="25311" y="14625"><tspan fill="rgb(0,0,0)" stroke="none">zon, fotovoltaïsch </tspan></tspan></tspan></text>
 <text class="SVGTextShape"><tspan class="TextParagraph" font-family="Latin Modern Roman" font-size="564px" font-weight="400"><tspan class="TextPosition" x="891" y="10909"><tspan fill="rgb(0,0,0)" stroke="none">0</tspan></tspan></tspan></text>
 <text class="SVGTextShape"><tspan class="TextParagraph" font-family="Latin Modern Roman" font-size="564px" font-weight="400"><tspan class="TextPosition" x="600" y="9491"><tspan fill="rgb(0,0,0)" stroke="none">10</tspan></tspan></tspan></text>
 <text class="SVGTextShape"><tspan class="TextParagraph" font-family="Latin Modern Roman" font-size="564px" font-weight="400"><tspan class="TextPosition" x="600" y="8073"><tspan fill="rgb(0,0,0)" stroke="none">20</tspan></tspan></tspan></text>
 <text class="SVGTextShape"><tspan class="TextParagraph" font-family="Latin Modern Roman" font-size="564px" font-weight="400"><tspan class="TextPosition" x="600" y="6656"><tspan fill="rgb(0,0,0)" stroke="none">30</tspan></tspan></tspan></text>
 <text class="SVGTextShape"><tspan class="TextParagraph" font-family="Latin Modern Roman" font-size="564px" font-weight="400"><tspan class="TextPosition" x="600" y="5238"><tspan fill="rgb(0,0,0)" stroke="none">40</tspan></tspan></tspan></text>
 <text class="SVGTextShape"><tspan class="TextParagraph" font-family="Latin Modern Roman" font-size="564px" font-weight="400"><tspan class="TextPosition" x="600" y="3820"><tspan fill="rgb(0,0,0)" stroke="none">50</tspan></tspan></tspan></text>
 <text class="SVGTextShape"><tspan class="TextParagraph" font-family="Latin Modern Roman" font-size="564px" font-weight="400"><tspan class="TextPosition" x="600" y="2403"><tspan fill="rgb(0,0,0)" stroke="none">60</tspan></tspan></tspan></text>
 <text class="SVGTextShape" transform="rotate(-90 2336 3480)"><tspan class="TextParagraph" font-family="Latin Modern Roman" font-size="564px" font-weight="400"><tspan class="TextPosition" x="2336" y="3480"><tspan fill="rgb(0,0,0)" stroke="none">50</tspan></tspan></tspan></text>
 <text class="SVGTextShape" transform="rotate(-90 4334 9151)"><tspan class="TextParagraph" font-family="Latin Modern Roman" font-size="564px" font-weight="400"><tspan class="TextPosition" x="4334" y="9151"><tspan fill="rgb(0,0,0)" stroke="none">10</tspan></tspan></tspan></text>
 <text class="SVGTextShape" transform="rotate(-90 6332 7875)"><tspan class="TextParagraph" font-family="Latin Modern Roman" font-size="564px" font-weight="400"><tspan class="TextPosition" x="6332" y="7875"><tspan fill="rgb(0,0,0)" stroke="none">19</tspan></tspan></tspan></text>
 <text class="SVGTextShape" transform="rotate(-90 8329 9746)"><tspan class="TextParagraph" font-family="Latin Modern Roman" font-size="564px" font-weight="400"><tspan class="TextPosition" x="8329" y="9746"><tspan fill="rgb(0,0,0)" stroke="none">5,8</tspan></tspan></tspan></text>
 <text class="SVGTextShape" transform="rotate(-90 10327 10001)"><tspan class="TextParagraph" font-family="Latin Modern Roman" font-size="564px" font-weight="400"><tspan class="TextPosition" x="10327" y="10001"><tspan fill="rgb(0,0,0)" stroke="none">4</tspan></tspan></tspan></text>
 <text class="SVGTextShape" transform="rotate(-90 12325 10072)"><tspan class="TextParagraph" font-family="Latin Modern Roman" font-size="564px" font-weight="400"><tspan class="TextPosition" x="12325" y="10072"><tspan fill="rgb(0,0,0)" stroke="none">3,5</tspan></tspan></tspan></text>
 <text class="SVGTextShape" transform="rotate(-90 14322 10313)"><tspan class="TextParagraph" font-family="Latin Modern Roman" font-size="564px" font-weight="400"><tspan class="TextPosition" x="14322" y="10313"><tspan fill="rgb(0,0,0)" stroke="none">1,8</tspan></tspan></tspan></text>
 <text class="SVGTextShape" transform="rotate(-90 16319 8442)"><tspan class="TextParagraph" font-family="Latin Modern Roman" font-size="564px" font-weight="400"><tspan class="TextPosition" x="16319" y="8442"><tspan fill="rgb(0,0,0)" stroke="none">15</tspan></tspan></tspan></text>
 <text class="SVGTextShape" transform="rotate(-90 18317 2063)"><tspan class="TextParagraph" font-family="Latin Modern Roman" font-size="564px" font-weight="400"><tspan class="TextPosition" x="18317" y="2063"><tspan fill="rgb(0,0,0)" stroke="none">267</tspan></tspan></tspan></text>
 <text class="SVGTextShape" transform="rotate(-90 20314 8003)"><tspan class="TextParagraph" font-family="Latin Modern Roman" font-size="564px" font-weight="400"><tspan class="TextPosition" x="20314" y="8003"><tspan fill="rgb(0,0,0)" stroke="none">18,1</tspan></tspan></tspan></text>
 <text class="SVGTextShape" transform="rotate(-90 22312 8017)"><tspan class="TextParagraph" font-family="Latin Modern Roman" font-size="564px" font-weight="400"><tspan class="TextPosition" x="22312" y="8017"><tspan fill="rgb(0,0,0)" stroke="none">18</tspan></tspan></tspan></text>
 <text class="SVGTextShape" transform="rotate(-90 24309 8442)"><tspan class="TextParagraph" font-family="Latin Modern Roman" font-size="564px" font-weight="400"><tspan class="TextPosition" x="24309" y="8442"><tspan fill="rgb(0,0,0)" stroke="none">15</tspan></tspan></tspan></text>
 <text class="SVGTextShape" transform="rotate(-90 26307 8726)"><tspan class="TextParagraph" font-family="Latin Modern Roman" font-size="564px" font-weight="400"><tspan class="TextPosition" x="26307" y="8726"><tspan fill="rgb(0,0,0)" stroke="none">13</tspan></tspan></tspan></text>
 <text class="SVGTextShape" transform="rotate(-90 28305 9151)"><tspan class="TextParagraph" font-family="Latin Modern Roman" font-size="564px" font-weight="400"><tspan class="TextPosition" x="28305" y="9151"><tspan fill="rgb(0,0,0)" stroke="none">10</tspan></tspan></tspan></text>
 <text class="SVGTextShape" transform="rotate(-90 3002 3480)"><tspan class="TextParagraph" font-family="Latin Modern Roman" font-size="564px" font-weight="400"><tspan class="TextPosition" x="3002" y="3480"><tspan fill="rgb(0,0,0)" stroke="none">50</tspan></tspan></tspan></text>
 <text class="SVGTextShape" transform="rotate(-90 5000 9151)"><tspan class="TextParagraph" font-family="Latin Modern Roman" font-size="564px" font-weight="400"><tspan class="TextPosition" x="5000" y="9151"><tspan fill="rgb(0,0,0)" stroke="none">10</tspan></tspan></tspan></text>
 <text class="SVGTextShape" transform="rotate(-90 6998 7875)"><tspan class="TextParagraph" font-family="Latin Modern Roman" font-size="564px" font-weight="400"><tspan class="TextPosition" x="6998" y="7875"><tspan fill="rgb(0,0,0)" stroke="none">19</tspan></tspan></tspan></text>
 <text class="SVGTextShape" transform="rotate(-90 8995 10356)"><tspan class="TextParagraph" font-family="Latin Modern Roman" font-size="564px" font-weight="400"><tspan class="TextPosition" x="8995" y="10356"><tspan fill="rgb(0,0,0)" stroke="none">1,5</tspan></tspan></tspan></text>
 <text class="SVGTextShape" transform="rotate(-90 10993 10356)"><tspan class="TextParagraph" font-family="Latin Modern Roman" font-size="564px" font-weight="400"><tspan class="TextPosition" x="10993" y="10356"><tspan fill="rgb(0,0,0)" stroke="none">1,5</tspan></tspan></tspan></text>
 <text class="SVGTextShape" transform="rotate(-90 12990 10391)"><tspan class="TextParagraph" font-family="Latin Modern Roman" font-size="564px" font-weight="400"><tspan class="TextPosition" x="12990" y="10391"><tspan fill="rgb(0,0,0)" stroke="none">1,25</tspan></tspan></tspan></text>
 <text class="SVGTextShape" transform="rotate(-90 14988 10427)"><tspan class="TextParagraph" font-family="Latin Modern Roman" font-size="564px" font-weight="400"><tspan class="TextPosition" x="14988" y="10427"><tspan fill="rgb(0,0,0)" stroke="none">1</tspan></tspan></tspan></text>
 <text class="SVGTextShape" transform="rotate(-90 16985 10427)"><tspan class="TextParagraph" font-family="Latin Modern Roman" font-size="564px" font-weight="400"><tspan class="TextPosition" x="16985" y="10427"><tspan fill="rgb(0,0,0)" stroke="none">1</tspan></tspan></tspan></text>
 <text class="SVGTextShape" transform="rotate(-90 18982 8981)"><tspan class="TextParagraph" font-family="Latin Modern Roman" font-size="564px" font-weight="400"><tspan class="TextPosition" x="18982" y="8981"><tspan fill="rgb(0,0,0)" stroke="none">11,2</tspan></tspan></tspan></text>
 <text class="SVGTextShape" transform="rotate(-90 20980 8003)"><tspan class="TextParagraph" font-family="Latin Modern Roman" font-size="564px" font-weight="400"><tspan class="TextPosition" x="20980" y="8003"><tspan fill="rgb(0,0,0)" stroke="none">18,1</tspan></tspan></tspan></text>
 <text class="SVGTextShape" transform="rotate(-90 22978 9718)"><tspan class="TextParagraph" font-family="Latin Modern Roman" font-size="564px" font-weight="400"><tspan class="TextPosition" x="22978" y="9718"><tspan fill="rgb(0,0,0)" stroke="none">6</tspan></tspan></tspan></text>
 <text class="SVGTextShape" transform="rotate(-90 24975 8442)"><tspan class="TextParagraph" font-family="Latin Modern Roman" font-size="564px" font-weight="400"><tspan class="TextPosition" x="24975" y="8442"><tspan fill="rgb(0,0,0)" stroke="none">15</tspan></tspan></tspan></text>
 <text class="SVGTextShape" transform="rotate(-90 26973 10285)"><tspan class="TextParagraph" font-family="Latin Modern Roman" font-size="564px" font-weight="400"><tspan class="TextPosition" x="26973" y="10285"><tspan fill="rgb(0,0,0)" stroke="none">2</tspan></tspan></tspan></text>
 <text class="SVGTextShape" transform="rotate(-90 28971 10037)"><tspan class="TextParagraph" font-family="Latin Modern Roman" font-size="564px" font-weight="400"><tspan class="TextPosition" x="28971" y="10037"><tspan fill="rgb(0,0,0)" stroke="none">3,75</tspan></tspan></tspan></text>
 <text class="SVGTextShape"><tspan class="TextParagraph" font-family="Latin Modern Roman" font-size="706px" font-weight="400"><tspan class="TextPosition" x="927" y="1317"><tspan fill="rgb(0,0,0)" stroke="none">EROEI min&amp;max</tspan></tspan></tspan></text>
</svg>