<?xml version="1.0" encoding="UTF-8"?>
<!DOCTYPE svg PUBLIC "-//W3C//DTD SVG 1.1//EN" "http://www.w3.org/Graphics/SVG/1.1/DTD/svg11.dtd">
<svg width="300mm" height="150mm" viewBox="0 0 30000 15000" version="1.1" xmlns="http://www.w3.org/2000/svg" xmlns:xlink="http://www.w3.org/1999/xlink" stroke-width="28.222" stroke-linejoin="round" xml:space="preserve">
 <path fill="rgb(255,255,255)" stroke="none" d="M 15000,15000 L 0,15000 0,0 30000,0 30000,15000 15000,15000 Z"/>
 <path fill="none" stroke="rgb(179,179,179)" stroke-linejoin="round" d="M 16731,11887 L 4344,11887 4344,580 29119,580 29119,11887 16731,11887 Z"/>
 <path fill="none" stroke="rgb(179,179,179)" stroke-linejoin="round" d="M 29119,11886 L 4344,11886"/>
 <path fill="none" stroke="rgb(179,179,179)" stroke-linejoin="round" d="M 29119,10001 L 4344,10001"/>
 <path fill="none" stroke="rgb(179,179,179)" stroke-linejoin="round" d="M 29119,8116 L 4344,8116"/>
 <path fill="none" stroke="rgb(179,179,179)" stroke-linejoin="round" d="M 29119,6233 L 4344,6233"/>
 <path fill="none" stroke="rgb(179,179,179)" stroke-linejoin="round" d="M 29119,4348 L 4344,4348"/>
 <path fill="none" stroke="rgb(179,179,179)" stroke-linejoin="round" d="M 29119,2463 L 4344,2463"/>
 <path fill="none" stroke="rgb(179,179,179)" stroke-linejoin="round" d="M 29119,579 L 4344,579"/>
 <path fill="none" stroke="rgb(179,179,179)" stroke-linejoin="round" d="M 4344,12036 L 4344,11886"/>
 <path fill="none" stroke="rgb(179,179,179)" stroke-linejoin="round" d="M 4344,12036 L 4344,11886"/>
 <path fill="none" stroke="rgb(179,179,179)" stroke-linejoin="round" d="M 6249,12036 L 6249,11886"/>
 <path fill="none" stroke="rgb(179,179,179)" stroke-linejoin="round" d="M 6249,12036 L 6249,11886"/>
 <path fill="none" stroke="rgb(179,179,179)" stroke-linejoin="round" d="M 8155,12036 L 8155,11886"/>
 <path fill="none" stroke="rgb(179,179,179)" stroke-linejoin="round" d="M 8155,12036 L 8155,11886"/>
 <path fill="none" stroke="rgb(179,179,179)" stroke-linejoin="round" d="M 10061,12036 L 10061,11886"/>
 <path fill="none" stroke="rgb(179,179,179)" stroke-linejoin="round" d="M 10061,12036 L 10061,11886"/>
 <path fill="none" stroke="rgb(179,179,179)" stroke-linejoin="round" d="M 11967,12036 L 11967,11886"/>
 <path fill="none" stroke="rgb(179,179,179)" stroke-linejoin="round" d="M 11967,12036 L 11967,11886"/>
 <path fill="none" stroke="rgb(179,179,179)" stroke-linejoin="round" d="M 13873,12036 L 13873,11886"/>
 <path fill="none" stroke="rgb(179,179,179)" stroke-linejoin="round" d="M 13873,12036 L 13873,11886"/>
 <path fill="none" stroke="rgb(179,179,179)" stroke-linejoin="round" d="M 15778,12036 L 15778,11886"/>
 <path fill="none" stroke="rgb(179,179,179)" stroke-linejoin="round" d="M 15778,12036 L 15778,11886"/>
 <path fill="none" stroke="rgb(179,179,179)" stroke-linejoin="round" d="M 17683,12036 L 17683,11886"/>
 <path fill="none" stroke="rgb(179,179,179)" stroke-linejoin="round" d="M 17683,12036 L 17683,11886"/>
 <path fill="none" stroke="rgb(179,179,179)" stroke-linejoin="round" d="M 19589,12036 L 19589,11886"/>
 <path fill="none" stroke="rgb(179,179,179)" stroke-linejoin="round" d="M 19589,12036 L 19589,11886"/>
 <path fill="none" stroke="rgb(179,179,179)" stroke-linejoin="round" d="M 21495,12036 L 21495,11886"/>
 <path fill="none" stroke="rgb(179,179,179)" stroke-linejoin="round" d="M 21495,12036 L 21495,11886"/>
 <path fill="none" stroke="rgb(179,179,179)" stroke-linejoin="round" d="M 23401,12036 L 23401,11886"/>
 <path fill="none" stroke="rgb(179,179,179)" stroke-linejoin="round" d="M 23401,12036 L 23401,11886"/>
 <path fill="none" stroke="rgb(179,179,179)" stroke-linejoin="round" d="M 25307,12036 L 25307,11886"/>
 <path fill="none" stroke="rgb(179,179,179)" stroke-linejoin="round" d="M 25307,12036 L 25307,11886"/>
 <path fill="none" stroke="rgb(179,179,179)" stroke-linejoin="round" d="M 27213,12036 L 27213,11886"/>
 <path fill="none" stroke="rgb(179,179,179)" stroke-linejoin="round" d="M 27213,12036 L 27213,11886"/>
 <path fill="none" stroke="rgb(179,179,179)" stroke-linejoin="round" d="M 29119,12036 L 29119,11886"/>
 <path fill="none" stroke="rgb(179,179,179)" stroke-linejoin="round" d="M 29119,12036 L 29119,11886"/>
 <path fill="none" stroke="rgb(179,179,179)" stroke-linejoin="round" d="M 4344,11886 L 29119,11886"/>
 <path fill="none" stroke="rgb(179,179,179)" stroke-linejoin="round" d="M 4194,11886 L 4344,11886"/>
 <path fill="none" stroke="rgb(179,179,179)" stroke-linejoin="round" d="M 4194,11886 L 4344,11886"/>
 <path fill="none" stroke="rgb(179,179,179)" stroke-linejoin="round" d="M 4194,10001 L 4344,10001"/>
 <path fill="none" stroke="rgb(179,179,179)" stroke-linejoin="round" d="M 4194,10001 L 4344,10001"/>
 <path fill="none" stroke="rgb(179,179,179)" stroke-linejoin="round" d="M 4194,8116 L 4344,8116"/>
 <path fill="none" stroke="rgb(179,179,179)" stroke-linejoin="round" d="M 4194,8116 L 4344,8116"/>
 <path fill="none" stroke="rgb(179,179,179)" stroke-linejoin="round" d="M 4194,6233 L 4344,6233"/>
 <path fill="none" stroke="rgb(179,179,179)" stroke-linejoin="round" d="M 4194,6233 L 4344,6233"/>
 <path fill="none" stroke="rgb(179,179,179)" stroke-linejoin="round" d="M 4194,4348 L 4344,4348"/>
 <path fill="none" stroke="rgb(179,179,179)" stroke-linejoin="round" d="M 4194,4348 L 4344,4348"/>
 <path fill="none" stroke="rgb(179,179,179)" stroke-linejoin="round" d="M 4194,2463 L 4344,2463"/>
 <path fill="none" stroke="rgb(179,179,179)" stroke-linejoin="round" d="M 4194,2463 L 4344,2463"/>
 <path fill="none" stroke="rgb(179,179,179)" stroke-linejoin="round" d="M 4194,579 L 4344,579"/>
 <path fill="none" stroke="rgb(179,179,179)" stroke-linejoin="round" d="M 4194,579 L 4344,579"/>
 <path fill="none" stroke="rgb(179,179,179)" stroke-linejoin="round" d="M 4344,11886 L 4344,579"/>
 <path fill="none" stroke="rgb(255,66,14)" stroke-width="50" stroke-linejoin="round" d="M 4344,11496 L 6249,11245 8155,10971 10061,10267 11967,9100 13873,8686 15778,8262 17683,7548 19589,6766 21495,5916 23401,6189 25307,4988 27213,3568 29119,1722"/>
 <path fill="rgb(255,66,14)" stroke="none" d="M 4219,11496 L 4344,11621 4469,11496 4344,11371 4219,11496 Z"/>
 <path fill="none" stroke="rgb(255,66,14)" stroke-linejoin="round" d="M 4219,11496 L 4344,11621 4469,11496 4344,11371 4219,11496 Z"/>
 <path fill="rgb(255,66,14)" stroke="none" d="M 6124,11245 L 6249,11370 6374,11245 6249,11120 6124,11245 Z"/>
 <path fill="none" stroke="rgb(255,66,14)" stroke-linejoin="round" d="M 6124,11245 L 6249,11370 6374,11245 6249,11120 6124,11245 Z"/>
 <path fill="rgb(255,66,14)" stroke="none" d="M 8030,10971 L 8155,11096 8280,10971 8155,10846 8030,10971 Z"/>
 <path fill="none" stroke="rgb(255,66,14)" stroke-linejoin="round" d="M 8030,10971 L 8155,11096 8280,10971 8155,10846 8030,10971 Z"/>
 <path fill="rgb(255,66,14)" stroke="none" d="M 9936,10267 L 10061,10392 10186,10267 10061,10142 9936,10267 Z"/>
 <path fill="none" stroke="rgb(255,66,14)" stroke-linejoin="round" d="M 9936,10267 L 10061,10392 10186,10267 10061,10142 9936,10267 Z"/>
 <path fill="rgb(255,66,14)" stroke="none" d="M 11842,9100 L 11967,9225 12092,9100 11967,8975 11842,9100 Z"/>
 <path fill="none" stroke="rgb(255,66,14)" stroke-linejoin="round" d="M 11842,9100 L 11967,9225 12092,9100 11967,8975 11842,9100 Z"/>
 <path fill="rgb(255,66,14)" stroke="none" d="M 13748,8686 L 13873,8811 13998,8686 13873,8561 13748,8686 Z"/>
 <path fill="none" stroke="rgb(255,66,14)" stroke-linejoin="round" d="M 13748,8686 L 13873,8811 13998,8686 13873,8561 13748,8686 Z"/>
 <path fill="rgb(255,66,14)" stroke="none" d="M 15653,8262 L 15778,8387 15903,8262 15778,8137 15653,8262 Z"/>
 <path fill="none" stroke="rgb(255,66,14)" stroke-linejoin="round" d="M 15653,8262 L 15778,8387 15903,8262 15778,8137 15653,8262 Z"/>
 <path fill="rgb(255,66,14)" stroke="none" d="M 17558,7548 L 17683,7673 17808,7548 17683,7424 17558,7548 Z"/>
 <path fill="none" stroke="rgb(255,66,14)" stroke-linejoin="round" d="M 17558,7548 L 17683,7673 17808,7548 17683,7424 17558,7548 Z"/>
 <path fill="rgb(255,66,14)" stroke="none" d="M 19464,6766 L 19589,6891 19714,6766 19589,6641 19464,6766 Z"/>
 <path fill="none" stroke="rgb(255,66,14)" stroke-linejoin="round" d="M 19464,6766 L 19589,6891 19714,6766 19589,6641 19464,6766 Z"/>
 <path fill="rgb(255,66,14)" stroke="none" d="M 21370,5916 L 21495,6041 21620,5916 21495,5791 21370,5916 Z"/>
 <path fill="none" stroke="rgb(255,66,14)" stroke-linejoin="round" d="M 21370,5916 L 21495,6041 21620,5916 21495,5791 21370,5916 Z"/>
 <path fill="rgb(255,66,14)" stroke="none" d="M 23276,6189 L 23401,6314 23526,6189 23401,6064 23276,6189 Z"/>
 <path fill="none" stroke="rgb(255,66,14)" stroke-linejoin="round" d="M 23276,6189 L 23401,6314 23526,6189 23401,6064 23276,6189 Z"/>
 <path fill="rgb(255,66,14)" stroke="none" d="M 25182,4988 L 25307,5113 25432,4988 25307,4863 25182,4988 Z"/>
 <path fill="none" stroke="rgb(255,66,14)" stroke-linejoin="round" d="M 25182,4988 L 25307,5113 25432,4988 25307,4863 25182,4988 Z"/>
 <path fill="rgb(255,66,14)" stroke="none" d="M 27088,3568 L 27213,3693 27338,3568 27213,3443 27088,3568 Z"/>
 <path fill="none" stroke="rgb(255,66,14)" stroke-linejoin="round" d="M 27088,3568 L 27213,3693 27338,3568 27213,3443 27088,3568 Z"/>
 <path fill="rgb(255,66,14)" stroke="none" d="M 28994,1722 L 29119,1847 29244,1722 29119,1597 28994,1722 Z"/>
 <path fill="none" stroke="rgb(255,66,14)" stroke-linejoin="round" d="M 28994,1722 L 29119,1847 29244,1722 29119,1597 28994,1722 Z"/>
 <path fill="none" stroke="rgb(0,69,134)" stroke-width="50" stroke-linejoin="round" d="M 4344,11482 L 6249,11456 8155,11382 10061,11345 11967,11168 13873,11054 15778,10851 17683,10773 19589,10641 21495,10554 23401,10413 25307,10386 27213,10180 29119,10199"/>
 <path fill="rgb(0,69,134)" stroke="none" d="M 4219,11357 L 4219,11607 4469,11607 4469,11357 4219,11357 Z"/>
 <path fill="none" stroke="rgb(0,69,134)" stroke-linejoin="round" d="M 4219,11357 L 4219,11607 4469,11607 4469,11357 4219,11357 Z"/>
 <path fill="rgb(0,69,134)" stroke="none" d="M 6124,11331 L 6124,11581 6374,11581 6374,11331 6124,11331 Z"/>
 <path fill="none" stroke="rgb(0,69,134)" stroke-linejoin="round" d="M 6124,11331 L 6124,11581 6374,11581 6374,11331 6124,11331 Z"/>
 <path fill="rgb(0,69,134)" stroke="none" d="M 8030,11257 L 8030,11507 8280,11507 8280,11257 8030,11257 Z"/>
 <path fill="none" stroke="rgb(0,69,134)" stroke-linejoin="round" d="M 8030,11257 L 8030,11507 8280,11507 8280,11257 8030,11257 Z"/>
 <path fill="rgb(0,69,134)" stroke="none" d="M 9936,11220 L 9936,11470 10186,11470 10186,11220 9936,11220 Z"/>
 <path fill="none" stroke="rgb(0,69,134)" stroke-linejoin="round" d="M 9936,11220 L 9936,11470 10186,11470 10186,11220 9936,11220 Z"/>
 <path fill="rgb(0,69,134)" stroke="none" d="M 11842,11043 L 11842,11293 12092,11293 12092,11043 11842,11043 Z"/>
 <path fill="none" stroke="rgb(0,69,134)" stroke-linejoin="round" d="M 11842,11043 L 11842,11293 12092,11293 12092,11043 11842,11043 Z"/>
 <path fill="rgb(0,69,134)" stroke="none" d="M 13748,10929 L 13748,11179 13998,11179 13998,10929 13748,10929 Z"/>
 <path fill="none" stroke="rgb(0,69,134)" stroke-linejoin="round" d="M 13748,10929 L 13748,11179 13998,11179 13998,10929 13748,10929 Z"/>
 <path fill="rgb(0,69,134)" stroke="none" d="M 15653,10726 L 15653,10976 15903,10976 15903,10726 15653,10726 Z"/>
 <path fill="none" stroke="rgb(0,69,134)" stroke-linejoin="round" d="M 15653,10726 L 15653,10976 15903,10976 15903,10726 15653,10726 Z"/>
 <path fill="rgb(0,69,134)" stroke="none" d="M 17558,10648 L 17558,10898 17808,10898 17808,10648 17558,10648 Z"/>
 <path fill="none" stroke="rgb(0,69,134)" stroke-linejoin="round" d="M 17558,10648 L 17558,10898 17808,10898 17808,10648 17558,10648 Z"/>
 <path fill="rgb(0,69,134)" stroke="none" d="M 19464,10516 L 19464,10766 19714,10766 19714,10516 19464,10516 Z"/>
 <path fill="none" stroke="rgb(0,69,134)" stroke-linejoin="round" d="M 19464,10516 L 19464,10766 19714,10766 19714,10516 19464,10516 Z"/>
 <path fill="rgb(0,69,134)" stroke="none" d="M 21370,10429 L 21370,10679 21620,10679 21620,10429 21370,10429 Z"/>
 <path fill="none" stroke="rgb(0,69,134)" stroke-linejoin="round" d="M 21370,10429 L 21370,10679 21620,10679 21620,10429 21370,10429 Z"/>
 <path fill="rgb(0,69,134)" stroke="none" d="M 23276,10288 L 23276,10538 23526,10538 23526,10288 23276,10288 Z"/>
 <path fill="none" stroke="rgb(0,69,134)" stroke-linejoin="round" d="M 23276,10288 L 23276,10538 23526,10538 23526,10288 23276,10288 Z"/>
 <path fill="rgb(0,69,134)" stroke="none" d="M 25182,10261 L 25182,10511 25432,10511 25432,10261 25182,10261 Z"/>
 <path fill="none" stroke="rgb(0,69,134)" stroke-linejoin="round" d="M 25182,10261 L 25182,10511 25432,10511 25432,10261 25182,10261 Z"/>
 <path fill="rgb(0,69,134)" stroke="none" d="M 27088,10055 L 27088,10305 27338,10305 27338,10055 27088,10055 Z"/>
 <path fill="none" stroke="rgb(0,69,134)" stroke-linejoin="round" d="M 27088,10055 L 27088,10305 27338,10305 27338,10055 27088,10055 Z"/>
 <path fill="rgb(0,69,134)" stroke="none" d="M 28994,10074 L 28994,10324 29244,10324 29244,10074 28994,10074 Z"/>
 <path fill="none" stroke="rgb(0,69,134)" stroke-linejoin="round" d="M 28994,10074 L 28994,10324 29244,10324 29244,10074 28994,10074 Z"/>
 <text class="SVGTextShape" transform="rotate(-44.9 3687 13409)"><tspan class="TextParagraph" font-family="Latin Modern Roman" font-size="564px" font-weight="400"><tspan class="TextPosition" x="3687" y="13409"><tspan fill="rgb(0,0,0)" stroke="none">1950</tspan></tspan></tspan></text>
 <text class="SVGTextShape" transform="rotate(-44.9 5592 13409)"><tspan class="TextParagraph" font-family="Latin Modern Roman" font-size="564px" font-weight="400"><tspan class="TextPosition" x="5592" y="13409"><tspan fill="rgb(0,0,0)" stroke="none">1955</tspan></tspan></tspan></text>
 <text class="SVGTextShape" transform="rotate(-44.9 7498 13409)"><tspan class="TextParagraph" font-family="Latin Modern Roman" font-size="564px" font-weight="400"><tspan class="TextPosition" x="7498" y="13409"><tspan fill="rgb(0,0,0)" stroke="none">1960</tspan></tspan></tspan></text>
 <text class="SVGTextShape" transform="rotate(-44.9 9404 13409)"><tspan class="TextParagraph" font-family="Latin Modern Roman" font-size="564px" font-weight="400"><tspan class="TextPosition" x="9404" y="13409"><tspan fill="rgb(0,0,0)" stroke="none">1965</tspan></tspan></tspan></text>
 <text class="SVGTextShape" transform="rotate(-44.9 11310 13409)"><tspan class="TextParagraph" font-family="Latin Modern Roman" font-size="564px" font-weight="400"><tspan class="TextPosition" x="11310" y="13409"><tspan fill="rgb(0,0,0)" stroke="none">1970</tspan></tspan></tspan></text>
 <text class="SVGTextShape" transform="rotate(-44.9 13216 13409)"><tspan class="TextParagraph" font-family="Latin Modern Roman" font-size="564px" font-weight="400"><tspan class="TextPosition" x="13216" y="13409"><tspan fill="rgb(0,0,0)" stroke="none">1975</tspan></tspan></tspan></text>
 <text class="SVGTextShape" transform="rotate(-44.9 15122 13409)"><tspan class="TextParagraph" font-family="Latin Modern Roman" font-size="564px" font-weight="400"><tspan class="TextPosition" x="15122" y="13409"><tspan fill="rgb(0,0,0)" stroke="none">1980</tspan></tspan></tspan></text>
 <text class="SVGTextShape" transform="rotate(-44.9 17027 13409)"><tspan class="TextParagraph" font-family="Latin Modern Roman" font-size="564px" font-weight="400"><tspan class="TextPosition" x="17027" y="13409"><tspan fill="rgb(0,0,0)" stroke="none">1985</tspan></tspan></tspan></text>
 <text class="SVGTextShape" transform="rotate(-44.9 18933 13409)"><tspan class="TextParagraph" font-family="Latin Modern Roman" font-size="564px" font-weight="400"><tspan class="TextPosition" x="18933" y="13409"><tspan fill="rgb(0,0,0)" stroke="none">1990</tspan></tspan></tspan></text>
 <text class="SVGTextShape" transform="rotate(-44.9 20839 13409)"><tspan class="TextParagraph" font-family="Latin Modern Roman" font-size="564px" font-weight="400"><tspan class="TextPosition" x="20839" y="13409"><tspan fill="rgb(0,0,0)" stroke="none">1995</tspan></tspan></tspan></text>
 <text class="SVGTextShape" transform="rotate(-44.9 22745 13409)"><tspan class="TextParagraph" font-family="Latin Modern Roman" font-size="564px" font-weight="400"><tspan class="TextPosition" x="22745" y="13409"><tspan fill="rgb(0,0,0)" stroke="none">2000</tspan></tspan></tspan></text>
 <text class="SVGTextShape" transform="rotate(-44.9 24651 13409)"><tspan class="TextParagraph" font-family="Latin Modern Roman" font-size="564px" font-weight="400"><tspan class="TextPosition" x="24651" y="13409"><tspan fill="rgb(0,0,0)" stroke="none">2005</tspan></tspan></tspan></text>
 <text class="SVGTextShape" transform="rotate(-44.9 26556 13409)"><tspan class="TextParagraph" font-family="Latin Modern Roman" font-size="564px" font-weight="400"><tspan class="TextPosition" x="26556" y="13409"><tspan fill="rgb(0,0,0)" stroke="none">2010</tspan></tspan></tspan></text>
 <text class="SVGTextShape" transform="rotate(-44.9 28462 13409)"><tspan class="TextParagraph" font-family="Latin Modern Roman" font-size="564px" font-weight="400"><tspan class="TextPosition" x="28462" y="13409"><tspan fill="rgb(0,0,0)" stroke="none">2015</tspan></tspan></tspan></text>
 <text class="SVGTextShape"><tspan class="TextParagraph" font-family="Latin Modern Math" font-size="564px" font-weight="400"><tspan class="TextPosition" x="1475" y="12059"><tspan fill="rgb(0,0,0)" stroke="none">0 GJ/VTE</tspan></tspan></tspan></text>
 <text class="SVGTextShape"><tspan class="TextParagraph" font-family="Latin Modern Math" font-size="564px" font-weight="400"><tspan class="TextPosition" x="893" y="10174"><tspan fill="rgb(0,0,0)" stroke="none">500 GJ/VTE</tspan></tspan></tspan></text>
 <text class="SVGTextShape"><tspan class="TextParagraph" font-family="Latin Modern Math" font-size="564px" font-weight="400"><tspan class="TextPosition" x="601" y="8289"><tspan fill="rgb(0,0,0)" stroke="none">1000 GJ/VTE</tspan></tspan></tspan></text>
 <text class="SVGTextShape"><tspan class="TextParagraph" font-family="Latin Modern Math" font-size="564px" font-weight="400"><tspan class="TextPosition" x="601" y="6405"><tspan fill="rgb(0,0,0)" stroke="none">1500 GJ/VTE</tspan></tspan></tspan></text>
 <text class="SVGTextShape"><tspan class="TextParagraph" font-family="Latin Modern Math" font-size="564px" font-weight="400"><tspan class="TextPosition" x="601" y="4520"><tspan fill="rgb(0,0,0)" stroke="none">2000 GJ/VTE</tspan></tspan></tspan></text>
 <text class="SVGTextShape"><tspan class="TextParagraph" font-family="Latin Modern Math" font-size="564px" font-weight="400"><tspan class="TextPosition" x="601" y="2635"><tspan fill="rgb(0,0,0)" stroke="none">2500 GJ/VTE</tspan></tspan></tspan></text>
 <text class="SVGTextShape"><tspan class="TextParagraph" font-family="Latin Modern Math" font-size="564px" font-weight="400"><tspan class="TextPosition" x="601" y="751"><tspan fill="rgb(0,0,0)" stroke="none">3000 GJ/VTE</tspan></tspan></tspan></text>
 <path fill="none" stroke="rgb(255,66,14)" stroke-width="50" stroke-linejoin="round" d="M 10567,14502 L 11367,14502"/>
 <path fill="rgb(255,66,14)" stroke="none" d="M 10798,14502 L 10967,14671 11136,14502 10967,14333 10798,14502 Z"/>
 <path fill="none" stroke="rgb(255,66,14)" stroke-linejoin="round" d="M 10798,14502 L 10967,14671 11136,14502 10967,14333 10798,14502 Z"/>
 <path fill="none" stroke="rgb(0,69,134)" stroke-width="50" stroke-linejoin="round" d="M 14934,14502 L 15733,14502"/>
 <path fill="rgb(0,69,134)" stroke="none" d="M 15164,14333 L 15164,14671 15502,14671 15502,14333 15164,14333 Z"/>
 <path fill="none" stroke="rgb(0,69,134)" stroke-linejoin="round" d="M 15164,14333 L 15164,14671 15502,14671 15502,14333 15164,14333 Z"/>
 <text class="SVGTextShape"><tspan class="TextParagraph" font-family="Latin Modern Roman Caps" font-size="564px" font-weight="400"><tspan class="TextPosition" x="11491" y="14727"><tspan fill="rgb(0,0,0)" stroke="none">input/VTE</tspan></tspan></tspan></text>
 <text class="SVGTextShape"><tspan class="TextParagraph" font-family="Latin Modern Roman Caps" font-size="564px" font-weight="400"><tspan class="TextPosition" x="15857" y="14727"><tspan fill="rgb(0,0,0)" stroke="none">output/VTE</tspan></tspan></tspan></text>
</svg>