<?xml version="1.0" encoding="UTF-8"?>
<!DOCTYPE svg PUBLIC "-//W3C//DTD SVG 1.1//EN" "http://www.w3.org/Graphics/SVG/1.1/DTD/svg11.dtd">
<svg width="300mm" height="150mm" viewBox="0 0 30000 15000" version="1.1" xmlns="http://www.w3.org/2000/svg" xmlns:xlink="http://www.w3.org/1999/xlink" stroke-width="28.222" stroke-linejoin="round" xml:space="preserve">
 <path fill="rgb(255,255,255)" stroke="none" d="M 15000,15000 L 0,15000 0,0 30000,0 30000,15000 15000,15000 Z"/>
 <path fill="none" stroke="rgb(179,179,179)" stroke-linejoin="round" d="M 14491,13009 L 4502,13009 4502,698 24479,698 24479,13009 14491,13009 Z"/>
 <path fill="none" stroke="rgb(179,179,179)" stroke-linejoin="round" d="M 24479,13008 L 4502,13008"/>
 <path fill="none" stroke="rgb(179,179,179)" stroke-linejoin="round" d="M 24479,11640 L 4502,11640"/>
 <path fill="none" stroke="rgb(179,179,179)" stroke-linejoin="round" d="M 24479,10272 L 4502,10272"/>
 <path fill="none" stroke="rgb(179,179,179)" stroke-linejoin="round" d="M 24479,8904 L 4502,8904"/>
 <path fill="none" stroke="rgb(179,179,179)" stroke-linejoin="round" d="M 24479,7535 L 4502,7535"/>
 <path fill="none" stroke="rgb(179,179,179)" stroke-linejoin="round" d="M 24479,6168 L 4502,6168"/>
 <path fill="none" stroke="rgb(179,179,179)" stroke-linejoin="round" d="M 24479,4800 L 4502,4800"/>
 <path fill="none" stroke="rgb(179,179,179)" stroke-linejoin="round" d="M 24479,3432 L 4502,3432"/>
 <path fill="none" stroke="rgb(179,179,179)" stroke-linejoin="round" d="M 24479,2064 L 4502,2064"/>
 <path fill="none" stroke="rgb(179,179,179)" stroke-linejoin="round" d="M 24479,696 L 4502,696"/>
 <path fill="none" stroke="rgb(179,179,179)" stroke-linejoin="round" d="M 4502,13158 L 4502,13008"/>
 <path fill="none" stroke="rgb(179,179,179)" stroke-linejoin="round" d="M 4502,13158 L 4502,13008"/>
 <path fill="none" stroke="rgb(179,179,179)" stroke-linejoin="round" d="M 5929,13158 L 5929,13008"/>
 <path fill="none" stroke="rgb(179,179,179)" stroke-linejoin="round" d="M 5929,13158 L 5929,13008"/>
 <path fill="none" stroke="rgb(179,179,179)" stroke-linejoin="round" d="M 7356,13158 L 7356,13008"/>
 <path fill="none" stroke="rgb(179,179,179)" stroke-linejoin="round" d="M 7356,13158 L 7356,13008"/>
 <path fill="none" stroke="rgb(179,179,179)" stroke-linejoin="round" d="M 8783,13158 L 8783,13008"/>
 <path fill="none" stroke="rgb(179,179,179)" stroke-linejoin="round" d="M 8783,13158 L 8783,13008"/>
 <path fill="none" stroke="rgb(179,179,179)" stroke-linejoin="round" d="M 10210,13158 L 10210,13008"/>
 <path fill="none" stroke="rgb(179,179,179)" stroke-linejoin="round" d="M 10210,13158 L 10210,13008"/>
 <path fill="none" stroke="rgb(179,179,179)" stroke-linejoin="round" d="M 11637,13158 L 11637,13008"/>
 <path fill="none" stroke="rgb(179,179,179)" stroke-linejoin="round" d="M 11637,13158 L 11637,13008"/>
 <path fill="none" stroke="rgb(179,179,179)" stroke-linejoin="round" d="M 13064,13158 L 13064,13008"/>
 <path fill="none" stroke="rgb(179,179,179)" stroke-linejoin="round" d="M 13064,13158 L 13064,13008"/>
 <path fill="none" stroke="rgb(179,179,179)" stroke-linejoin="round" d="M 14491,13158 L 14491,13008"/>
 <path fill="none" stroke="rgb(179,179,179)" stroke-linejoin="round" d="M 14491,13158 L 14491,13008"/>
 <path fill="none" stroke="rgb(179,179,179)" stroke-linejoin="round" d="M 15917,13158 L 15917,13008"/>
 <path fill="none" stroke="rgb(179,179,179)" stroke-linejoin="round" d="M 15917,13158 L 15917,13008"/>
 <path fill="none" stroke="rgb(179,179,179)" stroke-linejoin="round" d="M 17344,13158 L 17344,13008"/>
 <path fill="none" stroke="rgb(179,179,179)" stroke-linejoin="round" d="M 17344,13158 L 17344,13008"/>
 <path fill="none" stroke="rgb(179,179,179)" stroke-linejoin="round" d="M 18771,13158 L 18771,13008"/>
 <path fill="none" stroke="rgb(179,179,179)" stroke-linejoin="round" d="M 18771,13158 L 18771,13008"/>
 <path fill="none" stroke="rgb(179,179,179)" stroke-linejoin="round" d="M 20198,13158 L 20198,13008"/>
 <path fill="none" stroke="rgb(179,179,179)" stroke-linejoin="round" d="M 20198,13158 L 20198,13008"/>
 <path fill="none" stroke="rgb(179,179,179)" stroke-linejoin="round" d="M 21625,13158 L 21625,13008"/>
 <path fill="none" stroke="rgb(179,179,179)" stroke-linejoin="round" d="M 21625,13158 L 21625,13008"/>
 <path fill="none" stroke="rgb(179,179,179)" stroke-linejoin="round" d="M 23052,13158 L 23052,13008"/>
 <path fill="none" stroke="rgb(179,179,179)" stroke-linejoin="round" d="M 23052,13158 L 23052,13008"/>
 <path fill="none" stroke="rgb(179,179,179)" stroke-linejoin="round" d="M 24479,13158 L 24479,13008"/>
 <path fill="none" stroke="rgb(179,179,179)" stroke-linejoin="round" d="M 24479,13158 L 24479,13008"/>
 <path fill="none" stroke="rgb(179,179,179)" stroke-linejoin="round" d="M 4502,13008 L 24479,13008"/>
 <path fill="none" stroke="rgb(179,179,179)" stroke-linejoin="round" d="M 4352,13008 L 4502,13008"/>
 <path fill="none" stroke="rgb(179,179,179)" stroke-linejoin="round" d="M 4352,13008 L 4502,13008"/>
 <path fill="none" stroke="rgb(179,179,179)" stroke-linejoin="round" d="M 4352,11640 L 4502,11640"/>
 <path fill="none" stroke="rgb(179,179,179)" stroke-linejoin="round" d="M 4352,11640 L 4502,11640"/>
 <path fill="none" stroke="rgb(179,179,179)" stroke-linejoin="round" d="M 4352,10272 L 4502,10272"/>
 <path fill="none" stroke="rgb(179,179,179)" stroke-linejoin="round" d="M 4352,10272 L 4502,10272"/>
 <path fill="none" stroke="rgb(179,179,179)" stroke-linejoin="round" d="M 4352,8904 L 4502,8904"/>
 <path fill="none" stroke="rgb(179,179,179)" stroke-linejoin="round" d="M 4352,8904 L 4502,8904"/>
 <path fill="none" stroke="rgb(179,179,179)" stroke-linejoin="round" d="M 4352,7535 L 4502,7535"/>
 <path fill="none" stroke="rgb(179,179,179)" stroke-linejoin="round" d="M 4352,7535 L 4502,7535"/>
 <path fill="none" stroke="rgb(179,179,179)" stroke-linejoin="round" d="M 4352,6168 L 4502,6168"/>
 <path fill="none" stroke="rgb(179,179,179)" stroke-linejoin="round" d="M 4352,6168 L 4502,6168"/>
 <path fill="none" stroke="rgb(179,179,179)" stroke-linejoin="round" d="M 4352,4800 L 4502,4800"/>
 <path fill="none" stroke="rgb(179,179,179)" stroke-linejoin="round" d="M 4352,4800 L 4502,4800"/>
 <path fill="none" stroke="rgb(179,179,179)" stroke-linejoin="round" d="M 4352,3432 L 4502,3432"/>
 <path fill="none" stroke="rgb(179,179,179)" stroke-linejoin="round" d="M 4352,3432 L 4502,3432"/>
 <path fill="none" stroke="rgb(179,179,179)" stroke-linejoin="round" d="M 4352,2064 L 4502,2064"/>
 <path fill="none" stroke="rgb(179,179,179)" stroke-linejoin="round" d="M 4352,2064 L 4502,2064"/>
 <path fill="none" stroke="rgb(179,179,179)" stroke-linejoin="round" d="M 4352,696 L 4502,696"/>
 <path fill="none" stroke="rgb(179,179,179)" stroke-linejoin="round" d="M 4352,696 L 4502,696"/>
 <path fill="none" stroke="rgb(179,179,179)" stroke-linejoin="round" d="M 4502,13008 L 4502,696"/>
 <path fill="rgb(0,120,38)" stroke="none" d="M 23408,13008 L 24122,13008 24122,8848 23408,8848 23408,13008 Z"/>
 <path fill="rgb(0,120,38)" stroke="none" d="M 21981,13008 L 22695,13008 22695,8710 21981,8710 21981,13008 Z"/>
 <path fill="rgb(0,120,38)" stroke="none" d="M 20554,13008 L 21268,13008 21268,8600 20554,8600 20554,13008 Z"/>
 <path fill="rgb(0,120,38)" stroke="none" d="M 19127,13008 L 19841,13008 19841,8133 19127,8133 19127,13008 Z"/>
 <path fill="rgb(0,120,38)" stroke="none" d="M 17700,13008 L 18414,13008 18414,8537 17700,8537 17700,13008 Z"/>
 <path fill="rgb(0,120,38)" stroke="none" d="M 16273,13008 L 16987,13008 16987,8121 16273,8121 16273,13008 Z"/>
 <path fill="rgb(0,120,38)" stroke="none" d="M 14847,13008 L 15560,13008 15560,8705 14847,8705 14847,13008 Z"/>
 <path fill="rgb(0,120,38)" stroke="none" d="M 13420,13008 L 14134,13008 14134,9117 13420,9117 13420,13008 Z"/>
 <path fill="rgb(0,120,38)" stroke="none" d="M 11993,13008 L 12707,13008 12707,9501 11993,9501 11993,13008 Z"/>
 <path fill="rgb(0,120,38)" stroke="none" d="M 10566,13008 L 11280,13008 11280,9636 10566,9636 10566,13008 Z"/>
 <path fill="rgb(0,120,38)" stroke="none" d="M 9139,13008 L 9853,13008 9853,10507 9139,10507 9139,13008 Z"/>
 <path fill="rgb(0,120,38)" stroke="none" d="M 7712,13008 L 8426,13008 8426,9964 7712,9964 7712,13008 Z"/>
 <path fill="rgb(0,120,38)" stroke="none" d="M 6285,13008 L 6999,13008 6999,10407 6285,10407 6285,13008 Z"/>
 <path fill="rgb(0,120,38)" stroke="none" d="M 4858,13008 L 5572,13008 5572,10558 4858,10558 4858,13008 Z"/>
 <path fill="rgb(126,0,33)" stroke="none" d="M 23408,8848 L 24122,8848 24122,3836 23408,3836 23408,8848 Z"/>
 <path fill="rgb(126,0,33)" stroke="none" d="M 21981,8710 L 22695,8710 22695,4053 21981,4053 21981,8710 Z"/>
 <path fill="rgb(126,0,33)" stroke="none" d="M 20554,8600 L 21268,8600 21268,4036 20554,4036 20554,8600 Z"/>
 <path fill="rgb(126,0,33)" stroke="none" d="M 19127,8133 L 19841,8133 19841,3560 19127,3560 19127,8133 Z"/>
 <path fill="rgb(126,0,33)" stroke="none" d="M 17700,8537 L 18414,8537 18414,3993 17700,3993 17700,8537 Z"/>
 <path fill="rgb(126,0,33)" stroke="none" d="M 16273,8121 L 16987,8121 16987,3422 16273,3422 16273,8121 Z"/>
 <path fill="rgb(126,0,33)" stroke="none" d="M 14847,8705 L 15560,8705 15560,4404 14847,4404 14847,8705 Z"/>
 <path fill="rgb(126,0,33)" stroke="none" d="M 13420,9117 L 14134,9117 14134,4816 13420,4816 13420,9117 Z"/>
 <path fill="rgb(126,0,33)" stroke="none" d="M 11993,9501 L 12707,9501 12707,6618 11993,6618 11993,9501 Z"/>
 <path fill="rgb(126,0,33)" stroke="none" d="M 10566,9636 L 11280,9636 11280,7283 10566,7283 10566,9636 Z"/>
 <path fill="rgb(126,0,33)" stroke="none" d="M 9139,10507 L 9853,10507 9853,8368 9139,8368 9139,10507 Z"/>
 <path fill="rgb(126,0,33)" stroke="none" d="M 7712,9964 L 8426,9964 8426,8242 7712,8242 7712,9964 Z"/>
 <path fill="rgb(126,0,33)" stroke="none" d="M 6285,10407 L 6999,10407 6999,8863 6285,8863 6285,10407 Z"/>
 <path fill="rgb(126,0,33)" stroke="none" d="M 4858,10558 L 5572,10558 5572,9014 4858,9014 4858,10558 Z"/>
 <path fill="rgb(131,202,255)" stroke="none" d="M 23408,3836 L 24122,3836 24122,2255 23408,2255 23408,3836 Z"/>
 <path fill="rgb(131,202,255)" stroke="none" d="M 21981,4053 L 22695,4053 22695,2621 21981,2621 21981,4053 Z"/>
 <path fill="rgb(131,202,255)" stroke="none" d="M 20554,4036 L 21268,4036 21268,2758 20554,2758 20554,4036 Z"/>
 <path fill="rgb(131,202,255)" stroke="none" d="M 19127,3560 L 19841,3560 19841,2321 19127,2321 19127,3560 Z"/>
 <path fill="rgb(131,202,255)" stroke="none" d="M 17700,3993 L 18414,3993 18414,2935 17700,2935 17700,3993 Z"/>
 <path fill="rgb(131,202,255)" stroke="none" d="M 16273,3422 L 16987,3422 16987,2303 16273,2303 16273,3422 Z"/>
 <path fill="rgb(131,202,255)" stroke="none" d="M 14847,4404 L 15560,4404 15560,3518 14847,3518 14847,4404 Z"/>
 <path fill="rgb(131,202,255)" stroke="none" d="M 13420,4816 L 14134,4816 14134,4011 13420,4011 13420,4816 Z"/>
 <path fill="rgb(131,202,255)" stroke="none" d="M 11993,6618 L 12707,6618 12707,5905 11993,5905 11993,6618 Z"/>
 <path fill="rgb(131,202,255)" stroke="none" d="M 10566,7283 L 11280,7283 11280,6533 10566,6533 10566,7283 Z"/>
 <path fill="rgb(131,202,255)" stroke="none" d="M 9139,8368 L 9853,8368 9853,7684 9139,7684 9139,8368 Z"/>
 <path fill="rgb(131,202,255)" stroke="none" d="M 7712,8242 L 8426,8242 8426,7735 7712,7735 7712,8242 Z"/>
 <path fill="rgb(131,202,255)" stroke="none" d="M 6285,8863 L 6999,8863 6999,8461 6285,8461 6285,8863 Z"/>
 <path fill="rgb(131,202,255)" stroke="none" d="M 4858,9014 L 5572,9014 5572,8609 4858,8609 4858,9014 Z"/>
 <path fill="none" stroke="rgb(0,120,38)" stroke-width="50" stroke-linejoin="round" d="M 5215,8609 L 6642,8461 8069,7735 9496,7684 10923,6533 12350,5905 13777,4011 15203,3518 16630,2303 18057,2935 19484,2321 20911,2758 22338,2621 23765,2255"/>
 <text class="SVGTextShape" transform="rotate(-44.9 4475 14586)"><tspan class="TextParagraph" font-family="Latin Modern Roman Caps" font-size="564px" font-weight="400"><tspan class="TextPosition" x="4475" y="14586"><tspan fill="rgb(0,0,0)" stroke="none">1950</tspan></tspan></tspan></text>
 <text class="SVGTextShape" transform="rotate(-44.9 5902 14586)"><tspan class="TextParagraph" font-family="Latin Modern Roman Caps" font-size="564px" font-weight="400"><tspan class="TextPosition" x="5902" y="14586"><tspan fill="rgb(0,0,0)" stroke="none">1955</tspan></tspan></tspan></text>
 <text class="SVGTextShape" transform="rotate(-44.9 7329 14586)"><tspan class="TextParagraph" font-family="Latin Modern Roman Caps" font-size="564px" font-weight="400"><tspan class="TextPosition" x="7329" y="14586"><tspan fill="rgb(0,0,0)" stroke="none">1960</tspan></tspan></tspan></text>
 <text class="SVGTextShape" transform="rotate(-44.9 8756 14586)"><tspan class="TextParagraph" font-family="Latin Modern Roman Caps" font-size="564px" font-weight="400"><tspan class="TextPosition" x="8756" y="14586"><tspan fill="rgb(0,0,0)" stroke="none">1965</tspan></tspan></tspan></text>
 <text class="SVGTextShape" transform="rotate(-44.9 10183 14586)"><tspan class="TextParagraph" font-family="Latin Modern Roman Caps" font-size="564px" font-weight="400"><tspan class="TextPosition" x="10183" y="14586"><tspan fill="rgb(0,0,0)" stroke="none">1970</tspan></tspan></tspan></text>
 <text class="SVGTextShape" transform="rotate(-44.9 11610 14586)"><tspan class="TextParagraph" font-family="Latin Modern Roman Caps" font-size="564px" font-weight="400"><tspan class="TextPosition" x="11610" y="14586"><tspan fill="rgb(0,0,0)" stroke="none">1975</tspan></tspan></tspan></text>
 <text class="SVGTextShape" transform="rotate(-44.9 13037 14586)"><tspan class="TextParagraph" font-family="Latin Modern Roman Caps" font-size="564px" font-weight="400"><tspan class="TextPosition" x="13037" y="14586"><tspan fill="rgb(0,0,0)" stroke="none">1980</tspan></tspan></tspan></text>
 <text class="SVGTextShape" transform="rotate(-44.9 14463 14586)"><tspan class="TextParagraph" font-family="Latin Modern Roman Caps" font-size="564px" font-weight="400"><tspan class="TextPosition" x="14463" y="14586"><tspan fill="rgb(0,0,0)" stroke="none">1985</tspan></tspan></tspan></text>
 <text class="SVGTextShape" transform="rotate(-44.9 15890 14586)"><tspan class="TextParagraph" font-family="Latin Modern Roman Caps" font-size="564px" font-weight="400"><tspan class="TextPosition" x="15890" y="14586"><tspan fill="rgb(0,0,0)" stroke="none">1990</tspan></tspan></tspan></text>
 <text class="SVGTextShape" transform="rotate(-44.9 17317 14586)"><tspan class="TextParagraph" font-family="Latin Modern Roman Caps" font-size="564px" font-weight="400"><tspan class="TextPosition" x="17317" y="14586"><tspan fill="rgb(0,0,0)" stroke="none">1995</tspan></tspan></tspan></text>
 <text class="SVGTextShape" transform="rotate(-44.9 18744 14586)"><tspan class="TextParagraph" font-family="Latin Modern Roman Caps" font-size="564px" font-weight="400"><tspan class="TextPosition" x="18744" y="14586"><tspan fill="rgb(0,0,0)" stroke="none">2000</tspan></tspan></tspan></text>
 <text class="SVGTextShape" transform="rotate(-44.9 20171 14586)"><tspan class="TextParagraph" font-family="Latin Modern Roman Caps" font-size="564px" font-weight="400"><tspan class="TextPosition" x="20171" y="14586"><tspan fill="rgb(0,0,0)" stroke="none">2005</tspan></tspan></tspan></text>
 <text class="SVGTextShape" transform="rotate(-44.9 21598 14586)"><tspan class="TextParagraph" font-family="Latin Modern Roman Caps" font-size="564px" font-weight="400"><tspan class="TextPosition" x="21598" y="14586"><tspan fill="rgb(0,0,0)" stroke="none">2010</tspan></tspan></tspan></text>
 <text class="SVGTextShape" transform="rotate(-44.9 23025 14586)"><tspan class="TextParagraph" font-family="Latin Modern Roman Caps" font-size="564px" font-weight="400"><tspan class="TextPosition" x="23025" y="14586"><tspan fill="rgb(0,0,0)" stroke="none">2015</tspan></tspan></tspan></text>
 <text class="SVGTextShape"><tspan class="TextParagraph" font-family="Latin Modern Roman" font-size="564px" font-weight="400"><tspan class="TextPosition" x="2956" y="13247"><tspan fill="rgb(0,0,0)" stroke="none">0 ton</tspan></tspan></tspan></text>
 <text class="SVGTextShape"><tspan class="TextParagraph" font-family="Latin Modern Roman" font-size="564px" font-weight="400"><tspan class="TextPosition" x="892" y="11879"><tspan fill="rgb(0,0,0)" stroke="none">5.000.000 ton</tspan></tspan></tspan></text>
 <text class="SVGTextShape"><tspan class="TextParagraph" font-family="Latin Modern Roman" font-size="564px" font-weight="400"><tspan class="TextPosition" x="601" y="10511"><tspan fill="rgb(0,0,0)" stroke="none">10.000.000 ton</tspan></tspan></tspan></text>
 <text class="SVGTextShape"><tspan class="TextParagraph" font-family="Latin Modern Roman" font-size="564px" font-weight="400"><tspan class="TextPosition" x="601" y="9143"><tspan fill="rgb(0,0,0)" stroke="none">15.000.000 ton</tspan></tspan></tspan></text>
 <text class="SVGTextShape"><tspan class="TextParagraph" font-family="Latin Modern Roman" font-size="564px" font-weight="400"><tspan class="TextPosition" x="601" y="7774"><tspan fill="rgb(0,0,0)" stroke="none">20.000.000 ton</tspan></tspan></tspan></text>
 <text class="SVGTextShape"><tspan class="TextParagraph" font-family="Latin Modern Roman" font-size="564px" font-weight="400"><tspan class="TextPosition" x="601" y="6406"><tspan fill="rgb(0,0,0)" stroke="none">25.000.000 ton</tspan></tspan></tspan></text>
 <text class="SVGTextShape"><tspan class="TextParagraph" font-family="Latin Modern Roman" font-size="564px" font-weight="400"><tspan class="TextPosition" x="601" y="5038"><tspan fill="rgb(0,0,0)" stroke="none">30.000.000 ton</tspan></tspan></tspan></text>
 <text class="SVGTextShape"><tspan class="TextParagraph" font-family="Latin Modern Roman" font-size="564px" font-weight="400"><tspan class="TextPosition" x="601" y="3670"><tspan fill="rgb(0,0,0)" stroke="none">35.000.000 ton</tspan></tspan></tspan></text>
 <text class="SVGTextShape"><tspan class="TextParagraph" font-family="Latin Modern Roman" font-size="564px" font-weight="400"><tspan class="TextPosition" x="601" y="2302"><tspan fill="rgb(0,0,0)" stroke="none">40.000.000 ton</tspan></tspan></tspan></text>
 <text class="SVGTextShape"><tspan class="TextParagraph" font-family="Latin Modern Roman" font-size="564px" font-weight="400"><tspan class="TextPosition" x="601" y="934"><tspan fill="rgb(0,0,0)" stroke="none">45.000.000 ton</tspan></tspan></tspan></text>
 <path fill="rgb(0,120,38)" stroke="none" d="M 25665,8548 L 25265,8548 25265,8210 26065,8210 26065,8548 25665,8548 Z"/>
 <path fill="rgb(126,0,33)" stroke="none" d="M 25665,7667 L 25265,7667 25265,7330 26065,7330 26065,7667 25665,7667 Z"/>
 <path fill="rgb(131,202,255)" stroke="none" d="M 25665,6787 L 25265,6787 25265,6449 26065,6449 26065,6787 25665,6787 Z"/>
 <text class="SVGTextShape"><tspan class="TextParagraph" font-family="Latin Modern Roman Caps" font-size="564px" font-weight="400"><tspan class="TextPosition" x="26189" y="6843"><tspan fill="rgb(0,0,0)" stroke="none">tuinbouw</tspan></tspan></tspan></text>
 <text class="SVGTextShape"><tspan class="TextParagraph" font-family="Latin Modern Roman Caps" font-size="564px" font-weight="400"><tspan class="TextPosition" x="26189" y="7723"><tspan fill="rgb(0,0,0)" stroke="none">veehouderij</tspan></tspan></tspan></text>
 <text class="SVGTextShape"><tspan class="TextParagraph" font-family="Latin Modern Roman Caps" font-size="564px" font-weight="400"><tspan class="TextPosition" x="26189" y="8604"><tspan fill="rgb(0,0,0)" stroke="none">akkerbouw</tspan></tspan></tspan></text>
</svg>