<?xml version="1.0" encoding="UTF-8"?>
<!DOCTYPE svg PUBLIC "-//W3C//DTD SVG 1.1//EN" "http://www.w3.org/Graphics/SVG/1.1/DTD/svg11.dtd">
<svg width="300mm" height="150mm" viewBox="0 0 30000 15000" version="1.1" xmlns="http://www.w3.org/2000/svg" xmlns:xlink="http://www.w3.org/1999/xlink" stroke-width="28.222" stroke-linejoin="round" xml:space="preserve">
 <path fill="rgb(255,255,255)" stroke="none" d="M 15000,15000 L 0,15000 0,0 30000,0 30000,15000 15000,15000 Z"/>
 <path fill="none" stroke="rgb(179,179,179)" stroke-linejoin="round" d="M 13343,14053 L 2042,14053 2042,1883 24643,1883 24643,14053 13343,14053 Z"/>
 <path fill="none" stroke="rgb(179,179,179)" stroke-linejoin="round" d="M 24643,14052 L 2042,14052"/>
 <path fill="none" stroke="rgb(179,179,179)" stroke-linejoin="round" d="M 24643,12023 L 2042,12023"/>
 <path fill="none" stroke="rgb(179,179,179)" stroke-linejoin="round" d="M 24643,9995 L 2042,9995"/>
 <path fill="none" stroke="rgb(179,179,179)" stroke-linejoin="round" d="M 24643,7966 L 2042,7966"/>
 <path fill="none" stroke="rgb(179,179,179)" stroke-linejoin="round" d="M 24643,5938 L 2042,5938"/>
 <path fill="none" stroke="rgb(179,179,179)" stroke-linejoin="round" d="M 24643,3910 L 2042,3910"/>
 <path fill="none" stroke="rgb(179,179,179)" stroke-linejoin="round" d="M 24643,1881 L 2042,1881"/>
 <path fill="none" stroke="rgb(179,179,179)" stroke-linejoin="round" d="M 2042,5938 L 24643,5938"/>
 <path fill="none" stroke="rgb(179,179,179)" stroke-linejoin="round" d="M 1892,14052 L 2042,14052"/>
 <path fill="none" stroke="rgb(179,179,179)" stroke-linejoin="round" d="M 1892,14052 L 2042,14052"/>
 <path fill="none" stroke="rgb(179,179,179)" stroke-linejoin="round" d="M 1892,12023 L 2042,12023"/>
 <path fill="none" stroke="rgb(179,179,179)" stroke-linejoin="round" d="M 1892,12023 L 2042,12023"/>
 <path fill="none" stroke="rgb(179,179,179)" stroke-linejoin="round" d="M 1892,9995 L 2042,9995"/>
 <path fill="none" stroke="rgb(179,179,179)" stroke-linejoin="round" d="M 1892,9995 L 2042,9995"/>
 <path fill="none" stroke="rgb(179,179,179)" stroke-linejoin="round" d="M 1892,7966 L 2042,7966"/>
 <path fill="none" stroke="rgb(179,179,179)" stroke-linejoin="round" d="M 1892,7966 L 2042,7966"/>
 <path fill="none" stroke="rgb(179,179,179)" stroke-linejoin="round" d="M 1892,5938 L 2042,5938"/>
 <path fill="none" stroke="rgb(179,179,179)" stroke-linejoin="round" d="M 1892,5938 L 2042,5938"/>
 <path fill="none" stroke="rgb(179,179,179)" stroke-linejoin="round" d="M 1892,3910 L 2042,3910"/>
 <path fill="none" stroke="rgb(179,179,179)" stroke-linejoin="round" d="M 1892,3910 L 2042,3910"/>
 <path fill="none" stroke="rgb(179,179,179)" stroke-linejoin="round" d="M 1892,1881 L 2042,1881"/>
 <path fill="none" stroke="rgb(179,179,179)" stroke-linejoin="round" d="M 1892,1881 L 2042,1881"/>
 <path fill="none" stroke="rgb(179,179,179)" stroke-linejoin="round" d="M 2042,14052 L 2042,1881"/>
 <path fill="rgb(51,51,51)" stroke="none" d="M 23750,6446 L 24345,6446 24345,5938 23750,5938 23750,6446 Z"/>
 <path fill="rgb(51,51,51)" stroke="none" d="M 17802,8688 L 18397,8688 18397,5938 17802,5938 17802,8688 Z"/>
 <path fill="rgb(51,51,51)" stroke="none" d="M 16613,8524 L 17208,8524 17208,5938 16613,5938 16613,8524 Z"/>
 <path fill="rgb(51,51,51)" stroke="none" d="M 15423,8352 L 16018,8352 16018,5938 15423,5938 15423,8352 Z"/>
 <path fill="rgb(51,51,51)" stroke="none" d="M 14235,8425 L 14829,8425 14829,5938 14235,5938 14235,8425 Z"/>
 <path fill="rgb(51,51,51)" stroke="none" d="M 13045,8629 L 13640,8629 13640,5938 13045,5938 13045,8629 Z"/>
 <path fill="rgb(51,51,51)" stroke="none" d="M 11856,8427 L 12450,8427 12450,5938 11856,5938 11856,8427 Z"/>
 <path fill="rgb(51,51,51)" stroke="none" d="M 10666,8279 L 11261,8279 11261,5938 10666,5938 10666,8279 Z"/>
 <path fill="rgb(51,51,51)" stroke="none" d="M 9476,8213 L 10071,8213 10071,5938 9476,5938 9476,8213 Z"/>
 <path fill="rgb(51,51,51)" stroke="none" d="M 8287,8227 L 8882,8227 8882,5938 8287,5938 8287,8227 Z"/>
 <path fill="rgb(51,51,51)" stroke="none" d="M 7097,8454 L 7692,8454 7692,5938 7097,5938 7097,8454 Z"/>
 <path fill="rgb(51,51,51)" stroke="none" d="M 5908,7840 L 6502,7840 6502,5938 5908,5938 5908,7840 Z"/>
 <path fill="rgb(51,51,51)" stroke="none" d="M 4718,7234 L 5313,7234 5313,5938 4718,5938 4718,7234 Z"/>
 <path fill="rgb(51,51,51)" stroke="none" d="M 3528,6799 L 4123,6799 4123,5938 3528,5938 3528,6799 Z"/>
 <path fill="rgb(51,51,51)" stroke="none" d="M 2339,6494 L 2934,6494 2934,5938 2339,5938 2339,6494 Z"/>
 <path fill="rgb(0,69,134)" stroke="none" d="M 17802,8962 L 18397,8962 18397,8688 17802,8688 17802,8962 Z"/>
 <path fill="rgb(0,69,134)" stroke="none" d="M 16613,8785 L 17208,8785 17208,8524 16613,8524 16613,8785 Z"/>
 <path fill="rgb(0,69,134)" stroke="none" d="M 9476,8449 L 10071,8449 10071,8213 9476,8213 9476,8449 Z"/>
 <path fill="rgb(0,69,134)" stroke="none" d="M 2339,6593 L 2934,6593 2934,6494 2339,6494 2339,6593 Z"/>
 <path fill="rgb(255,149,14)" stroke="none" d="M 17802,9405 L 18397,9405 18397,8962 17802,8962 17802,9405 Z"/>
 <path fill="rgb(255,149,14)" stroke="none" d="M 16613,9128 L 17208,9128 17208,8785 16613,8785 16613,9128 Z"/>
 <path fill="rgb(255,149,14)" stroke="none" d="M 9476,8599 L 10071,8599 10071,8449 9476,8449 9476,8599 Z"/>
 <path fill="rgb(255,149,14)" stroke="none" d="M 2339,6632 L 2934,6632 2934,6593 2339,6593 2339,6632 Z"/>
 <path fill="rgb(102,0,255)" stroke="none" d="M 17802,9448 L 18397,9448 18397,9405 17802,9405 17802,9448 Z"/>
 <path fill="rgb(102,0,255)" stroke="none" d="M 16613,9180 L 17208,9180 17208,9128 16613,9128 16613,9180 Z"/>
 <path fill="rgb(102,0,255)" stroke="none" d="M 9476,8625 L 10071,8625 10071,8599 9476,8599 9476,8625 Z"/>
 <path fill="rgb(102,0,255)" stroke="none" d="M 2339,6636 L 2934,6636 2934,6632 2339,6632 2339,6636 Z"/>
 <path fill="rgb(75,31,111)" stroke="none" d="M 17802,9844 L 18397,9844 18397,9448 17802,9448 17802,9844 Z"/>
 <path fill="rgb(75,31,111)" stroke="none" d="M 16613,9505 L 17208,9505 17208,9180 16613,9180 16613,9505 Z"/>
 <path fill="rgb(75,31,111)" stroke="none" d="M 9476,8712 L 10071,8712 10071,8625 9476,8625 9476,8712 Z"/>
 <path fill="rgb(75,31,111)" stroke="none" d="M 2339,6639 L 2934,6639 2934,6636 2339,6636 2339,6639 Z"/>
 <path fill="rgb(174,207,0)" stroke="none" d="M 17802,10164 L 18397,10164 18397,9844 17802,9844 17802,10164 Z"/>
 <path fill="rgb(174,207,0)" stroke="none" d="M 16613,9784 L 17208,9784 17208,9505 16613,9505 16613,9784 Z"/>
 <path fill="rgb(174,207,0)" stroke="none" d="M 9476,8813 L 10071,8813 10071,8712 9476,8712 9476,8813 Z"/>
 <path fill="rgb(174,207,0)" stroke="none" d="M 2339,6645 L 2934,6645 2934,6639 2339,6639 2339,6645 Z"/>
 <path fill="rgb(49,64,4)" stroke="none" d="M 17802,11271 L 18397,11271 18397,10164 17802,10164 17802,11271 Z"/>
 <path fill="rgb(49,64,4)" stroke="none" d="M 16613,10796 L 17208,10796 17208,9784 16613,9784 16613,10796 Z"/>
 <path fill="rgb(49,64,4)" stroke="none" d="M 9476,9530 L 10071,9530 10071,8813 9476,8813 9476,9530 Z"/>
 <path fill="rgb(49,64,4)" stroke="none" d="M 2339,6675 L 2934,6675 2934,6645 2339,6645 2339,6675 Z"/>
 <path fill="rgb(131,202,255)" stroke="none" d="M 17802,11624 L 18397,11624 18397,11271 17802,11271 17802,11624 Z"/>
 <path fill="rgb(131,202,255)" stroke="none" d="M 16613,11006 L 17208,11006 17208,10796 16613,10796 16613,11006 Z"/>
 <path fill="rgb(131,202,255)" stroke="none" d="M 9476,9557 L 10071,9557 10071,9530 9476,9530 9476,9557 Z"/>
 <path fill="rgb(131,202,255)" stroke="none" d="M 2339,6679 L 2934,6679 2934,6675 2339,6675 2339,6679 Z"/>
 <path fill="rgb(126,0,33)" stroke="none" d="M 17802,11849 L 18397,11849 18397,11624 17802,11624 17802,11849 Z"/>
 <path fill="rgb(126,0,33)" stroke="none" d="M 16613,11211 L 17208,11211 17208,11006 16613,11006 16613,11211 Z"/>
 <path fill="rgb(126,0,33)" stroke="none" d="M 9476,10159 L 10071,10159 10071,9557 9476,9557 9476,10159 Z"/>
 <path fill="rgb(126,0,33)" stroke="none" d="M 2339,7000 L 2934,7000 2934,6679 2339,6679 2339,7000 Z"/>
 <path fill="rgb(87,157,28)" stroke="none" d="M 17802,11903 L 18397,11903 18397,11849 17802,11849 17802,11903 Z"/>
 <path fill="rgb(87,157,28)" stroke="none" d="M 16613,11263 L 17208,11263 17208,11211 16613,11211 16613,11263 Z"/>
 <path fill="rgb(87,157,28)" stroke="none" d="M 9476,10252 L 10071,10252 10071,10159 9476,10159 9476,10252 Z"/>
 <path fill="rgb(87,157,28)" stroke="none" d="M 2339,7025 L 2934,7025 2934,7000 2339,7000 2339,7025 Z"/>
 <path fill="rgb(255,211,32)" stroke="none" d="M 17802,12110 L 18397,12110 18397,11903 17802,11903 17802,12110 Z"/>
 <path fill="rgb(255,211,32)" stroke="none" d="M 16613,11426 L 17208,11426 17208,11263 16613,11263 16613,11426 Z"/>
 <path fill="rgb(255,211,32)" stroke="none" d="M 9476,10286 L 10071,10286 10071,10252 9476,10252 9476,10286 Z"/>
 <path fill="rgb(255,211,32)" stroke="none" d="M 2339,5938 L 2934,5938 2934,5938 2339,5938 Z"/>
 <path fill="rgb(255,66,14)" stroke="none" d="M 17802,12124 L 18397,12124 18397,12110 17802,12110 17802,12124 Z"/>
 <path fill="rgb(255,66,14)" stroke="none" d="M 16613,11444 L 17208,11444 17208,11426 16613,11426 16613,11444 Z"/>
 <path fill="rgb(255,66,14)" stroke="none" d="M 9476,10294 L 10071,10294 10071,10286 9476,10286 9476,10294 Z"/>
 <path fill="rgb(255,66,14)" stroke="none" d="M 2339,7030 L 2934,7030 2934,7025 2339,7025 2339,7030 Z"/>
 <path fill="rgb(0,0,153)" stroke="none" d="M 23750,6547 L 24345,6547 24345,6446 23750,6446 23750,6547 Z"/>
 <path fill="rgb(0,0,153)" stroke="none" d="M 15423,11110 L 16018,11110 16018,8352 15423,8352 15423,11110 Z"/>
 <path fill="rgb(0,0,153)" stroke="none" d="M 14235,11108 L 14829,11108 14829,8425 14235,8425 14235,11108 Z"/>
 <path fill="rgb(0,0,153)" stroke="none" d="M 13045,11581 L 13640,11581 13640,8629 13045,8629 13045,11581 Z"/>
 <path fill="rgb(0,0,153)" stroke="none" d="M 11856,11252 L 12450,11252 12450,8427 11856,8427 11856,11252 Z"/>
 <path fill="rgb(0,0,153)" stroke="none" d="M 10666,10728 L 11261,10728 11261,8279 10666,8279 10666,10728 Z"/>
 <path fill="rgb(0,0,153)" stroke="none" d="M 8287,10027 L 8882,10027 8882,8227 8287,8227 8287,10027 Z"/>
 <path fill="rgb(0,0,153)" stroke="none" d="M 7097,9985 L 7692,9985 7692,8454 7097,8454 7097,9985 Z"/>
 <path fill="rgb(0,0,153)" stroke="none" d="M 5908,8920 L 6502,8920 6502,7840 5908,7840 5908,8920 Z"/>
 <path fill="rgb(0,0,153)" stroke="none" d="M 4718,8050 L 5313,8050 5313,7234 4718,7234 4718,8050 Z"/>
 <path fill="rgb(0,0,153)" stroke="none" d="M 3528,7492 L 4123,7492 4123,6799 3528,6799 3528,7492 Z"/>
 <path fill="rgb(0,204,204)" stroke="none" d="M 23750,5938 L 24345,5938 24345,4962 23750,4962 23750,5938 Z"/>
 <path fill="rgb(0,204,204)" stroke="none" d="M 17802,5938 L 18397,5938 18397,4625 17802,4625 17802,5938 Z"/>
 <path fill="rgb(0,204,204)" stroke="none" d="M 16613,5938 L 17208,5938 17208,4473 16613,4473 16613,5938 Z"/>
 <path fill="rgb(0,204,204)" stroke="none" d="M 9476,5938 L 10071,5938 10071,4714 9476,4714 9476,5938 Z"/>
 <path fill="rgb(0,204,204)" stroke="none" d="M 2339,5938 L 2934,5938 2934,5018 2339,5018 2339,5938 Z"/>
 <path fill="rgb(102,0,255)" stroke="none" d="M 23750,4962 L 24345,4962 24345,4782 23750,4782 23750,4962 Z"/>
 <path fill="rgb(102,0,255)" stroke="none" d="M 17802,4625 L 18397,4625 18397,3320 17802,3320 17802,4625 Z"/>
 <path fill="rgb(102,0,255)" stroke="none" d="M 16613,4473 L 17208,4473 17208,3348 16613,3348 16613,4473 Z"/>
 <path fill="rgb(102,0,255)" stroke="none" d="M 9476,4714 L 10071,4714 10071,3691 9476,3691 9476,4714 Z"/>
 <path fill="rgb(102,0,255)" stroke="none" d="M 2339,5018 L 2934,5018 2934,4660 2339,4660 2339,5018 Z"/>
 <path fill="rgb(102,255,0)" stroke="none" d="M 23750,4782 L 24345,4782 24345,4756 23750,4756 23750,4782 Z"/>
 <path fill="rgb(102,255,0)" stroke="none" d="M 17802,3320 L 18397,3320 18397,3234 17802,3234 17802,3320 Z"/>
 <path fill="rgb(102,255,0)" stroke="none" d="M 16613,3348 L 17208,3348 17208,3270 16613,3270 16613,3348 Z"/>
 <path fill="rgb(102,255,0)" stroke="none" d="M 9476,3691 L 10071,3691 10071,3651 9476,3651 9476,3691 Z"/>
 <path fill="rgb(102,255,0)" stroke="none" d="M 2339,4660 L 2934,4660 2934,4643 2339,4643 2339,4660 Z"/>
 <path fill="rgb(255,0,0)" stroke="none" d="M 23750,4756 L 24345,4756 24345,4609 23750,4609 23750,4756 Z"/>
 <path fill="rgb(255,0,0)" stroke="none" d="M 17802,3234 L 18397,3234 18397,3202 17802,3202 17802,3234 Z"/>
 <path fill="rgb(255,0,0)" stroke="none" d="M 16613,3270 L 17208,3270 17208,3242 16613,3242 16613,3270 Z"/>
 <path fill="rgb(255,0,0)" stroke="none" d="M 9476,3651 L 10071,3651 10071,3624 9476,3624 9476,3651 Z"/>
 <path fill="rgb(255,0,0)" stroke="none" d="M 2339,4643 L 2934,4643 2934,4621 2339,4621 2339,4643 Z"/>
 <path fill="rgb(0,120,38)" stroke="none" d="M 15423,5938 L 16018,5938 16018,3446 15423,3446 15423,5938 Z"/>
 <path fill="rgb(0,120,38)" stroke="none" d="M 14235,5938 L 14829,5938 14829,3230 14235,3230 14235,5938 Z"/>
 <path fill="rgb(0,120,38)" stroke="none" d="M 13045,5938 L 13640,5938 13640,3365 13045,3365 13045,5938 Z"/>
 <path fill="rgb(0,120,38)" stroke="none" d="M 11856,5938 L 12450,5938 12450,3295 11856,3295 11856,5938 Z"/>
 <path fill="rgb(0,120,38)" stroke="none" d="M 10666,5938 L 11261,5938 11261,3436 10666,3436 10666,5938 Z"/>
 <path fill="rgb(0,120,38)" stroke="none" d="M 8287,5938 L 8882,5938 8882,3943 8287,3943 8287,5938 Z"/>
 <path fill="rgb(0,120,38)" stroke="none" d="M 7097,5938 L 7692,5938 7692,4073 7097,4073 7097,5938 Z"/>
 <path fill="rgb(0,120,38)" stroke="none" d="M 5908,5938 L 6502,5938 6502,4352 5908,4352 5908,5938 Z"/>
 <path fill="rgb(0,120,38)" stroke="none" d="M 4718,5938 L 5313,5938 5313,4267 4718,4267 4718,5938 Z"/>
 <path fill="rgb(0,120,38)" stroke="none" d="M 3528,5938 L 4123,5938 4123,4504 3528,4504 3528,5938 Z"/>
 <path fill="none" stroke="rgb(204,0,0)" stroke-width="100" stroke-linejoin="round" d="M 2636,5713 L 3826,6058 5015,6380 6205,7334 7395,8120 8584,8032 9774,7979 10963,8225 12153,8609 13343,9008 14532,8400 15721,8617 16910,8747 18100,9388 24048,5218"/>
 <path fill="none" stroke="rgb(0,120,38)" stroke-width="80" stroke-linejoin="round" d="M 2636,4621 L 3826,4504 5015,4267 6205,4352 7395,4073 8584,3943 9774,3624 10963,3436 12153,3295 13343,3365 14532,3230 15721,3446 16910,3242 18100,3202 24048,4609"/>
 <path fill="none" stroke="rgb(0,0,153)" stroke-width="80" stroke-linejoin="round" d="M 2636,7030 L 3826,7492 5015,8050 6205,8920 7395,9985 8584,10027 9774,10294 10963,10728 12153,11252 13343,11581 14532,11108 15721,11110 16910,11444 18100,12124 24048,6547"/>
 <text class="SVGTextShape"><tspan class="TextParagraph" font-family="Liberation Sans, sans-serif" font-size="353px" font-weight="400"><tspan class="TextPosition" x="2265" y="14620"><tspan fill="rgb(0,0,0)" stroke="none">1950</tspan></tspan></tspan></text>
 <text class="SVGTextShape"><tspan class="TextParagraph" font-family="Liberation Sans, sans-serif" font-size="353px" font-weight="400"><tspan class="TextPosition" x="3455" y="14620"><tspan fill="rgb(0,0,0)" stroke="none">1955</tspan></tspan></tspan></text>
 <text class="SVGTextShape"><tspan class="TextParagraph" font-family="Liberation Sans, sans-serif" font-size="353px" font-weight="400"><tspan class="TextPosition" x="4644" y="14620"><tspan fill="rgb(0,0,0)" stroke="none">1960</tspan></tspan></tspan></text>
 <text class="SVGTextShape"><tspan class="TextParagraph" font-family="Liberation Sans, sans-serif" font-size="353px" font-weight="400"><tspan class="TextPosition" x="5834" y="14620"><tspan fill="rgb(0,0,0)" stroke="none">1965</tspan></tspan></tspan></text>
 <text class="SVGTextShape"><tspan class="TextParagraph" font-family="Liberation Sans, sans-serif" font-size="353px" font-weight="400"><tspan class="TextPosition" x="7024" y="14620"><tspan fill="rgb(0,0,0)" stroke="none">1970</tspan></tspan></tspan></text>
 <text class="SVGTextShape"><tspan class="TextParagraph" font-family="Liberation Sans, sans-serif" font-size="353px" font-weight="400"><tspan class="TextPosition" x="8213" y="14620"><tspan fill="rgb(0,0,0)" stroke="none">1975</tspan></tspan></tspan></text>
 <text class="SVGTextShape"><tspan class="TextParagraph" font-family="Liberation Sans, sans-serif" font-size="353px" font-weight="400"><tspan class="TextPosition" x="9403" y="14620"><tspan fill="rgb(0,0,0)" stroke="none">1980</tspan></tspan></tspan></text>
 <text class="SVGTextShape"><tspan class="TextParagraph" font-family="Liberation Sans, sans-serif" font-size="353px" font-weight="400"><tspan class="TextPosition" x="10592" y="14620"><tspan fill="rgb(0,0,0)" stroke="none">1985</tspan></tspan></tspan></text>
 <text class="SVGTextShape"><tspan class="TextParagraph" font-family="Liberation Sans, sans-serif" font-size="353px" font-weight="400"><tspan class="TextPosition" x="11782" y="14620"><tspan fill="rgb(0,0,0)" stroke="none">1990</tspan></tspan></tspan></text>
 <text class="SVGTextShape"><tspan class="TextParagraph" font-family="Liberation Sans, sans-serif" font-size="353px" font-weight="400"><tspan class="TextPosition" x="12972" y="14620"><tspan fill="rgb(0,0,0)" stroke="none">1995</tspan></tspan></tspan></text>
 <text class="SVGTextShape"><tspan class="TextParagraph" font-family="Liberation Sans, sans-serif" font-size="353px" font-weight="400"><tspan class="TextPosition" x="14161" y="14620"><tspan fill="rgb(0,0,0)" stroke="none">2000</tspan></tspan></tspan></text>
 <text class="SVGTextShape"><tspan class="TextParagraph" font-family="Liberation Sans, sans-serif" font-size="353px" font-weight="400"><tspan class="TextPosition" x="15351" y="14620"><tspan fill="rgb(0,0,0)" stroke="none">2005</tspan></tspan></tspan></text>
 <text class="SVGTextShape"><tspan class="TextParagraph" font-family="Liberation Sans, sans-serif" font-size="353px" font-weight="400"><tspan class="TextPosition" x="16540" y="14620"><tspan fill="rgb(0,0,0)" stroke="none">2010</tspan></tspan></tspan></text>
 <text class="SVGTextShape"><tspan class="TextParagraph" font-family="Liberation Sans, sans-serif" font-size="353px" font-weight="400"><tspan class="TextPosition" x="17730" y="14620"><tspan fill="rgb(0,0,0)" stroke="none">2015</tspan></tspan></tspan></text>
 <text class="SVGTextShape"><tspan class="TextParagraph" font-family="Liberation Sans, sans-serif" font-size="353px" font-weight="400"><tspan class="TextPosition" x="18919" y="14620"><tspan fill="rgb(0,0,0)" stroke="none">2020</tspan></tspan></tspan></text>
 <text class="SVGTextShape"><tspan class="TextParagraph" font-family="Liberation Sans, sans-serif" font-size="353px" font-weight="400"><tspan class="TextPosition" x="20109" y="14620"><tspan fill="rgb(0,0,0)" stroke="none">2025</tspan></tspan></tspan></text>
 <text class="SVGTextShape"><tspan class="TextParagraph" font-family="Liberation Sans, sans-serif" font-size="353px" font-weight="400"><tspan class="TextPosition" x="21299" y="14620"><tspan fill="rgb(0,0,0)" stroke="none">2030</tspan></tspan></tspan></text>
 <text class="SVGTextShape"><tspan class="TextParagraph" font-family="Liberation Sans, sans-serif" font-size="353px" font-weight="400"><tspan class="TextPosition" x="22488" y="14620"><tspan fill="rgb(0,0,0)" stroke="none">2035</tspan></tspan></tspan></text>
 <text class="SVGTextShape"><tspan class="TextParagraph" font-family="Liberation Sans, sans-serif" font-size="353px" font-weight="400"><tspan class="TextPosition" x="23678" y="14620"><tspan fill="rgb(0,0,0)" stroke="none">2040</tspan></tspan></tspan></text>
 <text class="SVGTextShape"><tspan class="TextParagraph" font-family="Liberation Sans, sans-serif" font-size="353px" font-weight="400"><tspan class="TextPosition" x="601" y="14173"><tspan fill="rgb(0,0,0)" stroke="none">-400 PJ</tspan></tspan></tspan></text>
 <text class="SVGTextShape"><tspan class="TextParagraph" font-family="Liberation Sans, sans-serif" font-size="353px" font-weight="400"><tspan class="TextPosition" x="601" y="12144"><tspan fill="rgb(0,0,0)" stroke="none">-300 PJ</tspan></tspan></tspan></text>
 <text class="SVGTextShape"><tspan class="TextParagraph" font-family="Liberation Sans, sans-serif" font-size="353px" font-weight="400"><tspan class="TextPosition" x="601" y="10116"><tspan fill="rgb(0,0,0)" stroke="none">-200 PJ</tspan></tspan></tspan></text>
 <text class="SVGTextShape"><tspan class="TextParagraph" font-family="Liberation Sans, sans-serif" font-size="353px" font-weight="400"><tspan class="TextPosition" x="601" y="8087"><tspan fill="rgb(0,0,0)" stroke="none">-100 PJ</tspan></tspan></tspan></text>
 <text class="SVGTextShape"><tspan class="TextParagraph" font-family="Liberation Sans, sans-serif" font-size="353px" font-weight="400"><tspan class="TextPosition" x="1078" y="6058"><tspan fill="rgb(0,0,0)" stroke="none">0 PJ</tspan></tspan></tspan></text>
 <text class="SVGTextShape"><tspan class="TextParagraph" font-family="Liberation Sans, sans-serif" font-size="353px" font-weight="400"><tspan class="TextPosition" x="707" y="4030"><tspan fill="rgb(0,0,0)" stroke="none">100 PJ</tspan></tspan></tspan></text>
 <text class="SVGTextShape"><tspan class="TextParagraph" font-family="Liberation Sans, sans-serif" font-size="353px" font-weight="400"><tspan class="TextPosition" x="707" y="2001"><tspan fill="rgb(0,0,0)" stroke="none">200 PJ</tspan></tspan></tspan></text>
 <text class="SVGTextShape"><tspan class="TextParagraph" font-family="Liberation Sans, sans-serif" font-size="564px" font-weight="400"><tspan class="TextPosition" x="9615" y="1108"><tspan fill="rgb(0,0,0)" stroke="none">Energie in de Nederlandse landbouw in PJ</tspan></tspan></tspan></text>
 <path fill="rgb(51,51,51)" stroke="none" d="M 25759,11588 L 25359,11588 25359,11377 26159,11377 26159,11588 25759,11588 Z"/>
 <path fill="rgb(0,69,134)" stroke="none" d="M 25759,11090 L 25359,11090 25359,10879 26159,10879 26159,11090 25759,11090 Z"/>
 <path fill="rgb(255,149,14)" stroke="none" d="M 25759,10592 L 25359,10592 25359,10381 26159,10381 26159,10592 25759,10592 Z"/>
 <path fill="rgb(102,0,255)" stroke="none" d="M 25759,10094 L 25359,10094 25359,9883 26159,9883 26159,10094 25759,10094 Z"/>
 <path fill="rgb(75,31,111)" stroke="none" d="M 25759,9596 L 25359,9596 25359,9385 26159,9385 26159,9596 25759,9596 Z"/>
 <path fill="rgb(174,207,0)" stroke="none" d="M 25759,9098 L 25359,9098 25359,8887 26159,8887 26159,9098 25759,9098 Z"/>
 <path fill="rgb(49,64,4)" stroke="none" d="M 25759,8600 L 25359,8600 25359,8389 26159,8389 26159,8600 25759,8600 Z"/>
 <path fill="rgb(131,202,255)" stroke="none" d="M 25759,8102 L 25359,8102 25359,7891 26159,7891 26159,8102 25759,8102 Z"/>
 <path fill="rgb(126,0,33)" stroke="none" d="M 25759,7604 L 25359,7604 25359,7394 26159,7394 26159,7604 25759,7604 Z"/>
 <path fill="rgb(87,157,28)" stroke="none" d="M 25759,7107 L 25359,7107 25359,6896 26159,6896 26159,7107 25759,7107 Z"/>
 <path fill="rgb(255,211,32)" stroke="none" d="M 25759,6609 L 25359,6609 25359,6398 26159,6398 26159,6609 25759,6609 Z"/>
 <path fill="rgb(255,66,14)" stroke="none" d="M 25759,6111 L 25359,6111 25359,5900 26159,5900 26159,6111 25759,6111 Z"/>
 <path fill="rgb(0,0,153)" stroke="none" d="M 25759,5613 L 25359,5613 25359,5402 26159,5402 26159,5613 25759,5613 Z"/>
 <path fill="rgb(0,204,204)" stroke="none" d="M 25759,5115 L 25359,5115 25359,4904 26159,4904 26159,5115 25759,5115 Z"/>
 <path fill="rgb(102,0,255)" stroke="none" d="M 25759,4617 L 25359,4617 25359,4406 26159,4406 26159,4617 25759,4617 Z"/>
 <path fill="rgb(102,255,0)" stroke="none" d="M 25759,4119 L 25359,4119 25359,3908 26159,3908 26159,4119 25759,4119 Z"/>
 <path fill="rgb(255,0,0)" stroke="none" d="M 25759,3621 L 25359,3621 25359,3410 26159,3410 26159,3621 25759,3621 Z"/>
 <path fill="rgb(0,120,38)" stroke="none" d="M 25759,3123 L 25359,3123 25359,2912 26159,2912 26159,3123 25759,3123 Z"/>
 <path fill="none" stroke="rgb(204,0,0)" stroke-width="100" stroke-linejoin="round" d="M 25359,11980 L 26159,11980"/>
 <text class="SVGTextShape"><tspan class="TextParagraph" font-family="Liberation Sans, sans-serif" font-size="353px" font-weight="400"><tspan class="TextPosition" x="26259" y="3137"><tspan fill="rgb(0,0,0)" stroke="none">output </tspan></tspan></tspan></text>
 <text class="SVGTextShape"><tspan class="TextParagraph" font-family="Liberation Sans, sans-serif" font-size="353px" font-weight="400"><tspan class="TextPosition" x="26259" y="3635"><tspan fill="rgb(0,0,0)" stroke="none">fruit</tspan></tspan></tspan></text>
 <text class="SVGTextShape"><tspan class="TextParagraph" font-family="Liberation Sans, sans-serif" font-size="353px" font-weight="400"><tspan class="TextPosition" x="26259" y="4133"><tspan fill="rgb(0,0,0)" stroke="none">groenten</tspan></tspan></tspan></text>
 <text class="SVGTextShape"><tspan class="TextParagraph" font-family="Liberation Sans, sans-serif" font-size="353px" font-weight="400"><tspan class="TextPosition" x="26259" y="4631"><tspan fill="rgb(0,0,0)" stroke="none">veehouderij</tspan></tspan></tspan></text>
 <text class="SVGTextShape"><tspan class="TextParagraph" font-family="Liberation Sans, sans-serif" font-size="353px" font-weight="400"><tspan class="TextPosition" x="26259" y="5129"><tspan fill="rgb(0,0,0)" stroke="none">akkerbouw</tspan></tspan></tspan></text>
 <text class="SVGTextShape"><tspan class="TextParagraph" font-family="Liberation Sans, sans-serif" font-size="353px" font-weight="400"><tspan class="TextPosition" x="26259" y="5627"><tspan fill="rgb(0,0,0)" stroke="none">indirecte input</tspan></tspan></tspan></text>
 <text class="SVGTextShape"><tspan class="TextParagraph" font-family="Liberation Sans, sans-serif" font-size="353px" font-weight="400"><tspan class="TextPosition" x="26259" y="6125"><tspan fill="rgb(0,0,0)" stroke="none">dienstensector </tspan></tspan></tspan></text>
 <text class="SVGTextShape"><tspan class="TextParagraph" font-family="Liberation Sans, sans-serif" font-size="353px" font-weight="400"><tspan class="TextPosition" x="26259" y="6623"><tspan fill="rgb(0,0,0)" stroke="none">elektronica </tspan></tspan></tspan></text>
 <text class="SVGTextShape"><tspan class="TextParagraph" font-family="Liberation Sans, sans-serif" font-size="353px" font-weight="400"><tspan class="TextPosition" x="26259" y="7121"><tspan fill="rgb(0,0,0)" stroke="none">bestrijdingsmiddelen </tspan></tspan></tspan></text>
 <text class="SVGTextShape"><tspan class="TextParagraph" font-family="Liberation Sans, sans-serif" font-size="353px" font-weight="400"><tspan class="TextPosition" x="26259" y="7618"><tspan fill="rgb(0,0,0)" stroke="none">kunstmest </tspan></tspan></tspan></text>
 <text class="SVGTextShape"><tspan class="TextParagraph" font-family="Liberation Sans, sans-serif" font-size="353px" font-weight="400"><tspan class="TextPosition" x="26259" y="8116"><tspan fill="rgb(0,0,0)" stroke="none">dierlijke mest </tspan></tspan></tspan></text>
 <text class="SVGTextShape"><tspan class="TextParagraph" font-family="Liberation Sans, sans-serif" font-size="353px" font-weight="400"><tspan class="TextPosition" x="26259" y="8614"><tspan fill="rgb(0,0,0)" stroke="none">veevoer </tspan></tspan></tspan></text>
 <text class="SVGTextShape"><tspan class="TextParagraph" font-family="Liberation Sans, sans-serif" font-size="353px" font-weight="400"><tspan class="TextPosition" x="26259" y="9112"><tspan fill="rgb(0,0,0)" stroke="none">trekkers en machines </tspan></tspan></tspan></text>
 <text class="SVGTextShape"><tspan class="TextParagraph" font-family="Liberation Sans, sans-serif" font-size="353px" font-weight="400"><tspan class="TextPosition" x="26259" y="9610"><tspan fill="rgb(0,0,0)" stroke="none">overige gebouwen </tspan></tspan></tspan></text>
 <text class="SVGTextShape"><tspan class="TextParagraph" font-family="Liberation Sans, sans-serif" font-size="353px" font-weight="400"><tspan class="TextPosition" x="26259" y="10108"><tspan fill="rgb(0,0,0)" stroke="none">kassen </tspan></tspan></tspan></text>
 <text class="SVGTextShape"><tspan class="TextParagraph" font-family="Liberation Sans, sans-serif" font-size="353px" font-weight="400"><tspan class="TextPosition" x="26259" y="10606"><tspan fill="rgb(0,0,0)" stroke="none">mijnbouw </tspan></tspan></tspan></text>
 <text class="SVGTextShape"><tspan class="TextParagraph" font-family="Liberation Sans, sans-serif" font-size="353px" font-weight="400"><tspan class="TextPosition" x="26259" y="11104"><tspan fill="rgb(0,0,0)" stroke="none">transport en infrastr. </tspan></tspan></tspan></text>
 <text class="SVGTextShape"><tspan class="TextParagraph" font-family="Liberation Sans, sans-serif" font-size="353px" font-weight="400"><tspan class="TextPosition" x="26259" y="11602"><tspan fill="rgb(0,0,0)" stroke="none">directe input</tspan></tspan></tspan></text>
 <text class="SVGTextShape"><tspan class="TextParagraph" font-family="Liberation Sans, sans-serif" font-size="353px" font-weight="400"><tspan class="TextPosition" x="26259" y="12100"><tspan fill="rgb(0,0,0)" stroke="none">netto energiebalans</tspan></tspan></tspan></text>
</svg>