<?xml version="1.0" encoding="UTF-8"?>
<!DOCTYPE svg PUBLIC "-//W3C//DTD SVG 1.1//EN" "http://www.w3.org/Graphics/SVG/1.1/DTD/svg11.dtd">
<svg width="150mm" height="75mm" viewBox="0 0 15000 7500" version="1.1" xmlns="http://www.w3.org/2000/svg" xmlns:xlink="http://www.w3.org/1999/xlink" stroke-width="28.222" stroke-linejoin="round" xml:space="preserve">
 <path fill="rgb(255,255,255)" stroke="none" d="M 7500,7500 L 0,7500 0,0 15000,0 15000,7500 7500,7500 Z"/>
 <path fill="none" stroke="rgb(179,179,179)" stroke-linejoin="round" d="M 8277,6221 L 2033,6221 2033,323 14521,323 14521,6221 8277,6221 Z"/>
 <path fill="none" stroke="rgb(179,179,179)" stroke-linejoin="round" d="M 14521,6220 L 2033,6220"/>
 <path fill="none" stroke="rgb(179,179,179)" stroke-linejoin="round" d="M 14521,5236 L 2033,5236"/>
 <path fill="none" stroke="rgb(179,179,179)" stroke-linejoin="round" d="M 14521,4253 L 2033,4253"/>
 <path fill="none" stroke="rgb(179,179,179)" stroke-linejoin="round" d="M 14521,3271 L 2033,3271"/>
 <path fill="none" stroke="rgb(179,179,179)" stroke-linejoin="round" d="M 14521,2288 L 2033,2288"/>
 <path fill="none" stroke="rgb(179,179,179)" stroke-linejoin="round" d="M 14521,1305 L 2033,1305"/>
 <path fill="none" stroke="rgb(179,179,179)" stroke-linejoin="round" d="M 14521,322 L 2033,322"/>
 <path fill="none" stroke="rgb(179,179,179)" stroke-linejoin="round" d="M 2033,6370 L 2033,6220"/>
 <path fill="none" stroke="rgb(179,179,179)" stroke-linejoin="round" d="M 2033,6370 L 2033,6220"/>
 <path fill="none" stroke="rgb(179,179,179)" stroke-linejoin="round" d="M 2993,6370 L 2993,6220"/>
 <path fill="none" stroke="rgb(179,179,179)" stroke-linejoin="round" d="M 2993,6370 L 2993,6220"/>
 <path fill="none" stroke="rgb(179,179,179)" stroke-linejoin="round" d="M 3954,6370 L 3954,6220"/>
 <path fill="none" stroke="rgb(179,179,179)" stroke-linejoin="round" d="M 3954,6370 L 3954,6220"/>
 <path fill="none" stroke="rgb(179,179,179)" stroke-linejoin="round" d="M 4915,6370 L 4915,6220"/>
 <path fill="none" stroke="rgb(179,179,179)" stroke-linejoin="round" d="M 4915,6370 L 4915,6220"/>
 <path fill="none" stroke="rgb(179,179,179)" stroke-linejoin="round" d="M 5875,6370 L 5875,6220"/>
 <path fill="none" stroke="rgb(179,179,179)" stroke-linejoin="round" d="M 5875,6370 L 5875,6220"/>
 <path fill="none" stroke="rgb(179,179,179)" stroke-linejoin="round" d="M 6836,6370 L 6836,6220"/>
 <path fill="none" stroke="rgb(179,179,179)" stroke-linejoin="round" d="M 6836,6370 L 6836,6220"/>
 <path fill="none" stroke="rgb(179,179,179)" stroke-linejoin="round" d="M 7796,6370 L 7796,6220"/>
 <path fill="none" stroke="rgb(179,179,179)" stroke-linejoin="round" d="M 7796,6370 L 7796,6220"/>
 <path fill="none" stroke="rgb(179,179,179)" stroke-linejoin="round" d="M 8756,6370 L 8756,6220"/>
 <path fill="none" stroke="rgb(179,179,179)" stroke-linejoin="round" d="M 8756,6370 L 8756,6220"/>
 <path fill="none" stroke="rgb(179,179,179)" stroke-linejoin="round" d="M 9717,6370 L 9717,6220"/>
 <path fill="none" stroke="rgb(179,179,179)" stroke-linejoin="round" d="M 9717,6370 L 9717,6220"/>
 <path fill="none" stroke="rgb(179,179,179)" stroke-linejoin="round" d="M 10678,6370 L 10678,6220"/>
 <path fill="none" stroke="rgb(179,179,179)" stroke-linejoin="round" d="M 10678,6370 L 10678,6220"/>
 <path fill="none" stroke="rgb(179,179,179)" stroke-linejoin="round" d="M 11638,6370 L 11638,6220"/>
 <path fill="none" stroke="rgb(179,179,179)" stroke-linejoin="round" d="M 11638,6370 L 11638,6220"/>
 <path fill="none" stroke="rgb(179,179,179)" stroke-linejoin="round" d="M 12599,6370 L 12599,6220"/>
 <path fill="none" stroke="rgb(179,179,179)" stroke-linejoin="round" d="M 12599,6370 L 12599,6220"/>
 <path fill="none" stroke="rgb(179,179,179)" stroke-linejoin="round" d="M 13560,6370 L 13560,6220"/>
 <path fill="none" stroke="rgb(179,179,179)" stroke-linejoin="round" d="M 13560,6370 L 13560,6220"/>
 <path fill="none" stroke="rgb(179,179,179)" stroke-linejoin="round" d="M 14521,6370 L 14521,6220"/>
 <path fill="none" stroke="rgb(179,179,179)" stroke-linejoin="round" d="M 14521,6370 L 14521,6220"/>
 <path fill="none" stroke="rgb(179,179,179)" stroke-linejoin="round" d="M 2033,6220 L 14521,6220"/>
 <path fill="none" stroke="rgb(179,179,179)" stroke-linejoin="round" d="M 1883,6220 L 2033,6220"/>
 <path fill="none" stroke="rgb(179,179,179)" stroke-linejoin="round" d="M 1883,6220 L 2033,6220"/>
 <path fill="none" stroke="rgb(179,179,179)" stroke-linejoin="round" d="M 1883,5236 L 2033,5236"/>
 <path fill="none" stroke="rgb(179,179,179)" stroke-linejoin="round" d="M 1883,5236 L 2033,5236"/>
 <path fill="none" stroke="rgb(179,179,179)" stroke-linejoin="round" d="M 1883,4253 L 2033,4253"/>
 <path fill="none" stroke="rgb(179,179,179)" stroke-linejoin="round" d="M 1883,4253 L 2033,4253"/>
 <path fill="none" stroke="rgb(179,179,179)" stroke-linejoin="round" d="M 1883,3271 L 2033,3271"/>
 <path fill="none" stroke="rgb(179,179,179)" stroke-linejoin="round" d="M 1883,3271 L 2033,3271"/>
 <path fill="none" stroke="rgb(179,179,179)" stroke-linejoin="round" d="M 1883,2288 L 2033,2288"/>
 <path fill="none" stroke="rgb(179,179,179)" stroke-linejoin="round" d="M 1883,2288 L 2033,2288"/>
 <path fill="none" stroke="rgb(179,179,179)" stroke-linejoin="round" d="M 1883,1305 L 2033,1305"/>
 <path fill="none" stroke="rgb(179,179,179)" stroke-linejoin="round" d="M 1883,1305 L 2033,1305"/>
 <path fill="none" stroke="rgb(179,179,179)" stroke-linejoin="round" d="M 1883,322 L 2033,322"/>
 <path fill="none" stroke="rgb(179,179,179)" stroke-linejoin="round" d="M 1883,322 L 2033,322"/>
 <path fill="none" stroke="rgb(179,179,179)" stroke-linejoin="round" d="M 2033,6220 L 2033,322"/>
 <path fill="none" stroke="rgb(0,69,134)" stroke-width="50" stroke-linejoin="round" d="M 2033,1524 L 2993,2152 3954,2224 4915,2414 5875,2254 6836,2540 7796,2088 8756,2020 9717,1568 10678,1629 11638,939 12599,1391 13560,749 14521,936"/>
 <path fill="rgb(0,69,134)" stroke="none" d="M 1908,1399 L 1908,1649 2158,1649 2158,1399 1908,1399 Z"/>
 <path fill="none" stroke="rgb(0,69,134)" stroke-linejoin="round" d="M 1908,1399 L 1908,1649 2158,1649 2158,1399 1908,1399 Z"/>
 <path fill="rgb(0,69,134)" stroke="none" d="M 2868,2027 L 2868,2277 3118,2277 3118,2027 2868,2027 Z"/>
 <path fill="none" stroke="rgb(0,69,134)" stroke-linejoin="round" d="M 2868,2027 L 2868,2277 3118,2277 3118,2027 2868,2027 Z"/>
 <path fill="rgb(0,69,134)" stroke="none" d="M 3829,2099 L 3829,2349 4079,2349 4079,2099 3829,2099 Z"/>
 <path fill="none" stroke="rgb(0,69,134)" stroke-linejoin="round" d="M 3829,2099 L 3829,2349 4079,2349 4079,2099 3829,2099 Z"/>
 <path fill="rgb(0,69,134)" stroke="none" d="M 4790,2289 L 4790,2539 5040,2539 5040,2289 4790,2289 Z"/>
 <path fill="none" stroke="rgb(0,69,134)" stroke-linejoin="round" d="M 4790,2289 L 4790,2539 5040,2539 5040,2289 4790,2289 Z"/>
 <path fill="rgb(0,69,134)" stroke="none" d="M 5750,2129 L 5750,2379 6000,2379 6000,2129 5750,2129 Z"/>
 <path fill="none" stroke="rgb(0,69,134)" stroke-linejoin="round" d="M 5750,2129 L 5750,2379 6000,2379 6000,2129 5750,2129 Z"/>
 <path fill="rgb(0,69,134)" stroke="none" d="M 6711,2415 L 6711,2665 6961,2665 6961,2415 6711,2415 Z"/>
 <path fill="none" stroke="rgb(0,69,134)" stroke-linejoin="round" d="M 6711,2415 L 6711,2665 6961,2665 6961,2415 6711,2415 Z"/>
 <path fill="rgb(0,69,134)" stroke="none" d="M 7671,1963 L 7671,2213 7921,2213 7921,1963 7671,1963 Z"/>
 <path fill="none" stroke="rgb(0,69,134)" stroke-linejoin="round" d="M 7671,1963 L 7671,2213 7921,2213 7921,1963 7671,1963 Z"/>
 <path fill="rgb(0,69,134)" stroke="none" d="M 8631,1895 L 8631,2145 8881,2145 8881,1895 8631,1895 Z"/>
 <path fill="none" stroke="rgb(0,69,134)" stroke-linejoin="round" d="M 8631,1895 L 8631,2145 8881,2145 8881,1895 8631,1895 Z"/>
 <path fill="rgb(0,69,134)" stroke="none" d="M 9592,1443 L 9592,1693 9842,1693 9842,1443 9592,1443 Z"/>
 <path fill="none" stroke="rgb(0,69,134)" stroke-linejoin="round" d="M 9592,1443 L 9592,1693 9842,1693 9842,1443 9592,1443 Z"/>
 <path fill="rgb(0,69,134)" stroke="none" d="M 10553,1504 L 10553,1754 10803,1754 10803,1504 10553,1504 Z"/>
 <path fill="none" stroke="rgb(0,69,134)" stroke-linejoin="round" d="M 10553,1504 L 10553,1754 10803,1754 10803,1504 10553,1504 Z"/>
 <path fill="rgb(0,69,134)" stroke="none" d="M 11513,814 L 11513,1064 11763,1064 11763,814 11513,814 Z"/>
 <path fill="none" stroke="rgb(0,69,134)" stroke-linejoin="round" d="M 11513,814 L 11513,1064 11763,1064 11763,814 11513,814 Z"/>
 <path fill="rgb(0,69,134)" stroke="none" d="M 12474,1266 L 12474,1516 12724,1516 12724,1266 12474,1266 Z"/>
 <path fill="none" stroke="rgb(0,69,134)" stroke-linejoin="round" d="M 12474,1266 L 12474,1516 12724,1516 12724,1266 12474,1266 Z"/>
 <path fill="rgb(0,69,134)" stroke="none" d="M 13435,624 L 13435,874 13685,874 13685,624 13435,624 Z"/>
 <path fill="none" stroke="rgb(0,69,134)" stroke-linejoin="round" d="M 13435,624 L 13435,874 13685,874 13685,624 13435,624 Z"/>
 <path fill="rgb(0,69,134)" stroke="none" d="M 14396,811 L 14396,1061 14646,1061 14646,811 14396,811 Z"/>
 <path fill="none" stroke="rgb(0,69,134)" stroke-linejoin="round" d="M 14396,811 L 14396,1061 14646,1061 14646,811 14396,811 Z"/>
 <text class="SVGTextShape" transform="rotate(-44.9 1611 7274)"><tspan class="TextParagraph" font-family="Latin Modern Roman" font-size="353px" font-weight="400"><tspan class="TextPosition" x="1611" y="7274"><tspan fill="rgb(0,0,0)" stroke="none">1950</tspan></tspan></tspan></text>
 <text class="SVGTextShape" transform="rotate(-44.9 2571 7274)"><tspan class="TextParagraph" font-family="Latin Modern Roman" font-size="353px" font-weight="400"><tspan class="TextPosition" x="2571" y="7274"><tspan fill="rgb(0,0,0)" stroke="none">1955</tspan></tspan></tspan></text>
 <text class="SVGTextShape" transform="rotate(-44.9 3532 7274)"><tspan class="TextParagraph" font-family="Latin Modern Roman" font-size="353px" font-weight="400"><tspan class="TextPosition" x="3532" y="7274"><tspan fill="rgb(0,0,0)" stroke="none">1960</tspan></tspan></tspan></text>
 <text class="SVGTextShape" transform="rotate(-44.9 4493 7274)"><tspan class="TextParagraph" font-family="Latin Modern Roman" font-size="353px" font-weight="400"><tspan class="TextPosition" x="4493" y="7274"><tspan fill="rgb(0,0,0)" stroke="none">1965</tspan></tspan></tspan></text>
 <text class="SVGTextShape" transform="rotate(-44.9 5453 7274)"><tspan class="TextParagraph" font-family="Latin Modern Roman" font-size="353px" font-weight="400"><tspan class="TextPosition" x="5453" y="7274"><tspan fill="rgb(0,0,0)" stroke="none">1970</tspan></tspan></tspan></text>
 <text class="SVGTextShape" transform="rotate(-44.9 6414 7274)"><tspan class="TextParagraph" font-family="Latin Modern Roman" font-size="353px" font-weight="400"><tspan class="TextPosition" x="6414" y="7274"><tspan fill="rgb(0,0,0)" stroke="none">1975</tspan></tspan></tspan></text>
 <text class="SVGTextShape" transform="rotate(-44.9 7375 7274)"><tspan class="TextParagraph" font-family="Latin Modern Roman" font-size="353px" font-weight="400"><tspan class="TextPosition" x="7375" y="7274"><tspan fill="rgb(0,0,0)" stroke="none">1980</tspan></tspan></tspan></text>
 <text class="SVGTextShape" transform="rotate(-44.9 8335 7274)"><tspan class="TextParagraph" font-family="Latin Modern Roman" font-size="353px" font-weight="400"><tspan class="TextPosition" x="8335" y="7274"><tspan fill="rgb(0,0,0)" stroke="none">1985</tspan></tspan></tspan></text>
 <text class="SVGTextShape" transform="rotate(-44.9 9295 7274)"><tspan class="TextParagraph" font-family="Latin Modern Roman" font-size="353px" font-weight="400"><tspan class="TextPosition" x="9295" y="7274"><tspan fill="rgb(0,0,0)" stroke="none">1990</tspan></tspan></tspan></text>
 <text class="SVGTextShape" transform="rotate(-44.9 10256 7274)"><tspan class="TextParagraph" font-family="Latin Modern Roman" font-size="353px" font-weight="400"><tspan class="TextPosition" x="10256" y="7274"><tspan fill="rgb(0,0,0)" stroke="none">1995</tspan></tspan></tspan></text>
 <text class="SVGTextShape" transform="rotate(-44.9 11216 7274)"><tspan class="TextParagraph" font-family="Latin Modern Roman" font-size="353px" font-weight="400"><tspan class="TextPosition" x="11216" y="7274"><tspan fill="rgb(0,0,0)" stroke="none">2000</tspan></tspan></tspan></text>
 <text class="SVGTextShape" transform="rotate(-44.9 12177 7274)"><tspan class="TextParagraph" font-family="Latin Modern Roman" font-size="353px" font-weight="400"><tspan class="TextPosition" x="12177" y="7274"><tspan fill="rgb(0,0,0)" stroke="none">2005</tspan></tspan></tspan></text>
 <text class="SVGTextShape" transform="rotate(-44.9 13138 7274)"><tspan class="TextParagraph" font-family="Latin Modern Roman" font-size="353px" font-weight="400"><tspan class="TextPosition" x="13138" y="7274"><tspan fill="rgb(0,0,0)" stroke="none">2010</tspan></tspan></tspan></text>
 <text class="SVGTextShape" transform="rotate(-44.9 14099 7274)"><tspan class="TextParagraph" font-family="Latin Modern Roman" font-size="353px" font-weight="400"><tspan class="TextPosition" x="14099" y="7274"><tspan fill="rgb(0,0,0)" stroke="none">2015</tspan></tspan></tspan></text>
 <text class="SVGTextShape"><tspan class="TextParagraph" font-family="Latin Modern Math" font-size="353px" font-weight="400"><tspan class="TextPosition" x="487" y="6314"><tspan fill="rgb(0,0,0)" stroke="none">0 GJ/ha</tspan></tspan></tspan></text>
 <text class="SVGTextShape"><tspan class="TextParagraph" font-family="Latin Modern Math" font-size="353px" font-weight="400"><tspan class="TextPosition" x="487" y="5330"><tspan fill="rgb(0,0,0)" stroke="none">5 GJ/ha</tspan></tspan></tspan></text>
 <text class="SVGTextShape"><tspan class="TextParagraph" font-family="Latin Modern Math" font-size="353px" font-weight="400"><tspan class="TextPosition" x="301" y="4347"><tspan fill="rgb(0,0,0)" stroke="none">10 GJ/ha</tspan></tspan></tspan></text>
 <text class="SVGTextShape"><tspan class="TextParagraph" font-family="Latin Modern Math" font-size="353px" font-weight="400"><tspan class="TextPosition" x="301" y="3364"><tspan fill="rgb(0,0,0)" stroke="none">15 GJ/ha</tspan></tspan></tspan></text>
 <text class="SVGTextShape"><tspan class="TextParagraph" font-family="Latin Modern Math" font-size="353px" font-weight="400"><tspan class="TextPosition" x="301" y="2381"><tspan fill="rgb(0,0,0)" stroke="none">20 GJ/ha</tspan></tspan></tspan></text>
 <text class="SVGTextShape"><tspan class="TextParagraph" font-family="Latin Modern Math" font-size="353px" font-weight="400"><tspan class="TextPosition" x="301" y="1398"><tspan fill="rgb(0,0,0)" stroke="none">25 GJ/ha</tspan></tspan></tspan></text>
 <text class="SVGTextShape"><tspan class="TextParagraph" font-family="Latin Modern Math" font-size="353px" font-weight="400"><tspan class="TextPosition" x="301" y="415"><tspan fill="rgb(0,0,0)" stroke="none">30 GJ/ha</tspan></tspan></tspan></text>
</svg>