<?xml version="1.0" encoding="UTF-8"?>
<!DOCTYPE svg PUBLIC "-//W3C//DTD SVG 1.1//EN" "http://www.w3.org/Graphics/SVG/1.1/DTD/svg11.dtd">
<svg width="80mm" height="40mm" viewBox="0 0 8000 4000" version="1.1" xmlns="http://www.w3.org/2000/svg" xmlns:xlink="http://www.w3.org/1999/xlink" stroke-width="28.222" stroke-linejoin="round" xml:space="preserve">
 <path fill="rgb(255,255,255)" stroke="none" d="M 4000,4000 L 0,4000 0,0 8000,0 8000,4000 4000,4000 Z"/>
 <path fill="none" stroke="rgb(0,0,0)" stroke-linejoin="round" d="M 4000,4000 L 0,4000 0,0 8000,0 8000,4000 4000,4000 Z"/>
 <defs>
  <linearGradient id="Gradient_19" gradientUnits="userSpaceOnUse" x1="4218" y1="249" x2="4218" y2="2839">
   <stop offset="0.3" stop-color="rgb(204,0,0)"/>
   <stop offset="1" stop-color="rgb(0,153,0)"/>
  </linearGradient>
 </defs>
 <path fill="url(#Gradient_19)" stroke="rgb(179,179,179)" stroke-linejoin="round" d="M 4218,2839 L 707,2839 707,249 7730,249 7730,2839 4218,2839 Z"/>
 <path fill="none" stroke="rgb(179,179,179)" stroke-linejoin="round" d="M 7730,2838 L 707,2838"/>
 <path fill="none" stroke="rgb(179,179,179)" stroke-linejoin="round" d="M 7730,2467 L 707,2467"/>
 <path fill="none" stroke="rgb(179,179,179)" stroke-linejoin="round" d="M 7730,2097 L 707,2097"/>
 <path fill="none" stroke="rgb(179,179,179)" stroke-linejoin="round" d="M 7730,1728 L 707,1728"/>
 <path fill="none" stroke="rgb(179,179,179)" stroke-linejoin="round" d="M 7730,1358 L 707,1358"/>
 <path fill="none" stroke="rgb(179,179,179)" stroke-linejoin="round" d="M 7730,988 L 707,988"/>
 <path fill="none" stroke="rgb(179,179,179)" stroke-linejoin="round" d="M 7730,618 L 707,618"/>
 <path fill="none" stroke="rgb(179,179,179)" stroke-linejoin="round" d="M 7730,248 L 707,248"/>
 <path fill="none" stroke="rgb(179,179,179)" stroke-linejoin="round" d="M 707,2988 L 707,2838"/>
 <path fill="none" stroke="rgb(179,179,179)" stroke-linejoin="round" d="M 707,2988 L 707,2838"/>
 <path fill="none" stroke="rgb(179,179,179)" stroke-linejoin="round" d="M 2267,2988 L 2267,2838"/>
 <path fill="none" stroke="rgb(179,179,179)" stroke-linejoin="round" d="M 2267,2988 L 2267,2838"/>
 <path fill="none" stroke="rgb(179,179,179)" stroke-linejoin="round" d="M 3828,2988 L 3828,2838"/>
 <path fill="none" stroke="rgb(179,179,179)" stroke-linejoin="round" d="M 3828,2988 L 3828,2838"/>
 <path fill="none" stroke="rgb(179,179,179)" stroke-linejoin="round" d="M 5388,2988 L 5388,2838"/>
 <path fill="none" stroke="rgb(179,179,179)" stroke-linejoin="round" d="M 5388,2988 L 5388,2838"/>
 <path fill="none" stroke="rgb(179,179,179)" stroke-linejoin="round" d="M 6949,2988 L 6949,2838"/>
 <path fill="none" stroke="rgb(179,179,179)" stroke-linejoin="round" d="M 6949,2988 L 6949,2838"/>
 <path fill="none" stroke="rgb(179,179,179)" stroke-linejoin="round" d="M 1097,2950 L 1097,2838"/>
 <path fill="none" stroke="rgb(179,179,179)" stroke-linejoin="round" d="M 1097,2950 L 1097,2838"/>
 <path fill="none" stroke="rgb(179,179,179)" stroke-linejoin="round" d="M 1487,2950 L 1487,2838"/>
 <path fill="none" stroke="rgb(179,179,179)" stroke-linejoin="round" d="M 1487,2950 L 1487,2838"/>
 <path fill="none" stroke="rgb(179,179,179)" stroke-linejoin="round" d="M 1877,2950 L 1877,2838"/>
 <path fill="none" stroke="rgb(179,179,179)" stroke-linejoin="round" d="M 1877,2950 L 1877,2838"/>
 <path fill="none" stroke="rgb(179,179,179)" stroke-linejoin="round" d="M 2658,2950 L 2658,2838"/>
 <path fill="none" stroke="rgb(179,179,179)" stroke-linejoin="round" d="M 2658,2950 L 2658,2838"/>
 <path fill="none" stroke="rgb(179,179,179)" stroke-linejoin="round" d="M 3048,2950 L 3048,2838"/>
 <path fill="none" stroke="rgb(179,179,179)" stroke-linejoin="round" d="M 3048,2950 L 3048,2838"/>
 <path fill="none" stroke="rgb(179,179,179)" stroke-linejoin="round" d="M 3438,2950 L 3438,2838"/>
 <path fill="none" stroke="rgb(179,179,179)" stroke-linejoin="round" d="M 3438,2950 L 3438,2838"/>
 <path fill="none" stroke="rgb(179,179,179)" stroke-linejoin="round" d="M 4218,2950 L 4218,2838"/>
 <path fill="none" stroke="rgb(179,179,179)" stroke-linejoin="round" d="M 4218,2950 L 4218,2838"/>
 <path fill="none" stroke="rgb(179,179,179)" stroke-linejoin="round" d="M 4608,2950 L 4608,2838"/>
 <path fill="none" stroke="rgb(179,179,179)" stroke-linejoin="round" d="M 4608,2950 L 4608,2838"/>
 <path fill="none" stroke="rgb(179,179,179)" stroke-linejoin="round" d="M 4998,2950 L 4998,2838"/>
 <path fill="none" stroke="rgb(179,179,179)" stroke-linejoin="round" d="M 4998,2950 L 4998,2838"/>
 <path fill="none" stroke="rgb(179,179,179)" stroke-linejoin="round" d="M 5778,2950 L 5778,2838"/>
 <path fill="none" stroke="rgb(179,179,179)" stroke-linejoin="round" d="M 5778,2950 L 5778,2838"/>
 <path fill="none" stroke="rgb(179,179,179)" stroke-linejoin="round" d="M 6169,2950 L 6169,2838"/>
 <path fill="none" stroke="rgb(179,179,179)" stroke-linejoin="round" d="M 6169,2950 L 6169,2838"/>
 <path fill="none" stroke="rgb(179,179,179)" stroke-linejoin="round" d="M 6559,2950 L 6559,2838"/>
 <path fill="none" stroke="rgb(179,179,179)" stroke-linejoin="round" d="M 6559,2950 L 6559,2838"/>
 <path fill="none" stroke="rgb(179,179,179)" stroke-linejoin="round" d="M 7339,2950 L 7339,2838"/>
 <path fill="none" stroke="rgb(179,179,179)" stroke-linejoin="round" d="M 7339,2950 L 7339,2838"/>
 <path fill="none" stroke="rgb(179,179,179)" stroke-linejoin="round" d="M 7730,2950 L 7730,2838"/>
 <path fill="none" stroke="rgb(179,179,179)" stroke-linejoin="round" d="M 7730,2950 L 7730,2838"/>
 <path fill="none" stroke="rgb(179,179,179)" stroke-linejoin="round" d="M 707,2838 L 7730,2838"/>
 <path fill="none" stroke="rgb(179,179,179)" stroke-linejoin="round" d="M 557,2838 L 707,2838"/>
 <path fill="none" stroke="rgb(179,179,179)" stroke-linejoin="round" d="M 557,2838 L 707,2838"/>
 <path fill="none" stroke="rgb(179,179,179)" stroke-linejoin="round" d="M 557,2467 L 707,2467"/>
 <path fill="none" stroke="rgb(179,179,179)" stroke-linejoin="round" d="M 557,2467 L 707,2467"/>
 <path fill="none" stroke="rgb(179,179,179)" stroke-linejoin="round" d="M 557,2097 L 707,2097"/>
 <path fill="none" stroke="rgb(179,179,179)" stroke-linejoin="round" d="M 557,2097 L 707,2097"/>
 <path fill="none" stroke="rgb(179,179,179)" stroke-linejoin="round" d="M 557,1728 L 707,1728"/>
 <path fill="none" stroke="rgb(179,179,179)" stroke-linejoin="round" d="M 557,1728 L 707,1728"/>
 <path fill="none" stroke="rgb(179,179,179)" stroke-linejoin="round" d="M 557,1358 L 707,1358"/>
 <path fill="none" stroke="rgb(179,179,179)" stroke-linejoin="round" d="M 557,1358 L 707,1358"/>
 <path fill="none" stroke="rgb(179,179,179)" stroke-linejoin="round" d="M 557,988 L 707,988"/>
 <path fill="none" stroke="rgb(179,179,179)" stroke-linejoin="round" d="M 557,988 L 707,988"/>
 <path fill="none" stroke="rgb(179,179,179)" stroke-linejoin="round" d="M 557,618 L 707,618"/>
 <path fill="none" stroke="rgb(179,179,179)" stroke-linejoin="round" d="M 557,618 L 707,618"/>
 <path fill="none" stroke="rgb(179,179,179)" stroke-linejoin="round" d="M 557,248 L 707,248"/>
 <path fill="none" stroke="rgb(179,179,179)" stroke-linejoin="round" d="M 557,248 L 707,248"/>
 <path fill="none" stroke="rgb(179,179,179)" stroke-linejoin="round" d="M 707,2838 L 707,248"/>
 <path fill="none" stroke="rgb(255,211,32)" stroke-width="50" stroke-linejoin="round" d="M 707,2480 L 1097,2285 1487,2165 1877,1729 2267,1402 2658,1415 3048,1542 3438,1396 3828,1315 4218,1178 4608,1407 4998,1136 5388,1034 5778,608 7730,2668"/>
 <path fill="rgb(255,211,32)" stroke="none" d="M 582,2355 L 707,2605 832,2355 582,2355 Z"/>
 <path fill="none" stroke="rgb(255,211,32)" stroke-linejoin="round" d="M 582,2355 L 707,2605 832,2355 582,2355 Z"/>
 <path fill="rgb(255,211,32)" stroke="none" d="M 972,2160 L 1097,2410 1222,2160 972,2160 Z"/>
 <path fill="none" stroke="rgb(255,211,32)" stroke-linejoin="round" d="M 972,2160 L 1097,2410 1222,2160 972,2160 Z"/>
 <path fill="rgb(255,211,32)" stroke="none" d="M 1362,2040 L 1487,2290 1612,2040 1362,2040 Z"/>
 <path fill="none" stroke="rgb(255,211,32)" stroke-linejoin="round" d="M 1362,2040 L 1487,2290 1612,2040 1362,2040 Z"/>
 <path fill="rgb(255,211,32)" stroke="none" d="M 1752,1604 L 1877,1854 2002,1604 1752,1604 Z"/>
 <path fill="none" stroke="rgb(255,211,32)" stroke-linejoin="round" d="M 1752,1604 L 1877,1854 2002,1604 1752,1604 Z"/>
 <path fill="rgb(255,211,32)" stroke="none" d="M 2142,1277 L 2267,1527 2392,1277 2142,1277 Z"/>
 <path fill="none" stroke="rgb(255,211,32)" stroke-linejoin="round" d="M 2142,1277 L 2267,1527 2392,1277 2142,1277 Z"/>
 <path fill="rgb(255,211,32)" stroke="none" d="M 2533,1290 L 2658,1540 2783,1290 2533,1290 Z"/>
 <path fill="none" stroke="rgb(255,211,32)" stroke-linejoin="round" d="M 2533,1290 L 2658,1540 2783,1290 2533,1290 Z"/>
 <path fill="rgb(255,211,32)" stroke="none" d="M 2923,1417 L 3048,1667 3173,1417 2923,1417 Z"/>
 <path fill="none" stroke="rgb(255,211,32)" stroke-linejoin="round" d="M 2923,1417 L 3048,1667 3173,1417 2923,1417 Z"/>
 <path fill="rgb(255,211,32)" stroke="none" d="M 3313,1271 L 3438,1521 3563,1271 3313,1271 Z"/>
 <path fill="none" stroke="rgb(255,211,32)" stroke-linejoin="round" d="M 3313,1271 L 3438,1521 3563,1271 3313,1271 Z"/>
 <path fill="rgb(255,211,32)" stroke="none" d="M 3703,1190 L 3828,1440 3953,1190 3703,1190 Z"/>
 <path fill="none" stroke="rgb(255,211,32)" stroke-linejoin="round" d="M 3703,1190 L 3828,1440 3953,1190 3703,1190 Z"/>
 <path fill="rgb(255,211,32)" stroke="none" d="M 4093,1053 L 4218,1303 4343,1053 4093,1053 Z"/>
 <path fill="none" stroke="rgb(255,211,32)" stroke-linejoin="round" d="M 4093,1053 L 4218,1303 4343,1053 4093,1053 Z"/>
 <path fill="rgb(255,211,32)" stroke="none" d="M 4483,1282 L 4608,1532 4733,1282 4483,1282 Z"/>
 <path fill="none" stroke="rgb(255,211,32)" stroke-linejoin="round" d="M 4483,1282 L 4608,1532 4733,1282 4483,1282 Z"/>
 <path fill="rgb(255,211,32)" stroke="none" d="M 4873,1011 L 4998,1261 5123,1011 4873,1011 Z"/>
 <path fill="none" stroke="rgb(255,211,32)" stroke-linejoin="round" d="M 4873,1011 L 4998,1261 5123,1011 4873,1011 Z"/>
 <path fill="rgb(255,211,32)" stroke="none" d="M 5263,909 L 5388,1159 5513,909 5263,909 Z"/>
 <path fill="none" stroke="rgb(255,211,32)" stroke-linejoin="round" d="M 5263,909 L 5388,1159 5513,909 5263,909 Z"/>
 <path fill="rgb(255,211,32)" stroke="none" d="M 5653,483 L 5778,733 5903,483 5653,483 Z"/>
 <path fill="none" stroke="rgb(255,211,32)" stroke-linejoin="round" d="M 5653,483 L 5778,733 5903,483 5653,483 Z"/>
 <path fill="rgb(255,211,32)" stroke="none" d="M 7605,2543 L 7730,2793 7855,2543 7605,2543 Z"/>
 <path fill="none" stroke="rgb(255,211,32)" stroke-linejoin="round" d="M 7605,2543 L 7730,2793 7855,2543 7605,2543 Z"/>
 <text class="SVGTextShape" transform="rotate(-44.9 286 3892)"><tspan class="TextParagraph" font-family="Latin Modern Roman" font-size="353px" font-weight="400"><tspan class="TextPosition" x="286" y="3892"><tspan fill="rgb(0,0,0)" stroke="none">1950</tspan></tspan></tspan></text>
 <text class="SVGTextShape" transform="rotate(-44.9 1845 3892)"><tspan class="TextParagraph" font-family="Latin Modern Roman" font-size="353px" font-weight="400"><tspan class="TextPosition" x="1845" y="3892"><tspan fill="rgb(0,0,0)" stroke="none">1970</tspan></tspan></tspan></text>
 <text class="SVGTextShape" transform="rotate(-44.9 3406 3892)"><tspan class="TextParagraph" font-family="Latin Modern Roman" font-size="353px" font-weight="400"><tspan class="TextPosition" x="3406" y="3892"><tspan fill="rgb(0,0,0)" stroke="none">1990</tspan></tspan></tspan></text>
 <text class="SVGTextShape" transform="rotate(-44.9 4966 3892)"><tspan class="TextParagraph" font-family="Latin Modern Roman" font-size="353px" font-weight="400"><tspan class="TextPosition" x="4966" y="3892"><tspan fill="rgb(0,0,0)" stroke="none">2010</tspan></tspan></tspan></text>
 <text class="SVGTextShape" transform="rotate(-44.9 6527 3892)"><tspan class="TextParagraph" font-family="Latin Modern Roman" font-size="353px" font-weight="400"><tspan class="TextPosition" x="6527" y="3892"><tspan fill="rgb(0,0,0)" stroke="none">2030</tspan></tspan></tspan></text>
 <text class="SVGTextShape"><tspan class="TextParagraph" font-family="Latin Modern Roman" font-size="353px" font-weight="400"><tspan class="TextPosition" x="272" y="2985"><tspan fill="rgb(0,0,0)" stroke="none">0</tspan></tspan></tspan></text>
 <text class="SVGTextShape"><tspan class="TextParagraph" font-family="Latin Modern Roman" font-size="353px" font-weight="400"><tspan class="TextPosition" x="272" y="2244"><tspan fill="rgb(0,0,0)" stroke="none">2</tspan></tspan></tspan></text>
 <text class="SVGTextShape"><tspan class="TextParagraph" font-family="Latin Modern Roman" font-size="353px" font-weight="400"><tspan class="TextPosition" x="272" y="1504"><tspan fill="rgb(0,0,0)" stroke="none">4</tspan></tspan></tspan></text>
 <text class="SVGTextShape"><tspan class="TextParagraph" font-family="Latin Modern Roman" font-size="353px" font-weight="400"><tspan class="TextPosition" x="272" y="765"><tspan fill="rgb(0,0,0)" stroke="none">6</tspan></tspan></tspan></text>
</svg>