<?xml version="1.0" encoding="UTF-8"?>
<!DOCTYPE svg PUBLIC "-//W3C//DTD SVG 1.1//EN" "http://www.w3.org/Graphics/SVG/1.1/DTD/svg11.dtd">
<svg width="300mm" height="150mm" viewBox="0 0 30000 15000" version="1.1" xmlns="http://www.w3.org/2000/svg" xmlns:xlink="http://www.w3.org/1999/xlink" stroke-width="28.222" stroke-linejoin="round" xml:space="preserve">
 <path fill="rgb(255,255,255)" stroke="none" d="M 15000,15000 L 0,15000 0,0 30000,0 30000,15000 15000,15000 Z"/>
 <path fill="none" stroke="rgb(179,179,179)" stroke-linejoin="round" d="M 16771,11887 L 4423,11887 4423,699 29120,699 29120,11887 16771,11887 Z"/>
 <path fill="none" stroke="rgb(179,179,179)" stroke-linejoin="round" d="M 29120,11886 L 4423,11886"/>
 <path fill="none" stroke="rgb(179,179,179)" stroke-linejoin="round" d="M 29120,10021 L 4423,10021"/>
 <path fill="none" stroke="rgb(179,179,179)" stroke-linejoin="round" d="M 29120,8156 L 4423,8156"/>
 <path fill="none" stroke="rgb(179,179,179)" stroke-linejoin="round" d="M 29120,6292 L 4423,6292"/>
 <path fill="none" stroke="rgb(179,179,179)" stroke-linejoin="round" d="M 29120,4427 L 4423,4427"/>
 <path fill="none" stroke="rgb(179,179,179)" stroke-linejoin="round" d="M 29120,2562 L 4423,2562"/>
 <path fill="none" stroke="rgb(179,179,179)" stroke-linejoin="round" d="M 29120,698 L 4423,698"/>
 <path fill="none" stroke="rgb(179,179,179)" stroke-linejoin="round" d="M 4423,12036 L 4423,11886"/>
 <path fill="none" stroke="rgb(179,179,179)" stroke-linejoin="round" d="M 4423,12036 L 4423,11886"/>
 <path fill="none" stroke="rgb(179,179,179)" stroke-linejoin="round" d="M 5795,12036 L 5795,11886"/>
 <path fill="none" stroke="rgb(179,179,179)" stroke-linejoin="round" d="M 5795,12036 L 5795,11886"/>
 <path fill="none" stroke="rgb(179,179,179)" stroke-linejoin="round" d="M 7167,12036 L 7167,11886"/>
 <path fill="none" stroke="rgb(179,179,179)" stroke-linejoin="round" d="M 7167,12036 L 7167,11886"/>
 <path fill="none" stroke="rgb(179,179,179)" stroke-linejoin="round" d="M 8539,12036 L 8539,11886"/>
 <path fill="none" stroke="rgb(179,179,179)" stroke-linejoin="round" d="M 8539,12036 L 8539,11886"/>
 <path fill="none" stroke="rgb(179,179,179)" stroke-linejoin="round" d="M 9911,12036 L 9911,11886"/>
 <path fill="none" stroke="rgb(179,179,179)" stroke-linejoin="round" d="M 9911,12036 L 9911,11886"/>
 <path fill="none" stroke="rgb(179,179,179)" stroke-linejoin="round" d="M 11283,12036 L 11283,11886"/>
 <path fill="none" stroke="rgb(179,179,179)" stroke-linejoin="round" d="M 11283,12036 L 11283,11886"/>
 <path fill="none" stroke="rgb(179,179,179)" stroke-linejoin="round" d="M 12655,12036 L 12655,11886"/>
 <path fill="none" stroke="rgb(179,179,179)" stroke-linejoin="round" d="M 12655,12036 L 12655,11886"/>
 <path fill="none" stroke="rgb(179,179,179)" stroke-linejoin="round" d="M 14027,12036 L 14027,11886"/>
 <path fill="none" stroke="rgb(179,179,179)" stroke-linejoin="round" d="M 14027,12036 L 14027,11886"/>
 <path fill="none" stroke="rgb(179,179,179)" stroke-linejoin="round" d="M 15398,12036 L 15398,11886"/>
 <path fill="none" stroke="rgb(179,179,179)" stroke-linejoin="round" d="M 15398,12036 L 15398,11886"/>
 <path fill="none" stroke="rgb(179,179,179)" stroke-linejoin="round" d="M 16771,12036 L 16771,11886"/>
 <path fill="none" stroke="rgb(179,179,179)" stroke-linejoin="round" d="M 16771,12036 L 16771,11886"/>
 <path fill="none" stroke="rgb(179,179,179)" stroke-linejoin="round" d="M 18143,12036 L 18143,11886"/>
 <path fill="none" stroke="rgb(179,179,179)" stroke-linejoin="round" d="M 18143,12036 L 18143,11886"/>
 <path fill="none" stroke="rgb(179,179,179)" stroke-linejoin="round" d="M 19515,12036 L 19515,11886"/>
 <path fill="none" stroke="rgb(179,179,179)" stroke-linejoin="round" d="M 19515,12036 L 19515,11886"/>
 <path fill="none" stroke="rgb(179,179,179)" stroke-linejoin="round" d="M 20887,12036 L 20887,11886"/>
 <path fill="none" stroke="rgb(179,179,179)" stroke-linejoin="round" d="M 20887,12036 L 20887,11886"/>
 <path fill="none" stroke="rgb(179,179,179)" stroke-linejoin="round" d="M 22259,12036 L 22259,11886"/>
 <path fill="none" stroke="rgb(179,179,179)" stroke-linejoin="round" d="M 22259,12036 L 22259,11886"/>
 <path fill="none" stroke="rgb(179,179,179)" stroke-linejoin="round" d="M 23631,12036 L 23631,11886"/>
 <path fill="none" stroke="rgb(179,179,179)" stroke-linejoin="round" d="M 23631,12036 L 23631,11886"/>
 <path fill="none" stroke="rgb(179,179,179)" stroke-linejoin="round" d="M 25003,12036 L 25003,11886"/>
 <path fill="none" stroke="rgb(179,179,179)" stroke-linejoin="round" d="M 25003,12036 L 25003,11886"/>
 <path fill="none" stroke="rgb(179,179,179)" stroke-linejoin="round" d="M 26375,12036 L 26375,11886"/>
 <path fill="none" stroke="rgb(179,179,179)" stroke-linejoin="round" d="M 26375,12036 L 26375,11886"/>
 <path fill="none" stroke="rgb(179,179,179)" stroke-linejoin="round" d="M 27747,12036 L 27747,11886"/>
 <path fill="none" stroke="rgb(179,179,179)" stroke-linejoin="round" d="M 27747,12036 L 27747,11886"/>
 <path fill="none" stroke="rgb(179,179,179)" stroke-linejoin="round" d="M 29120,12036 L 29120,11886"/>
 <path fill="none" stroke="rgb(179,179,179)" stroke-linejoin="round" d="M 29120,12036 L 29120,11886"/>
 <path fill="none" stroke="rgb(179,179,179)" stroke-linejoin="round" d="M 4423,11886 L 29120,11886"/>
 <path fill="none" stroke="rgb(179,179,179)" stroke-linejoin="round" d="M 4273,11886 L 4423,11886"/>
 <path fill="none" stroke="rgb(179,179,179)" stroke-linejoin="round" d="M 4273,11886 L 4423,11886"/>
 <path fill="none" stroke="rgb(179,179,179)" stroke-linejoin="round" d="M 4273,10021 L 4423,10021"/>
 <path fill="none" stroke="rgb(179,179,179)" stroke-linejoin="round" d="M 4273,10021 L 4423,10021"/>
 <path fill="none" stroke="rgb(179,179,179)" stroke-linejoin="round" d="M 4273,8156 L 4423,8156"/>
 <path fill="none" stroke="rgb(179,179,179)" stroke-linejoin="round" d="M 4273,8156 L 4423,8156"/>
 <path fill="none" stroke="rgb(179,179,179)" stroke-linejoin="round" d="M 4273,6292 L 4423,6292"/>
 <path fill="none" stroke="rgb(179,179,179)" stroke-linejoin="round" d="M 4273,6292 L 4423,6292"/>
 <path fill="none" stroke="rgb(179,179,179)" stroke-linejoin="round" d="M 4273,4427 L 4423,4427"/>
 <path fill="none" stroke="rgb(179,179,179)" stroke-linejoin="round" d="M 4273,4427 L 4423,4427"/>
 <path fill="none" stroke="rgb(179,179,179)" stroke-linejoin="round" d="M 4273,2562 L 4423,2562"/>
 <path fill="none" stroke="rgb(179,179,179)" stroke-linejoin="round" d="M 4273,2562 L 4423,2562"/>
 <path fill="none" stroke="rgb(179,179,179)" stroke-linejoin="round" d="M 4273,698 L 4423,698"/>
 <path fill="none" stroke="rgb(179,179,179)" stroke-linejoin="round" d="M 4273,698 L 4423,698"/>
 <path fill="none" stroke="rgb(179,179,179)" stroke-linejoin="round" d="M 4423,11886 L 4423,698"/>
 <path fill="none" stroke="rgb(255,66,14)" stroke-width="50" stroke-linejoin="round" d="M 4423,11500 L 5795,11251 7167,10980 8539,10284 9911,9130 11283,8720 12655,8300 14027,7594 15398,6820 16771,5978 18143,6249 19515,5061 20887,3656 22259,1829 29120,11694"/>
 <path fill="rgb(255,66,14)" stroke="none" d="M 4298,11500 L 4423,11625 4548,11500 4423,11375 4298,11500 Z"/>
 <path fill="none" stroke="rgb(255,66,14)" stroke-linejoin="round" d="M 4298,11500 L 4423,11625 4548,11500 4423,11375 4298,11500 Z"/>
 <path fill="rgb(255,66,14)" stroke="none" d="M 5670,11251 L 5795,11376 5920,11251 5795,11126 5670,11251 Z"/>
 <path fill="none" stroke="rgb(255,66,14)" stroke-linejoin="round" d="M 5670,11251 L 5795,11376 5920,11251 5795,11126 5670,11251 Z"/>
 <path fill="rgb(255,66,14)" stroke="none" d="M 7042,10980 L 7167,11105 7292,10980 7167,10855 7042,10980 Z"/>
 <path fill="none" stroke="rgb(255,66,14)" stroke-linejoin="round" d="M 7042,10980 L 7167,11105 7292,10980 7167,10855 7042,10980 Z"/>
 <path fill="rgb(255,66,14)" stroke="none" d="M 8414,10284 L 8539,10409 8664,10284 8539,10159 8414,10284 Z"/>
 <path fill="none" stroke="rgb(255,66,14)" stroke-linejoin="round" d="M 8414,10284 L 8539,10409 8664,10284 8539,10159 8414,10284 Z"/>
 <path fill="rgb(255,66,14)" stroke="none" d="M 9786,9130 L 9911,9255 10036,9130 9911,9005 9786,9130 Z"/>
 <path fill="none" stroke="rgb(255,66,14)" stroke-linejoin="round" d="M 9786,9130 L 9911,9255 10036,9130 9911,9005 9786,9130 Z"/>
 <path fill="rgb(255,66,14)" stroke="none" d="M 11158,8720 L 11283,8845 11408,8720 11283,8595 11158,8720 Z"/>
 <path fill="none" stroke="rgb(255,66,14)" stroke-linejoin="round" d="M 11158,8720 L 11283,8845 11408,8720 11283,8595 11158,8720 Z"/>
 <path fill="rgb(255,66,14)" stroke="none" d="M 12530,8300 L 12655,8425 12780,8300 12655,8175 12530,8300 Z"/>
 <path fill="none" stroke="rgb(255,66,14)" stroke-linejoin="round" d="M 12530,8300 L 12655,8425 12780,8300 12655,8175 12530,8300 Z"/>
 <path fill="rgb(255,66,14)" stroke="none" d="M 13902,7594 L 14027,7719 14152,7594 14027,7470 13902,7594 Z"/>
 <path fill="none" stroke="rgb(255,66,14)" stroke-linejoin="round" d="M 13902,7594 L 14027,7719 14152,7594 14027,7470 13902,7594 Z"/>
 <path fill="rgb(255,66,14)" stroke="none" d="M 15273,6820 L 15398,6945 15523,6820 15398,6695 15273,6820 Z"/>
 <path fill="none" stroke="rgb(255,66,14)" stroke-linejoin="round" d="M 15273,6820 L 15398,6945 15523,6820 15398,6695 15273,6820 Z"/>
 <path fill="rgb(255,66,14)" stroke="none" d="M 16646,5978 L 16771,6103 16896,5978 16771,5853 16646,5978 Z"/>
 <path fill="none" stroke="rgb(255,66,14)" stroke-linejoin="round" d="M 16646,5978 L 16771,6103 16896,5978 16771,5853 16646,5978 Z"/>
 <path fill="rgb(255,66,14)" stroke="none" d="M 18018,6249 L 18143,6374 18268,6249 18143,6124 18018,6249 Z"/>
 <path fill="none" stroke="rgb(255,66,14)" stroke-linejoin="round" d="M 18018,6249 L 18143,6374 18268,6249 18143,6124 18018,6249 Z"/>
 <path fill="rgb(255,66,14)" stroke="none" d="M 19390,5061 L 19515,5186 19640,5061 19515,4936 19390,5061 Z"/>
 <path fill="none" stroke="rgb(255,66,14)" stroke-linejoin="round" d="M 19390,5061 L 19515,5186 19640,5061 19515,4936 19390,5061 Z"/>
 <path fill="rgb(255,66,14)" stroke="none" d="M 20762,3656 L 20887,3781 21012,3656 20887,3531 20762,3656 Z"/>
 <path fill="none" stroke="rgb(255,66,14)" stroke-linejoin="round" d="M 20762,3656 L 20887,3781 21012,3656 20887,3531 20762,3656 Z"/>
 <path fill="rgb(255,66,14)" stroke="none" d="M 22134,1829 L 22259,1954 22384,1829 22259,1704 22134,1829 Z"/>
 <path fill="none" stroke="rgb(255,66,14)" stroke-linejoin="round" d="M 22134,1829 L 22259,1954 22384,1829 22259,1704 22134,1829 Z"/>
 <path fill="rgb(255,66,14)" stroke="none" d="M 28995,11694 L 29120,11819 29245,11694 29120,11569 28995,11694 Z"/>
 <path fill="none" stroke="rgb(255,66,14)" stroke-linejoin="round" d="M 28995,11694 L 29120,11819 29245,11694 29120,11569 28995,11694 Z"/>
 <path fill="none" stroke="rgb(0,69,134)" stroke-width="50" stroke-linejoin="round" d="M 4423,11486 L 5795,11460 7167,11387 8539,11351 9911,11175 11283,11063 12655,10862 14027,10784 15398,10654 16771,10568 18143,10428 19515,10402 20887,10198 22259,10217 29120,11528"/>
 <path fill="rgb(0,69,134)" stroke="none" d="M 4298,11361 L 4298,11611 4548,11611 4548,11361 4298,11361 Z"/>
 <path fill="none" stroke="rgb(0,69,134)" stroke-linejoin="round" d="M 4298,11361 L 4298,11611 4548,11611 4548,11361 4298,11361 Z"/>
 <path fill="rgb(0,69,134)" stroke="none" d="M 5670,11335 L 5670,11585 5920,11585 5920,11335 5670,11335 Z"/>
 <path fill="none" stroke="rgb(0,69,134)" stroke-linejoin="round" d="M 5670,11335 L 5670,11585 5920,11585 5920,11335 5670,11335 Z"/>
 <path fill="rgb(0,69,134)" stroke="none" d="M 7042,11262 L 7042,11512 7292,11512 7292,11262 7042,11262 Z"/>
 <path fill="none" stroke="rgb(0,69,134)" stroke-linejoin="round" d="M 7042,11262 L 7042,11512 7292,11512 7292,11262 7042,11262 Z"/>
 <path fill="rgb(0,69,134)" stroke="none" d="M 8414,11226 L 8414,11476 8664,11476 8664,11226 8414,11226 Z"/>
 <path fill="none" stroke="rgb(0,69,134)" stroke-linejoin="round" d="M 8414,11226 L 8414,11476 8664,11476 8664,11226 8414,11226 Z"/>
 <path fill="rgb(0,69,134)" stroke="none" d="M 9786,11050 L 9786,11300 10036,11300 10036,11050 9786,11050 Z"/>
 <path fill="none" stroke="rgb(0,69,134)" stroke-linejoin="round" d="M 9786,11050 L 9786,11300 10036,11300 10036,11050 9786,11050 Z"/>
 <path fill="rgb(0,69,134)" stroke="none" d="M 11158,10938 L 11158,11188 11408,11188 11408,10938 11158,10938 Z"/>
 <path fill="none" stroke="rgb(0,69,134)" stroke-linejoin="round" d="M 11158,10938 L 11158,11188 11408,11188 11408,10938 11158,10938 Z"/>
 <path fill="rgb(0,69,134)" stroke="none" d="M 12530,10737 L 12530,10987 12780,10987 12780,10737 12530,10737 Z"/>
 <path fill="none" stroke="rgb(0,69,134)" stroke-linejoin="round" d="M 12530,10737 L 12530,10987 12780,10987 12780,10737 12530,10737 Z"/>
 <path fill="rgb(0,69,134)" stroke="none" d="M 13902,10659 L 13902,10909 14152,10909 14152,10659 13902,10659 Z"/>
 <path fill="none" stroke="rgb(0,69,134)" stroke-linejoin="round" d="M 13902,10659 L 13902,10909 14152,10909 14152,10659 13902,10659 Z"/>
 <path fill="rgb(0,69,134)" stroke="none" d="M 15273,10529 L 15273,10779 15523,10779 15523,10529 15273,10529 Z"/>
 <path fill="none" stroke="rgb(0,69,134)" stroke-linejoin="round" d="M 15273,10529 L 15273,10779 15523,10779 15523,10529 15273,10529 Z"/>
 <path fill="rgb(0,69,134)" stroke="none" d="M 16646,10443 L 16646,10693 16896,10693 16896,10443 16646,10443 Z"/>
 <path fill="none" stroke="rgb(0,69,134)" stroke-linejoin="round" d="M 16646,10443 L 16646,10693 16896,10693 16896,10443 16646,10443 Z"/>
 <path fill="rgb(0,69,134)" stroke="none" d="M 18018,10303 L 18018,10553 18268,10553 18268,10303 18018,10303 Z"/>
 <path fill="none" stroke="rgb(0,69,134)" stroke-linejoin="round" d="M 18018,10303 L 18018,10553 18268,10553 18268,10303 18018,10303 Z"/>
 <path fill="rgb(0,69,134)" stroke="none" d="M 19390,10277 L 19390,10527 19640,10527 19640,10277 19390,10277 Z"/>
 <path fill="none" stroke="rgb(0,69,134)" stroke-linejoin="round" d="M 19390,10277 L 19390,10527 19640,10527 19640,10277 19390,10277 Z"/>
 <path fill="rgb(0,69,134)" stroke="none" d="M 20762,10073 L 20762,10323 21012,10323 21012,10073 20762,10073 Z"/>
 <path fill="none" stroke="rgb(0,69,134)" stroke-linejoin="round" d="M 20762,10073 L 20762,10323 21012,10323 21012,10073 20762,10073 Z"/>
 <path fill="rgb(0,69,134)" stroke="none" d="M 22134,10092 L 22134,10342 22384,10342 22384,10092 22134,10092 Z"/>
 <path fill="none" stroke="rgb(0,69,134)" stroke-linejoin="round" d="M 22134,10092 L 22134,10342 22384,10342 22384,10092 22134,10092 Z"/>
 <path fill="rgb(0,69,134)" stroke="none" d="M 28995,11403 L 28995,11653 29245,11653 29245,11403 28995,11403 Z"/>
 <path fill="none" stroke="rgb(0,69,134)" stroke-linejoin="round" d="M 28995,11403 L 28995,11653 29245,11653 29245,11403 28995,11403 Z"/>
 <text class="SVGTextShape" transform="rotate(-44.9 3766 13409)"><tspan class="TextParagraph" font-family="Latin Modern Roman" font-size="564px" font-weight="400"><tspan class="TextPosition" x="3766" y="13409"><tspan fill="rgb(0,0,0)" stroke="none">1950</tspan></tspan></tspan></text>
 <text class="SVGTextShape" transform="rotate(-44.9 5138 13409)"><tspan class="TextParagraph" font-family="Latin Modern Roman" font-size="564px" font-weight="400"><tspan class="TextPosition" x="5138" y="13409"><tspan fill="rgb(0,0,0)" stroke="none">1955</tspan></tspan></tspan></text>
 <text class="SVGTextShape" transform="rotate(-44.9 6510 13409)"><tspan class="TextParagraph" font-family="Latin Modern Roman" font-size="564px" font-weight="400"><tspan class="TextPosition" x="6510" y="13409"><tspan fill="rgb(0,0,0)" stroke="none">1960</tspan></tspan></tspan></text>
 <text class="SVGTextShape" transform="rotate(-44.9 7882 13409)"><tspan class="TextParagraph" font-family="Latin Modern Roman" font-size="564px" font-weight="400"><tspan class="TextPosition" x="7882" y="13409"><tspan fill="rgb(0,0,0)" stroke="none">1965</tspan></tspan></tspan></text>
 <text class="SVGTextShape" transform="rotate(-44.9 9254 13409)"><tspan class="TextParagraph" font-family="Latin Modern Roman" font-size="564px" font-weight="400"><tspan class="TextPosition" x="9254" y="13409"><tspan fill="rgb(0,0,0)" stroke="none">1970</tspan></tspan></tspan></text>
 <text class="SVGTextShape" transform="rotate(-44.9 10626 13409)"><tspan class="TextParagraph" font-family="Latin Modern Roman" font-size="564px" font-weight="400"><tspan class="TextPosition" x="10626" y="13409"><tspan fill="rgb(0,0,0)" stroke="none">1975</tspan></tspan></tspan></text>
 <text class="SVGTextShape" transform="rotate(-44.9 11998 13409)"><tspan class="TextParagraph" font-family="Latin Modern Roman" font-size="564px" font-weight="400"><tspan class="TextPosition" x="11998" y="13409"><tspan fill="rgb(0,0,0)" stroke="none">1980</tspan></tspan></tspan></text>
 <text class="SVGTextShape" transform="rotate(-44.9 13370 13409)"><tspan class="TextParagraph" font-family="Latin Modern Roman" font-size="564px" font-weight="400"><tspan class="TextPosition" x="13370" y="13409"><tspan fill="rgb(0,0,0)" stroke="none">1985</tspan></tspan></tspan></text>
 <text class="SVGTextShape" transform="rotate(-44.9 14742 13409)"><tspan class="TextParagraph" font-family="Latin Modern Roman" font-size="564px" font-weight="400"><tspan class="TextPosition" x="14742" y="13409"><tspan fill="rgb(0,0,0)" stroke="none">1990</tspan></tspan></tspan></text>
 <text class="SVGTextShape" transform="rotate(-44.9 16115 13409)"><tspan class="TextParagraph" font-family="Latin Modern Roman" font-size="564px" font-weight="400"><tspan class="TextPosition" x="16115" y="13409"><tspan fill="rgb(0,0,0)" stroke="none">1995</tspan></tspan></tspan></text>
 <text class="SVGTextShape" transform="rotate(-44.9 17487 13409)"><tspan class="TextParagraph" font-family="Latin Modern Roman" font-size="564px" font-weight="400"><tspan class="TextPosition" x="17487" y="13409"><tspan fill="rgb(0,0,0)" stroke="none">2000</tspan></tspan></tspan></text>
 <text class="SVGTextShape" transform="rotate(-44.9 18859 13409)"><tspan class="TextParagraph" font-family="Latin Modern Roman" font-size="564px" font-weight="400"><tspan class="TextPosition" x="18859" y="13409"><tspan fill="rgb(0,0,0)" stroke="none">2005</tspan></tspan></tspan></text>
 <text class="SVGTextShape" transform="rotate(-44.9 20231 13409)"><tspan class="TextParagraph" font-family="Latin Modern Roman" font-size="564px" font-weight="400"><tspan class="TextPosition" x="20231" y="13409"><tspan fill="rgb(0,0,0)" stroke="none">2010</tspan></tspan></tspan></text>
 <text class="SVGTextShape" transform="rotate(-44.9 21603 13409)"><tspan class="TextParagraph" font-family="Latin Modern Roman" font-size="564px" font-weight="400"><tspan class="TextPosition" x="21603" y="13409"><tspan fill="rgb(0,0,0)" stroke="none">2015</tspan></tspan></tspan></text>
 <text class="SVGTextShape" transform="rotate(-44.9 22975 13409)"><tspan class="TextParagraph" font-family="Latin Modern Roman" font-size="564px" font-weight="400"><tspan class="TextPosition" x="22975" y="13409"><tspan fill="rgb(0,0,0)" stroke="none">2020</tspan></tspan></tspan></text>
 <text class="SVGTextShape" transform="rotate(-44.9 24347 13409)"><tspan class="TextParagraph" font-family="Latin Modern Roman" font-size="564px" font-weight="400"><tspan class="TextPosition" x="24347" y="13409"><tspan fill="rgb(0,0,0)" stroke="none">2025</tspan></tspan></tspan></text>
 <text class="SVGTextShape" transform="rotate(-44.9 25719 13409)"><tspan class="TextParagraph" font-family="Latin Modern Roman" font-size="564px" font-weight="400"><tspan class="TextPosition" x="25719" y="13409"><tspan fill="rgb(0,0,0)" stroke="none">2030</tspan></tspan></tspan></text>
 <text class="SVGTextShape" transform="rotate(-44.9 27090 13409)"><tspan class="TextParagraph" font-family="Latin Modern Roman" font-size="564px" font-weight="400"><tspan class="TextPosition" x="27090" y="13409"><tspan fill="rgb(0,0,0)" stroke="none">2035</tspan></tspan></tspan></text>
 <text class="SVGTextShape" transform="rotate(-44.9 28463 13409)"><tspan class="TextParagraph" font-family="Latin Modern Roman" font-size="564px" font-weight="400"><tspan class="TextPosition" x="28463" y="13409"><tspan fill="rgb(0,0,0)" stroke="none">2040</tspan></tspan></tspan></text>
 <text class="SVGTextShape"><tspan class="TextParagraph" font-family="Latin Modern Roman" font-size="564px" font-weight="400"><tspan class="TextPosition" x="1474" y="12125"><tspan fill="rgb(0,0,0)" stroke="none">0 GJ/VTE</tspan></tspan></tspan></text>
 <text class="SVGTextShape"><tspan class="TextParagraph" font-family="Latin Modern Roman" font-size="564px" font-weight="400"><tspan class="TextPosition" x="892" y="10260"><tspan fill="rgb(0,0,0)" stroke="none">500 GJ/VTE</tspan></tspan></tspan></text>
 <text class="SVGTextShape"><tspan class="TextParagraph" font-family="Latin Modern Roman" font-size="564px" font-weight="400"><tspan class="TextPosition" x="601" y="8395"><tspan fill="rgb(0,0,0)" stroke="none">1000 GJ/VTE</tspan></tspan></tspan></text>
 <text class="SVGTextShape"><tspan class="TextParagraph" font-family="Latin Modern Roman" font-size="564px" font-weight="400"><tspan class="TextPosition" x="601" y="6530"><tspan fill="rgb(0,0,0)" stroke="none">1500 GJ/VTE</tspan></tspan></tspan></text>
 <text class="SVGTextShape"><tspan class="TextParagraph" font-family="Latin Modern Roman" font-size="564px" font-weight="400"><tspan class="TextPosition" x="601" y="4665"><tspan fill="rgb(0,0,0)" stroke="none">2000 GJ/VTE</tspan></tspan></tspan></text>
 <text class="SVGTextShape"><tspan class="TextParagraph" font-family="Latin Modern Roman" font-size="564px" font-weight="400"><tspan class="TextPosition" x="601" y="2800"><tspan fill="rgb(0,0,0)" stroke="none">2500 GJ/VTE</tspan></tspan></tspan></text>
 <text class="SVGTextShape"><tspan class="TextParagraph" font-family="Latin Modern Roman" font-size="564px" font-weight="400"><tspan class="TextPosition" x="601" y="936"><tspan fill="rgb(0,0,0)" stroke="none">3000 GJ/VTE</tspan></tspan></tspan></text>
 <path fill="none" stroke="rgb(255,66,14)" stroke-width="50" stroke-linejoin="round" d="M 10567,14502 L 11367,14502"/>
 <path fill="rgb(255,66,14)" stroke="none" d="M 10798,14502 L 10967,14671 11136,14502 10967,14333 10798,14502 Z"/>
 <path fill="none" stroke="rgb(255,66,14)" stroke-linejoin="round" d="M 10798,14502 L 10967,14671 11136,14502 10967,14333 10798,14502 Z"/>
 <path fill="none" stroke="rgb(0,69,134)" stroke-width="50" stroke-linejoin="round" d="M 14934,14502 L 15733,14502"/>
 <path fill="rgb(0,69,134)" stroke="none" d="M 15164,14333 L 15164,14671 15502,14671 15502,14333 15164,14333 Z"/>
 <path fill="none" stroke="rgb(0,69,134)" stroke-linejoin="round" d="M 15164,14333 L 15164,14671 15502,14671 15502,14333 15164,14333 Z"/>
 <text class="SVGTextShape"><tspan class="TextParagraph" font-family="Latin Modern Roman Caps" font-size="564px" font-weight="400"><tspan class="TextPosition" x="11491" y="14727"><tspan fill="rgb(0,0,0)" stroke="none">input/VTE</tspan></tspan></tspan></text>
 <text class="SVGTextShape"><tspan class="TextParagraph" font-family="Latin Modern Roman Caps" font-size="564px" font-weight="400"><tspan class="TextPosition" x="15857" y="14727"><tspan fill="rgb(0,0,0)" stroke="none">output/VTE</tspan></tspan></tspan></text>
</svg>