<?xml version="1.0" encoding="UTF-8"?>
<!DOCTYPE svg PUBLIC "-//W3C//DTD SVG 1.1//EN" "http://www.w3.org/Graphics/SVG/1.1/DTD/svg11.dtd">
<svg width="150mm" height="75mm" viewBox="0 0 15000 7500" version="1.1" xmlns="http://www.w3.org/2000/svg" xmlns:xlink="http://www.w3.org/1999/xlink" stroke-width="28.222" stroke-linejoin="round" xml:space="preserve">
 <path fill="rgb(255,255,255)" stroke="none" d="M 7500,7500 L 0,7500 0,0 15000,0 15000,7500 7500,7500 Z"/>
 <path fill="none" stroke="rgb(179,179,179)" stroke-linejoin="round" d="M 8184,6221 L 2033,6221 2033,402 14336,402 14336,6221 8184,6221 Z"/>
 <path fill="none" stroke="rgb(179,179,179)" stroke-linejoin="round" d="M 14336,6220 L 2033,6220"/>
 <path fill="none" stroke="rgb(179,179,179)" stroke-linejoin="round" d="M 14336,5573 L 2033,5573"/>
 <path fill="none" stroke="rgb(179,179,179)" stroke-linejoin="round" d="M 14336,4926 L 2033,4926"/>
 <path fill="none" stroke="rgb(179,179,179)" stroke-linejoin="round" d="M 14336,4280 L 2033,4280"/>
 <path fill="none" stroke="rgb(179,179,179)" stroke-linejoin="round" d="M 14336,3634 L 2033,3634"/>
 <path fill="none" stroke="rgb(179,179,179)" stroke-linejoin="round" d="M 14336,2987 L 2033,2987"/>
 <path fill="none" stroke="rgb(179,179,179)" stroke-linejoin="round" d="M 14336,2341 L 2033,2341"/>
 <path fill="none" stroke="rgb(179,179,179)" stroke-linejoin="round" d="M 14336,1694 L 2033,1694"/>
 <path fill="none" stroke="rgb(179,179,179)" stroke-linejoin="round" d="M 14336,1047 L 2033,1047"/>
 <path fill="none" stroke="rgb(179,179,179)" stroke-linejoin="round" d="M 14336,401 L 2033,401"/>
 <path fill="none" stroke="rgb(179,179,179)" stroke-linejoin="round" d="M 2033,6370 L 2033,6220"/>
 <path fill="none" stroke="rgb(179,179,179)" stroke-linejoin="round" d="M 2033,6370 L 2033,6220"/>
 <path fill="none" stroke="rgb(179,179,179)" stroke-linejoin="round" d="M 2979,6370 L 2979,6220"/>
 <path fill="none" stroke="rgb(179,179,179)" stroke-linejoin="round" d="M 2979,6370 L 2979,6220"/>
 <path fill="none" stroke="rgb(179,179,179)" stroke-linejoin="round" d="M 3925,6370 L 3925,6220"/>
 <path fill="none" stroke="rgb(179,179,179)" stroke-linejoin="round" d="M 3925,6370 L 3925,6220"/>
 <path fill="none" stroke="rgb(179,179,179)" stroke-linejoin="round" d="M 4872,6370 L 4872,6220"/>
 <path fill="none" stroke="rgb(179,179,179)" stroke-linejoin="round" d="M 4872,6370 L 4872,6220"/>
 <path fill="none" stroke="rgb(179,179,179)" stroke-linejoin="round" d="M 5818,6370 L 5818,6220"/>
 <path fill="none" stroke="rgb(179,179,179)" stroke-linejoin="round" d="M 5818,6370 L 5818,6220"/>
 <path fill="none" stroke="rgb(179,179,179)" stroke-linejoin="round" d="M 6765,6370 L 6765,6220"/>
 <path fill="none" stroke="rgb(179,179,179)" stroke-linejoin="round" d="M 6765,6370 L 6765,6220"/>
 <path fill="none" stroke="rgb(179,179,179)" stroke-linejoin="round" d="M 7710,6370 L 7710,6220"/>
 <path fill="none" stroke="rgb(179,179,179)" stroke-linejoin="round" d="M 7710,6370 L 7710,6220"/>
 <path fill="none" stroke="rgb(179,179,179)" stroke-linejoin="round" d="M 8657,6370 L 8657,6220"/>
 <path fill="none" stroke="rgb(179,179,179)" stroke-linejoin="round" d="M 8657,6370 L 8657,6220"/>
 <path fill="none" stroke="rgb(179,179,179)" stroke-linejoin="round" d="M 9603,6370 L 9603,6220"/>
 <path fill="none" stroke="rgb(179,179,179)" stroke-linejoin="round" d="M 9603,6370 L 9603,6220"/>
 <path fill="none" stroke="rgb(179,179,179)" stroke-linejoin="round" d="M 10550,6370 L 10550,6220"/>
 <path fill="none" stroke="rgb(179,179,179)" stroke-linejoin="round" d="M 10550,6370 L 10550,6220"/>
 <path fill="none" stroke="rgb(179,179,179)" stroke-linejoin="round" d="M 11496,6370 L 11496,6220"/>
 <path fill="none" stroke="rgb(179,179,179)" stroke-linejoin="round" d="M 11496,6370 L 11496,6220"/>
 <path fill="none" stroke="rgb(179,179,179)" stroke-linejoin="round" d="M 12443,6370 L 12443,6220"/>
 <path fill="none" stroke="rgb(179,179,179)" stroke-linejoin="round" d="M 12443,6370 L 12443,6220"/>
 <path fill="none" stroke="rgb(179,179,179)" stroke-linejoin="round" d="M 13389,6370 L 13389,6220"/>
 <path fill="none" stroke="rgb(179,179,179)" stroke-linejoin="round" d="M 13389,6370 L 13389,6220"/>
 <path fill="none" stroke="rgb(179,179,179)" stroke-linejoin="round" d="M 14336,6370 L 14336,6220"/>
 <path fill="none" stroke="rgb(179,179,179)" stroke-linejoin="round" d="M 14336,6370 L 14336,6220"/>
 <path fill="none" stroke="rgb(179,179,179)" stroke-linejoin="round" d="M 2033,6220 L 14336,6220"/>
 <path fill="none" stroke="rgb(179,179,179)" stroke-linejoin="round" d="M 1883,6220 L 2033,6220"/>
 <path fill="none" stroke="rgb(179,179,179)" stroke-linejoin="round" d="M 1883,6220 L 2033,6220"/>
 <path fill="none" stroke="rgb(179,179,179)" stroke-linejoin="round" d="M 1883,5573 L 2033,5573"/>
 <path fill="none" stroke="rgb(179,179,179)" stroke-linejoin="round" d="M 1883,5573 L 2033,5573"/>
 <path fill="none" stroke="rgb(179,179,179)" stroke-linejoin="round" d="M 1883,4926 L 2033,4926"/>
 <path fill="none" stroke="rgb(179,179,179)" stroke-linejoin="round" d="M 1883,4926 L 2033,4926"/>
 <path fill="none" stroke="rgb(179,179,179)" stroke-linejoin="round" d="M 1883,4280 L 2033,4280"/>
 <path fill="none" stroke="rgb(179,179,179)" stroke-linejoin="round" d="M 1883,4280 L 2033,4280"/>
 <path fill="none" stroke="rgb(179,179,179)" stroke-linejoin="round" d="M 1883,3634 L 2033,3634"/>
 <path fill="none" stroke="rgb(179,179,179)" stroke-linejoin="round" d="M 1883,3634 L 2033,3634"/>
 <path fill="none" stroke="rgb(179,179,179)" stroke-linejoin="round" d="M 1883,2987 L 2033,2987"/>
 <path fill="none" stroke="rgb(179,179,179)" stroke-linejoin="round" d="M 1883,2987 L 2033,2987"/>
 <path fill="none" stroke="rgb(179,179,179)" stroke-linejoin="round" d="M 1883,2341 L 2033,2341"/>
 <path fill="none" stroke="rgb(179,179,179)" stroke-linejoin="round" d="M 1883,2341 L 2033,2341"/>
 <path fill="none" stroke="rgb(179,179,179)" stroke-linejoin="round" d="M 1883,1694 L 2033,1694"/>
 <path fill="none" stroke="rgb(179,179,179)" stroke-linejoin="round" d="M 1883,1694 L 2033,1694"/>
 <path fill="none" stroke="rgb(179,179,179)" stroke-linejoin="round" d="M 1883,1047 L 2033,1047"/>
 <path fill="none" stroke="rgb(179,179,179)" stroke-linejoin="round" d="M 1883,1047 L 2033,1047"/>
 <path fill="none" stroke="rgb(179,179,179)" stroke-linejoin="round" d="M 1883,401 L 2033,401"/>
 <path fill="none" stroke="rgb(179,179,179)" stroke-linejoin="round" d="M 1883,401 L 2033,401"/>
 <path fill="none" stroke="rgb(179,179,179)" stroke-linejoin="round" d="M 2033,6220 L 2033,401"/>
 <path fill="none" stroke="rgb(255,66,14)" stroke-width="50" stroke-linejoin="round" d="M 2033,5475 L 2979,5149 3925,4775 4872,4126 5818,3225 6765,3101 7710,2776 8657,2433 9603,2013 10550,1673 11496,2042 12443,2002 13389,1520 14336,865"/>
 <path fill="rgb(255,66,14)" stroke="none" d="M 1908,5475 L 2033,5600 2158,5475 2033,5350 1908,5475 Z"/>
 <path fill="none" stroke="rgb(255,66,14)" stroke-linejoin="round" d="M 1908,5475 L 2033,5600 2158,5475 2033,5350 1908,5475 Z"/>
 <path fill="rgb(255,66,14)" stroke="none" d="M 2854,5149 L 2979,5274 3104,5149 2979,5024 2854,5149 Z"/>
 <path fill="none" stroke="rgb(255,66,14)" stroke-linejoin="round" d="M 2854,5149 L 2979,5274 3104,5149 2979,5024 2854,5149 Z"/>
 <path fill="rgb(255,66,14)" stroke="none" d="M 3800,4775 L 3925,4900 4050,4775 3925,4650 3800,4775 Z"/>
 <path fill="none" stroke="rgb(255,66,14)" stroke-linejoin="round" d="M 3800,4775 L 3925,4900 4050,4775 3925,4650 3800,4775 Z"/>
 <path fill="rgb(255,66,14)" stroke="none" d="M 4747,4126 L 4872,4251 4997,4126 4872,4001 4747,4126 Z"/>
 <path fill="none" stroke="rgb(255,66,14)" stroke-linejoin="round" d="M 4747,4126 L 4872,4251 4997,4126 4872,4001 4747,4126 Z"/>
 <path fill="rgb(255,66,14)" stroke="none" d="M 5693,3225 L 5818,3350 5943,3225 5818,3100 5693,3225 Z"/>
 <path fill="none" stroke="rgb(255,66,14)" stroke-linejoin="round" d="M 5693,3225 L 5818,3350 5943,3225 5818,3100 5693,3225 Z"/>
 <path fill="rgb(255,66,14)" stroke="none" d="M 6640,3101 L 6765,3226 6890,3101 6765,2976 6640,3101 Z"/>
 <path fill="none" stroke="rgb(255,66,14)" stroke-linejoin="round" d="M 6640,3101 L 6765,3226 6890,3101 6765,2976 6640,3101 Z"/>
 <path fill="rgb(255,66,14)" stroke="none" d="M 7585,2776 L 7710,2901 7835,2776 7710,2651 7585,2776 Z"/>
 <path fill="none" stroke="rgb(255,66,14)" stroke-linejoin="round" d="M 7585,2776 L 7710,2901 7835,2776 7710,2651 7585,2776 Z"/>
 <path fill="rgb(255,66,14)" stroke="none" d="M 8532,2433 L 8657,2558 8782,2433 8657,2308 8532,2433 Z"/>
 <path fill="none" stroke="rgb(255,66,14)" stroke-linejoin="round" d="M 8532,2433 L 8657,2558 8782,2433 8657,2308 8532,2433 Z"/>
 <path fill="rgb(255,66,14)" stroke="none" d="M 9478,2013 L 9603,2138 9728,2013 9603,1888 9478,2013 Z"/>
 <path fill="none" stroke="rgb(255,66,14)" stroke-linejoin="round" d="M 9478,2013 L 9603,2138 9728,2013 9603,1888 9478,2013 Z"/>
 <path fill="rgb(255,66,14)" stroke="none" d="M 10425,1673 L 10550,1798 10675,1673 10550,1548 10425,1673 Z"/>
 <path fill="none" stroke="rgb(255,66,14)" stroke-linejoin="round" d="M 10425,1673 L 10550,1798 10675,1673 10550,1548 10425,1673 Z"/>
 <path fill="rgb(255,66,14)" stroke="none" d="M 11371,2042 L 11496,2167 11621,2042 11496,1917 11371,2042 Z"/>
 <path fill="none" stroke="rgb(255,66,14)" stroke-linejoin="round" d="M 11371,2042 L 11496,2167 11621,2042 11496,1917 11371,2042 Z"/>
 <path fill="rgb(255,66,14)" stroke="none" d="M 12318,2002 L 12443,2127 12568,2002 12443,1877 12318,2002 Z"/>
 <path fill="none" stroke="rgb(255,66,14)" stroke-linejoin="round" d="M 12318,2002 L 12443,2127 12568,2002 12443,1877 12318,2002 Z"/>
 <path fill="rgb(255,66,14)" stroke="none" d="M 13264,1520 L 13389,1645 13514,1520 13389,1395 13264,1520 Z"/>
 <path fill="none" stroke="rgb(255,66,14)" stroke-linejoin="round" d="M 13264,1520 L 13389,1645 13514,1520 13389,1395 13264,1520 Z"/>
 <path fill="rgb(255,66,14)" stroke="none" d="M 14211,865 L 14336,990 14461,865 14336,740 14211,865 Z"/>
 <path fill="none" stroke="rgb(255,66,14)" stroke-linejoin="round" d="M 14211,865 L 14336,990 14461,865 14336,740 14211,865 Z"/>
 <text class="SVGTextShape" transform="rotate(-44.9 1611 7274)"><tspan class="TextParagraph" font-family="Latin Modern Roman" font-size="353px" font-weight="400"><tspan class="TextPosition" x="1611" y="7274"><tspan fill="rgb(0,0,0)" stroke="none">1950</tspan></tspan></tspan></text>
 <text class="SVGTextShape" transform="rotate(-44.9 2557 7274)"><tspan class="TextParagraph" font-family="Latin Modern Roman" font-size="353px" font-weight="400"><tspan class="TextPosition" x="2557" y="7274"><tspan fill="rgb(0,0,0)" stroke="none">1955</tspan></tspan></tspan></text>
 <text class="SVGTextShape" transform="rotate(-44.9 3503 7274)"><tspan class="TextParagraph" font-family="Latin Modern Roman" font-size="353px" font-weight="400"><tspan class="TextPosition" x="3503" y="7274"><tspan fill="rgb(0,0,0)" stroke="none">1960</tspan></tspan></tspan></text>
 <text class="SVGTextShape" transform="rotate(-44.9 4450 7274)"><tspan class="TextParagraph" font-family="Latin Modern Roman" font-size="353px" font-weight="400"><tspan class="TextPosition" x="4450" y="7274"><tspan fill="rgb(0,0,0)" stroke="none">1965</tspan></tspan></tspan></text>
 <text class="SVGTextShape" transform="rotate(-44.9 5396 7274)"><tspan class="TextParagraph" font-family="Latin Modern Roman" font-size="353px" font-weight="400"><tspan class="TextPosition" x="5396" y="7274"><tspan fill="rgb(0,0,0)" stroke="none">1970</tspan></tspan></tspan></text>
 <text class="SVGTextShape" transform="rotate(-44.9 6343 7274)"><tspan class="TextParagraph" font-family="Latin Modern Roman" font-size="353px" font-weight="400"><tspan class="TextPosition" x="6343" y="7274"><tspan fill="rgb(0,0,0)" stroke="none">1975</tspan></tspan></tspan></text>
 <text class="SVGTextShape" transform="rotate(-44.9 7289 7274)"><tspan class="TextParagraph" font-family="Latin Modern Roman" font-size="353px" font-weight="400"><tspan class="TextPosition" x="7289" y="7274"><tspan fill="rgb(0,0,0)" stroke="none">1980</tspan></tspan></tspan></text>
 <text class="SVGTextShape" transform="rotate(-44.9 8236 7274)"><tspan class="TextParagraph" font-family="Latin Modern Roman" font-size="353px" font-weight="400"><tspan class="TextPosition" x="8236" y="7274"><tspan fill="rgb(0,0,0)" stroke="none">1985</tspan></tspan></tspan></text>
 <text class="SVGTextShape" transform="rotate(-44.9 9181 7274)"><tspan class="TextParagraph" font-family="Latin Modern Roman" font-size="353px" font-weight="400"><tspan class="TextPosition" x="9181" y="7274"><tspan fill="rgb(0,0,0)" stroke="none">1990</tspan></tspan></tspan></text>
 <text class="SVGTextShape" transform="rotate(-44.9 10128 7274)"><tspan class="TextParagraph" font-family="Latin Modern Roman" font-size="353px" font-weight="400"><tspan class="TextPosition" x="10128" y="7274"><tspan fill="rgb(0,0,0)" stroke="none">1995</tspan></tspan></tspan></text>
 <text class="SVGTextShape" transform="rotate(-44.9 11074 7274)"><tspan class="TextParagraph" font-family="Latin Modern Roman" font-size="353px" font-weight="400"><tspan class="TextPosition" x="11074" y="7274"><tspan fill="rgb(0,0,0)" stroke="none">2000</tspan></tspan></tspan></text>
 <text class="SVGTextShape" transform="rotate(-44.9 12021 7274)"><tspan class="TextParagraph" font-family="Latin Modern Roman" font-size="353px" font-weight="400"><tspan class="TextPosition" x="12021" y="7274"><tspan fill="rgb(0,0,0)" stroke="none">2005</tspan></tspan></tspan></text>
 <text class="SVGTextShape" transform="rotate(-44.9 12967 7274)"><tspan class="TextParagraph" font-family="Latin Modern Roman" font-size="353px" font-weight="400"><tspan class="TextPosition" x="12967" y="7274"><tspan fill="rgb(0,0,0)" stroke="none">2010</tspan></tspan></tspan></text>
 <text class="SVGTextShape" transform="rotate(-44.9 13914 7274)"><tspan class="TextParagraph" font-family="Latin Modern Roman" font-size="353px" font-weight="400"><tspan class="TextPosition" x="13914" y="7274"><tspan fill="rgb(0,0,0)" stroke="none">2015</tspan></tspan></tspan></text>
 <text class="SVGTextShape"><tspan class="TextParagraph" font-family="Latin Modern Roman" font-size="353px" font-weight="400"><tspan class="TextPosition" x="487" y="6367"><tspan fill="rgb(0,0,0)" stroke="none">0 GJ/ha</tspan></tspan></tspan></text>
 <text class="SVGTextShape"><tspan class="TextParagraph" font-family="Latin Modern Roman" font-size="353px" font-weight="400"><tspan class="TextPosition" x="301" y="5720"><tspan fill="rgb(0,0,0)" stroke="none">20 GJ/ha</tspan></tspan></tspan></text>
 <text class="SVGTextShape"><tspan class="TextParagraph" font-family="Latin Modern Roman" font-size="353px" font-weight="400"><tspan class="TextPosition" x="301" y="5073"><tspan fill="rgb(0,0,0)" stroke="none">40 GJ/ha</tspan></tspan></tspan></text>
 <text class="SVGTextShape"><tspan class="TextParagraph" font-family="Latin Modern Roman" font-size="353px" font-weight="400"><tspan class="TextPosition" x="301" y="4427"><tspan fill="rgb(0,0,0)" stroke="none">60 GJ/ha</tspan></tspan></tspan></text>
 <text class="SVGTextShape"><tspan class="TextParagraph" font-family="Latin Modern Roman" font-size="353px" font-weight="400"><tspan class="TextPosition" x="301" y="3780"><tspan fill="rgb(0,0,0)" stroke="none">80 GJ/ha</tspan></tspan></tspan></text>
 <text class="SVGTextShape"><tspan class="TextParagraph" font-family="Latin Modern Roman" font-size="353px" font-weight="400"><tspan class="TextPosition" x="116" y="3133"><tspan fill="rgb(0,0,0)" stroke="none">100 GJ/ha</tspan></tspan></tspan></text>
 <text class="SVGTextShape"><tspan class="TextParagraph" font-family="Latin Modern Roman" font-size="353px" font-weight="400"><tspan class="TextPosition" x="116" y="2487"><tspan fill="rgb(0,0,0)" stroke="none">120 GJ/ha</tspan></tspan></tspan></text>
 <text class="SVGTextShape"><tspan class="TextParagraph" font-family="Latin Modern Roman" font-size="353px" font-weight="400"><tspan class="TextPosition" x="116" y="1840"><tspan fill="rgb(0,0,0)" stroke="none">140 GJ/ha</tspan></tspan></tspan></text>
 <text class="SVGTextShape"><tspan class="TextParagraph" font-family="Latin Modern Roman" font-size="353px" font-weight="400"><tspan class="TextPosition" x="116" y="1193"><tspan fill="rgb(0,0,0)" stroke="none">160 GJ/ha</tspan></tspan></tspan></text>
 <text class="SVGTextShape"><tspan class="TextParagraph" font-family="Latin Modern Roman" font-size="353px" font-weight="400"><tspan class="TextPosition" x="116" y="547"><tspan fill="rgb(0,0,0)" stroke="none">180 GJ/ha</tspan></tspan></tspan></text>
</svg>