<?xml version="1.0" encoding="UTF-8" standalone="no"?>
<svg
   width="300mm"
   height="150mm"
   viewBox="0 0 30000 15000"
   version="1.1"
   stroke-width="28.222"
   stroke-linejoin="round"
   xml:space="preserve"
   id="svg412"
   sodipodi:docname="meino smit - energie - output.svg"
   inkscape:version="1.1.2 (0a00cf5339, 2022-02-04)"
   xmlns:inkscape="http://www.inkscape.org/namespaces/inkscape"
   xmlns:sodipodi="http://sodipodi.sourceforge.net/DTD/sodipodi-0.dtd"
   xmlns="http://www.w3.org/2000/svg"
   xmlns:svg="http://www.w3.org/2000/svg"><defs
   id="defs416" /><sodipodi:namedview
   id="namedview414"
   pagecolor="#ffffff"
   bordercolor="#666666"
   borderopacity="1.0"
   inkscape:pageshadow="2"
   inkscape:pageopacity="0.0"
   inkscape:pagecheckerboard="0"
   inkscape:document-units="mm"
   showgrid="false"
   inkscape:zoom="1.0433403"
   inkscape:cx="566.4499"
   inkscape:cy="283.70418"
   inkscape:window-width="1876"
   inkscape:window-height="1051"
   inkscape:window-x="0"
   inkscape:window-y="0"
   inkscape:window-maximized="1"
   inkscape:current-layer="svg412" />
 <path
   fill="rgb(255,255,255)"
   stroke="none"
   d="M 15000,15000 L 0,15000 0,0 30000,0 30000,15000 15000,15000 Z"
   id="path2" />
 <path
   fill="none"
   stroke="rgb(179,179,179)"
   stroke-linejoin="round"
   d="M 13538,13065 L 2597,13065 2597,698 24479,698 24479,13065 13538,13065 Z"
   id="path4" />
 <path
   fill="none"
   stroke="rgb(179,179,179)"
   stroke-linejoin="round"
   d="M 24479,13064 L 2597,13064"
   id="path6" />
 <path
   fill="none"
   stroke="rgb(179,179,179)"
   stroke-linejoin="round"
   d="M 24479,11518 L 2597,11518"
   id="path8" />
 <path
   fill="none"
   stroke="rgb(179,179,179)"
   stroke-linejoin="round"
   d="M 24479,9972 L 2597,9972"
   id="path10" />
 <path
   fill="none"
   stroke="rgb(179,179,179)"
   stroke-linejoin="round"
   d="M 24479,8426 L 2597,8426"
   id="path12" />
 <path
   fill="none"
   stroke="rgb(179,179,179)"
   stroke-linejoin="round"
   d="M 24479,6881 L 2597,6881"
   id="path14" />
 <path
   fill="none"
   stroke="rgb(179,179,179)"
   stroke-linejoin="round"
   d="M 24479,5335 L 2597,5335"
   id="path16" />
 <path
   fill="none"
   stroke="rgb(179,179,179)"
   stroke-linejoin="round"
   d="M 24479,3789 L 2597,3789"
   id="path18" />
 <path
   fill="none"
   stroke="rgb(179,179,179)"
   stroke-linejoin="round"
   d="M 24479,2243 L 2597,2243"
   id="path20" />
 <path
   fill="none"
   stroke="rgb(179,179,179)"
   stroke-linejoin="round"
   d="M 24479,697 L 2597,697"
   id="path22" />
 <path
   fill="none"
   stroke="rgb(179,179,179)"
   stroke-linejoin="round"
   d="M 2597,13214 L 2597,13064"
   id="path24" />
 <path
   fill="none"
   stroke="rgb(179,179,179)"
   stroke-linejoin="round"
   d="M 2597,13214 L 2597,13064"
   id="path26" />
 <path
   fill="none"
   stroke="rgb(179,179,179)"
   stroke-linejoin="round"
   d="M 4160,13214 L 4160,13064"
   id="path28" />
 <path
   fill="none"
   stroke="rgb(179,179,179)"
   stroke-linejoin="round"
   d="M 4160,13214 L 4160,13064"
   id="path30" />
 <path
   fill="none"
   stroke="rgb(179,179,179)"
   stroke-linejoin="round"
   d="M 5723,13214 L 5723,13064"
   id="path32" />
 <path
   fill="none"
   stroke="rgb(179,179,179)"
   stroke-linejoin="round"
   d="M 5723,13214 L 5723,13064"
   id="path34" />
 <path
   fill="none"
   stroke="rgb(179,179,179)"
   stroke-linejoin="round"
   d="M 7286,13214 L 7286,13064"
   id="path36" />
 <path
   fill="none"
   stroke="rgb(179,179,179)"
   stroke-linejoin="round"
   d="M 7286,13214 L 7286,13064"
   id="path38" />
 <path
   fill="none"
   stroke="rgb(179,179,179)"
   stroke-linejoin="round"
   d="M 8849,13214 L 8849,13064"
   id="path40" />
 <path
   fill="none"
   stroke="rgb(179,179,179)"
   stroke-linejoin="round"
   d="M 8849,13214 L 8849,13064"
   id="path42" />
 <path
   fill="none"
   stroke="rgb(179,179,179)"
   stroke-linejoin="round"
   d="M 10412,13214 L 10412,13064"
   id="path44" />
 <path
   fill="none"
   stroke="rgb(179,179,179)"
   stroke-linejoin="round"
   d="M 10412,13214 L 10412,13064"
   id="path46" />
 <path
   fill="none"
   stroke="rgb(179,179,179)"
   stroke-linejoin="round"
   d="M 11975,13214 L 11975,13064"
   id="path48" />
 <path
   fill="none"
   stroke="rgb(179,179,179)"
   stroke-linejoin="round"
   d="M 11975,13214 L 11975,13064"
   id="path50" />
 <path
   fill="none"
   stroke="rgb(179,179,179)"
   stroke-linejoin="round"
   d="M 13538,13214 L 13538,13064"
   id="path52" />
 <path
   fill="none"
   stroke="rgb(179,179,179)"
   stroke-linejoin="round"
   d="M 13538,13214 L 13538,13064"
   id="path54" />
 <path
   fill="none"
   stroke="rgb(179,179,179)"
   stroke-linejoin="round"
   d="M 15100,13214 L 15100,13064"
   id="path56" />
 <path
   fill="none"
   stroke="rgb(179,179,179)"
   stroke-linejoin="round"
   d="M 15100,13214 L 15100,13064"
   id="path58" />
 <path
   fill="none"
   stroke="rgb(179,179,179)"
   stroke-linejoin="round"
   d="M 16663,13214 L 16663,13064"
   id="path60" />
 <path
   fill="none"
   stroke="rgb(179,179,179)"
   stroke-linejoin="round"
   d="M 16663,13214 L 16663,13064"
   id="path62" />
 <path
   fill="none"
   stroke="rgb(179,179,179)"
   stroke-linejoin="round"
   d="M 18226,13214 L 18226,13064"
   id="path64" />
 <path
   fill="none"
   stroke="rgb(179,179,179)"
   stroke-linejoin="round"
   d="M 18226,13214 L 18226,13064"
   id="path66" />
 <path
   fill="none"
   stroke="rgb(179,179,179)"
   stroke-linejoin="round"
   d="M 19789,13214 L 19789,13064"
   id="path68" />
 <path
   fill="none"
   stroke="rgb(179,179,179)"
   stroke-linejoin="round"
   d="M 19789,13214 L 19789,13064"
   id="path70" />
 <path
   fill="none"
   stroke="rgb(179,179,179)"
   stroke-linejoin="round"
   d="M 21352,13214 L 21352,13064"
   id="path72" />
 <path
   fill="none"
   stroke="rgb(179,179,179)"
   stroke-linejoin="round"
   d="M 21352,13214 L 21352,13064"
   id="path74" />
 <path
   fill="none"
   stroke="rgb(179,179,179)"
   stroke-linejoin="round"
   d="M 22915,13214 L 22915,13064"
   id="path76" />
 <path
   fill="none"
   stroke="rgb(179,179,179)"
   stroke-linejoin="round"
   d="M 22915,13214 L 22915,13064"
   id="path78" />
 <path
   fill="none"
   stroke="rgb(179,179,179)"
   stroke-linejoin="round"
   d="M 24479,13214 L 24479,13064"
   id="path80" />
 <path
   fill="none"
   stroke="rgb(179,179,179)"
   stroke-linejoin="round"
   d="M 24479,13214 L 24479,13064"
   id="path82" />
 <path
   fill="none"
   stroke="rgb(179,179,179)"
   stroke-linejoin="round"
   d="M 2597,13064 L 24479,13064"
   id="path84" />
 <path
   fill="none"
   stroke="rgb(179,179,179)"
   stroke-linejoin="round"
   d="M 2447,13064 L 2597,13064"
   id="path86" />
 <path
   fill="none"
   stroke="rgb(179,179,179)"
   stroke-linejoin="round"
   d="M 2447,13064 L 2597,13064"
   id="path88" />
 <path
   fill="none"
   stroke="rgb(179,179,179)"
   stroke-linejoin="round"
   d="M 2447,11518 L 2597,11518"
   id="path90" />
 <path
   fill="none"
   stroke="rgb(179,179,179)"
   stroke-linejoin="round"
   d="M 2447,11518 L 2597,11518"
   id="path92" />
 <path
   fill="none"
   stroke="rgb(179,179,179)"
   stroke-linejoin="round"
   d="M 2447,9972 L 2597,9972"
   id="path94" />
 <path
   fill="none"
   stroke="rgb(179,179,179)"
   stroke-linejoin="round"
   d="M 2447,9972 L 2597,9972"
   id="path96" />
 <path
   fill="none"
   stroke="rgb(179,179,179)"
   stroke-linejoin="round"
   d="M 2447,8426 L 2597,8426"
   id="path98" />
 <path
   fill="none"
   stroke="rgb(179,179,179)"
   stroke-linejoin="round"
   d="M 2447,8426 L 2597,8426"
   id="path100" />
 <path
   fill="none"
   stroke="rgb(179,179,179)"
   stroke-linejoin="round"
   d="M 2447,6881 L 2597,6881"
   id="path102" />
 <path
   fill="none"
   stroke="rgb(179,179,179)"
   stroke-linejoin="round"
   d="M 2447,6881 L 2597,6881"
   id="path104" />
 <path
   fill="none"
   stroke="rgb(179,179,179)"
   stroke-linejoin="round"
   d="M 2447,5335 L 2597,5335"
   id="path106" />
 <path
   fill="none"
   stroke="rgb(179,179,179)"
   stroke-linejoin="round"
   d="M 2447,5335 L 2597,5335"
   id="path108" />
 <path
   fill="none"
   stroke="rgb(179,179,179)"
   stroke-linejoin="round"
   d="M 2447,3789 L 2597,3789"
   id="path110" />
 <path
   fill="none"
   stroke="rgb(179,179,179)"
   stroke-linejoin="round"
   d="M 2447,3789 L 2597,3789"
   id="path112" />
 <path
   fill="none"
   stroke="rgb(179,179,179)"
   stroke-linejoin="round"
   d="M 2447,2243 L 2597,2243"
   id="path114" />
 <path
   fill="none"
   stroke="rgb(179,179,179)"
   stroke-linejoin="round"
   d="M 2447,2243 L 2597,2243"
   id="path116" />
 <path
   fill="none"
   stroke="rgb(179,179,179)"
   stroke-linejoin="round"
   d="M 2447,697 L 2597,697"
   id="path118" />
 <path
   fill="none"
   stroke="rgb(179,179,179)"
   stroke-linejoin="round"
   d="M 2447,697 L 2597,697"
   id="path120" />
 <path
   fill="none"
   stroke="rgb(179,179,179)"
   stroke-linejoin="round"
   d="M 2597,13064 L 2597,697"
   id="path122" />
 <path
   fill="rgb(0,204,204)"
   stroke="none"
   d="M 23306,13064 L 24088,13064 24088,8060 23306,8060 23306,13064 Z"
   id="path124" />
 <path
   fill="rgb(0,204,204)"
   stroke="none"
   d="M 21743,13064 L 22525,13064 22525,7480 21743,7480 21743,13064 Z"
   id="path126" />
 <path
   fill="rgb(0,204,204)"
   stroke="none"
   d="M 12366,13064 L 13147,13064 13147,8398 12366,8398 12366,13064 Z"
   id="path128" />
 <path
   fill="rgb(0,204,204)"
   stroke="none"
   d="M 2987,13064 L 3769,13064 3769,9556 2987,9556 2987,13064 Z"
   id="path130" />
 <path
   fill="rgb(102,0,255)"
   stroke="none"
   d="M 23306,8060 L 24088,8060 24088,3087 23306,3087 23306,8060 Z"
   id="path132" />
 <path
   fill="rgb(102,0,255)"
   stroke="none"
   d="M 21743,7480 L 22525,7480 22525,3194 21743,3194 21743,7480 Z"
   id="path134" />
 <path
   fill="rgb(102,0,255)"
   stroke="none"
   d="M 12366,8398 L 13147,8398 13147,4500 12366,4500 12366,8398 Z"
   id="path136" />
 <path
   fill="rgb(102,0,255)"
   stroke="none"
   d="M 2987,9556 L 3769,9556 3769,8193 2987,8193 2987,9556 Z"
   id="path138" />
 <path
   fill="rgb(102,255,0)"
   stroke="none"
   d="M 23306,3087 L 24088,3087 24088,2760 23306,2760 23306,3087 Z"
   id="path140" />
 <path
   fill="rgb(102,255,0)"
   stroke="none"
   d="M 21743,3194 L 22525,3194 22525,2897 21743,2897 21743,3194 Z"
   id="path142" />
 <path
   fill="rgb(102,255,0)"
   stroke="none"
   d="M 12366,4500 L 13147,4500 13147,4349 12366,4349 12366,4500 Z"
   id="path144" />
 <path
   fill="rgb(102,255,0)"
   stroke="none"
   d="M 2987,8193 L 3769,8193 3769,8127 2987,8127 2987,8193 Z"
   id="path146" />
 <path
   fill="rgb(255,0,0)"
   stroke="none"
   d="M 23306,2760 L 24088,2760 24088,2636 23306,2636 23306,2760 Z"
   id="path148" />
 <path
   fill="rgb(255,0,0)"
   stroke="none"
   d="M 21743,2897 L 22525,2897 22525,2787 21743,2787 21743,2897 Z"
   id="path150" />
 <path
   fill="rgb(255,0,0)"
   stroke="none"
   d="M 12366,4349 L 13147,4349 13147,4243 12366,4243 12366,4349 Z"
   id="path152" />
 <path
   fill="rgb(255,0,0)"
   stroke="none"
   d="M 2987,8127 L 3769,8127 3769,8044 2987,8044 2987,8127 Z"
   id="path154" />
 <path
   fill="rgb(0,120,38)"
   stroke="none"
   d="M 20180,13064 L 20962,13064 20962,3565 20180,3565 20180,13064 Z"
   id="path156" />
 <path
   fill="rgb(0,120,38)"
   stroke="none"
   d="M 18617,13064 L 19399,13064 19399,2743 18617,2743 18617,13064 Z"
   id="path158" />
 <path
   fill="rgb(0,120,38)"
   stroke="none"
   d="M 17054,13064 L 17835,13064 17835,3257 17054,3257 17054,13064 Z"
   id="path160" />
 <path
   fill="rgb(0,120,38)"
   stroke="none"
   d="M 15491,13064 L 16272,13064 16272,2991 15491,2991 15491,13064 Z"
   id="path162" />
 <path
   fill="rgb(0,120,38)"
   stroke="none"
   d="M 13929,13064 L 14710,13064 14710,3529 13929,3529 13929,13064 Z"
   id="path164" />
 <path
   fill="rgb(0,120,38)"
   stroke="none"
   d="M 10803,13064 L 11584,13064 11584,5460 10803,5460 10803,13064 Z"
   id="path166" />
 <path
   fill="rgb(0,120,38)"
   stroke="none"
   d="M 9240,13064 L 10021,13064 10021,5954 9240,5954 9240,13064 Z"
   id="path168" />
 <path
   fill="rgb(0,120,38)"
   stroke="none"
   d="M 7676,13064 L 8458,13064 8458,7017 7676,7017 7676,13064 Z"
   id="path170" />
 <path
   fill="rgb(0,120,38)"
   stroke="none"
   d="M 6113,13064 L 6895,13064 6895,6695 6113,6695 6113,13064 Z"
   id="path172" />
 <path
   fill="rgb(0,120,38)"
   stroke="none"
   d="M 4550,13064 L 5332,13064 5332,7597 4550,7597 4550,13064 Z"
   id="path174" />
 <path
   fill="none"
   stroke="rgb(0,120,38)"
   stroke-width="80"
   stroke-linejoin="round"
   d="M 3378,8044 L 4941,7597 6504,6695 8067,7017 9630,5954 11193,5460 12756,4243 14320,3529 15882,2991 17445,3257 19008,2743 20571,3565 22134,2787 23697,2636"
   id="path176"
   style="stroke-width:49.99999963;stroke-miterlimit:4;stroke-dasharray:none" />
 <text
   class="SVGTextShape"
   transform="rotate(-44.9 2721 14587)"
   id="text184"><tspan
     class="TextParagraph"
     font-family="Latin Modern Roman"
     font-size="564px"
     font-weight="400"
     id="tspan182"><tspan
       class="TextPosition"
       x="2721"
       y="14587"
       id="tspan180"><tspan
         fill="rgb(0,0,0)"
         stroke="none"
         id="tspan178">1950</tspan></tspan></tspan></text>
 <text
   class="SVGTextShape"
   transform="rotate(-44.9 4284 14587)"
   id="text192"><tspan
     class="TextParagraph"
     font-family="Latin Modern Roman"
     font-size="564px"
     font-weight="400"
     id="tspan190"><tspan
       class="TextPosition"
       x="4284"
       y="14587"
       id="tspan188"><tspan
         fill="rgb(0,0,0)"
         stroke="none"
         id="tspan186">1955</tspan></tspan></tspan></text>
 <text
   class="SVGTextShape"
   transform="rotate(-44.9 5847 14587)"
   id="text200"><tspan
     class="TextParagraph"
     font-family="Latin Modern Roman"
     font-size="564px"
     font-weight="400"
     id="tspan198"><tspan
       class="TextPosition"
       x="5847"
       y="14587"
       id="tspan196"><tspan
         fill="rgb(0,0,0)"
         stroke="none"
         id="tspan194">1960</tspan></tspan></tspan></text>
 <text
   class="SVGTextShape"
   transform="rotate(-44.9 7410 14587)"
   id="text208"><tspan
     class="TextParagraph"
     font-family="Latin Modern Roman"
     font-size="564px"
     font-weight="400"
     id="tspan206"><tspan
       class="TextPosition"
       x="7410"
       y="14587"
       id="tspan204"><tspan
         fill="rgb(0,0,0)"
         stroke="none"
         id="tspan202">1965</tspan></tspan></tspan></text>
 <text
   class="SVGTextShape"
   transform="rotate(-44.9 8973 14587)"
   id="text216"><tspan
     class="TextParagraph"
     font-family="Latin Modern Roman"
     font-size="564px"
     font-weight="400"
     id="tspan214"><tspan
       class="TextPosition"
       x="8973"
       y="14587"
       id="tspan212"><tspan
         fill="rgb(0,0,0)"
         stroke="none"
         id="tspan210">1970</tspan></tspan></tspan></text>
 <text
   class="SVGTextShape"
   transform="rotate(-44.9 10536 14587)"
   id="text224"><tspan
     class="TextParagraph"
     font-family="Latin Modern Roman"
     font-size="564px"
     font-weight="400"
     id="tspan222"><tspan
       class="TextPosition"
       x="10536"
       y="14587"
       id="tspan220"><tspan
         fill="rgb(0,0,0)"
         stroke="none"
         id="tspan218">1975</tspan></tspan></tspan></text>
 <text
   class="SVGTextShape"
   transform="rotate(-44.9 12099 14587)"
   id="text232"><tspan
     class="TextParagraph"
     font-family="Latin Modern Roman"
     font-size="564px"
     font-weight="400"
     id="tspan230"><tspan
       class="TextPosition"
       x="12099"
       y="14587"
       id="tspan228"><tspan
         fill="rgb(0,0,0)"
         stroke="none"
         id="tspan226">1980</tspan></tspan></tspan></text>
 <text
   class="SVGTextShape"
   transform="rotate(-44.9 13663 14587)"
   id="text240"><tspan
     class="TextParagraph"
     font-family="Latin Modern Roman"
     font-size="564px"
     font-weight="400"
     id="tspan238"><tspan
       class="TextPosition"
       x="13663"
       y="14587"
       id="tspan236"><tspan
         fill="rgb(0,0,0)"
         stroke="none"
         id="tspan234">1985</tspan></tspan></tspan></text>
 <text
   class="SVGTextShape"
   transform="rotate(-44.9 15226 14587)"
   id="text248"><tspan
     class="TextParagraph"
     font-family="Latin Modern Roman"
     font-size="564px"
     font-weight="400"
     id="tspan246"><tspan
       class="TextPosition"
       x="15226"
       y="14587"
       id="tspan244"><tspan
         fill="rgb(0,0,0)"
         stroke="none"
         id="tspan242">1990</tspan></tspan></tspan></text>
 <text
   class="SVGTextShape"
   transform="rotate(-44.9 16789 14587)"
   id="text256"><tspan
     class="TextParagraph"
     font-family="Latin Modern Roman"
     font-size="564px"
     font-weight="400"
     id="tspan254"><tspan
       class="TextPosition"
       x="16789"
       y="14587"
       id="tspan252"><tspan
         fill="rgb(0,0,0)"
         stroke="none"
         id="tspan250">1995</tspan></tspan></tspan></text>
 <text
   class="SVGTextShape"
   transform="rotate(-44.9 18352 14587)"
   id="text264"><tspan
     class="TextParagraph"
     font-family="Latin Modern Roman"
     font-size="564px"
     font-weight="400"
     id="tspan262"><tspan
       class="TextPosition"
       x="18352"
       y="14587"
       id="tspan260"><tspan
         fill="rgb(0,0,0)"
         stroke="none"
         id="tspan258">2000</tspan></tspan></tspan></text>
 <text
   class="SVGTextShape"
   transform="rotate(-44.9 19915 14587)"
   id="text272"><tspan
     class="TextParagraph"
     font-family="Latin Modern Roman"
     font-size="564px"
     font-weight="400"
     id="tspan270"><tspan
       class="TextPosition"
       x="19915"
       y="14587"
       id="tspan268"><tspan
         fill="rgb(0,0,0)"
         stroke="none"
         id="tspan266">2005</tspan></tspan></tspan></text>
 <text
   class="SVGTextShape"
   transform="rotate(-44.9 21478 14587)"
   id="text280"><tspan
     class="TextParagraph"
     font-family="Latin Modern Roman"
     font-size="564px"
     font-weight="400"
     id="tspan278"><tspan
       class="TextPosition"
       x="21478"
       y="14587"
       id="tspan276"><tspan
         fill="rgb(0,0,0)"
         stroke="none"
         id="tspan274">2010</tspan></tspan></tspan></text>
 <text
   class="SVGTextShape"
   transform="rotate(-44.9 23041 14587)"
   id="text288"><tspan
     class="TextParagraph"
     font-family="Latin Modern Roman"
     font-size="564px"
     font-weight="400"
     id="tspan286"><tspan
       class="TextPosition"
       x="23041"
       y="14587"
       id="tspan284"><tspan
         fill="rgb(0,0,0)"
         stroke="none"
         id="tspan282">2015</tspan></tspan></tspan></text>
 <text
   class="SVGTextShape"
   id="text296"><tspan
     class="TextParagraph"
     font-family="Latin Modern Roman"
     font-size="564px"
     font-weight="400"
     id="tspan294"><tspan
       class="TextPosition"
       x="1183"
       y="13303"
       id="tspan292"><tspan
         fill="rgb(0,0,0)"
         stroke="none"
         id="tspan290">0 PJ</tspan></tspan></tspan></text>
 <text
   class="SVGTextShape"
   id="text304"><tspan
     class="TextParagraph"
     font-family="Latin Modern Roman"
     font-size="564px"
     font-weight="400"
     id="tspan302"><tspan
       class="TextPosition"
       x="892"
       y="11757"
       id="tspan300"><tspan
         fill="rgb(0,0,0)"
         stroke="none"
         id="tspan298">20 PJ</tspan></tspan></tspan></text>
 <text
   class="SVGTextShape"
   id="text312"><tspan
     class="TextParagraph"
     font-family="Latin Modern Roman"
     font-size="564px"
     font-weight="400"
     id="tspan310"><tspan
       class="TextPosition"
       x="892"
       y="10211"
       id="tspan308"><tspan
         fill="rgb(0,0,0)"
         stroke="none"
         id="tspan306">40 PJ</tspan></tspan></tspan></text>
 <text
   class="SVGTextShape"
   id="text320"><tspan
     class="TextParagraph"
     font-family="Latin Modern Roman"
     font-size="564px"
     font-weight="400"
     id="tspan318"><tspan
       class="TextPosition"
       x="892"
       y="8665"
       id="tspan316"><tspan
         fill="rgb(0,0,0)"
         stroke="none"
         id="tspan314">60 PJ</tspan></tspan></tspan></text>
 <text
   class="SVGTextShape"
   id="text328"><tspan
     class="TextParagraph"
     font-family="Latin Modern Roman"
     font-size="564px"
     font-weight="400"
     id="tspan326"><tspan
       class="TextPosition"
       x="892"
       y="7119"
       id="tspan324"><tspan
         fill="rgb(0,0,0)"
         stroke="none"
         id="tspan322">80 PJ</tspan></tspan></tspan></text>
 <text
   class="SVGTextShape"
   id="text336"><tspan
     class="TextParagraph"
     font-family="Latin Modern Roman"
     font-size="564px"
     font-weight="400"
     id="tspan334"><tspan
       class="TextPosition"
       x="601"
       y="5573"
       id="tspan332"><tspan
         fill="rgb(0,0,0)"
         stroke="none"
         id="tspan330">100 PJ</tspan></tspan></tspan></text>
 <text
   class="SVGTextShape"
   id="text344"><tspan
     class="TextParagraph"
     font-family="Latin Modern Roman"
     font-size="564px"
     font-weight="400"
     id="tspan342"><tspan
       class="TextPosition"
       x="601"
       y="4027"
       id="tspan340"><tspan
         fill="rgb(0,0,0)"
         stroke="none"
         id="tspan338">120 PJ</tspan></tspan></tspan></text>
 <text
   class="SVGTextShape"
   id="text352"><tspan
     class="TextParagraph"
     font-family="Latin Modern Roman"
     font-size="564px"
     font-weight="400"
     id="tspan350"><tspan
       class="TextPosition"
       x="601"
       y="2481"
       id="tspan348"><tspan
         fill="rgb(0,0,0)"
         stroke="none"
         id="tspan346">140 PJ</tspan></tspan></tspan></text>
 <text
   class="SVGTextShape"
   id="text360"><tspan
     class="TextParagraph"
     font-family="Latin Modern Roman"
     font-size="564px"
     font-weight="400"
     id="tspan358"><tspan
       class="TextPosition"
       x="601"
       y="935"
       id="tspan356"><tspan
         fill="rgb(0,0,0)"
         stroke="none"
         id="tspan354">160 PJ</tspan></tspan></tspan></text>
 <path
   fill="rgb(0,204,204)"
   stroke="none"
   d="M 25665,9429 L 25265,9429 25265,9091 26065,9091 26065,9429 25665,9429 Z"
   id="path362" />
 <path
   fill="rgb(102,0,255)"
   stroke="none"
   d="M 25665,8548 L 25265,8548 25265,8210 26065,8210 26065,8548 25665,8548 Z"
   id="path364" />
 <path
   fill="rgb(102,255,0)"
   stroke="none"
   d="M 25665,7667 L 25265,7667 25265,7330 26065,7330 26065,7667 25665,7667 Z"
   id="path366" />
 <path
   fill="rgb(255,0,0)"
   stroke="none"
   d="M 25665,6787 L 25265,6787 25265,6449 26065,6449 26065,6787 25665,6787 Z"
   id="path368" />
 <path
   fill="rgb(0,120,38)"
   stroke="none"
   d="M 25665,5906 L 25265,5906 25265,5568 26065,5568 26065,5906 25665,5906 Z"
   id="path370" />
 <text
   class="SVGTextShape"
   id="text378"><tspan
     class="TextParagraph"
     font-family="Latin Modern Roman Caps"
     font-size="564px"
     font-weight="400"
     id="tspan376"><tspan
       class="TextPosition"
       x="26189"
       y="5962"
       id="tspan374"><tspan
         fill="rgb(0,0,0)"
         stroke="none"
         id="tspan372">output </tspan></tspan></tspan></text>
 <text
   class="SVGTextShape"
   id="text386"><tspan
     class="TextParagraph"
     font-family="Latin Modern Roman Caps"
     font-size="564px"
     font-weight="400"
     id="tspan384"><tspan
       class="TextPosition"
       x="26189"
       y="6843"
       id="tspan382"><tspan
         fill="rgb(0,0,0)"
         stroke="none"
         id="tspan380">fruit</tspan></tspan></tspan></text>
 <text
   class="SVGTextShape"
   id="text394"><tspan
     class="TextParagraph"
     font-family="Latin Modern Roman Caps"
     font-size="564px"
     font-weight="400"
     id="tspan392"><tspan
       class="TextPosition"
       x="26189"
       y="7723"
       id="tspan390"><tspan
         fill="rgb(0,0,0)"
         stroke="none"
         id="tspan388">groenten</tspan></tspan></tspan></text>
 <text
   class="SVGTextShape"
   id="text402"><tspan
     class="TextParagraph"
     font-family="Latin Modern Roman Caps"
     font-size="564px"
     font-weight="400"
     id="tspan400"><tspan
       class="TextPosition"
       x="26189"
       y="8604"
       id="tspan398"><tspan
         fill="rgb(0,0,0)"
         stroke="none"
         id="tspan396">veehouderij</tspan></tspan></tspan></text>
 <text
   class="SVGTextShape"
   id="text410"><tspan
     class="TextParagraph"
     font-family="Latin Modern Roman Caps"
     font-size="564px"
     font-weight="400"
     id="tspan408"><tspan
       class="TextPosition"
       x="26189"
       y="9485"
       id="tspan406"><tspan
         fill="rgb(0,0,0)"
         stroke="none"
         id="tspan404">akkerbouw</tspan></tspan></tspan></text>
</svg>
