<?xml version="1.0" encoding="UTF-8"?>
<!DOCTYPE svg PUBLIC "-//W3C//DTD SVG 1.1//EN" "http://www.w3.org/Graphics/SVG/1.1/DTD/svg11.dtd">
<svg width="300mm" height="150mm" viewBox="0 0 30000 15000" version="1.1" xmlns="http://www.w3.org/2000/svg" xmlns:xlink="http://www.w3.org/1999/xlink" stroke-width="28.222" stroke-linejoin="round" xml:space="preserve">
 <path fill="rgb(255,255,255)" stroke="none" d="M 15000,15000 L 0,15000 0,0 30000,0 30000,15000 15000,15000 Z"/>
 <path fill="none" stroke="rgb(179,179,179)" stroke-linejoin="round" d="M 12533,13065 L 4000,13065 4000,698 21066,698 21066,13065 12533,13065 Z"/>
 <path fill="none" stroke="rgb(179,179,179)" stroke-linejoin="round" d="M 21066,13064 L 4000,13064"/>
 <path fill="none" stroke="rgb(179,179,179)" stroke-linejoin="round" d="M 21066,11689 L 4000,11689"/>
 <path fill="none" stroke="rgb(179,179,179)" stroke-linejoin="round" d="M 21066,10315 L 4000,10315"/>
 <path fill="none" stroke="rgb(179,179,179)" stroke-linejoin="round" d="M 21066,8941 L 4000,8941"/>
 <path fill="none" stroke="rgb(179,179,179)" stroke-linejoin="round" d="M 21066,7567 L 4000,7567"/>
 <path fill="none" stroke="rgb(179,179,179)" stroke-linejoin="round" d="M 21066,6193 L 4000,6193"/>
 <path fill="none" stroke="rgb(179,179,179)" stroke-linejoin="round" d="M 21066,4819 L 4000,4819"/>
 <path fill="none" stroke="rgb(179,179,179)" stroke-linejoin="round" d="M 21066,3445 L 4000,3445"/>
 <path fill="none" stroke="rgb(179,179,179)" stroke-linejoin="round" d="M 21066,2071 L 4000,2071"/>
 <path fill="none" stroke="rgb(179,179,179)" stroke-linejoin="round" d="M 21066,697 L 4000,697"/>
 <path fill="none" stroke="rgb(179,179,179)" stroke-linejoin="round" d="M 4000,13214 L 4000,13064"/>
 <path fill="none" stroke="rgb(179,179,179)" stroke-linejoin="round" d="M 4000,13214 L 4000,13064"/>
 <path fill="none" stroke="rgb(179,179,179)" stroke-linejoin="round" d="M 4898,13214 L 4898,13064"/>
 <path fill="none" stroke="rgb(179,179,179)" stroke-linejoin="round" d="M 4898,13214 L 4898,13064"/>
 <path fill="none" stroke="rgb(179,179,179)" stroke-linejoin="round" d="M 5796,13214 L 5796,13064"/>
 <path fill="none" stroke="rgb(179,179,179)" stroke-linejoin="round" d="M 5796,13214 L 5796,13064"/>
 <path fill="none" stroke="rgb(179,179,179)" stroke-linejoin="round" d="M 6694,13214 L 6694,13064"/>
 <path fill="none" stroke="rgb(179,179,179)" stroke-linejoin="round" d="M 6694,13214 L 6694,13064"/>
 <path fill="none" stroke="rgb(179,179,179)" stroke-linejoin="round" d="M 7593,13214 L 7593,13064"/>
 <path fill="none" stroke="rgb(179,179,179)" stroke-linejoin="round" d="M 7593,13214 L 7593,13064"/>
 <path fill="none" stroke="rgb(179,179,179)" stroke-linejoin="round" d="M 8491,13214 L 8491,13064"/>
 <path fill="none" stroke="rgb(179,179,179)" stroke-linejoin="round" d="M 8491,13214 L 8491,13064"/>
 <path fill="none" stroke="rgb(179,179,179)" stroke-linejoin="round" d="M 9389,13214 L 9389,13064"/>
 <path fill="none" stroke="rgb(179,179,179)" stroke-linejoin="round" d="M 9389,13214 L 9389,13064"/>
 <path fill="none" stroke="rgb(179,179,179)" stroke-linejoin="round" d="M 10287,13214 L 10287,13064"/>
 <path fill="none" stroke="rgb(179,179,179)" stroke-linejoin="round" d="M 10287,13214 L 10287,13064"/>
 <path fill="none" stroke="rgb(179,179,179)" stroke-linejoin="round" d="M 11186,13214 L 11186,13064"/>
 <path fill="none" stroke="rgb(179,179,179)" stroke-linejoin="round" d="M 11186,13214 L 11186,13064"/>
 <path fill="none" stroke="rgb(179,179,179)" stroke-linejoin="round" d="M 12084,13214 L 12084,13064"/>
 <path fill="none" stroke="rgb(179,179,179)" stroke-linejoin="round" d="M 12084,13214 L 12084,13064"/>
 <path fill="none" stroke="rgb(179,179,179)" stroke-linejoin="round" d="M 12982,13214 L 12982,13064"/>
 <path fill="none" stroke="rgb(179,179,179)" stroke-linejoin="round" d="M 12982,13214 L 12982,13064"/>
 <path fill="none" stroke="rgb(179,179,179)" stroke-linejoin="round" d="M 13880,13214 L 13880,13064"/>
 <path fill="none" stroke="rgb(179,179,179)" stroke-linejoin="round" d="M 13880,13214 L 13880,13064"/>
 <path fill="none" stroke="rgb(179,179,179)" stroke-linejoin="round" d="M 14779,13214 L 14779,13064"/>
 <path fill="none" stroke="rgb(179,179,179)" stroke-linejoin="round" d="M 14779,13214 L 14779,13064"/>
 <path fill="none" stroke="rgb(179,179,179)" stroke-linejoin="round" d="M 15676,13214 L 15676,13064"/>
 <path fill="none" stroke="rgb(179,179,179)" stroke-linejoin="round" d="M 15676,13214 L 15676,13064"/>
 <path fill="none" stroke="rgb(179,179,179)" stroke-linejoin="round" d="M 16574,13214 L 16574,13064"/>
 <path fill="none" stroke="rgb(179,179,179)" stroke-linejoin="round" d="M 16574,13214 L 16574,13064"/>
 <path fill="none" stroke="rgb(179,179,179)" stroke-linejoin="round" d="M 17472,13214 L 17472,13064"/>
 <path fill="none" stroke="rgb(179,179,179)" stroke-linejoin="round" d="M 17472,13214 L 17472,13064"/>
 <path fill="none" stroke="rgb(179,179,179)" stroke-linejoin="round" d="M 18371,13214 L 18371,13064"/>
 <path fill="none" stroke="rgb(179,179,179)" stroke-linejoin="round" d="M 18371,13214 L 18371,13064"/>
 <path fill="none" stroke="rgb(179,179,179)" stroke-linejoin="round" d="M 19269,13214 L 19269,13064"/>
 <path fill="none" stroke="rgb(179,179,179)" stroke-linejoin="round" d="M 19269,13214 L 19269,13064"/>
 <path fill="none" stroke="rgb(179,179,179)" stroke-linejoin="round" d="M 20167,13214 L 20167,13064"/>
 <path fill="none" stroke="rgb(179,179,179)" stroke-linejoin="round" d="M 20167,13214 L 20167,13064"/>
 <path fill="none" stroke="rgb(179,179,179)" stroke-linejoin="round" d="M 21066,13214 L 21066,13064"/>
 <path fill="none" stroke="rgb(179,179,179)" stroke-linejoin="round" d="M 21066,13214 L 21066,13064"/>
 <path fill="none" stroke="rgb(179,179,179)" stroke-linejoin="round" d="M 4000,13064 L 21066,13064"/>
 <path fill="none" stroke="rgb(179,179,179)" stroke-linejoin="round" d="M 3850,13064 L 4000,13064"/>
 <path fill="none" stroke="rgb(179,179,179)" stroke-linejoin="round" d="M 3850,13064 L 4000,13064"/>
 <path fill="none" stroke="rgb(179,179,179)" stroke-linejoin="round" d="M 3850,11689 L 4000,11689"/>
 <path fill="none" stroke="rgb(179,179,179)" stroke-linejoin="round" d="M 3850,11689 L 4000,11689"/>
 <path fill="none" stroke="rgb(179,179,179)" stroke-linejoin="round" d="M 3850,10315 L 4000,10315"/>
 <path fill="none" stroke="rgb(179,179,179)" stroke-linejoin="round" d="M 3850,10315 L 4000,10315"/>
 <path fill="none" stroke="rgb(179,179,179)" stroke-linejoin="round" d="M 3850,8941 L 4000,8941"/>
 <path fill="none" stroke="rgb(179,179,179)" stroke-linejoin="round" d="M 3850,8941 L 4000,8941"/>
 <path fill="none" stroke="rgb(179,179,179)" stroke-linejoin="round" d="M 3850,7567 L 4000,7567"/>
 <path fill="none" stroke="rgb(179,179,179)" stroke-linejoin="round" d="M 3850,7567 L 4000,7567"/>
 <path fill="none" stroke="rgb(179,179,179)" stroke-linejoin="round" d="M 3850,6193 L 4000,6193"/>
 <path fill="none" stroke="rgb(179,179,179)" stroke-linejoin="round" d="M 3850,6193 L 4000,6193"/>
 <path fill="none" stroke="rgb(179,179,179)" stroke-linejoin="round" d="M 3850,4819 L 4000,4819"/>
 <path fill="none" stroke="rgb(179,179,179)" stroke-linejoin="round" d="M 3850,4819 L 4000,4819"/>
 <path fill="none" stroke="rgb(179,179,179)" stroke-linejoin="round" d="M 3850,3445 L 4000,3445"/>
 <path fill="none" stroke="rgb(179,179,179)" stroke-linejoin="round" d="M 3850,3445 L 4000,3445"/>
 <path fill="none" stroke="rgb(179,179,179)" stroke-linejoin="round" d="M 3850,2071 L 4000,2071"/>
 <path fill="none" stroke="rgb(179,179,179)" stroke-linejoin="round" d="M 3850,2071 L 4000,2071"/>
 <path fill="none" stroke="rgb(179,179,179)" stroke-linejoin="round" d="M 3850,697 L 4000,697"/>
 <path fill="none" stroke="rgb(179,179,179)" stroke-linejoin="round" d="M 3850,697 L 4000,697"/>
 <path fill="none" stroke="rgb(179,179,179)" stroke-linejoin="round" d="M 4000,13064 L 4000,697"/>
 <path fill="rgb(51,51,51)" stroke="none" d="M 20392,13064 L 20841,13064 20841,10590 20392,10590 20392,13064 Z"/>
 <path fill="rgb(51,51,51)" stroke="none" d="M 15900,13064 L 16350,13064 16350,10533 15900,10533 15900,13064 Z"/>
 <path fill="rgb(51,51,51)" stroke="none" d="M 15002,13064 L 15451,13064 15451,10498 15002,10498 15002,13064 Z"/>
 <path fill="rgb(51,51,51)" stroke="none" d="M 14105,13064 L 14554,13064 14554,10378 14105,10378 14105,13064 Z"/>
 <path fill="rgb(51,51,51)" stroke="none" d="M 13207,13064 L 13656,13064 13656,10353 13207,10353 13207,13064 Z"/>
 <path fill="rgb(51,51,51)" stroke="none" d="M 12308,13064 L 12758,13064 12758,10345 12308,10345 12308,13064 Z"/>
 <path fill="rgb(51,51,51)" stroke="none" d="M 11410,13064 L 11859,13064 11859,10296 11410,10296 11410,13064 Z"/>
 <path fill="rgb(51,51,51)" stroke="none" d="M 10512,13064 L 10961,13064 10961,10293 10512,10293 10512,13064 Z"/>
 <path fill="rgb(51,51,51)" stroke="none" d="M 9614,13064 L 10063,13064 10063,10293 9614,10293 9614,13064 Z"/>
 <path fill="rgb(51,51,51)" stroke="none" d="M 8715,13064 L 9165,13064 9165,10192 8715,10192 8715,13064 Z"/>
 <path fill="rgb(51,51,51)" stroke="none" d="M 7817,13064 L 8266,13064 8266,10103 7817,10103 7817,13064 Z"/>
 <path fill="rgb(51,51,51)" stroke="none" d="M 6919,13064 L 7368,13064 7368,9943 6919,9943 6919,13064 Z"/>
 <path fill="rgb(51,51,51)" stroke="none" d="M 6021,13064 L 6470,13064 6470,9860 6021,9860 6021,13064 Z"/>
 <path fill="rgb(51,51,51)" stroke="none" d="M 5122,13064 L 5571,13064 5571,9884 5122,9884 5122,13064 Z"/>
 <path fill="rgb(51,51,51)" stroke="none" d="M 4224,13064 L 4673,13064 4673,9852 4224,9852 4224,13064 Z"/>
 <path fill="rgb(197,0,11)" stroke="none" d="M 15900,10533 L 16350,10533 16350,10521 15900,10521 15900,10533 Z"/>
 <path fill="rgb(197,0,11)" stroke="none" d="M 15002,10498 L 15451,10498 15451,10486 15002,10486 15002,10498 Z"/>
 <path fill="rgb(197,0,11)" stroke="none" d="M 9614,10293 L 10063,10293 10063,10286 9614,10286 9614,10293 Z"/>
 <path fill="rgb(197,0,11)" stroke="none" d="M 4224,9852 L 4673,9852 4673,9852 4224,9852 Z"/>
 <path fill="rgb(255,149,14)" stroke="none" d="M 15900,10521 L 16350,10521 16350,10514 15900,10514 15900,10521 Z"/>
 <path fill="rgb(255,149,14)" stroke="none" d="M 15002,10486 L 15451,10486 15451,10480 15002,10480 15002,10486 Z"/>
 <path fill="rgb(255,149,14)" stroke="none" d="M 9614,10286 L 10063,10286 10063,10283 9614,10283 9614,10286 Z"/>
 <path fill="rgb(255,149,14)" stroke="none" d="M 4224,9852 L 4673,9852 4673,9852 4224,9852 Z"/>
 <path fill="rgb(75,31,111)" stroke="none" d="M 15900,10514 L 16350,10514 16350,10434 15900,10434 15900,10514 Z"/>
 <path fill="rgb(75,31,111)" stroke="none" d="M 15002,10480 L 15451,10480 15451,10399 15002,10399 15002,10480 Z"/>
 <path fill="rgb(75,31,111)" stroke="none" d="M 9614,10283 L 10063,10283 10063,10239 9614,10239 9614,10283 Z"/>
 <path fill="rgb(75,31,111)" stroke="none" d="M 4224,9852 L 4673,9852 4673,9839 4224,9839 4224,9852 Z"/>
 <path fill="rgb(174,207,0)" stroke="none" d="M 15900,10434 L 16350,10434 16350,10433 15900,10433 15900,10434 Z"/>
 <path fill="rgb(174,207,0)" stroke="none" d="M 15002,10399 L 15451,10399 15451,10398 15002,10398 15002,10399 Z"/>
 <path fill="rgb(174,207,0)" stroke="none" d="M 9614,10239 L 10063,10239 10063,10238 9614,10238 9614,10239 Z"/>
 <path fill="rgb(174,207,0)" stroke="none" d="M 4224,9839 L 4673,9839 4673,9839 4224,9839 Z"/>
 <path fill="rgb(49,64,4)" stroke="none" d="M 15900,10433 L 16350,10433 16350,6173 15900,6173 15900,10433 Z"/>
 <path fill="rgb(49,64,4)" stroke="none" d="M 15002,10398 L 15451,10398 15451,6506 15002,6506 15002,10398 Z"/>
 <path fill="rgb(49,64,4)" stroke="none" d="M 9614,10238 L 10063,10238 10063,5610 9614,5610 9614,10238 Z"/>
 <path fill="rgb(49,64,4)" stroke="none" d="M 4224,9839 L 4673,9839 4673,9334 4224,9334 4224,9839 Z"/>
 <path fill="rgb(131,202,255)" stroke="none" d="M 15900,6173 L 16350,6173 16350,6172 15900,6172 15900,6173 Z"/>
 <path fill="rgb(131,202,255)" stroke="none" d="M 15002,6506 L 15451,6506 15451,6505 15002,6505 15002,6506 Z"/>
 <path fill="rgb(126,0,33)" stroke="none" d="M 15900,6172 L 16350,6172 16350,6172 15900,6172 Z"/>
 <path fill="rgb(126,0,33)" stroke="none" d="M 15002,6505 L 15451,6505 15451,6505 15002,6505 Z"/>
 <path fill="rgb(126,0,33)" stroke="none" d="M 9614,5610 L 10063,5610 10063,5610 9614,5610 Z"/>
 <path fill="rgb(126,0,33)" stroke="none" d="M 4224,9334 L 4673,9334 4673,9334 4224,9334 Z"/>
 <path fill="rgb(87,157,28)" stroke="none" d="M 15900,6172 L 16350,6172 16350,6172 15900,6172 Z"/>
 <path fill="rgb(87,157,28)" stroke="none" d="M 15002,6505 L 15451,6505 15451,6505 15002,6505 Z"/>
 <path fill="rgb(87,157,28)" stroke="none" d="M 9614,5610 L 10063,5610 10063,5609 9614,5609 9614,5610 Z"/>
 <path fill="rgb(87,157,28)" stroke="none" d="M 4224,9334 L 4673,9334 4673,9334 4224,9334 Z"/>
 <path fill="rgb(255,211,32)" stroke="none" d="M 15900,6172 L 16350,6172 16350,6172 15900,6172 Z"/>
 <path fill="rgb(255,211,32)" stroke="none" d="M 15002,6505 L 15451,6505 15451,6504 15002,6504 15002,6505 Z"/>
 <path fill="rgb(255,211,32)" stroke="none" d="M 9614,5609 L 10063,5609 10063,5609 9614,5609 Z"/>
 <path fill="rgb(255,66,14)" stroke="none" d="M 15900,6172 L 16350,6172 16350,6171 15900,6171 15900,6172 Z"/>
 <path fill="rgb(255,66,14)" stroke="none" d="M 15002,6504 L 15451,6504 15451,6504 15002,6504 Z"/>
 <path fill="rgb(255,66,14)" stroke="none" d="M 9614,5609 L 10063,5609 10063,5609 9614,5609 Z"/>
 <path fill="rgb(255,66,14)" stroke="none" d="M 4224,9334 L 4673,9334 4673,9333 4224,9333 4224,9334 Z"/>
 <path fill="rgb(0,69,134)" stroke="none" d="M 15900,6171 L 16350,6171 16350,6166 15900,6166 15900,6171 Z"/>
 <path fill="rgb(0,69,134)" stroke="none" d="M 15002,6504 L 15451,6504 15451,6499 15002,6499 15002,6504 Z"/>
 <path fill="rgb(0,69,134)" stroke="none" d="M 9614,5609 L 10063,5609 10063,5603 9614,5603 9614,5609 Z"/>
 <path fill="rgb(0,69,134)" stroke="none" d="M 4224,9333 L 4673,9333 4673,9328 4224,9328 4224,9333 Z"/>
 <path fill="rgb(153,204,255)" stroke="none" d="M 20392,10590 L 20841,10590 20841,10246 20392,10246 20392,10590 Z"/>
 <path fill="rgb(153,204,255)" stroke="none" d="M 14105,10378 L 14554,10378 14554,6189 14105,6189 14105,10378 Z"/>
 <path fill="rgb(153,204,255)" stroke="none" d="M 13207,10353 L 13656,10353 13656,6233 13207,6233 13207,10353 Z"/>
 <path fill="rgb(153,204,255)" stroke="none" d="M 12308,10345 L 12758,10345 12758,5598 12308,5598 12308,10345 Z"/>
 <path fill="rgb(153,204,255)" stroke="none" d="M 11410,10296 L 11859,10296 11859,5495 11410,5495 11410,10296 Z"/>
 <path fill="rgb(153,204,255)" stroke="none" d="M 10512,10293 L 10961,10293 10961,5130 10512,5130 10512,10293 Z"/>
 <path fill="rgb(153,204,255)" stroke="none" d="M 8715,10192 L 9165,10192 9165,5842 8715,5842 8715,10192 Z"/>
 <path fill="rgb(153,204,255)" stroke="none" d="M 7817,10103 L 8266,10103 8266,6798 7817,6798 7817,10103 Z"/>
 <path fill="rgb(153,204,255)" stroke="none" d="M 6919,9943 L 7368,9943 7368,7510 6919,7510 6919,9943 Z"/>
 <path fill="rgb(153,204,255)" stroke="none" d="M 6021,9860 L 6470,9860 6470,7493 6021,7493 6021,9860 Z"/>
 <path fill="rgb(153,204,255)" stroke="none" d="M 5122,9884 L 5571,9884 5571,8367 5122,8367 5122,9884 Z"/>
 <path fill="none" stroke="rgb(51,51,51)" stroke-width="50" stroke-linejoin="round" d="M 4449,9852 L 5347,9884 6245,9860 7143,9943 8042,10103 8940,10192 9838,10293 10736,10293 11635,10296 12533,10345 13431,10353 14330,10378 15227,10498 16125,10533 20616,10590"/>
 <path fill="none" stroke="rgb(153,204,255)" stroke-width="50" stroke-linejoin="round" d="M 4449,9328 L 5347,8367 6245,7493 7143,7510 8042,6798 8940,5842 9838,5603 10736,5130 11635,5495 12533,5598 13431,6233 14330,6189 15227,6499 16125,6166 20616,10246"/>
 <text class="SVGTextShape" transform="rotate(-44.9 3792 14587)"><tspan class="TextParagraph" font-family="Latin Modern Roman" font-size="564px" font-weight="400"><tspan class="TextPosition" x="3792" y="14587"><tspan fill="rgb(0,0,0)" stroke="none">1950</tspan></tspan></tspan></text>
 <text class="SVGTextShape" transform="rotate(-44.9 5588 14587)"><tspan class="TextParagraph" font-family="Latin Modern Roman" font-size="564px" font-weight="400"><tspan class="TextPosition" x="5588" y="14587"><tspan fill="rgb(0,0,0)" stroke="none">1960</tspan></tspan></tspan></text>
 <text class="SVGTextShape" transform="rotate(-44.9 7385 14587)"><tspan class="TextParagraph" font-family="Latin Modern Roman" font-size="564px" font-weight="400"><tspan class="TextPosition" x="7385" y="14587"><tspan fill="rgb(0,0,0)" stroke="none">1970</tspan></tspan></tspan></text>
 <text class="SVGTextShape" transform="rotate(-44.9 9181 14587)"><tspan class="TextParagraph" font-family="Latin Modern Roman" font-size="564px" font-weight="400"><tspan class="TextPosition" x="9181" y="14587"><tspan fill="rgb(0,0,0)" stroke="none">1980</tspan></tspan></tspan></text>
 <text class="SVGTextShape" transform="rotate(-44.9 10978 14587)"><tspan class="TextParagraph" font-family="Latin Modern Roman" font-size="564px" font-weight="400"><tspan class="TextPosition" x="10978" y="14587"><tspan fill="rgb(0,0,0)" stroke="none">1990</tspan></tspan></tspan></text>
 <text class="SVGTextShape" transform="rotate(-44.9 12774 14587)"><tspan class="TextParagraph" font-family="Latin Modern Roman" font-size="564px" font-weight="400"><tspan class="TextPosition" x="12774" y="14587"><tspan fill="rgb(0,0,0)" stroke="none">2000</tspan></tspan></tspan></text>
 <text class="SVGTextShape" transform="rotate(-44.9 14571 14587)"><tspan class="TextParagraph" font-family="Latin Modern Roman" font-size="564px" font-weight="400"><tspan class="TextPosition" x="14571" y="14587"><tspan fill="rgb(0,0,0)" stroke="none">2010</tspan></tspan></tspan></text>
 <text class="SVGTextShape" transform="rotate(-44.9 16367 14587)"><tspan class="TextParagraph" font-family="Latin Modern Roman" font-size="564px" font-weight="400"><tspan class="TextPosition" x="16367" y="14587"><tspan fill="rgb(0,0,0)" stroke="none">2020</tspan></tspan></tspan></text>
 <text class="SVGTextShape" transform="rotate(-44.9 18164 14587)"><tspan class="TextParagraph" font-family="Latin Modern Roman" font-size="564px" font-weight="400"><tspan class="TextPosition" x="18164" y="14587"><tspan fill="rgb(0,0,0)" stroke="none">2030</tspan></tspan></tspan></text>
 <text class="SVGTextShape" transform="rotate(-44.9 19960 14587)"><tspan class="TextParagraph" font-family="Latin Modern Roman" font-size="564px" font-weight="400"><tspan class="TextPosition" x="19960" y="14587"><tspan fill="rgb(0,0,0)" stroke="none">2040</tspan></tspan></tspan></text>
 <text class="SVGTextShape"><tspan class="TextParagraph" font-family="Latin Modern Roman" font-size="564px" font-weight="400"><tspan class="TextPosition" x="2665" y="13303"><tspan fill="rgb(0,0,0)" stroke="none">0 ha</tspan></tspan></tspan></text>
 <text class="SVGTextShape"><tspan class="TextParagraph" font-family="Latin Modern Roman" font-size="564px" font-weight="400"><tspan class="TextPosition" x="601" y="11928"><tspan fill="rgb(0,0,0)" stroke="none">1.000.000 ha</tspan></tspan></tspan></text>
 <text class="SVGTextShape"><tspan class="TextParagraph" font-family="Latin Modern Roman" font-size="564px" font-weight="400"><tspan class="TextPosition" x="601" y="10554"><tspan fill="rgb(0,0,0)" stroke="none">2.000.000 ha</tspan></tspan></tspan></text>
 <text class="SVGTextShape"><tspan class="TextParagraph" font-family="Latin Modern Roman" font-size="564px" font-weight="400"><tspan class="TextPosition" x="601" y="9180"><tspan fill="rgb(0,0,0)" stroke="none">3.000.000 ha</tspan></tspan></tspan></text>
 <text class="SVGTextShape"><tspan class="TextParagraph" font-family="Latin Modern Roman" font-size="564px" font-weight="400"><tspan class="TextPosition" x="601" y="7806"><tspan fill="rgb(0,0,0)" stroke="none">4.000.000 ha</tspan></tspan></tspan></text>
 <text class="SVGTextShape"><tspan class="TextParagraph" font-family="Latin Modern Roman" font-size="564px" font-weight="400"><tspan class="TextPosition" x="601" y="6431"><tspan fill="rgb(0,0,0)" stroke="none">5.000.000 ha</tspan></tspan></tspan></text>
 <text class="SVGTextShape"><tspan class="TextParagraph" font-family="Latin Modern Roman" font-size="564px" font-weight="400"><tspan class="TextPosition" x="601" y="5057"><tspan fill="rgb(0,0,0)" stroke="none">6.000.000 ha</tspan></tspan></tspan></text>
 <text class="SVGTextShape"><tspan class="TextParagraph" font-family="Latin Modern Roman" font-size="564px" font-weight="400"><tspan class="TextPosition" x="601" y="3683"><tspan fill="rgb(0,0,0)" stroke="none">7.000.000 ha</tspan></tspan></tspan></text>
 <text class="SVGTextShape"><tspan class="TextParagraph" font-family="Latin Modern Roman" font-size="564px" font-weight="400"><tspan class="TextPosition" x="601" y="2309"><tspan fill="rgb(0,0,0)" stroke="none">8.000.000 ha</tspan></tspan></tspan></text>
 <text class="SVGTextShape"><tspan class="TextParagraph" font-family="Latin Modern Roman" font-size="564px" font-weight="400"><tspan class="TextPosition" x="601" y="935"><tspan fill="rgb(0,0,0)" stroke="none">9.000.000 ha</tspan></tspan></tspan></text>
 <path fill="rgb(51,51,51)" stroke="none" d="M 22252,12953 L 21852,12953 21852,12615 22652,12615 22652,12953 22252,12953 Z"/>
 <path fill="rgb(197,0,11)" stroke="none" d="M 22252,12072 L 21852,12072 21852,11734 22652,11734 22652,12072 22252,12072 Z"/>
 <path fill="rgb(255,149,14)" stroke="none" d="M 22252,11191 L 21852,11191 21852,10853 22652,10853 22652,11191 22252,11191 Z"/>
 <path fill="rgb(75,31,111)" stroke="none" d="M 22252,10310 L 21852,10310 21852,9972 22652,9972 22652,10310 22252,10310 Z"/>
 <path fill="rgb(174,207,0)" stroke="none" d="M 22252,9429 L 21852,9429 21852,9091 22652,9091 22652,9429 22252,9429 Z"/>
 <path fill="rgb(49,64,4)" stroke="none" d="M 22252,8548 L 21852,8548 21852,8210 22652,8210 22652,8548 22252,8548 Z"/>
 <path fill="rgb(131,202,255)" stroke="none" d="M 22252,7667 L 21852,7667 21852,7330 22652,7330 22652,7667 22252,7667 Z"/>
 <path fill="rgb(126,0,33)" stroke="none" d="M 22252,6787 L 21852,6787 21852,6449 22652,6449 22652,6787 22252,6787 Z"/>
 <path fill="rgb(87,157,28)" stroke="none" d="M 22252,5906 L 21852,5906 21852,5568 22652,5568 22652,5906 22252,5906 Z"/>
 <path fill="rgb(255,211,32)" stroke="none" d="M 22252,5025 L 21852,5025 21852,4687 22652,4687 22652,5025 22252,5025 Z"/>
 <path fill="rgb(255,66,14)" stroke="none" d="M 22252,4144 L 21852,4144 21852,3806 22652,3806 22652,4144 22252,4144 Z"/>
 <path fill="rgb(0,69,134)" stroke="none" d="M 22252,3263 L 21852,3263 21852,2925 22652,2925 22652,3263 22252,3263 Z"/>
 <path fill="rgb(153,204,255)" stroke="none" d="M 22252,2382 L 21852,2382 21852,2044 22652,2044 22652,2382 22252,2382 Z"/>
 <text class="SVGTextShape"><tspan class="TextParagraph" font-family="Latin Modern Roman Caps" font-size="564px" font-weight="400"><tspan class="TextPosition" x="22776" y="2438"><tspan fill="rgb(0,0,0)" stroke="none">indirect landgebruik</tspan></tspan></tspan></text>
 <text class="SVGTextShape"><tspan class="TextParagraph" font-family="Latin Modern Roman Caps" font-size="564px" font-weight="400"><tspan class="TextPosition" x="22776" y="3319"><tspan fill="rgb(0,0,0)" stroke="none">transport en infrastr. </tspan></tspan></tspan></text>
 <text class="SVGTextShape"><tspan class="TextParagraph" font-family="Latin Modern Roman Caps" font-size="564px" font-weight="400"><tspan class="TextPosition" x="22776" y="4200"><tspan fill="rgb(0,0,0)" stroke="none">dienstverlening </tspan></tspan></tspan></text>
 <text class="SVGTextShape"><tspan class="TextParagraph" font-family="Latin Modern Roman Caps" font-size="564px" font-weight="400"><tspan class="TextPosition" x="22776" y="5081"><tspan fill="rgb(0,0,0)" stroke="none">elektronica </tspan></tspan></tspan></text>
 <text class="SVGTextShape"><tspan class="TextParagraph" font-family="Latin Modern Roman Caps" font-size="564px" font-weight="400"><tspan class="TextPosition" x="22776" y="5962"><tspan fill="rgb(0,0,0)" stroke="none">bestrijdingsmiddelen </tspan></tspan></tspan></text>
 <text class="SVGTextShape"><tspan class="TextParagraph" font-family="Latin Modern Roman Caps" font-size="564px" font-weight="400"><tspan class="TextPosition" x="22776" y="6843"><tspan fill="rgb(0,0,0)" stroke="none">kunstmest </tspan></tspan></tspan></text>
 <text class="SVGTextShape"><tspan class="TextParagraph" font-family="Latin Modern Roman Caps" font-size="564px" font-weight="400"><tspan class="TextPosition" x="22776" y="7723"><tspan fill="rgb(0,0,0)" stroke="none">dierlijke mest </tspan></tspan></tspan></text>
 <text class="SVGTextShape"><tspan class="TextParagraph" font-family="Latin Modern Roman Caps" font-size="564px" font-weight="400"><tspan class="TextPosition" x="22776" y="8604"><tspan fill="rgb(0,0,0)" stroke="none">veevoer </tspan></tspan></tspan></text>
 <text class="SVGTextShape"><tspan class="TextParagraph" font-family="Latin Modern Roman Caps" font-size="564px" font-weight="400"><tspan class="TextPosition" x="22776" y="9485"><tspan fill="rgb(0,0,0)" stroke="none">trekkers en machines </tspan></tspan></tspan></text>
 <text class="SVGTextShape"><tspan class="TextParagraph" font-family="Latin Modern Roman Caps" font-size="564px" font-weight="400"><tspan class="TextPosition" x="22776" y="10366"><tspan fill="rgb(0,0,0)" stroke="none">gebouwen </tspan></tspan></tspan></text>
 <text class="SVGTextShape"><tspan class="TextParagraph" font-family="Latin Modern Roman Caps" font-size="564px" font-weight="400"><tspan class="TextPosition" x="22776" y="11247"><tspan fill="rgb(0,0,0)" stroke="none">mijnbouw </tspan></tspan></tspan></text>
 <text class="SVGTextShape"><tspan class="TextParagraph" font-family="Latin Modern Roman Caps" font-size="564px" font-weight="400"><tspan class="TextPosition" x="22776" y="12128"><tspan fill="rgb(0,0,0)" stroke="none">energie toelevering</tspan></tspan></tspan></text>
 <text class="SVGTextShape"><tspan class="TextParagraph" font-family="Latin Modern Roman Caps" font-size="564px" font-weight="400"><tspan class="TextPosition" x="22776" y="13009"><tspan fill="rgb(0,0,0)" stroke="none">direct landgebruik </tspan></tspan></tspan></text>
</svg>