<?xml version="1.0" encoding="UTF-8"?>
<!DOCTYPE svg PUBLIC "-//W3C//DTD SVG 1.1//EN" "http://www.w3.org/Graphics/SVG/1.1/DTD/svg11.dtd">
<svg width="300mm" height="150mm" viewBox="0 0 30000 15000" version="1.1" xmlns="http://www.w3.org/2000/svg" xmlns:xlink="http://www.w3.org/1999/xlink" stroke-width="28.222" stroke-linejoin="round" xml:space="preserve">
 <path fill="rgb(255,255,255)" stroke="none" d="M 15000,15000 L 0,15000 0,0 30000,0 30000,15000 15000,15000 Z"/>
 <path fill="none" stroke="rgb(179,179,179)" stroke-linejoin="round" d="M 16376,10340 L 4076,10340 4076,660 28676,660 28676,10340 16376,10340 Z"/>
 <path fill="none" stroke="rgb(179,179,179)" stroke-linejoin="round" d="M 28676,10339 L 4076,10339"/>
 <path fill="none" stroke="rgb(179,179,179)" stroke-linejoin="round" d="M 28676,9128 L 4076,9128"/>
 <path fill="none" stroke="rgb(179,179,179)" stroke-linejoin="round" d="M 28676,7918 L 4076,7918"/>
 <path fill="none" stroke="rgb(179,179,179)" stroke-linejoin="round" d="M 28676,6709 L 4076,6709"/>
 <path fill="none" stroke="rgb(179,179,179)" stroke-linejoin="round" d="M 28676,5499 L 4076,5499"/>
 <path fill="none" stroke="rgb(179,179,179)" stroke-linejoin="round" d="M 28676,4289 L 4076,4289"/>
 <path fill="none" stroke="rgb(179,179,179)" stroke-linejoin="round" d="M 28676,3079 L 4076,3079"/>
 <path fill="none" stroke="rgb(179,179,179)" stroke-linejoin="round" d="M 28676,1869 L 4076,1869"/>
 <path fill="none" stroke="rgb(179,179,179)" stroke-linejoin="round" d="M 28676,659 L 4076,659"/>
 <path fill="none" stroke="rgb(179,179,179)" stroke-linejoin="round" d="M 4076,10489 L 4076,10339"/>
 <path fill="none" stroke="rgb(179,179,179)" stroke-linejoin="round" d="M 4076,10489 L 4076,10339"/>
 <path fill="none" stroke="rgb(179,179,179)" stroke-linejoin="round" d="M 5968,10489 L 5968,10339"/>
 <path fill="none" stroke="rgb(179,179,179)" stroke-linejoin="round" d="M 5968,10489 L 5968,10339"/>
 <path fill="none" stroke="rgb(179,179,179)" stroke-linejoin="round" d="M 7860,10489 L 7860,10339"/>
 <path fill="none" stroke="rgb(179,179,179)" stroke-linejoin="round" d="M 7860,10489 L 7860,10339"/>
 <path fill="none" stroke="rgb(179,179,179)" stroke-linejoin="round" d="M 9753,10489 L 9753,10339"/>
 <path fill="none" stroke="rgb(179,179,179)" stroke-linejoin="round" d="M 9753,10489 L 9753,10339"/>
 <path fill="none" stroke="rgb(179,179,179)" stroke-linejoin="round" d="M 11645,10489 L 11645,10339"/>
 <path fill="none" stroke="rgb(179,179,179)" stroke-linejoin="round" d="M 11645,10489 L 11645,10339"/>
 <path fill="none" stroke="rgb(179,179,179)" stroke-linejoin="round" d="M 13537,10489 L 13537,10339"/>
 <path fill="none" stroke="rgb(179,179,179)" stroke-linejoin="round" d="M 13537,10489 L 13537,10339"/>
 <path fill="none" stroke="rgb(179,179,179)" stroke-linejoin="round" d="M 15429,10489 L 15429,10339"/>
 <path fill="none" stroke="rgb(179,179,179)" stroke-linejoin="round" d="M 15429,10489 L 15429,10339"/>
 <path fill="none" stroke="rgb(179,179,179)" stroke-linejoin="round" d="M 17321,10489 L 17321,10339"/>
 <path fill="none" stroke="rgb(179,179,179)" stroke-linejoin="round" d="M 17321,10489 L 17321,10339"/>
 <path fill="none" stroke="rgb(179,179,179)" stroke-linejoin="round" d="M 19214,10489 L 19214,10339"/>
 <path fill="none" stroke="rgb(179,179,179)" stroke-linejoin="round" d="M 19214,10489 L 19214,10339"/>
 <path fill="none" stroke="rgb(179,179,179)" stroke-linejoin="round" d="M 21106,10489 L 21106,10339"/>
 <path fill="none" stroke="rgb(179,179,179)" stroke-linejoin="round" d="M 21106,10489 L 21106,10339"/>
 <path fill="none" stroke="rgb(179,179,179)" stroke-linejoin="round" d="M 22998,10489 L 22998,10339"/>
 <path fill="none" stroke="rgb(179,179,179)" stroke-linejoin="round" d="M 22998,10489 L 22998,10339"/>
 <path fill="none" stroke="rgb(179,179,179)" stroke-linejoin="round" d="M 24891,10489 L 24891,10339"/>
 <path fill="none" stroke="rgb(179,179,179)" stroke-linejoin="round" d="M 24891,10489 L 24891,10339"/>
 <path fill="none" stroke="rgb(179,179,179)" stroke-linejoin="round" d="M 26783,10489 L 26783,10339"/>
 <path fill="none" stroke="rgb(179,179,179)" stroke-linejoin="round" d="M 26783,10489 L 26783,10339"/>
 <path fill="none" stroke="rgb(179,179,179)" stroke-linejoin="round" d="M 28676,10489 L 28676,10339"/>
 <path fill="none" stroke="rgb(179,179,179)" stroke-linejoin="round" d="M 28676,10489 L 28676,10339"/>
 <path fill="none" stroke="rgb(179,179,179)" stroke-linejoin="round" d="M 4076,10339 L 28676,10339"/>
 <path fill="none" stroke="rgb(179,179,179)" stroke-linejoin="round" d="M 3926,10339 L 4076,10339"/>
 <path fill="none" stroke="rgb(179,179,179)" stroke-linejoin="round" d="M 3926,10339 L 4076,10339"/>
 <path fill="none" stroke="rgb(179,179,179)" stroke-linejoin="round" d="M 3926,9128 L 4076,9128"/>
 <path fill="none" stroke="rgb(179,179,179)" stroke-linejoin="round" d="M 3926,9128 L 4076,9128"/>
 <path fill="none" stroke="rgb(179,179,179)" stroke-linejoin="round" d="M 3926,7918 L 4076,7918"/>
 <path fill="none" stroke="rgb(179,179,179)" stroke-linejoin="round" d="M 3926,7918 L 4076,7918"/>
 <path fill="none" stroke="rgb(179,179,179)" stroke-linejoin="round" d="M 3926,6709 L 4076,6709"/>
 <path fill="none" stroke="rgb(179,179,179)" stroke-linejoin="round" d="M 3926,6709 L 4076,6709"/>
 <path fill="none" stroke="rgb(179,179,179)" stroke-linejoin="round" d="M 3926,5499 L 4076,5499"/>
 <path fill="none" stroke="rgb(179,179,179)" stroke-linejoin="round" d="M 3926,5499 L 4076,5499"/>
 <path fill="none" stroke="rgb(179,179,179)" stroke-linejoin="round" d="M 3926,4289 L 4076,4289"/>
 <path fill="none" stroke="rgb(179,179,179)" stroke-linejoin="round" d="M 3926,4289 L 4076,4289"/>
 <path fill="none" stroke="rgb(179,179,179)" stroke-linejoin="round" d="M 3926,3079 L 4076,3079"/>
 <path fill="none" stroke="rgb(179,179,179)" stroke-linejoin="round" d="M 3926,3079 L 4076,3079"/>
 <path fill="none" stroke="rgb(179,179,179)" stroke-linejoin="round" d="M 3926,1869 L 4076,1869"/>
 <path fill="none" stroke="rgb(179,179,179)" stroke-linejoin="round" d="M 3926,1869 L 4076,1869"/>
 <path fill="none" stroke="rgb(179,179,179)" stroke-linejoin="round" d="M 3926,659 L 4076,659"/>
 <path fill="none" stroke="rgb(179,179,179)" stroke-linejoin="round" d="M 3926,659 L 4076,659"/>
 <path fill="none" stroke="rgb(179,179,179)" stroke-linejoin="round" d="M 4076,10339 L 4076,659"/>
 <path fill="none" stroke="rgb(0,69,134)" stroke-width="50" stroke-linejoin="round" d="M 4076,9252 L 5968,9095 7860,9023 9753,8733 11645,8408 13537,8209 15429,8154 17321,7961 19214,7812 21106,7612 22998,7508 24891,6945 26783,6666 28676,6399"/>
 <path fill="rgb(0,69,134)" stroke="none" d="M 3951,9127 L 3951,9377 4201,9377 4201,9127 3951,9127 Z"/>
 <path fill="none" stroke="rgb(0,69,134)" stroke-linejoin="round" d="M 3951,9127 L 3951,9377 4201,9377 4201,9127 3951,9127 Z"/>
 <path fill="rgb(0,69,134)" stroke="none" d="M 5843,8970 L 5843,9220 6093,9220 6093,8970 5843,8970 Z"/>
 <path fill="none" stroke="rgb(0,69,134)" stroke-linejoin="round" d="M 5843,8970 L 5843,9220 6093,9220 6093,8970 5843,8970 Z"/>
 <path fill="rgb(0,69,134)" stroke="none" d="M 7735,8898 L 7735,9148 7985,9148 7985,8898 7735,8898 Z"/>
 <path fill="none" stroke="rgb(0,69,134)" stroke-linejoin="round" d="M 7735,8898 L 7735,9148 7985,9148 7985,8898 7735,8898 Z"/>
 <path fill="rgb(0,69,134)" stroke="none" d="M 9628,8608 L 9628,8858 9878,8858 9878,8608 9628,8608 Z"/>
 <path fill="none" stroke="rgb(0,69,134)" stroke-linejoin="round" d="M 9628,8608 L 9628,8858 9878,8858 9878,8608 9628,8608 Z"/>
 <path fill="rgb(0,69,134)" stroke="none" d="M 11520,8283 L 11520,8533 11770,8533 11770,8283 11520,8283 Z"/>
 <path fill="none" stroke="rgb(0,69,134)" stroke-linejoin="round" d="M 11520,8283 L 11520,8533 11770,8533 11770,8283 11520,8283 Z"/>
 <path fill="rgb(0,69,134)" stroke="none" d="M 13412,8084 L 13412,8334 13662,8334 13662,8084 13412,8084 Z"/>
 <path fill="none" stroke="rgb(0,69,134)" stroke-linejoin="round" d="M 13412,8084 L 13412,8334 13662,8334 13662,8084 13412,8084 Z"/>
 <path fill="rgb(0,69,134)" stroke="none" d="M 15304,8029 L 15304,8279 15554,8279 15554,8029 15304,8029 Z"/>
 <path fill="none" stroke="rgb(0,69,134)" stroke-linejoin="round" d="M 15304,8029 L 15304,8279 15554,8279 15554,8029 15304,8029 Z"/>
 <path fill="rgb(0,69,134)" stroke="none" d="M 17196,7836 L 17196,8086 17446,8086 17446,7836 17196,7836 Z"/>
 <path fill="none" stroke="rgb(0,69,134)" stroke-linejoin="round" d="M 17196,7836 L 17196,8086 17446,8086 17446,7836 17196,7836 Z"/>
 <path fill="rgb(0,69,134)" stroke="none" d="M 19089,7687 L 19089,7937 19339,7937 19339,7687 19089,7687 Z"/>
 <path fill="none" stroke="rgb(0,69,134)" stroke-linejoin="round" d="M 19089,7687 L 19089,7937 19339,7937 19339,7687 19089,7687 Z"/>
 <path fill="rgb(0,69,134)" stroke="none" d="M 20981,7488 L 20981,7737 21231,7737 21231,7488 20981,7488 Z"/>
 <path fill="none" stroke="rgb(0,69,134)" stroke-linejoin="round" d="M 20981,7488 L 20981,7737 21231,7737 21231,7488 20981,7488 Z"/>
 <path fill="rgb(0,69,134)" stroke="none" d="M 22873,7384 L 22873,7633 23123,7633 23123,7384 22873,7384 Z"/>
 <path fill="none" stroke="rgb(0,69,134)" stroke-linejoin="round" d="M 22873,7384 L 22873,7633 23123,7633 23123,7384 22873,7384 Z"/>
 <path fill="rgb(0,69,134)" stroke="none" d="M 24766,6820 L 24766,7070 25016,7070 25016,6820 24766,6820 Z"/>
 <path fill="none" stroke="rgb(0,69,134)" stroke-linejoin="round" d="M 24766,6820 L 24766,7070 25016,7070 25016,6820 24766,6820 Z"/>
 <path fill="rgb(0,69,134)" stroke="none" d="M 26658,6541 L 26658,6791 26908,6791 26908,6541 26658,6541 Z"/>
 <path fill="none" stroke="rgb(0,69,134)" stroke-linejoin="round" d="M 26658,6541 L 26658,6791 26908,6791 26908,6541 26658,6541 Z"/>
 <path fill="rgb(0,69,134)" stroke="none" d="M 28551,6274 L 28551,6524 28801,6524 28801,6274 28551,6274 Z"/>
 <path fill="none" stroke="rgb(0,69,134)" stroke-linejoin="round" d="M 28551,6274 L 28551,6524 28801,6524 28801,6274 28551,6274 Z"/>
 <path fill="none" stroke="rgb(255,211,32)" stroke-width="50" stroke-linejoin="round" d="M 4076,9253 L 5968,9005 7860,8747 9753,8547 11645,8053 13537,7486 15429,7179 17321,6995 19214,6962 21106,6679 22998,6818 24891,6419 26783,6403 28676,6310"/>
 <path fill="rgb(255,211,32)" stroke="none" d="M 3951,9128 L 4076,9378 4201,9128 3951,9128 Z"/>
 <path fill="none" stroke="rgb(255,211,32)" stroke-linejoin="round" d="M 3951,9128 L 4076,9378 4201,9128 3951,9128 Z"/>
 <path fill="rgb(255,211,32)" stroke="none" d="M 5843,8880 L 5968,9130 6093,8880 5843,8880 Z"/>
 <path fill="none" stroke="rgb(255,211,32)" stroke-linejoin="round" d="M 5843,8880 L 5968,9130 6093,8880 5843,8880 Z"/>
 <path fill="rgb(255,211,32)" stroke="none" d="M 7735,8622 L 7860,8872 7985,8622 7735,8622 Z"/>
 <path fill="none" stroke="rgb(255,211,32)" stroke-linejoin="round" d="M 7735,8622 L 7860,8872 7985,8622 7735,8622 Z"/>
 <path fill="rgb(255,211,32)" stroke="none" d="M 9628,8422 L 9753,8672 9878,8422 9628,8422 Z"/>
 <path fill="none" stroke="rgb(255,211,32)" stroke-linejoin="round" d="M 9628,8422 L 9753,8672 9878,8422 9628,8422 Z"/>
 <path fill="rgb(255,211,32)" stroke="none" d="M 11520,7928 L 11645,8178 11770,7928 11520,7928 Z"/>
 <path fill="none" stroke="rgb(255,211,32)" stroke-linejoin="round" d="M 11520,7928 L 11645,8178 11770,7928 11520,7928 Z"/>
 <path fill="rgb(255,211,32)" stroke="none" d="M 13412,7361 L 13537,7610 13662,7361 13412,7361 Z"/>
 <path fill="none" stroke="rgb(255,211,32)" stroke-linejoin="round" d="M 13412,7361 L 13537,7610 13662,7361 13412,7361 Z"/>
 <path fill="rgb(255,211,32)" stroke="none" d="M 15304,7054 L 15429,7304 15554,7054 15304,7054 Z"/>
 <path fill="none" stroke="rgb(255,211,32)" stroke-linejoin="round" d="M 15304,7054 L 15429,7304 15554,7054 15304,7054 Z"/>
 <path fill="rgb(255,211,32)" stroke="none" d="M 17196,6870 L 17321,7120 17446,6870 17196,6870 Z"/>
 <path fill="none" stroke="rgb(255,211,32)" stroke-linejoin="round" d="M 17196,6870 L 17321,7120 17446,6870 17196,6870 Z"/>
 <path fill="rgb(255,211,32)" stroke="none" d="M 19089,6837 L 19214,7087 19339,6837 19089,6837 Z"/>
 <path fill="none" stroke="rgb(255,211,32)" stroke-linejoin="round" d="M 19089,6837 L 19214,7087 19339,6837 19089,6837 Z"/>
 <path fill="rgb(255,211,32)" stroke="none" d="M 20981,6554 L 21106,6804 21231,6554 20981,6554 Z"/>
 <path fill="none" stroke="rgb(255,211,32)" stroke-linejoin="round" d="M 20981,6554 L 21106,6804 21231,6554 20981,6554 Z"/>
 <path fill="rgb(255,211,32)" stroke="none" d="M 22873,6693 L 22998,6943 23123,6693 22873,6693 Z"/>
 <path fill="none" stroke="rgb(255,211,32)" stroke-linejoin="round" d="M 22873,6693 L 22998,6943 23123,6693 22873,6693 Z"/>
 <path fill="rgb(255,211,32)" stroke="none" d="M 24766,6294 L 24891,6544 25016,6294 24766,6294 Z"/>
 <path fill="none" stroke="rgb(255,211,32)" stroke-linejoin="round" d="M 24766,6294 L 24891,6544 25016,6294 24766,6294 Z"/>
 <path fill="rgb(255,211,32)" stroke="none" d="M 26658,6278 L 26783,6528 26908,6278 26658,6278 Z"/>
 <path fill="none" stroke="rgb(255,211,32)" stroke-linejoin="round" d="M 26658,6278 L 26783,6528 26908,6278 26658,6278 Z"/>
 <path fill="rgb(255,211,32)" stroke="none" d="M 28551,6185 L 28676,6435 28801,6185 28551,6185 Z"/>
 <path fill="none" stroke="rgb(255,211,32)" stroke-linejoin="round" d="M 28551,6185 L 28676,6435 28801,6185 28551,6185 Z"/>
 <path fill="none" stroke="rgb(126,0,33)" stroke-width="50" stroke-linejoin="round" d="M 4076,9406 L 5968,9436 7860,9423 9753,9332 11645,9259 13537,9204 15429,9165 17321,9171 19214,9104 21106,9006 22998,8941 24891,8807 26783,8800 28676,8860"/>
 <path fill="rgb(126,0,33)" stroke="none" d="M 3951,9281 L 3951,9531 4201,9406 3951,9281 Z"/>
 <path fill="none" stroke="rgb(126,0,33)" stroke-linejoin="round" d="M 3951,9281 L 3951,9531 4201,9406 3951,9281 Z"/>
 <path fill="rgb(126,0,33)" stroke="none" d="M 5843,9311 L 5843,9561 6093,9436 5843,9311 Z"/>
 <path fill="none" stroke="rgb(126,0,33)" stroke-linejoin="round" d="M 5843,9311 L 5843,9561 6093,9436 5843,9311 Z"/>
 <path fill="rgb(126,0,33)" stroke="none" d="M 7735,9298 L 7735,9548 7985,9423 7735,9298 Z"/>
 <path fill="none" stroke="rgb(126,0,33)" stroke-linejoin="round" d="M 7735,9298 L 7735,9548 7985,9423 7735,9298 Z"/>
 <path fill="rgb(126,0,33)" stroke="none" d="M 9628,9207 L 9628,9457 9878,9332 9628,9207 Z"/>
 <path fill="none" stroke="rgb(126,0,33)" stroke-linejoin="round" d="M 9628,9207 L 9628,9457 9878,9332 9628,9207 Z"/>
 <path fill="rgb(126,0,33)" stroke="none" d="M 11520,9134 L 11520,9384 11770,9259 11520,9134 Z"/>
 <path fill="none" stroke="rgb(126,0,33)" stroke-linejoin="round" d="M 11520,9134 L 11520,9384 11770,9259 11520,9134 Z"/>
 <path fill="rgb(126,0,33)" stroke="none" d="M 13412,9079 L 13412,9329 13662,9204 13412,9079 Z"/>
 <path fill="none" stroke="rgb(126,0,33)" stroke-linejoin="round" d="M 13412,9079 L 13412,9329 13662,9204 13412,9079 Z"/>
 <path fill="rgb(126,0,33)" stroke="none" d="M 15304,9040 L 15304,9290 15554,9165 15304,9040 Z"/>
 <path fill="none" stroke="rgb(126,0,33)" stroke-linejoin="round" d="M 15304,9040 L 15304,9290 15554,9165 15304,9040 Z"/>
 <path fill="rgb(126,0,33)" stroke="none" d="M 17196,9046 L 17196,9296 17446,9171 17196,9046 Z"/>
 <path fill="none" stroke="rgb(126,0,33)" stroke-linejoin="round" d="M 17196,9046 L 17196,9296 17446,9171 17196,9046 Z"/>
 <path fill="rgb(126,0,33)" stroke="none" d="M 19089,8979 L 19089,9229 19339,9104 19089,8979 Z"/>
 <path fill="none" stroke="rgb(126,0,33)" stroke-linejoin="round" d="M 19089,8979 L 19089,9229 19339,9104 19089,8979 Z"/>
 <path fill="rgb(126,0,33)" stroke="none" d="M 20981,8881 L 20981,9131 21231,9006 20981,8881 Z"/>
 <path fill="none" stroke="rgb(126,0,33)" stroke-linejoin="round" d="M 20981,8881 L 20981,9131 21231,9006 20981,8881 Z"/>
 <path fill="rgb(126,0,33)" stroke="none" d="M 22873,8816 L 22873,9066 23123,8941 22873,8816 Z"/>
 <path fill="none" stroke="rgb(126,0,33)" stroke-linejoin="round" d="M 22873,8816 L 22873,9066 23123,8941 22873,8816 Z"/>
 <path fill="rgb(126,0,33)" stroke="none" d="M 24766,8682 L 24766,8932 25016,8807 24766,8682 Z"/>
 <path fill="none" stroke="rgb(126,0,33)" stroke-linejoin="round" d="M 24766,8682 L 24766,8932 25016,8807 24766,8682 Z"/>
 <path fill="rgb(126,0,33)" stroke="none" d="M 26658,8675 L 26658,8925 26908,8800 26658,8675 Z"/>
 <path fill="none" stroke="rgb(126,0,33)" stroke-linejoin="round" d="M 26658,8675 L 26658,8925 26908,8800 26658,8675 Z"/>
 <path fill="rgb(126,0,33)" stroke="none" d="M 28551,8735 L 28551,8985 28801,8860 28551,8735 Z"/>
 <path fill="none" stroke="rgb(126,0,33)" stroke-linejoin="round" d="M 28551,8735 L 28551,8985 28801,8860 28551,8735 Z"/>
 <path fill="none" stroke="rgb(49,64,4)" stroke-width="50" stroke-linejoin="round" stroke-linecap="round" stroke-dasharray="151,200" d="M 4076,7979 L 15429,3368 26783,1162 28676,1156"/>
 <path fill="rgb(49,64,4)" stroke="none" d="M 4066,7854 L 4066,7962 3960,7901 3951,7918 4056,7979 3951,8039 3960,8056 4066,7995 4066,8104 4085,8104 4085,7995 4191,8056 4201,8039 4095,7979 4201,7918 4191,7901 4085,7962 4085,7854 4066,7854 Z"/>
 <path fill="none" stroke="rgb(49,64,4)" stroke-linejoin="round" d="M 4066,7854 L 4066,7962 3960,7901 3951,7918 4056,7979 3951,8039 3960,8056 4066,7995 4066,8104 4085,8104 4085,7995 4191,8056 4201,8039 4095,7979 4201,7918 4191,7901 4085,7962 4085,7854 4066,7854 Z"/>
 <path fill="rgb(49,64,4)" stroke="none" d="M 15419,3243 L 15419,3351 15314,3290 15304,3307 15409,3368 15304,3429 15314,3446 15419,3385 15419,3493 15439,3493 15439,3385 15544,3446 15554,3429 15448,3368 15554,3307 15544,3290 15439,3351 15439,3243 15419,3243 Z"/>
 <path fill="none" stroke="rgb(49,64,4)" stroke-linejoin="round" d="M 15419,3243 L 15419,3351 15314,3290 15304,3307 15409,3368 15304,3429 15314,3446 15419,3385 15419,3493 15439,3493 15439,3385 15544,3446 15554,3429 15448,3368 15554,3307 15544,3290 15439,3351 15439,3243 15419,3243 Z"/>
 <path fill="rgb(49,64,4)" stroke="none" d="M 26773,1037 L 26773,1145 26668,1084 26658,1101 26764,1162 26658,1223 26668,1239 26773,1179 26773,1287 26793,1287 26793,1179 26898,1239 26908,1223 26803,1162 26908,1101 26898,1084 26793,1145 26793,1037 26773,1037 Z"/>
 <path fill="none" stroke="rgb(49,64,4)" stroke-linejoin="round" d="M 26773,1037 L 26773,1145 26668,1084 26658,1101 26764,1162 26658,1223 26668,1239 26773,1179 26773,1287 26793,1287 26793,1179 26898,1239 26908,1223 26803,1162 26908,1101 26898,1084 26793,1145 26793,1037 26773,1037 Z"/>
 <path fill="rgb(49,64,4)" stroke="none" d="M 28666,1031 L 28666,1140 28560,1079 28551,1096 28656,1156 28551,1217 28560,1234 28666,1173 28666,1281 28685,1281 28685,1173 28791,1234 28801,1217 28695,1156 28801,1096 28791,1079 28685,1140 28685,1031 28666,1031 Z"/>
 <path fill="none" stroke="rgb(49,64,4)" stroke-linejoin="round" d="M 28666,1031 L 28666,1140 28560,1079 28551,1096 28656,1156 28551,1217 28560,1234 28666,1173 28666,1281 28685,1281 28685,1173 28791,1234 28801,1217 28695,1156 28801,1096 28791,1079 28685,1140 28685,1031 28666,1031 Z"/>
 <text class="SVGTextShape" transform="rotate(-44.9 3419 11862)"><tspan class="TextParagraph" font-family="Latin Modern Roman" font-size="564px" font-weight="400"><tspan class="TextPosition" x="3419" y="11862"><tspan fill="rgb(0,0,0)" stroke="none">1950</tspan></tspan></tspan></text>
 <text class="SVGTextShape" transform="rotate(-44.9 5311 11862)"><tspan class="TextParagraph" font-family="Latin Modern Roman" font-size="564px" font-weight="400"><tspan class="TextPosition" x="5311" y="11862"><tspan fill="rgb(0,0,0)" stroke="none">1955</tspan></tspan></tspan></text>
 <text class="SVGTextShape" transform="rotate(-44.9 7203 11862)"><tspan class="TextParagraph" font-family="Latin Modern Roman" font-size="564px" font-weight="400"><tspan class="TextPosition" x="7203" y="11862"><tspan fill="rgb(0,0,0)" stroke="none">1960</tspan></tspan></tspan></text>
 <text class="SVGTextShape" transform="rotate(-44.9 9096 11862)"><tspan class="TextParagraph" font-family="Latin Modern Roman" font-size="564px" font-weight="400"><tspan class="TextPosition" x="9096" y="11862"><tspan fill="rgb(0,0,0)" stroke="none">1965</tspan></tspan></tspan></text>
 <text class="SVGTextShape" transform="rotate(-44.9 10988 11862)"><tspan class="TextParagraph" font-family="Latin Modern Roman" font-size="564px" font-weight="400"><tspan class="TextPosition" x="10988" y="11862"><tspan fill="rgb(0,0,0)" stroke="none">1970</tspan></tspan></tspan></text>
 <text class="SVGTextShape" transform="rotate(-44.9 12880 11862)"><tspan class="TextParagraph" font-family="Latin Modern Roman" font-size="564px" font-weight="400"><tspan class="TextPosition" x="12880" y="11862"><tspan fill="rgb(0,0,0)" stroke="none">1975</tspan></tspan></tspan></text>
 <text class="SVGTextShape" transform="rotate(-44.9 14773 11862)"><tspan class="TextParagraph" font-family="Latin Modern Roman" font-size="564px" font-weight="400"><tspan class="TextPosition" x="14773" y="11862"><tspan fill="rgb(0,0,0)" stroke="none">1980</tspan></tspan></tspan></text>
 <text class="SVGTextShape" transform="rotate(-44.9 16665 11862)"><tspan class="TextParagraph" font-family="Latin Modern Roman" font-size="564px" font-weight="400"><tspan class="TextPosition" x="16665" y="11862"><tspan fill="rgb(0,0,0)" stroke="none">1985</tspan></tspan></tspan></text>
 <text class="SVGTextShape" transform="rotate(-44.9 18558 11862)"><tspan class="TextParagraph" font-family="Latin Modern Roman" font-size="564px" font-weight="400"><tspan class="TextPosition" x="18558" y="11862"><tspan fill="rgb(0,0,0)" stroke="none">1990</tspan></tspan></tspan></text>
 <text class="SVGTextShape" transform="rotate(-44.9 20450 11862)"><tspan class="TextParagraph" font-family="Latin Modern Roman" font-size="564px" font-weight="400"><tspan class="TextPosition" x="20450" y="11862"><tspan fill="rgb(0,0,0)" stroke="none">1995</tspan></tspan></tspan></text>
 <text class="SVGTextShape" transform="rotate(-44.9 22342 11862)"><tspan class="TextParagraph" font-family="Latin Modern Roman" font-size="564px" font-weight="400"><tspan class="TextPosition" x="22342" y="11862"><tspan fill="rgb(0,0,0)" stroke="none">2000</tspan></tspan></tspan></text>
 <text class="SVGTextShape" transform="rotate(-44.9 24235 11862)"><tspan class="TextParagraph" font-family="Latin Modern Roman" font-size="564px" font-weight="400"><tspan class="TextPosition" x="24235" y="11862"><tspan fill="rgb(0,0,0)" stroke="none">2005</tspan></tspan></tspan></text>
 <text class="SVGTextShape" transform="rotate(-44.9 26126 11862)"><tspan class="TextParagraph" font-family="Latin Modern Roman" font-size="564px" font-weight="400"><tspan class="TextPosition" x="26126" y="11862"><tspan fill="rgb(0,0,0)" stroke="none">2010</tspan></tspan></tspan></text>
 <text class="SVGTextShape" transform="rotate(-44.9 28019 11862)"><tspan class="TextParagraph" font-family="Latin Modern Roman" font-size="564px" font-weight="400"><tspan class="TextPosition" x="28019" y="11862"><tspan fill="rgb(0,0,0)" stroke="none">2015</tspan></tspan></tspan></text>
 <text class="SVGTextShape"><tspan class="TextParagraph" font-family="Latin Modern Math" font-size="564px" font-weight="400"><tspan class="TextPosition" x="1260" y="10512"><tspan fill="rgb(0,0,0)" stroke="none">0 ha/VTE</tspan></tspan></tspan></text>
 <text class="SVGTextShape"><tspan class="TextParagraph" font-family="Latin Modern Math" font-size="564px" font-weight="400"><tspan class="TextPosition" x="1260" y="9301"><tspan fill="rgb(0,0,0)" stroke="none">5 ha/VTE</tspan></tspan></tspan></text>
 <text class="SVGTextShape"><tspan class="TextParagraph" font-family="Latin Modern Math" font-size="564px" font-weight="400"><tspan class="TextPosition" x="968" y="8091"><tspan fill="rgb(0,0,0)" stroke="none">10 ha/VTE</tspan></tspan></tspan></text>
 <text class="SVGTextShape"><tspan class="TextParagraph" font-family="Latin Modern Math" font-size="564px" font-weight="400"><tspan class="TextPosition" x="968" y="6881"><tspan fill="rgb(0,0,0)" stroke="none">15 ha/VTE</tspan></tspan></tspan></text>
 <text class="SVGTextShape"><tspan class="TextParagraph" font-family="Latin Modern Math" font-size="564px" font-weight="400"><tspan class="TextPosition" x="968" y="5671"><tspan fill="rgb(0,0,0)" stroke="none">20 ha/VTE</tspan></tspan></tspan></text>
 <text class="SVGTextShape"><tspan class="TextParagraph" font-family="Latin Modern Math" font-size="564px" font-weight="400"><tspan class="TextPosition" x="968" y="4461"><tspan fill="rgb(0,0,0)" stroke="none">25 ha/VTE</tspan></tspan></tspan></text>
 <text class="SVGTextShape"><tspan class="TextParagraph" font-family="Latin Modern Math" font-size="564px" font-weight="400"><tspan class="TextPosition" x="968" y="3251"><tspan fill="rgb(0,0,0)" stroke="none">30 ha/VTE</tspan></tspan></tspan></text>
 <text class="SVGTextShape"><tspan class="TextParagraph" font-family="Latin Modern Math" font-size="564px" font-weight="400"><tspan class="TextPosition" x="968" y="2041"><tspan fill="rgb(0,0,0)" stroke="none">35 ha/VTE</tspan></tspan></tspan></text>
 <text class="SVGTextShape"><tspan class="TextParagraph" font-family="Latin Modern Math" font-size="564px" font-weight="400"><tspan class="TextPosition" x="968" y="831"><tspan fill="rgb(0,0,0)" stroke="none">40 ha/VTE</tspan></tspan></tspan></text>
 <path fill="none" stroke="rgb(0,69,134)" stroke-width="50" stroke-linejoin="round" d="M 797,12806 L 2397,12806"/>
 <path fill="rgb(0,69,134)" stroke="none" d="M 1428,12637 L 1428,12975 1766,12975 1766,12637 1428,12637 Z"/>
 <path fill="none" stroke="rgb(0,69,134)" stroke-linejoin="round" d="M 1428,12637 L 1428,12975 1766,12975 1766,12637 1428,12637 Z"/>
 <path fill="none" stroke="rgb(255,211,32)" stroke-width="50" stroke-linejoin="round" d="M 13481,12806 L 15080,12806"/>
 <path fill="rgb(255,211,32)" stroke="none" d="M 14112,12637 L 14281,12975 14450,12637 14112,12637 Z"/>
 <path fill="none" stroke="rgb(255,211,32)" stroke-linejoin="round" d="M 14112,12637 L 14281,12975 14450,12637 14112,12637 Z"/>
 <path fill="none" stroke="rgb(126,0,33)" stroke-width="50" stroke-linejoin="round" d="M 797,13969 L 2397,13969"/>
 <path fill="rgb(126,0,33)" stroke="none" d="M 1428,13800 L 1428,14138 1766,13969 1428,13800 Z"/>
 <path fill="none" stroke="rgb(126,0,33)" stroke-linejoin="round" d="M 1428,13800 L 1428,14138 1766,13969 1428,13800 Z"/>
 <path fill="none" stroke="rgb(49,64,4)" stroke-width="50" stroke-linejoin="round" stroke-linecap="round" stroke-dasharray="151,200" d="M 13481,13969 L 15080,13969"/>
 <path fill="rgb(49,64,4)" stroke="none" d="M 14267,13800 L 14267,13946 14125,13863 14112,13886 14254,13969 14112,14051 14125,14074 14267,13991 14267,14138 14294,14138 14294,13991 14436,14074 14450,14051 14307,13969 14450,13886 14436,13863 14294,13946 14294,13800 14267,13800 Z"/>
 <path fill="none" stroke="rgb(49,64,4)" stroke-linejoin="round" d="M 14267,13800 L 14267,13946 14125,13863 14112,13886 14254,13969 14112,14051 14125,14074 14267,13991 14267,14138 14294,14138 14294,13991 14436,14074 14450,14051 14307,13969 14450,13886 14436,13863 14294,13946 14294,13800 14267,13800 Z"/>
 <text class="SVGTextShape"><tspan class="TextParagraph" font-family="Latin Modern Roman Caps" font-size="564px" font-weight="400"><tspan class="TextPosition" x="2521" y="13031"><tspan fill="rgb(0,0,0)" stroke="none">direct landgebruik/directe arbeid</tspan></tspan></tspan></text>
 <text class="SVGTextShape"><tspan class="TextParagraph" font-family="Latin Modern Roman Caps" font-size="564px" font-weight="400"><tspan class="TextPosition" x="15204" y="13031"><tspan fill="rgb(0,0,0)" stroke="none">totaal landgebruik/totale arbeid</tspan></tspan></tspan></text>
 <text class="SVGTextShape"><tspan class="TextParagraph" font-family="Latin Modern Roman Caps" font-size="564px" font-weight="400"><tspan class="TextPosition" x="2521" y="14194"><tspan fill="rgb(0,0,0)" stroke="none">direct landgebruik/totale arbeid</tspan></tspan></tspan></text>
 <text class="SVGTextShape"><tspan class="TextParagraph" font-family="Latin Modern Roman Caps" font-size="564px" font-weight="400"><tspan class="TextPosition" x="15204" y="14194"><tspan fill="rgb(0,0,0)" stroke="none">indirect landgebruik/indirecte arbeid (veevoer)</tspan></tspan></tspan></text>
</svg>