<?xml version="1.0" encoding="UTF-8"?>
<!DOCTYPE svg PUBLIC "-//W3C//DTD SVG 1.1//EN" "http://www.w3.org/Graphics/SVG/1.1/DTD/svg11.dtd">
<svg width="80mm" height="40mm" viewBox="0 0 8000 4000" version="1.1" xmlns="http://www.w3.org/2000/svg" xmlns:xlink="http://www.w3.org/1999/xlink" stroke-width="28.222" stroke-linejoin="round" xml:space="preserve">
 <path fill="rgb(255,255,255)" stroke="none" d="M 4000,4000 L 0,4000 0,0 8000,0 8000,4000 4000,4000 Z"/>
 <path fill="none" stroke="rgb(0,0,0)" stroke-linejoin="round" d="M 4000,4000 L 0,4000 0,0 8000,0 8000,4000 4000,4000 Z"/>
 <defs>
  <linearGradient id="Gradient_8" gradientUnits="userSpaceOnUse" x1="4345" y1="251" x2="4345" y2="3026">
   <stop offset="0.3" stop-color="rgb(204,0,0)"/>
   <stop offset="1" stop-color="rgb(0,153,0)"/>
  </linearGradient>
 </defs>
 <path fill="url(#Gradient_8)" stroke="rgb(179,179,179)" stroke-linejoin="round" d="M 4345,3026 L 957,3026 957,251 7733,251 7733,3026 4345,3026 Z"/>
 <path fill="none" stroke="rgb(179,179,179)" stroke-linejoin="round" d="M 7732,3025 L 956,3025"/>
 <path fill="none" stroke="rgb(179,179,179)" stroke-linejoin="round" d="M 7732,2628 L 956,2628"/>
 <path fill="none" stroke="rgb(179,179,179)" stroke-linejoin="round" d="M 7732,2231 L 956,2231"/>
 <path fill="none" stroke="rgb(179,179,179)" stroke-linejoin="round" d="M 7732,1836 L 956,1836"/>
 <path fill="none" stroke="rgb(179,179,179)" stroke-linejoin="round" d="M 7732,1439 L 956,1439"/>
 <path fill="none" stroke="rgb(179,179,179)" stroke-linejoin="round" d="M 7732,1043 L 956,1043"/>
 <path fill="none" stroke="rgb(179,179,179)" stroke-linejoin="round" d="M 7732,646 L 956,646"/>
 <path fill="none" stroke="rgb(179,179,179)" stroke-linejoin="round" d="M 7732,249 L 956,249"/>
 <path fill="none" stroke="rgb(179,179,179)" stroke-linejoin="round" d="M 956,3175 L 956,3025"/>
 <path fill="none" stroke="rgb(179,179,179)" stroke-linejoin="round" d="M 956,3175 L 956,3025"/>
 <path fill="none" stroke="rgb(179,179,179)" stroke-linejoin="round" d="M 1999,3175 L 1999,3025"/>
 <path fill="none" stroke="rgb(179,179,179)" stroke-linejoin="round" d="M 1999,3175 L 1999,3025"/>
 <path fill="none" stroke="rgb(179,179,179)" stroke-linejoin="round" d="M 3042,3175 L 3042,3025"/>
 <path fill="none" stroke="rgb(179,179,179)" stroke-linejoin="round" d="M 3042,3175 L 3042,3025"/>
 <path fill="none" stroke="rgb(179,179,179)" stroke-linejoin="round" d="M 4083,3175 L 4083,3025"/>
 <path fill="none" stroke="rgb(179,179,179)" stroke-linejoin="round" d="M 4083,3175 L 4083,3025"/>
 <path fill="none" stroke="rgb(179,179,179)" stroke-linejoin="round" d="M 5126,3175 L 5126,3025"/>
 <path fill="none" stroke="rgb(179,179,179)" stroke-linejoin="round" d="M 5126,3175 L 5126,3025"/>
 <path fill="none" stroke="rgb(179,179,179)" stroke-linejoin="round" d="M 6169,3175 L 6169,3025"/>
 <path fill="none" stroke="rgb(179,179,179)" stroke-linejoin="round" d="M 6169,3175 L 6169,3025"/>
 <path fill="none" stroke="rgb(179,179,179)" stroke-linejoin="round" d="M 7211,3175 L 7211,3025"/>
 <path fill="none" stroke="rgb(179,179,179)" stroke-linejoin="round" d="M 7211,3175 L 7211,3025"/>
 <path fill="none" stroke="rgb(179,179,179)" stroke-linejoin="round" d="M 1478,3137 L 1478,3025"/>
 <path fill="none" stroke="rgb(179,179,179)" stroke-linejoin="round" d="M 1478,3137 L 1478,3025"/>
 <path fill="none" stroke="rgb(179,179,179)" stroke-linejoin="round" d="M 2520,3137 L 2520,3025"/>
 <path fill="none" stroke="rgb(179,179,179)" stroke-linejoin="round" d="M 2520,3137 L 2520,3025"/>
 <path fill="none" stroke="rgb(179,179,179)" stroke-linejoin="round" d="M 3563,3137 L 3563,3025"/>
 <path fill="none" stroke="rgb(179,179,179)" stroke-linejoin="round" d="M 3563,3137 L 3563,3025"/>
 <path fill="none" stroke="rgb(179,179,179)" stroke-linejoin="round" d="M 4605,3137 L 4605,3025"/>
 <path fill="none" stroke="rgb(179,179,179)" stroke-linejoin="round" d="M 4605,3137 L 4605,3025"/>
 <path fill="none" stroke="rgb(179,179,179)" stroke-linejoin="round" d="M 5647,3137 L 5647,3025"/>
 <path fill="none" stroke="rgb(179,179,179)" stroke-linejoin="round" d="M 5647,3137 L 5647,3025"/>
 <path fill="none" stroke="rgb(179,179,179)" stroke-linejoin="round" d="M 6690,3137 L 6690,3025"/>
 <path fill="none" stroke="rgb(179,179,179)" stroke-linejoin="round" d="M 6690,3137 L 6690,3025"/>
 <path fill="none" stroke="rgb(179,179,179)" stroke-linejoin="round" d="M 7732,3137 L 7732,3025"/>
 <path fill="none" stroke="rgb(179,179,179)" stroke-linejoin="round" d="M 7732,3137 L 7732,3025"/>
 <path fill="none" stroke="rgb(179,179,179)" stroke-linejoin="round" d="M 956,3025 L 7732,3025"/>
 <path fill="none" stroke="rgb(179,179,179)" stroke-linejoin="round" d="M 806,3025 L 956,3025"/>
 <path fill="none" stroke="rgb(179,179,179)" stroke-linejoin="round" d="M 806,3025 L 956,3025"/>
 <path fill="none" stroke="rgb(179,179,179)" stroke-linejoin="round" d="M 806,2628 L 956,2628"/>
 <path fill="none" stroke="rgb(179,179,179)" stroke-linejoin="round" d="M 806,2628 L 956,2628"/>
 <path fill="none" stroke="rgb(179,179,179)" stroke-linejoin="round" d="M 806,2231 L 956,2231"/>
 <path fill="none" stroke="rgb(179,179,179)" stroke-linejoin="round" d="M 806,2231 L 956,2231"/>
 <path fill="none" stroke="rgb(179,179,179)" stroke-linejoin="round" d="M 806,1836 L 956,1836"/>
 <path fill="none" stroke="rgb(179,179,179)" stroke-linejoin="round" d="M 806,1836 L 956,1836"/>
 <path fill="none" stroke="rgb(179,179,179)" stroke-linejoin="round" d="M 806,1439 L 956,1439"/>
 <path fill="none" stroke="rgb(179,179,179)" stroke-linejoin="round" d="M 806,1439 L 956,1439"/>
 <path fill="none" stroke="rgb(179,179,179)" stroke-linejoin="round" d="M 806,1043 L 956,1043"/>
 <path fill="none" stroke="rgb(179,179,179)" stroke-linejoin="round" d="M 806,1043 L 956,1043"/>
 <path fill="none" stroke="rgb(179,179,179)" stroke-linejoin="round" d="M 806,646 L 956,646"/>
 <path fill="none" stroke="rgb(179,179,179)" stroke-linejoin="round" d="M 806,646 L 956,646"/>
 <path fill="none" stroke="rgb(179,179,179)" stroke-linejoin="round" d="M 806,249 L 956,249"/>
 <path fill="none" stroke="rgb(179,179,179)" stroke-linejoin="round" d="M 806,249 L 956,249"/>
 <path fill="none" stroke="rgb(179,179,179)" stroke-linejoin="round" d="M 956,3025 L 956,249"/>
 <path fill="none" stroke="rgb(255,211,32)" stroke-width="50" stroke-linejoin="round" d="M 956,2642 L 1478,2433 1999,2304 2520,1837 3042,1487 3563,1500 4083,1636 4605,1480 5126,1394 5647,1247 6169,1492 6690,1201 7211,1092 7732,635"/>
 <path fill="rgb(255,211,32)" stroke="none" d="M 831,2517 L 956,2767 1081,2517 831,2517 Z"/>
 <path fill="none" stroke="rgb(255,211,32)" stroke-linejoin="round" d="M 831,2517 L 956,2767 1081,2517 831,2517 Z"/>
 <path fill="rgb(255,211,32)" stroke="none" d="M 1353,2308 L 1478,2558 1603,2308 1353,2308 Z"/>
 <path fill="none" stroke="rgb(255,211,32)" stroke-linejoin="round" d="M 1353,2308 L 1478,2558 1603,2308 1353,2308 Z"/>
 <path fill="rgb(255,211,32)" stroke="none" d="M 1874,2179 L 1999,2429 2124,2179 1874,2179 Z"/>
 <path fill="none" stroke="rgb(255,211,32)" stroke-linejoin="round" d="M 1874,2179 L 1999,2429 2124,2179 1874,2179 Z"/>
 <path fill="rgb(255,211,32)" stroke="none" d="M 2395,1712 L 2520,1962 2645,1712 2395,1712 Z"/>
 <path fill="none" stroke="rgb(255,211,32)" stroke-linejoin="round" d="M 2395,1712 L 2520,1962 2645,1712 2395,1712 Z"/>
 <path fill="rgb(255,211,32)" stroke="none" d="M 2917,1362 L 3042,1612 3167,1362 2917,1362 Z"/>
 <path fill="none" stroke="rgb(255,211,32)" stroke-linejoin="round" d="M 2917,1362 L 3042,1612 3167,1362 2917,1362 Z"/>
 <path fill="rgb(255,211,32)" stroke="none" d="M 3438,1375 L 3563,1625 3688,1375 3438,1375 Z"/>
 <path fill="none" stroke="rgb(255,211,32)" stroke-linejoin="round" d="M 3438,1375 L 3563,1625 3688,1375 3438,1375 Z"/>
 <path fill="rgb(255,211,32)" stroke="none" d="M 3959,1511 L 4083,1761 4208,1511 3959,1511 Z"/>
 <path fill="none" stroke="rgb(255,211,32)" stroke-linejoin="round" d="M 3959,1511 L 4083,1761 4208,1511 3959,1511 Z"/>
 <path fill="rgb(255,211,32)" stroke="none" d="M 4480,1355 L 4605,1605 4730,1355 4480,1355 Z"/>
 <path fill="none" stroke="rgb(255,211,32)" stroke-linejoin="round" d="M 4480,1355 L 4605,1605 4730,1355 4480,1355 Z"/>
 <path fill="rgb(255,211,32)" stroke="none" d="M 5001,1269 L 5126,1519 5251,1269 5001,1269 Z"/>
 <path fill="none" stroke="rgb(255,211,32)" stroke-linejoin="round" d="M 5001,1269 L 5126,1519 5251,1269 5001,1269 Z"/>
 <path fill="rgb(255,211,32)" stroke="none" d="M 5522,1122 L 5647,1372 5772,1122 5522,1122 Z"/>
 <path fill="none" stroke="rgb(255,211,32)" stroke-linejoin="round" d="M 5522,1122 L 5647,1372 5772,1122 5522,1122 Z"/>
 <path fill="rgb(255,211,32)" stroke="none" d="M 6044,1367 L 6169,1617 6294,1367 6044,1367 Z"/>
 <path fill="none" stroke="rgb(255,211,32)" stroke-linejoin="round" d="M 6044,1367 L 6169,1617 6294,1367 6044,1367 Z"/>
 <path fill="rgb(255,211,32)" stroke="none" d="M 6565,1076 L 6690,1326 6815,1076 6565,1076 Z"/>
 <path fill="none" stroke="rgb(255,211,32)" stroke-linejoin="round" d="M 6565,1076 L 6690,1326 6815,1076 6565,1076 Z"/>
 <path fill="rgb(255,211,32)" stroke="none" d="M 7086,967 L 7211,1217 7336,967 7086,967 Z"/>
 <path fill="none" stroke="rgb(255,211,32)" stroke-linejoin="round" d="M 7086,967 L 7211,1217 7336,967 7086,967 Z"/>
 <path fill="rgb(255,211,32)" stroke="none" d="M 7607,510 L 7732,760 7857,510 7607,510 Z"/>
 <path fill="none" stroke="rgb(255,211,32)" stroke-linejoin="round" d="M 7607,510 L 7732,760 7857,510 7607,510 Z"/>
 <text class="SVGTextShape"><tspan class="TextParagraph" font-family="Latin Modern Roman" font-size="353px" font-weight="400"><tspan class="TextPosition" x="586" y="3672"><tspan fill="rgb(0,0,0)" stroke="none">1950</tspan></tspan></tspan></text>
 <text class="SVGTextShape"><tspan class="TextParagraph" font-family="Latin Modern Roman" font-size="353px" font-weight="400"><tspan class="TextPosition" x="1629" y="3672"><tspan fill="rgb(0,0,0)" stroke="none">1960</tspan></tspan></tspan></text>
 <text class="SVGTextShape"><tspan class="TextParagraph" font-family="Latin Modern Roman" font-size="353px" font-weight="400"><tspan class="TextPosition" x="2671" y="3672"><tspan fill="rgb(0,0,0)" stroke="none">1970</tspan></tspan></tspan></text>
 <text class="SVGTextShape"><tspan class="TextParagraph" font-family="Latin Modern Roman" font-size="353px" font-weight="400"><tspan class="TextPosition" x="3713" y="3672"><tspan fill="rgb(0,0,0)" stroke="none">1980</tspan></tspan></tspan></text>
 <text class="SVGTextShape"><tspan class="TextParagraph" font-family="Latin Modern Roman" font-size="353px" font-weight="400"><tspan class="TextPosition" x="4756" y="3672"><tspan fill="rgb(0,0,0)" stroke="none">1990</tspan></tspan></tspan></text>
 <text class="SVGTextShape"><tspan class="TextParagraph" font-family="Latin Modern Roman" font-size="353px" font-weight="400"><tspan class="TextPosition" x="5799" y="3672"><tspan fill="rgb(0,0,0)" stroke="none">2000</tspan></tspan></tspan></text>
 <text class="SVGTextShape"><tspan class="TextParagraph" font-family="Latin Modern Roman" font-size="353px" font-weight="400"><tspan class="TextPosition" x="6840" y="3672"><tspan fill="rgb(0,0,0)" stroke="none">2010</tspan></tspan></tspan></text>
 <text class="SVGTextShape"><tspan class="TextParagraph" font-family="Latin Modern Roman" font-size="353px" font-weight="400"><tspan class="TextPosition" x="521" y="3171"><tspan fill="rgb(0,0,0)" stroke="none">0</tspan></tspan></tspan></text>
 <text class="SVGTextShape"><tspan class="TextParagraph" font-family="Latin Modern Roman" font-size="353px" font-weight="400"><tspan class="TextPosition" x="521" y="2378"><tspan fill="rgb(0,0,0)" stroke="none">2</tspan></tspan></tspan></text>
 <text class="SVGTextShape"><tspan class="TextParagraph" font-family="Latin Modern Roman" font-size="353px" font-weight="400"><tspan class="TextPosition" x="521" y="1585"><tspan fill="rgb(0,0,0)" stroke="none">4</tspan></tspan></tspan></text>
 <text class="SVGTextShape"><tspan class="TextParagraph" font-family="Latin Modern Roman" font-size="353px" font-weight="400"><tspan class="TextPosition" x="521" y="793"><tspan fill="rgb(0,0,0)" stroke="none">6</tspan></tspan></tspan></text>
</svg>