<?xml version="1.0" encoding="UTF-8"?>
<!DOCTYPE svg PUBLIC "-//W3C//DTD SVG 1.1//EN" "http://www.w3.org/Graphics/SVG/1.1/DTD/svg11.dtd">
<svg width="73mm" height="37mm" viewBox="0 0 7300 3700" version="1.1" xmlns="http://www.w3.org/2000/svg" xmlns:xlink="http://www.w3.org/1999/xlink" stroke-width="28.222" stroke-linejoin="round" xml:space="preserve">
 <path fill="rgb(255,255,255)" stroke="none" d="M 3667,3634 L 0,3634 0,0 7334,0 7334,3634 3667,3634 Z"/>
 <path fill="none" stroke="rgb(0,0,0)" stroke-linejoin="round" d="M 3667,3634 L 0,3634 0,0 7334,0 7334,3634 3667,3634 Z"/>
 <defs>
  <linearGradient id="Gradient_3" gradientUnits="userSpaceOnUse" x1="3848" y1="230" x2="3848" y2="2753">
   <stop offset="0.3" stop-color="rgb(204,0,0)"/>
   <stop offset="1" stop-color="rgb(0,153,0)"/>
  </linearGradient>
 </defs>
 <path fill="url(#Gradient_3)" stroke="rgb(179,179,179)" stroke-linejoin="round" d="M 3848,2753 L 604,2753 604,230 7092,230 7092,2753 3848,2753 Z"/>
 <path fill="none" stroke="rgb(179,179,179)" stroke-linejoin="round" d="M 7092,2752 L 604,2752"/>
 <path fill="none" stroke="rgb(179,179,179)" stroke-linejoin="round" d="M 7092,2031 L 604,2031"/>
 <path fill="none" stroke="rgb(179,179,179)" stroke-linejoin="round" d="M 7092,1309 L 604,1309"/>
 <path fill="none" stroke="rgb(179,179,179)" stroke-linejoin="round" d="M 7092,589 L 604,589"/>
 <path fill="none" stroke="rgb(179,179,179)" stroke-linejoin="round" d="M 604,2901 L 604,2752"/>
 <path fill="none" stroke="rgb(179,179,179)" stroke-linejoin="round" d="M 604,2901 L 604,2752"/>
 <path fill="none" stroke="rgb(179,179,179)" stroke-linejoin="round" d="M 1103,2901 L 1103,2752"/>
 <path fill="none" stroke="rgb(179,179,179)" stroke-linejoin="round" d="M 1103,2901 L 1103,2752"/>
 <path fill="none" stroke="rgb(179,179,179)" stroke-linejoin="round" d="M 1602,2901 L 1602,2752"/>
 <path fill="none" stroke="rgb(179,179,179)" stroke-linejoin="round" d="M 1602,2901 L 1602,2752"/>
 <path fill="none" stroke="rgb(179,179,179)" stroke-linejoin="round" d="M 2101,2901 L 2101,2752"/>
 <path fill="none" stroke="rgb(179,179,179)" stroke-linejoin="round" d="M 2101,2901 L 2101,2752"/>
 <path fill="none" stroke="rgb(179,179,179)" stroke-linejoin="round" d="M 2600,2901 L 2600,2752"/>
 <path fill="none" stroke="rgb(179,179,179)" stroke-linejoin="round" d="M 2600,2901 L 2600,2752"/>
 <path fill="none" stroke="rgb(179,179,179)" stroke-linejoin="round" d="M 3099,2901 L 3099,2752"/>
 <path fill="none" stroke="rgb(179,179,179)" stroke-linejoin="round" d="M 3099,2901 L 3099,2752"/>
 <path fill="none" stroke="rgb(179,179,179)" stroke-linejoin="round" d="M 3598,2901 L 3598,2752"/>
 <path fill="none" stroke="rgb(179,179,179)" stroke-linejoin="round" d="M 3598,2901 L 3598,2752"/>
 <path fill="none" stroke="rgb(179,179,179)" stroke-linejoin="round" d="M 4097,2901 L 4097,2752"/>
 <path fill="none" stroke="rgb(179,179,179)" stroke-linejoin="round" d="M 4097,2901 L 4097,2752"/>
 <path fill="none" stroke="rgb(179,179,179)" stroke-linejoin="round" d="M 4596,2901 L 4596,2752"/>
 <path fill="none" stroke="rgb(179,179,179)" stroke-linejoin="round" d="M 4596,2901 L 4596,2752"/>
 <path fill="none" stroke="rgb(179,179,179)" stroke-linejoin="round" d="M 5095,2901 L 5095,2752"/>
 <path fill="none" stroke="rgb(179,179,179)" stroke-linejoin="round" d="M 5095,2901 L 5095,2752"/>
 <path fill="none" stroke="rgb(179,179,179)" stroke-linejoin="round" d="M 5594,2901 L 5594,2752"/>
 <path fill="none" stroke="rgb(179,179,179)" stroke-linejoin="round" d="M 5594,2901 L 5594,2752"/>
 <path fill="none" stroke="rgb(179,179,179)" stroke-linejoin="round" d="M 6093,2901 L 6093,2752"/>
 <path fill="none" stroke="rgb(179,179,179)" stroke-linejoin="round" d="M 6093,2901 L 6093,2752"/>
 <path fill="none" stroke="rgb(179,179,179)" stroke-linejoin="round" d="M 6592,2901 L 6592,2752"/>
 <path fill="none" stroke="rgb(179,179,179)" stroke-linejoin="round" d="M 6592,2901 L 6592,2752"/>
 <path fill="none" stroke="rgb(179,179,179)" stroke-linejoin="round" d="M 7092,2901 L 7092,2752"/>
 <path fill="none" stroke="rgb(179,179,179)" stroke-linejoin="round" d="M 7092,2901 L 7092,2752"/>
 <path fill="none" stroke="rgb(179,179,179)" stroke-linejoin="round" d="M 604,2752 L 7092,2752"/>
 <path fill="none" stroke="rgb(179,179,179)" stroke-linejoin="round" d="M 454,2752 L 604,2752"/>
 <path fill="none" stroke="rgb(179,179,179)" stroke-linejoin="round" d="M 454,2752 L 604,2752"/>
 <path fill="none" stroke="rgb(179,179,179)" stroke-linejoin="round" d="M 454,2031 L 604,2031"/>
 <path fill="none" stroke="rgb(179,179,179)" stroke-linejoin="round" d="M 454,2031 L 604,2031"/>
 <path fill="none" stroke="rgb(179,179,179)" stroke-linejoin="round" d="M 454,1309 L 604,1309"/>
 <path fill="none" stroke="rgb(179,179,179)" stroke-linejoin="round" d="M 454,1309 L 604,1309"/>
 <path fill="none" stroke="rgb(179,179,179)" stroke-linejoin="round" d="M 454,589 L 604,589"/>
 <path fill="none" stroke="rgb(179,179,179)" stroke-linejoin="round" d="M 454,589 L 604,589"/>
 <path fill="none" stroke="rgb(179,179,179)" stroke-linejoin="round" d="M 604,2752 L 604,228"/>
 <path fill="none" stroke="rgb(255,211,32)" stroke-width="80" stroke-linejoin="round" d="M 604,2057 L 1103,2171 1602,2298 2101,2342 2600,2313 3099,2185 3598,2093 4097,1998 4596,1933 5095,1961 5594,1974 6093,1928 6592,1938 7092,1851"/>
 <path fill="rgb(255,211,32)" stroke="none" d="M 479,1933 L 604,2181 729,1933 479,1933 Z"/>
 <path fill="none" stroke="rgb(255,211,32)" stroke-linejoin="round" d="M 479,1933 L 604,2181 729,1933 479,1933 Z"/>
 <path fill="rgb(255,211,32)" stroke="none" d="M 978,2047 L 1103,2295 1228,2047 978,2047 Z"/>
 <path fill="none" stroke="rgb(255,211,32)" stroke-linejoin="round" d="M 978,2047 L 1103,2295 1228,2047 978,2047 Z"/>
 <path fill="rgb(255,211,32)" stroke="none" d="M 1477,2174 L 1602,2421 1727,2174 1477,2174 Z"/>
 <path fill="none" stroke="rgb(255,211,32)" stroke-linejoin="round" d="M 1477,2174 L 1602,2421 1727,2174 1477,2174 Z"/>
 <path fill="rgb(255,211,32)" stroke="none" d="M 1976,2218 L 2101,2466 2226,2218 1976,2218 Z"/>
 <path fill="none" stroke="rgb(255,211,32)" stroke-linejoin="round" d="M 1976,2218 L 2101,2466 2226,2218 1976,2218 Z"/>
 <path fill="rgb(255,211,32)" stroke="none" d="M 2475,2190 L 2600,2437 2725,2190 2475,2190 Z"/>
 <path fill="none" stroke="rgb(255,211,32)" stroke-linejoin="round" d="M 2475,2190 L 2600,2437 2725,2190 2475,2190 Z"/>
 <path fill="rgb(255,211,32)" stroke="none" d="M 2974,2061 L 3099,2309 3224,2061 2974,2061 Z"/>
 <path fill="none" stroke="rgb(255,211,32)" stroke-linejoin="round" d="M 2974,2061 L 3099,2309 3224,2061 2974,2061 Z"/>
 <path fill="rgb(255,211,32)" stroke="none" d="M 3473,1969 L 3598,2216 3722,1969 3473,1969 Z"/>
 <path fill="none" stroke="rgb(255,211,32)" stroke-linejoin="round" d="M 3473,1969 L 3598,2216 3722,1969 3473,1969 Z"/>
 <path fill="rgb(255,211,32)" stroke="none" d="M 3972,1874 L 4097,2121 4222,1874 3972,1874 Z"/>
 <path fill="none" stroke="rgb(255,211,32)" stroke-linejoin="round" d="M 3972,1874 L 4097,2121 4222,1874 3972,1874 Z"/>
 <path fill="rgb(255,211,32)" stroke="none" d="M 4471,1809 L 4596,2057 4721,1809 4471,1809 Z"/>
 <path fill="none" stroke="rgb(255,211,32)" stroke-linejoin="round" d="M 4471,1809 L 4596,2057 4721,1809 4471,1809 Z"/>
 <path fill="rgb(255,211,32)" stroke="none" d="M 4970,1837 L 5095,2085 5220,1837 4970,1837 Z"/>
 <path fill="none" stroke="rgb(255,211,32)" stroke-linejoin="round" d="M 4970,1837 L 5095,2085 5220,1837 4970,1837 Z"/>
 <path fill="rgb(255,211,32)" stroke="none" d="M 5469,1850 L 5594,2098 5719,1850 5469,1850 Z"/>
 <path fill="none" stroke="rgb(255,211,32)" stroke-linejoin="round" d="M 5469,1850 L 5594,2098 5719,1850 5469,1850 Z"/>
 <path fill="rgb(255,211,32)" stroke="none" d="M 5968,1805 L 6093,2052 6218,1805 5968,1805 Z"/>
 <path fill="none" stroke="rgb(255,211,32)" stroke-linejoin="round" d="M 5968,1805 L 6093,2052 6218,1805 5968,1805 Z"/>
 <path fill="rgb(255,211,32)" stroke="none" d="M 6467,1814 L 6592,2062 6717,1814 6467,1814 Z"/>
 <path fill="none" stroke="rgb(255,211,32)" stroke-linejoin="round" d="M 6467,1814 L 6592,2062 6717,1814 6467,1814 Z"/>
 <path fill="rgb(255,211,32)" stroke="none" d="M 6967,1727 L 7092,1975 7217,1727 6967,1727 Z"/>
 <path fill="none" stroke="rgb(255,211,32)" stroke-linejoin="round" d="M 6967,1727 L 7092,1975 7217,1727 6967,1727 Z"/>
 <text class="SVGTextShape"><tspan class="TextParagraph" font-family="Liberation Sans, sans-serif" font-size="279px" font-weight="400"><tspan class="TextPosition" x="195" y="2858"><tspan fill="rgb(0,0,0)" stroke="none">0</tspan></tspan></tspan></text>
 <text class="SVGTextShape"><tspan class="TextParagraph" font-family="Liberation Sans, sans-serif" font-size="279px" font-weight="400"><tspan class="TextPosition" x="195" y="2137"><tspan fill="rgb(0,0,0)" stroke="none">1</tspan></tspan></tspan></text>
 <text class="SVGTextShape"><tspan class="TextParagraph" font-family="Liberation Sans, sans-serif" font-size="279px" font-weight="400"><tspan class="TextPosition" x="195" y="1415"><tspan fill="rgb(0,0,0)" stroke="none">2</tspan></tspan></tspan></text>
 <text class="SVGTextShape"><tspan class="TextParagraph" font-family="Liberation Sans, sans-serif" font-size="279px" font-weight="400"><tspan class="TextPosition" x="195" y="694"><tspan fill="rgb(0,0,0)" stroke="none">3</tspan></tspan></tspan></text>
 <path fill="rgb(255,255,255)" fill-opacity="0.698" stroke="rgb(255,255,255)" stroke-opacity="0.698" d="M 1807,953 L 710,953 710,349 2904,349 2904,953 1807,953 Z"/>
 <text class="SVGTextShape"><tspan class="TextParagraph" font-family="Liberation Sans, sans-serif" font-size="350px" font-weight="400"><tspan class="TextPosition" x="775" y="769"><tspan fill="rgb(0,0,0)" stroke="none">indirect/direct</tspan></tspan></tspan></text>
</svg>