<?xml version="1.0" encoding="UTF-8"?>
<!DOCTYPE svg PUBLIC "-//W3C//DTD SVG 1.1//EN" "http://www.w3.org/Graphics/SVG/1.1/DTD/svg11.dtd">
<svg width="150mm" height="75mm" viewBox="0 0 15000 7500" version="1.1" xmlns="http://www.w3.org/2000/svg" xmlns:xlink="http://www.w3.org/1999/xlink" stroke-width="28.222" stroke-linejoin="round" xml:space="preserve">
 <path fill="rgb(255,255,255)" stroke="none" d="M 7500,7500 L 0,7500 0,0 15000,0 15000,7500 7500,7500 Z"/>
 <path fill="none" stroke="rgb(179,179,179)" stroke-linejoin="round" d="M 5933,6370 L 1265,6370 1265,296 10601,296 10601,6370 5933,6370 Z"/>
 <path fill="none" stroke="rgb(179,179,179)" stroke-linejoin="round" d="M 10601,6369 L 1265,6369"/>
 <path fill="none" stroke="rgb(179,179,179)" stroke-linejoin="round" d="M 10601,5694 L 1265,5694"/>
 <path fill="none" stroke="rgb(179,179,179)" stroke-linejoin="round" d="M 10601,5019 L 1265,5019"/>
 <path fill="none" stroke="rgb(179,179,179)" stroke-linejoin="round" d="M 10601,4344 L 1265,4344"/>
 <path fill="none" stroke="rgb(179,179,179)" stroke-linejoin="round" d="M 10601,3670 L 1265,3670"/>
 <path fill="none" stroke="rgb(179,179,179)" stroke-linejoin="round" d="M 10601,2995 L 1265,2995"/>
 <path fill="none" stroke="rgb(179,179,179)" stroke-linejoin="round" d="M 10601,2320 L 1265,2320"/>
 <path fill="none" stroke="rgb(179,179,179)" stroke-linejoin="round" d="M 10601,1645 L 1265,1645"/>
 <path fill="none" stroke="rgb(179,179,179)" stroke-linejoin="round" d="M 10601,970 L 1265,970"/>
 <path fill="none" stroke="rgb(179,179,179)" stroke-linejoin="round" d="M 10601,295 L 1265,295"/>
 <path fill="none" stroke="rgb(179,179,179)" stroke-linejoin="round" d="M 1265,6519 L 1265,6369"/>
 <path fill="none" stroke="rgb(179,179,179)" stroke-linejoin="round" d="M 1265,6519 L 1265,6369"/>
 <path fill="none" stroke="rgb(179,179,179)" stroke-linejoin="round" d="M 1983,6519 L 1983,6369"/>
 <path fill="none" stroke="rgb(179,179,179)" stroke-linejoin="round" d="M 1983,6519 L 1983,6369"/>
 <path fill="none" stroke="rgb(179,179,179)" stroke-linejoin="round" d="M 2701,6519 L 2701,6369"/>
 <path fill="none" stroke="rgb(179,179,179)" stroke-linejoin="round" d="M 2701,6519 L 2701,6369"/>
 <path fill="none" stroke="rgb(179,179,179)" stroke-linejoin="round" d="M 3419,6519 L 3419,6369"/>
 <path fill="none" stroke="rgb(179,179,179)" stroke-linejoin="round" d="M 3419,6519 L 3419,6369"/>
 <path fill="none" stroke="rgb(179,179,179)" stroke-linejoin="round" d="M 4137,6519 L 4137,6369"/>
 <path fill="none" stroke="rgb(179,179,179)" stroke-linejoin="round" d="M 4137,6519 L 4137,6369"/>
 <path fill="none" stroke="rgb(179,179,179)" stroke-linejoin="round" d="M 4856,6519 L 4856,6369"/>
 <path fill="none" stroke="rgb(179,179,179)" stroke-linejoin="round" d="M 4856,6519 L 4856,6369"/>
 <path fill="none" stroke="rgb(179,179,179)" stroke-linejoin="round" d="M 5574,6519 L 5574,6369"/>
 <path fill="none" stroke="rgb(179,179,179)" stroke-linejoin="round" d="M 5574,6519 L 5574,6369"/>
 <path fill="none" stroke="rgb(179,179,179)" stroke-linejoin="round" d="M 6292,6519 L 6292,6369"/>
 <path fill="none" stroke="rgb(179,179,179)" stroke-linejoin="round" d="M 6292,6519 L 6292,6369"/>
 <path fill="none" stroke="rgb(179,179,179)" stroke-linejoin="round" d="M 7010,6519 L 7010,6369"/>
 <path fill="none" stroke="rgb(179,179,179)" stroke-linejoin="round" d="M 7010,6519 L 7010,6369"/>
 <path fill="none" stroke="rgb(179,179,179)" stroke-linejoin="round" d="M 7728,6519 L 7728,6369"/>
 <path fill="none" stroke="rgb(179,179,179)" stroke-linejoin="round" d="M 7728,6519 L 7728,6369"/>
 <path fill="none" stroke="rgb(179,179,179)" stroke-linejoin="round" d="M 8446,6519 L 8446,6369"/>
 <path fill="none" stroke="rgb(179,179,179)" stroke-linejoin="round" d="M 8446,6519 L 8446,6369"/>
 <path fill="none" stroke="rgb(179,179,179)" stroke-linejoin="round" d="M 9164,6519 L 9164,6369"/>
 <path fill="none" stroke="rgb(179,179,179)" stroke-linejoin="round" d="M 9164,6519 L 9164,6369"/>
 <path fill="none" stroke="rgb(179,179,179)" stroke-linejoin="round" d="M 9882,6519 L 9882,6369"/>
 <path fill="none" stroke="rgb(179,179,179)" stroke-linejoin="round" d="M 9882,6519 L 9882,6369"/>
 <path fill="none" stroke="rgb(179,179,179)" stroke-linejoin="round" d="M 10601,6519 L 10601,6369"/>
 <path fill="none" stroke="rgb(179,179,179)" stroke-linejoin="round" d="M 10601,6519 L 10601,6369"/>
 <path fill="none" stroke="rgb(179,179,179)" stroke-linejoin="round" d="M 1265,6369 L 10601,6369"/>
 <path fill="none" stroke="rgb(179,179,179)" stroke-linejoin="round" d="M 1115,6369 L 1265,6369"/>
 <path fill="none" stroke="rgb(179,179,179)" stroke-linejoin="round" d="M 1115,6369 L 1265,6369"/>
 <path fill="none" stroke="rgb(179,179,179)" stroke-linejoin="round" d="M 1115,5694 L 1265,5694"/>
 <path fill="none" stroke="rgb(179,179,179)" stroke-linejoin="round" d="M 1115,5694 L 1265,5694"/>
 <path fill="none" stroke="rgb(179,179,179)" stroke-linejoin="round" d="M 1115,5019 L 1265,5019"/>
 <path fill="none" stroke="rgb(179,179,179)" stroke-linejoin="round" d="M 1115,5019 L 1265,5019"/>
 <path fill="none" stroke="rgb(179,179,179)" stroke-linejoin="round" d="M 1115,4344 L 1265,4344"/>
 <path fill="none" stroke="rgb(179,179,179)" stroke-linejoin="round" d="M 1115,4344 L 1265,4344"/>
 <path fill="none" stroke="rgb(179,179,179)" stroke-linejoin="round" d="M 1115,3670 L 1265,3670"/>
 <path fill="none" stroke="rgb(179,179,179)" stroke-linejoin="round" d="M 1115,3670 L 1265,3670"/>
 <path fill="none" stroke="rgb(179,179,179)" stroke-linejoin="round" d="M 1115,2995 L 1265,2995"/>
 <path fill="none" stroke="rgb(179,179,179)" stroke-linejoin="round" d="M 1115,2995 L 1265,2995"/>
 <path fill="none" stroke="rgb(179,179,179)" stroke-linejoin="round" d="M 1115,2320 L 1265,2320"/>
 <path fill="none" stroke="rgb(179,179,179)" stroke-linejoin="round" d="M 1115,2320 L 1265,2320"/>
 <path fill="none" stroke="rgb(179,179,179)" stroke-linejoin="round" d="M 1115,1645 L 1265,1645"/>
 <path fill="none" stroke="rgb(179,179,179)" stroke-linejoin="round" d="M 1115,1645 L 1265,1645"/>
 <path fill="none" stroke="rgb(179,179,179)" stroke-linejoin="round" d="M 1115,970 L 1265,970"/>
 <path fill="none" stroke="rgb(179,179,179)" stroke-linejoin="round" d="M 1115,970 L 1265,970"/>
 <path fill="none" stroke="rgb(179,179,179)" stroke-linejoin="round" d="M 1115,295 L 1265,295"/>
 <path fill="none" stroke="rgb(179,179,179)" stroke-linejoin="round" d="M 1115,295 L 1265,295"/>
 <path fill="none" stroke="rgb(179,179,179)" stroke-linejoin="round" d="M 1265,6369 L 1265,295"/>
 <path fill="none" stroke="rgb(0,69,134)" stroke-width="50" stroke-linejoin="round" d="M 1265,5019 L 1983,4935 2701,4691 3419,4990 4137,4511 4856,4436 5574,4225 6292,3997 7010,3677 7728,3905 8446,3683 9164,3940 9882,4001 10601,4076"/>
 <path fill="rgb(0,69,134)" stroke="none" d="M 1140,4894 L 1140,5144 1390,5144 1390,4894 1140,4894 Z"/>
 <path fill="none" stroke="rgb(0,69,134)" stroke-linejoin="round" d="M 1140,4894 L 1140,5144 1390,5144 1390,4894 1140,4894 Z"/>
 <path fill="rgb(0,69,134)" stroke="none" d="M 1858,4810 L 1858,5060 2108,5060 2108,4810 1858,4810 Z"/>
 <path fill="none" stroke="rgb(0,69,134)" stroke-linejoin="round" d="M 1858,4810 L 1858,5060 2108,5060 2108,4810 1858,4810 Z"/>
 <path fill="rgb(0,69,134)" stroke="none" d="M 2576,4566 L 2576,4816 2826,4816 2826,4566 2576,4566 Z"/>
 <path fill="none" stroke="rgb(0,69,134)" stroke-linejoin="round" d="M 2576,4566 L 2576,4816 2826,4816 2826,4566 2576,4566 Z"/>
 <path fill="rgb(0,69,134)" stroke="none" d="M 3294,4865 L 3294,5115 3544,5115 3544,4865 3294,4865 Z"/>
 <path fill="none" stroke="rgb(0,69,134)" stroke-linejoin="round" d="M 3294,4865 L 3294,5115 3544,5115 3544,4865 3294,4865 Z"/>
 <path fill="rgb(0,69,134)" stroke="none" d="M 4012,4386 L 4012,4636 4262,4636 4262,4386 4012,4386 Z"/>
 <path fill="none" stroke="rgb(0,69,134)" stroke-linejoin="round" d="M 4012,4386 L 4012,4636 4262,4636 4262,4386 4012,4386 Z"/>
 <path fill="rgb(0,69,134)" stroke="none" d="M 4731,4311 L 4731,4561 4981,4561 4981,4311 4731,4311 Z"/>
 <path fill="none" stroke="rgb(0,69,134)" stroke-linejoin="round" d="M 4731,4311 L 4731,4561 4981,4561 4981,4311 4731,4311 Z"/>
 <path fill="rgb(0,69,134)" stroke="none" d="M 5449,4100 L 5449,4350 5699,4350 5699,4100 5449,4100 Z"/>
 <path fill="none" stroke="rgb(0,69,134)" stroke-linejoin="round" d="M 5449,4100 L 5449,4350 5699,4350 5699,4100 5449,4100 Z"/>
 <path fill="rgb(0,69,134)" stroke="none" d="M 6167,3872 L 6167,4122 6417,4122 6417,3872 6167,3872 Z"/>
 <path fill="none" stroke="rgb(0,69,134)" stroke-linejoin="round" d="M 6167,3872 L 6167,4122 6417,4122 6417,3872 6167,3872 Z"/>
 <path fill="rgb(0,69,134)" stroke="none" d="M 6885,3552 L 6885,3801 7135,3801 7135,3552 6885,3552 Z"/>
 <path fill="none" stroke="rgb(0,69,134)" stroke-linejoin="round" d="M 6885,3552 L 6885,3801 7135,3801 7135,3552 6885,3552 Z"/>
 <path fill="rgb(0,69,134)" stroke="none" d="M 7603,3780 L 7603,4030 7853,4030 7853,3780 7603,3780 Z"/>
 <path fill="none" stroke="rgb(0,69,134)" stroke-linejoin="round" d="M 7603,3780 L 7603,4030 7853,4030 7853,3780 7603,3780 Z"/>
 <path fill="rgb(0,69,134)" stroke="none" d="M 8321,3558 L 8321,3807 8571,3807 8571,3558 8321,3558 Z"/>
 <path fill="none" stroke="rgb(0,69,134)" stroke-linejoin="round" d="M 8321,3558 L 8321,3807 8571,3807 8571,3558 8321,3558 Z"/>
 <path fill="rgb(0,69,134)" stroke="none" d="M 9039,3815 L 9039,4065 9289,4065 9289,3815 9039,3815 Z"/>
 <path fill="none" stroke="rgb(0,69,134)" stroke-linejoin="round" d="M 9039,3815 L 9039,4065 9289,4065 9289,3815 9039,3815 Z"/>
 <path fill="rgb(0,69,134)" stroke="none" d="M 9757,3876 L 9757,4126 10007,4126 10007,3876 9757,3876 Z"/>
 <path fill="none" stroke="rgb(0,69,134)" stroke-linejoin="round" d="M 9757,3876 L 9757,4126 10007,4126 10007,3876 9757,3876 Z"/>
 <path fill="rgb(0,69,134)" stroke="none" d="M 10476,3951 L 10476,4201 10726,4201 10726,3951 10476,3951 Z"/>
 <path fill="none" stroke="rgb(0,69,134)" stroke-linejoin="round" d="M 10476,3951 L 10476,4201 10726,4201 10726,3951 10476,3951 Z"/>
 <path fill="none" stroke="rgb(255,66,14)" stroke-width="50" stroke-linejoin="round" d="M 1265,5019 L 1983,5019 2701,4863 3419,4498 4137,4310 4856,3847 5574,2608 6292,2608 7010,2259 7728,2395 8446,2370 9164,2377 9882,2296 10601,1986"/>
 <path fill="rgb(255,66,14)" stroke="none" d="M 1140,5019 L 1265,5144 1390,5019 1265,4894 1140,5019 Z"/>
 <path fill="none" stroke="rgb(255,66,14)" stroke-linejoin="round" d="M 1140,5019 L 1265,5144 1390,5019 1265,4894 1140,5019 Z"/>
 <path fill="rgb(255,66,14)" stroke="none" d="M 1858,5019 L 1983,5144 2108,5019 1983,4894 1858,5019 Z"/>
 <path fill="none" stroke="rgb(255,66,14)" stroke-linejoin="round" d="M 1858,5019 L 1983,5144 2108,5019 1983,4894 1858,5019 Z"/>
 <path fill="rgb(255,66,14)" stroke="none" d="M 2576,4863 L 2701,4988 2826,4863 2701,4738 2576,4863 Z"/>
 <path fill="none" stroke="rgb(255,66,14)" stroke-linejoin="round" d="M 2576,4863 L 2701,4988 2826,4863 2701,4738 2576,4863 Z"/>
 <path fill="rgb(255,66,14)" stroke="none" d="M 3294,4498 L 3419,4623 3544,4498 3419,4373 3294,4498 Z"/>
 <path fill="none" stroke="rgb(255,66,14)" stroke-linejoin="round" d="M 3294,4498 L 3419,4623 3544,4498 3419,4373 3294,4498 Z"/>
 <path fill="rgb(255,66,14)" stroke="none" d="M 4012,4310 L 4137,4435 4262,4310 4137,4185 4012,4310 Z"/>
 <path fill="none" stroke="rgb(255,66,14)" stroke-linejoin="round" d="M 4012,4310 L 4137,4435 4262,4310 4137,4185 4012,4310 Z"/>
 <path fill="rgb(255,66,14)" stroke="none" d="M 4731,3847 L 4856,3972 4981,3847 4856,3723 4731,3847 Z"/>
 <path fill="none" stroke="rgb(255,66,14)" stroke-linejoin="round" d="M 4731,3847 L 4856,3972 4981,3847 4856,3723 4731,3847 Z"/>
 <path fill="rgb(255,66,14)" stroke="none" d="M 5449,2608 L 5574,2733 5699,2608 5574,2483 5449,2608 Z"/>
 <path fill="none" stroke="rgb(255,66,14)" stroke-linejoin="round" d="M 5449,2608 L 5574,2733 5699,2608 5574,2483 5449,2608 Z"/>
 <path fill="rgb(255,66,14)" stroke="none" d="M 6167,2608 L 6292,2733 6417,2608 6292,2483 6167,2608 Z"/>
 <path fill="none" stroke="rgb(255,66,14)" stroke-linejoin="round" d="M 6167,2608 L 6292,2733 6417,2608 6292,2483 6167,2608 Z"/>
 <path fill="rgb(255,66,14)" stroke="none" d="M 6885,2259 L 7010,2384 7135,2259 7010,2134 6885,2259 Z"/>
 <path fill="none" stroke="rgb(255,66,14)" stroke-linejoin="round" d="M 6885,2259 L 7010,2384 7135,2259 7010,2134 6885,2259 Z"/>
 <path fill="rgb(255,66,14)" stroke="none" d="M 7603,2395 L 7728,2520 7853,2395 7728,2270 7603,2395 Z"/>
 <path fill="none" stroke="rgb(255,66,14)" stroke-linejoin="round" d="M 7603,2395 L 7728,2520 7853,2395 7728,2270 7603,2395 Z"/>
 <path fill="rgb(255,66,14)" stroke="none" d="M 8321,2370 L 8446,2495 8571,2370 8446,2245 8321,2370 Z"/>
 <path fill="none" stroke="rgb(255,66,14)" stroke-linejoin="round" d="M 8321,2370 L 8446,2495 8571,2370 8446,2245 8321,2370 Z"/>
 <path fill="rgb(255,66,14)" stroke="none" d="M 9039,2377 L 9164,2502 9289,2377 9164,2252 9039,2377 Z"/>
 <path fill="none" stroke="rgb(255,66,14)" stroke-linejoin="round" d="M 9039,2377 L 9164,2502 9289,2377 9164,2252 9039,2377 Z"/>
 <path fill="rgb(255,66,14)" stroke="none" d="M 9757,2296 L 9882,2421 10007,2296 9882,2171 9757,2296 Z"/>
 <path fill="none" stroke="rgb(255,66,14)" stroke-linejoin="round" d="M 9757,2296 L 9882,2421 10007,2296 9882,2171 9757,2296 Z"/>
 <path fill="rgb(255,66,14)" stroke="none" d="M 10476,1986 L 10601,2111 10726,1986 10601,1861 10476,1986 Z"/>
 <path fill="none" stroke="rgb(255,66,14)" stroke-linejoin="round" d="M 10476,1986 L 10601,2111 10726,1986 10601,1861 10476,1986 Z"/>
 <path fill="none" stroke="rgb(255,211,32)" stroke-width="50" stroke-linejoin="round" d="M 1265,5019 L 1983,5028 2701,4682 3419,4090 4137,3871 4856,3993 5574,3686 6292,3417 7010,2642 7728,2845 8446,2240 9164,2112 9882,1598 10601,1103"/>
 <path fill="rgb(255,211,32)" stroke="none" d="M 1140,4894 L 1265,5144 1390,4894 1140,4894 Z"/>
 <path fill="none" stroke="rgb(255,211,32)" stroke-linejoin="round" d="M 1140,4894 L 1265,5144 1390,4894 1140,4894 Z"/>
 <path fill="rgb(255,211,32)" stroke="none" d="M 1858,4903 L 1983,5153 2108,4903 1858,4903 Z"/>
 <path fill="none" stroke="rgb(255,211,32)" stroke-linejoin="round" d="M 1858,4903 L 1983,5153 2108,4903 1858,4903 Z"/>
 <path fill="rgb(255,211,32)" stroke="none" d="M 2576,4557 L 2701,4807 2826,4557 2576,4557 Z"/>
 <path fill="none" stroke="rgb(255,211,32)" stroke-linejoin="round" d="M 2576,4557 L 2701,4807 2826,4557 2576,4557 Z"/>
 <path fill="rgb(255,211,32)" stroke="none" d="M 3294,3965 L 3419,4215 3544,3965 3294,3965 Z"/>
 <path fill="none" stroke="rgb(255,211,32)" stroke-linejoin="round" d="M 3294,3965 L 3419,4215 3544,3965 3294,3965 Z"/>
 <path fill="rgb(255,211,32)" stroke="none" d="M 4012,3747 L 4137,3996 4262,3747 4012,3747 Z"/>
 <path fill="none" stroke="rgb(255,211,32)" stroke-linejoin="round" d="M 4012,3747 L 4137,3996 4262,3747 4012,3747 Z"/>
 <path fill="rgb(255,211,32)" stroke="none" d="M 4731,3868 L 4856,4118 4981,3868 4731,3868 Z"/>
 <path fill="none" stroke="rgb(255,211,32)" stroke-linejoin="round" d="M 4731,3868 L 4856,4118 4981,3868 4731,3868 Z"/>
 <path fill="rgb(255,211,32)" stroke="none" d="M 5449,3561 L 5574,3810 5699,3561 5449,3561 Z"/>
 <path fill="none" stroke="rgb(255,211,32)" stroke-linejoin="round" d="M 5449,3561 L 5574,3810 5699,3561 5449,3561 Z"/>
 <path fill="rgb(255,211,32)" stroke="none" d="M 6167,3292 L 6292,3542 6417,3292 6167,3292 Z"/>
 <path fill="none" stroke="rgb(255,211,32)" stroke-linejoin="round" d="M 6167,3292 L 6292,3542 6417,3292 6167,3292 Z"/>
 <path fill="rgb(255,211,32)" stroke="none" d="M 6885,2517 L 7010,2767 7135,2517 6885,2517 Z"/>
 <path fill="none" stroke="rgb(255,211,32)" stroke-linejoin="round" d="M 6885,2517 L 7010,2767 7135,2517 6885,2517 Z"/>
 <path fill="rgb(255,211,32)" stroke="none" d="M 7603,2720 L 7728,2970 7853,2720 7603,2720 Z"/>
 <path fill="none" stroke="rgb(255,211,32)" stroke-linejoin="round" d="M 7603,2720 L 7728,2970 7853,2720 7603,2720 Z"/>
 <path fill="rgb(255,211,32)" stroke="none" d="M 8321,2115 L 8446,2365 8571,2115 8321,2115 Z"/>
 <path fill="none" stroke="rgb(255,211,32)" stroke-linejoin="round" d="M 8321,2115 L 8446,2365 8571,2115 8321,2115 Z"/>
 <path fill="rgb(255,211,32)" stroke="none" d="M 9039,1987 L 9164,2237 9289,1987 9039,1987 Z"/>
 <path fill="none" stroke="rgb(255,211,32)" stroke-linejoin="round" d="M 9039,1987 L 9164,2237 9289,1987 9039,1987 Z"/>
 <path fill="rgb(255,211,32)" stroke="none" d="M 9757,1473 L 9882,1723 10007,1473 9757,1473 Z"/>
 <path fill="none" stroke="rgb(255,211,32)" stroke-linejoin="round" d="M 9757,1473 L 9882,1723 10007,1473 9757,1473 Z"/>
 <path fill="rgb(255,211,32)" stroke="none" d="M 10476,978 L 10601,1228 10726,978 10476,978 Z"/>
 <path fill="none" stroke="rgb(255,211,32)" stroke-linejoin="round" d="M 10476,978 L 10601,1228 10726,978 10476,978 Z"/>
 <path fill="none" stroke="rgb(87,157,28)" stroke-width="50" stroke-linejoin="round" d="M 1265,5019 L 1983,4973 2701,4750 3419,4735 4137,4381 4856,4188 5574,3608 6292,3457 7010,3084 7728,3278 8446,3089 9164,3223 9882,3181 10601,3069"/>
 <path fill="rgb(87,157,28)" stroke="none" d="M 1140,5144 L 1390,5144 1265,4894 1140,5144 Z"/>
 <path fill="none" stroke="rgb(87,157,28)" stroke-linejoin="round" d="M 1140,5144 L 1390,5144 1265,4894 1140,5144 Z"/>
 <path fill="rgb(87,157,28)" stroke="none" d="M 1858,5098 L 2108,5098 1983,4848 1858,5098 Z"/>
 <path fill="none" stroke="rgb(87,157,28)" stroke-linejoin="round" d="M 1858,5098 L 2108,5098 1983,4848 1858,5098 Z"/>
 <path fill="rgb(87,157,28)" stroke="none" d="M 2576,4875 L 2826,4875 2701,4625 2576,4875 Z"/>
 <path fill="none" stroke="rgb(87,157,28)" stroke-linejoin="round" d="M 2576,4875 L 2826,4875 2701,4625 2576,4875 Z"/>
 <path fill="rgb(87,157,28)" stroke="none" d="M 3294,4860 L 3544,4860 3419,4610 3294,4860 Z"/>
 <path fill="none" stroke="rgb(87,157,28)" stroke-linejoin="round" d="M 3294,4860 L 3544,4860 3419,4610 3294,4860 Z"/>
 <path fill="rgb(87,157,28)" stroke="none" d="M 4012,4506 L 4262,4506 4137,4256 4012,4506 Z"/>
 <path fill="none" stroke="rgb(87,157,28)" stroke-linejoin="round" d="M 4012,4506 L 4262,4506 4137,4256 4012,4506 Z"/>
 <path fill="rgb(87,157,28)" stroke="none" d="M 4731,4313 L 4981,4313 4856,4063 4731,4313 Z"/>
 <path fill="none" stroke="rgb(87,157,28)" stroke-linejoin="round" d="M 4731,4313 L 4981,4313 4856,4063 4731,4313 Z"/>
 <path fill="rgb(87,157,28)" stroke="none" d="M 5449,3733 L 5699,3733 5574,3483 5449,3733 Z"/>
 <path fill="none" stroke="rgb(87,157,28)" stroke-linejoin="round" d="M 5449,3733 L 5699,3733 5574,3483 5449,3733 Z"/>
 <path fill="rgb(87,157,28)" stroke="none" d="M 6167,3582 L 6417,3582 6292,3332 6167,3582 Z"/>
 <path fill="none" stroke="rgb(87,157,28)" stroke-linejoin="round" d="M 6167,3582 L 6417,3582 6292,3332 6167,3582 Z"/>
 <path fill="rgb(87,157,28)" stroke="none" d="M 6885,3209 L 7135,3209 7010,2959 6885,3209 Z"/>
 <path fill="none" stroke="rgb(87,157,28)" stroke-linejoin="round" d="M 6885,3209 L 7135,3209 7010,2959 6885,3209 Z"/>
 <path fill="rgb(87,157,28)" stroke="none" d="M 7603,3403 L 7853,3403 7728,3153 7603,3403 Z"/>
 <path fill="none" stroke="rgb(87,157,28)" stroke-linejoin="round" d="M 7603,3403 L 7853,3403 7728,3153 7603,3403 Z"/>
 <path fill="rgb(87,157,28)" stroke="none" d="M 8321,3214 L 8571,3214 8446,2964 8321,3214 Z"/>
 <path fill="none" stroke="rgb(87,157,28)" stroke-linejoin="round" d="M 8321,3214 L 8571,3214 8446,2964 8321,3214 Z"/>
 <path fill="rgb(87,157,28)" stroke="none" d="M 9039,3348 L 9289,3348 9164,3098 9039,3348 Z"/>
 <path fill="none" stroke="rgb(87,157,28)" stroke-linejoin="round" d="M 9039,3348 L 9289,3348 9164,3098 9039,3348 Z"/>
 <path fill="rgb(87,157,28)" stroke="none" d="M 9757,3306 L 10007,3306 9882,3056 9757,3306 Z"/>
 <path fill="none" stroke="rgb(87,157,28)" stroke-linejoin="round" d="M 9757,3306 L 10007,3306 9882,3056 9757,3306 Z"/>
 <path fill="rgb(87,157,28)" stroke="none" d="M 10476,3194 L 10726,3194 10601,2944 10476,3194 Z"/>
 <path fill="none" stroke="rgb(87,157,28)" stroke-linejoin="round" d="M 10476,3194 L 10726,3194 10601,2944 10476,3194 Z"/>
 <text class="SVGTextShape" transform="rotate(-44.9 899 7294)"><tspan class="TextParagraph" font-family="Latin Modern Roman" font-size="282px" font-weight="400"><tspan class="TextPosition" x="899" y="7294"><tspan fill="rgb(0,0,0)" stroke="none">1950</tspan></tspan></tspan></text>
 <text class="SVGTextShape" transform="rotate(-44.9 1617 7294)"><tspan class="TextParagraph" font-family="Latin Modern Roman" font-size="282px" font-weight="400"><tspan class="TextPosition" x="1617" y="7294"><tspan fill="rgb(0,0,0)" stroke="none">1955</tspan></tspan></tspan></text>
 <text class="SVGTextShape" transform="rotate(-44.9 2335 7294)"><tspan class="TextParagraph" font-family="Latin Modern Roman" font-size="282px" font-weight="400"><tspan class="TextPosition" x="2335" y="7294"><tspan fill="rgb(0,0,0)" stroke="none">1960</tspan></tspan></tspan></text>
 <text class="SVGTextShape" transform="rotate(-44.9 3053 7294)"><tspan class="TextParagraph" font-family="Latin Modern Roman" font-size="282px" font-weight="400"><tspan class="TextPosition" x="3053" y="7294"><tspan fill="rgb(0,0,0)" stroke="none">1965</tspan></tspan></tspan></text>
 <text class="SVGTextShape" transform="rotate(-44.9 3771 7294)"><tspan class="TextParagraph" font-family="Latin Modern Roman" font-size="282px" font-weight="400"><tspan class="TextPosition" x="3771" y="7294"><tspan fill="rgb(0,0,0)" stroke="none">1970</tspan></tspan></tspan></text>
 <text class="SVGTextShape" transform="rotate(-44.9 4490 7294)"><tspan class="TextParagraph" font-family="Latin Modern Roman" font-size="282px" font-weight="400"><tspan class="TextPosition" x="4490" y="7294"><tspan fill="rgb(0,0,0)" stroke="none">1975</tspan></tspan></tspan></text>
 <text class="SVGTextShape" transform="rotate(-44.9 5208 7294)"><tspan class="TextParagraph" font-family="Latin Modern Roman" font-size="282px" font-weight="400"><tspan class="TextPosition" x="5208" y="7294"><tspan fill="rgb(0,0,0)" stroke="none">1980</tspan></tspan></tspan></text>
 <text class="SVGTextShape" transform="rotate(-44.9 5926 7294)"><tspan class="TextParagraph" font-family="Latin Modern Roman" font-size="282px" font-weight="400"><tspan class="TextPosition" x="5926" y="7294"><tspan fill="rgb(0,0,0)" stroke="none">1985</tspan></tspan></tspan></text>
 <text class="SVGTextShape" transform="rotate(-44.9 6644 7294)"><tspan class="TextParagraph" font-family="Latin Modern Roman" font-size="282px" font-weight="400"><tspan class="TextPosition" x="6644" y="7294"><tspan fill="rgb(0,0,0)" stroke="none">1990</tspan></tspan></tspan></text>
 <text class="SVGTextShape" transform="rotate(-44.9 7363 7294)"><tspan class="TextParagraph" font-family="Latin Modern Roman" font-size="282px" font-weight="400"><tspan class="TextPosition" x="7363" y="7294"><tspan fill="rgb(0,0,0)" stroke="none">1995</tspan></tspan></tspan></text>
 <text class="SVGTextShape" transform="rotate(-44.9 8081 7294)"><tspan class="TextParagraph" font-family="Latin Modern Roman" font-size="282px" font-weight="400"><tspan class="TextPosition" x="8081" y="7294"><tspan fill="rgb(0,0,0)" stroke="none">2000</tspan></tspan></tspan></text>
 <text class="SVGTextShape" transform="rotate(-44.9 8799 7294)"><tspan class="TextParagraph" font-family="Latin Modern Roman" font-size="282px" font-weight="400"><tspan class="TextPosition" x="8799" y="7294"><tspan fill="rgb(0,0,0)" stroke="none">2005</tspan></tspan></tspan></text>
 <text class="SVGTextShape" transform="rotate(-44.9 9517 7294)"><tspan class="TextParagraph" font-family="Latin Modern Roman" font-size="282px" font-weight="400"><tspan class="TextPosition" x="9517" y="7294"><tspan fill="rgb(0,0,0)" stroke="none">2010</tspan></tspan></tspan></text>
 <text class="SVGTextShape" transform="rotate(-44.9 10236 7294)"><tspan class="TextParagraph" font-family="Latin Modern Roman" font-size="282px" font-weight="400"><tspan class="TextPosition" x="10236" y="7294"><tspan fill="rgb(0,0,0)" stroke="none">2015</tspan></tspan></tspan></text>
 <text class="SVGTextShape"><tspan class="TextParagraph" font-family="Latin Modern Math" font-size="282px" font-weight="400"><tspan class="TextPosition" x="618" y="6463"><tspan fill="rgb(0,0,0)" stroke="none">0%</tspan></tspan></tspan></text>
 <text class="SVGTextShape"><tspan class="TextParagraph" font-family="Latin Modern Math" font-size="282px" font-weight="400"><tspan class="TextPosition" x="459" y="5788"><tspan fill="rgb(0,0,0)" stroke="none">50%</tspan></tspan></tspan></text>
 <text class="SVGTextShape"><tspan class="TextParagraph" font-family="Latin Modern Math" font-size="282px" font-weight="400"><tspan class="TextPosition" x="301" y="5113"><tspan fill="rgb(0,0,0)" stroke="none">100%</tspan></tspan></tspan></text>
 <text class="SVGTextShape"><tspan class="TextParagraph" font-family="Latin Modern Math" font-size="282px" font-weight="400"><tspan class="TextPosition" x="301" y="4438"><tspan fill="rgb(0,0,0)" stroke="none">150%</tspan></tspan></tspan></text>
 <text class="SVGTextShape"><tspan class="TextParagraph" font-family="Latin Modern Math" font-size="282px" font-weight="400"><tspan class="TextPosition" x="301" y="3763"><tspan fill="rgb(0,0,0)" stroke="none">200%</tspan></tspan></tspan></text>
 <text class="SVGTextShape"><tspan class="TextParagraph" font-family="Latin Modern Math" font-size="282px" font-weight="400"><tspan class="TextPosition" x="301" y="3088"><tspan fill="rgb(0,0,0)" stroke="none">250%</tspan></tspan></tspan></text>
 <text class="SVGTextShape"><tspan class="TextParagraph" font-family="Latin Modern Math" font-size="282px" font-weight="400"><tspan class="TextPosition" x="301" y="2413"><tspan fill="rgb(0,0,0)" stroke="none">300%</tspan></tspan></tspan></text>
 <text class="SVGTextShape"><tspan class="TextParagraph" font-family="Latin Modern Math" font-size="282px" font-weight="400"><tspan class="TextPosition" x="301" y="1738"><tspan fill="rgb(0,0,0)" stroke="none">350%</tspan></tspan></tspan></text>
 <text class="SVGTextShape"><tspan class="TextParagraph" font-family="Latin Modern Math" font-size="282px" font-weight="400"><tspan class="TextPosition" x="301" y="1063"><tspan fill="rgb(0,0,0)" stroke="none">400%</tspan></tspan></tspan></text>
 <text class="SVGTextShape"><tspan class="TextParagraph" font-family="Latin Modern Math" font-size="282px" font-weight="400"><tspan class="TextPosition" x="301" y="388"><tspan fill="rgb(0,0,0)" stroke="none">450%</tspan></tspan></tspan></text>
 <path fill="none" stroke="rgb(0,69,134)" stroke-width="50" stroke-linejoin="round" d="M 11142,3002 L 11942,3002"/>
 <path fill="rgb(0,69,134)" stroke="none" d="M 11457,2918 L 11457,3087 11626,3087 11626,2918 11457,2918 Z"/>
 <path fill="none" stroke="rgb(0,69,134)" stroke-linejoin="round" d="M 11457,2918 L 11457,3087 11626,3087 11626,2918 11457,2918 Z"/>
 <path fill="none" stroke="rgb(255,66,14)" stroke-width="50" stroke-linejoin="round" d="M 11142,3500 L 11942,3500"/>
 <path fill="rgb(255,66,14)" stroke="none" d="M 11457,3500 L 11542,3585 11626,3500 11542,3416 11457,3500 Z"/>
 <path fill="none" stroke="rgb(255,66,14)" stroke-linejoin="round" d="M 11457,3500 L 11542,3585 11626,3500 11542,3416 11457,3500 Z"/>
 <path fill="none" stroke="rgb(255,211,32)" stroke-width="50" stroke-linejoin="round" d="M 11142,3997 L 11942,3997"/>
 <path fill="rgb(255,211,32)" stroke="none" d="M 11457,3913 L 11542,4082 11626,3913 11457,3913 Z"/>
 <path fill="none" stroke="rgb(255,211,32)" stroke-linejoin="round" d="M 11457,3913 L 11542,4082 11626,3913 11457,3913 Z"/>
 <path fill="none" stroke="rgb(87,157,28)" stroke-width="50" stroke-linejoin="round" d="M 11142,4495 L 11942,4495"/>
 <path fill="rgb(87,157,28)" stroke="none" d="M 11457,4580 L 11626,4580 11542,4411 11457,4580 Z"/>
 <path fill="none" stroke="rgb(87,157,28)" stroke-linejoin="round" d="M 11457,4580 L 11626,4580 11542,4411 11457,4580 Z"/>
 <text class="SVGTextShape"><tspan class="TextParagraph" font-family="Latin Modern Roman Caps" font-size="282px" font-weight="400"><tspan class="TextPosition" x="12042" y="3122"><tspan fill="rgb(0,0,0)" stroke="none">akkerbouw</tspan></tspan></tspan></text>
 <text class="SVGTextShape"><tspan class="TextParagraph" font-family="Latin Modern Roman Caps" font-size="282px" font-weight="400"><tspan class="TextPosition" x="12042" y="3620"><tspan fill="rgb(0,0,0)" stroke="none">veehouderij</tspan></tspan></tspan></text>
 <text class="SVGTextShape"><tspan class="TextParagraph" font-family="Latin Modern Roman Caps" font-size="282px" font-weight="400"><tspan class="TextPosition" x="12042" y="4117"><tspan fill="rgb(0,0,0)" stroke="none">tuinbouw</tspan></tspan></tspan></text>
 <text class="SVGTextShape"><tspan class="TextParagraph" font-family="Latin Modern Roman Caps" font-size="282px" font-weight="400"><tspan class="TextPosition" x="12042" y="4615"><tspan fill="rgb(0,0,0)" stroke="none">totale landbouw</tspan></tspan></tspan></text>
</svg>