<?xml version="1.0" encoding="UTF-8"?>
<!DOCTYPE svg PUBLIC "-//W3C//DTD SVG 1.1//EN" "http://www.w3.org/Graphics/SVG/1.1/DTD/svg11.dtd">
<svg width="80mm" height="40mm" viewBox="0 0 8000 4000" version="1.1" xmlns="http://www.w3.org/2000/svg" xmlns:xlink="http://www.w3.org/1999/xlink" stroke-width="28.222" stroke-linejoin="round" xml:space="preserve">
 <path fill="rgb(255,255,255)" stroke="none" d="M 4006,4000 L 13,4000 13,0 8000,0 8000,4000 4006,4000 Z"/>
 <path fill="none" stroke="rgb(0,0,0)" stroke-linejoin="round" d="M 4006,4000 L 13,4000 13,0 8000,0 8000,4000 4006,4000 Z"/>
 <defs>
  <linearGradient id="Gradient_9" gradientUnits="userSpaceOnUse" x1="4207" y1="193" x2="4207" y2="2727">
   <stop offset="0.3" stop-color="rgb(204,0,0)"/>
   <stop offset="1" stop-color="rgb(0,153,0)"/>
  </linearGradient>
 </defs>
 <path fill="url(#Gradient_9)" stroke="rgb(179,179,179)" stroke-linejoin="round" d="M 4207,2727 L 701,2727 701,193 7713,193 7713,2727 4207,2727 Z"/>
 <path fill="none" stroke="rgb(179,179,179)" stroke-linejoin="round" d="M 7713,2726 L 701,2726"/>
 <path fill="none" stroke="rgb(179,179,179)" stroke-linejoin="round" d="M 7713,2001 L 701,2001"/>
 <path fill="none" stroke="rgb(179,179,179)" stroke-linejoin="round" d="M 7713,1278 L 701,1278"/>
 <path fill="none" stroke="rgb(179,179,179)" stroke-linejoin="round" d="M 7713,554 L 701,554"/>
 <path fill="none" stroke="rgb(179,179,179)" stroke-linejoin="round" d="M 701,2876 L 701,2726"/>
 <path fill="none" stroke="rgb(179,179,179)" stroke-linejoin="round" d="M 701,2876 L 701,2726"/>
 <path fill="none" stroke="rgb(179,179,179)" stroke-linejoin="round" d="M 2259,2876 L 2259,2726"/>
 <path fill="none" stroke="rgb(179,179,179)" stroke-linejoin="round" d="M 2259,2876 L 2259,2726"/>
 <path fill="none" stroke="rgb(179,179,179)" stroke-linejoin="round" d="M 3817,2876 L 3817,2726"/>
 <path fill="none" stroke="rgb(179,179,179)" stroke-linejoin="round" d="M 3817,2876 L 3817,2726"/>
 <path fill="none" stroke="rgb(179,179,179)" stroke-linejoin="round" d="M 5375,2876 L 5375,2726"/>
 <path fill="none" stroke="rgb(179,179,179)" stroke-linejoin="round" d="M 5375,2876 L 5375,2726"/>
 <path fill="none" stroke="rgb(179,179,179)" stroke-linejoin="round" d="M 6933,2876 L 6933,2726"/>
 <path fill="none" stroke="rgb(179,179,179)" stroke-linejoin="round" d="M 6933,2876 L 6933,2726"/>
 <path fill="none" stroke="rgb(179,179,179)" stroke-linejoin="round" d="M 1090,2838 L 1090,2726"/>
 <path fill="none" stroke="rgb(179,179,179)" stroke-linejoin="round" d="M 1090,2838 L 1090,2726"/>
 <path fill="none" stroke="rgb(179,179,179)" stroke-linejoin="round" d="M 1479,2838 L 1479,2726"/>
 <path fill="none" stroke="rgb(179,179,179)" stroke-linejoin="round" d="M 1479,2838 L 1479,2726"/>
 <path fill="none" stroke="rgb(179,179,179)" stroke-linejoin="round" d="M 1869,2838 L 1869,2726"/>
 <path fill="none" stroke="rgb(179,179,179)" stroke-linejoin="round" d="M 1869,2838 L 1869,2726"/>
 <path fill="none" stroke="rgb(179,179,179)" stroke-linejoin="round" d="M 2648,2838 L 2648,2726"/>
 <path fill="none" stroke="rgb(179,179,179)" stroke-linejoin="round" d="M 2648,2838 L 2648,2726"/>
 <path fill="none" stroke="rgb(179,179,179)" stroke-linejoin="round" d="M 3037,2838 L 3037,2726"/>
 <path fill="none" stroke="rgb(179,179,179)" stroke-linejoin="round" d="M 3037,2838 L 3037,2726"/>
 <path fill="none" stroke="rgb(179,179,179)" stroke-linejoin="round" d="M 3427,2838 L 3427,2726"/>
 <path fill="none" stroke="rgb(179,179,179)" stroke-linejoin="round" d="M 3427,2838 L 3427,2726"/>
 <path fill="none" stroke="rgb(179,179,179)" stroke-linejoin="round" d="M 4206,2838 L 4206,2726"/>
 <path fill="none" stroke="rgb(179,179,179)" stroke-linejoin="round" d="M 4206,2838 L 4206,2726"/>
 <path fill="none" stroke="rgb(179,179,179)" stroke-linejoin="round" d="M 4596,2838 L 4596,2726"/>
 <path fill="none" stroke="rgb(179,179,179)" stroke-linejoin="round" d="M 4596,2838 L 4596,2726"/>
 <path fill="none" stroke="rgb(179,179,179)" stroke-linejoin="round" d="M 4986,2838 L 4986,2726"/>
 <path fill="none" stroke="rgb(179,179,179)" stroke-linejoin="round" d="M 4986,2838 L 4986,2726"/>
 <path fill="none" stroke="rgb(179,179,179)" stroke-linejoin="round" d="M 5765,2838 L 5765,2726"/>
 <path fill="none" stroke="rgb(179,179,179)" stroke-linejoin="round" d="M 5765,2838 L 5765,2726"/>
 <path fill="none" stroke="rgb(179,179,179)" stroke-linejoin="round" d="M 6154,2838 L 6154,2726"/>
 <path fill="none" stroke="rgb(179,179,179)" stroke-linejoin="round" d="M 6154,2838 L 6154,2726"/>
 <path fill="none" stroke="rgb(179,179,179)" stroke-linejoin="round" d="M 6544,2838 L 6544,2726"/>
 <path fill="none" stroke="rgb(179,179,179)" stroke-linejoin="round" d="M 6544,2838 L 6544,2726"/>
 <path fill="none" stroke="rgb(179,179,179)" stroke-linejoin="round" d="M 7323,2838 L 7323,2726"/>
 <path fill="none" stroke="rgb(179,179,179)" stroke-linejoin="round" d="M 7323,2838 L 7323,2726"/>
 <path fill="none" stroke="rgb(179,179,179)" stroke-linejoin="round" d="M 7713,2838 L 7713,2726"/>
 <path fill="none" stroke="rgb(179,179,179)" stroke-linejoin="round" d="M 7713,2838 L 7713,2726"/>
 <path fill="none" stroke="rgb(179,179,179)" stroke-linejoin="round" d="M 701,2726 L 7713,2726"/>
 <path fill="none" stroke="rgb(179,179,179)" stroke-linejoin="round" d="M 551,2726 L 701,2726"/>
 <path fill="none" stroke="rgb(179,179,179)" stroke-linejoin="round" d="M 551,2726 L 701,2726"/>
 <path fill="none" stroke="rgb(179,179,179)" stroke-linejoin="round" d="M 551,2001 L 701,2001"/>
 <path fill="none" stroke="rgb(179,179,179)" stroke-linejoin="round" d="M 551,2001 L 701,2001"/>
 <path fill="none" stroke="rgb(179,179,179)" stroke-linejoin="round" d="M 551,1278 L 701,1278"/>
 <path fill="none" stroke="rgb(179,179,179)" stroke-linejoin="round" d="M 551,1278 L 701,1278"/>
 <path fill="none" stroke="rgb(179,179,179)" stroke-linejoin="round" d="M 551,554 L 701,554"/>
 <path fill="none" stroke="rgb(179,179,179)" stroke-linejoin="round" d="M 551,554 L 701,554"/>
 <path fill="none" stroke="rgb(179,179,179)" stroke-linejoin="round" d="M 701,2726 L 701,192"/>
 <path fill="none" stroke="rgb(255,211,32)" stroke-width="80" stroke-linejoin="round" d="M 701,2606 L 1090,2453 1479,2409 1869,2295 2259,2155 2648,2090 3037,2102 3427,1976 3817,1968 4206,1969 4596,1983 4986,1845 5375,1721 5765,1520 7713,2601"/>
 <path fill="rgb(255,211,32)" stroke="none" d="M 576,2481 L 701,2731 826,2481 576,2481 Z"/>
 <path fill="none" stroke="rgb(255,211,32)" stroke-linejoin="round" d="M 576,2481 L 701,2731 826,2481 576,2481 Z"/>
 <path fill="rgb(255,211,32)" stroke="none" d="M 965,2328 L 1090,2578 1215,2328 965,2328 Z"/>
 <path fill="none" stroke="rgb(255,211,32)" stroke-linejoin="round" d="M 965,2328 L 1090,2578 1215,2328 965,2328 Z"/>
 <path fill="rgb(255,211,32)" stroke="none" d="M 1355,2284 L 1479,2534 1604,2284 1355,2284 Z"/>
 <path fill="none" stroke="rgb(255,211,32)" stroke-linejoin="round" d="M 1355,2284 L 1479,2534 1604,2284 1355,2284 Z"/>
 <path fill="rgb(255,211,32)" stroke="none" d="M 1744,2170 L 1869,2420 1993,2170 1744,2170 Z"/>
 <path fill="none" stroke="rgb(255,211,32)" stroke-linejoin="round" d="M 1744,2170 L 1869,2420 1993,2170 1744,2170 Z"/>
 <path fill="rgb(255,211,32)" stroke="none" d="M 2134,2030 L 2259,2280 2384,2030 2134,2030 Z"/>
 <path fill="none" stroke="rgb(255,211,32)" stroke-linejoin="round" d="M 2134,2030 L 2259,2280 2384,2030 2134,2030 Z"/>
 <path fill="rgb(255,211,32)" stroke="none" d="M 2523,1966 L 2648,2215 2773,1966 2523,1966 Z"/>
 <path fill="none" stroke="rgb(255,211,32)" stroke-linejoin="round" d="M 2523,1966 L 2648,2215 2773,1966 2523,1966 Z"/>
 <path fill="rgb(255,211,32)" stroke="none" d="M 2913,1978 L 3037,2227 3162,1978 2913,1978 Z"/>
 <path fill="none" stroke="rgb(255,211,32)" stroke-linejoin="round" d="M 2913,1978 L 3037,2227 3162,1978 2913,1978 Z"/>
 <path fill="rgb(255,211,32)" stroke="none" d="M 3302,1851 L 3427,2100 3552,1851 3302,1851 Z"/>
 <path fill="none" stroke="rgb(255,211,32)" stroke-linejoin="round" d="M 3302,1851 L 3427,2100 3552,1851 3302,1851 Z"/>
 <path fill="rgb(255,211,32)" stroke="none" d="M 3692,1843 L 3817,2092 3942,1843 3692,1843 Z"/>
 <path fill="none" stroke="rgb(255,211,32)" stroke-linejoin="round" d="M 3692,1843 L 3817,2092 3942,1843 3692,1843 Z"/>
 <path fill="rgb(255,211,32)" stroke="none" d="M 4082,1844 L 4206,2093 4331,1844 4082,1844 Z"/>
 <path fill="none" stroke="rgb(255,211,32)" stroke-linejoin="round" d="M 4082,1844 L 4206,2093 4331,1844 4082,1844 Z"/>
 <path fill="rgb(255,211,32)" stroke="none" d="M 4471,1858 L 4596,2107 4720,1858 4471,1858 Z"/>
 <path fill="none" stroke="rgb(255,211,32)" stroke-linejoin="round" d="M 4471,1858 L 4596,2107 4720,1858 4471,1858 Z"/>
 <path fill="rgb(255,211,32)" stroke="none" d="M 4861,1720 L 4986,1970 5111,1720 4861,1720 Z"/>
 <path fill="none" stroke="rgb(255,211,32)" stroke-linejoin="round" d="M 4861,1720 L 4986,1970 5111,1720 4861,1720 Z"/>
 <path fill="rgb(255,211,32)" stroke="none" d="M 5250,1596 L 5375,1846 5500,1596 5250,1596 Z"/>
 <path fill="none" stroke="rgb(255,211,32)" stroke-linejoin="round" d="M 5250,1596 L 5375,1846 5500,1596 5250,1596 Z"/>
 <path fill="rgb(255,211,32)" stroke="none" d="M 5640,1395 L 5765,1645 5889,1395 5640,1395 Z"/>
 <path fill="none" stroke="rgb(255,211,32)" stroke-linejoin="round" d="M 5640,1395 L 5765,1645 5889,1395 5640,1395 Z"/>
 <path fill="rgb(255,211,32)" stroke="none" d="M 7588,2476 L 7713,2726 7838,2476 7588,2476 Z"/>
 <path fill="none" stroke="rgb(255,211,32)" stroke-linejoin="round" d="M 7588,2476 L 7713,2726 7838,2476 7588,2476 Z"/>
 <text class="SVGTextShape" transform="rotate(-45 281 3780)"><tspan class="TextParagraph" font-family="Latin Modern Roman" font-size="353px" font-weight="400"><tspan class="TextPosition" x="281" y="3780"><tspan fill="rgb(0,0,0)" stroke="none">1950</tspan></tspan></tspan></text>
 <text class="SVGTextShape" transform="rotate(-45 1838 3780)"><tspan class="TextParagraph" font-family="Latin Modern Roman" font-size="353px" font-weight="400"><tspan class="TextPosition" x="1838" y="3780"><tspan fill="rgb(0,0,0)" stroke="none">1970</tspan></tspan></tspan></text>
 <text class="SVGTextShape" transform="rotate(-45 3396 3780)"><tspan class="TextParagraph" font-family="Latin Modern Roman" font-size="353px" font-weight="400"><tspan class="TextPosition" x="3396" y="3780"><tspan fill="rgb(0,0,0)" stroke="none">1990</tspan></tspan></tspan></text>
 <text class="SVGTextShape" transform="rotate(-45 4954 3780)"><tspan class="TextParagraph" font-family="Latin Modern Roman" font-size="353px" font-weight="400"><tspan class="TextPosition" x="4954" y="3780"><tspan fill="rgb(0,0,0)" stroke="none">2010</tspan></tspan></tspan></text>
 <text class="SVGTextShape" transform="rotate(-45 6512 3780)"><tspan class="TextParagraph" font-family="Latin Modern Roman" font-size="353px" font-weight="400"><tspan class="TextPosition" x="6512" y="3780"><tspan fill="rgb(0,0,0)" stroke="none">2030</tspan></tspan></tspan></text>
 <text class="SVGTextShape"><tspan class="TextParagraph" font-family="Liberation Sans, sans-serif" font-size="282px" font-weight="400"><tspan class="TextPosition" x="292" y="2833"><tspan fill="rgb(0,0,0)" stroke="none">0</tspan></tspan></tspan></text>
 <text class="SVGTextShape"><tspan class="TextParagraph" font-family="Liberation Sans, sans-serif" font-size="282px" font-weight="400"><tspan class="TextPosition" x="292" y="2108"><tspan fill="rgb(0,0,0)" stroke="none">1</tspan></tspan></tspan></text>
 <text class="SVGTextShape"><tspan class="TextParagraph" font-family="Liberation Sans, sans-serif" font-size="282px" font-weight="400"><tspan class="TextPosition" x="292" y="1384"><tspan fill="rgb(0,0,0)" stroke="none">2</tspan></tspan></tspan></text>
 <text class="SVGTextShape"><tspan class="TextParagraph" font-family="Liberation Sans, sans-serif" font-size="282px" font-weight="400"><tspan class="TextPosition" x="292" y="661"><tspan fill="rgb(0,0,0)" stroke="none">3</tspan></tspan></tspan></text>
 <path fill="rgb(255,255,255)" fill-opacity="0.698" stroke="rgb(255,255,255)" stroke-opacity="0.698" d="M 2099,1039 L 924,1039 924,323 3273,323 3273,1039 2099,1039 Z"/>
 <text class="SVGTextShape"><tspan class="TextParagraph" font-family="Latin Modern Roman" font-size="353px" font-weight="400"><tspan class="TextPosition" x="989" y="827"><tspan fill="rgb(0,0,0)" stroke="none">indirect/direct</tspan></tspan></tspan></text>
</svg>