<?xml version="1.0" encoding="UTF-8"?>
<!DOCTYPE svg PUBLIC "-//W3C//DTD SVG 1.1//EN" "http://www.w3.org/Graphics/SVG/1.1/DTD/svg11.dtd">
<svg width="300mm" height="150mm" viewBox="0 0 30000 15000" version="1.1" xmlns="http://www.w3.org/2000/svg" xmlns:xlink="http://www.w3.org/1999/xlink" stroke-width="28.222" stroke-linejoin="round" xml:space="preserve">
 <path fill="rgb(255,255,255)" stroke="none" d="M 15000,15000 L 0,15000 0,0 30000,0 30000,15000 15000,15000 Z"/>
 <path fill="none" stroke="rgb(179,179,179)" stroke-linejoin="round" d="M 12030,13065 L 2782,13065 2782,698 21277,698 21277,13065 12030,13065 Z"/>
 <path fill="none" stroke="rgb(179,179,179)" stroke-linejoin="round" d="M 21276,13064 L 2782,13064"/>
 <path fill="none" stroke="rgb(179,179,179)" stroke-linejoin="round" d="M 21276,11297 L 2782,11297"/>
 <path fill="none" stroke="rgb(179,179,179)" stroke-linejoin="round" d="M 21276,9530 L 2782,9530"/>
 <path fill="none" stroke="rgb(179,179,179)" stroke-linejoin="round" d="M 21276,7763 L 2782,7763"/>
 <path fill="none" stroke="rgb(179,179,179)" stroke-linejoin="round" d="M 21276,5997 L 2782,5997"/>
 <path fill="none" stroke="rgb(179,179,179)" stroke-linejoin="round" d="M 21276,4230 L 2782,4230"/>
 <path fill="none" stroke="rgb(179,179,179)" stroke-linejoin="round" d="M 21276,2463 L 2782,2463"/>
 <path fill="none" stroke="rgb(179,179,179)" stroke-linejoin="round" d="M 21276,697 L 2782,697"/>
 <path fill="none" stroke="rgb(179,179,179)" stroke-linejoin="round" d="M 2782,13214 L 2782,13064"/>
 <path fill="none" stroke="rgb(179,179,179)" stroke-linejoin="round" d="M 2782,4380 L 2782,4230"/>
 <path fill="none" stroke="rgb(179,179,179)" stroke-linejoin="round" d="M 3755,13214 L 3755,13064"/>
 <path fill="none" stroke="rgb(179,179,179)" stroke-linejoin="round" d="M 3755,4380 L 3755,4230"/>
 <path fill="none" stroke="rgb(179,179,179)" stroke-linejoin="round" d="M 4728,13214 L 4728,13064"/>
 <path fill="none" stroke="rgb(179,179,179)" stroke-linejoin="round" d="M 4728,4380 L 4728,4230"/>
 <path fill="none" stroke="rgb(179,179,179)" stroke-linejoin="round" d="M 5702,13214 L 5702,13064"/>
 <path fill="none" stroke="rgb(179,179,179)" stroke-linejoin="round" d="M 5702,4380 L 5702,4230"/>
 <path fill="none" stroke="rgb(179,179,179)" stroke-linejoin="round" d="M 6675,13214 L 6675,13064"/>
 <path fill="none" stroke="rgb(179,179,179)" stroke-linejoin="round" d="M 6675,4380 L 6675,4230"/>
 <path fill="none" stroke="rgb(179,179,179)" stroke-linejoin="round" d="M 7649,13214 L 7649,13064"/>
 <path fill="none" stroke="rgb(179,179,179)" stroke-linejoin="round" d="M 7649,4380 L 7649,4230"/>
 <path fill="none" stroke="rgb(179,179,179)" stroke-linejoin="round" d="M 8622,13214 L 8622,13064"/>
 <path fill="none" stroke="rgb(179,179,179)" stroke-linejoin="round" d="M 8622,4380 L 8622,4230"/>
 <path fill="none" stroke="rgb(179,179,179)" stroke-linejoin="round" d="M 9596,13214 L 9596,13064"/>
 <path fill="none" stroke="rgb(179,179,179)" stroke-linejoin="round" d="M 9596,4380 L 9596,4230"/>
 <path fill="none" stroke="rgb(179,179,179)" stroke-linejoin="round" d="M 10569,13214 L 10569,13064"/>
 <path fill="none" stroke="rgb(179,179,179)" stroke-linejoin="round" d="M 10569,4380 L 10569,4230"/>
 <path fill="none" stroke="rgb(179,179,179)" stroke-linejoin="round" d="M 11543,13214 L 11543,13064"/>
 <path fill="none" stroke="rgb(179,179,179)" stroke-linejoin="round" d="M 11543,4380 L 11543,4230"/>
 <path fill="none" stroke="rgb(179,179,179)" stroke-linejoin="round" d="M 12516,13214 L 12516,13064"/>
 <path fill="none" stroke="rgb(179,179,179)" stroke-linejoin="round" d="M 12516,4380 L 12516,4230"/>
 <path fill="none" stroke="rgb(179,179,179)" stroke-linejoin="round" d="M 13490,13214 L 13490,13064"/>
 <path fill="none" stroke="rgb(179,179,179)" stroke-linejoin="round" d="M 13490,4380 L 13490,4230"/>
 <path fill="none" stroke="rgb(179,179,179)" stroke-linejoin="round" d="M 14463,13214 L 14463,13064"/>
 <path fill="none" stroke="rgb(179,179,179)" stroke-linejoin="round" d="M 14463,4380 L 14463,4230"/>
 <path fill="none" stroke="rgb(179,179,179)" stroke-linejoin="round" d="M 15436,13214 L 15436,13064"/>
 <path fill="none" stroke="rgb(179,179,179)" stroke-linejoin="round" d="M 15436,4380 L 15436,4230"/>
 <path fill="none" stroke="rgb(179,179,179)" stroke-linejoin="round" d="M 16409,13214 L 16409,13064"/>
 <path fill="none" stroke="rgb(179,179,179)" stroke-linejoin="round" d="M 16409,4380 L 16409,4230"/>
 <path fill="none" stroke="rgb(179,179,179)" stroke-linejoin="round" d="M 17383,13214 L 17383,13064"/>
 <path fill="none" stroke="rgb(179,179,179)" stroke-linejoin="round" d="M 17383,4380 L 17383,4230"/>
 <path fill="none" stroke="rgb(179,179,179)" stroke-linejoin="round" d="M 18356,13214 L 18356,13064"/>
 <path fill="none" stroke="rgb(179,179,179)" stroke-linejoin="round" d="M 18356,4380 L 18356,4230"/>
 <path fill="none" stroke="rgb(179,179,179)" stroke-linejoin="round" d="M 19330,13214 L 19330,13064"/>
 <path fill="none" stroke="rgb(179,179,179)" stroke-linejoin="round" d="M 19330,4380 L 19330,4230"/>
 <path fill="none" stroke="rgb(179,179,179)" stroke-linejoin="round" d="M 20303,13214 L 20303,13064"/>
 <path fill="none" stroke="rgb(179,179,179)" stroke-linejoin="round" d="M 20303,4380 L 20303,4230"/>
 <path fill="none" stroke="rgb(179,179,179)" stroke-linejoin="round" d="M 21276,13214 L 21276,13064"/>
 <path fill="none" stroke="rgb(179,179,179)" stroke-linejoin="round" d="M 21276,4380 L 21276,4230"/>
 <path fill="none" stroke="rgb(179,179,179)" stroke-linejoin="round" d="M 2782,4230 L 21276,4230"/>
 <path fill="none" stroke="rgb(179,179,179)" stroke-linejoin="round" d="M 2632,13064 L 2782,13064"/>
 <path fill="none" stroke="rgb(179,179,179)" stroke-linejoin="round" d="M 2632,13064 L 2782,13064"/>
 <path fill="none" stroke="rgb(179,179,179)" stroke-linejoin="round" d="M 2632,11297 L 2782,11297"/>
 <path fill="none" stroke="rgb(179,179,179)" stroke-linejoin="round" d="M 2632,11297 L 2782,11297"/>
 <path fill="none" stroke="rgb(179,179,179)" stroke-linejoin="round" d="M 2632,9530 L 2782,9530"/>
 <path fill="none" stroke="rgb(179,179,179)" stroke-linejoin="round" d="M 2632,9530 L 2782,9530"/>
 <path fill="none" stroke="rgb(179,179,179)" stroke-linejoin="round" d="M 2632,7763 L 2782,7763"/>
 <path fill="none" stroke="rgb(179,179,179)" stroke-linejoin="round" d="M 2632,7763 L 2782,7763"/>
 <path fill="none" stroke="rgb(179,179,179)" stroke-linejoin="round" d="M 2632,5997 L 2782,5997"/>
 <path fill="none" stroke="rgb(179,179,179)" stroke-linejoin="round" d="M 2632,5997 L 2782,5997"/>
 <path fill="none" stroke="rgb(179,179,179)" stroke-linejoin="round" d="M 2632,4230 L 2782,4230"/>
 <path fill="none" stroke="rgb(179,179,179)" stroke-linejoin="round" d="M 2632,4230 L 2782,4230"/>
 <path fill="none" stroke="rgb(179,179,179)" stroke-linejoin="round" d="M 2632,2463 L 2782,2463"/>
 <path fill="none" stroke="rgb(179,179,179)" stroke-linejoin="round" d="M 2632,2463 L 2782,2463"/>
 <path fill="none" stroke="rgb(179,179,179)" stroke-linejoin="round" d="M 2632,697 L 2782,697"/>
 <path fill="none" stroke="rgb(179,179,179)" stroke-linejoin="round" d="M 2632,697 L 2782,697"/>
 <path fill="none" stroke="rgb(179,179,179)" stroke-linejoin="round" d="M 2782,13064 L 2782,697"/>
 <path fill="rgb(51,51,51)" stroke="none" d="M 20546,4672 L 21033,4672 21033,4230 20546,4230 20546,4672 Z"/>
 <path fill="rgb(51,51,51)" stroke="none" d="M 15679,6626 L 16166,6626 16166,4230 15679,4230 15679,6626 Z"/>
 <path fill="rgb(51,51,51)" stroke="none" d="M 14707,6483 L 15192,6483 15192,4230 14707,4230 14707,6483 Z"/>
 <path fill="rgb(51,51,51)" stroke="none" d="M 13733,6333 L 14220,6333 14220,4230 13733,4230 13733,6333 Z"/>
 <path fill="rgb(51,51,51)" stroke="none" d="M 12760,6397 L 13246,6397 13246,4230 12760,4230 12760,6397 Z"/>
 <path fill="rgb(51,51,51)" stroke="none" d="M 11786,6575 L 12273,6575 12273,4230 11786,4230 11786,6575 Z"/>
 <path fill="rgb(51,51,51)" stroke="none" d="M 10813,6398 L 11299,6398 11299,4230 10813,4230 10813,6398 Z"/>
 <path fill="rgb(51,51,51)" stroke="none" d="M 9839,6270 L 10326,6270 10326,4230 9839,4230 9839,6270 Z"/>
 <path fill="rgb(51,51,51)" stroke="none" d="M 8866,6213 L 9352,6213 9352,4230 8866,4230 8866,6213 Z"/>
 <path fill="rgb(51,51,51)" stroke="none" d="M 7892,6224 L 8379,6224 8379,4230 7892,4230 7892,6224 Z"/>
 <path fill="rgb(51,51,51)" stroke="none" d="M 6919,6422 L 7405,6422 7405,4230 6919,4230 6919,6422 Z"/>
 <path fill="rgb(51,51,51)" stroke="none" d="M 5945,5887 L 6432,5887 6432,4230 5945,4230 5945,5887 Z"/>
 <path fill="rgb(51,51,51)" stroke="none" d="M 4972,5359 L 5459,5359 5459,4230 4972,4230 4972,5359 Z"/>
 <path fill="rgb(51,51,51)" stroke="none" d="M 3998,4980 L 4485,4980 4485,4230 3998,4230 3998,4980 Z"/>
 <path fill="rgb(51,51,51)" stroke="none" d="M 3025,4714 L 3512,4714 3512,4230 3025,4230 3025,4714 Z"/>
 <path fill="rgb(0,69,134)" stroke="none" d="M 15679,6864 L 16166,6864 16166,6626 15679,6626 15679,6864 Z"/>
 <path fill="rgb(0,69,134)" stroke="none" d="M 14707,6710 L 15192,6710 15192,6483 14707,6483 14707,6710 Z"/>
 <path fill="rgb(0,69,134)" stroke="none" d="M 8866,6418 L 9352,6418 9352,6213 8866,6213 8866,6418 Z"/>
 <path fill="rgb(0,69,134)" stroke="none" d="M 3025,4800 L 3512,4800 3512,4714 3025,4714 3025,4800 Z"/>
 <path fill="rgb(255,149,14)" stroke="none" d="M 15679,7250 L 16166,7250 16166,6864 15679,6864 15679,7250 Z"/>
 <path fill="rgb(255,149,14)" stroke="none" d="M 14707,7009 L 15192,7009 15192,6710 14707,6710 14707,7009 Z"/>
 <path fill="rgb(255,149,14)" stroke="none" d="M 8866,6549 L 9352,6549 9352,6418 8866,6418 8866,6549 Z"/>
 <path fill="rgb(255,149,14)" stroke="none" d="M 3025,4835 L 3512,4835 3512,4800 3025,4800 3025,4835 Z"/>
 <path fill="rgb(102,0,255)" stroke="none" d="M 15679,7288 L 16166,7288 16166,7250 15679,7250 15679,7288 Z"/>
 <path fill="rgb(102,0,255)" stroke="none" d="M 14707,7054 L 15192,7054 15192,7009 14707,7009 14707,7054 Z"/>
 <path fill="rgb(102,0,255)" stroke="none" d="M 8866,6571 L 9352,6571 9352,6549 8866,6549 8866,6571 Z"/>
 <path fill="rgb(102,0,255)" stroke="none" d="M 3025,4838 L 3512,4838 3512,4835 3025,4835 3025,4838 Z"/>
 <path fill="rgb(75,31,111)" stroke="none" d="M 15679,7632 L 16166,7632 16166,7288 15679,7288 15679,7632 Z"/>
 <path fill="rgb(75,31,111)" stroke="none" d="M 14707,7338 L 15192,7338 15192,7054 14707,7054 14707,7338 Z"/>
 <path fill="rgb(75,31,111)" stroke="none" d="M 8866,6647 L 9352,6647 9352,6571 8866,6571 8866,6647 Z"/>
 <path fill="rgb(75,31,111)" stroke="none" d="M 3025,4841 L 3512,4841 3512,4838 3025,4838 3025,4841 Z"/>
 <path fill="rgb(174,207,0)" stroke="none" d="M 15679,7910 L 16166,7910 16166,7632 15679,7632 15679,7910 Z"/>
 <path fill="rgb(174,207,0)" stroke="none" d="M 14707,7580 L 15192,7580 15192,7338 14707,7338 14707,7580 Z"/>
 <path fill="rgb(174,207,0)" stroke="none" d="M 8866,6735 L 9352,6735 9352,6647 8866,6647 8866,6735 Z"/>
 <path fill="rgb(174,207,0)" stroke="none" d="M 3025,4845 L 3512,4845 3512,4841 3025,4841 3025,4845 Z"/>
 <path fill="rgb(49,64,4)" stroke="none" d="M 15679,8874 L 16166,8874 16166,7910 15679,7910 15679,8874 Z"/>
 <path fill="rgb(49,64,4)" stroke="none" d="M 14707,8461 L 15192,8461 15192,7580 14707,7580 14707,8461 Z"/>
 <path fill="rgb(49,64,4)" stroke="none" d="M 8866,7360 L 9352,7360 9352,6735 8866,6735 8866,7360 Z"/>
 <path fill="rgb(49,64,4)" stroke="none" d="M 3025,4871 L 3512,4871 3512,4845 3025,4845 3025,4871 Z"/>
 <path fill="rgb(131,202,255)" stroke="none" d="M 15679,9182 L 16166,9182 16166,8874 15679,8874 15679,9182 Z"/>
 <path fill="rgb(131,202,255)" stroke="none" d="M 14707,8644 L 15192,8644 15192,8461 14707,8461 14707,8644 Z"/>
 <path fill="rgb(131,202,255)" stroke="none" d="M 8866,7383 L 9352,7383 9352,7360 8866,7360 8866,7383 Z"/>
 <path fill="rgb(131,202,255)" stroke="none" d="M 3025,4875 L 3512,4875 3512,4871 3025,4871 3025,4875 Z"/>
 <path fill="rgb(126,0,33)" stroke="none" d="M 15679,9378 L 16166,9378 16166,9182 15679,9182 15679,9378 Z"/>
 <path fill="rgb(126,0,33)" stroke="none" d="M 14707,8822 L 15192,8822 15192,8644 14707,8644 14707,8822 Z"/>
 <path fill="rgb(126,0,33)" stroke="none" d="M 8866,7906 L 9352,7906 9352,7383 8866,7383 8866,7906 Z"/>
 <path fill="rgb(126,0,33)" stroke="none" d="M 3025,5155 L 3512,5155 3512,4875 3025,4875 3025,5155 Z"/>
 <path fill="rgb(87,157,28)" stroke="none" d="M 15679,9426 L 16166,9426 16166,9378 15679,9378 15679,9426 Z"/>
 <path fill="rgb(87,157,28)" stroke="none" d="M 14707,8868 L 15192,8868 15192,8822 14707,8822 14707,8868 Z"/>
 <path fill="rgb(87,157,28)" stroke="none" d="M 8866,7988 L 9352,7988 9352,7906 8866,7906 8866,7988 Z"/>
 <path fill="rgb(87,157,28)" stroke="none" d="M 3025,5176 L 3512,5176 3512,5155 3025,5155 3025,5176 Z"/>
 <path fill="rgb(255,211,32)" stroke="none" d="M 15679,9606 L 16166,9606 16166,9426 15679,9426 15679,9606 Z"/>
 <path fill="rgb(255,211,32)" stroke="none" d="M 14707,9009 L 15192,9009 15192,8868 14707,8868 14707,9009 Z"/>
 <path fill="rgb(255,211,32)" stroke="none" d="M 8866,8017 L 9352,8017 9352,7988 8866,7988 8866,8017 Z"/>
 <path fill="rgb(255,211,32)" stroke="none" d="M 3025,4230 L 3512,4230 3512,4230 3025,4230 Z"/>
 <path fill="rgb(255,66,14)" stroke="none" d="M 15679,9618 L 16166,9618 16166,9606 15679,9606 15679,9618 Z"/>
 <path fill="rgb(255,66,14)" stroke="none" d="M 14707,9025 L 15192,9025 15192,9009 14707,9009 14707,9025 Z"/>
 <path fill="rgb(255,66,14)" stroke="none" d="M 8866,8024 L 9352,8024 9352,8017 8866,8017 8866,8024 Z"/>
 <path fill="rgb(255,66,14)" stroke="none" d="M 3025,5181 L 3512,5181 3512,5176 3025,5176 3025,5181 Z"/>
 <path fill="rgb(0,0,153)" stroke="none" d="M 20546,4760 L 21033,4760 21033,4672 20546,4672 20546,4760 Z"/>
 <path fill="rgb(0,0,153)" stroke="none" d="M 13733,8735 L 14220,8735 14220,6333 13733,6333 13733,8735 Z"/>
 <path fill="rgb(0,0,153)" stroke="none" d="M 12760,8733 L 13246,8733 13246,6397 12760,6397 12760,8733 Z"/>
 <path fill="rgb(0,0,153)" stroke="none" d="M 11786,9145 L 12273,9145 12273,6575 11786,6575 11786,9145 Z"/>
 <path fill="rgb(0,0,153)" stroke="none" d="M 10813,8858 L 11299,8858 11299,6398 10813,6398 10813,8858 Z"/>
 <path fill="rgb(0,0,153)" stroke="none" d="M 9839,8401 L 10326,8401 10326,6270 9839,6270 9839,8401 Z"/>
 <path fill="rgb(0,0,153)" stroke="none" d="M 7892,7791 L 8379,7791 8379,6224 7892,6224 7892,7791 Z"/>
 <path fill="rgb(0,0,153)" stroke="none" d="M 6919,7755 L 7405,7755 7405,6422 6919,6422 6919,7755 Z"/>
 <path fill="rgb(0,0,153)" stroke="none" d="M 5945,6828 L 6432,6828 6432,5887 5945,5887 5945,6828 Z"/>
 <path fill="rgb(0,0,153)" stroke="none" d="M 4972,6070 L 5459,6070 5459,5359 4972,5359 4972,6070 Z"/>
 <path fill="rgb(0,0,153)" stroke="none" d="M 3998,5584 L 4485,5584 4485,4980 3998,4980 3998,5584 Z"/>
 <path fill="rgb(0,204,204)" stroke="none" d="M 20546,4230 L 21033,4230 21033,3379 20546,3379 20546,4230 Z"/>
 <path fill="rgb(0,204,204)" stroke="none" d="M 15679,4230 L 16166,4230 16166,3086 15679,3086 15679,4230 Z"/>
 <path fill="rgb(0,204,204)" stroke="none" d="M 14707,4230 L 15192,4230 15192,2954 14707,2954 14707,4230 Z"/>
 <path fill="rgb(0,204,204)" stroke="none" d="M 8866,4230 L 9352,4230 9352,3164 8866,3164 8866,4230 Z"/>
 <path fill="rgb(0,204,204)" stroke="none" d="M 3025,4230 L 3512,4230 3512,3429 3025,3429 3025,4230 Z"/>
 <path fill="rgb(102,0,255)" stroke="none" d="M 20546,3379 L 21033,3379 21033,3223 20546,3223 20546,3379 Z"/>
 <path fill="rgb(102,0,255)" stroke="none" d="M 15679,3086 L 16166,3086 16166,1950 15679,1950 15679,3086 Z"/>
 <path fill="rgb(102,0,255)" stroke="none" d="M 14707,2954 L 15192,2954 15192,1974 14707,1974 14707,2954 Z"/>
 <path fill="rgb(102,0,255)" stroke="none" d="M 8866,3164 L 9352,3164 9352,2273 8866,2273 8866,3164 Z"/>
 <path fill="rgb(102,0,255)" stroke="none" d="M 3025,3429 L 3512,3429 3512,3117 3025,3117 3025,3429 Z"/>
 <path fill="rgb(102,255,0)" stroke="none" d="M 20546,3223 L 21033,3223 21033,3201 20546,3201 20546,3223 Z"/>
 <path fill="rgb(102,255,0)" stroke="none" d="M 15679,1950 L 16166,1950 16166,1875 15679,1875 15679,1950 Z"/>
 <path fill="rgb(102,255,0)" stroke="none" d="M 14707,1974 L 15192,1974 15192,1906 14707,1906 14707,1974 Z"/>
 <path fill="rgb(102,255,0)" stroke="none" d="M 8866,2273 L 9352,2273 9352,2238 8866,2238 8866,2273 Z"/>
 <path fill="rgb(102,255,0)" stroke="none" d="M 3025,3117 L 3512,3117 3512,3102 3025,3102 3025,3117 Z"/>
 <path fill="rgb(255,0,0)" stroke="none" d="M 20546,3201 L 21033,3201 21033,3072 20546,3072 20546,3201 Z"/>
 <path fill="rgb(255,0,0)" stroke="none" d="M 15679,1875 L 16166,1875 16166,1847 15679,1847 15679,1875 Z"/>
 <path fill="rgb(255,0,0)" stroke="none" d="M 14707,1906 L 15192,1906 15192,1881 14707,1881 14707,1906 Z"/>
 <path fill="rgb(255,0,0)" stroke="none" d="M 8866,2238 L 9352,2238 9352,2214 8866,2214 8866,2238 Z"/>
 <path fill="rgb(255,0,0)" stroke="none" d="M 3025,3102 L 3512,3102 3512,3083 3025,3083 3025,3102 Z"/>
 <path fill="rgb(0,120,38)" stroke="none" d="M 13733,4230 L 14220,4230 14220,2059 13733,2059 13733,4230 Z"/>
 <path fill="rgb(0,120,38)" stroke="none" d="M 12760,4230 L 13246,4230 13246,1871 12760,1871 12760,4230 Z"/>
 <path fill="rgb(0,120,38)" stroke="none" d="M 11786,4230 L 12273,4230 12273,1989 11786,1989 11786,4230 Z"/>
 <path fill="rgb(0,120,38)" stroke="none" d="M 10813,4230 L 11299,4230 11299,1928 10813,1928 10813,4230 Z"/>
 <path fill="rgb(0,120,38)" stroke="none" d="M 9839,4230 L 10326,4230 10326,2051 9839,2051 9839,4230 Z"/>
 <path fill="rgb(0,120,38)" stroke="none" d="M 7892,4230 L 8379,4230 8379,2492 7892,2492 7892,4230 Z"/>
 <path fill="rgb(0,120,38)" stroke="none" d="M 6919,4230 L 7405,4230 7405,2605 6919,2605 6919,4230 Z"/>
 <path fill="rgb(0,120,38)" stroke="none" d="M 5945,4230 L 6432,4230 6432,2848 5945,2848 5945,4230 Z"/>
 <path fill="rgb(0,120,38)" stroke="none" d="M 4972,4230 L 5459,4230 5459,2774 4972,2774 4972,4230 Z"/>
 <path fill="rgb(0,120,38)" stroke="none" d="M 3998,4230 L 4485,4230 4485,2981 3998,2981 3998,4230 Z"/>
 <path fill="none" stroke="rgb(204,0,0)" stroke-width="50" stroke-linejoin="round" d="M 3268,4033 L 4242,4334 5215,4614 6189,5446 7162,6131 8136,6054 9109,6009 10083,6223 11056,6557 12029,6904 13003,6375 13976,6564 14950,6677 15922,7235 20790,3602"/>
 <path fill="none" stroke="rgb(0,120,38)" stroke-width="50" stroke-linejoin="round" d="M 3268,3083 L 4242,2981 5215,2774 6189,2848 7162,2605 8136,2492 9109,2214 10083,2051 11056,1928 12029,1989 13003,1871 13976,2059 14950,1881 15922,1847 20790,3072"/>
 <path fill="none" stroke="rgb(0,0,153)" stroke-width="50" stroke-linejoin="round" d="M 3268,5181 L 4242,5584 5215,6070 6189,6828 7162,7755 8136,7791 9109,8024 10083,8401 11056,8858 12029,9145 13003,8733 13976,8735 14950,9025 15922,9618 20790,4760"/>
 <text class="SVGTextShape" transform="rotate(-44.9 2611 14587)"><tspan class="TextParagraph" font-family="Latin Modern Roman" font-size="564px" font-weight="400"><tspan class="TextPosition" x="2611" y="14587"><tspan fill="rgb(0,0,0)" stroke="none">1950</tspan></tspan></tspan></text>
 <text class="SVGTextShape" transform="rotate(-44.9 4558 14587)"><tspan class="TextParagraph" font-family="Latin Modern Roman" font-size="564px" font-weight="400"><tspan class="TextPosition" x="4558" y="14587"><tspan fill="rgb(0,0,0)" stroke="none">1960</tspan></tspan></tspan></text>
 <text class="SVGTextShape" transform="rotate(-44.9 6505 14587)"><tspan class="TextParagraph" font-family="Latin Modern Roman" font-size="564px" font-weight="400"><tspan class="TextPosition" x="6505" y="14587"><tspan fill="rgb(0,0,0)" stroke="none">1970</tspan></tspan></tspan></text>
 <text class="SVGTextShape" transform="rotate(-44.9 8452 14587)"><tspan class="TextParagraph" font-family="Latin Modern Roman" font-size="564px" font-weight="400"><tspan class="TextPosition" x="8452" y="14587"><tspan fill="rgb(0,0,0)" stroke="none">1980</tspan></tspan></tspan></text>
 <text class="SVGTextShape" transform="rotate(-44.9 10399 14587)"><tspan class="TextParagraph" font-family="Latin Modern Roman" font-size="564px" font-weight="400"><tspan class="TextPosition" x="10399" y="14587"><tspan fill="rgb(0,0,0)" stroke="none">1990</tspan></tspan></tspan></text>
 <text class="SVGTextShape" transform="rotate(-44.9 12346 14587)"><tspan class="TextParagraph" font-family="Latin Modern Roman" font-size="564px" font-weight="400"><tspan class="TextPosition" x="12346" y="14587"><tspan fill="rgb(0,0,0)" stroke="none">2000</tspan></tspan></tspan></text>
 <text class="SVGTextShape" transform="rotate(-44.9 14293 14587)"><tspan class="TextParagraph" font-family="Latin Modern Roman" font-size="564px" font-weight="400"><tspan class="TextPosition" x="14293" y="14587"><tspan fill="rgb(0,0,0)" stroke="none">2010</tspan></tspan></tspan></text>
 <text class="SVGTextShape" transform="rotate(-44.9 16240 14587)"><tspan class="TextParagraph" font-family="Latin Modern Roman" font-size="564px" font-weight="400"><tspan class="TextPosition" x="16240" y="14587"><tspan fill="rgb(0,0,0)" stroke="none">2020</tspan></tspan></tspan></text>
 <text class="SVGTextShape" transform="rotate(-44.9 18187 14587)"><tspan class="TextParagraph" font-family="Latin Modern Roman" font-size="564px" font-weight="400"><tspan class="TextPosition" x="18187" y="14587"><tspan fill="rgb(0,0,0)" stroke="none">2030</tspan></tspan></tspan></text>
 <text class="SVGTextShape" transform="rotate(-44.9 20134 14587)"><tspan class="TextParagraph" font-family="Latin Modern Roman" font-size="564px" font-weight="400"><tspan class="TextPosition" x="20134" y="14587"><tspan fill="rgb(0,0,0)" stroke="none">2040</tspan></tspan></tspan></text>
 <text class="SVGTextShape"><tspan class="TextParagraph" font-family="Latin Modern Roman" font-size="564px" font-weight="400"><tspan class="TextPosition" x="601" y="13303"><tspan fill="rgb(0,0,0)" stroke="none">-500 PJ</tspan></tspan></tspan></text>
 <text class="SVGTextShape"><tspan class="TextParagraph" font-family="Latin Modern Roman" font-size="564px" font-weight="400"><tspan class="TextPosition" x="601" y="11536"><tspan fill="rgb(0,0,0)" stroke="none">-400 PJ</tspan></tspan></tspan></text>
 <text class="SVGTextShape"><tspan class="TextParagraph" font-family="Latin Modern Roman" font-size="564px" font-weight="400"><tspan class="TextPosition" x="601" y="9769"><tspan fill="rgb(0,0,0)" stroke="none">-300 PJ</tspan></tspan></tspan></text>
 <text class="SVGTextShape"><tspan class="TextParagraph" font-family="Latin Modern Roman" font-size="564px" font-weight="400"><tspan class="TextPosition" x="601" y="8002"><tspan fill="rgb(0,0,0)" stroke="none">-200 PJ</tspan></tspan></tspan></text>
 <text class="SVGTextShape"><tspan class="TextParagraph" font-family="Latin Modern Roman" font-size="564px" font-weight="400"><tspan class="TextPosition" x="601" y="6235"><tspan fill="rgb(0,0,0)" stroke="none">-100 PJ</tspan></tspan></tspan></text>
 <text class="SVGTextShape"><tspan class="TextParagraph" font-family="Latin Modern Roman" font-size="564px" font-weight="400"><tspan class="TextPosition" x="1368" y="4468"><tspan fill="rgb(0,0,0)" stroke="none">0 PJ</tspan></tspan></tspan></text>
 <text class="SVGTextShape"><tspan class="TextParagraph" font-family="Latin Modern Roman" font-size="564px" font-weight="400"><tspan class="TextPosition" x="786" y="2701"><tspan fill="rgb(0,0,0)" stroke="none">100 PJ</tspan></tspan></tspan></text>
 <text class="SVGTextShape"><tspan class="TextParagraph" font-family="Latin Modern Roman" font-size="564px" font-weight="400"><tspan class="TextPosition" x="786" y="935"><tspan fill="rgb(0,0,0)" stroke="none">200 PJ</tspan></tspan></tspan></text>
 <path fill="rgb(51,51,51)" stroke="none" d="M 22491,13816 L 22091,13816 22091,13478 22891,13478 22891,13816 22491,13816 Z"/>
 <path fill="rgb(0,69,134)" stroke="none" d="M 22491,13050 L 22091,13050 22091,12712 22891,12712 22891,13050 22491,13050 Z"/>
 <path fill="rgb(255,149,14)" stroke="none" d="M 22491,12284 L 22091,12284 22091,11946 22891,11946 22891,12284 22491,12284 Z"/>
 <path fill="rgb(102,0,255)" stroke="none" d="M 22491,11518 L 22091,11518 22091,11180 22891,11180 22891,11518 22491,11518 Z"/>
 <path fill="rgb(75,31,111)" stroke="none" d="M 22491,10752 L 22091,10752 22091,10414 22891,10414 22891,10752 22491,10752 Z"/>
 <path fill="rgb(174,207,0)" stroke="none" d="M 22491,9986 L 22091,9986 22091,9648 22891,9648 22891,9986 22491,9986 Z"/>
 <path fill="rgb(49,64,4)" stroke="none" d="M 22491,9220 L 22091,9220 22091,8882 22891,8882 22891,9220 22491,9220 Z"/>
 <path fill="rgb(131,202,255)" stroke="none" d="M 22491,8454 L 22091,8454 22091,8116 22891,8116 22891,8454 22491,8454 Z"/>
 <path fill="rgb(126,0,33)" stroke="none" d="M 22491,7688 L 22091,7688 22091,7351 22891,7351 22891,7688 22491,7688 Z"/>
 <path fill="rgb(87,157,28)" stroke="none" d="M 22491,6923 L 22091,6923 22091,6585 22891,6585 22891,6923 22491,6923 Z"/>
 <path fill="rgb(255,211,32)" stroke="none" d="M 22491,6157 L 22091,6157 22091,5819 22891,5819 22891,6157 22491,6157 Z"/>
 <path fill="rgb(255,66,14)" stroke="none" d="M 22491,5391 L 22091,5391 22091,5053 22891,5053 22891,5391 22491,5391 Z"/>
 <path fill="rgb(0,0,153)" stroke="none" d="M 22491,4625 L 22091,4625 22091,4287 22891,4287 22891,4625 22491,4625 Z"/>
 <path fill="rgb(0,204,204)" stroke="none" d="M 22491,3859 L 22091,3859 22091,3521 22891,3521 22891,3859 22491,3859 Z"/>
 <path fill="rgb(102,0,255)" stroke="none" d="M 22491,3093 L 22091,3093 22091,2755 22891,2755 22891,3093 22491,3093 Z"/>
 <path fill="rgb(102,255,0)" stroke="none" d="M 22491,2327 L 22091,2327 22091,1989 22891,1989 22891,2327 22491,2327 Z"/>
 <path fill="rgb(255,0,0)" stroke="none" d="M 22491,1561 L 22091,1561 22091,1223 22891,1223 22891,1561 22491,1561 Z"/>
 <path fill="rgb(0,120,38)" stroke="none" d="M 22491,795 L 22091,795 22091,457 22891,457 22891,795 22491,795 Z"/>
 <path fill="none" stroke="rgb(204,0,0)" stroke-width="50" stroke-linejoin="round" d="M 22091,14413 L 22891,14413"/>
 <text class="SVGTextShape"><tspan class="TextParagraph" font-family="Latin Modern Roman Caps" font-size="564px" font-weight="400"><tspan class="TextPosition" x="23015" y="851"><tspan fill="rgb(0,0,0)" stroke="none">output </tspan></tspan></tspan></text>
 <text class="SVGTextShape"><tspan class="TextParagraph" font-family="Latin Modern Roman Caps" font-size="564px" font-weight="400"><tspan class="TextPosition" x="23015" y="1617"><tspan fill="rgb(0,0,0)" stroke="none">fruit</tspan></tspan></tspan></text>
 <text class="SVGTextShape"><tspan class="TextParagraph" font-family="Latin Modern Roman Caps" font-size="564px" font-weight="400"><tspan class="TextPosition" x="23015" y="2383"><tspan fill="rgb(0,0,0)" stroke="none">groenten</tspan></tspan></tspan></text>
 <text class="SVGTextShape"><tspan class="TextParagraph" font-family="Latin Modern Roman Caps" font-size="564px" font-weight="400"><tspan class="TextPosition" x="23015" y="3149"><tspan fill="rgb(0,0,0)" stroke="none">veehouderij</tspan></tspan></tspan></text>
 <text class="SVGTextShape"><tspan class="TextParagraph" font-family="Latin Modern Roman Caps" font-size="564px" font-weight="400"><tspan class="TextPosition" x="23015" y="3915"><tspan fill="rgb(0,0,0)" stroke="none">akkerbouw</tspan></tspan></tspan></text>
 <text class="SVGTextShape"><tspan class="TextParagraph" font-family="Latin Modern Roman Caps" font-size="564px" font-weight="400"><tspan class="TextPosition" x="23015" y="4681"><tspan fill="rgb(0,0,0)" stroke="none">indirecte input</tspan></tspan></tspan></text>
 <text class="SVGTextShape"><tspan class="TextParagraph" font-family="Latin Modern Roman Caps" font-size="564px" font-weight="400"><tspan class="TextPosition" x="23015" y="5447"><tspan fill="rgb(0,0,0)" stroke="none">dienstensector </tspan></tspan></tspan></text>
 <text class="SVGTextShape"><tspan class="TextParagraph" font-family="Latin Modern Roman Caps" font-size="564px" font-weight="400"><tspan class="TextPosition" x="23015" y="6213"><tspan fill="rgb(0,0,0)" stroke="none">elektronica </tspan></tspan></tspan></text>
 <text class="SVGTextShape"><tspan class="TextParagraph" font-family="Latin Modern Roman Caps" font-size="564px" font-weight="400"><tspan class="TextPosition" x="23015" y="6979"><tspan fill="rgb(0,0,0)" stroke="none">bestrijdingsmiddelen </tspan></tspan></tspan></text>
 <text class="SVGTextShape"><tspan class="TextParagraph" font-family="Latin Modern Roman Caps" font-size="564px" font-weight="400"><tspan class="TextPosition" x="23015" y="7744"><tspan fill="rgb(0,0,0)" stroke="none">kunstmest </tspan></tspan></tspan></text>
 <text class="SVGTextShape"><tspan class="TextParagraph" font-family="Latin Modern Roman Caps" font-size="564px" font-weight="400"><tspan class="TextPosition" x="23015" y="8510"><tspan fill="rgb(0,0,0)" stroke="none">dierlijke mest </tspan></tspan></tspan></text>
 <text class="SVGTextShape"><tspan class="TextParagraph" font-family="Latin Modern Roman Caps" font-size="564px" font-weight="400"><tspan class="TextPosition" x="23015" y="9276"><tspan fill="rgb(0,0,0)" stroke="none">veevoer </tspan></tspan></tspan></text>
 <text class="SVGTextShape"><tspan class="TextParagraph" font-family="Latin Modern Roman Caps" font-size="564px" font-weight="400"><tspan class="TextPosition" x="23015" y="10042"><tspan fill="rgb(0,0,0)" stroke="none">trekkers en machines </tspan></tspan></tspan></text>
 <text class="SVGTextShape"><tspan class="TextParagraph" font-family="Latin Modern Roman Caps" font-size="564px" font-weight="400"><tspan class="TextPosition" x="23015" y="10808"><tspan fill="rgb(0,0,0)" stroke="none">overige gebouwen </tspan></tspan></tspan></text>
 <text class="SVGTextShape"><tspan class="TextParagraph" font-family="Latin Modern Roman Caps" font-size="564px" font-weight="400"><tspan class="TextPosition" x="23015" y="11574"><tspan fill="rgb(0,0,0)" stroke="none">kassen </tspan></tspan></tspan></text>
 <text class="SVGTextShape"><tspan class="TextParagraph" font-family="Latin Modern Roman Caps" font-size="564px" font-weight="400"><tspan class="TextPosition" x="23015" y="12340"><tspan fill="rgb(0,0,0)" stroke="none">mijnbouw </tspan></tspan></tspan></text>
 <text class="SVGTextShape"><tspan class="TextParagraph" font-family="Latin Modern Roman Caps" font-size="564px" font-weight="400"><tspan class="TextPosition" x="23015" y="13106"><tspan fill="rgb(0,0,0)" stroke="none">transport en infrastr. </tspan></tspan></tspan></text>
 <text class="SVGTextShape"><tspan class="TextParagraph" font-family="Latin Modern Roman Caps" font-size="564px" font-weight="400"><tspan class="TextPosition" x="23015" y="13872"><tspan fill="rgb(0,0,0)" stroke="none">directe input</tspan></tspan></tspan></text>
 <text class="SVGTextShape"><tspan class="TextParagraph" font-family="Latin Modern Roman Caps" font-size="564px" font-weight="400"><tspan class="TextPosition" x="23015" y="14638"><tspan fill="rgb(0,0,0)" stroke="none">netto energiebalans</tspan></tspan></tspan></text>
</svg>