<?xml version="1.0" encoding="UTF-8"?>
<!DOCTYPE svg PUBLIC "-//W3C//DTD SVG 1.1//EN" "http://www.w3.org/Graphics/SVG/1.1/DTD/svg11.dtd">
<svg width="150mm" height="75mm" viewBox="0 0 15000 7500" version="1.1" xmlns="http://www.w3.org/2000/svg" xmlns:xlink="http://www.w3.org/1999/xlink" stroke-width="28.222" stroke-linejoin="round" xml:space="preserve">
 <path fill="rgb(255,255,255)" stroke="none" d="M 7500,7500 L 0,7500 0,0 15000,0 15000,7500 7500,7500 Z"/>
 <path fill="none" stroke="rgb(179,179,179)" stroke-linejoin="round" d="M 8241,5805 L 2125,5805 2125,239 14358,239 14358,5805 8241,5805 Z"/>
 <path fill="none" stroke="rgb(179,179,179)" stroke-linejoin="round" d="M 14358,5804 L 2125,5804"/>
 <path fill="none" stroke="rgb(179,179,179)" stroke-linejoin="round" d="M 14358,5185 L 2125,5185"/>
 <path fill="none" stroke="rgb(179,179,179)" stroke-linejoin="round" d="M 14358,4566 L 2125,4566"/>
 <path fill="none" stroke="rgb(179,179,179)" stroke-linejoin="round" d="M 14358,3948 L 2125,3948"/>
 <path fill="none" stroke="rgb(179,179,179)" stroke-linejoin="round" d="M 14358,3330 L 2125,3330"/>
 <path fill="none" stroke="rgb(179,179,179)" stroke-linejoin="round" d="M 14358,2712 L 2125,2712"/>
 <path fill="none" stroke="rgb(179,179,179)" stroke-linejoin="round" d="M 14358,2093 L 2125,2093"/>
 <path fill="none" stroke="rgb(179,179,179)" stroke-linejoin="round" d="M 14358,1475 L 2125,1475"/>
 <path fill="none" stroke="rgb(179,179,179)" stroke-linejoin="round" d="M 14358,856 L 2125,856"/>
 <path fill="none" stroke="rgb(179,179,179)" stroke-linejoin="round" d="M 14358,238 L 2125,238"/>
 <path fill="none" stroke="rgb(179,179,179)" stroke-linejoin="round" d="M 2125,5954 L 2125,5804"/>
 <path fill="none" stroke="rgb(179,179,179)" stroke-linejoin="round" d="M 2125,5954 L 2125,5804"/>
 <path fill="none" stroke="rgb(179,179,179)" stroke-linejoin="round" d="M 3066,5954 L 3066,5804"/>
 <path fill="none" stroke="rgb(179,179,179)" stroke-linejoin="round" d="M 3066,5954 L 3066,5804"/>
 <path fill="none" stroke="rgb(179,179,179)" stroke-linejoin="round" d="M 4007,5954 L 4007,5804"/>
 <path fill="none" stroke="rgb(179,179,179)" stroke-linejoin="round" d="M 4007,5954 L 4007,5804"/>
 <path fill="none" stroke="rgb(179,179,179)" stroke-linejoin="round" d="M 4948,5954 L 4948,5804"/>
 <path fill="none" stroke="rgb(179,179,179)" stroke-linejoin="round" d="M 4948,5954 L 4948,5804"/>
 <path fill="none" stroke="rgb(179,179,179)" stroke-linejoin="round" d="M 5889,5954 L 5889,5804"/>
 <path fill="none" stroke="rgb(179,179,179)" stroke-linejoin="round" d="M 5889,5954 L 5889,5804"/>
 <path fill="none" stroke="rgb(179,179,179)" stroke-linejoin="round" d="M 6830,5954 L 6830,5804"/>
 <path fill="none" stroke="rgb(179,179,179)" stroke-linejoin="round" d="M 6830,5954 L 6830,5804"/>
 <path fill="none" stroke="rgb(179,179,179)" stroke-linejoin="round" d="M 7770,5954 L 7770,5804"/>
 <path fill="none" stroke="rgb(179,179,179)" stroke-linejoin="round" d="M 7770,5954 L 7770,5804"/>
 <path fill="none" stroke="rgb(179,179,179)" stroke-linejoin="round" d="M 8711,5954 L 8711,5804"/>
 <path fill="none" stroke="rgb(179,179,179)" stroke-linejoin="round" d="M 8711,5954 L 8711,5804"/>
 <path fill="none" stroke="rgb(179,179,179)" stroke-linejoin="round" d="M 9652,5954 L 9652,5804"/>
 <path fill="none" stroke="rgb(179,179,179)" stroke-linejoin="round" d="M 9652,5954 L 9652,5804"/>
 <path fill="none" stroke="rgb(179,179,179)" stroke-linejoin="round" d="M 10593,5954 L 10593,5804"/>
 <path fill="none" stroke="rgb(179,179,179)" stroke-linejoin="round" d="M 10593,5954 L 10593,5804"/>
 <path fill="none" stroke="rgb(179,179,179)" stroke-linejoin="round" d="M 11534,5954 L 11534,5804"/>
 <path fill="none" stroke="rgb(179,179,179)" stroke-linejoin="round" d="M 11534,5954 L 11534,5804"/>
 <path fill="none" stroke="rgb(179,179,179)" stroke-linejoin="round" d="M 12475,5954 L 12475,5804"/>
 <path fill="none" stroke="rgb(179,179,179)" stroke-linejoin="round" d="M 12475,5954 L 12475,5804"/>
 <path fill="none" stroke="rgb(179,179,179)" stroke-linejoin="round" d="M 13416,5954 L 13416,5804"/>
 <path fill="none" stroke="rgb(179,179,179)" stroke-linejoin="round" d="M 13416,5954 L 13416,5804"/>
 <path fill="none" stroke="rgb(179,179,179)" stroke-linejoin="round" d="M 14358,5954 L 14358,5804"/>
 <path fill="none" stroke="rgb(179,179,179)" stroke-linejoin="round" d="M 14358,5954 L 14358,5804"/>
 <path fill="none" stroke="rgb(179,179,179)" stroke-linejoin="round" d="M 2125,5804 L 14358,5804"/>
 <path fill="none" stroke="rgb(179,179,179)" stroke-linejoin="round" d="M 1975,5804 L 2125,5804"/>
 <path fill="none" stroke="rgb(179,179,179)" stroke-linejoin="round" d="M 1975,5804 L 2125,5804"/>
 <path fill="none" stroke="rgb(179,179,179)" stroke-linejoin="round" d="M 1975,5185 L 2125,5185"/>
 <path fill="none" stroke="rgb(179,179,179)" stroke-linejoin="round" d="M 1975,5185 L 2125,5185"/>
 <path fill="none" stroke="rgb(179,179,179)" stroke-linejoin="round" d="M 1975,4566 L 2125,4566"/>
 <path fill="none" stroke="rgb(179,179,179)" stroke-linejoin="round" d="M 1975,4566 L 2125,4566"/>
 <path fill="none" stroke="rgb(179,179,179)" stroke-linejoin="round" d="M 1975,3948 L 2125,3948"/>
 <path fill="none" stroke="rgb(179,179,179)" stroke-linejoin="round" d="M 1975,3948 L 2125,3948"/>
 <path fill="none" stroke="rgb(179,179,179)" stroke-linejoin="round" d="M 1975,3330 L 2125,3330"/>
 <path fill="none" stroke="rgb(179,179,179)" stroke-linejoin="round" d="M 1975,3330 L 2125,3330"/>
 <path fill="none" stroke="rgb(179,179,179)" stroke-linejoin="round" d="M 1975,2712 L 2125,2712"/>
 <path fill="none" stroke="rgb(179,179,179)" stroke-linejoin="round" d="M 1975,2712 L 2125,2712"/>
 <path fill="none" stroke="rgb(179,179,179)" stroke-linejoin="round" d="M 1975,2093 L 2125,2093"/>
 <path fill="none" stroke="rgb(179,179,179)" stroke-linejoin="round" d="M 1975,2093 L 2125,2093"/>
 <path fill="none" stroke="rgb(179,179,179)" stroke-linejoin="round" d="M 1975,1475 L 2125,1475"/>
 <path fill="none" stroke="rgb(179,179,179)" stroke-linejoin="round" d="M 1975,1475 L 2125,1475"/>
 <path fill="none" stroke="rgb(179,179,179)" stroke-linejoin="round" d="M 1975,856 L 2125,856"/>
 <path fill="none" stroke="rgb(179,179,179)" stroke-linejoin="round" d="M 1975,856 L 2125,856"/>
 <path fill="none" stroke="rgb(179,179,179)" stroke-linejoin="round" d="M 1975,238 L 2125,238"/>
 <path fill="none" stroke="rgb(179,179,179)" stroke-linejoin="round" d="M 1975,238 L 2125,238"/>
 <path fill="none" stroke="rgb(179,179,179)" stroke-linejoin="round" d="M 2125,5804 L 2125,238"/>
 <path fill="none" stroke="rgb(255,212,40)" stroke-width="80" stroke-linejoin="round" d="M 2125,3207 L 14358,3207"/>
 <path fill="none" stroke="rgb(232,162,2)" stroke-width="80" stroke-linejoin="round" d="M 2125,4072 L 14358,4072"/>
 <path fill="none" stroke="rgb(0,69,134)" stroke-width="50" stroke-linejoin="round" d="M 2125,2921 L 3066,3124 4007,3278 4948,3504 5889,3748 6830,3903 7770,4033 8711,4078 9652,4131 10593,4217 11534,4265 12475,4321 13416,4410 14358,4456"/>
 <path fill="rgb(0,69,134)" stroke="none" d="M 2000,2796 L 2000,3046 2250,3046 2250,2796 2000,2796 Z"/>
 <path fill="none" stroke="rgb(0,69,134)" stroke-linejoin="round" d="M 2000,2796 L 2000,3046 2250,3046 2250,2796 2000,2796 Z"/>
 <path fill="rgb(0,69,134)" stroke="none" d="M 2941,2999 L 2941,3249 3191,3249 3191,2999 2941,2999 Z"/>
 <path fill="none" stroke="rgb(0,69,134)" stroke-linejoin="round" d="M 2941,2999 L 2941,3249 3191,3249 3191,2999 2941,2999 Z"/>
 <path fill="rgb(0,69,134)" stroke="none" d="M 3882,3153 L 3882,3403 4132,3403 4132,3153 3882,3153 Z"/>
 <path fill="none" stroke="rgb(0,69,134)" stroke-linejoin="round" d="M 3882,3153 L 3882,3403 4132,3403 4132,3153 3882,3153 Z"/>
 <path fill="rgb(0,69,134)" stroke="none" d="M 4823,3379 L 4823,3629 5073,3629 5073,3379 4823,3379 Z"/>
 <path fill="none" stroke="rgb(0,69,134)" stroke-linejoin="round" d="M 4823,3379 L 4823,3629 5073,3629 5073,3379 4823,3379 Z"/>
 <path fill="rgb(0,69,134)" stroke="none" d="M 5764,3623 L 5764,3872 6014,3872 6014,3623 5764,3623 Z"/>
 <path fill="none" stroke="rgb(0,69,134)" stroke-linejoin="round" d="M 5764,3623 L 5764,3872 6014,3872 6014,3623 5764,3623 Z"/>
 <path fill="rgb(0,69,134)" stroke="none" d="M 6705,3778 L 6705,4028 6955,4028 6955,3778 6705,3778 Z"/>
 <path fill="none" stroke="rgb(0,69,134)" stroke-linejoin="round" d="M 6705,3778 L 6705,4028 6955,4028 6955,3778 6705,3778 Z"/>
 <path fill="rgb(0,69,134)" stroke="none" d="M 7645,3908 L 7645,4158 7895,4158 7895,3908 7645,3908 Z"/>
 <path fill="none" stroke="rgb(0,69,134)" stroke-linejoin="round" d="M 7645,3908 L 7645,4158 7895,4158 7895,3908 7645,3908 Z"/>
 <path fill="rgb(0,69,134)" stroke="none" d="M 8586,3953 L 8586,4203 8836,4203 8836,3953 8586,3953 Z"/>
 <path fill="none" stroke="rgb(0,69,134)" stroke-linejoin="round" d="M 8586,3953 L 8586,4203 8836,4203 8836,3953 8586,3953 Z"/>
 <path fill="rgb(0,69,134)" stroke="none" d="M 9527,4006 L 9527,4256 9777,4256 9777,4006 9527,4006 Z"/>
 <path fill="none" stroke="rgb(0,69,134)" stroke-linejoin="round" d="M 9527,4006 L 9527,4256 9777,4256 9777,4006 9527,4006 Z"/>
 <path fill="rgb(0,69,134)" stroke="none" d="M 10468,4092 L 10468,4342 10718,4342 10718,4092 10468,4092 Z"/>
 <path fill="none" stroke="rgb(0,69,134)" stroke-linejoin="round" d="M 10468,4092 L 10468,4342 10718,4342 10718,4092 10468,4092 Z"/>
 <path fill="rgb(0,69,134)" stroke="none" d="M 11409,4140 L 11409,4390 11659,4390 11659,4140 11409,4140 Z"/>
 <path fill="none" stroke="rgb(0,69,134)" stroke-linejoin="round" d="M 11409,4140 L 11409,4390 11659,4390 11659,4140 11409,4140 Z"/>
 <path fill="rgb(0,69,134)" stroke="none" d="M 12350,4196 L 12350,4446 12600,4446 12600,4196 12350,4196 Z"/>
 <path fill="none" stroke="rgb(0,69,134)" stroke-linejoin="round" d="M 12350,4196 L 12350,4446 12600,4446 12600,4196 12350,4196 Z"/>
 <path fill="rgb(0,69,134)" stroke="none" d="M 13291,4285 L 13291,4535 13541,4535 13541,4285 13291,4285 Z"/>
 <path fill="none" stroke="rgb(0,69,134)" stroke-linejoin="round" d="M 13291,4285 L 13291,4535 13541,4535 13541,4285 13291,4285 Z"/>
 <path fill="rgb(0,69,134)" stroke="none" d="M 14233,4331 L 14233,4581 14483,4581 14483,4331 14233,4331 Z"/>
 <path fill="none" stroke="rgb(0,69,134)" stroke-linejoin="round" d="M 14233,4331 L 14233,4581 14483,4581 14483,4331 14233,4331 Z"/>
 <path fill="none" stroke="rgb(255,66,14)" stroke-width="50" stroke-linejoin="round" d="M 2125,2451 L 3066,1846 4007,1412 4948,1711 5889,1451 6830,1024 7770,1037 8711,863 9652,1229 10593,1447 11534,1928 12475,2008 13416,2238 14358,2130"/>
 <path fill="rgb(255,66,14)" stroke="none" d="M 2000,2451 L 2125,2576 2250,2451 2125,2326 2000,2451 Z"/>
 <path fill="none" stroke="rgb(255,66,14)" stroke-linejoin="round" d="M 2000,2451 L 2125,2576 2250,2451 2125,2326 2000,2451 Z"/>
 <path fill="rgb(255,66,14)" stroke="none" d="M 2941,1846 L 3066,1971 3191,1846 3066,1721 2941,1846 Z"/>
 <path fill="none" stroke="rgb(255,66,14)" stroke-linejoin="round" d="M 2941,1846 L 3066,1971 3191,1846 3066,1721 2941,1846 Z"/>
 <path fill="rgb(255,66,14)" stroke="none" d="M 3882,1412 L 4007,1537 4132,1412 4007,1287 3882,1412 Z"/>
 <path fill="none" stroke="rgb(255,66,14)" stroke-linejoin="round" d="M 3882,1412 L 4007,1537 4132,1412 4007,1287 3882,1412 Z"/>
 <path fill="rgb(255,66,14)" stroke="none" d="M 4823,1711 L 4948,1836 5073,1711 4948,1586 4823,1711 Z"/>
 <path fill="none" stroke="rgb(255,66,14)" stroke-linejoin="round" d="M 4823,1711 L 4948,1836 5073,1711 4948,1586 4823,1711 Z"/>
 <path fill="rgb(255,66,14)" stroke="none" d="M 5764,1451 L 5889,1576 6014,1451 5889,1326 5764,1451 Z"/>
 <path fill="none" stroke="rgb(255,66,14)" stroke-linejoin="round" d="M 5764,1451 L 5889,1576 6014,1451 5889,1326 5764,1451 Z"/>
 <path fill="rgb(255,66,14)" stroke="none" d="M 6705,1024 L 6830,1149 6955,1024 6830,899 6705,1024 Z"/>
 <path fill="none" stroke="rgb(255,66,14)" stroke-linejoin="round" d="M 6705,1024 L 6830,1149 6955,1024 6830,899 6705,1024 Z"/>
 <path fill="rgb(255,66,14)" stroke="none" d="M 7645,1037 L 7770,1162 7895,1037 7770,912 7645,1037 Z"/>
 <path fill="none" stroke="rgb(255,66,14)" stroke-linejoin="round" d="M 7645,1037 L 7770,1162 7895,1037 7770,912 7645,1037 Z"/>
 <path fill="rgb(255,66,14)" stroke="none" d="M 8586,863 L 8711,988 8836,863 8711,738 8586,863 Z"/>
 <path fill="none" stroke="rgb(255,66,14)" stroke-linejoin="round" d="M 8586,863 L 8711,988 8836,863 8711,738 8586,863 Z"/>
 <path fill="rgb(255,66,14)" stroke="none" d="M 9527,1229 L 9652,1354 9777,1229 9652,1104 9527,1229 Z"/>
 <path fill="none" stroke="rgb(255,66,14)" stroke-linejoin="round" d="M 9527,1229 L 9652,1354 9777,1229 9652,1104 9527,1229 Z"/>
 <path fill="rgb(255,66,14)" stroke="none" d="M 10468,1447 L 10593,1572 10718,1447 10593,1322 10468,1447 Z"/>
 <path fill="none" stroke="rgb(255,66,14)" stroke-linejoin="round" d="M 10468,1447 L 10593,1572 10718,1447 10593,1322 10468,1447 Z"/>
 <path fill="rgb(255,66,14)" stroke="none" d="M 11409,1928 L 11534,2053 11659,1928 11534,1803 11409,1928 Z"/>
 <path fill="none" stroke="rgb(255,66,14)" stroke-linejoin="round" d="M 11409,1928 L 11534,2053 11659,1928 11534,1803 11409,1928 Z"/>
 <path fill="rgb(255,66,14)" stroke="none" d="M 12350,2008 L 12475,2133 12600,2008 12475,1883 12350,2008 Z"/>
 <path fill="none" stroke="rgb(255,66,14)" stroke-linejoin="round" d="M 12350,2008 L 12475,2133 12600,2008 12475,1883 12350,2008 Z"/>
 <path fill="rgb(255,66,14)" stroke="none" d="M 13291,2238 L 13416,2363 13541,2238 13416,2113 13291,2238 Z"/>
 <path fill="none" stroke="rgb(255,66,14)" stroke-linejoin="round" d="M 13291,2238 L 13416,2363 13541,2238 13416,2113 13291,2238 Z"/>
 <path fill="rgb(255,66,14)" stroke="none" d="M 14233,2130 L 14358,2255 14483,2130 14358,2005 14233,2130 Z"/>
 <path fill="none" stroke="rgb(255,66,14)" stroke-linejoin="round" d="M 14233,2130 L 14358,2255 14483,2130 14358,2005 14233,2130 Z"/>
 <text class="SVGTextShape" transform="rotate(-44.9 1759 6729)"><tspan class="TextParagraph" font-family="Latin Modern Roman" font-size="282px" font-weight="400"><tspan class="TextPosition" x="1759" y="6729"><tspan fill="rgb(0,0,0)" stroke="none">1950</tspan></tspan></tspan></text>
 <text class="SVGTextShape" transform="rotate(-44.9 2700 6729)"><tspan class="TextParagraph" font-family="Latin Modern Roman" font-size="282px" font-weight="400"><tspan class="TextPosition" x="2700" y="6729"><tspan fill="rgb(0,0,0)" stroke="none">1955</tspan></tspan></tspan></text>
 <text class="SVGTextShape" transform="rotate(-44.9 3641 6729)"><tspan class="TextParagraph" font-family="Latin Modern Roman" font-size="282px" font-weight="400"><tspan class="TextPosition" x="3641" y="6729"><tspan fill="rgb(0,0,0)" stroke="none">1960</tspan></tspan></tspan></text>
 <text class="SVGTextShape" transform="rotate(-44.9 4582 6729)"><tspan class="TextParagraph" font-family="Latin Modern Roman" font-size="282px" font-weight="400"><tspan class="TextPosition" x="4582" y="6729"><tspan fill="rgb(0,0,0)" stroke="none">1965</tspan></tspan></tspan></text>
 <text class="SVGTextShape" transform="rotate(-44.9 5523 6729)"><tspan class="TextParagraph" font-family="Latin Modern Roman" font-size="282px" font-weight="400"><tspan class="TextPosition" x="5523" y="6729"><tspan fill="rgb(0,0,0)" stroke="none">1970</tspan></tspan></tspan></text>
 <text class="SVGTextShape" transform="rotate(-44.9 6464 6729)"><tspan class="TextParagraph" font-family="Latin Modern Roman" font-size="282px" font-weight="400"><tspan class="TextPosition" x="6464" y="6729"><tspan fill="rgb(0,0,0)" stroke="none">1975</tspan></tspan></tspan></text>
 <text class="SVGTextShape" transform="rotate(-44.9 7405 6729)"><tspan class="TextParagraph" font-family="Latin Modern Roman" font-size="282px" font-weight="400"><tspan class="TextPosition" x="7405" y="6729"><tspan fill="rgb(0,0,0)" stroke="none">1980</tspan></tspan></tspan></text>
 <text class="SVGTextShape" transform="rotate(-44.9 8346 6729)"><tspan class="TextParagraph" font-family="Latin Modern Roman" font-size="282px" font-weight="400"><tspan class="TextPosition" x="8346" y="6729"><tspan fill="rgb(0,0,0)" stroke="none">1985</tspan></tspan></tspan></text>
 <text class="SVGTextShape" transform="rotate(-44.9 9287 6729)"><tspan class="TextParagraph" font-family="Latin Modern Roman" font-size="282px" font-weight="400"><tspan class="TextPosition" x="9287" y="6729"><tspan fill="rgb(0,0,0)" stroke="none">1990</tspan></tspan></tspan></text>
 <text class="SVGTextShape" transform="rotate(-44.9 10228 6729)"><tspan class="TextParagraph" font-family="Latin Modern Roman" font-size="282px" font-weight="400"><tspan class="TextPosition" x="10228" y="6729"><tspan fill="rgb(0,0,0)" stroke="none">1995</tspan></tspan></tspan></text>
 <text class="SVGTextShape" transform="rotate(-44.9 11168 6729)"><tspan class="TextParagraph" font-family="Latin Modern Roman" font-size="282px" font-weight="400"><tspan class="TextPosition" x="11168" y="6729"><tspan fill="rgb(0,0,0)" stroke="none">2000</tspan></tspan></tspan></text>
 <text class="SVGTextShape" transform="rotate(-44.9 12109 6729)"><tspan class="TextParagraph" font-family="Latin Modern Roman" font-size="282px" font-weight="400"><tspan class="TextPosition" x="12109" y="6729"><tspan fill="rgb(0,0,0)" stroke="none">2005</tspan></tspan></tspan></text>
 <text class="SVGTextShape" transform="rotate(-44.9 13050 6729)"><tspan class="TextParagraph" font-family="Latin Modern Roman" font-size="282px" font-weight="400"><tspan class="TextPosition" x="13050" y="6729"><tspan fill="rgb(0,0,0)" stroke="none">2010</tspan></tspan></tspan></text>
 <text class="SVGTextShape" transform="rotate(-44.9 13992 6729)"><tspan class="TextParagraph" font-family="Latin Modern Roman" font-size="282px" font-weight="400"><tspan class="TextPosition" x="13992" y="6729"><tspan fill="rgb(0,0,0)" stroke="none">2015</tspan></tspan></tspan></text>
 <text class="SVGTextShape"><tspan class="TextParagraph" font-family="Latin Modern Roman" font-size="282px" font-weight="400"><tspan class="TextPosition" x="552" y="5925"><tspan fill="rgb(0,0,0)" stroke="none">0 are/pers</tspan></tspan></tspan></text>
 <text class="SVGTextShape"><tspan class="TextParagraph" font-family="Latin Modern Roman" font-size="282px" font-weight="400"><tspan class="TextPosition" x="552" y="5306"><tspan fill="rgb(0,0,0)" stroke="none">5 are/pers</tspan></tspan></tspan></text>
 <text class="SVGTextShape"><tspan class="TextParagraph" font-family="Latin Modern Roman" font-size="282px" font-weight="400"><tspan class="TextPosition" x="393" y="4687"><tspan fill="rgb(0,0,0)" stroke="none">10 are/pers</tspan></tspan></tspan></text>
 <text class="SVGTextShape"><tspan class="TextParagraph" font-family="Latin Modern Roman" font-size="282px" font-weight="400"><tspan class="TextPosition" x="393" y="4069"><tspan fill="rgb(0,0,0)" stroke="none">15 are/pers</tspan></tspan></tspan></text>
 <text class="SVGTextShape"><tspan class="TextParagraph" font-family="Latin Modern Roman" font-size="282px" font-weight="400"><tspan class="TextPosition" x="393" y="3450"><tspan fill="rgb(0,0,0)" stroke="none">20 are/pers</tspan></tspan></tspan></text>
 <text class="SVGTextShape"><tspan class="TextParagraph" font-family="Latin Modern Roman" font-size="282px" font-weight="400"><tspan class="TextPosition" x="393" y="2832"><tspan fill="rgb(0,0,0)" stroke="none">25 are/pers</tspan></tspan></tspan></text>
 <text class="SVGTextShape"><tspan class="TextParagraph" font-family="Latin Modern Roman" font-size="282px" font-weight="400"><tspan class="TextPosition" x="393" y="2213"><tspan fill="rgb(0,0,0)" stroke="none">30 are/pers</tspan></tspan></tspan></text>
 <text class="SVGTextShape"><tspan class="TextParagraph" font-family="Latin Modern Roman" font-size="282px" font-weight="400"><tspan class="TextPosition" x="393" y="1595"><tspan fill="rgb(0,0,0)" stroke="none">35 are/pers</tspan></tspan></tspan></text>
 <text class="SVGTextShape"><tspan class="TextParagraph" font-family="Latin Modern Roman" font-size="282px" font-weight="400"><tspan class="TextPosition" x="393" y="976"><tspan fill="rgb(0,0,0)" stroke="none">40 are/pers</tspan></tspan></tspan></text>
 <text class="SVGTextShape"><tspan class="TextParagraph" font-family="Latin Modern Roman" font-size="282px" font-weight="400"><tspan class="TextPosition" x="393" y="358"><tspan fill="rgb(0,0,0)" stroke="none">45 are/pers</tspan></tspan></tspan></text>
 <path fill="none" stroke="rgb(0,69,134)" stroke-width="50" stroke-linejoin="round" d="M 4256,7199 L 5056,7199"/>
 <path fill="rgb(0,69,134)" stroke="none" d="M 4571,7115 L 4571,7284 4740,7284 4740,7115 4571,7115 Z"/>
 <path fill="none" stroke="rgb(0,69,134)" stroke-linejoin="round" d="M 4571,7115 L 4571,7284 4740,7284 4740,7115 4571,7115 Z"/>
 <path fill="none" stroke="rgb(255,66,14)" stroke-width="50" stroke-linejoin="round" d="M 7539,7199 L 8339,7199"/>
 <path fill="rgb(255,66,14)" stroke="none" d="M 7854,7199 L 7939,7284 8023,7199 7939,7115 7854,7199 Z"/>
 <path fill="none" stroke="rgb(255,66,14)" stroke-linejoin="round" d="M 7854,7199 L 7939,7284 8023,7199 7939,7115 7854,7199 Z"/>
 <text class="SVGTextShape"><tspan class="TextParagraph" font-family="Latin Modern Roman Caps" font-size="282px" font-weight="400"><tspan class="TextPosition" x="5156" y="7319"><tspan fill="rgb(0,0,0)" stroke="none">Direct areaal</tspan></tspan></tspan></text>
 <text class="SVGTextShape"><tspan class="TextParagraph" font-family="Latin Modern Roman Caps" font-size="282px" font-weight="400"><tspan class="TextPosition" x="8439" y="7319"><tspan fill="rgb(0,0,0)" stroke="none">Totaal areaal</tspan></tspan></tspan></text>
</svg>