<?xml version="1.0" encoding="UTF-8"?>
<!DOCTYPE svg PUBLIC "-//W3C//DTD SVG 1.1//EN" "http://www.w3.org/Graphics/SVG/1.1/DTD/svg11.dtd">
<svg width="300mm" height="150mm" viewBox="0 0 30000 15000" version="1.1" xmlns="http://www.w3.org/2000/svg" xmlns:xlink="http://www.w3.org/1999/xlink" stroke-width="28.222" stroke-linejoin="round" xml:space="preserve">
 <path fill="rgb(255,255,255)" stroke="none" d="M 15000,15000 L 0,15000 0,0 30000,0 30000,15000 15000,15000 Z"/>
 <path fill="none" stroke="rgb(179,179,179)" stroke-linejoin="round" d="M 16766,13215 L 4132,13215 4132,698 29400,698 29400,13215 16766,13215 Z"/>
 <path fill="none" stroke="rgb(179,179,179)" stroke-linejoin="round" d="M 29400,13214 L 4132,13214"/>
 <path fill="none" stroke="rgb(179,179,179)" stroke-linejoin="round" d="M 29400,11127 L 4132,11127"/>
 <path fill="none" stroke="rgb(179,179,179)" stroke-linejoin="round" d="M 29400,9041 L 4132,9041"/>
 <path fill="none" stroke="rgb(179,179,179)" stroke-linejoin="round" d="M 29400,6956 L 4132,6956"/>
 <path fill="none" stroke="rgb(179,179,179)" stroke-linejoin="round" d="M 29400,4869 L 4132,4869"/>
 <path fill="none" stroke="rgb(179,179,179)" stroke-linejoin="round" d="M 29400,2783 L 4132,2783"/>
 <path fill="none" stroke="rgb(179,179,179)" stroke-linejoin="round" d="M 29400,697 L 4132,697"/>
 <path fill="none" stroke="rgb(179,179,179)" stroke-linejoin="round" d="M 4132,13214 L 29400,13214"/>
 <path fill="none" stroke="rgb(179,179,179)" stroke-linejoin="round" d="M 3982,13214 L 4132,13214"/>
 <path fill="none" stroke="rgb(179,179,179)" stroke-linejoin="round" d="M 3982,13214 L 4132,13214"/>
 <path fill="none" stroke="rgb(179,179,179)" stroke-linejoin="round" d="M 3982,11127 L 4132,11127"/>
 <path fill="none" stroke="rgb(179,179,179)" stroke-linejoin="round" d="M 3982,11127 L 4132,11127"/>
 <path fill="none" stroke="rgb(179,179,179)" stroke-linejoin="round" d="M 3982,9041 L 4132,9041"/>
 <path fill="none" stroke="rgb(179,179,179)" stroke-linejoin="round" d="M 3982,9041 L 4132,9041"/>
 <path fill="none" stroke="rgb(179,179,179)" stroke-linejoin="round" d="M 3982,6956 L 4132,6956"/>
 <path fill="none" stroke="rgb(179,179,179)" stroke-linejoin="round" d="M 3982,6956 L 4132,6956"/>
 <path fill="none" stroke="rgb(179,179,179)" stroke-linejoin="round" d="M 3982,4869 L 4132,4869"/>
 <path fill="none" stroke="rgb(179,179,179)" stroke-linejoin="round" d="M 3982,4869 L 4132,4869"/>
 <path fill="none" stroke="rgb(179,179,179)" stroke-linejoin="round" d="M 3982,2783 L 4132,2783"/>
 <path fill="none" stroke="rgb(179,179,179)" stroke-linejoin="round" d="M 3982,2783 L 4132,2783"/>
 <path fill="none" stroke="rgb(179,179,179)" stroke-linejoin="round" d="M 3982,697 L 4132,697"/>
 <path fill="none" stroke="rgb(179,179,179)" stroke-linejoin="round" d="M 3982,697 L 4132,697"/>
 <path fill="none" stroke="rgb(179,179,179)" stroke-linejoin="round" d="M 4132,13214 L 4132,697"/>
 <path fill="rgb(51,51,51)" stroke="none" d="M 28046,13214 L 28948,13214 28948,10854 28046,10854 28046,13214 Z"/>
 <path fill="rgb(51,51,51)" stroke="none" d="M 26241,13214 L 27143,13214 27143,10647 26241,10647 26241,13214 Z"/>
 <path fill="rgb(51,51,51)" stroke="none" d="M 24436,13214 L 25338,13214 25338,10306 24436,10306 24436,13214 Z"/>
 <path fill="rgb(51,51,51)" stroke="none" d="M 22631,13214 L 23533,13214 23533,9695 22631,9695 22631,13214 Z"/>
 <path fill="rgb(51,51,51)" stroke="none" d="M 20826,13214 L 21729,13214 21729,9549 20826,9549 20826,13214 Z"/>
 <path fill="rgb(51,51,51)" stroke="none" d="M 19021,13214 L 19924,13214 19924,9190 19021,9190 19021,13214 Z"/>
 <path fill="rgb(51,51,51)" stroke="none" d="M 17216,13214 L 18119,13214 18119,8932 17216,8932 17216,13214 Z"/>
 <path fill="rgb(51,51,51)" stroke="none" d="M 15411,13214 L 16314,13214 16314,8552 15411,8552 15411,13214 Z"/>
 <path fill="rgb(51,51,51)" stroke="none" d="M 13607,13214 L 14510,13214 14510,8258 13607,8258 13607,13214 Z"/>
 <path fill="rgb(51,51,51)" stroke="none" d="M 11802,13214 L 12705,13214 12705,7579 11802,7579 11802,13214 Z"/>
 <path fill="rgb(51,51,51)" stroke="none" d="M 9998,13214 L 10900,13214 10900,6072 9998,6072 9998,13214 Z"/>
 <path fill="rgb(51,51,51)" stroke="none" d="M 8193,13214 L 9095,13214 9095,4263 8193,4263 8193,13214 Z"/>
 <path fill="rgb(51,51,51)" stroke="none" d="M 6388,13214 L 7290,13214 7290,3816 6388,3816 6388,13214 Z"/>
 <path fill="rgb(51,51,51)" stroke="none" d="M 4583,13214 L 5485,13214 5485,2357 4583,2357 4583,13214 Z"/>
 <path fill="none" stroke="rgb(51,51,51)" stroke-width="50" stroke-linejoin="round" d="M 5034,2357 L 6839,3816 8644,4263 10449,6072 12254,7579 14059,8258 15863,8552 17667,8932 19472,9190 21277,9549 23082,9695 24887,10306 26692,10647 28497,10854"/>
 <text class="SVGTextShape" transform="rotate(-44.9 4377 14587)"><tspan class="TextParagraph" font-family="Latin Modern Roman" font-size="564px" font-weight="400"><tspan class="TextPosition" x="4377" y="14587"><tspan fill="rgb(0,0,0)" stroke="none">1950</tspan></tspan></tspan></text>
 <text class="SVGTextShape" transform="rotate(-44.9 6182 14587)"><tspan class="TextParagraph" font-family="Latin Modern Roman" font-size="564px" font-weight="400"><tspan class="TextPosition" x="6182" y="14587"><tspan fill="rgb(0,0,0)" stroke="none">1955</tspan></tspan></tspan></text>
 <text class="SVGTextShape" transform="rotate(-44.9 7987 14587)"><tspan class="TextParagraph" font-family="Latin Modern Roman" font-size="564px" font-weight="400"><tspan class="TextPosition" x="7987" y="14587"><tspan fill="rgb(0,0,0)" stroke="none">1960</tspan></tspan></tspan></text>
 <text class="SVGTextShape" transform="rotate(-44.9 9792 14587)"><tspan class="TextParagraph" font-family="Latin Modern Roman" font-size="564px" font-weight="400"><tspan class="TextPosition" x="9792" y="14587"><tspan fill="rgb(0,0,0)" stroke="none">1965</tspan></tspan></tspan></text>
 <text class="SVGTextShape" transform="rotate(-44.9 11597 14587)"><tspan class="TextParagraph" font-family="Latin Modern Roman" font-size="564px" font-weight="400"><tspan class="TextPosition" x="11597" y="14587"><tspan fill="rgb(0,0,0)" stroke="none">1970</tspan></tspan></tspan></text>
 <text class="SVGTextShape" transform="rotate(-44.9 13402 14587)"><tspan class="TextParagraph" font-family="Latin Modern Roman" font-size="564px" font-weight="400"><tspan class="TextPosition" x="13402" y="14587"><tspan fill="rgb(0,0,0)" stroke="none">1975</tspan></tspan></tspan></text>
 <text class="SVGTextShape" transform="rotate(-44.9 15207 14587)"><tspan class="TextParagraph" font-family="Latin Modern Roman" font-size="564px" font-weight="400"><tspan class="TextPosition" x="15207" y="14587"><tspan fill="rgb(0,0,0)" stroke="none">1980</tspan></tspan></tspan></text>
 <text class="SVGTextShape" transform="rotate(-44.9 17011 14587)"><tspan class="TextParagraph" font-family="Latin Modern Roman" font-size="564px" font-weight="400"><tspan class="TextPosition" x="17011" y="14587"><tspan fill="rgb(0,0,0)" stroke="none">1985</tspan></tspan></tspan></text>
 <text class="SVGTextShape" transform="rotate(-44.9 18816 14587)"><tspan class="TextParagraph" font-family="Latin Modern Roman" font-size="564px" font-weight="400"><tspan class="TextPosition" x="18816" y="14587"><tspan fill="rgb(0,0,0)" stroke="none">1990</tspan></tspan></tspan></text>
 <text class="SVGTextShape" transform="rotate(-44.9 20621 14587)"><tspan class="TextParagraph" font-family="Latin Modern Roman" font-size="564px" font-weight="400"><tspan class="TextPosition" x="20621" y="14587"><tspan fill="rgb(0,0,0)" stroke="none">1995</tspan></tspan></tspan></text>
 <text class="SVGTextShape" transform="rotate(-44.9 22426 14587)"><tspan class="TextParagraph" font-family="Latin Modern Roman" font-size="564px" font-weight="400"><tspan class="TextPosition" x="22426" y="14587"><tspan fill="rgb(0,0,0)" stroke="none">2000</tspan></tspan></tspan></text>
 <text class="SVGTextShape" transform="rotate(-44.9 24231 14587)"><tspan class="TextParagraph" font-family="Latin Modern Roman" font-size="564px" font-weight="400"><tspan class="TextPosition" x="24231" y="14587"><tspan fill="rgb(0,0,0)" stroke="none">2005</tspan></tspan></tspan></text>
 <text class="SVGTextShape" transform="rotate(-44.9 26035 14587)"><tspan class="TextParagraph" font-family="Latin Modern Roman" font-size="564px" font-weight="400"><tspan class="TextPosition" x="26035" y="14587"><tspan fill="rgb(0,0,0)" stroke="none">2010</tspan></tspan></tspan></text>
 <text class="SVGTextShape" transform="rotate(-44.9 27840 14587)"><tspan class="TextParagraph" font-family="Latin Modern Roman" font-size="564px" font-weight="400"><tspan class="TextPosition" x="27840" y="14587"><tspan fill="rgb(0,0,0)" stroke="none">2015</tspan></tspan></tspan></text>
 <text class="SVGTextShape"><tspan class="TextParagraph" font-family="Latin Modern Roman" font-size="564px" font-weight="400"><tspan class="TextPosition" x="2215" y="13453"><tspan fill="rgb(0,0,0)" stroke="none">0 FTE</tspan></tspan></tspan></text>
 <text class="SVGTextShape"><tspan class="TextParagraph" font-family="Latin Modern Roman" font-size="564px" font-weight="400"><tspan class="TextPosition" x="601" y="11366"><tspan fill="rgb(0,0,0)" stroke="none">100.000 FTE</tspan></tspan></tspan></text>
 <text class="SVGTextShape"><tspan class="TextParagraph" font-family="Latin Modern Roman" font-size="564px" font-weight="400"><tspan class="TextPosition" x="601" y="9280"><tspan fill="rgb(0,0,0)" stroke="none">200.000 FTE</tspan></tspan></tspan></text>
 <text class="SVGTextShape"><tspan class="TextParagraph" font-family="Latin Modern Roman" font-size="564px" font-weight="400"><tspan class="TextPosition" x="601" y="7194"><tspan fill="rgb(0,0,0)" stroke="none">300.000 FTE</tspan></tspan></tspan></text>
 <text class="SVGTextShape"><tspan class="TextParagraph" font-family="Latin Modern Roman" font-size="564px" font-weight="400"><tspan class="TextPosition" x="601" y="5107"><tspan fill="rgb(0,0,0)" stroke="none">400.000 FTE</tspan></tspan></tspan></text>
 <text class="SVGTextShape"><tspan class="TextParagraph" font-family="Latin Modern Roman" font-size="564px" font-weight="400"><tspan class="TextPosition" x="601" y="3021"><tspan fill="rgb(0,0,0)" stroke="none">500.000 FTE</tspan></tspan></tspan></text>
 <text class="SVGTextShape"><tspan class="TextParagraph" font-family="Latin Modern Roman" font-size="564px" font-weight="400"><tspan class="TextPosition" x="601" y="935"><tspan fill="rgb(0,0,0)" stroke="none">600.000 FTE</tspan></tspan></tspan></text>
</svg>