<?xml version="1.0" encoding="UTF-8"?>
<!DOCTYPE svg PUBLIC "-//W3C//DTD SVG 1.1//EN" "http://www.w3.org/Graphics/SVG/1.1/DTD/svg11.dtd">
<svg width="300mm" height="150mm" viewBox="0 0 30000 15000" version="1.1" xmlns="http://www.w3.org/2000/svg" xmlns:xlink="http://www.w3.org/1999/xlink" stroke-width="28.222" stroke-linejoin="round" xml:space="preserve">
 <path fill="rgb(255,255,255)" stroke="none" d="M 15000,15000 L 0,15000 0,0 30000,0 30000,15000 15000,15000 Z"/>
 <path fill="none" stroke="rgb(179,179,179)" stroke-linejoin="round" d="M 16149,11887 L 3470,11887 3470,698 28828,698 28828,11887 16149,11887 Z"/>
 <path fill="none" stroke="rgb(179,179,179)" stroke-linejoin="round" d="M 28827,11886 L 3470,11886"/>
 <path fill="none" stroke="rgb(179,179,179)" stroke-linejoin="round" d="M 28827,10642 L 3470,10642"/>
 <path fill="none" stroke="rgb(179,179,179)" stroke-linejoin="round" d="M 28827,9399 L 3470,9399"/>
 <path fill="none" stroke="rgb(179,179,179)" stroke-linejoin="round" d="M 28827,8156 L 3470,8156"/>
 <path fill="none" stroke="rgb(179,179,179)" stroke-linejoin="round" d="M 28827,6913 L 3470,6913"/>
 <path fill="none" stroke="rgb(179,179,179)" stroke-linejoin="round" d="M 28827,5670 L 3470,5670"/>
 <path fill="none" stroke="rgb(179,179,179)" stroke-linejoin="round" d="M 28827,4427 L 3470,4427"/>
 <path fill="none" stroke="rgb(179,179,179)" stroke-linejoin="round" d="M 28827,3183 L 3470,3183"/>
 <path fill="none" stroke="rgb(179,179,179)" stroke-linejoin="round" d="M 28827,1940 L 3470,1940"/>
 <path fill="none" stroke="rgb(179,179,179)" stroke-linejoin="round" d="M 28827,697 L 3470,697"/>
 <path fill="none" stroke="rgb(179,179,179)" stroke-linejoin="round" d="M 3470,12036 L 3470,11886"/>
 <path fill="none" stroke="rgb(179,179,179)" stroke-linejoin="round" d="M 3470,12036 L 3470,11886"/>
 <path fill="none" stroke="rgb(179,179,179)" stroke-linejoin="round" d="M 5420,12036 L 5420,11886"/>
 <path fill="none" stroke="rgb(179,179,179)" stroke-linejoin="round" d="M 5420,12036 L 5420,11886"/>
 <path fill="none" stroke="rgb(179,179,179)" stroke-linejoin="round" d="M 7371,12036 L 7371,11886"/>
 <path fill="none" stroke="rgb(179,179,179)" stroke-linejoin="round" d="M 7371,12036 L 7371,11886"/>
 <path fill="none" stroke="rgb(179,179,179)" stroke-linejoin="round" d="M 9322,12036 L 9322,11886"/>
 <path fill="none" stroke="rgb(179,179,179)" stroke-linejoin="round" d="M 9322,12036 L 9322,11886"/>
 <path fill="none" stroke="rgb(179,179,179)" stroke-linejoin="round" d="M 11272,12036 L 11272,11886"/>
 <path fill="none" stroke="rgb(179,179,179)" stroke-linejoin="round" d="M 11272,12036 L 11272,11886"/>
 <path fill="none" stroke="rgb(179,179,179)" stroke-linejoin="round" d="M 13223,12036 L 13223,11886"/>
 <path fill="none" stroke="rgb(179,179,179)" stroke-linejoin="round" d="M 13223,12036 L 13223,11886"/>
 <path fill="none" stroke="rgb(179,179,179)" stroke-linejoin="round" d="M 15173,12036 L 15173,11886"/>
 <path fill="none" stroke="rgb(179,179,179)" stroke-linejoin="round" d="M 15173,12036 L 15173,11886"/>
 <path fill="none" stroke="rgb(179,179,179)" stroke-linejoin="round" d="M 17123,12036 L 17123,11886"/>
 <path fill="none" stroke="rgb(179,179,179)" stroke-linejoin="round" d="M 17123,12036 L 17123,11886"/>
 <path fill="none" stroke="rgb(179,179,179)" stroke-linejoin="round" d="M 19074,12036 L 19074,11886"/>
 <path fill="none" stroke="rgb(179,179,179)" stroke-linejoin="round" d="M 19074,12036 L 19074,11886"/>
 <path fill="none" stroke="rgb(179,179,179)" stroke-linejoin="round" d="M 21025,12036 L 21025,11886"/>
 <path fill="none" stroke="rgb(179,179,179)" stroke-linejoin="round" d="M 21025,12036 L 21025,11886"/>
 <path fill="none" stroke="rgb(179,179,179)" stroke-linejoin="round" d="M 22975,12036 L 22975,11886"/>
 <path fill="none" stroke="rgb(179,179,179)" stroke-linejoin="round" d="M 22975,12036 L 22975,11886"/>
 <path fill="none" stroke="rgb(179,179,179)" stroke-linejoin="round" d="M 24926,12036 L 24926,11886"/>
 <path fill="none" stroke="rgb(179,179,179)" stroke-linejoin="round" d="M 24926,12036 L 24926,11886"/>
 <path fill="none" stroke="rgb(179,179,179)" stroke-linejoin="round" d="M 26877,12036 L 26877,11886"/>
 <path fill="none" stroke="rgb(179,179,179)" stroke-linejoin="round" d="M 26877,12036 L 26877,11886"/>
 <path fill="none" stroke="rgb(179,179,179)" stroke-linejoin="round" d="M 28827,12036 L 28827,11886"/>
 <path fill="none" stroke="rgb(179,179,179)" stroke-linejoin="round" d="M 28827,12036 L 28827,11886"/>
 <path fill="none" stroke="rgb(179,179,179)" stroke-linejoin="round" d="M 3470,11886 L 28827,11886"/>
 <path fill="none" stroke="rgb(179,179,179)" stroke-linejoin="round" d="M 3320,11886 L 3470,11886"/>
 <path fill="none" stroke="rgb(179,179,179)" stroke-linejoin="round" d="M 3320,11886 L 3470,11886"/>
 <path fill="none" stroke="rgb(179,179,179)" stroke-linejoin="round" d="M 3320,10642 L 3470,10642"/>
 <path fill="none" stroke="rgb(179,179,179)" stroke-linejoin="round" d="M 3320,10642 L 3470,10642"/>
 <path fill="none" stroke="rgb(179,179,179)" stroke-linejoin="round" d="M 3320,9399 L 3470,9399"/>
 <path fill="none" stroke="rgb(179,179,179)" stroke-linejoin="round" d="M 3320,9399 L 3470,9399"/>
 <path fill="none" stroke="rgb(179,179,179)" stroke-linejoin="round" d="M 3320,8156 L 3470,8156"/>
 <path fill="none" stroke="rgb(179,179,179)" stroke-linejoin="round" d="M 3320,8156 L 3470,8156"/>
 <path fill="none" stroke="rgb(179,179,179)" stroke-linejoin="round" d="M 3320,6913 L 3470,6913"/>
 <path fill="none" stroke="rgb(179,179,179)" stroke-linejoin="round" d="M 3320,6913 L 3470,6913"/>
 <path fill="none" stroke="rgb(179,179,179)" stroke-linejoin="round" d="M 3320,5670 L 3470,5670"/>
 <path fill="none" stroke="rgb(179,179,179)" stroke-linejoin="round" d="M 3320,5670 L 3470,5670"/>
 <path fill="none" stroke="rgb(179,179,179)" stroke-linejoin="round" d="M 3320,4427 L 3470,4427"/>
 <path fill="none" stroke="rgb(179,179,179)" stroke-linejoin="round" d="M 3320,4427 L 3470,4427"/>
 <path fill="none" stroke="rgb(179,179,179)" stroke-linejoin="round" d="M 3320,3183 L 3470,3183"/>
 <path fill="none" stroke="rgb(179,179,179)" stroke-linejoin="round" d="M 3320,3183 L 3470,3183"/>
 <path fill="none" stroke="rgb(179,179,179)" stroke-linejoin="round" d="M 3320,1940 L 3470,1940"/>
 <path fill="none" stroke="rgb(179,179,179)" stroke-linejoin="round" d="M 3320,1940 L 3470,1940"/>
 <path fill="none" stroke="rgb(179,179,179)" stroke-linejoin="round" d="M 3320,697 L 3470,697"/>
 <path fill="none" stroke="rgb(179,179,179)" stroke-linejoin="round" d="M 3320,697 L 3470,697"/>
 <path fill="none" stroke="rgb(179,179,179)" stroke-linejoin="round" d="M 3470,11886 L 3470,697"/>
 <path fill="none" stroke="rgb(0,69,134)" stroke-width="50" stroke-linejoin="round" d="M 3470,9094 L 5420,8692 7371,8508 9322,7762 11272,6928 13223,6417 15173,6277 17123,5779 19074,5397 21025,4884 22975,4615 24926,3166 26877,2450 28827,1765"/>
 <path fill="rgb(0,69,134)" stroke="none" d="M 3345,8969 L 3345,9219 3595,9219 3595,8969 3345,8969 Z"/>
 <path fill="none" stroke="rgb(0,69,134)" stroke-linejoin="round" d="M 3345,8969 L 3345,9219 3595,9219 3595,8969 3345,8969 Z"/>
 <path fill="rgb(0,69,134)" stroke="none" d="M 5295,8567 L 5295,8817 5545,8817 5545,8567 5295,8567 Z"/>
 <path fill="none" stroke="rgb(0,69,134)" stroke-linejoin="round" d="M 5295,8567 L 5295,8817 5545,8817 5545,8567 5295,8567 Z"/>
 <path fill="rgb(0,69,134)" stroke="none" d="M 7246,8383 L 7246,8633 7496,8633 7496,8383 7246,8383 Z"/>
 <path fill="none" stroke="rgb(0,69,134)" stroke-linejoin="round" d="M 7246,8383 L 7246,8633 7496,8633 7496,8383 7246,8383 Z"/>
 <path fill="rgb(0,69,134)" stroke="none" d="M 9197,7637 L 9197,7887 9447,7887 9447,7637 9197,7637 Z"/>
 <path fill="none" stroke="rgb(0,69,134)" stroke-linejoin="round" d="M 9197,7637 L 9197,7887 9447,7887 9447,7637 9197,7637 Z"/>
 <path fill="rgb(0,69,134)" stroke="none" d="M 11147,6803 L 11147,7053 11397,7053 11397,6803 11147,6803 Z"/>
 <path fill="none" stroke="rgb(0,69,134)" stroke-linejoin="round" d="M 11147,6803 L 11147,7053 11397,7053 11397,6803 11147,6803 Z"/>
 <path fill="rgb(0,69,134)" stroke="none" d="M 13098,6292 L 13098,6542 13348,6542 13348,6292 13098,6292 Z"/>
 <path fill="none" stroke="rgb(0,69,134)" stroke-linejoin="round" d="M 13098,6292 L 13098,6542 13348,6542 13348,6292 13098,6292 Z"/>
 <path fill="rgb(0,69,134)" stroke="none" d="M 15048,6152 L 15048,6402 15298,6402 15298,6152 15048,6152 Z"/>
 <path fill="none" stroke="rgb(0,69,134)" stroke-linejoin="round" d="M 15048,6152 L 15048,6402 15298,6402 15298,6152 15048,6152 Z"/>
 <path fill="rgb(0,69,134)" stroke="none" d="M 16998,5654 L 16998,5904 17248,5904 17248,5654 16998,5654 Z"/>
 <path fill="none" stroke="rgb(0,69,134)" stroke-linejoin="round" d="M 16998,5654 L 16998,5904 17248,5904 17248,5654 16998,5654 Z"/>
 <path fill="rgb(0,69,134)" stroke="none" d="M 18949,5272 L 18949,5522 19199,5522 19199,5272 18949,5272 Z"/>
 <path fill="none" stroke="rgb(0,69,134)" stroke-linejoin="round" d="M 18949,5272 L 18949,5522 19199,5522 19199,5272 18949,5272 Z"/>
 <path fill="rgb(0,69,134)" stroke="none" d="M 20900,4759 L 20900,5009 21150,5009 21150,4759 20900,4759 Z"/>
 <path fill="none" stroke="rgb(0,69,134)" stroke-linejoin="round" d="M 20900,4759 L 20900,5009 21150,5009 21150,4759 20900,4759 Z"/>
 <path fill="rgb(0,69,134)" stroke="none" d="M 22850,4490 L 22850,4740 23100,4740 23100,4490 22850,4490 Z"/>
 <path fill="none" stroke="rgb(0,69,134)" stroke-linejoin="round" d="M 22850,4490 L 22850,4740 23100,4740 23100,4490 22850,4490 Z"/>
 <path fill="rgb(0,69,134)" stroke="none" d="M 24801,3041 L 24801,3291 25051,3291 25051,3041 24801,3041 Z"/>
 <path fill="none" stroke="rgb(0,69,134)" stroke-linejoin="round" d="M 24801,3041 L 24801,3291 25051,3291 25051,3041 24801,3041 Z"/>
 <path fill="rgb(0,69,134)" stroke="none" d="M 26752,2325 L 26752,2575 27002,2575 27002,2325 26752,2325 Z"/>
 <path fill="none" stroke="rgb(0,69,134)" stroke-linejoin="round" d="M 26752,2325 L 26752,2575 27002,2575 27002,2325 26752,2325 Z"/>
 <path fill="rgb(0,69,134)" stroke="none" d="M 28702,1640 L 28702,1890 28952,1890 28952,1640 28702,1640 Z"/>
 <path fill="none" stroke="rgb(0,69,134)" stroke-linejoin="round" d="M 28702,1640 L 28702,1890 28952,1890 28952,1640 28702,1640 Z"/>
 <path fill="none" stroke="rgb(126,0,33)" stroke-width="50" stroke-linejoin="round" d="M 3470,9490 L 5420,9566 7371,9535 9322,9300 11272,9113 13223,8972 15173,8871 17123,8886 19074,8715 21025,8462 22975,8296 24926,7952 26877,7934 28827,8089"/>
 <path fill="rgb(126,0,33)" stroke="none" d="M 3345,9365 L 3345,9615 3595,9490 3345,9365 Z"/>
 <path fill="none" stroke="rgb(126,0,33)" stroke-linejoin="round" d="M 3345,9365 L 3345,9615 3595,9490 3345,9365 Z"/>
 <path fill="rgb(126,0,33)" stroke="none" d="M 5295,9441 L 5295,9691 5545,9566 5295,9441 Z"/>
 <path fill="none" stroke="rgb(126,0,33)" stroke-linejoin="round" d="M 5295,9441 L 5295,9691 5545,9566 5295,9441 Z"/>
 <path fill="rgb(126,0,33)" stroke="none" d="M 7246,9410 L 7246,9660 7496,9535 7246,9410 Z"/>
 <path fill="none" stroke="rgb(126,0,33)" stroke-linejoin="round" d="M 7246,9410 L 7246,9660 7496,9535 7246,9410 Z"/>
 <path fill="rgb(126,0,33)" stroke="none" d="M 9197,9175 L 9197,9425 9447,9300 9197,9175 Z"/>
 <path fill="none" stroke="rgb(126,0,33)" stroke-linejoin="round" d="M 9197,9175 L 9197,9425 9447,9300 9197,9175 Z"/>
 <path fill="rgb(126,0,33)" stroke="none" d="M 11147,8988 L 11147,9238 11397,9113 11147,8988 Z"/>
 <path fill="none" stroke="rgb(126,0,33)" stroke-linejoin="round" d="M 11147,8988 L 11147,9238 11397,9113 11147,8988 Z"/>
 <path fill="rgb(126,0,33)" stroke="none" d="M 13098,8847 L 13098,9097 13348,8972 13098,8847 Z"/>
 <path fill="none" stroke="rgb(126,0,33)" stroke-linejoin="round" d="M 13098,8847 L 13098,9097 13348,8972 13098,8847 Z"/>
 <path fill="rgb(126,0,33)" stroke="none" d="M 15048,8746 L 15048,8996 15298,8871 15048,8746 Z"/>
 <path fill="none" stroke="rgb(126,0,33)" stroke-linejoin="round" d="M 15048,8746 L 15048,8996 15298,8871 15048,8746 Z"/>
 <path fill="rgb(126,0,33)" stroke="none" d="M 16998,8761 L 16998,9011 17248,8886 16998,8761 Z"/>
 <path fill="none" stroke="rgb(126,0,33)" stroke-linejoin="round" d="M 16998,8761 L 16998,9011 17248,8886 16998,8761 Z"/>
 <path fill="rgb(126,0,33)" stroke="none" d="M 18949,8590 L 18949,8840 19199,8715 18949,8590 Z"/>
 <path fill="none" stroke="rgb(126,0,33)" stroke-linejoin="round" d="M 18949,8590 L 18949,8840 19199,8715 18949,8590 Z"/>
 <path fill="rgb(126,0,33)" stroke="none" d="M 20900,8337 L 20900,8587 21150,8462 20900,8337 Z"/>
 <path fill="none" stroke="rgb(126,0,33)" stroke-linejoin="round" d="M 20900,8337 L 20900,8587 21150,8462 20900,8337 Z"/>
 <path fill="rgb(126,0,33)" stroke="none" d="M 22850,8171 L 22850,8421 23100,8296 22850,8171 Z"/>
 <path fill="none" stroke="rgb(126,0,33)" stroke-linejoin="round" d="M 22850,8171 L 22850,8421 23100,8296 22850,8171 Z"/>
 <path fill="rgb(126,0,33)" stroke="none" d="M 24801,7827 L 24801,8077 25051,7952 24801,7827 Z"/>
 <path fill="none" stroke="rgb(126,0,33)" stroke-linejoin="round" d="M 24801,7827 L 24801,8077 25051,7952 24801,7827 Z"/>
 <path fill="rgb(126,0,33)" stroke="none" d="M 26752,7809 L 26752,8059 27002,7934 26752,7809 Z"/>
 <path fill="none" stroke="rgb(126,0,33)" stroke-linejoin="round" d="M 26752,7809 L 26752,8059 27002,7934 26752,7809 Z"/>
 <path fill="rgb(126,0,33)" stroke="none" d="M 28702,7964 L 28702,8214 28952,8089 28702,7964 Z"/>
 <path fill="none" stroke="rgb(126,0,33)" stroke-linejoin="round" d="M 28702,7964 L 28702,8214 28952,8089 28702,7964 Z"/>
 <text class="SVGTextShape" transform="rotate(-44.9 2813 13409)"><tspan class="TextParagraph" font-family="Latin Modern Roman" font-size="564px" font-weight="400"><tspan class="TextPosition" x="2813" y="13409"><tspan fill="rgb(0,0,0)" stroke="none">1950</tspan></tspan></tspan></text>
 <text class="SVGTextShape" transform="rotate(-44.9 4763 13409)"><tspan class="TextParagraph" font-family="Latin Modern Roman" font-size="564px" font-weight="400"><tspan class="TextPosition" x="4763" y="13409"><tspan fill="rgb(0,0,0)" stroke="none">1955</tspan></tspan></tspan></text>
 <text class="SVGTextShape" transform="rotate(-44.9 6714 13409)"><tspan class="TextParagraph" font-family="Latin Modern Roman" font-size="564px" font-weight="400"><tspan class="TextPosition" x="6714" y="13409"><tspan fill="rgb(0,0,0)" stroke="none">1960</tspan></tspan></tspan></text>
 <text class="SVGTextShape" transform="rotate(-44.9 8665 13409)"><tspan class="TextParagraph" font-family="Latin Modern Roman" font-size="564px" font-weight="400"><tspan class="TextPosition" x="8665" y="13409"><tspan fill="rgb(0,0,0)" stroke="none">1965</tspan></tspan></tspan></text>
 <text class="SVGTextShape" transform="rotate(-44.9 10615 13409)"><tspan class="TextParagraph" font-family="Latin Modern Roman" font-size="564px" font-weight="400"><tspan class="TextPosition" x="10615" y="13409"><tspan fill="rgb(0,0,0)" stroke="none">1970</tspan></tspan></tspan></text>
 <text class="SVGTextShape" transform="rotate(-44.9 12566 13409)"><tspan class="TextParagraph" font-family="Latin Modern Roman" font-size="564px" font-weight="400"><tspan class="TextPosition" x="12566" y="13409"><tspan fill="rgb(0,0,0)" stroke="none">1975</tspan></tspan></tspan></text>
 <text class="SVGTextShape" transform="rotate(-44.9 14517 13409)"><tspan class="TextParagraph" font-family="Latin Modern Roman" font-size="564px" font-weight="400"><tspan class="TextPosition" x="14517" y="13409"><tspan fill="rgb(0,0,0)" stroke="none">1980</tspan></tspan></tspan></text>
 <text class="SVGTextShape" transform="rotate(-44.9 16467 13409)"><tspan class="TextParagraph" font-family="Latin Modern Roman" font-size="564px" font-weight="400"><tspan class="TextPosition" x="16467" y="13409"><tspan fill="rgb(0,0,0)" stroke="none">1985</tspan></tspan></tspan></text>
 <text class="SVGTextShape" transform="rotate(-44.9 18418 13409)"><tspan class="TextParagraph" font-family="Latin Modern Roman" font-size="564px" font-weight="400"><tspan class="TextPosition" x="18418" y="13409"><tspan fill="rgb(0,0,0)" stroke="none">1990</tspan></tspan></tspan></text>
 <text class="SVGTextShape" transform="rotate(-44.9 20369 13409)"><tspan class="TextParagraph" font-family="Latin Modern Roman" font-size="564px" font-weight="400"><tspan class="TextPosition" x="20369" y="13409"><tspan fill="rgb(0,0,0)" stroke="none">1995</tspan></tspan></tspan></text>
 <text class="SVGTextShape" transform="rotate(-44.9 22319 13409)"><tspan class="TextParagraph" font-family="Latin Modern Roman" font-size="564px" font-weight="400"><tspan class="TextPosition" x="22319" y="13409"><tspan fill="rgb(0,0,0)" stroke="none">2000</tspan></tspan></tspan></text>
 <text class="SVGTextShape" transform="rotate(-44.9 24270 13409)"><tspan class="TextParagraph" font-family="Latin Modern Roman" font-size="564px" font-weight="400"><tspan class="TextPosition" x="24270" y="13409"><tspan fill="rgb(0,0,0)" stroke="none">2005</tspan></tspan></tspan></text>
 <text class="SVGTextShape" transform="rotate(-44.9 26220 13409)"><tspan class="TextParagraph" font-family="Latin Modern Roman" font-size="564px" font-weight="400"><tspan class="TextPosition" x="26220" y="13409"><tspan fill="rgb(0,0,0)" stroke="none">2010</tspan></tspan></tspan></text>
 <text class="SVGTextShape" transform="rotate(-44.9 28170 13409)"><tspan class="TextParagraph" font-family="Latin Modern Roman" font-size="564px" font-weight="400"><tspan class="TextPosition" x="28170" y="13409"><tspan fill="rgb(0,0,0)" stroke="none">2015</tspan></tspan></tspan></text>
 <text class="SVGTextShape"><tspan class="TextParagraph" font-family="Latin Modern Roman" font-size="564px" font-weight="400"><tspan class="TextPosition" x="601" y="12125"><tspan fill="rgb(0,0,0)" stroke="none">0 ha/VTE</tspan></tspan></tspan></text>
 <text class="SVGTextShape"><tspan class="TextParagraph" font-family="Latin Modern Roman" font-size="564px" font-weight="400"><tspan class="TextPosition" x="601" y="10881"><tspan fill="rgb(0,0,0)" stroke="none">2 ha/VTE</tspan></tspan></tspan></text>
 <text class="SVGTextShape"><tspan class="TextParagraph" font-family="Latin Modern Roman" font-size="564px" font-weight="400"><tspan class="TextPosition" x="601" y="9638"><tspan fill="rgb(0,0,0)" stroke="none">4 ha/VTE</tspan></tspan></tspan></text>
 <text class="SVGTextShape"><tspan class="TextParagraph" font-family="Latin Modern Roman" font-size="564px" font-weight="400"><tspan class="TextPosition" x="601" y="8395"><tspan fill="rgb(0,0,0)" stroke="none">6 ha/VTE</tspan></tspan></tspan></text>
 <text class="SVGTextShape"><tspan class="TextParagraph" font-family="Latin Modern Roman" font-size="564px" font-weight="400"><tspan class="TextPosition" x="601" y="7151"><tspan fill="rgb(0,0,0)" stroke="none">8 ha/VTE</tspan></tspan></tspan></text>
 <text class="SVGTextShape"><tspan class="TextParagraph" font-family="Latin Modern Roman" font-size="564px" font-weight="400"><tspan class="TextPosition" x="310" y="5908"><tspan fill="rgb(0,0,0)" stroke="none">10 ha/VTE</tspan></tspan></tspan></text>
 <text class="SVGTextShape"><tspan class="TextParagraph" font-family="Latin Modern Roman" font-size="564px" font-weight="400"><tspan class="TextPosition" x="310" y="4665"><tspan fill="rgb(0,0,0)" stroke="none">12 ha/VTE</tspan></tspan></tspan></text>
 <text class="SVGTextShape"><tspan class="TextParagraph" font-family="Latin Modern Roman" font-size="564px" font-weight="400"><tspan class="TextPosition" x="310" y="3421"><tspan fill="rgb(0,0,0)" stroke="none">14 ha/VTE</tspan></tspan></tspan></text>
 <text class="SVGTextShape"><tspan class="TextParagraph" font-family="Latin Modern Roman" font-size="564px" font-weight="400"><tspan class="TextPosition" x="310" y="2178"><tspan fill="rgb(0,0,0)" stroke="none">16 ha/VTE</tspan></tspan></tspan></text>
 <text class="SVGTextShape"><tspan class="TextParagraph" font-family="Latin Modern Roman" font-size="564px" font-weight="400"><tspan class="TextPosition" x="310" y="935"><tspan fill="rgb(0,0,0)" stroke="none">18 ha/VTE</tspan></tspan></tspan></text>
 <path fill="none" stroke="rgb(0,69,134)" stroke-width="50" stroke-linejoin="round" d="M 3610,14382 L 4410,14382"/>
 <path fill="rgb(0,69,134)" stroke="none" d="M 3841,14213 L 3841,14551 4179,14551 4179,14213 3841,14213 Z"/>
 <path fill="none" stroke="rgb(0,69,134)" stroke-linejoin="round" d="M 3841,14213 L 3841,14551 4179,14551 4179,14213 3841,14213 Z"/>
 <path fill="none" stroke="rgb(126,0,33)" stroke-width="50" stroke-linejoin="round" d="M 14883,14382 L 15682,14382"/>
 <path fill="rgb(126,0,33)" stroke="none" d="M 15113,14213 L 15113,14551 15451,14382 15113,14213 Z"/>
 <path fill="none" stroke="rgb(126,0,33)" stroke-linejoin="round" d="M 15113,14213 L 15113,14551 15451,14382 15113,14213 Z"/>
 <text class="SVGTextShape"><tspan class="TextParagraph" font-family="Latin Modern Roman Caps" font-size="564px" font-weight="400"><tspan class="TextPosition" x="4534" y="14607"><tspan fill="rgb(0,0,0)" stroke="none">direct landgebruik/directe arbeid</tspan></tspan></tspan></text>
 <text class="SVGTextShape"><tspan class="TextParagraph" font-family="Latin Modern Roman Caps" font-size="564px" font-weight="400"><tspan class="TextPosition" x="15806" y="14607"><tspan fill="rgb(0,0,0)" stroke="none">direct landgebruik/totale arbeid</tspan></tspan></tspan></text>
</svg>