<?xml version="1.0" encoding="UTF-8"?>
<!DOCTYPE svg PUBLIC "-//W3C//DTD SVG 1.1//EN" "http://www.w3.org/Graphics/SVG/1.1/DTD/svg11.dtd">
<svg width="73mm" height="37mm" viewBox="0 0 7300 3700" version="1.1" xmlns="http://www.w3.org/2000/svg" xmlns:xlink="http://www.w3.org/1999/xlink" stroke-width="28.222" stroke-linejoin="round" xml:space="preserve">
 <path fill="rgb(255,255,255)" stroke="none" d="M 3667,3636 L 0,3636 0,0 7334,0 7334,3636 3667,3636 Z"/>
 <path fill="none" stroke="rgb(0,0,0)" stroke-linejoin="round" d="M 3667,3636 L 0,3636 0,0 7334,0 7334,3636 3667,3636 Z"/>
 <defs>
  <linearGradient id="Gradient_2" gradientUnits="userSpaceOnUse" x1="3984" y1="229" x2="3984" y2="2753">
   <stop offset="0.3" stop-color="rgb(204,0,0)"/>
   <stop offset="1" stop-color="rgb(0,153,0)"/>
  </linearGradient>
 </defs>
 <path fill="url(#Gradient_2)" stroke="rgb(179,179,179)" stroke-linejoin="round" d="M 3984,2753 L 878,2753 878,229 7090,229 7090,2753 3984,2753 Z"/>
 <path fill="none" stroke="rgb(179,179,179)" stroke-linejoin="round" d="M 7089,2752 L 878,2752"/>
 <path fill="none" stroke="rgb(179,179,179)" stroke-linejoin="round" d="M 7089,2391 L 878,2391"/>
 <path fill="none" stroke="rgb(179,179,179)" stroke-linejoin="round" d="M 7089,2030 L 878,2030"/>
 <path fill="none" stroke="rgb(179,179,179)" stroke-linejoin="round" d="M 7089,1670 L 878,1670"/>
 <path fill="none" stroke="rgb(179,179,179)" stroke-linejoin="round" d="M 7089,1309 L 878,1309"/>
 <path fill="none" stroke="rgb(179,179,179)" stroke-linejoin="round" d="M 7089,949 L 878,949"/>
 <path fill="none" stroke="rgb(179,179,179)" stroke-linejoin="round" d="M 7089,588 L 878,588"/>
 <path fill="none" stroke="rgb(179,179,179)" stroke-linejoin="round" d="M 7089,228 L 878,228"/>
 <path fill="none" stroke="rgb(179,179,179)" stroke-linejoin="round" d="M 878,2900 L 878,2752"/>
 <path fill="none" stroke="rgb(179,179,179)" stroke-linejoin="round" d="M 878,2900 L 878,2752"/>
 <path fill="none" stroke="rgb(179,179,179)" stroke-linejoin="round" d="M 1355,2900 L 1355,2752"/>
 <path fill="none" stroke="rgb(179,179,179)" stroke-linejoin="round" d="M 1355,2900 L 1355,2752"/>
 <path fill="none" stroke="rgb(179,179,179)" stroke-linejoin="round" d="M 1833,2900 L 1833,2752"/>
 <path fill="none" stroke="rgb(179,179,179)" stroke-linejoin="round" d="M 1833,2900 L 1833,2752"/>
 <path fill="none" stroke="rgb(179,179,179)" stroke-linejoin="round" d="M 2311,2900 L 2311,2752"/>
 <path fill="none" stroke="rgb(179,179,179)" stroke-linejoin="round" d="M 2311,2900 L 2311,2752"/>
 <path fill="none" stroke="rgb(179,179,179)" stroke-linejoin="round" d="M 2789,2900 L 2789,2752"/>
 <path fill="none" stroke="rgb(179,179,179)" stroke-linejoin="round" d="M 2789,2900 L 2789,2752"/>
 <path fill="none" stroke="rgb(179,179,179)" stroke-linejoin="round" d="M 3267,2900 L 3267,2752"/>
 <path fill="none" stroke="rgb(179,179,179)" stroke-linejoin="round" d="M 3267,2900 L 3267,2752"/>
 <path fill="none" stroke="rgb(179,179,179)" stroke-linejoin="round" d="M 3744,2900 L 3744,2752"/>
 <path fill="none" stroke="rgb(179,179,179)" stroke-linejoin="round" d="M 3744,2900 L 3744,2752"/>
 <path fill="none" stroke="rgb(179,179,179)" stroke-linejoin="round" d="M 4222,2900 L 4222,2752"/>
 <path fill="none" stroke="rgb(179,179,179)" stroke-linejoin="round" d="M 4222,2900 L 4222,2752"/>
 <path fill="none" stroke="rgb(179,179,179)" stroke-linejoin="round" d="M 4700,2900 L 4700,2752"/>
 <path fill="none" stroke="rgb(179,179,179)" stroke-linejoin="round" d="M 4700,2900 L 4700,2752"/>
 <path fill="none" stroke="rgb(179,179,179)" stroke-linejoin="round" d="M 5178,2900 L 5178,2752"/>
 <path fill="none" stroke="rgb(179,179,179)" stroke-linejoin="round" d="M 5178,2900 L 5178,2752"/>
 <path fill="none" stroke="rgb(179,179,179)" stroke-linejoin="round" d="M 5656,2900 L 5656,2752"/>
 <path fill="none" stroke="rgb(179,179,179)" stroke-linejoin="round" d="M 5656,2900 L 5656,2752"/>
 <path fill="none" stroke="rgb(179,179,179)" stroke-linejoin="round" d="M 6134,2900 L 6134,2752"/>
 <path fill="none" stroke="rgb(179,179,179)" stroke-linejoin="round" d="M 6134,2900 L 6134,2752"/>
 <path fill="none" stroke="rgb(179,179,179)" stroke-linejoin="round" d="M 6612,2900 L 6612,2752"/>
 <path fill="none" stroke="rgb(179,179,179)" stroke-linejoin="round" d="M 6612,2900 L 6612,2752"/>
 <path fill="none" stroke="rgb(179,179,179)" stroke-linejoin="round" d="M 7089,2900 L 7089,2752"/>
 <path fill="none" stroke="rgb(179,179,179)" stroke-linejoin="round" d="M 7089,2900 L 7089,2752"/>
 <path fill="none" stroke="rgb(179,179,179)" stroke-linejoin="round" d="M 878,2752 L 7089,2752"/>
 <path fill="none" stroke="rgb(179,179,179)" stroke-linejoin="round" d="M 728,2752 L 878,2752"/>
 <path fill="none" stroke="rgb(179,179,179)" stroke-linejoin="round" d="M 728,2752 L 878,2752"/>
 <path fill="none" stroke="rgb(179,179,179)" stroke-linejoin="round" d="M 728,2391 L 878,2391"/>
 <path fill="none" stroke="rgb(179,179,179)" stroke-linejoin="round" d="M 728,2391 L 878,2391"/>
 <path fill="none" stroke="rgb(179,179,179)" stroke-linejoin="round" d="M 728,2030 L 878,2030"/>
 <path fill="none" stroke="rgb(179,179,179)" stroke-linejoin="round" d="M 728,2030 L 878,2030"/>
 <path fill="none" stroke="rgb(179,179,179)" stroke-linejoin="round" d="M 728,1670 L 878,1670"/>
 <path fill="none" stroke="rgb(179,179,179)" stroke-linejoin="round" d="M 728,1670 L 878,1670"/>
 <path fill="none" stroke="rgb(179,179,179)" stroke-linejoin="round" d="M 728,1309 L 878,1309"/>
 <path fill="none" stroke="rgb(179,179,179)" stroke-linejoin="round" d="M 728,1309 L 878,1309"/>
 <path fill="none" stroke="rgb(179,179,179)" stroke-linejoin="round" d="M 728,949 L 878,949"/>
 <path fill="none" stroke="rgb(179,179,179)" stroke-linejoin="round" d="M 728,949 L 878,949"/>
 <path fill="none" stroke="rgb(179,179,179)" stroke-linejoin="round" d="M 728,588 L 878,588"/>
 <path fill="none" stroke="rgb(179,179,179)" stroke-linejoin="round" d="M 728,588 L 878,588"/>
 <path fill="none" stroke="rgb(179,179,179)" stroke-linejoin="round" d="M 728,228 L 878,228"/>
 <path fill="none" stroke="rgb(179,179,179)" stroke-linejoin="round" d="M 728,228 L 878,228"/>
 <path fill="none" stroke="rgb(179,179,179)" stroke-linejoin="round" d="M 878,2752 L 878,228"/>
 <path fill="none" stroke="rgb(255,211,32)" stroke-width="80" stroke-linejoin="round" d="M 878,2403 L 1355,2214 1833,2097 2311,1671 2789,1353 3267,1365 3744,1489 4222,1346 4700,1268 5178,1134 5656,1357 6134,1093 6612,993 7089,578"/>
 <path fill="rgb(255,211,32)" stroke="none" d="M 753,2279 L 878,2527 1003,2279 753,2279 Z"/>
 <path fill="none" stroke="rgb(255,211,32)" stroke-linejoin="round" d="M 753,2279 L 878,2527 1003,2279 753,2279 Z"/>
 <path fill="rgb(255,211,32)" stroke="none" d="M 1230,2090 L 1355,2338 1480,2090 1230,2090 Z"/>
 <path fill="none" stroke="rgb(255,211,32)" stroke-linejoin="round" d="M 1230,2090 L 1355,2338 1480,2090 1230,2090 Z"/>
 <path fill="rgb(255,211,32)" stroke="none" d="M 1708,1973 L 1833,2221 1958,1973 1708,1973 Z"/>
 <path fill="none" stroke="rgb(255,211,32)" stroke-linejoin="round" d="M 1708,1973 L 1833,2221 1958,1973 1708,1973 Z"/>
 <path fill="rgb(255,211,32)" stroke="none" d="M 2186,1547 L 2311,1795 2436,1547 2186,1547 Z"/>
 <path fill="none" stroke="rgb(255,211,32)" stroke-linejoin="round" d="M 2186,1547 L 2311,1795 2436,1547 2186,1547 Z"/>
 <path fill="rgb(255,211,32)" stroke="none" d="M 2664,1229 L 2789,1477 2914,1229 2664,1229 Z"/>
 <path fill="none" stroke="rgb(255,211,32)" stroke-linejoin="round" d="M 2664,1229 L 2789,1477 2914,1229 2664,1229 Z"/>
 <path fill="rgb(255,211,32)" stroke="none" d="M 3142,1241 L 3267,1489 3392,1241 3142,1241 Z"/>
 <path fill="none" stroke="rgb(255,211,32)" stroke-linejoin="round" d="M 3142,1241 L 3267,1489 3392,1241 3142,1241 Z"/>
 <path fill="rgb(255,211,32)" stroke="none" d="M 3620,1365 L 3744,1612 3869,1365 3620,1365 Z"/>
 <path fill="none" stroke="rgb(255,211,32)" stroke-linejoin="round" d="M 3620,1365 L 3744,1612 3869,1365 3620,1365 Z"/>
 <path fill="rgb(255,211,32)" stroke="none" d="M 4097,1222 L 4222,1470 4347,1222 4097,1222 Z"/>
 <path fill="none" stroke="rgb(255,211,32)" stroke-linejoin="round" d="M 4097,1222 L 4222,1470 4347,1222 4097,1222 Z"/>
 <path fill="rgb(255,211,32)" stroke="none" d="M 4575,1144 L 4700,1391 4825,1144 4575,1144 Z"/>
 <path fill="none" stroke="rgb(255,211,32)" stroke-linejoin="round" d="M 4575,1144 L 4700,1391 4825,1144 4575,1144 Z"/>
 <path fill="rgb(255,211,32)" stroke="none" d="M 5053,1010 L 5178,1258 5303,1010 5053,1010 Z"/>
 <path fill="none" stroke="rgb(255,211,32)" stroke-linejoin="round" d="M 5053,1010 L 5178,1258 5303,1010 5053,1010 Z"/>
 <path fill="rgb(255,211,32)" stroke="none" d="M 5531,1233 L 5656,1481 5781,1233 5531,1233 Z"/>
 <path fill="none" stroke="rgb(255,211,32)" stroke-linejoin="round" d="M 5531,1233 L 5656,1481 5781,1233 5531,1233 Z"/>
 <path fill="rgb(255,211,32)" stroke="none" d="M 6009,969 L 6134,1217 6259,969 6009,969 Z"/>
 <path fill="none" stroke="rgb(255,211,32)" stroke-linejoin="round" d="M 6009,969 L 6134,1217 6259,969 6009,969 Z"/>
 <path fill="rgb(255,211,32)" stroke="none" d="M 6487,869 L 6612,1117 6737,869 6487,869 Z"/>
 <path fill="none" stroke="rgb(255,211,32)" stroke-linejoin="round" d="M 6487,869 L 6612,1117 6737,869 6487,869 Z"/>
 <path fill="rgb(255,211,32)" stroke="none" d="M 6964,454 L 7089,702 7214,454 6964,454 Z"/>
 <path fill="none" stroke="rgb(255,211,32)" stroke-linejoin="round" d="M 6964,454 L 7089,702 7214,454 6964,454 Z"/>
 <text class="SVGTextShape"><tspan class="TextParagraph" font-family="Liberation Sans, sans-serif" font-size="279px" font-weight="400"><tspan class="TextPosition" x="231" y="2857"><tspan fill="rgb(0,0,0)" stroke="none">1/0</tspan></tspan></tspan></text>
 <text class="SVGTextShape"><tspan class="TextParagraph" font-family="Liberation Sans, sans-serif" font-size="279px" font-weight="400"><tspan class="TextPosition" x="231" y="2497"><tspan fill="rgb(0,0,0)" stroke="none">1/1</tspan></tspan></tspan></text>
 <text class="SVGTextShape"><tspan class="TextParagraph" font-family="Liberation Sans, sans-serif" font-size="279px" font-weight="400"><tspan class="TextPosition" x="231" y="2136"><tspan fill="rgb(0,0,0)" stroke="none">1/2</tspan></tspan></tspan></text>
 <text class="SVGTextShape"><tspan class="TextParagraph" font-family="Liberation Sans, sans-serif" font-size="279px" font-weight="400"><tspan class="TextPosition" x="231" y="1775"><tspan fill="rgb(0,0,0)" stroke="none">1/3</tspan></tspan></tspan></text>
 <text class="SVGTextShape"><tspan class="TextParagraph" font-family="Liberation Sans, sans-serif" font-size="279px" font-weight="400"><tspan class="TextPosition" x="231" y="1415"><tspan fill="rgb(0,0,0)" stroke="none">1/4</tspan></tspan></tspan></text>
 <text class="SVGTextShape"><tspan class="TextParagraph" font-family="Liberation Sans, sans-serif" font-size="279px" font-weight="400"><tspan class="TextPosition" x="231" y="1054"><tspan fill="rgb(0,0,0)" stroke="none">1/5</tspan></tspan></tspan></text>
 <text class="SVGTextShape"><tspan class="TextParagraph" font-family="Liberation Sans, sans-serif" font-size="279px" font-weight="400"><tspan class="TextPosition" x="231" y="693"><tspan fill="rgb(0,0,0)" stroke="none">1/6</tspan></tspan></tspan></text>
 <text class="SVGTextShape"><tspan class="TextParagraph" font-family="Liberation Sans, sans-serif" font-size="279px" font-weight="400"><tspan class="TextPosition" x="231" y="334"><tspan fill="rgb(0,0,0)" stroke="none">1/7</tspan></tspan></tspan></text>
</svg>