<?xml version="1.0" encoding="UTF-8"?>
<!DOCTYPE svg PUBLIC "-//W3C//DTD SVG 1.1//EN" "http://www.w3.org/Graphics/SVG/1.1/DTD/svg11.dtd">
<svg width="150mm" height="75mm" viewBox="0 0 15000 7500" version="1.1" xmlns="http://www.w3.org/2000/svg" xmlns:xlink="http://www.w3.org/1999/xlink" stroke-width="28.222" stroke-linejoin="round" xml:space="preserve">
 <path fill="rgb(255,255,255)" stroke="none" d="M 7500,7500 L 0,7500 0,0 15000,0 15000,7500 7500,7500 Z"/>
 <path fill="none" stroke="rgb(179,179,179)" stroke-linejoin="round" d="M 6275,6270 L 1471,6270 1471,438 11079,438 11079,6270 6275,6270 Z"/>
 <path fill="none" stroke="rgb(179,179,179)" stroke-linejoin="round" d="M 11079,6269 L 1471,6269"/>
 <path fill="none" stroke="rgb(179,179,179)" stroke-linejoin="round" d="M 11079,5539 L 1471,5539"/>
 <path fill="none" stroke="rgb(179,179,179)" stroke-linejoin="round" d="M 11079,4810 L 1471,4810"/>
 <path fill="none" stroke="rgb(179,179,179)" stroke-linejoin="round" d="M 11079,4081 L 1471,4081"/>
 <path fill="none" stroke="rgb(179,179,179)" stroke-linejoin="round" d="M 11079,3353 L 1471,3353"/>
 <path fill="none" stroke="rgb(179,179,179)" stroke-linejoin="round" d="M 11079,2624 L 1471,2624"/>
 <path fill="none" stroke="rgb(179,179,179)" stroke-linejoin="round" d="M 11079,1895 L 1471,1895"/>
 <path fill="none" stroke="rgb(179,179,179)" stroke-linejoin="round" d="M 11079,1166 L 1471,1166"/>
 <path fill="none" stroke="rgb(179,179,179)" stroke-linejoin="round" d="M 11079,436 L 1471,436"/>
 <path fill="none" stroke="rgb(179,179,179)" stroke-linejoin="round" d="M 1471,6419 L 1471,6269"/>
 <path fill="none" stroke="rgb(179,179,179)" stroke-linejoin="round" d="M 1471,6419 L 1471,6269"/>
 <path fill="none" stroke="rgb(179,179,179)" stroke-linejoin="round" d="M 2210,6419 L 2210,6269"/>
 <path fill="none" stroke="rgb(179,179,179)" stroke-linejoin="round" d="M 2210,6419 L 2210,6269"/>
 <path fill="none" stroke="rgb(179,179,179)" stroke-linejoin="round" d="M 2949,6419 L 2949,6269"/>
 <path fill="none" stroke="rgb(179,179,179)" stroke-linejoin="round" d="M 2949,6419 L 2949,6269"/>
 <path fill="none" stroke="rgb(179,179,179)" stroke-linejoin="round" d="M 3688,6419 L 3688,6269"/>
 <path fill="none" stroke="rgb(179,179,179)" stroke-linejoin="round" d="M 3688,6419 L 3688,6269"/>
 <path fill="none" stroke="rgb(179,179,179)" stroke-linejoin="round" d="M 4427,6419 L 4427,6269"/>
 <path fill="none" stroke="rgb(179,179,179)" stroke-linejoin="round" d="M 4427,6419 L 4427,6269"/>
 <path fill="none" stroke="rgb(179,179,179)" stroke-linejoin="round" d="M 5166,6419 L 5166,6269"/>
 <path fill="none" stroke="rgb(179,179,179)" stroke-linejoin="round" d="M 5166,6419 L 5166,6269"/>
 <path fill="none" stroke="rgb(179,179,179)" stroke-linejoin="round" d="M 5905,6419 L 5905,6269"/>
 <path fill="none" stroke="rgb(179,179,179)" stroke-linejoin="round" d="M 5905,6419 L 5905,6269"/>
 <path fill="none" stroke="rgb(179,179,179)" stroke-linejoin="round" d="M 6645,6419 L 6645,6269"/>
 <path fill="none" stroke="rgb(179,179,179)" stroke-linejoin="round" d="M 6645,6419 L 6645,6269"/>
 <path fill="none" stroke="rgb(179,179,179)" stroke-linejoin="round" d="M 7384,6419 L 7384,6269"/>
 <path fill="none" stroke="rgb(179,179,179)" stroke-linejoin="round" d="M 7384,6419 L 7384,6269"/>
 <path fill="none" stroke="rgb(179,179,179)" stroke-linejoin="round" d="M 8122,6419 L 8122,6269"/>
 <path fill="none" stroke="rgb(179,179,179)" stroke-linejoin="round" d="M 8122,6419 L 8122,6269"/>
 <path fill="none" stroke="rgb(179,179,179)" stroke-linejoin="round" d="M 8861,6419 L 8861,6269"/>
 <path fill="none" stroke="rgb(179,179,179)" stroke-linejoin="round" d="M 8861,6419 L 8861,6269"/>
 <path fill="none" stroke="rgb(179,179,179)" stroke-linejoin="round" d="M 9600,6419 L 9600,6269"/>
 <path fill="none" stroke="rgb(179,179,179)" stroke-linejoin="round" d="M 9600,6419 L 9600,6269"/>
 <path fill="none" stroke="rgb(179,179,179)" stroke-linejoin="round" d="M 10339,6419 L 10339,6269"/>
 <path fill="none" stroke="rgb(179,179,179)" stroke-linejoin="round" d="M 10339,6419 L 10339,6269"/>
 <path fill="none" stroke="rgb(179,179,179)" stroke-linejoin="round" d="M 11079,6419 L 11079,6269"/>
 <path fill="none" stroke="rgb(179,179,179)" stroke-linejoin="round" d="M 11079,6419 L 11079,6269"/>
 <path fill="none" stroke="rgb(179,179,179)" stroke-linejoin="round" d="M 1471,6269 L 11079,6269"/>
 <path fill="none" stroke="rgb(179,179,179)" stroke-linejoin="round" d="M 1321,6269 L 1471,6269"/>
 <path fill="none" stroke="rgb(179,179,179)" stroke-linejoin="round" d="M 1321,6269 L 1471,6269"/>
 <path fill="none" stroke="rgb(179,179,179)" stroke-linejoin="round" d="M 1321,5539 L 1471,5539"/>
 <path fill="none" stroke="rgb(179,179,179)" stroke-linejoin="round" d="M 1321,5539 L 1471,5539"/>
 <path fill="none" stroke="rgb(179,179,179)" stroke-linejoin="round" d="M 1321,4810 L 1471,4810"/>
 <path fill="none" stroke="rgb(179,179,179)" stroke-linejoin="round" d="M 1321,4810 L 1471,4810"/>
 <path fill="none" stroke="rgb(179,179,179)" stroke-linejoin="round" d="M 1321,4081 L 1471,4081"/>
 <path fill="none" stroke="rgb(179,179,179)" stroke-linejoin="round" d="M 1321,4081 L 1471,4081"/>
 <path fill="none" stroke="rgb(179,179,179)" stroke-linejoin="round" d="M 1321,3353 L 1471,3353"/>
 <path fill="none" stroke="rgb(179,179,179)" stroke-linejoin="round" d="M 1321,3353 L 1471,3353"/>
 <path fill="none" stroke="rgb(179,179,179)" stroke-linejoin="round" d="M 1321,2624 L 1471,2624"/>
 <path fill="none" stroke="rgb(179,179,179)" stroke-linejoin="round" d="M 1321,2624 L 1471,2624"/>
 <path fill="none" stroke="rgb(179,179,179)" stroke-linejoin="round" d="M 1321,1895 L 1471,1895"/>
 <path fill="none" stroke="rgb(179,179,179)" stroke-linejoin="round" d="M 1321,1895 L 1471,1895"/>
 <path fill="none" stroke="rgb(179,179,179)" stroke-linejoin="round" d="M 1321,1166 L 1471,1166"/>
 <path fill="none" stroke="rgb(179,179,179)" stroke-linejoin="round" d="M 1321,1166 L 1471,1166"/>
 <path fill="none" stroke="rgb(179,179,179)" stroke-linejoin="round" d="M 1321,436 L 1471,436"/>
 <path fill="none" stroke="rgb(179,179,179)" stroke-linejoin="round" d="M 1321,436 L 1471,436"/>
 <path fill="none" stroke="rgb(179,179,179)" stroke-linejoin="round" d="M 1471,6269 L 1471,436"/>
 <path fill="none" stroke="rgb(0,204,204)" stroke-width="80" stroke-linejoin="round" d="M 1471,1174 L 5905,2413 10339,2308 11079,2771"/>
 <path fill="rgb(0,204,204)" stroke="none" d="M 1346,1049 L 1346,1299 1596,1299 1596,1049 1346,1049 Z"/>
 <path fill="none" stroke="rgb(0,204,204)" stroke-linejoin="round" d="M 1346,1049 L 1346,1299 1596,1299 1596,1049 1346,1049 Z"/>
 <path fill="rgb(0,204,204)" stroke="none" d="M 5780,2288 L 5780,2538 6030,2538 6030,2288 5780,2288 Z"/>
 <path fill="none" stroke="rgb(0,204,204)" stroke-linejoin="round" d="M 5780,2288 L 5780,2538 6030,2538 6030,2288 5780,2288 Z"/>
 <path fill="rgb(0,204,204)" stroke="none" d="M 10214,2183 L 10214,2433 10464,2433 10464,2183 10214,2183 Z"/>
 <path fill="none" stroke="rgb(0,204,204)" stroke-linejoin="round" d="M 10214,2183 L 10214,2433 10464,2433 10464,2183 10214,2183 Z"/>
 <path fill="rgb(0,204,204)" stroke="none" d="M 10954,2646 L 10954,2896 11204,2896 11204,2646 10954,2646 Z"/>
 <path fill="none" stroke="rgb(0,204,204)" stroke-linejoin="round" d="M 10954,2646 L 10954,2896 11204,2896 11204,2646 10954,2646 Z"/>
 <path fill="none" stroke="rgb(102,0,255)" stroke-width="80" stroke-linejoin="round" d="M 1471,4288 L 5905,3047 10339,3229 11079,2792"/>
 <path fill="rgb(102,0,255)" stroke="none" d="M 1346,4288 L 1471,4413 1596,4288 1471,4163 1346,4288 Z"/>
 <path fill="none" stroke="rgb(102,0,255)" stroke-linejoin="round" d="M 1346,4288 L 1471,4413 1596,4288 1471,4163 1346,4288 Z"/>
 <path fill="rgb(102,0,255)" stroke="none" d="M 5780,3047 L 5905,3172 6030,3047 5905,2922 5780,3047 Z"/>
 <path fill="none" stroke="rgb(102,0,255)" stroke-linejoin="round" d="M 5780,3047 L 5905,3172 6030,3047 5905,2922 5780,3047 Z"/>
 <path fill="rgb(102,0,255)" stroke="none" d="M 10214,3229 L 10339,3354 10464,3229 10339,3104 10214,3229 Z"/>
 <path fill="none" stroke="rgb(102,0,255)" stroke-linejoin="round" d="M 10214,3229 L 10339,3354 10464,3229 10339,3104 10214,3229 Z"/>
 <path fill="rgb(102,0,255)" stroke="none" d="M 10954,2792 L 11079,2917 11204,2792 11079,2667 10954,2792 Z"/>
 <path fill="none" stroke="rgb(102,0,255)" stroke-linejoin="round" d="M 10954,2792 L 11079,2917 11204,2792 11079,2667 10954,2792 Z"/>
 <path fill="none" stroke="rgb(255,211,32)" stroke-width="80" stroke-linejoin="round" d="M 1471,6052 L 5905,6056 10339,5980 11079,5953"/>
 <path fill="rgb(255,211,32)" stroke="none" d="M 1346,5927 L 1471,6177 1596,5927 1346,5927 Z"/>
 <path fill="none" stroke="rgb(255,211,32)" stroke-linejoin="round" d="M 1346,5927 L 1471,6177 1596,5927 1346,5927 Z"/>
 <path fill="rgb(255,211,32)" stroke="none" d="M 5780,5931 L 5905,6181 6030,5931 5780,5931 Z"/>
 <path fill="none" stroke="rgb(255,211,32)" stroke-linejoin="round" d="M 5780,5931 L 5905,6181 6030,5931 5780,5931 Z"/>
 <path fill="rgb(255,211,32)" stroke="none" d="M 10214,5855 L 10339,6105 10464,5855 10214,5855 Z"/>
 <path fill="none" stroke="rgb(255,211,32)" stroke-linejoin="round" d="M 10214,5855 L 10339,6105 10464,5855 10214,5855 Z"/>
 <path fill="rgb(255,211,32)" stroke="none" d="M 10954,5828 L 11079,6078 11204,5828 10954,5828 Z"/>
 <path fill="none" stroke="rgb(255,211,32)" stroke-linejoin="round" d="M 10954,5828 L 11079,6078 11204,5828 10954,5828 Z"/>
 <text class="SVGTextShape" transform="rotate(-44.9 1049 7323)"><tspan class="TextParagraph" font-family="Latin Modern Roman" font-size="353px" font-weight="400"><tspan class="TextPosition" x="1049" y="7323"><tspan fill="rgb(0,0,0)" stroke="none">1950</tspan></tspan></tspan></text>
 <text class="SVGTextShape" transform="rotate(-44.9 1788 7323)"><tspan class="TextParagraph" font-family="Latin Modern Roman" font-size="353px" font-weight="400"><tspan class="TextPosition" x="1788" y="7323"><tspan fill="rgb(0,0,0)" stroke="none">1955</tspan></tspan></tspan></text>
 <text class="SVGTextShape" transform="rotate(-44.9 2527 7323)"><tspan class="TextParagraph" font-family="Latin Modern Roman" font-size="353px" font-weight="400"><tspan class="TextPosition" x="2527" y="7323"><tspan fill="rgb(0,0,0)" stroke="none">1960</tspan></tspan></tspan></text>
 <text class="SVGTextShape" transform="rotate(-44.9 3266 7323)"><tspan class="TextParagraph" font-family="Latin Modern Roman" font-size="353px" font-weight="400"><tspan class="TextPosition" x="3266" y="7323"><tspan fill="rgb(0,0,0)" stroke="none">1965</tspan></tspan></tspan></text>
 <text class="SVGTextShape" transform="rotate(-44.9 4005 7323)"><tspan class="TextParagraph" font-family="Latin Modern Roman" font-size="353px" font-weight="400"><tspan class="TextPosition" x="4005" y="7323"><tspan fill="rgb(0,0,0)" stroke="none">1970</tspan></tspan></tspan></text>
 <text class="SVGTextShape" transform="rotate(-44.9 4744 7323)"><tspan class="TextParagraph" font-family="Latin Modern Roman" font-size="353px" font-weight="400"><tspan class="TextPosition" x="4744" y="7323"><tspan fill="rgb(0,0,0)" stroke="none">1975</tspan></tspan></tspan></text>
 <text class="SVGTextShape" transform="rotate(-44.9 5483 7323)"><tspan class="TextParagraph" font-family="Latin Modern Roman" font-size="353px" font-weight="400"><tspan class="TextPosition" x="5483" y="7323"><tspan fill="rgb(0,0,0)" stroke="none">1980</tspan></tspan></tspan></text>
 <text class="SVGTextShape" transform="rotate(-44.9 6223 7323)"><tspan class="TextParagraph" font-family="Latin Modern Roman" font-size="353px" font-weight="400"><tspan class="TextPosition" x="6223" y="7323"><tspan fill="rgb(0,0,0)" stroke="none">1985</tspan></tspan></tspan></text>
 <text class="SVGTextShape" transform="rotate(-44.9 6962 7323)"><tspan class="TextParagraph" font-family="Latin Modern Roman" font-size="353px" font-weight="400"><tspan class="TextPosition" x="6962" y="7323"><tspan fill="rgb(0,0,0)" stroke="none">1990</tspan></tspan></tspan></text>
 <text class="SVGTextShape" transform="rotate(-44.9 7701 7323)"><tspan class="TextParagraph" font-family="Latin Modern Roman" font-size="353px" font-weight="400"><tspan class="TextPosition" x="7701" y="7323"><tspan fill="rgb(0,0,0)" stroke="none">1995</tspan></tspan></tspan></text>
 <text class="SVGTextShape" transform="rotate(-44.9 8440 7323)"><tspan class="TextParagraph" font-family="Latin Modern Roman" font-size="353px" font-weight="400"><tspan class="TextPosition" x="8440" y="7323"><tspan fill="rgb(0,0,0)" stroke="none">2000</tspan></tspan></tspan></text>
 <text class="SVGTextShape" transform="rotate(-44.9 9178 7323)"><tspan class="TextParagraph" font-family="Latin Modern Roman" font-size="353px" font-weight="400"><tspan class="TextPosition" x="9178" y="7323"><tspan fill="rgb(0,0,0)" stroke="none">2005</tspan></tspan></tspan></text>
 <text class="SVGTextShape" transform="rotate(-44.9 9917 7323)"><tspan class="TextParagraph" font-family="Latin Modern Roman" font-size="353px" font-weight="400"><tspan class="TextPosition" x="9917" y="7323"><tspan fill="rgb(0,0,0)" stroke="none">2010</tspan></tspan></tspan></text>
 <text class="SVGTextShape" transform="rotate(-44.9 10657 7323)"><tspan class="TextParagraph" font-family="Latin Modern Roman" font-size="353px" font-weight="400"><tspan class="TextPosition" x="10657" y="7323"><tspan fill="rgb(0,0,0)" stroke="none">2015</tspan></tspan></tspan></text>
 <text class="SVGTextShape"><tspan class="TextParagraph" font-family="Latin Modern Roman" font-size="353px" font-weight="400"><tspan class="TextPosition" x="745" y="6416"><tspan fill="rgb(0,0,0)" stroke="none">0%</tspan></tspan></tspan></text>
 <text class="SVGTextShape"><tspan class="TextParagraph" font-family="Latin Modern Roman" font-size="353px" font-weight="400"><tspan class="TextPosition" x="560" y="5686"><tspan fill="rgb(0,0,0)" stroke="none">10%</tspan></tspan></tspan></text>
 <text class="SVGTextShape"><tspan class="TextParagraph" font-family="Latin Modern Roman" font-size="353px" font-weight="400"><tspan class="TextPosition" x="560" y="4957"><tspan fill="rgb(0,0,0)" stroke="none">20%</tspan></tspan></tspan></text>
 <text class="SVGTextShape"><tspan class="TextParagraph" font-family="Latin Modern Roman" font-size="353px" font-weight="400"><tspan class="TextPosition" x="560" y="4228"><tspan fill="rgb(0,0,0)" stroke="none">30%</tspan></tspan></tspan></text>
 <text class="SVGTextShape"><tspan class="TextParagraph" font-family="Latin Modern Roman" font-size="353px" font-weight="400"><tspan class="TextPosition" x="560" y="3499"><tspan fill="rgb(0,0,0)" stroke="none">40%</tspan></tspan></tspan></text>
 <text class="SVGTextShape"><tspan class="TextParagraph" font-family="Latin Modern Roman" font-size="353px" font-weight="400"><tspan class="TextPosition" x="560" y="2770"><tspan fill="rgb(0,0,0)" stroke="none">50%</tspan></tspan></tspan></text>
 <text class="SVGTextShape"><tspan class="TextParagraph" font-family="Latin Modern Roman" font-size="353px" font-weight="400"><tspan class="TextPosition" x="560" y="2041"><tspan fill="rgb(0,0,0)" stroke="none">60%</tspan></tspan></tspan></text>
 <text class="SVGTextShape"><tspan class="TextParagraph" font-family="Latin Modern Roman" font-size="353px" font-weight="400"><tspan class="TextPosition" x="560" y="1312"><tspan fill="rgb(0,0,0)" stroke="none">70%</tspan></tspan></tspan></text>
 <text class="SVGTextShape"><tspan class="TextParagraph" font-family="Latin Modern Roman" font-size="353px" font-weight="400"><tspan class="TextPosition" x="560" y="582"><tspan fill="rgb(0,0,0)" stroke="none">80%</tspan></tspan></tspan></text>
 <path fill="none" stroke="rgb(0,204,204)" stroke-width="80" stroke-linejoin="round" d="M 11708,3172 L 12508,3172"/>
 <path fill="rgb(0,204,204)" stroke="none" d="M 12002,3067 L 12002,3278 12213,3278 12213,3067 12002,3067 Z"/>
 <path fill="none" stroke="rgb(0,204,204)" stroke-linejoin="round" d="M 12002,3067 L 12002,3278 12213,3278 12213,3067 12002,3067 Z"/>
 <path fill="none" stroke="rgb(102,0,255)" stroke-width="80" stroke-linejoin="round" d="M 11708,3749 L 12508,3749"/>
 <path fill="rgb(102,0,255)" stroke="none" d="M 12002,3749 L 12108,3854 12213,3749 12108,3644 12002,3749 Z"/>
 <path fill="none" stroke="rgb(102,0,255)" stroke-linejoin="round" d="M 12002,3749 L 12108,3854 12213,3749 12108,3644 12002,3749 Z"/>
 <path fill="none" stroke="rgb(255,211,32)" stroke-width="80" stroke-linejoin="round" d="M 11708,4325 L 12508,4325"/>
 <path fill="rgb(255,211,32)" stroke="none" d="M 12002,4220 L 12108,4431 12213,4220 12002,4220 Z"/>
 <path fill="none" stroke="rgb(255,211,32)" stroke-linejoin="round" d="M 12002,4220 L 12108,4431 12213,4220 12002,4220 Z"/>
 <text class="SVGTextShape"><tspan class="TextParagraph" font-family="Latin Modern Roman Caps" font-size="353px" font-weight="400"><tspan class="TextPosition" x="12608" y="3304"><tspan fill="rgb(0,0,0)" stroke="none">akkerbouw</tspan></tspan></tspan></text>
 <text class="SVGTextShape"><tspan class="TextParagraph" font-family="Latin Modern Roman Caps" font-size="353px" font-weight="400"><tspan class="TextPosition" x="12608" y="3880"><tspan fill="rgb(0,0,0)" stroke="none">veehouderij</tspan></tspan></tspan></text>
 <text class="SVGTextShape"><tspan class="TextParagraph" font-family="Latin Modern Roman Caps" font-size="353px" font-weight="400"><tspan class="TextPosition" x="12608" y="4457"><tspan fill="rgb(0,0,0)" stroke="none">tuinbouw</tspan></tspan></tspan></text>
</svg>