<?xml version="1.0" encoding="UTF-8"?>
<!DOCTYPE svg PUBLIC "-//W3C//DTD SVG 1.1//EN" "http://www.w3.org/Graphics/SVG/1.1/DTD/svg11.dtd">
<svg width="150mm" height="75mm" viewBox="0 0 15000 7500" version="1.1" xmlns="http://www.w3.org/2000/svg" xmlns:xlink="http://www.w3.org/1999/xlink" stroke-width="28.222" stroke-linejoin="round" xml:space="preserve">
 <path fill="rgb(255,255,255)" stroke="none" d="M 7500,7500 L 0,7500 0,0 15000,0 15000,7500 7500,7500 Z"/>
 <path fill="none" stroke="rgb(179,179,179)" stroke-linejoin="round" d="M 5866,6300 L 1422,6300 1422,608 10309,608 10309,6300 5866,6300 Z"/>
 <path fill="none" stroke="rgb(179,179,179)" stroke-linejoin="round" d="M 10309,6299 L 1422,6299"/>
 <path fill="none" stroke="rgb(179,179,179)" stroke-linejoin="round" d="M 10309,5587 L 1422,5587"/>
 <path fill="none" stroke="rgb(179,179,179)" stroke-linejoin="round" d="M 10309,4875 L 1422,4875"/>
 <path fill="none" stroke="rgb(179,179,179)" stroke-linejoin="round" d="M 10309,4164 L 1422,4164"/>
 <path fill="none" stroke="rgb(179,179,179)" stroke-linejoin="round" d="M 10309,3453 L 1422,3453"/>
 <path fill="none" stroke="rgb(179,179,179)" stroke-linejoin="round" d="M 10309,2741 L 1422,2741"/>
 <path fill="none" stroke="rgb(179,179,179)" stroke-linejoin="round" d="M 10309,2030 L 1422,2030"/>
 <path fill="none" stroke="rgb(179,179,179)" stroke-linejoin="round" d="M 10309,1318 L 1422,1318"/>
 <path fill="none" stroke="rgb(179,179,179)" stroke-linejoin="round" d="M 10309,607 L 1422,607"/>
 <path fill="none" stroke="rgb(179,179,179)" stroke-linejoin="round" d="M 1422,6449 L 1422,6299"/>
 <path fill="none" stroke="rgb(179,179,179)" stroke-linejoin="round" d="M 1422,6449 L 1422,6299"/>
 <path fill="none" stroke="rgb(179,179,179)" stroke-linejoin="round" d="M 2105,6449 L 2105,6299"/>
 <path fill="none" stroke="rgb(179,179,179)" stroke-linejoin="round" d="M 2105,6449 L 2105,6299"/>
 <path fill="none" stroke="rgb(179,179,179)" stroke-linejoin="round" d="M 2789,6449 L 2789,6299"/>
 <path fill="none" stroke="rgb(179,179,179)" stroke-linejoin="round" d="M 2789,6449 L 2789,6299"/>
 <path fill="none" stroke="rgb(179,179,179)" stroke-linejoin="round" d="M 3473,6449 L 3473,6299"/>
 <path fill="none" stroke="rgb(179,179,179)" stroke-linejoin="round" d="M 3473,6449 L 3473,6299"/>
 <path fill="none" stroke="rgb(179,179,179)" stroke-linejoin="round" d="M 4156,6449 L 4156,6299"/>
 <path fill="none" stroke="rgb(179,179,179)" stroke-linejoin="round" d="M 4156,6449 L 4156,6299"/>
 <path fill="none" stroke="rgb(179,179,179)" stroke-linejoin="round" d="M 4840,6449 L 4840,6299"/>
 <path fill="none" stroke="rgb(179,179,179)" stroke-linejoin="round" d="M 4840,6449 L 4840,6299"/>
 <path fill="none" stroke="rgb(179,179,179)" stroke-linejoin="round" d="M 5524,6449 L 5524,6299"/>
 <path fill="none" stroke="rgb(179,179,179)" stroke-linejoin="round" d="M 5524,6449 L 5524,6299"/>
 <path fill="none" stroke="rgb(179,179,179)" stroke-linejoin="round" d="M 6207,6449 L 6207,6299"/>
 <path fill="none" stroke="rgb(179,179,179)" stroke-linejoin="round" d="M 6207,6449 L 6207,6299"/>
 <path fill="none" stroke="rgb(179,179,179)" stroke-linejoin="round" d="M 6891,6449 L 6891,6299"/>
 <path fill="none" stroke="rgb(179,179,179)" stroke-linejoin="round" d="M 6891,6449 L 6891,6299"/>
 <path fill="none" stroke="rgb(179,179,179)" stroke-linejoin="round" d="M 7574,6449 L 7574,6299"/>
 <path fill="none" stroke="rgb(179,179,179)" stroke-linejoin="round" d="M 7574,6449 L 7574,6299"/>
 <path fill="none" stroke="rgb(179,179,179)" stroke-linejoin="round" d="M 8257,6449 L 8257,6299"/>
 <path fill="none" stroke="rgb(179,179,179)" stroke-linejoin="round" d="M 8257,6449 L 8257,6299"/>
 <path fill="none" stroke="rgb(179,179,179)" stroke-linejoin="round" d="M 8941,6449 L 8941,6299"/>
 <path fill="none" stroke="rgb(179,179,179)" stroke-linejoin="round" d="M 8941,6449 L 8941,6299"/>
 <path fill="none" stroke="rgb(179,179,179)" stroke-linejoin="round" d="M 9625,6449 L 9625,6299"/>
 <path fill="none" stroke="rgb(179,179,179)" stroke-linejoin="round" d="M 9625,6449 L 9625,6299"/>
 <path fill="none" stroke="rgb(179,179,179)" stroke-linejoin="round" d="M 10309,6449 L 10309,6299"/>
 <path fill="none" stroke="rgb(179,179,179)" stroke-linejoin="round" d="M 10309,6449 L 10309,6299"/>
 <path fill="none" stroke="rgb(179,179,179)" stroke-linejoin="round" d="M 1422,6299 L 10309,6299"/>
 <path fill="none" stroke="rgb(179,179,179)" stroke-linejoin="round" d="M 1272,6299 L 1422,6299"/>
 <path fill="none" stroke="rgb(179,179,179)" stroke-linejoin="round" d="M 1272,6299 L 1422,6299"/>
 <path fill="none" stroke="rgb(179,179,179)" stroke-linejoin="round" d="M 1272,5587 L 1422,5587"/>
 <path fill="none" stroke="rgb(179,179,179)" stroke-linejoin="round" d="M 1272,5587 L 1422,5587"/>
 <path fill="none" stroke="rgb(179,179,179)" stroke-linejoin="round" d="M 1272,4875 L 1422,4875"/>
 <path fill="none" stroke="rgb(179,179,179)" stroke-linejoin="round" d="M 1272,4875 L 1422,4875"/>
 <path fill="none" stroke="rgb(179,179,179)" stroke-linejoin="round" d="M 1272,4164 L 1422,4164"/>
 <path fill="none" stroke="rgb(179,179,179)" stroke-linejoin="round" d="M 1272,4164 L 1422,4164"/>
 <path fill="none" stroke="rgb(179,179,179)" stroke-linejoin="round" d="M 1272,3453 L 1422,3453"/>
 <path fill="none" stroke="rgb(179,179,179)" stroke-linejoin="round" d="M 1272,3453 L 1422,3453"/>
 <path fill="none" stroke="rgb(179,179,179)" stroke-linejoin="round" d="M 1272,2741 L 1422,2741"/>
 <path fill="none" stroke="rgb(179,179,179)" stroke-linejoin="round" d="M 1272,2741 L 1422,2741"/>
 <path fill="none" stroke="rgb(179,179,179)" stroke-linejoin="round" d="M 1272,2030 L 1422,2030"/>
 <path fill="none" stroke="rgb(179,179,179)" stroke-linejoin="round" d="M 1272,2030 L 1422,2030"/>
 <path fill="none" stroke="rgb(179,179,179)" stroke-linejoin="round" d="M 1272,1318 L 1422,1318"/>
 <path fill="none" stroke="rgb(179,179,179)" stroke-linejoin="round" d="M 1272,1318 L 1422,1318"/>
 <path fill="none" stroke="rgb(179,179,179)" stroke-linejoin="round" d="M 1272,607 L 1422,607"/>
 <path fill="none" stroke="rgb(179,179,179)" stroke-linejoin="round" d="M 1272,607 L 1422,607"/>
 <path fill="none" stroke="rgb(179,179,179)" stroke-linejoin="round" d="M 1422,6299 L 1422,607"/>
 <path fill="none" stroke="rgb(0,120,38)" stroke-width="80" stroke-linejoin="round" d="M 1422,4875 L 2105,4748 2789,4492 3473,4584 4156,4282 4840,4142 5524,3797 6207,3596 6891,3443 7574,3519 8257,3373 8941,3606 9625,3385 10309,3343"/>
 <path fill="rgb(0,120,38)" stroke="none" d="M 1297,5000 L 1547,5000 1422,4750 1297,5000 Z"/>
 <path fill="none" stroke="rgb(0,120,38)" stroke-linejoin="round" d="M 1297,5000 L 1547,5000 1422,4750 1297,5000 Z"/>
 <path fill="rgb(0,120,38)" stroke="none" d="M 1980,4873 L 2230,4873 2105,4623 1980,4873 Z"/>
 <path fill="none" stroke="rgb(0,120,38)" stroke-linejoin="round" d="M 1980,4873 L 2230,4873 2105,4623 1980,4873 Z"/>
 <path fill="rgb(0,120,38)" stroke="none" d="M 2664,4617 L 2914,4617 2789,4367 2664,4617 Z"/>
 <path fill="none" stroke="rgb(0,120,38)" stroke-linejoin="round" d="M 2664,4617 L 2914,4617 2789,4367 2664,4617 Z"/>
 <path fill="rgb(0,120,38)" stroke="none" d="M 3348,4709 L 3598,4709 3473,4459 3348,4709 Z"/>
 <path fill="none" stroke="rgb(0,120,38)" stroke-linejoin="round" d="M 3348,4709 L 3598,4709 3473,4459 3348,4709 Z"/>
 <path fill="rgb(0,120,38)" stroke="none" d="M 4031,4407 L 4281,4407 4156,4157 4031,4407 Z"/>
 <path fill="none" stroke="rgb(0,120,38)" stroke-linejoin="round" d="M 4031,4407 L 4281,4407 4156,4157 4031,4407 Z"/>
 <path fill="rgb(0,120,38)" stroke="none" d="M 4715,4267 L 4965,4267 4840,4017 4715,4267 Z"/>
 <path fill="none" stroke="rgb(0,120,38)" stroke-linejoin="round" d="M 4715,4267 L 4965,4267 4840,4017 4715,4267 Z"/>
 <path fill="rgb(0,120,38)" stroke="none" d="M 5399,3922 L 5649,3922 5524,3673 5399,3922 Z"/>
 <path fill="none" stroke="rgb(0,120,38)" stroke-linejoin="round" d="M 5399,3922 L 5649,3922 5524,3673 5399,3922 Z"/>
 <path fill="rgb(0,120,38)" stroke="none" d="M 6082,3721 L 6332,3721 6207,3471 6082,3721 Z"/>
 <path fill="none" stroke="rgb(0,120,38)" stroke-linejoin="round" d="M 6082,3721 L 6332,3721 6207,3471 6082,3721 Z"/>
 <path fill="rgb(0,120,38)" stroke="none" d="M 6766,3568 L 7016,3568 6891,3318 6766,3568 Z"/>
 <path fill="none" stroke="rgb(0,120,38)" stroke-linejoin="round" d="M 6766,3568 L 7016,3568 6891,3318 6766,3568 Z"/>
 <path fill="rgb(0,120,38)" stroke="none" d="M 7450,3644 L 7699,3644 7574,3394 7450,3644 Z"/>
 <path fill="none" stroke="rgb(0,120,38)" stroke-linejoin="round" d="M 7450,3644 L 7699,3644 7574,3394 7450,3644 Z"/>
 <path fill="rgb(0,120,38)" stroke="none" d="M 8132,3498 L 8382,3498 8257,3248 8132,3498 Z"/>
 <path fill="none" stroke="rgb(0,120,38)" stroke-linejoin="round" d="M 8132,3498 L 8382,3498 8257,3248 8132,3498 Z"/>
 <path fill="rgb(0,120,38)" stroke="none" d="M 8816,3731 L 9066,3731 8941,3481 8816,3731 Z"/>
 <path fill="none" stroke="rgb(0,120,38)" stroke-linejoin="round" d="M 8816,3731 L 9066,3731 8941,3481 8816,3731 Z"/>
 <path fill="rgb(0,120,38)" stroke="none" d="M 9500,3510 L 9750,3510 9625,3260 9500,3510 Z"/>
 <path fill="none" stroke="rgb(0,120,38)" stroke-linejoin="round" d="M 9500,3510 L 9750,3510 9625,3260 9500,3510 Z"/>
 <path fill="rgb(0,120,38)" stroke="none" d="M 10184,3468 L 10434,3468 10309,3218 10184,3468 Z"/>
 <path fill="none" stroke="rgb(0,120,38)" stroke-linejoin="round" d="M 10184,3468 L 10434,3468 10309,3218 10184,3468 Z"/>
 <path fill="none" stroke="rgb(255,211,32)" stroke-width="80" stroke-linejoin="round" d="M 1422,4875 L 5524,3840 9625,2406 10309,1987"/>
 <path fill="rgb(255,211,32)" stroke="none" d="M 1297,4750 L 1422,5000 1547,4750 1297,4750 Z"/>
 <path fill="none" stroke="rgb(255,211,32)" stroke-linejoin="round" d="M 1297,4750 L 1422,5000 1547,4750 1297,4750 Z"/>
 <path fill="rgb(255,211,32)" stroke="none" d="M 5399,3716 L 5524,3965 5649,3716 5399,3716 Z"/>
 <path fill="none" stroke="rgb(255,211,32)" stroke-linejoin="round" d="M 5399,3716 L 5524,3965 5649,3716 5399,3716 Z"/>
 <path fill="rgb(255,211,32)" stroke="none" d="M 9500,2281 L 9625,2531 9750,2281 9500,2281 Z"/>
 <path fill="none" stroke="rgb(255,211,32)" stroke-linejoin="round" d="M 9500,2281 L 9625,2531 9750,2281 9500,2281 Z"/>
 <path fill="rgb(255,211,32)" stroke="none" d="M 10184,1862 L 10309,2112 10434,1862 10184,1862 Z"/>
 <path fill="none" stroke="rgb(255,211,32)" stroke-linejoin="round" d="M 10184,1862 L 10309,2112 10434,1862 10184,1862 Z"/>
 <path fill="none" stroke="rgb(102,0,255)" stroke-width="80" stroke-linejoin="round" d="M 1422,4875 L 5524,2228 9625,1824 10309,1107"/>
 <path fill="rgb(102,0,255)" stroke="none" d="M 1297,4875 L 1422,5000 1547,4875 1422,4750 1297,4875 Z"/>
 <path fill="none" stroke="rgb(102,0,255)" stroke-linejoin="round" d="M 1297,4875 L 1422,5000 1547,4875 1422,4750 1297,4875 Z"/>
 <path fill="rgb(102,0,255)" stroke="none" d="M 5399,2228 L 5524,2353 5649,2228 5524,2103 5399,2228 Z"/>
 <path fill="none" stroke="rgb(102,0,255)" stroke-linejoin="round" d="M 5399,2228 L 5524,2353 5649,2228 5524,2103 5399,2228 Z"/>
 <path fill="rgb(102,0,255)" stroke="none" d="M 9500,1824 L 9625,1949 9750,1824 9625,1699 9500,1824 Z"/>
 <path fill="none" stroke="rgb(102,0,255)" stroke-linejoin="round" d="M 9500,1824 L 9625,1949 9750,1824 9625,1699 9500,1824 Z"/>
 <path fill="rgb(102,0,255)" stroke="none" d="M 10184,1107 L 10309,1232 10434,1107 10309,982 10184,1107 Z"/>
 <path fill="none" stroke="rgb(102,0,255)" stroke-linejoin="round" d="M 10184,1107 L 10309,1232 10434,1107 10309,982 10184,1107 Z"/>
 <path fill="none" stroke="rgb(0,204,204)" stroke-width="80" stroke-linejoin="round" d="M 1422,4875 L 5524,4405 9625,4033 10309,4268"/>
 <path fill="rgb(0,204,204)" stroke="none" d="M 1297,4750 L 1297,5000 1547,5000 1547,4750 1297,4750 Z"/>
 <path fill="none" stroke="rgb(0,204,204)" stroke-linejoin="round" d="M 1297,4750 L 1297,5000 1547,5000 1547,4750 1297,4750 Z"/>
 <path fill="rgb(0,204,204)" stroke="none" d="M 5399,4280 L 5399,4530 5649,4530 5649,4280 5399,4280 Z"/>
 <path fill="none" stroke="rgb(0,204,204)" stroke-linejoin="round" d="M 5399,4280 L 5399,4530 5649,4530 5649,4280 5399,4280 Z"/>
 <path fill="rgb(0,204,204)" stroke="none" d="M 9500,3908 L 9500,4158 9750,4158 9750,3908 9500,3908 Z"/>
 <path fill="none" stroke="rgb(0,204,204)" stroke-linejoin="round" d="M 9500,3908 L 9500,4158 9750,4158 9750,3908 9500,3908 Z"/>
 <path fill="rgb(0,204,204)" stroke="none" d="M 10184,4143 L 10184,4393 10434,4393 10434,4143 10184,4143 Z"/>
 <path fill="none" stroke="rgb(0,204,204)" stroke-linejoin="round" d="M 10184,4143 L 10184,4393 10434,4393 10434,4143 10184,4143 Z"/>
 <text class="SVGTextShape" transform="rotate(-44.9 1000 7353)"><tspan class="TextParagraph" font-family="Latin Modern Roman" font-size="353px" font-weight="400"><tspan class="TextPosition" x="1000" y="7353"><tspan fill="rgb(0,0,0)" stroke="none">1950</tspan></tspan></tspan></text>
 <text class="SVGTextShape" transform="rotate(-44.9 2367 7353)"><tspan class="TextParagraph" font-family="Latin Modern Roman" font-size="353px" font-weight="400"><tspan class="TextPosition" x="2367" y="7353"><tspan fill="rgb(0,0,0)" stroke="none">1960</tspan></tspan></tspan></text>
 <text class="SVGTextShape" transform="rotate(-44.9 3734 7353)"><tspan class="TextParagraph" font-family="Latin Modern Roman" font-size="353px" font-weight="400"><tspan class="TextPosition" x="3734" y="7353"><tspan fill="rgb(0,0,0)" stroke="none">1970</tspan></tspan></tspan></text>
 <text class="SVGTextShape" transform="rotate(-44.9 5102 7353)"><tspan class="TextParagraph" font-family="Latin Modern Roman" font-size="353px" font-weight="400"><tspan class="TextPosition" x="5102" y="7353"><tspan fill="rgb(0,0,0)" stroke="none">1980</tspan></tspan></tspan></text>
 <text class="SVGTextShape" transform="rotate(-44.9 6469 7353)"><tspan class="TextParagraph" font-family="Latin Modern Roman" font-size="353px" font-weight="400"><tspan class="TextPosition" x="6469" y="7353"><tspan fill="rgb(0,0,0)" stroke="none">1990</tspan></tspan></tspan></text>
 <text class="SVGTextShape" transform="rotate(-44.9 7836 7353)"><tspan class="TextParagraph" font-family="Latin Modern Roman" font-size="353px" font-weight="400"><tspan class="TextPosition" x="7836" y="7353"><tspan fill="rgb(0,0,0)" stroke="none">2000</tspan></tspan></tspan></text>
 <text class="SVGTextShape" transform="rotate(-44.9 9203 7353)"><tspan class="TextParagraph" font-family="Latin Modern Roman" font-size="353px" font-weight="400"><tspan class="TextPosition" x="9203" y="7353"><tspan fill="rgb(0,0,0)" stroke="none">2010</tspan></tspan></tspan></text>
 <text class="SVGTextShape"><tspan class="TextParagraph" font-family="Latin Modern Roman" font-size="353px" font-weight="400"><tspan class="TextPosition" x="696" y="6446"><tspan fill="rgb(0,0,0)" stroke="none">0%</tspan></tspan></tspan></text>
 <text class="SVGTextShape"><tspan class="TextParagraph" font-family="Latin Modern Roman" font-size="353px" font-weight="400"><tspan class="TextPosition" x="511" y="5734"><tspan fill="rgb(0,0,0)" stroke="none">50%</tspan></tspan></tspan></text>
 <text class="SVGTextShape"><tspan class="TextParagraph" font-family="Latin Modern Roman" font-size="353px" font-weight="400"><tspan class="TextPosition" x="325" y="5022"><tspan fill="rgb(0,0,0)" stroke="none">100%</tspan></tspan></tspan></text>
 <text class="SVGTextShape"><tspan class="TextParagraph" font-family="Latin Modern Roman" font-size="353px" font-weight="400"><tspan class="TextPosition" x="325" y="4311"><tspan fill="rgb(0,0,0)" stroke="none">150%</tspan></tspan></tspan></text>
 <text class="SVGTextShape"><tspan class="TextParagraph" font-family="Latin Modern Roman" font-size="353px" font-weight="400"><tspan class="TextPosition" x="325" y="3599"><tspan fill="rgb(0,0,0)" stroke="none">200%</tspan></tspan></tspan></text>
 <text class="SVGTextShape"><tspan class="TextParagraph" font-family="Latin Modern Roman" font-size="353px" font-weight="400"><tspan class="TextPosition" x="325" y="2887"><tspan fill="rgb(0,0,0)" stroke="none">250%</tspan></tspan></tspan></text>
 <text class="SVGTextShape"><tspan class="TextParagraph" font-family="Latin Modern Roman" font-size="353px" font-weight="400"><tspan class="TextPosition" x="325" y="2176"><tspan fill="rgb(0,0,0)" stroke="none">300%</tspan></tspan></tspan></text>
 <text class="SVGTextShape"><tspan class="TextParagraph" font-family="Latin Modern Roman" font-size="353px" font-weight="400"><tspan class="TextPosition" x="325" y="1464"><tspan fill="rgb(0,0,0)" stroke="none">350%</tspan></tspan></tspan></text>
 <text class="SVGTextShape"><tspan class="TextParagraph" font-family="Latin Modern Roman" font-size="353px" font-weight="400"><tspan class="TextPosition" x="325" y="753"><tspan fill="rgb(0,0,0)" stroke="none">400%</tspan></tspan></tspan></text>
 <path fill="none" stroke="rgb(0,204,204)" stroke-width="80" stroke-linejoin="round" d="M 10676,2884 L 11476,2884"/>
 <path fill="rgb(0,204,204)" stroke="none" d="M 10970,2779 L 10970,2990 11181,2990 11181,2779 10970,2779 Z"/>
 <path fill="none" stroke="rgb(0,204,204)" stroke-linejoin="round" d="M 10970,2779 L 10970,2990 11181,2990 11181,2779 10970,2779 Z"/>
 <path fill="none" stroke="rgb(102,0,255)" stroke-width="80" stroke-linejoin="round" d="M 10676,3461 L 11476,3461"/>
 <path fill="rgb(102,0,255)" stroke="none" d="M 10970,3461 L 11076,3567 11181,3461 11076,3356 10970,3461 Z"/>
 <path fill="none" stroke="rgb(102,0,255)" stroke-linejoin="round" d="M 10970,3461 L 11076,3567 11181,3461 11076,3356 10970,3461 Z"/>
 <path fill="none" stroke="rgb(255,211,32)" stroke-width="80" stroke-linejoin="round" d="M 10676,4037 L 11476,4037"/>
 <path fill="rgb(255,211,32)" stroke="none" d="M 10970,3932 L 11076,4143 11181,3932 10970,3932 Z"/>
 <path fill="none" stroke="rgb(255,211,32)" stroke-linejoin="round" d="M 10970,3932 L 11076,4143 11181,3932 10970,3932 Z"/>
 <path fill="none" stroke="rgb(0,120,38)" stroke-width="80" stroke-linejoin="round" d="M 10676,4614 L 11476,4614"/>
 <path fill="rgb(0,120,38)" stroke="none" d="M 10970,4720 L 11181,4720 11076,4509 10970,4720 Z"/>
 <path fill="none" stroke="rgb(0,120,38)" stroke-linejoin="round" d="M 10970,4720 L 11181,4720 11076,4509 10970,4720 Z"/>
 <text class="SVGTextShape"><tspan class="TextParagraph" font-family="Latin Modern Roman Caps" font-size="353px" font-weight="400"><tspan class="TextPosition" x="11576" y="3016"><tspan fill="rgb(0,0,0)" stroke="none">akkerbouw</tspan></tspan></tspan></text>
 <text class="SVGTextShape"><tspan class="TextParagraph" font-family="Latin Modern Roman Caps" font-size="353px" font-weight="400"><tspan class="TextPosition" x="11576" y="3593"><tspan fill="rgb(0,0,0)" stroke="none">veehouderij</tspan></tspan></tspan></text>
 <text class="SVGTextShape"><tspan class="TextParagraph" font-family="Latin Modern Roman Caps" font-size="353px" font-weight="400"><tspan class="TextPosition" x="11576" y="4169"><tspan fill="rgb(0,0,0)" stroke="none">tuinbouw</tspan></tspan></tspan></text>
 <text class="SVGTextShape"><tspan class="TextParagraph" font-family="Latin Modern Roman Caps" font-size="353px" font-weight="400"><tspan class="TextPosition" x="11576" y="4746"><tspan fill="rgb(0,0,0)" stroke="none">totale landbouw</tspan></tspan></tspan></text>
</svg>