<?xml version="1.0" encoding="UTF-8"?>
<!DOCTYPE svg PUBLIC "-//W3C//DTD SVG 1.1//EN" "http://www.w3.org/Graphics/SVG/1.1/DTD/svg11.dtd">
<svg width="150mm" height="75mm" viewBox="0 0 15000 7500" version="1.1" xmlns="http://www.w3.org/2000/svg" xmlns:xlink="http://www.w3.org/1999/xlink" stroke-width="28.222" stroke-linejoin="round" xml:space="preserve">
 <path fill="rgb(255,255,255)" stroke="none" d="M 7500,7500 L 0,7500 0,0 15000,0 15000,7500 7500,7500 Z"/>
 <defs>
  <linearGradient id="Gradient_7" gradientUnits="userSpaceOnUse" x1="7554" y1="335" x2="7554" y2="6106">
   <stop offset="0.7" stop-color="rgb(204,0,0)"/>
   <stop offset="1" stop-color="rgb(0,153,0)"/>
  </linearGradient>
 </defs>
 <path fill="url(#Gradient_7)" stroke="rgb(179,179,179)" stroke-linejoin="round" d="M 7554,6106 L 771,6106 771,335 14337,335 14337,6106 7554,6106 Z"/>
 <path fill="none" stroke="rgb(179,179,179)" stroke-linejoin="round" d="M 14337,6105 L 771,6105"/>
 <path fill="none" stroke="rgb(179,179,179)" stroke-linejoin="round" d="M 14337,5280 L 771,5280"/>
 <path fill="none" stroke="rgb(179,179,179)" stroke-linejoin="round" d="M 14337,4455 L 771,4455"/>
 <path fill="none" stroke="rgb(179,179,179)" stroke-linejoin="round" d="M 14337,3632 L 771,3632"/>
 <path fill="none" stroke="rgb(179,179,179)" stroke-linejoin="round" d="M 14337,2807 L 771,2807"/>
 <path fill="none" stroke="rgb(179,179,179)" stroke-linejoin="round" d="M 14337,1983 L 771,1983"/>
 <path fill="none" stroke="rgb(179,179,179)" stroke-linejoin="round" d="M 14337,1158 L 771,1158"/>
 <path fill="none" stroke="rgb(179,179,179)" stroke-linejoin="round" d="M 14337,333 L 771,333"/>
 <path fill="none" stroke="rgb(179,179,179)" stroke-linejoin="round" d="M 771,6255 L 771,6105"/>
 <path fill="none" stroke="rgb(179,179,179)" stroke-linejoin="round" d="M 771,6255 L 771,6105"/>
 <path fill="none" stroke="rgb(179,179,179)" stroke-linejoin="round" d="M 2858,6255 L 2858,6105"/>
 <path fill="none" stroke="rgb(179,179,179)" stroke-linejoin="round" d="M 2858,6255 L 2858,6105"/>
 <path fill="none" stroke="rgb(179,179,179)" stroke-linejoin="round" d="M 4945,6255 L 4945,6105"/>
 <path fill="none" stroke="rgb(179,179,179)" stroke-linejoin="round" d="M 4945,6255 L 4945,6105"/>
 <path fill="none" stroke="rgb(179,179,179)" stroke-linejoin="round" d="M 7032,6255 L 7032,6105"/>
 <path fill="none" stroke="rgb(179,179,179)" stroke-linejoin="round" d="M 7032,6255 L 7032,6105"/>
 <path fill="none" stroke="rgb(179,179,179)" stroke-linejoin="round" d="M 9118,6255 L 9118,6105"/>
 <path fill="none" stroke="rgb(179,179,179)" stroke-linejoin="round" d="M 9118,6255 L 9118,6105"/>
 <path fill="none" stroke="rgb(179,179,179)" stroke-linejoin="round" d="M 11206,6255 L 11206,6105"/>
 <path fill="none" stroke="rgb(179,179,179)" stroke-linejoin="round" d="M 11206,6255 L 11206,6105"/>
 <path fill="none" stroke="rgb(179,179,179)" stroke-linejoin="round" d="M 13293,6255 L 13293,6105"/>
 <path fill="none" stroke="rgb(179,179,179)" stroke-linejoin="round" d="M 13293,6255 L 13293,6105"/>
 <path fill="none" stroke="rgb(179,179,179)" stroke-linejoin="round" d="M 1814,6217 L 1814,6105"/>
 <path fill="none" stroke="rgb(179,179,179)" stroke-linejoin="round" d="M 1814,6217 L 1814,6105"/>
 <path fill="none" stroke="rgb(179,179,179)" stroke-linejoin="round" d="M 3901,6217 L 3901,6105"/>
 <path fill="none" stroke="rgb(179,179,179)" stroke-linejoin="round" d="M 3901,6217 L 3901,6105"/>
 <path fill="none" stroke="rgb(179,179,179)" stroke-linejoin="round" d="M 5989,6217 L 5989,6105"/>
 <path fill="none" stroke="rgb(179,179,179)" stroke-linejoin="round" d="M 5989,6217 L 5989,6105"/>
 <path fill="none" stroke="rgb(179,179,179)" stroke-linejoin="round" d="M 8075,6217 L 8075,6105"/>
 <path fill="none" stroke="rgb(179,179,179)" stroke-linejoin="round" d="M 8075,6217 L 8075,6105"/>
 <path fill="none" stroke="rgb(179,179,179)" stroke-linejoin="round" d="M 10162,6217 L 10162,6105"/>
 <path fill="none" stroke="rgb(179,179,179)" stroke-linejoin="round" d="M 10162,6217 L 10162,6105"/>
 <path fill="none" stroke="rgb(179,179,179)" stroke-linejoin="round" d="M 12249,6217 L 12249,6105"/>
 <path fill="none" stroke="rgb(179,179,179)" stroke-linejoin="round" d="M 12249,6217 L 12249,6105"/>
 <path fill="none" stroke="rgb(179,179,179)" stroke-linejoin="round" d="M 14337,6217 L 14337,6105"/>
 <path fill="none" stroke="rgb(179,179,179)" stroke-linejoin="round" d="M 14337,6217 L 14337,6105"/>
 <path fill="none" stroke="rgb(179,179,179)" stroke-linejoin="round" d="M 771,6105 L 14337,6105"/>
 <path fill="none" stroke="rgb(179,179,179)" stroke-linejoin="round" d="M 621,6105 L 771,6105"/>
 <path fill="none" stroke="rgb(179,179,179)" stroke-linejoin="round" d="M 621,6105 L 771,6105"/>
 <path fill="none" stroke="rgb(179,179,179)" stroke-linejoin="round" d="M 621,5280 L 771,5280"/>
 <path fill="none" stroke="rgb(179,179,179)" stroke-linejoin="round" d="M 621,5280 L 771,5280"/>
 <path fill="none" stroke="rgb(179,179,179)" stroke-linejoin="round" d="M 621,4455 L 771,4455"/>
 <path fill="none" stroke="rgb(179,179,179)" stroke-linejoin="round" d="M 621,4455 L 771,4455"/>
 <path fill="none" stroke="rgb(179,179,179)" stroke-linejoin="round" d="M 621,3632 L 771,3632"/>
 <path fill="none" stroke="rgb(179,179,179)" stroke-linejoin="round" d="M 621,3632 L 771,3632"/>
 <path fill="none" stroke="rgb(179,179,179)" stroke-linejoin="round" d="M 621,2807 L 771,2807"/>
 <path fill="none" stroke="rgb(179,179,179)" stroke-linejoin="round" d="M 621,2807 L 771,2807"/>
 <path fill="none" stroke="rgb(179,179,179)" stroke-linejoin="round" d="M 621,1983 L 771,1983"/>
 <path fill="none" stroke="rgb(179,179,179)" stroke-linejoin="round" d="M 621,1983 L 771,1983"/>
 <path fill="none" stroke="rgb(179,179,179)" stroke-linejoin="round" d="M 621,1158 L 771,1158"/>
 <path fill="none" stroke="rgb(179,179,179)" stroke-linejoin="round" d="M 621,1158 L 771,1158"/>
 <path fill="none" stroke="rgb(179,179,179)" stroke-linejoin="round" d="M 621,333 L 771,333"/>
 <path fill="none" stroke="rgb(179,179,179)" stroke-linejoin="round" d="M 621,333 L 771,333"/>
 <path fill="none" stroke="rgb(179,179,179)" stroke-linejoin="round" d="M 771,6105 L 771,333"/>
 <path fill="none" stroke="rgb(255,211,32)" stroke-width="80" stroke-linejoin="round" d="M 771,5310 L 1814,4785 2858,4292 3901,3348 4945,2319 5989,1855 7032,1926 8075,1585 9118,1571 10162,1140 11206,2138 12249,1725 13293,1797 14337,1023"/>
 <path fill="rgb(255,211,32)" stroke="none" d="M 646,5185 L 771,5435 896,5185 646,5185 Z"/>
 <path fill="none" stroke="rgb(255,211,32)" stroke-linejoin="round" d="M 646,5185 L 771,5435 896,5185 646,5185 Z"/>
 <path fill="rgb(255,211,32)" stroke="none" d="M 1689,4660 L 1814,4910 1939,4660 1689,4660 Z"/>
 <path fill="none" stroke="rgb(255,211,32)" stroke-linejoin="round" d="M 1689,4660 L 1814,4910 1939,4660 1689,4660 Z"/>
 <path fill="rgb(255,211,32)" stroke="none" d="M 2733,4167 L 2858,4417 2983,4167 2733,4167 Z"/>
 <path fill="none" stroke="rgb(255,211,32)" stroke-linejoin="round" d="M 2733,4167 L 2858,4417 2983,4167 2733,4167 Z"/>
 <path fill="rgb(255,211,32)" stroke="none" d="M 3776,3223 L 3901,3473 4026,3223 3776,3223 Z"/>
 <path fill="none" stroke="rgb(255,211,32)" stroke-linejoin="round" d="M 3776,3223 L 3901,3473 4026,3223 3776,3223 Z"/>
 <path fill="rgb(255,211,32)" stroke="none" d="M 4820,2194 L 4945,2444 5070,2194 4820,2194 Z"/>
 <path fill="none" stroke="rgb(255,211,32)" stroke-linejoin="round" d="M 4820,2194 L 4945,2444 5070,2194 4820,2194 Z"/>
 <path fill="rgb(255,211,32)" stroke="none" d="M 5864,1730 L 5989,1980 6114,1730 5864,1730 Z"/>
 <path fill="none" stroke="rgb(255,211,32)" stroke-linejoin="round" d="M 5864,1730 L 5989,1980 6114,1730 5864,1730 Z"/>
 <path fill="rgb(255,211,32)" stroke="none" d="M 6907,1801 L 7032,2051 7157,1801 6907,1801 Z"/>
 <path fill="none" stroke="rgb(255,211,32)" stroke-linejoin="round" d="M 6907,1801 L 7032,2051 7157,1801 6907,1801 Z"/>
 <path fill="rgb(255,211,32)" stroke="none" d="M 7950,1460 L 8075,1710 8200,1460 7950,1460 Z"/>
 <path fill="none" stroke="rgb(255,211,32)" stroke-linejoin="round" d="M 7950,1460 L 8075,1710 8200,1460 7950,1460 Z"/>
 <path fill="rgb(255,211,32)" stroke="none" d="M 8993,1446 L 9118,1696 9243,1446 8993,1446 Z"/>
 <path fill="none" stroke="rgb(255,211,32)" stroke-linejoin="round" d="M 8993,1446 L 9118,1696 9243,1446 8993,1446 Z"/>
 <path fill="rgb(255,211,32)" stroke="none" d="M 10037,1015 L 10162,1265 10287,1015 10037,1015 Z"/>
 <path fill="none" stroke="rgb(255,211,32)" stroke-linejoin="round" d="M 10037,1015 L 10162,1265 10287,1015 10037,1015 Z"/>
 <path fill="rgb(255,211,32)" stroke="none" d="M 11081,2013 L 11206,2263 11331,2013 11081,2013 Z"/>
 <path fill="none" stroke="rgb(255,211,32)" stroke-linejoin="round" d="M 11081,2013 L 11206,2263 11331,2013 11081,2013 Z"/>
 <path fill="rgb(255,211,32)" stroke="none" d="M 12124,1600 L 12249,1850 12374,1600 12124,1600 Z"/>
 <path fill="none" stroke="rgb(255,211,32)" stroke-linejoin="round" d="M 12124,1600 L 12249,1850 12374,1600 12124,1600 Z"/>
 <path fill="rgb(255,211,32)" stroke="none" d="M 13168,1672 L 13293,1922 13418,1672 13168,1672 Z"/>
 <path fill="none" stroke="rgb(255,211,32)" stroke-linejoin="round" d="M 13168,1672 L 13293,1922 13418,1672 13168,1672 Z"/>
 <path fill="rgb(255,211,32)" stroke="none" d="M 14212,898 L 14337,1148 14462,898 14212,898 Z"/>
 <path fill="none" stroke="rgb(255,211,32)" stroke-linejoin="round" d="M 14212,898 L 14337,1148 14462,898 14212,898 Z"/>
 <text class="SVGTextShape" transform="rotate(-44.9 312 7066)"><tspan class="TextParagraph" font-family="Latin Modern Math" font-size="353px" font-weight="400"><tspan class="TextPosition" x="312" y="7066"><tspan fill="rgb(0,0,0)" stroke="none">1950</tspan></tspan></tspan></text>
 <text class="SVGTextShape" transform="rotate(-44.9 2399 7066)"><tspan class="TextParagraph" font-family="Latin Modern Math" font-size="353px" font-weight="400"><tspan class="TextPosition" x="2399" y="7066"><tspan fill="rgb(0,0,0)" stroke="none">1960</tspan></tspan></tspan></text>
 <text class="SVGTextShape" transform="rotate(-44.9 4485 7066)"><tspan class="TextParagraph" font-family="Latin Modern Math" font-size="353px" font-weight="400"><tspan class="TextPosition" x="4485" y="7066"><tspan fill="rgb(0,0,0)" stroke="none">1970</tspan></tspan></tspan></text>
 <text class="SVGTextShape" transform="rotate(-44.9 6572 7066)"><tspan class="TextParagraph" font-family="Latin Modern Math" font-size="353px" font-weight="400"><tspan class="TextPosition" x="6572" y="7066"><tspan fill="rgb(0,0,0)" stroke="none">1980</tspan></tspan></tspan></text>
 <text class="SVGTextShape" transform="rotate(-44.9 8659 7066)"><tspan class="TextParagraph" font-family="Latin Modern Math" font-size="353px" font-weight="400"><tspan class="TextPosition" x="8659" y="7066"><tspan fill="rgb(0,0,0)" stroke="none">1990</tspan></tspan></tspan></text>
 <text class="SVGTextShape" transform="rotate(-44.9 10747 7066)"><tspan class="TextParagraph" font-family="Latin Modern Math" font-size="353px" font-weight="400"><tspan class="TextPosition" x="10747" y="7066"><tspan fill="rgb(0,0,0)" stroke="none">2000</tspan></tspan></tspan></text>
 <text class="SVGTextShape" transform="rotate(-44.9 12834 7066)"><tspan class="TextParagraph" font-family="Latin Modern Math" font-size="353px" font-weight="400"><tspan class="TextPosition" x="12834" y="7066"><tspan fill="rgb(0,0,0)" stroke="none">2010</tspan></tspan></tspan></text>
 <text class="SVGTextShape"><tspan class="TextParagraph" font-family="Latin Modern Roman" font-size="353px" font-weight="400"><tspan class="TextPosition" x="336" y="6252"><tspan fill="rgb(0,0,0)" stroke="none">0</tspan></tspan></tspan></text>
 <text class="SVGTextShape"><tspan class="TextParagraph" font-family="Latin Modern Roman" font-size="353px" font-weight="400"><tspan class="TextPosition" x="336" y="5427"><tspan fill="rgb(0,0,0)" stroke="none">1</tspan></tspan></tspan></text>
 <text class="SVGTextShape"><tspan class="TextParagraph" font-family="Latin Modern Roman" font-size="353px" font-weight="400"><tspan class="TextPosition" x="336" y="4602"><tspan fill="rgb(0,0,0)" stroke="none">2</tspan></tspan></tspan></text>
 <text class="SVGTextShape"><tspan class="TextParagraph" font-family="Latin Modern Roman" font-size="353px" font-weight="400"><tspan class="TextPosition" x="336" y="3778"><tspan fill="rgb(0,0,0)" stroke="none">3</tspan></tspan></tspan></text>
 <text class="SVGTextShape"><tspan class="TextParagraph" font-family="Latin Modern Roman" font-size="353px" font-weight="400"><tspan class="TextPosition" x="336" y="2953"><tspan fill="rgb(0,0,0)" stroke="none">4</tspan></tspan></tspan></text>
 <text class="SVGTextShape"><tspan class="TextParagraph" font-family="Latin Modern Roman" font-size="353px" font-weight="400"><tspan class="TextPosition" x="336" y="2129"><tspan fill="rgb(0,0,0)" stroke="none">5</tspan></tspan></tspan></text>
 <text class="SVGTextShape"><tspan class="TextParagraph" font-family="Latin Modern Roman" font-size="353px" font-weight="400"><tspan class="TextPosition" x="336" y="1304"><tspan fill="rgb(0,0,0)" stroke="none">6</tspan></tspan></tspan></text>
 <text class="SVGTextShape"><tspan class="TextParagraph" font-family="Latin Modern Roman" font-size="353px" font-weight="400"><tspan class="TextPosition" x="336" y="479"><tspan fill="rgb(0,0,0)" stroke="none">7</tspan></tspan></tspan></text>
</svg>