<?xml version="1.0" encoding="UTF-8" standalone="no"?>
<svg
   width="80mm"
   height="40mm"
   viewBox="0 0 8000 4000"
   version="1.1"
   stroke-width="28.222"
   stroke-linejoin="round"
   xml:space="preserve"
   id="svg255"
   sodipodi:docname="meino smit - arbeid - verhouding.svg"
   inkscape:version="1.1.2 (0a00cf5339, 2022-02-04)"
   xmlns:inkscape="http://www.inkscape.org/namespaces/inkscape"
   xmlns:sodipodi="http://sodipodi.sourceforge.net/DTD/sodipodi-0.dtd"
   xmlns="http://www.w3.org/2000/svg"
   xmlns:svg="http://www.w3.org/2000/svg"><sodipodi:namedview
   id="namedview257"
   pagecolor="#ffffff"
   bordercolor="#666666"
   borderopacity="1.0"
   inkscape:pageshadow="2"
   inkscape:pageopacity="0.0"
   inkscape:pagecheckerboard="0"
   inkscape:document-units="mm"
   showgrid="false"
   inkscape:zoom="3.912526"
   inkscape:cx="151.3089"
   inkscape:cy="75.654449"
   inkscape:window-width="1876"
   inkscape:window-height="1051"
   inkscape:window-x="0"
   inkscape:window-y="0"
   inkscape:window-maximized="1"
   inkscape:current-layer="svg255" />
 <path
   fill="rgb(255,255,255)"
   stroke="none"
   d="M 4000,4000 L 0,4000 0,0 8000,0 8000,4000 4000,4000 Z"
   id="path2" />
 <path
   fill="none"
   stroke="rgb(0,0,0)"
   stroke-linejoin="round"
   d="M 4000,4000 L 0,4000 0,0 8000,0 8000,4000 4000,4000 Z"
   id="path4" />
 <defs
   id="defs11">
  <linearGradient
   id="Gradient_2"
   gradientUnits="userSpaceOnUse"
   x1="4197"
   y1="192"
   x2="4197"
   y2="3161">
   <stop
   offset="0.3"
   stop-color="rgb(204,0,0)"
   id="stop6" />
   <stop
   offset="1"
   stop-color="rgb(0,153,0)"
   id="stop8" />
  </linearGradient>
 </defs>
 <path
   fill="url(#Gradient_2)"
   stroke="rgb(179,179,179)"
   stroke-linejoin="round"
   d="M 4197,3161 L 687,3161 687,192 7707,192 7707,3161 4197,3161 Z"
   id="path13" />
 <path
   fill="none"
   stroke="rgb(179,179,179)"
   stroke-linejoin="round"
   d="M 7707,3160 L 687,3160"
   id="path15" />
 <path
   fill="none"
   stroke="rgb(179,179,179)"
   stroke-linejoin="round"
   d="M 7707,2311 L 687,2311"
   id="path17" />
 <path
   fill="none"
   stroke="rgb(179,179,179)"
   stroke-linejoin="round"
   d="M 7707,1463 L 687,1463"
   id="path19" />
 <path
   fill="none"
   stroke="rgb(179,179,179)"
   stroke-linejoin="round"
   d="M 7707,615 L 687,615"
   id="path21" />
 <path
   fill="none"
   stroke="rgb(179,179,179)"
   stroke-linejoin="round"
   d="M 687,3310 L 687,3160"
   id="path23" />
 <path
   fill="none"
   stroke="rgb(179,179,179)"
   stroke-linejoin="round"
   d="M 687,3310 L 687,3160"
   id="path25" />
 <path
   fill="none"
   stroke="rgb(179,179,179)"
   stroke-linejoin="round"
   d="M 1767,3310 L 1767,3160"
   id="path27" />
 <path
   fill="none"
   stroke="rgb(179,179,179)"
   stroke-linejoin="round"
   d="M 1767,3310 L 1767,3160"
   id="path29" />
 <path
   fill="none"
   stroke="rgb(179,179,179)"
   stroke-linejoin="round"
   d="M 2847,3310 L 2847,3160"
   id="path31" />
 <path
   fill="none"
   stroke="rgb(179,179,179)"
   stroke-linejoin="round"
   d="M 2847,3310 L 2847,3160"
   id="path33" />
 <path
   fill="none"
   stroke="rgb(179,179,179)"
   stroke-linejoin="round"
   d="M 3927,3310 L 3927,3160"
   id="path35" />
 <path
   fill="none"
   stroke="rgb(179,179,179)"
   stroke-linejoin="round"
   d="M 3927,3310 L 3927,3160"
   id="path37" />
 <path
   fill="none"
   stroke="rgb(179,179,179)"
   stroke-linejoin="round"
   d="M 5006,3310 L 5006,3160"
   id="path39" />
 <path
   fill="none"
   stroke="rgb(179,179,179)"
   stroke-linejoin="round"
   d="M 5006,3310 L 5006,3160"
   id="path41" />
 <path
   fill="none"
   stroke="rgb(179,179,179)"
   stroke-linejoin="round"
   d="M 6086,3310 L 6086,3160"
   id="path43" />
 <path
   fill="none"
   stroke="rgb(179,179,179)"
   stroke-linejoin="round"
   d="M 6086,3310 L 6086,3160"
   id="path45" />
 <path
   fill="none"
   stroke="rgb(179,179,179)"
   stroke-linejoin="round"
   d="M 7166,3310 L 7166,3160"
   id="path47" />
 <path
   fill="none"
   stroke="rgb(179,179,179)"
   stroke-linejoin="round"
   d="M 7166,3310 L 7166,3160"
   id="path49" />
 <path
   fill="none"
   stroke="rgb(179,179,179)"
   stroke-linejoin="round"
   d="M 1227,3272 L 1227,3160"
   id="path51" />
 <path
   fill="none"
   stroke="rgb(179,179,179)"
   stroke-linejoin="round"
   d="M 1227,3272 L 1227,3160"
   id="path53" />
 <path
   fill="none"
   stroke="rgb(179,179,179)"
   stroke-linejoin="round"
   d="M 2307,3272 L 2307,3160"
   id="path55" />
 <path
   fill="none"
   stroke="rgb(179,179,179)"
   stroke-linejoin="round"
   d="M 2307,3272 L 2307,3160"
   id="path57" />
 <path
   fill="none"
   stroke="rgb(179,179,179)"
   stroke-linejoin="round"
   d="M 3387,3272 L 3387,3160"
   id="path59" />
 <path
   fill="none"
   stroke="rgb(179,179,179)"
   stroke-linejoin="round"
   d="M 3387,3272 L 3387,3160"
   id="path61" />
 <path
   fill="none"
   stroke="rgb(179,179,179)"
   stroke-linejoin="round"
   d="M 4466,3272 L 4466,3160"
   id="path63" />
 <path
   fill="none"
   stroke="rgb(179,179,179)"
   stroke-linejoin="round"
   d="M 4466,3272 L 4466,3160"
   id="path65" />
 <path
   fill="none"
   stroke="rgb(179,179,179)"
   stroke-linejoin="round"
   d="M 5546,3272 L 5546,3160"
   id="path67" />
 <path
   fill="none"
   stroke="rgb(179,179,179)"
   stroke-linejoin="round"
   d="M 5546,3272 L 5546,3160"
   id="path69" />
 <path
   fill="none"
   stroke="rgb(179,179,179)"
   stroke-linejoin="round"
   d="M 6626,3272 L 6626,3160"
   id="path71" />
 <path
   fill="none"
   stroke="rgb(179,179,179)"
   stroke-linejoin="round"
   d="M 6626,3272 L 6626,3160"
   id="path73" />
 <path
   fill="none"
   stroke="rgb(179,179,179)"
   stroke-linejoin="round"
   d="M 7707,3272 L 7707,3160"
   id="path75" />
 <path
   fill="none"
   stroke="rgb(179,179,179)"
   stroke-linejoin="round"
   d="M 7707,3272 L 7707,3160"
   id="path77" />
 <path
   fill="none"
   stroke="rgb(179,179,179)"
   stroke-linejoin="round"
   d="M 687,3160 L 7707,3160"
   id="path79" />
 <path
   fill="none"
   stroke="rgb(179,179,179)"
   stroke-linejoin="round"
   d="M 537,3160 L 687,3160"
   id="path81" />
 <path
   fill="none"
   stroke="rgb(179,179,179)"
   stroke-linejoin="round"
   d="M 537,3160 L 687,3160"
   id="path83" />
 <path
   fill="none"
   stroke="rgb(179,179,179)"
   stroke-linejoin="round"
   d="M 537,2311 L 687,2311"
   id="path85" />
 <path
   fill="none"
   stroke="rgb(179,179,179)"
   stroke-linejoin="round"
   d="M 537,2311 L 687,2311"
   id="path87" />
 <path
   fill="none"
   stroke="rgb(179,179,179)"
   stroke-linejoin="round"
   d="M 537,1463 L 687,1463"
   id="path89" />
 <path
   fill="none"
   stroke="rgb(179,179,179)"
   stroke-linejoin="round"
   d="M 537,1463 L 687,1463"
   id="path91" />
 <path
   fill="none"
   stroke="rgb(179,179,179)"
   stroke-linejoin="round"
   d="M 537,615 L 687,615"
   id="path93" />
 <path
   fill="none"
   stroke="rgb(179,179,179)"
   stroke-linejoin="round"
   d="M 537,615 L 687,615"
   id="path95" />
 <path
   fill="none"
   stroke="rgb(179,179,179)"
   stroke-linejoin="round"
   d="M 687,3160 L 687,191"
   id="path97" />
 <path
   fill="none"
   stroke="rgb(255,211,32)"
   stroke-width="80"
   stroke-linejoin="round"
   d="M 687,3019 L 1227,2840 1767,2789 2307,2655 2847,2491 3387,2415 3927,2429 4466,2280 5006,2271 5546,2272 6086,2289 6626,2127 7166,1982 7707,1747"
   id="path99"
   style="stroke-width:49.99999862;stroke-miterlimit:4;stroke-dasharray:none" />
 <path
   fill="rgb(255,211,32)"
   stroke="none"
   d="M 562,2894 L 687,3144 812,2894 562,2894 Z"
   id="path101" />
 <path
   fill="none"
   stroke="rgb(255,211,32)"
   stroke-linejoin="round"
   d="M 562,2894 L 687,3144 812,2894 562,2894 Z"
   id="path103" />
 <path
   fill="rgb(255,211,32)"
   stroke="none"
   d="M 1102,2715 L 1227,2965 1352,2715 1102,2715 Z"
   id="path105" />
 <path
   fill="none"
   stroke="rgb(255,211,32)"
   stroke-linejoin="round"
   d="M 1102,2715 L 1227,2965 1352,2715 1102,2715 Z"
   id="path107" />
 <path
   fill="rgb(255,211,32)"
   stroke="none"
   d="M 1642,2664 L 1767,2914 1892,2664 1642,2664 Z"
   id="path109" />
 <path
   fill="none"
   stroke="rgb(255,211,32)"
   stroke-linejoin="round"
   d="M 1642,2664 L 1767,2914 1892,2664 1642,2664 Z"
   id="path111" />
 <path
   fill="rgb(255,211,32)"
   stroke="none"
   d="M 2182,2530 L 2307,2780 2432,2530 2182,2530 Z"
   id="path113" />
 <path
   fill="none"
   stroke="rgb(255,211,32)"
   stroke-linejoin="round"
   d="M 2182,2530 L 2307,2780 2432,2530 2182,2530 Z"
   id="path115" />
 <path
   fill="rgb(255,211,32)"
   stroke="none"
   d="M 2722,2366 L 2847,2616 2972,2366 2722,2366 Z"
   id="path117" />
 <path
   fill="none"
   stroke="rgb(255,211,32)"
   stroke-linejoin="round"
   d="M 2722,2366 L 2847,2616 2972,2366 2722,2366 Z"
   id="path119" />
 <path
   fill="rgb(255,211,32)"
   stroke="none"
   d="M 3262,2290 L 3387,2540 3512,2290 3262,2290 Z"
   id="path121" />
 <path
   fill="none"
   stroke="rgb(255,211,32)"
   stroke-linejoin="round"
   d="M 3262,2290 L 3387,2540 3512,2290 3262,2290 Z"
   id="path123" />
 <path
   fill="rgb(255,211,32)"
   stroke="none"
   d="M 3802,2304 L 3927,2554 4051,2304 3802,2304 Z"
   id="path125" />
 <path
   fill="none"
   stroke="rgb(255,211,32)"
   stroke-linejoin="round"
   d="M 3802,2304 L 3927,2554 4051,2304 3802,2304 Z"
   id="path127" />
 <path
   fill="rgb(255,211,32)"
   stroke="none"
   d="M 4341,2155 L 4466,2405 4591,2155 4341,2155 Z"
   id="path129" />
 <path
   fill="none"
   stroke="rgb(255,211,32)"
   stroke-linejoin="round"
   d="M 4341,2155 L 4466,2405 4591,2155 4341,2155 Z"
   id="path131" />
 <path
   fill="rgb(255,211,32)"
   stroke="none"
   d="M 4881,2146 L 5006,2396 5131,2146 4881,2146 Z"
   id="path133" />
 <path
   fill="none"
   stroke="rgb(255,211,32)"
   stroke-linejoin="round"
   d="M 4881,2146 L 5006,2396 5131,2146 4881,2146 Z"
   id="path135" />
 <path
   fill="rgb(255,211,32)"
   stroke="none"
   d="M 5421,2147 L 5546,2397 5671,2147 5421,2147 Z"
   id="path137" />
 <path
   fill="none"
   stroke="rgb(255,211,32)"
   stroke-linejoin="round"
   d="M 5421,2147 L 5546,2397 5671,2147 5421,2147 Z"
   id="path139" />
 <path
   fill="rgb(255,211,32)"
   stroke="none"
   d="M 5961,2164 L 6086,2414 6211,2164 5961,2164 Z"
   id="path141" />
 <path
   fill="none"
   stroke="rgb(255,211,32)"
   stroke-linejoin="round"
   d="M 5961,2164 L 6086,2414 6211,2164 5961,2164 Z"
   id="path143" />
 <path
   fill="rgb(255,211,32)"
   stroke="none"
   d="M 6501,2002 L 6626,2252 6751,2002 6501,2002 Z"
   id="path145" />
 <path
   fill="none"
   stroke="rgb(255,211,32)"
   stroke-linejoin="round"
   d="M 6501,2002 L 6626,2252 6751,2002 6501,2002 Z"
   id="path147" />
 <path
   fill="rgb(255,211,32)"
   stroke="none"
   d="M 7041,1857 L 7166,2106 7291,1857 7041,1857 Z"
   id="path149" />
 <path
   fill="none"
   stroke="rgb(255,211,32)"
   stroke-linejoin="round"
   d="M 7041,1857 L 7166,2106 7291,1857 7041,1857 Z"
   id="path151" />
 <path
   fill="rgb(255,211,32)"
   stroke="none"
   d="M 7582,1622 L 7707,1872 7832,1622 7582,1622 Z"
   id="path153" />
 <path
   fill="none"
   stroke="rgb(255,211,32)"
   stroke-linejoin="round"
   d="M 7582,1622 L 7707,1872 7832,1622 7582,1622 Z"
   id="path155" />
 <text
   class="SVGTextShape"
   id="text163"><tspan
     class="TextParagraph"
     font-family="Latin Modern Roman"
     font-size="353px"
     font-weight="400"
     id="tspan161"><tspan
       class="TextPosition"
       x="317"
       y="3807"
       id="tspan159"><tspan
         fill="rgb(0,0,0)"
         stroke="none"
         id="tspan157">1950</tspan></tspan></tspan></text>
 <text
   class="SVGTextShape"
   id="text171"><tspan
     class="TextParagraph"
     font-family="Latin Modern Roman"
     font-size="353px"
     font-weight="400"
     id="tspan169"><tspan
       class="TextPosition"
       x="1397"
       y="3807"
       id="tspan167"><tspan
         fill="rgb(0,0,0)"
         stroke="none"
         id="tspan165">1960</tspan></tspan></tspan></text>
 <text
   class="SVGTextShape"
   id="text179"><tspan
     class="TextParagraph"
     font-family="Latin Modern Roman"
     font-size="353px"
     font-weight="400"
     id="tspan177"><tspan
       class="TextPosition"
       x="2476"
       y="3807"
       id="tspan175"><tspan
         fill="rgb(0,0,0)"
         stroke="none"
         id="tspan173">1970</tspan></tspan></tspan></text>
 <text
   class="SVGTextShape"
   id="text187"><tspan
     class="TextParagraph"
     font-family="Latin Modern Roman"
     font-size="353px"
     font-weight="400"
     id="tspan185"><tspan
       class="TextPosition"
       x="3556"
       y="3807"
       id="tspan183"><tspan
         fill="rgb(0,0,0)"
         stroke="none"
         id="tspan181">1980</tspan></tspan></tspan></text>
 <text
   class="SVGTextShape"
   id="text195"><tspan
     class="TextParagraph"
     font-family="Latin Modern Roman"
     font-size="353px"
     font-weight="400"
     id="tspan193"><tspan
       class="TextPosition"
       x="4636"
       y="3807"
       id="tspan191"><tspan
         fill="rgb(0,0,0)"
         stroke="none"
         id="tspan189">1990</tspan></tspan></tspan></text>
 <text
   class="SVGTextShape"
   id="text203"><tspan
     class="TextParagraph"
     font-family="Latin Modern Roman"
     font-size="353px"
     font-weight="400"
     id="tspan201"><tspan
       class="TextPosition"
       x="5716"
       y="3807"
       id="tspan199"><tspan
         fill="rgb(0,0,0)"
         stroke="none"
         id="tspan197">2000</tspan></tspan></tspan></text>
 <text
   class="SVGTextShape"
   id="text211"><tspan
     class="TextParagraph"
     font-family="Latin Modern Roman"
     font-size="353px"
     font-weight="400"
     id="tspan209"><tspan
       class="TextPosition"
       x="6795"
       y="3807"
       id="tspan207"><tspan
         fill="rgb(0,0,0)"
         stroke="none"
         id="tspan205">2010</tspan></tspan></tspan></text>
 <text
   class="SVGTextShape"
   id="text219"><tspan
     class="TextParagraph"
     font-family="Latin Modern Roman"
     font-size="353px"
     font-weight="400"
     id="tspan217"><tspan
       class="TextPosition"
       x="252"
       y="3306"
       id="tspan215"><tspan
         fill="rgb(0,0,0)"
         stroke="none"
         id="tspan213">0</tspan></tspan></tspan></text>
 <text
   class="SVGTextShape"
   id="text227"><tspan
     class="TextParagraph"
     font-family="Latin Modern Roman"
     font-size="353px"
     font-weight="400"
     id="tspan225"><tspan
       class="TextPosition"
       x="252"
       y="2458"
       id="tspan223"><tspan
         fill="rgb(0,0,0)"
         stroke="none"
         id="tspan221">1</tspan></tspan></tspan></text>
 <text
   class="SVGTextShape"
   id="text235"><tspan
     class="TextParagraph"
     font-family="Latin Modern Roman"
     font-size="353px"
     font-weight="400"
     id="tspan233"><tspan
       class="TextPosition"
       x="252"
       y="1609"
       id="tspan231"><tspan
         fill="rgb(0,0,0)"
         stroke="none"
         id="tspan229">2</tspan></tspan></tspan></text>
 <text
   class="SVGTextShape"
   id="text243"><tspan
     class="TextParagraph"
     font-family="Latin Modern Roman"
     font-size="353px"
     font-weight="400"
     id="tspan241"><tspan
       class="TextPosition"
       x="252"
       y="762"
       id="tspan239"><tspan
         fill="rgb(0,0,0)"
         stroke="none"
         id="tspan237">3</tspan></tspan></tspan></text>
 <path
   fill="rgb(255,255,255)"
   fill-opacity="0.698"
   stroke="rgb(255,255,255)"
   stroke-opacity="0.698"
   d="M 2087,1037 L 911,1037 911,321 3264,321 3264,1037 2087,1037 Z"
   id="path245" />
 <text
   class="SVGTextShape"
   id="text253"><tspan
     class="TextParagraph"
     font-family="Latin Modern Roman"
     font-size="353px"
     font-weight="400"
     id="tspan251"><tspan
       class="TextPosition"
       x="976"
       y="825"
       id="tspan249"><tspan
         fill="rgb(0,0,0)"
         stroke="none"
         id="tspan247">indirect/direct</tspan></tspan></tspan></text>
</svg>
