<?xml version="1.0" encoding="UTF-8"?>
<!DOCTYPE svg PUBLIC "-//W3C//DTD SVG 1.1//EN" "http://www.w3.org/Graphics/SVG/1.1/DTD/svg11.dtd">
<svg width="262mm" height="153mm" viewBox="0 0 26200 15300" version="1.1" xmlns="http://www.w3.org/2000/svg" xmlns:xlink="http://www.w3.org/1999/xlink" stroke-width="28.222" stroke-linejoin="round" xml:space="preserve">
 <path fill="rgb(255,255,255)" stroke="none" d="M 13077,15324 L 0,15324 0,0 26154,0 26154,15324 13077,15324 Z"/>
 <path fill="rgb(0,69,134)" stroke="none" d="M 7018,1244 C 6319,1244 5624,1354 4959,1570 4294,1786 3667,2105 3101,2516 3024,2572 2949,2630 2874,2689 L 4946,5298 C 4983,5268 5021,5240 5060,5212 5342,5006 5656,4846 5988,4738 6321,4630 6668,4575 7018,4575 L 7018,1244 Z"/>
 <path fill="rgb(255,66,14)" stroke="none" d="M 2874,2689 C 2553,2944 2256,3228 1987,3538 L 4502,5722 C 4637,5568 4785,5425 4946,5298 L 2874,2689 Z"/>
 <path fill="rgb(255,211,32)" stroke="none" d="M 1987,3538 C 1590,3995 1258,4503 998,5050 L 4008,6478 C 4138,6205 4304,5951 4502,5722 L 1987,3538 Z"/>
 <path fill="rgb(87,157,28)" stroke="none" d="M 998,5050 C 993,5061 987,5073 982,5084 L 4000,6496 C 4003,6490 4005,6484 4008,6478 L 998,5050 Z"/>
 <path fill="rgb(126,0,33)" stroke="none" d="M 982,5084 C 764,5551 601,6040 495,6544 L 3757,7226 C 3809,6974 3891,6729 4000,6496 L 982,5084 Z"/>
 <path fill="rgb(131,202,255)" stroke="none" d="M 495,6544 C 470,6666 448,6788 429,6910 L 3724,7409 C 3733,7347 3744,7286 3757,7226 L 495,6544 Z"/>
 <path fill="rgb(49,64,4)" stroke="none" d="M 429,6910 C 396,7133 373,7357 362,7581 L 3690,7743 C 3696,7632 3707,7520 3724,7409 L 429,6910 Z"/>
 <path fill="rgb(174,207,0)" stroke="none" d="M 362,7581 C 357,7689 355,7797 355,7906 355,8605 465,9300 681,9965 897,10630 1216,11257 1627,11823 1906,12207 2226,12561 2581,12877 L 4799,10392 C 4622,10233 4462,10057 4323,9864 4117,9582 3957,9268 3849,8936 3741,8603 3686,8256 3686,7906 3686,7852 3688,7797 3690,7743 L 362,7581 Z"/>
 <path fill="rgb(75,31,111)" stroke="none" d="M 2581,12877 C 2610,12903 2639,12928 2668,12954 L 4843,10430 C 4828,10417 4814,10404 4799,10392 L 2581,12877 Z"/>
 <path fill="rgb(255,149,14)" stroke="none" d="M 2668,12954 C 2853,13113 3046,13262 3248,13400 L 5133,10653 C 5032,10584 4935,10509 4843,10430 L 2668,12954 Z"/>
 <path fill="rgb(197,0,11)" stroke="none" d="M 3248,13400 C 3497,13571 3757,13725 4027,13861 L 5523,10883 C 5388,10816 5257,10739 5133,10653 L 3248,13400 Z"/>
 <path fill="rgb(0,132,209)" stroke="none" d="M 4027,13861 C 4328,14012 4639,14139 4959,14243 5385,14382 5824,14477 6270,14527 L 6644,11217 C 6421,11192 6202,11144 5988,11075 5829,11023 5673,10959 5523,10883 L 4027,13861 Z"/>
 <path fill="rgb(0,69,134)" stroke="none" d="M 6270,14527 C 6518,14555 6768,14570 7018,14570 7717,14570 8412,14459 9077,14243 9686,14046 10262,13761 10790,13399 L 8904,10653 C 8640,10834 8352,10976 8048,11075 7715,11183 7368,11238 7018,11238 6893,11238 6768,11231 6644,11217 L 6270,14527 Z"/>
 <path fill="rgb(255,66,14)" stroke="none" d="M 10790,13399 C 11182,13130 11545,12819 11871,12473 L 9444,10189 C 9281,10363 9100,10518 8904,10653 L 10790,13399 Z"/>
 <path fill="rgb(255,211,32)" stroke="none" d="M 11871,12473 C 12064,12268 12243,12050 12409,11823 12820,11257 13138,10630 13354,9965 13570,9300 13681,8605 13681,7906 13681,7893 13680,7880 13680,7867 L 10350,7887 C 10350,7893 10350,7900 10350,7906 10350,8256 10295,8603 10187,8936 10079,9268 9919,9582 9713,9864 9631,9978 9541,10087 9444,10189 L 11871,12473 Z"/>
 <path fill="rgb(87,157,28)" stroke="none" d="M 13680,7867 C 13678,7476 13641,7085 13570,6699 L 10295,7303 C 10330,7496 10349,7691 10350,7887 L 13680,7867 Z"/>
 <path fill="rgb(126,0,33)" stroke="none" d="M 13570,6699 C 13517,6411 13445,6127 13354,5848 13138,5183 12820,4556 12409,3990 11998,3425 11500,2927 10935,2516 10369,2105 9742,1786 9077,1570 8412,1354 7717,1244 7018,1244 L 7018,4575 C 7368,4575 7715,4630 8048,4738 8380,4846 8694,5006 8976,5212 9259,5417 9508,5666 9713,5949 9919,6231 10079,6545 10187,6877 10232,7017 10268,7159 10295,7303 L 13570,6699 Z"/>
 <text class="SVGTextShape"><tspan class="TextParagraph" font-family="Latin Modern Roman" font-size="353px" font-weight="400"><tspan class="TextPosition" x="4684" y="3334"><tspan fill="rgb(0,0,0)" stroke="none">970,7 PJ</tspan></tspan></tspan></text>
 <text class="SVGTextShape"><tspan class="TextParagraph" font-family="Latin Modern Roman" font-size="353px" font-weight="400"><tspan class="TextPosition" x="2875" y="4442"><tspan fill="rgb(0,0,0)" stroke="none">266,9 PJ</tspan></tspan></tspan></text>
 <text class="SVGTextShape"><tspan class="TextParagraph" font-family="Latin Modern Roman" font-size="353px" font-weight="400"><tspan class="TextPosition" x="2147" y="5318"><tspan fill="rgb(0,0,0)" stroke="none">393,3 PJ</tspan></tspan></tspan></text>
 <text class="SVGTextShape"><tspan class="TextParagraph" font-family="Latin Modern Roman" font-size="353px" font-weight="400"><tspan class="TextPosition" x="1994" y="5923"><tspan fill="rgb(0,0,0)" stroke="none">8,4 PJ</tspan></tspan></tspan></text>
 <text class="SVGTextShape"><tspan class="TextParagraph" font-family="Latin Modern Roman" font-size="353px" font-weight="400"><tspan class="TextPosition" x="1589" y="6473"><tspan fill="rgb(0,0,0)" stroke="none">334,7 PJ</tspan></tspan></tspan></text>
 <text class="SVGTextShape"><tspan class="TextParagraph" font-family="Latin Modern Roman" font-size="353px" font-weight="400"><tspan class="TextPosition" x="1503" y="7168"><tspan fill="rgb(0,0,0)" stroke="none">80,8 PJ</tspan></tspan></tspan></text>
 <text class="SVGTextShape"><tspan class="TextParagraph" font-family="Latin Modern Roman" font-size="353px" font-weight="400"><tspan class="TextPosition" x="1357" y="7556"><tspan fill="rgb(0,0,0)" stroke="none">146,4 PJ</tspan></tspan></tspan></text>
 <text class="SVGTextShape"><tspan class="TextParagraph" font-family="Latin Modern Roman" font-size="353px" font-weight="400"><tspan class="TextPosition" x="1627" y="9984"><tspan fill="rgb(0,0,0)" stroke="none">1288,7 PJ</tspan></tspan></tspan></text>
 <text class="SVGTextShape"><tspan class="TextParagraph" font-family="Latin Modern Roman" font-size="353px" font-weight="400"><tspan class="TextPosition" x="3127" y="11810"><tspan fill="rgb(0,0,0)" stroke="none">25,1 PJ</tspan></tspan></tspan></text>
 <text class="SVGTextShape"><tspan class="TextParagraph" font-family="Latin Modern Roman" font-size="353px" font-weight="400"><tspan class="TextPosition" x="3280" y="12012"><tspan fill="rgb(0,0,0)" stroke="none">159,0 PJ</tspan></tspan></tspan></text>
 <text class="SVGTextShape"><tspan class="TextParagraph" font-family="Latin Modern Roman" font-size="353px" font-weight="400"><tspan class="TextPosition" x="3789" y="12356"><tspan fill="rgb(0,0,0)" stroke="none">196,6 PJ</tspan></tspan></tspan></text>
 <text class="SVGTextShape"><tspan class="TextParagraph" font-family="Latin Modern Roman" font-size="353px" font-weight="400"><tspan class="TextPosition" x="4906" y="12843"><tspan fill="rgb(0,0,0)" stroke="none">510,4 PJ</tspan></tspan></tspan></text>
 <text class="SVGTextShape"><tspan class="TextParagraph" font-family="Latin Modern Roman" font-size="353px" font-weight="400"><tspan class="TextPosition" x="7447" y="12902"><tspan fill="rgb(0,0,0)" stroke="none">1033,0 PJ</tspan></tspan></tspan></text>
 <text class="SVGTextShape"><tspan class="TextParagraph" font-family="Latin Modern Roman" font-size="353px" font-weight="400"><tspan class="TextPosition" x="9583" y="11847"><tspan fill="rgb(0,0,0)" stroke="none">309,6 PJ</tspan></tspan></tspan></text>
 <text class="SVGTextShape"><tspan class="TextParagraph" font-family="Latin Modern Roman" font-size="353px" font-weight="400"><tspan class="TextPosition" x="10888" y="9882"><tspan fill="rgb(0,0,0)" stroke="none">1100,4 PJ</tspan></tspan></tspan></text>
 <text class="SVGTextShape"><tspan class="TextParagraph" font-family="Latin Modern Roman" font-size="353px" font-weight="400"><tspan class="TextPosition" x="11306" y="7584"><tspan fill="rgb(0,0,0)" stroke="none">255,2 PJ</tspan></tspan></tspan></text>
 <text class="SVGTextShape"><tspan class="TextParagraph" font-family="Latin Modern Roman" font-size="353px" font-weight="400"><tspan class="TextPosition" x="9435" y="4212"><tspan fill="rgb(0,0,0)" stroke="none">2008,3 PJ</tspan></tspan></tspan></text>
 <path fill="rgb(0,69,134)" stroke="none" d="M 15835,1485 L 15687,1485 15687,1189 15983,1189 15983,1485 15835,1485 Z"/>
 <path fill="rgb(255,66,14)" stroke="none" d="M 15835,2305 L 15687,2305 15687,2009 15983,2009 15983,2305 15835,2305 Z"/>
 <path fill="rgb(255,211,32)" stroke="none" d="M 15835,3125 L 15687,3125 15687,2829 15983,2829 15983,3125 15835,3125 Z"/>
 <path fill="rgb(87,157,28)" stroke="none" d="M 15835,3945 L 15687,3945 15687,3649 15983,3649 15983,3945 15835,3945 Z"/>
 <path fill="rgb(126,0,33)" stroke="none" d="M 15835,4765 L 15687,4765 15687,4469 15983,4469 15983,4765 15835,4765 Z"/>
 <path fill="rgb(131,202,255)" stroke="none" d="M 15835,5585 L 15687,5585 15687,5289 15983,5289 15983,5585 15835,5585 Z"/>
 <path fill="rgb(49,64,4)" stroke="none" d="M 15835,6405 L 15687,6405 15687,6109 15983,6109 15983,6405 15835,6405 Z"/>
 <path fill="rgb(174,207,0)" stroke="none" d="M 15835,7225 L 15687,7225 15687,6929 15983,6929 15983,7225 15835,7225 Z"/>
 <path fill="rgb(75,31,111)" stroke="none" d="M 15835,8044 L 15687,8044 15687,7748 15983,7748 15983,8044 15835,8044 Z"/>
 <path fill="rgb(255,149,14)" stroke="none" d="M 15835,8864 L 15687,8864 15687,8568 15983,8568 15983,8864 15835,8864 Z"/>
 <path fill="rgb(197,0,11)" stroke="none" d="M 15835,9684 L 15687,9684 15687,9388 15983,9388 15983,9684 15835,9684 Z"/>
 <path fill="rgb(0,132,209)" stroke="none" d="M 15835,10504 L 15687,10504 15687,10208 15983,10208 15983,10504 15835,10504 Z"/>
 <path fill="rgb(0,69,134)" stroke="none" d="M 15835,11324 L 15687,11324 15687,11028 15983,11028 15983,11324 15835,11324 Z"/>
 <path fill="rgb(255,66,14)" stroke="none" d="M 15835,12144 L 15687,12144 15687,11848 15983,11848 15983,12144 15835,12144 Z"/>
 <path fill="rgb(255,211,32)" stroke="none" d="M 15835,12964 L 15687,12964 15687,12668 15983,12668 15983,12964 15835,12964 Z"/>
 <path fill="rgb(87,157,28)" stroke="none" d="M 15835,13784 L 15687,13784 15687,13488 15983,13488 15983,13784 15835,13784 Z"/>
 <path fill="rgb(126,0,33)" stroke="none" d="M 15835,14604 L 15687,14604 15687,14308 15983,14308 15983,14604 15835,14604 Z"/>
 <text class="SVGTextShape"><tspan class="TextParagraph" font-family="Latin Modern Roman" font-size="494px" font-weight="400"><tspan class="TextPosition" x="16091" y="1535"><tspan fill="rgb(0,0,0)" stroke="none">Brandstoffen (direct gebruik)</tspan></tspan></tspan></text>
 <text class="SVGTextShape"><tspan class="TextParagraph" font-family="Latin Modern Roman" font-size="494px" font-weight="400"><tspan class="TextPosition" x="16091" y="2355"><tspan fill="rgb(0,0,0)" stroke="none">Elektriciteit</tspan></tspan></tspan></text>
 <text class="SVGTextShape"><tspan class="TextParagraph" font-family="Latin Modern Roman" font-size="494px" font-weight="400"><tspan class="TextPosition" x="16091" y="3175"><tspan fill="rgb(0,0,0)" stroke="none">Kunstmest</tspan></tspan></tspan></text>
 <text class="SVGTextShape"><tspan class="TextParagraph" font-family="Latin Modern Roman" font-size="494px" font-weight="400"><tspan class="TextPosition" x="16091" y="3995"><tspan fill="rgb(0,0,0)" stroke="none">Staal (landbouw)</tspan></tspan></tspan></text>
 <text class="SVGTextShape"><tspan class="TextParagraph" font-family="Latin Modern Roman" font-size="494px" font-weight="400"><tspan class="TextPosition" x="16091" y="4815"><tspan fill="rgb(0,0,0)" stroke="none">Machines (landbouw)</tspan></tspan></tspan></text>
 <text class="SVGTextShape"><tspan class="TextParagraph" font-family="Latin Modern Roman" font-size="494px" font-weight="400"><tspan class="TextPosition" x="16091" y="5635"><tspan fill="rgb(0,0,0)" stroke="none">Tractoren</tspan></tspan></tspan></text>
 <text class="SVGTextShape"><tspan class="TextParagraph" font-family="Latin Modern Roman" font-size="494px" font-weight="400"><tspan class="TextPosition" x="16091" y="6455"><tspan fill="rgb(0,0,0)" stroke="none">Irrigatie</tspan></tspan></tspan></text>
 <text class="SVGTextShape"><tspan class="TextParagraph" font-family="Latin Modern Roman" font-size="494px" font-weight="400"><tspan class="TextPosition" x="16091" y="7275"><tspan fill="rgb(0,0,0)" stroke="none">Voedingsverwerking (industrie)</tspan></tspan></tspan></text>
 <text class="SVGTextShape"><tspan class="TextParagraph" font-family="Latin Modern Roman" font-size="494px" font-weight="400"><tspan class="TextPosition" x="16091" y="8094"><tspan fill="rgb(0,0,0)" stroke="none">Voedingsverwerking (machines)</tspan></tspan></tspan></text>
 <text class="SVGTextShape"><tspan class="TextParagraph" font-family="Latin Modern Roman" font-size="494px" font-weight="400"><tspan class="TextPosition" x="16091" y="8914"><tspan fill="rgb(0,0,0)" stroke="none">Verpakking (papier)</tspan></tspan></tspan></text>
 <text class="SVGTextShape"><tspan class="TextParagraph" font-family="Latin Modern Roman" font-size="494px" font-weight="400"><tspan class="TextPosition" x="16091" y="9734"><tspan fill="rgb(0,0,0)" stroke="none">Verpakking (glas)</tspan></tspan></tspan></text>
 <text class="SVGTextShape"><tspan class="TextParagraph" font-family="Latin Modern Roman" font-size="494px" font-weight="400"><tspan class="TextPosition" x="16091" y="10554"><tspan fill="rgb(0,0,0)" stroke="none">Verpakking (staal en aluminium)</tspan></tspan></tspan></text>
 <text class="SVGTextShape"><tspan class="TextParagraph" font-family="Latin Modern Roman" font-size="494px" font-weight="400"><tspan class="TextPosition" x="16091" y="11374"><tspan fill="rgb(0,0,0)" stroke="none">Brandstoffen (transport)</tspan></tspan></tspan></text>
 <text class="SVGTextShape"><tspan class="TextParagraph" font-family="Latin Modern Roman" font-size="494px" font-weight="400"><tspan class="TextPosition" x="16091" y="12194"><tspan fill="rgb(0,0,0)" stroke="none">Vrachtvervoer (aanmaak)</tspan></tspan></tspan></text>
 <text class="SVGTextShape"><tspan class="TextParagraph" font-family="Latin Modern Roman" font-size="494px" font-weight="400"><tspan class="TextPosition" x="16091" y="13014"><tspan fill="rgb(0,0,0)" stroke="none">Koeling en koken (commercieel)</tspan></tspan></tspan></text>
 <text class="SVGTextShape"><tspan class="TextParagraph" font-family="Latin Modern Roman" font-size="494px" font-weight="400"><tspan class="TextPosition" x="16091" y="13834"><tspan fill="rgb(0,0,0)" stroke="none">Koelapparatuur (commercieel en huis)</tspan></tspan></tspan></text>
 <text class="SVGTextShape"><tspan class="TextParagraph" font-family="Latin Modern Roman" font-size="494px" font-weight="400"><tspan class="TextPosition" x="16091" y="14654"><tspan fill="rgb(0,0,0)" stroke="none">Koeling en koken (huis)</tspan></tspan></tspan></text>
</svg>