<?xml version="1.0" encoding="UTF-8" standalone="no"?>
<svg
   width="262mm"
   height="153mm"
   viewBox="0 0 26200 15300"
   version="1.1"
   stroke-width="28.222"
   stroke-linejoin="round"
   xml:space="preserve"
   id="svg344"
   sodipodi:docname="steinhart - diagram - broad.svg"
   inkscape:version="1.1.2 (0a00cf5339, 2022-02-04)"
   xmlns:inkscape="http://www.inkscape.org/namespaces/inkscape"
   xmlns:sodipodi="http://sodipodi.sourceforge.net/DTD/sodipodi-0.dtd"
   xmlns="http://www.w3.org/2000/svg"
   xmlns:svg="http://www.w3.org/2000/svg"><defs
   id="defs348" /><sodipodi:namedview
   id="namedview346"
   pagecolor="#ffffff"
   bordercolor="#666666"
   borderopacity="1.0"
   inkscape:pageshadow="2"
   inkscape:pageopacity="0.0"
   inkscape:pagecheckerboard="0"
   inkscape:document-units="mm"
   showgrid="false"
   inkscape:zoom="0.84475533"
   inkscape:cx="439.77231"
   inkscape:cy="221.36587"
   inkscape:window-width="1600"
   inkscape:window-height="841"
   inkscape:window-x="0"
   inkscape:window-y="0"
   inkscape:window-maximized="1"
   inkscape:current-layer="layer1" />
 
 
 
 
 
 
 
 
 
 
 
 
 
 
 
 
 
 
 
 
 
 
 
 
 
 
 
 
 
 
 
 
 
 
 
 
 
 
 
 
 
 
 
 
 
 
 
 
 
 
 
 
 
 
 
 
 
 
 
 
 
 
 
 
 
 
 
 
 
<g
   inkscape:groupmode="layer"
   id="layer1"
   inkscape:label="Broad"
   style="display:inline"><path
     style="display:inline;fill:#c15c33;fill-opacity:1;stroke:none;stroke-width:26.4583px;stroke-linecap:butt;stroke-linejoin:miter;stroke-opacity:1"
     d="M 9444.0002,10189 7018.0001,7884.9881 3689.9999,7743 l -996.419,1731.5138 2599.6186,2693.5812 3821.1261,-234.906 z"
     id="path1225" /><path
     style="display:inline;fill:#b34173;fill-opacity:1;stroke:none;stroke-width:26.4583px;stroke-linecap:butt;stroke-linejoin:miter;stroke-opacity:1"
     d="M 7018.0001,4575 V 7884.9881 L 9444.0002,10189 11479.039,8574.0435 10813.474,5441.9729 8143.3839,4087.3522 Z"
     id="path1223" /><path
     style="display:inline;fill:#41b372;fill-opacity:1;stroke:none;stroke-width:26.4583px;stroke-linecap:butt;stroke-linejoin:miter;stroke-opacity:1"
     d="M 7018.0001,7884.9881 3689.9999,7743 2771.8825,6185.8397 4635.4647,3993.3902 6639.9899,3868.1074 7018.0001,4575 v 3309.9881"
     id="path1227" /></g><g
   inkscape:groupmode="layer"
   id="layer2"
   inkscape:label="graph"
   style="display:inline"><path
     fill="#004586"
     stroke="none"
     d="m 7018,1244 c -699,0 -1394,110 -2059,326 -665,216 -1292,535 -1858,946 -77,56 -152,114 -227,173 l 2072,2609 c 37,-30 75,-58 114,-86 282,-206 596,-366 928,-474 333,-108 680,-163 1030,-163 z"
     id="path4" /><path
     fill="#ff420e"
     stroke="none"
     d="m 2874,2689 c -321,255 -618,539 -887,849 l 2515,2184 c 135,-154 283,-297 444,-424 z"
     id="path6" /><path
     fill="#ffd320"
     stroke="none"
     d="m 1987,3538 c -397,457 -729,965 -989,1512 l 3010,1428 c 130,-273 296,-527 494,-756 z"
     id="path8" /><path
     fill="#579d1c"
     stroke="none"
     d="m 998,5050 c -5,11 -11,23 -16,34 l 3018,1412 c 3,-6 5,-12 8,-18 z"
     id="path10" /><path
     fill="#7e0021"
     stroke="none"
     d="M 982,5084 C 764,5551 601,6040 495,6544 l 3262,682 c 52,-252 134,-497 243,-730 z"
     id="path12" /><path
     fill="#83caff"
     stroke="none"
     d="m 495,6544 c -25,122 -47,244 -66,366 l 3295,499 c 9,-62 20,-123 33,-183 z"
     id="path14" /><path
     fill="#314004"
     stroke="none"
     d="m 429,6910 c -33,223 -56,447 -67,671 l 3328,162 c 6,-111 17,-223 34,-334 z"
     id="path16" /><path
     fill="#aecf00"
     stroke="none"
     d="m 362,7581 c -5,108 -7,216 -7,325 0,699 110,1394 326,2059 216,665 535,1292 946,1858 279,384 599,738 954,1054 l 2218,-2485 c -177,-159 -337,-335 -476,-528 -206,-282 -366,-596 -474,-928 -108,-333 -163,-680 -163,-1030 0,-54 2,-109 4,-163 z"
     id="path18" /><path
     fill="#4b1f6f"
     stroke="none"
     d="m 2581,12877 c 29,26 58,51 87,77 l 2175,-2524 c -15,-13 -29,-26 -44,-38 z"
     id="path20" /><path
     fill="#ff950e"
     stroke="none"
     d="m 2668,12954 c 185,159 378,308 580,446 l 1885,-2747 c -101,-69 -198,-144 -290,-223 z"
     id="path22" /><path
     fill="#c5000b"
     stroke="none"
     d="m 3248,13400 c 249,171 509,325 779,461 l 1496,-2978 c -135,-67 -266,-144 -390,-230 z"
     id="path24" /><path
     fill="#0084d1"
     stroke="none"
     d="m 4027,13861 c 301,151 612,278 932,382 426,139 865,234 1311,284 l 374,-3310 c -223,-25 -442,-73 -656,-142 -159,-52 -315,-116 -465,-192 z"
     id="path26" /><path
     fill="#004586"
     stroke="none"
     d="m 6270,14527 c 248,28 498,43 748,43 699,0 1394,-111 2059,-327 609,-197 1185,-482 1713,-844 L 8904,10653 c -264,181 -552,323 -856,422 -333,108 -680,163 -1030,163 -125,0 -250,-7 -374,-21 z"
     id="path28" /><path
     fill="#ff420e"
     stroke="none"
     d="m 10790,13399 c 392,-269 755,-580 1081,-926 L 9444,10189 c -163,174 -344,329 -540,464 z"
     id="path30" /><path
     fill="#ffd320"
     stroke="none"
     d="m 11871,12473 c 193,-205 372,-423 538,-650 411,-566 729,-1193 945,-1858 216,-665 327,-1360 327,-2059 0,-13 -1,-26 -1,-39 l -3330,20 c 0,6 0,13 0,19 0,350 -55,697 -163,1030 -108,332 -268,646 -474,928 -82,114 -172,223 -269,325 z"
     id="path32" /><path
     fill="#579d1c"
     stroke="none"
     d="m 13680,7867 c -2,-391 -39,-782 -110,-1168 l -3275,604 c 35,193 54,388 55,584 z"
     id="path34" /><path
     fill="#7e0021"
     stroke="none"
     d="m 13570,6699 c -53,-288 -125,-572 -216,-851 -216,-665 -534,-1292 -945,-1858 C 11998,3425 11500,2927 10935,2516 10369,2105 9742,1786 9077,1570 8412,1354 7717,1244 7018,1244 v 3331 c 350,0 697,55 1030,163 332,108 646,268 928,474 283,205 532,454 737,737 206,282 366,596 474,928 45,140 81,282 108,426 z"
     id="path36" /><text
     class="SVGTextShape"
     id="text44"><tspan
       class="TextParagraph"
       font-family="'Latin Modern Roman'"
       font-size="353px"
       font-weight="400"
       id="tspan42"><tspan
         class="TextPosition"
         x="4684"
         y="3334"
         id="tspan40"><tspan
           fill="#000000"
           stroke="none"
           id="tspan38">970,7 PJ</tspan></tspan></tspan></text><text
     class="SVGTextShape"
     id="text52"><tspan
       class="TextParagraph"
       font-family="'Latin Modern Roman'"
       font-size="353px"
       font-weight="400"
       id="tspan50"><tspan
         class="TextPosition"
         x="2875"
         y="4442"
         id="tspan48"><tspan
           fill="#000000"
           stroke="none"
           id="tspan46">266,9 PJ</tspan></tspan></tspan></text><text
     class="SVGTextShape"
     id="text60"><tspan
       class="TextParagraph"
       font-family="'Latin Modern Roman'"
       font-size="353px"
       font-weight="400"
       id="tspan58"><tspan
         class="TextPosition"
         x="2147"
         y="5318"
         id="tspan56"><tspan
           fill="#000000"
           stroke="none"
           id="tspan54">393,3 PJ</tspan></tspan></tspan></text><text
     class="SVGTextShape"
     id="text68"><tspan
       class="TextParagraph"
       font-family="'Latin Modern Roman'"
       font-size="353px"
       font-weight="400"
       id="tspan66"><tspan
         class="TextPosition"
         x="1994"
         y="5923"
         id="tspan64"><tspan
           fill="#000000"
           stroke="none"
           id="tspan62">8,4 PJ</tspan></tspan></tspan></text><text
     class="SVGTextShape"
     id="text76"><tspan
       class="TextParagraph"
       font-family="'Latin Modern Roman'"
       font-size="353px"
       font-weight="400"
       id="tspan74"><tspan
         class="TextPosition"
         x="1589"
         y="6473"
         id="tspan72"><tspan
           fill="#000000"
           stroke="none"
           id="tspan70">334,7 PJ</tspan></tspan></tspan></text><text
     class="SVGTextShape"
     id="text84"><tspan
       class="TextParagraph"
       font-family="'Latin Modern Roman'"
       font-size="353px"
       font-weight="400"
       id="tspan82"><tspan
         class="TextPosition"
         x="1503"
         y="7168"
         id="tspan80"><tspan
           fill="#000000"
           stroke="none"
           id="tspan78">80,8 PJ</tspan></tspan></tspan></text><text
     class="SVGTextShape"
     id="text92"><tspan
       class="TextParagraph"
       font-family="'Latin Modern Roman'"
       font-size="353px"
       font-weight="400"
       id="tspan90"><tspan
         class="TextPosition"
         x="1357"
         y="7556"
         id="tspan88"><tspan
           fill="#000000"
           stroke="none"
           id="tspan86">146,4 PJ</tspan></tspan></tspan></text><text
     class="SVGTextShape"
     id="text100"><tspan
       class="TextParagraph"
       font-family="'Latin Modern Roman'"
       font-size="353px"
       font-weight="400"
       id="tspan98"><tspan
         class="TextPosition"
         x="1627"
         y="9984"
         id="tspan96"><tspan
           fill="#000000"
           stroke="none"
           id="tspan94">1288,7 PJ</tspan></tspan></tspan></text><text
     class="SVGTextShape"
     id="text108"><tspan
       class="TextParagraph"
       font-family="'Latin Modern Roman'"
       font-size="353px"
       font-weight="400"
       id="tspan106"><tspan
         class="TextPosition"
         x="3127"
         y="11810"
         id="tspan104"><tspan
           fill="#000000"
           stroke="none"
           id="tspan102">25,1 PJ</tspan></tspan></tspan></text><text
     class="SVGTextShape"
     id="text116"><tspan
       class="TextParagraph"
       font-family="'Latin Modern Roman'"
       font-size="353px"
       font-weight="400"
       id="tspan114"><tspan
         class="TextPosition"
         x="3280"
         y="12012"
         id="tspan112"><tspan
           fill="#000000"
           stroke="none"
           id="tspan110">159,0 PJ</tspan></tspan></tspan></text><text
     class="SVGTextShape"
     id="text124"><tspan
       class="TextParagraph"
       font-family="'Latin Modern Roman'"
       font-size="353px"
       font-weight="400"
       id="tspan122"><tspan
         class="TextPosition"
         x="3789"
         y="12356"
         id="tspan120"><tspan
           fill="#000000"
           stroke="none"
           id="tspan118">196,6 PJ</tspan></tspan></tspan></text><text
     class="SVGTextShape"
     id="text132"><tspan
       class="TextParagraph"
       font-family="'Latin Modern Roman'"
       font-size="353px"
       font-weight="400"
       id="tspan130"><tspan
         class="TextPosition"
         x="4906"
         y="12843"
         id="tspan128"><tspan
           fill="#000000"
           stroke="none"
           id="tspan126">510,4 PJ</tspan></tspan></tspan></text><text
     class="SVGTextShape"
     id="text140"><tspan
       class="TextParagraph"
       font-family="'Latin Modern Roman'"
       font-size="353px"
       font-weight="400"
       id="tspan138"><tspan
         class="TextPosition"
         x="7447"
         y="12902"
         id="tspan136"><tspan
           fill="#000000"
           stroke="none"
           id="tspan134">1033,0 PJ</tspan></tspan></tspan></text><text
     class="SVGTextShape"
     id="text148"><tspan
       class="TextParagraph"
       font-family="'Latin Modern Roman'"
       font-size="353px"
       font-weight="400"
       id="tspan146"><tspan
         class="TextPosition"
         x="9583"
         y="11847"
         id="tspan144"><tspan
           fill="#000000"
           stroke="none"
           id="tspan142">309,6 PJ</tspan></tspan></tspan></text><text
     class="SVGTextShape"
     id="text156"><tspan
       class="TextParagraph"
       font-family="'Latin Modern Roman'"
       font-size="353px"
       font-weight="400"
       id="tspan154"><tspan
         class="TextPosition"
         x="10888"
         y="9882"
         id="tspan152"><tspan
           fill="#000000"
           stroke="none"
           id="tspan150">1100,4 PJ</tspan></tspan></tspan></text><text
     class="SVGTextShape"
     id="text164"><tspan
       class="TextParagraph"
       font-family="'Latin Modern Roman'"
       font-size="353px"
       font-weight="400"
       id="tspan162"><tspan
         class="TextPosition"
         x="11306"
         y="7584"
         id="tspan160"><tspan
           fill="#000000"
           stroke="none"
           id="tspan158">255,2 PJ</tspan></tspan></tspan></text><text
     class="SVGTextShape"
     id="text172"><tspan
       class="TextParagraph"
       font-family="'Latin Modern Roman'"
       font-size="353px"
       font-weight="400"
       id="tspan170"><tspan
         class="TextPosition"
         x="9435"
         y="4212"
         id="tspan168"><tspan
           fill="#000000"
           stroke="none"
           id="tspan166">2008,3 PJ</tspan></tspan></tspan></text><path
     fill="#004586"
     stroke="none"
     d="m 15835,1485 h -148 v -296 h 296 v 296 z"
     id="path174" /><path
     fill="#ff420e"
     stroke="none"
     d="m 15835,2305 h -148 v -296 h 296 v 296 z"
     id="path176" /><path
     fill="#ffd320"
     stroke="none"
     d="m 15835,3125 h -148 v -296 h 296 v 296 z"
     id="path178" /><path
     fill="#579d1c"
     stroke="none"
     d="m 15835,3945 h -148 v -296 h 296 v 296 z"
     id="path180" /><path
     fill="#7e0021"
     stroke="none"
     d="m 15835,4765 h -148 v -296 h 296 v 296 z"
     id="path182" /><path
     fill="#83caff"
     stroke="none"
     d="m 15835,5585 h -148 v -296 h 296 v 296 z"
     id="path184" /><path
     fill="#314004"
     stroke="none"
     d="m 15835,6405 h -148 v -296 h 296 v 296 z"
     id="path186" /><path
     fill="#aecf00"
     stroke="none"
     d="m 15835,7225 h -148 v -296 h 296 v 296 z"
     id="path188" /><path
     fill="#4b1f6f"
     stroke="none"
     d="m 15835,8044 h -148 v -296 h 296 v 296 z"
     id="path190" /><path
     fill="#ff950e"
     stroke="none"
     d="m 15835,8864 h -148 v -296 h 296 v 296 z"
     id="path192" /><path
     fill="#c5000b"
     stroke="none"
     d="m 15835,9684 h -148 v -296 h 296 v 296 z"
     id="path194" /><path
     fill="#0084d1"
     stroke="none"
     d="m 15835,10504 h -148 v -296 h 296 v 296 z"
     id="path196" /><path
     fill="#004586"
     stroke="none"
     d="m 15835,11324 h -148 v -296 h 296 v 296 z"
     id="path198" /><path
     fill="#ff420e"
     stroke="none"
     d="m 15835,12144 h -148 v -296 h 296 v 296 z"
     id="path200" /><path
     fill="#ffd320"
     stroke="none"
     d="m 15835,12964 h -148 v -296 h 296 v 296 z"
     id="path202" /><path
     fill="#579d1c"
     stroke="none"
     d="m 15835,13784 h -148 v -296 h 296 v 296 z"
     id="path204" /><path
     fill="#7e0021"
     stroke="none"
     d="m 15835,14604 h -148 v -296 h 296 v 296 z"
     id="path206" /><text
     class="SVGTextShape"
     id="text214"><tspan
       class="TextParagraph"
       font-family="'Latin Modern Roman'"
       font-size="494px"
       font-weight="400"
       id="tspan212"><tspan
         class="TextPosition"
         x="16091"
         y="1535"
         id="tspan210"><tspan
           fill="#000000"
           stroke="none"
           id="tspan208">Brandstoffen (direct gebruik)</tspan></tspan></tspan></text><text
     class="SVGTextShape"
     id="text222"><tspan
       class="TextParagraph"
       font-family="'Latin Modern Roman'"
       font-size="494px"
       font-weight="400"
       id="tspan220"><tspan
         class="TextPosition"
         x="16091"
         y="2355"
         id="tspan218"><tspan
           fill="#000000"
           stroke="none"
           id="tspan216">Elektriciteit</tspan></tspan></tspan></text><text
     class="SVGTextShape"
     id="text230"><tspan
       class="TextParagraph"
       font-family="'Latin Modern Roman'"
       font-size="494px"
       font-weight="400"
       id="tspan228"><tspan
         class="TextPosition"
         x="16091"
         y="3175"
         id="tspan226"><tspan
           fill="#000000"
           stroke="none"
           id="tspan224">Kunstmest</tspan></tspan></tspan></text><text
     class="SVGTextShape"
     id="text238"><tspan
       class="TextParagraph"
       font-family="'Latin Modern Roman'"
       font-size="494px"
       font-weight="400"
       id="tspan236"><tspan
         class="TextPosition"
         x="16091"
         y="3995"
         id="tspan234"><tspan
           fill="#000000"
           stroke="none"
           id="tspan232">Staal (landbouw)</tspan></tspan></tspan></text><text
     class="SVGTextShape"
     id="text246"><tspan
       class="TextParagraph"
       font-family="'Latin Modern Roman'"
       font-size="494px"
       font-weight="400"
       id="tspan244"><tspan
         class="TextPosition"
         x="16091"
         y="4815"
         id="tspan242"><tspan
           fill="#000000"
           stroke="none"
           id="tspan240">Machines (landbouw)</tspan></tspan></tspan></text><text
     class="SVGTextShape"
     id="text254"><tspan
       class="TextParagraph"
       font-family="'Latin Modern Roman'"
       font-size="494px"
       font-weight="400"
       id="tspan252"><tspan
         class="TextPosition"
         x="16091"
         y="5635"
         id="tspan250"><tspan
           fill="#000000"
           stroke="none"
           id="tspan248">Tractoren</tspan></tspan></tspan></text><text
     class="SVGTextShape"
     id="text262"><tspan
       class="TextParagraph"
       font-family="'Latin Modern Roman'"
       font-size="494px"
       font-weight="400"
       id="tspan260"><tspan
         class="TextPosition"
         x="16091"
         y="6455"
         id="tspan258"><tspan
           fill="#000000"
           stroke="none"
           id="tspan256">Irrigatie</tspan></tspan></tspan></text><text
     class="SVGTextShape"
     id="text270"><tspan
       class="TextParagraph"
       font-family="'Latin Modern Roman'"
       font-size="494px"
       font-weight="400"
       id="tspan268"><tspan
         class="TextPosition"
         x="16091"
         y="7275"
         id="tspan266"><tspan
           fill="#000000"
           stroke="none"
           id="tspan264">Voedingsverwerking (industrie)</tspan></tspan></tspan></text><text
     class="SVGTextShape"
     id="text278"><tspan
       class="TextParagraph"
       font-family="'Latin Modern Roman'"
       font-size="494px"
       font-weight="400"
       id="tspan276"><tspan
         class="TextPosition"
         x="16091"
         y="8094"
         id="tspan274"><tspan
           fill="#000000"
           stroke="none"
           id="tspan272">Voedingsverwerking (machines)</tspan></tspan></tspan></text><text
     class="SVGTextShape"
     id="text286"><tspan
       class="TextParagraph"
       font-family="'Latin Modern Roman'"
       font-size="494px"
       font-weight="400"
       id="tspan284"><tspan
         class="TextPosition"
         x="16091"
         y="8914"
         id="tspan282"><tspan
           fill="#000000"
           stroke="none"
           id="tspan280">Verpakking (papier)</tspan></tspan></tspan></text><text
     class="SVGTextShape"
     id="text294"><tspan
       class="TextParagraph"
       font-family="'Latin Modern Roman'"
       font-size="494px"
       font-weight="400"
       id="tspan292"><tspan
         class="TextPosition"
         x="16091"
         y="9734"
         id="tspan290"><tspan
           fill="#000000"
           stroke="none"
           id="tspan288">Verpakking (glas)</tspan></tspan></tspan></text><text
     class="SVGTextShape"
     id="text302"><tspan
       class="TextParagraph"
       font-family="'Latin Modern Roman'"
       font-size="494px"
       font-weight="400"
       id="tspan300"><tspan
         class="TextPosition"
         x="16091"
         y="10554"
         id="tspan298"><tspan
           fill="#000000"
           stroke="none"
           id="tspan296">Verpakking (staal en aluminium)</tspan></tspan></tspan></text><text
     class="SVGTextShape"
     id="text310"><tspan
       class="TextParagraph"
       font-family="'Latin Modern Roman'"
       font-size="494px"
       font-weight="400"
       id="tspan308"><tspan
         class="TextPosition"
         x="16091"
         y="11374"
         id="tspan306"><tspan
           fill="#000000"
           stroke="none"
           id="tspan304">Brandstoffen (transport)</tspan></tspan></tspan></text><text
     class="SVGTextShape"
     id="text318"><tspan
       class="TextParagraph"
       font-family="'Latin Modern Roman'"
       font-size="494px"
       font-weight="400"
       id="tspan316"><tspan
         class="TextPosition"
         x="16091"
         y="12194"
         id="tspan314"><tspan
           fill="#000000"
           stroke="none"
           id="tspan312">Vrachtvervoer (aanmaak)</tspan></tspan></tspan></text><text
     class="SVGTextShape"
     id="text326"><tspan
       class="TextParagraph"
       font-family="'Latin Modern Roman'"
       font-size="494px"
       font-weight="400"
       id="tspan324"><tspan
         class="TextPosition"
         x="16091"
         y="13014"
         id="tspan322"><tspan
           fill="#000000"
           stroke="none"
           id="tspan320">Koeling en koken (commercieel)</tspan></tspan></tspan></text><text
     class="SVGTextShape"
     id="text334"><tspan
       class="TextParagraph"
       font-family="'Latin Modern Roman'"
       font-size="494px"
       font-weight="400"
       id="tspan332"><tspan
         class="TextPosition"
         x="16091"
         y="13834"
         id="tspan330"><tspan
           fill="#000000"
           stroke="none"
           id="tspan328">Koelapparatuur (commercieel en huis)</tspan></tspan></tspan></text><text
     class="SVGTextShape"
     id="text342"><tspan
       class="TextParagraph"
       font-family="'Latin Modern Roman'"
       font-size="494px"
       font-weight="400"
       id="tspan340"><tspan
         class="TextPosition"
         x="16091"
         y="14654"
         id="tspan338"><tspan
           fill="#000000"
           stroke="none"
           id="tspan336">Koeling en koken (huis)</tspan></tspan></tspan></text></g></svg>
