<?xml version="1.0" encoding="UTF-8" standalone="no"?>
<svg
   width="317.51123mm"
   height="150mm"
   viewBox="0 0 31751.123 15000"
   version="1.1"
   stroke-width="28.222"
   stroke-linejoin="round"
   xml:space="preserve"
   id="svg892"
   sodipodi:docname="steinhart - foodsystem USA_en-us.svg"
   inkscape:version="1.2.2 (b0a8486541, 2022-12-01)"
   xmlns:inkscape="http://www.inkscape.org/namespaces/inkscape"
   xmlns:sodipodi="http://sodipodi.sourceforge.net/DTD/sodipodi-0.dtd"
   xmlns="http://www.w3.org/2000/svg"
   xmlns:svg="http://www.w3.org/2000/svg"><defs
   id="defs896" /><sodipodi:namedview
   id="namedview894"
   pagecolor="#ffffff"
   bordercolor="#666666"
   borderopacity="1.0"
   inkscape:showpageshadow="2"
   inkscape:pageopacity="0.0"
   inkscape:pagecheckerboard="0"
   inkscape:deskcolor="#d1d1d1"
   inkscape:document-units="mm"
   showgrid="false"
   inkscape:zoom="1.1659306"
   inkscape:cx="752.18888"
   inkscape:cy="268.4551"
   inkscape:window-width="1920"
   inkscape:window-height="1021"
   inkscape:window-x="0"
   inkscape:window-y="0"
   inkscape:window-maximized="1"
   inkscape:current-layer="svg892" />
 <path
   fill="#ffffff"
   stroke="none"
   d="M 15000,15000 H 0 V 0 h 30000 v 15000 z"
   id="path2" />
 <path
   fill="none"
   stroke="#b3b3b3"
   stroke-linejoin="round"
   d="M 10376,12868 H 2887 V 503 h 14977 v 12365 z"
   id="path4" />
 <path
   fill="none"
   stroke="#b3b3b3"
   stroke-linejoin="round"
   d="M 17864,12867 H 2887"
   id="path6" />
 <path
   fill="none"
   stroke="#b3b3b3"
   stroke-linejoin="round"
   d="M 17864,11630 H 2887"
   id="path8" />
 <path
   fill="none"
   stroke="#b3b3b3"
   stroke-linejoin="round"
   d="M 17864,10393 H 2887"
   id="path10" />
 <path
   fill="none"
   stroke="#b3b3b3"
   stroke-linejoin="round"
   d="M 17864,9157 H 2887"
   id="path12" />
 <path
   fill="none"
   stroke="#b3b3b3"
   stroke-linejoin="round"
   d="M 17864,7920 H 2887"
   id="path14" />
 <path
   fill="none"
   stroke="#b3b3b3"
   stroke-linejoin="round"
   d="M 17864,6685 H 2887"
   id="path16" />
 <path
   fill="none"
   stroke="#b3b3b3"
   stroke-linejoin="round"
   d="M 17864,5448 H 2887"
   id="path18" />
 <path
   fill="none"
   stroke="#b3b3b3"
   stroke-linejoin="round"
   d="M 17864,4211 H 2887"
   id="path20" />
 <path
   fill="none"
   stroke="#b3b3b3"
   stroke-linejoin="round"
   d="M 17864,2975 H 2887"
   id="path22" />
 <path
   fill="none"
   stroke="#b3b3b3"
   stroke-linejoin="round"
   d="M 17864,1738 H 2887"
   id="path24" />
 <path
   fill="none"
   stroke="#b3b3b3"
   stroke-linejoin="round"
   d="M 17864,502 H 2887"
   id="path26" />
 <path
   fill="none"
   stroke="#b3b3b3"
   stroke-linejoin="round"
   d="m 2887,13017 v -150"
   id="path28" />
 <path
   fill="none"
   stroke="#b3b3b3"
   stroke-linejoin="round"
   d="m 2887,13017 v -150"
   id="path30" />
 <path
   fill="none"
   stroke="#b3b3b3"
   stroke-linejoin="round"
   d="m 3370,13017 v -150"
   id="path32" />
 <path
   fill="none"
   stroke="#b3b3b3"
   stroke-linejoin="round"
   d="m 3370,13017 v -150"
   id="path34" />
 <path
   fill="none"
   stroke="#b3b3b3"
   stroke-linejoin="round"
   d="m 3853,13017 v -150"
   id="path36" />
 <path
   fill="none"
   stroke="#b3b3b3"
   stroke-linejoin="round"
   d="m 3853,13017 v -150"
   id="path38" />
 <path
   fill="none"
   stroke="#b3b3b3"
   stroke-linejoin="round"
   d="m 4336,13017 v -150"
   id="path40" />
 <path
   fill="none"
   stroke="#b3b3b3"
   stroke-linejoin="round"
   d="m 4336,13017 v -150"
   id="path42" />
 <path
   fill="none"
   stroke="#b3b3b3"
   stroke-linejoin="round"
   d="m 4819,13017 v -150"
   id="path44" />
 <path
   fill="none"
   stroke="#b3b3b3"
   stroke-linejoin="round"
   d="m 4819,13017 v -150"
   id="path46" />
 <path
   fill="none"
   stroke="#b3b3b3"
   stroke-linejoin="round"
   d="m 5302,13017 v -150"
   id="path48" />
 <path
   fill="none"
   stroke="#b3b3b3"
   stroke-linejoin="round"
   d="m 5302,13017 v -150"
   id="path50" />
 <path
   fill="none"
   stroke="#b3b3b3"
   stroke-linejoin="round"
   d="m 5785,13017 v -150"
   id="path52" />
 <path
   fill="none"
   stroke="#b3b3b3"
   stroke-linejoin="round"
   d="m 5785,13017 v -150"
   id="path54" />
 <path
   fill="none"
   stroke="#b3b3b3"
   stroke-linejoin="round"
   d="m 6269,13017 v -150"
   id="path56" />
 <path
   fill="none"
   stroke="#b3b3b3"
   stroke-linejoin="round"
   d="m 6269,13017 v -150"
   id="path58" />
 <path
   fill="none"
   stroke="#b3b3b3"
   stroke-linejoin="round"
   d="m 6752,13017 v -150"
   id="path60" />
 <path
   fill="none"
   stroke="#b3b3b3"
   stroke-linejoin="round"
   d="m 6752,13017 v -150"
   id="path62" />
 <path
   fill="none"
   stroke="#b3b3b3"
   stroke-linejoin="round"
   d="m 7235,13017 v -150"
   id="path64" />
 <path
   fill="none"
   stroke="#b3b3b3"
   stroke-linejoin="round"
   d="m 7235,13017 v -150"
   id="path66" />
 <path
   fill="none"
   stroke="#b3b3b3"
   stroke-linejoin="round"
   d="m 7718,13017 v -150"
   id="path68" />
 <path
   fill="none"
   stroke="#b3b3b3"
   stroke-linejoin="round"
   d="m 7718,13017 v -150"
   id="path70" />
 <path
   fill="none"
   stroke="#b3b3b3"
   stroke-linejoin="round"
   d="m 8201,13017 v -150"
   id="path72" />
 <path
   fill="none"
   stroke="#b3b3b3"
   stroke-linejoin="round"
   d="m 8201,13017 v -150"
   id="path74" />
 <path
   fill="none"
   stroke="#b3b3b3"
   stroke-linejoin="round"
   d="m 8684,13017 v -150"
   id="path76" />
 <path
   fill="none"
   stroke="#b3b3b3"
   stroke-linejoin="round"
   d="m 8684,13017 v -150"
   id="path78" />
 <path
   fill="none"
   stroke="#b3b3b3"
   stroke-linejoin="round"
   d="m 9168,13017 v -150"
   id="path80" />
 <path
   fill="none"
   stroke="#b3b3b3"
   stroke-linejoin="round"
   d="m 9168,13017 v -150"
   id="path82" />
 <path
   fill="none"
   stroke="#b3b3b3"
   stroke-linejoin="round"
   d="m 9651,13017 v -150"
   id="path84" />
 <path
   fill="none"
   stroke="#b3b3b3"
   stroke-linejoin="round"
   d="m 9651,13017 v -150"
   id="path86" />
 <path
   fill="none"
   stroke="#b3b3b3"
   stroke-linejoin="round"
   d="m 10134,13017 v -150"
   id="path88" />
 <path
   fill="none"
   stroke="#b3b3b3"
   stroke-linejoin="round"
   d="m 10134,13017 v -150"
   id="path90" />
 <path
   fill="none"
   stroke="#b3b3b3"
   stroke-linejoin="round"
   d="m 10617,13017 v -150"
   id="path92" />
 <path
   fill="none"
   stroke="#b3b3b3"
   stroke-linejoin="round"
   d="m 10617,13017 v -150"
   id="path94" />
 <path
   fill="none"
   stroke="#b3b3b3"
   stroke-linejoin="round"
   d="m 11100,13017 v -150"
   id="path96" />
 <path
   fill="none"
   stroke="#b3b3b3"
   stroke-linejoin="round"
   d="m 11100,13017 v -150"
   id="path98" />
 <path
   fill="none"
   stroke="#b3b3b3"
   stroke-linejoin="round"
   d="m 11583,13017 v -150"
   id="path100" />
 <path
   fill="none"
   stroke="#b3b3b3"
   stroke-linejoin="round"
   d="m 11583,13017 v -150"
   id="path102" />
 <path
   fill="none"
   stroke="#b3b3b3"
   stroke-linejoin="round"
   d="m 12067,13017 v -150"
   id="path104" />
 <path
   fill="none"
   stroke="#b3b3b3"
   stroke-linejoin="round"
   d="m 12067,13017 v -150"
   id="path106" />
 <path
   fill="none"
   stroke="#b3b3b3"
   stroke-linejoin="round"
   d="m 12550,13017 v -150"
   id="path108" />
 <path
   fill="none"
   stroke="#b3b3b3"
   stroke-linejoin="round"
   d="m 12550,13017 v -150"
   id="path110" />
 <path
   fill="none"
   stroke="#b3b3b3"
   stroke-linejoin="round"
   d="m 13033,13017 v -150"
   id="path112" />
 <path
   fill="none"
   stroke="#b3b3b3"
   stroke-linejoin="round"
   d="m 13033,13017 v -150"
   id="path114" />
 <path
   fill="none"
   stroke="#b3b3b3"
   stroke-linejoin="round"
   d="m 13516,13017 v -150"
   id="path116" />
 <path
   fill="none"
   stroke="#b3b3b3"
   stroke-linejoin="round"
   d="m 13516,13017 v -150"
   id="path118" />
 <path
   fill="none"
   stroke="#b3b3b3"
   stroke-linejoin="round"
   d="m 13999,13017 v -150"
   id="path120" />
 <path
   fill="none"
   stroke="#b3b3b3"
   stroke-linejoin="round"
   d="m 13999,13017 v -150"
   id="path122" />
 <path
   fill="none"
   stroke="#b3b3b3"
   stroke-linejoin="round"
   d="m 14482,13017 v -150"
   id="path124" />
 <path
   fill="none"
   stroke="#b3b3b3"
   stroke-linejoin="round"
   d="m 14482,13017 v -150"
   id="path126" />
 <path
   fill="none"
   stroke="#b3b3b3"
   stroke-linejoin="round"
   d="m 14966,13017 v -150"
   id="path128" />
 <path
   fill="none"
   stroke="#b3b3b3"
   stroke-linejoin="round"
   d="m 14966,13017 v -150"
   id="path130" />
 <path
   fill="none"
   stroke="#b3b3b3"
   stroke-linejoin="round"
   d="m 15448,13017 v -150"
   id="path132" />
 <path
   fill="none"
   stroke="#b3b3b3"
   stroke-linejoin="round"
   d="m 15448,13017 v -150"
   id="path134" />
 <path
   fill="none"
   stroke="#b3b3b3"
   stroke-linejoin="round"
   d="m 15931,13017 v -150"
   id="path136" />
 <path
   fill="none"
   stroke="#b3b3b3"
   stroke-linejoin="round"
   d="m 15931,13017 v -150"
   id="path138" />
 <path
   fill="none"
   stroke="#b3b3b3"
   stroke-linejoin="round"
   d="m 16414,13017 v -150"
   id="path140" />
 <path
   fill="none"
   stroke="#b3b3b3"
   stroke-linejoin="round"
   d="m 16414,13017 v -150"
   id="path142" />
 <path
   fill="none"
   stroke="#b3b3b3"
   stroke-linejoin="round"
   d="m 16897,13017 v -150"
   id="path144" />
 <path
   fill="none"
   stroke="#b3b3b3"
   stroke-linejoin="round"
   d="m 16897,13017 v -150"
   id="path146" />
 <path
   fill="none"
   stroke="#b3b3b3"
   stroke-linejoin="round"
   d="m 17380,13017 v -150"
   id="path148" />
 <path
   fill="none"
   stroke="#b3b3b3"
   stroke-linejoin="round"
   d="m 17380,13017 v -150"
   id="path150" />
 <path
   fill="none"
   stroke="#b3b3b3"
   stroke-linejoin="round"
   d="m 17864,13017 v -150"
   id="path152" />
 <path
   fill="none"
   stroke="#b3b3b3"
   stroke-linejoin="round"
   d="m 17864,13017 v -150"
   id="path154" />
 <path
   fill="none"
   stroke="#b3b3b3"
   stroke-linejoin="round"
   d="M 2887,12867 H 17864"
   id="path156" />
 <path
   fill="none"
   stroke="#b3b3b3"
   stroke-linejoin="round"
   d="m 2737,12867 h 150"
   id="path158" />
 <path
   fill="none"
   stroke="#b3b3b3"
   stroke-linejoin="round"
   d="m 2737,12867 h 150"
   id="path160" />
 <path
   fill="none"
   stroke="#b3b3b3"
   stroke-linejoin="round"
   d="m 2737,11630 h 150"
   id="path162" />
 <path
   fill="none"
   stroke="#b3b3b3"
   stroke-linejoin="round"
   d="m 2737,11630 h 150"
   id="path164" />
 <path
   fill="none"
   stroke="#b3b3b3"
   stroke-linejoin="round"
   d="m 2737,10393 h 150"
   id="path166" />
 <path
   fill="none"
   stroke="#b3b3b3"
   stroke-linejoin="round"
   d="m 2737,10393 h 150"
   id="path168" />
 <path
   fill="none"
   stroke="#b3b3b3"
   stroke-linejoin="round"
   d="m 2737,9157 h 150"
   id="path170" />
 <path
   fill="none"
   stroke="#b3b3b3"
   stroke-linejoin="round"
   d="m 2737,9157 h 150"
   id="path172" />
 <path
   fill="none"
   stroke="#b3b3b3"
   stroke-linejoin="round"
   d="m 2737,7920 h 150"
   id="path174" />
 <path
   fill="none"
   stroke="#b3b3b3"
   stroke-linejoin="round"
   d="m 2737,7920 h 150"
   id="path176" />
 <path
   fill="none"
   stroke="#b3b3b3"
   stroke-linejoin="round"
   d="m 2737,6685 h 150"
   id="path178" />
 <path
   fill="none"
   stroke="#b3b3b3"
   stroke-linejoin="round"
   d="m 2737,6685 h 150"
   id="path180" />
 <path
   fill="none"
   stroke="#b3b3b3"
   stroke-linejoin="round"
   d="m 2737,5448 h 150"
   id="path182" />
 <path
   fill="none"
   stroke="#b3b3b3"
   stroke-linejoin="round"
   d="m 2737,5448 h 150"
   id="path184" />
 <path
   fill="none"
   stroke="#b3b3b3"
   stroke-linejoin="round"
   d="m 2737,4211 h 150"
   id="path186" />
 <path
   fill="none"
   stroke="#b3b3b3"
   stroke-linejoin="round"
   d="m 2737,4211 h 150"
   id="path188" />
 <path
   fill="none"
   stroke="#b3b3b3"
   stroke-linejoin="round"
   d="m 2737,2975 h 150"
   id="path190" />
 <path
   fill="none"
   stroke="#b3b3b3"
   stroke-linejoin="round"
   d="m 2737,2975 h 150"
   id="path192" />
 <path
   fill="none"
   stroke="#b3b3b3"
   stroke-linejoin="round"
   d="m 2737,1738 h 150"
   id="path194" />
 <path
   fill="none"
   stroke="#b3b3b3"
   stroke-linejoin="round"
   d="m 2737,1738 h 150"
   id="path196" />
 <path
   fill="none"
   stroke="#b3b3b3"
   stroke-linejoin="round"
   d="m 2737,502 h 150"
   id="path198" />
 <path
   fill="none"
   stroke="#b3b3b3"
   stroke-linejoin="round"
   d="m 2737,502 h 150"
   id="path200" />
 <path
   fill="none"
   stroke="#b3b3b3"
   stroke-linejoin="round"
   d="M 2887,12867 V 502"
   id="path202" />
 <path
   fill="#004586"
   stroke="none"
   d="m 17501,12867 h 242 v -1201 h -242 z"
   id="path204" />
 <path
   fill="#004586"
   stroke="none"
   d="m 16535,12867 h 241 v -1170 h -241 z"
   id="path206" />
 <path
   fill="#004586"
   stroke="none"
   d="m 14603,12867 h 242 v -1107 h -242 z"
   id="path208" />
 <path
   fill="#004586"
   stroke="none"
   d="m 12671,12867 h 241 v -973 h -241 z"
   id="path210" />
 <path
   fill="#004586"
   stroke="none"
   d="m 11704,12867 h 242 v -927 h -242 z"
   id="path212" />
 <path
   fill="#004586"
   stroke="none"
   d="m 9772,12867 h 241 v -895 h -241 z"
   id="path214" />
 <path
   fill="#004586"
   stroke="none"
   d="m 7839,12867 h 241 v -818 h -241 z"
   id="path216" />
 <path
   fill="#004586"
   stroke="none"
   d="m 6389,12867 h 242 v -704 h -242 z"
   id="path218" />
 <path
   fill="#004586"
   stroke="none"
   d="m 3007,12867 h 242 v -363 h -242 z"
   id="path220" />
 <path
   fill="#ff420e"
   stroke="none"
   d="m 17501,11666 h 242 v -330 h -242 z"
   id="path222" />
 <path
   fill="#ff420e"
   stroke="none"
   d="m 16535,11697 h 241 v -296 h -241 z"
   id="path224" />
 <path
   fill="#ff420e"
   stroke="none"
   d="m 14603,11760 h 242 v -259 h -242 z"
   id="path226" />
 <path
   fill="#ff420e"
   stroke="none"
   d="m 12671,11894 h 241 v -239 h -241 z"
   id="path228" />
 <path
   fill="#ff420e"
   stroke="none"
   d="m 11704,11940 h 242 v -227 h -242 z"
   id="path230" />
 <path
   fill="#ff420e"
   stroke="none"
   d="m 9772,11972 h 241 v -207 h -241 z"
   id="path232" />
 <path
   fill="#ff420e"
   stroke="none"
   d="m 7839,12049 h 241 v -170 h -241 z"
   id="path234" />
 <path
   fill="#ff420e"
   stroke="none"
   d="m 6389,12163 h 242 v -166 h -242 z"
   id="path236" />
 <path
   fill="#ff420e"
   stroke="none"
   d="m 3007,12504 h 242 v -3 h -242 z"
   id="path238" />
 <path
   fill="#ffd320"
   stroke="none"
   d="m 17501,11336 h 242 v -486 h -242 z"
   id="path240" />
 <path
   fill="#ffd320"
   stroke="none"
   d="m 16535,11401 h 241 v -450 h -241 z"
   id="path242" />
 <path
   fill="#ffd320"
   stroke="none"
   d="m 14603,11501 h 242 v -310 h -242 z"
   id="path244" />
 <path
   fill="#ffd320"
   stroke="none"
   d="m 12671,11655 h 241 v -212 h -241 z"
   id="path246" />
 <path
   fill="#ffd320"
   stroke="none"
   d="m 11704,11713 h 242 v -167 h -242 z"
   id="path248" />
 <path
   fill="#ffd320"
   stroke="none"
   d="m 9772,11765 h 241 v -158 h -241 z"
   id="path250" />
 <path
   fill="#ffd320"
   stroke="none"
   d="m 7839,11879 h 241 v -124 h -241 z"
   id="path252" />
 <path
   fill="#ffd320"
   stroke="none"
   d="m 6389,11997 h 242 v -101 h -242 z"
   id="path254" />
 <path
   fill="#ffd320"
   stroke="none"
   d="m 3007,12501 h 242 v -64 h -242 z"
   id="path256" />
 <path
   fill="#579d1c"
   stroke="none"
   d="m 17501,10850 h 242 v -11 h -242 z"
   id="path258" />
 <path
   fill="#579d1c"
   stroke="none"
   d="m 16535,10951 h 241 v -13 h -241 z"
   id="path260" />
 <path
   fill="#579d1c"
   stroke="none"
   d="m 14603,11191 h 242 v -13 h -242 z"
   id="path262" />
 <path
   fill="#579d1c"
   stroke="none"
   d="m 12671,11443 h 241 v -9 h -241 z"
   id="path264" />
 <path
   fill="#579d1c"
   stroke="none"
   d="m 11704,11546 h 242 v -10 h -242 z"
   id="path266" />
 <path
   fill="#579d1c"
   stroke="none"
   d="m 9772,11607 h 241 v -13 h -241 z"
   id="path268" />
 <path
   fill="#579d1c"
   stroke="none"
   d="m 7839,11755 h 241 v -14 h -241 z"
   id="path270" />
 <path
   fill="#579d1c"
   stroke="none"
   d="m 6389,11896 h 242 v -10 h -242 z"
   id="path272" />
 <path
   fill="#579d1c"
   stroke="none"
   d="m 3007,12437 h 242 v -9 h -242 z"
   id="path274" />
 <path
   fill="#7e0021"
   stroke="none"
   d="m 17501,10839 h 242 v -414 h -242 z"
   id="path276" />
 <path
   fill="#7e0021"
   stroke="none"
   d="m 16535,10938 h 241 v -388 h -241 z"
   id="path278" />
 <path
   fill="#7e0021"
   stroke="none"
   d="m 14603,11178 h 242 v -311 h -242 z"
   id="path280" />
 <path
   fill="#7e0021"
   stroke="none"
   d="m 12671,11434 h 241 v -269 h -241 z"
   id="path282" />
 <path
   fill="#7e0021"
   stroke="none"
   d="m 11704,11536 h 242 v -260 h -242 z"
   id="path284" />
 <path
   fill="#7e0021"
   stroke="none"
   d="m 9772,11594 h 241 v -152 h -241 z"
   id="path286" />
 <path
   fill="#7e0021"
   stroke="none"
   d="m 7839,11741 h 241 v -156 h -241 z"
   id="path288" />
 <path
   fill="#7e0021"
   stroke="none"
   d="m 6389,11886 h 242 v -179 h -242 z"
   id="path290" />
 <path
   fill="#7e0021"
   stroke="none"
   d="m 3007,12428 h 242 v -46 h -242 z"
   id="path292" />
 <path
   fill="#83caff"
   stroke="none"
   d="m 17501,10425 h 242 v -99 h -242 z"
   id="path294" />
 <path
   fill="#83caff"
   stroke="none"
   d="m 16535,10550 h 241 v -106 h -241 z"
   id="path296" />
 <path
   fill="#83caff"
   stroke="none"
   d="m 14603,10867 h 242 v -103 h -242 z"
   id="path298" />
 <path
   fill="#83caff"
   stroke="none"
   d="m 12671,11165 h 241 v -61 h -241 z"
   id="path300" />
 <path
   fill="#83caff"
   stroke="none"
   d="m 11704,11276 h 242 v -85 h -242 z"
   id="path302" />
 <path
   fill="#83caff"
   stroke="none"
   d="m 9772,11442 h 241 v -123 h -241 z"
   id="path304" />
 <path
   fill="#83caff"
   stroke="none"
   d="m 7839,11585 h 241 v -159 h -241 z"
   id="path306" />
 <path
   fill="#83caff"
   stroke="none"
   d="m 6389,11707 h 242 v -130 h -242 z"
   id="path308" />
 <path
   fill="#83caff"
   stroke="none"
   d="m 3007,12382 h 242 v -67 h -242 z"
   id="path310" />
 <path
   fill="#314004"
   stroke="none"
   d="m 17501,10326 h 242 v -182 h -242 z"
   id="path312" />
 <path
   fill="#314004"
   stroke="none"
   d="m 16535,10444 h 241 v -180 h -241 z"
   id="path314" />
 <path
   fill="#314004"
   stroke="none"
   d="m 14603,10764 h 242 v -177 h -242 z"
   id="path316" />
 <path
   fill="#314004"
   stroke="none"
   d="m 12671,11104 h 241 v -172 h -241 z"
   id="path318" />
 <path
   fill="#314004"
   stroke="none"
   d="m 11704,11191 h 242 v -168 h -242 z"
   id="path320" />
 <path
   fill="#314004"
   stroke="none"
   d="m 9772,11319 h 241 v -153 h -241 z"
   id="path322" />
 <path
   fill="#314004"
   stroke="none"
   d="m 7839,11426 h 241 v -129 h -241 z"
   id="path324" />
 <path
   fill="#314004"
   stroke="none"
   d="m 6389,11577 h 242 v -118 h -242 z"
   id="path326" />
 <path
   fill="#314004"
   stroke="none"
   d="m 3007,12315 h 242 v -93 h -242 z"
   id="path328" />
 <path
   fill="#aecf00"
   stroke="none"
   d="m 17501,10144 h 242 V 8551 h -242 z"
   id="path330" />
 <path
   fill="#aecf00"
   stroke="none"
   d="m 16535,10264 h 241 V 8738 h -241 z"
   id="path332" />
 <path
   fill="#aecf00"
   stroke="none"
   d="m 14603,10587 h 242 V 9299 h -242 z"
   id="path334" />
 <path
   fill="#aecf00"
   stroke="none"
   d="m 12671,10932 h 241 V 9773 h -241 z"
   id="path336" />
 <path
   fill="#aecf00"
   stroke="none"
   d="m 11704,11023 h 242 V 9923 h -242 z"
   id="path338" />
 <path
   fill="#aecf00"
   stroke="none"
   d="m 9772,11166 h 241 v -1094 h -241 z"
   id="path340" />
 <path
   fill="#aecf00"
   stroke="none"
   d="m 7839,11297 h 241 v -994 h -241 z"
   id="path342" />
 <path
   fill="#aecf00"
   stroke="none"
   d="m 6389,11459 h 242 v -918 h -242 z"
   id="path344" />
 <path
   fill="#aecf00"
   stroke="none"
   d="m 3007,12222 h 242 v -760 h -242 z"
   id="path346" />
 <path
   fill="#4b1f6f"
   stroke="none"
   d="m 17501,8551 h 242 v -31 h -242 z"
   id="path348" />
 <path
   fill="#4b1f6f"
   stroke="none"
   d="m 16535,8738 h 241 v -31 h -241 z"
   id="path350" />
 <path
   fill="#4b1f6f"
   stroke="none"
   d="m 14603,9299 h 242 v -31 h -242 z"
   id="path352" />
 <path
   fill="#4b1f6f"
   stroke="none"
   d="m 12671,9773 h 241 v -26 h -241 z"
   id="path354" />
 <path
   fill="#4b1f6f"
   stroke="none"
   d="m 11704,9923 h 242 v -25 h -242 z"
   id="path356" />
 <path
   fill="#4b1f6f"
   stroke="none"
   d="m 9772,10072 h 241 v -25 h -241 z"
   id="path358" />
 <path
   fill="#4b1f6f"
   stroke="none"
   d="m 7839,10303 h 241 v -26 h -241 z"
   id="path360" />
 <path
   fill="#4b1f6f"
   stroke="none"
   d="m 6389,10541 h 242 v -30 h -242 z"
   id="path362" />
 <path
   fill="#4b1f6f"
   stroke="none"
   d="m 3007,11462 h 242 v -4 h -242 z"
   id="path364" />
 <path
   fill="#ff950e"
   stroke="none"
   d="m 17501,8520 h 242 v -197 h -242 z"
   id="path366" />
 <path
   fill="#ff950e"
   stroke="none"
   d="m 16535,8707 h 241 v -185 h -241 z"
   id="path368" />
 <path
   fill="#ff950e"
   stroke="none"
   d="m 14603,9268 h 242 v -160 h -242 z"
   id="path370" />
 <path
   fill="#ff950e"
   stroke="none"
   d="m 12671,9747 h 241 v -145 h -241 z"
   id="path372" />
 <path
   fill="#ff950e"
   stroke="none"
   d="m 11704,9898 h 242 v -135 h -242 z"
   id="path374" />
 <path
   fill="#ff950e"
   stroke="none"
   d="m 9772,10047 h 241 v -104 h -241 z"
   id="path376" />
 <path
   fill="#ff950e"
   stroke="none"
   d="m 7839,10277 h 241 v -87 h -241 z"
   id="path378" />
 <path
   fill="#ff950e"
   stroke="none"
   d="m 6389,10511 h 242 v -76 h -242 z"
   id="path380" />
 <path
   fill="#ff950e"
   stroke="none"
   d="m 3007,11458 h 242 v -44 h -242 z"
   id="path382" />
 <path
   fill="#c5000b"
   stroke="none"
   d="m 17501,8323 h 242 v -243 h -242 z"
   id="path384" />
 <path
   fill="#c5000b"
   stroke="none"
   d="m 16535,8522 h 241 v -217 h -241 z"
   id="path386" />
 <path
   fill="#c5000b"
   stroke="none"
   d="m 14603,9108 h 242 v -176 h -242 z"
   id="path388" />
 <path
   fill="#c5000b"
   stroke="none"
   d="m 12671,9602 h 241 v -160 h -241 z"
   id="path390" />
 <path
   fill="#c5000b"
   stroke="none"
   d="m 11704,9763 h 242 v -156 h -242 z"
   id="path392" />
 <path
   fill="#c5000b"
   stroke="none"
   d="m 9772,9943 h 241 v -139 h -241 z"
   id="path394" />
 <path
   fill="#c5000b"
   stroke="none"
   d="m 7839,10190 h 241 v -135 h -241 z"
   id="path396" />
 <path
   fill="#c5000b"
   stroke="none"
   d="m 6389,10435 h 242 v -133 h -242 z"
   id="path398" />
 <path
   fill="#c5000b"
   stroke="none"
   d="m 3007,11414 h 242 v -72 h -242 z"
   id="path400" />
 <path
   fill="#0084d1"
   stroke="none"
   d="m 17501,8080 h 242 v -630 h -242 z"
   id="path402" />
 <path
   fill="#0084d1"
   stroke="none"
   d="m 16535,8305 h 241 v -580 h -241 z"
   id="path404" />
 <path
   fill="#0084d1"
   stroke="none"
   d="m 14603,8932 h 242 v -471 h -242 z"
   id="path406" />
 <path
   fill="#0084d1"
   stroke="none"
   d="m 12671,9442 h 241 v -445 h -241 z"
   id="path408" />
 <path
   fill="#0084d1"
   stroke="none"
   d="m 11704,9607 h 242 v -442 h -242 z"
   id="path410" />
 <path
   fill="#0084d1"
   stroke="none"
   d="m 9772,9804 h 241 v -382 h -241 z"
   id="path412" />
 <path
   fill="#0084d1"
   stroke="none"
   d="m 7839,10055 h 241 v -321 h -241 z"
   id="path414" />
 <path
   fill="#0084d1"
   stroke="none"
   d="m 6389,10302 h 242 v -289 h -242 z"
   id="path416" />
 <path
   fill="#0084d1"
   stroke="none"
   d="m 3007,11342 h 242 v -197 h -242 z"
   id="path418" />
 <path
   fill="#004586"
   stroke="none"
   d="m 17501,7450 h 242 V 6172 h -242 z"
   id="path420" />
 <path
   fill="#004586"
   stroke="none"
   d="m 16535,7725 h 241 V 6553 h -241 z"
   id="path422" />
 <path
   fill="#004586"
   stroke="none"
   d="m 14603,8461 h 242 v -952 h -242 z"
   id="path424" />
 <path
   fill="#004586"
   stroke="none"
   d="m 12671,8997 h 241 v -793 h -241 z"
   id="path426" />
 <path
   fill="#004586"
   stroke="none"
   d="m 11704,9165 h 242 v -725 h -242 z"
   id="path428" />
 <path
   fill="#004586"
   stroke="none"
   d="m 9772,9422 h 241 v -633 h -241 z"
   id="path430" />
 <path
   fill="#004586"
   stroke="none"
   d="m 7839,9734 h 241 v -528 h -241 z"
   id="path432" />
 <path
   fill="#004586"
   stroke="none"
   d="m 6389,10013 h 242 v -445 h -242 z"
   id="path434" />
 <path
   fill="#004586"
   stroke="none"
   d="m 3007,11145 h 242 v -256 h -242 z"
   id="path436" />
 <path
   fill="#ff420e"
   stroke="none"
   d="m 17501,6172 h 242 v -382 h -242 z"
   id="path438" />
 <path
   fill="#ff420e"
   stroke="none"
   d="m 16535,6553 h 241 v -363 h -241 z"
   id="path440" />
 <path
   fill="#ff420e"
   stroke="none"
   d="m 14603,7509 h 242 v -315 h -242 z"
   id="path442" />
 <path
   fill="#ff420e"
   stroke="none"
   d="m 12671,8204 h 241 v -229 h -241 z"
   id="path444" />
 <path
   fill="#ff420e"
   stroke="none"
   d="m 11704,8440 h 242 v -223 h -242 z"
   id="path446" />
 <path
   fill="#ff420e"
   stroke="none"
   d="m 9772,8789 h 241 v -243 h -241 z"
   id="path448" />
 <path
   fill="#ff420e"
   stroke="none"
   d="m 7839,9206 h 241 v -256 h -241 z"
   id="path450" />
 <path
   fill="#ff420e"
   stroke="none"
   d="m 6389,9568 h 242 v -218 h -242 z"
   id="path452" />
 <path
   fill="#ff420e"
   stroke="none"
   d="m 3007,10889 h 242 v -145 h -242 z"
   id="path454" />
 <path
   fill="#ffd320"
   stroke="none"
   d="m 17501,5790 h 242 V 4429 h -242 z"
   id="path456" />
 <path
   fill="#ffd320"
   stroke="none"
   d="m 16535,6190 h 241 V 4943 h -241 z"
   id="path458" />
 <path
   fill="#ffd320"
   stroke="none"
   d="m 14603,7194 h 242 V 6113 h -242 z"
   id="path460" />
 <path
   fill="#ffd320"
   stroke="none"
   d="m 12671,7975 h 241 v -962 h -241 z"
   id="path462" />
 <path
   fill="#ffd320"
   stroke="none"
   d="m 11704,8217 h 242 v -909 h -242 z"
   id="path464" />
 <path
   fill="#ffd320"
   stroke="none"
   d="m 9772,8546 h 241 v -833 h -241 z"
   id="path466" />
 <path
   fill="#ffd320"
   stroke="none"
   d="m 7839,8950 h 241 v -776 h -241 z"
   id="path468" />
 <path
   fill="#ffd320"
   stroke="none"
   d="m 6389,9350 h 242 v -729 h -242 z"
   id="path470" />
 <path
   fill="#ffd320"
   stroke="none"
   d="m 3007,10744 h 242 v -626 h -242 z"
   id="path472" />
 <path
   fill="#579d1c"
   stroke="none"
   d="m 17501,4429 h 242 v -316 h -242 z"
   id="path474" />
 <path
   fill="#579d1c"
   stroke="none"
   d="m 16535,4943 h 241 v -290 h -241 z"
   id="path476" />
 <path
   fill="#579d1c"
   stroke="none"
   d="m 14603,6113 h 242 v -207 h -242 z"
   id="path478" />
 <path
   fill="#579d1c"
   stroke="none"
   d="m 12671,7013 h 241 v -166 h -241 z"
   id="path480" />
 <path
   fill="#579d1c"
   stroke="none"
   d="m 11704,7308 h 242 v -153 h -242 z"
   id="path482" />
 <path
   fill="#579d1c"
   stroke="none"
   d="m 9772,7713 h 241 v -142 h -241 z"
   id="path484" />
 <path
   fill="#579d1c"
   stroke="none"
   d="m 7839,8174 h 241 v -129 h -241 z"
   id="path486" />
 <path
   fill="#579d1c"
   stroke="none"
   d="m 6389,8621 h 242 v -124 h -242 z"
   id="path488" />
 <path
   fill="#579d1c"
   stroke="none"
   d="m 3007,10118 h 242 v -52 h -242 z"
   id="path490" />
 <path
   fill="#7e0021"
   stroke="none"
   d="m 17501,4113 h 242 V 1630 h -242 z"
   id="path492" />
 <path
   fill="#7e0021"
   stroke="none"
   d="m 16535,4653 h 241 V 2408 h -241 z"
   id="path494" />
 <path
   fill="#7e0021"
   stroke="none"
   d="m 14603,5906 h 242 V 4121 h -242 z"
   id="path496" />
 <path
   fill="#7e0021"
   stroke="none"
   d="m 12671,6847 h 241 V 5416 h -241 z"
   id="path498" />
 <path
   fill="#7e0021"
   stroke="none"
   d="m 11704,7155 h 242 V 5826 h -242 z"
   id="path500" />
 <path
   fill="#7e0021"
   stroke="none"
   d="m 9772,7571 h 241 V 6392 h -241 z"
   id="path502" />
 <path
   fill="#7e0021"
   stroke="none"
   d="m 7839,8045 h 241 V 6999 h -241 z"
   id="path504" />
 <path
   fill="#7e0021"
   stroke="none"
   d="m 6389,8497 h 242 v -952 h -242 z"
   id="path506" />
 <path
   fill="#7e0021"
   stroke="none"
   d="m 3007,10066 h 242 v -746 h -242 z"
   id="path508" />
 <path
   fill="none"
   stroke="#6e1c46"
   stroke-width="50"
   stroke-linejoin="round"
   stroke-linecap="round"
   stroke-dasharray="1, 200"
   d="m 3128,9320 3382,-1775 1450,-546 1932,-607 1933,-566 966,-410 1933,-1295 1932,-1713 966,-778"
   id="path510" />
 <path
   fill="none"
   stroke="#d06015"
   stroke-width="50"
   stroke-linejoin="round"
   stroke-linecap="round"
   stroke-dasharray="1, 200"
   d="m 3128,10744 3382,-1394 1450,-400 1932,-404 1933,-329 966,-242 1933,-781 1932,-1004 966,-400"
   id="path512" />
 <path
   fill="none"
   stroke="#0fc000"
   stroke-width="50"
   stroke-linejoin="round"
   stroke-linecap="round"
   stroke-dasharray="1, 200"
   d="m 3128,12222 3382,-763 1450,-162 1932,-131 1933,-143 966,-91 1933,-345 1932,-323 966,-120"
   id="path514" />
 <text
   class="SVGTextShape"
   transform="rotate(-44.9)"
   id="text522"
   x="-10878.185"
   y="-2452.781"><tspan
     class="TextParagraph"
     font-family="'Latin Modern Roman'"
     font-size="564px"
     font-weight="400"
     id="tspan520"><tspan
       class="TextPosition"
       x="-8407.1846"
       y="11937.219"
       id="tspan518"><tspan
         fill="#000000"
         stroke="none"
         id="tspan516">1940</tspan></tspan></tspan></text>
 <text
   class="SVGTextShape"
   transform="rotate(-44.9)"
   id="text530"
   x="-11301.092"
   y="-1429.2673"><tspan
     class="TextParagraph"
     font-family="'Latin Modern Roman'"
     font-size="564px"
     font-weight="400"
     id="tspan528"><tspan
       class="TextPosition"
       x="-7380.0913"
       y="12960.732"
       id="tspan526"><tspan
         fill="#000000"
         stroke="none"
         id="tspan524">1943</tspan></tspan></tspan></text>
 <text
   class="SVGTextShape"
   transform="rotate(-44.9)"
   id="text538"
   x="-11723.707"
   y="-406.45941"><tspan
     class="TextParagraph"
     font-family="'Latin Modern Roman'"
     font-size="564px"
     font-weight="400"
     id="tspan536"><tspan
       class="TextPosition"
       x="-6353.707"
       y="13983.541"
       id="tspan534"><tspan
         fill="#000000"
         stroke="none"
         id="tspan532">1946</tspan></tspan></tspan></text>
 <text
   class="SVGTextShape"
   transform="rotate(-44.9)"
   id="text546"
   x="-12146.614"
   y="617.05438"><tspan
     class="TextParagraph"
     font-family="'Latin Modern Roman'"
     font-size="564px"
     font-weight="400"
     id="tspan544"><tspan
       class="TextPosition"
       x="-5326.6143"
       y="15007.055"
       id="tspan542"><tspan
         fill="#000000"
         stroke="none"
         id="tspan540">1949</tspan></tspan></tspan></text>
 <text
   class="SVGTextShape"
   transform="rotate(-44.9)"
   id="text554"
   x="-12569.229"
   y="1639.8623"><tspan
     class="TextParagraph"
     font-family="'Latin Modern Roman'"
     font-size="564px"
     font-weight="400"
     id="tspan552"><tspan
       class="TextPosition"
       x="-4300.23"
       y="16029.862"
       id="tspan550"><tspan
         fill="#000000"
         stroke="none"
         id="tspan548">1952</tspan></tspan></tspan></text>
 <text
   class="SVGTextShape"
   transform="rotate(-44.9)"
   id="text562"
   x="-12992.137"
   y="2663.376"><tspan
     class="TextParagraph"
     font-family="'Latin Modern Roman'"
     font-size="564px"
     font-weight="400"
     id="tspan560"><tspan
       class="TextPosition"
       x="-3273.137"
       y="17053.377"
       id="tspan558"><tspan
         fill="#000000"
         stroke="none"
         id="tspan556">1955</tspan></tspan></tspan></text>
 <text
   class="SVGTextShape"
   transform="rotate(-44.9)"
   id="text570"
   x="-13414.753"
   y="3686.1841"><tspan
     class="TextParagraph"
     font-family="'Latin Modern Roman'"
     font-size="564px"
     font-weight="400"
     id="tspan568"><tspan
       class="TextPosition"
       x="-2246.7527"
       y="18076.184"
       id="tspan566"><tspan
         fill="#000000"
         stroke="none"
         id="tspan564">1958</tspan></tspan></tspan></text>
 <text
   class="SVGTextShape"
   transform="rotate(-44.9)"
   id="text578"
   x="-13837.368"
   y="4708.9917"><tspan
     class="TextParagraph"
     font-family="'Latin Modern Roman'"
     font-size="564px"
     font-weight="400"
     id="tspan576"><tspan
       class="TextPosition"
       x="-1220.3682"
       y="19098.992"
       id="tspan574"><tspan
         fill="#000000"
         stroke="none"
         id="tspan572">1961</tspan></tspan></tspan></text>
 <text
   class="SVGTextShape"
   transform="rotate(-44.9)"
   id="text586"
   x="-14260.275"
   y="5732.5059"><tspan
     class="TextParagraph"
     font-family="'Latin Modern Roman'"
     font-size="564px"
     font-weight="400"
     id="tspan584"><tspan
       class="TextPosition"
       x="-193.27541"
       y="20122.506"
       id="tspan582"><tspan
         fill="#000000"
         stroke="none"
         id="tspan580">1964</tspan></tspan></tspan></text>
 <text
   class="SVGTextShape"
   transform="rotate(-44.9)"
   id="text594"
   x="-14682.891"
   y="6755.3135"><tspan
     class="TextParagraph"
     font-family="'Latin Modern Roman'"
     font-size="564px"
     font-weight="400"
     id="tspan592"><tspan
       class="TextPosition"
       x="833.10901"
       y="21145.314"
       id="tspan590"><tspan
         fill="#000000"
         stroke="none"
         id="tspan588">1967</tspan></tspan></tspan></text>
 <text
   class="SVGTextShape"
   transform="rotate(-44.9)"
   id="text602"
   x="-15105.798"
   y="7778.8271"><tspan
     class="TextParagraph"
     font-family="'Latin Modern Roman'"
     font-size="564px"
     font-weight="400"
     id="tspan600"><tspan
       class="TextPosition"
       x="1860.2018"
       y="22168.828"
       id="tspan598"><tspan
         fill="#000000"
         stroke="none"
         id="tspan596">1970</tspan></tspan></tspan></text>
 <text
   class="SVGTextShape"
   id="text610"><tspan
     class="TextParagraph"
     font-family="'Latin Modern Roman'"
     font-size="564px"
     font-weight="400"
     id="tspan608"><tspan
       class="TextPosition"
       x="1473"
       y="13106"
       id="tspan606"><tspan
         fill="#000000"
         stroke="none"
         id="tspan604">0 PJ</tspan></tspan></tspan></text>
 <text
   class="SVGTextShape"
   id="text618"><tspan
     class="TextParagraph"
     font-family="'Latin Modern Roman'"
     font-size="564px"
     font-weight="400"
     id="tspan616"><tspan
       class="TextPosition"
       x="600"
       y="11869"
       id="tspan614"><tspan
         fill="#000000"
         stroke="none"
         id="tspan612">1000 PJ</tspan></tspan></tspan></text>
 <text
   class="SVGTextShape"
   id="text626"><tspan
     class="TextParagraph"
     font-family="'Latin Modern Roman'"
     font-size="564px"
     font-weight="400"
     id="tspan624"><tspan
       class="TextPosition"
       x="600"
       y="10632"
       id="tspan622"><tspan
         fill="#000000"
         stroke="none"
         id="tspan620">2000 PJ</tspan></tspan></tspan></text>
 <text
   class="SVGTextShape"
   id="text634"><tspan
     class="TextParagraph"
     font-family="'Latin Modern Roman'"
     font-size="564px"
     font-weight="400"
     id="tspan632"><tspan
       class="TextPosition"
       x="600"
       y="9396"
       id="tspan630"><tspan
         fill="#000000"
         stroke="none"
         id="tspan628">3000 PJ</tspan></tspan></tspan></text>
 <text
   class="SVGTextShape"
   id="text642"><tspan
     class="TextParagraph"
     font-family="'Latin Modern Roman'"
     font-size="564px"
     font-weight="400"
     id="tspan640"><tspan
       class="TextPosition"
       x="600"
       y="8159"
       id="tspan638"><tspan
         fill="#000000"
         stroke="none"
         id="tspan636">4000 PJ</tspan></tspan></tspan></text>
 <text
   class="SVGTextShape"
   id="text650"><tspan
     class="TextParagraph"
     font-family="'Latin Modern Roman'"
     font-size="564px"
     font-weight="400"
     id="tspan648"><tspan
       class="TextPosition"
       x="600"
       y="6923"
       id="tspan646"><tspan
         fill="#000000"
         stroke="none"
         id="tspan644">5000 PJ</tspan></tspan></tspan></text>
 <text
   class="SVGTextShape"
   id="text658"><tspan
     class="TextParagraph"
     font-family="'Latin Modern Roman'"
     font-size="564px"
     font-weight="400"
     id="tspan656"><tspan
       class="TextPosition"
       x="600"
       y="5686"
       id="tspan654"><tspan
         fill="#000000"
         stroke="none"
         id="tspan652">6000 PJ</tspan></tspan></tspan></text>
 <text
   class="SVGTextShape"
   id="text666"><tspan
     class="TextParagraph"
     font-family="'Latin Modern Roman'"
     font-size="564px"
     font-weight="400"
     id="tspan664"><tspan
       class="TextPosition"
       x="600"
       y="4449"
       id="tspan662"><tspan
         fill="#000000"
         stroke="none"
         id="tspan660">7000 PJ</tspan></tspan></tspan></text>
 <text
   class="SVGTextShape"
   id="text674"><tspan
     class="TextParagraph"
     font-family="'Latin Modern Roman'"
     font-size="564px"
     font-weight="400"
     id="tspan672"><tspan
       class="TextPosition"
       x="600"
       y="3213"
       id="tspan670"><tspan
         fill="#000000"
         stroke="none"
         id="tspan668">8000 PJ</tspan></tspan></tspan></text>
 <text
   class="SVGTextShape"
   id="text682"><tspan
     class="TextParagraph"
     font-family="'Latin Modern Roman'"
     font-size="564px"
     font-weight="400"
     id="tspan680"><tspan
       class="TextPosition"
       x="600"
       y="1976"
       id="tspan678"><tspan
         fill="#000000"
         stroke="none"
         id="tspan676">9000 PJ</tspan></tspan></tspan></text>
 <text
   class="SVGTextShape"
   id="text690"><tspan
     class="TextParagraph"
     font-family="'Latin Modern Roman'"
     font-size="564px"
     font-weight="400"
     id="tspan688"><tspan
       class="TextPosition"
       x="309"
       y="740"
       id="tspan686"><tspan
         fill="#000000"
         stroke="none"
         id="tspan684">10000 PJ</tspan></tspan></tspan></text>
 <path
   fill="#004586"
   stroke="none"
   d="m 19926,12420 h -800 v -275 h 1600 v 275 z"
   id="path692" />
 <path
   fill="#ff420e"
   stroke="none"
   d="m 19926,11684 h -800 v -275 h 1600 v 275 z"
   id="path694" />
 <path
   fill="#ffd320"
   stroke="none"
   d="m 19926,10948 h -800 v -275 h 1600 v 275 z"
   id="path696" />
 <path
   fill="#579d1c"
   stroke="none"
   d="m 19926,10212 h -800 v -275 h 1600 v 275 z"
   id="path698" />
 <path
   fill="#7e0021"
   stroke="none"
   d="m 19926,9476 h -800 v -275 h 1600 v 275 z"
   id="path700" />
 <path
   fill="#83caff"
   stroke="none"
   d="m 19926,8740 h -800 v -275 h 1600 v 275 z"
   id="path702" />
 <path
   fill="#314004"
   stroke="none"
   d="m 19926,8004 h -800 v -275 h 1600 v 275 z"
   id="path704" />
 <path
   fill="#aecf00"
   stroke="none"
   d="m 19926,7269 h -800 v -275 h 1600 v 275 z"
   id="path706" />
 <path
   fill="#4b1f6f"
   stroke="none"
   d="m 19926,6533 h -800 v -275 h 1600 v 275 z"
   id="path708" />
 <path
   fill="#ff950e"
   stroke="none"
   d="m 19926,5797 h -800 v -275 h 1600 v 275 z"
   id="path710" />
 <path
   fill="#c5000b"
   stroke="none"
   d="m 19926,5061 h -800 v -275 h 1600 v 275 z"
   id="path712" />
 <path
   fill="#0084d1"
   stroke="none"
   d="m 19926,4325 h -800 v -275 h 1600 v 275 z"
   id="path714" />
 <path
   fill="#004586"
   stroke="none"
   d="m 19926,3589 h -800 v -275 h 1600 v 275 z"
   id="path716" />
 <path
   fill="#ff420e"
   stroke="none"
   d="m 19926,2853 h -800 v -275 h 1600 v 275 z"
   id="path718" />
 <path
   fill="#ffd320"
   stroke="none"
   d="m 19926,2117 h -800 v -275 h 1600 v 275 z"
   id="path720" />
 <path
   fill="#579d1c"
   stroke="none"
   d="m 19926,1381 h -800 v -275 h 1600 v 275 z"
   id="path722" />
 <path
   fill="#7e0021"
   stroke="none"
   d="m 19926,645 h -800 V 370 h 1600 v 275 z"
   id="path724" />
 <path
   fill="none"
   stroke="#6e1c46"
   stroke-width="50"
   stroke-linejoin="round"
   stroke-linecap="round"
   stroke-dasharray="1, 200"
   d="m 19126,13018 h 1600"
   id="path726" />
 <path
   fill="none"
   stroke="#d06015"
   stroke-width="50"
   stroke-linejoin="round"
   stroke-linecap="round"
   stroke-dasharray="1, 200"
   d="m 19126,13754 h 1600"
   id="path728" />
 <path
   fill="none"
   stroke="#0fc000"
   stroke-width="50"
   stroke-linejoin="round"
   stroke-linecap="round"
   stroke-dasharray="1, 200"
   d="m 19126,14490 h 1600"
   id="path730" />
 <text
   class="SVGTextShape"
   id="text738"><tspan
     class="TextParagraph"
     font-family="'Latin Modern Roman Caps'"
     font-size="459px"
     font-weight="400"
     id="tspan736"><tspan
       class="TextPosition"
       x="20826"
       y="693"
       id="tspan734"><tspan
         fill="#000000"
         stroke="none"
         id="tspan732">Cooling and cooking (domestic)</tspan></tspan></tspan></text>
 <text
   class="SVGTextShape"
   id="text746"><tspan
     class="TextParagraph"
     font-family="'Latin Modern Roman Caps'"
     font-size="459px"
     font-weight="400"
     id="tspan744"><tspan
       class="TextPosition"
       x="20826"
       y="1429"
       id="tspan742"><tspan
         fill="#000000"
         stroke="none"
         id="tspan740">Cooling equipment (commercial and domestic)</tspan></tspan></tspan></text>
 <text
   class="SVGTextShape"
   id="text754"><tspan
     class="TextParagraph"
     font-family="'Latin Modern Roman Caps'"
     font-size="459px"
     font-weight="400"
     id="tspan752"><tspan
       class="TextPosition"
       x="20826"
       y="2165"
       id="tspan750"><tspan
         fill="#000000"
         stroke="none"
         id="tspan748">Cooling and cooking (commercial)</tspan></tspan></tspan></text>
 <text
   class="SVGTextShape"
   id="text762"><tspan
     class="TextParagraph"
     font-family="'Latin Modern Roman Caps'"
     font-size="459px"
     font-weight="400"
     id="tspan760"><tspan
       class="TextPosition"
       x="20826"
       y="2901"
       id="tspan758"><tspan
         fill="#000000"
         stroke="none"
         id="tspan756">Transportation (creation)</tspan></tspan></tspan></text>
 <text
   class="SVGTextShape"
   id="text770"><tspan
     class="TextParagraph"
     font-family="'Latin Modern Roman Caps'"
     font-size="459px"
     font-weight="400"
     id="tspan768"><tspan
       class="TextPosition"
       x="20826"
       y="3637"
       id="tspan766"><tspan
         fill="#000000"
         stroke="none"
         id="tspan764">Fuels (transportation)</tspan></tspan></tspan></text>
 <text
   class="SVGTextShape"
   id="text778"><tspan
     class="TextParagraph"
     font-family="'Latin Modern Roman Caps'"
     font-size="459px"
     font-weight="400"
     id="tspan776"><tspan
       class="TextPosition"
       x="20826"
       y="4373"
       id="tspan774"><tspan
         fill="#000000"
         stroke="none"
         id="tspan772">Packaging (steel and aluminium)</tspan></tspan></tspan></text>
 <text
   class="SVGTextShape"
   id="text786"><tspan
     class="TextParagraph"
     font-family="'Latin Modern Roman Caps'"
     font-size="459px"
     font-weight="400"
     id="tspan784"><tspan
       class="TextPosition"
       x="20826"
       y="5109"
       id="tspan782"><tspan
         fill="#000000"
         stroke="none"
         id="tspan780">Packaging (glass)</tspan></tspan></tspan></text>
 <text
   class="SVGTextShape"
   id="text794"><tspan
     class="TextParagraph"
     font-family="'Latin Modern Roman Caps'"
     font-size="459px"
     font-weight="400"
     id="tspan792"><tspan
       class="TextPosition"
       x="20826"
       y="5845"
       id="tspan790"><tspan
         fill="#000000"
         stroke="none"
         id="tspan788">Packaging (paper)</tspan></tspan></tspan></text>
 <text
   class="SVGTextShape"
   id="text802"><tspan
     class="TextParagraph"
     font-family="'Latin Modern Roman Caps'"
     font-size="459px"
     font-weight="400"
     id="tspan800"><tspan
       class="TextPosition"
       x="20826"
       y="6581"
       id="tspan798"><tspan
         fill="#000000"
         stroke="none"
         id="tspan796">Food processing (machines)</tspan></tspan></tspan></text>
 <text
   class="SVGTextShape"
   id="text810"><tspan
     class="TextParagraph"
     font-family="'Latin Modern Roman Caps'"
     font-size="459px"
     font-weight="400"
     id="tspan808"><tspan
       class="TextPosition"
       x="20826"
       y="7317"
       id="tspan806"><tspan
         fill="#000000"
         stroke="none"
         id="tspan804">Food processing (industry)</tspan></tspan></tspan></text>
 <text
   class="SVGTextShape"
   id="text818"><tspan
     class="TextParagraph"
     font-family="'Latin Modern Roman Caps'"
     font-size="459px"
     font-weight="400"
     id="tspan816"><tspan
       class="TextPosition"
       x="20826"
       y="8052"
       id="tspan814"><tspan
         fill="#000000"
         stroke="none"
         id="tspan812">Irrigation</tspan></tspan></tspan></text>
 <text
   class="SVGTextShape"
   id="text826"><tspan
     class="TextParagraph"
     font-family="'Latin Modern Roman Caps'"
     font-size="459px"
     font-weight="400"
     id="tspan824"><tspan
       class="TextPosition"
       x="20826"
       y="8788"
       id="tspan822"><tspan
         fill="#000000"
         stroke="none"
         id="tspan820">Tractors</tspan></tspan></tspan></text>
 <text
   class="SVGTextShape"
   id="text834"><tspan
     class="TextParagraph"
     font-family="'Latin Modern Roman Caps'"
     font-size="459px"
     font-weight="400"
     id="tspan832"><tspan
       class="TextPosition"
       x="20826"
       y="9524"
       id="tspan830"><tspan
         fill="#000000"
         stroke="none"
         id="tspan828">Machines (agriculture)</tspan></tspan></tspan></text>
 <text
   class="SVGTextShape"
   id="text842"><tspan
     class="TextParagraph"
     font-family="'Latin Modern Roman Caps'"
     font-size="459px"
     font-weight="400"
     id="tspan840"><tspan
       class="TextPosition"
       x="20826"
       y="10260"
       id="tspan838"><tspan
         fill="#000000"
         stroke="none"
         id="tspan836">Steel (agriculture)</tspan></tspan></tspan></text>
 <text
   class="SVGTextShape"
   id="text850"><tspan
     class="TextParagraph"
     font-family="'Latin Modern Roman Caps'"
     font-size="459px"
     font-weight="400"
     id="tspan848"><tspan
       class="TextPosition"
       x="20826"
       y="10996"
       id="tspan846"><tspan
         fill="#000000"
         stroke="none"
         id="tspan844">Artificial fertilizer</tspan></tspan></tspan></text>
 <text
   class="SVGTextShape"
   id="text858"><tspan
     class="TextParagraph"
     font-family="'Latin Modern Roman Caps'"
     font-size="459px"
     font-weight="400"
     id="tspan856"><tspan
       class="TextPosition"
       x="20826"
       y="11732"
       id="tspan854"><tspan
         fill="#000000"
         stroke="none"
         id="tspan852">Electricity</tspan></tspan></tspan></text>
 <text
   class="SVGTextShape"
   id="text866"><tspan
     class="TextParagraph"
     font-family="'Latin Modern Roman Caps'"
     font-size="459px"
     font-weight="400"
     id="tspan864"><tspan
       class="TextPosition"
       x="20826"
       y="12468"
       id="tspan862"><tspan
         fill="#000000"
         stroke="none"
         id="tspan860">Fuels (direct usages)</tspan></tspan></tspan></text>
 <text
   class="SVGTextShape"
   id="text874"><tspan
     class="TextParagraph"
     font-family="'Latin Modern Roman Caps'"
     font-size="459px"
     font-weight="400"
     id="tspan872"><tspan
       class="TextPosition"
       x="20826"
       y="13204"
       id="tspan870"><tspan
         fill="#000000"
         stroke="none"
         id="tspan868">Commercial and domestic  </tspan></tspan></tspan></text>
 <text
   class="SVGTextShape"
   id="text882"><tspan
     class="TextParagraph"
     font-family="'Latin Modern Roman Caps'"
     font-size="459px"
     font-weight="400"
     id="tspan880"><tspan
       class="TextPosition"
       x="20826"
       y="13940"
       id="tspan878"><tspan
         fill="#000000"
         stroke="none"
         id="tspan876">Food processing industry</tspan></tspan></tspan></text>
 <text
   class="SVGTextShape"
   id="text890"><tspan
     class="TextParagraph"
     font-family="'Latin Modern Roman Caps'"
     font-size="459px"
     font-weight="400"
     id="tspan888"><tspan
       class="TextPosition"
       x="20826"
       y="14676"
       id="tspan886"><tspan
         fill="#000000"
         stroke="none"
         id="tspan884">Farm</tspan></tspan></tspan></text>
</svg>
