<?xml version="1.0" encoding="UTF-8" standalone="no"?>
<!-- Created with Inkscape (http://www.inkscape.org/) -->

<svg
   width="18.573519mm"
   height="13.773576mm"
   viewBox="0 0 18.573519 13.773576"
   version="1.1"
   id="svg9254"
   inkscape:version="1.1.2 (0a00cf5339, 2022-02-04)"
   sodipodi:docname="bloem_cultuur.svg"
   xmlns:inkscape="http://www.inkscape.org/namespaces/inkscape"
   xmlns:sodipodi="http://sodipodi.sourceforge.net/DTD/sodipodi-0.dtd"
   xmlns="http://www.w3.org/2000/svg"
   xmlns:svg="http://www.w3.org/2000/svg">
  <sodipodi:namedview
     id="namedview9256"
     pagecolor="#ffffff"
     bordercolor="#666666"
     borderopacity="1.0"
     inkscape:pageshadow="2"
     inkscape:pageopacity="0.0"
     inkscape:pagecheckerboard="0"
     inkscape:document-units="mm"
     showgrid="false"
     inkscape:zoom="3.4520064"
     inkscape:cx="91.685809"
     inkscape:cy="120.0751"
     inkscape:window-width="1920"
     inkscape:window-height="1024"
     inkscape:window-x="0"
     inkscape:window-y="0"
     inkscape:window-maximized="1"
     inkscape:current-layer="layer1" />
  <defs
     id="defs9251" />
  <g
     inkscape:label="Layer 1"
     inkscape:groupmode="layer"
     id="layer1"
     transform="translate(-10.698007,-6.9979872)">
    <g
       id="g26793"
       transform="matrix(0.00859755,-2.0068119e-4,2.0068119e-4,0.00859755,10.327524,7.0310653)">
      <path
         d="m 795.053,1402.546 c 11.64,3.643 22.905,4.909 32.588,11.143 18.819,12.116 27.572,33.806 21.915,55.211 -4.563,17.264 -23.62,22.383 -36.451,9.934 -4.352,-4.222 -7.45,-9.221 -10.531,-14.316 -28.541,-47.192 -77.62,-54.273 -94.64,-41.475 54.648,4.119 53.411,38.227 42.031,48.989 -5.192,4.911 -21.086,4.927 -30.465,0.099 -5.627,-2.896 -11.863,-9.029 -17.678,-4.148 -6.071,5.095 -3.104,13.506 -1.612,20.487 10.101,47.25 -28.337,53.414 -42.627,48.994 -36.228,-11.207 -8.982,-39.835 -30.297,-38.454 -31.766,2.058 -31.943,-26.12 -59.625,-18.45 -116.954,32.406 -164.41,-59.529 -238.742,-58.069 -17.803,0.349 -9.558,11.98 -12.007,22.938 -9.765,43.678 -75.794,17.813 -55.698,-28.684 9.507,-21.996 -35.153,-12.116 -19.679,-55.997 8.025,-22.756 14.395,-25.918 3.569,-27.323 -46.296,-6.008 -68.487,-11.356 -81.531,-52.777 -10.857,-34.476 -2.628,-58.43 -25.559,-52.545 -2.185,0.561 -4.267,1.519 -6.45,2.091 -12.004,3.144 -20.269,-2.548 -21.051,-14.918 -2.917,-46.158 20.612,-51.66 -3.888,-59.318 -29.323,-9.165 -36.249,-52.62 -38.705,-83.246 C 56.366,928.59 46.441,854.733 81.691,646.764 c 1.21,-7.137 -2.364,-10.674 -9.321,-9.209 -6.954,1.465 -13.815,7.801 -19.549,-4.907 -7.544,-16.719 9.368,-37.946 -6.307,-47.456 -19.378,-11.756 -22.439,-29.458 -5.3,-44.653 9.131,-8.095 33.725,-36.386 37.148,-47.423 4.045,-13.043 4.24,-13.153 -8.365,-15.481 -13.027,-2.406 -8.32,-17.361 -1.796,-25.111 12.645,-15.022 -1.423,-26.738 16.6,-24.322 39.844,5.339 6.946,-25.059 17.585,-52.443 8.46,-21.776 -21.688,-4.116 -29.338,-25.819 -3.301,-9.364 -1.373,-17.011 5.948,-23.588 18.917,-16.997 29.703,5.043 36.337,-2.905 15.081,-18.07 -20.723,-41.494 -18.173,-62.582 3.61,-29.857 30.771,-10.776 37.991,-8.647 11.381,3.355 21.639,-2.542 24.959,-13.992 4.295,-14.809 3.419,-32.52 25.101,-30.546 27.418,2.497 13.038,25.148 7.575,36.143 5.405,0.327 32.953,-22.761 66.233,-6.188 5.927,2.952 7.962,7.212 5.866,14.564 -4.613,16.18 -8.505,32.549 -17.178,47.18 -6.565,11.075 7.649,32.681 10.956,39.954 2.531,5.566 5.667,4.707 9.115,1.286 9.18,-9.107 14.051,-20.18 15.276,-33.064 2.971,-31.243 20.685,-38.063 31.117,-32.325 13.148,7.232 6.048,28.654 -3.616,38.099 -21.473,20.988 -23.917,23.114 -21.776,27.686 2.085,4.452 5.511,1.022 8.136,0.6 30.159,-4.847 59.742,-2.723 88.798,6.749 2.918,0.951 6.073,1.273 8.87,2.468 2.943,1.258 5.655,1.981 7.337,-1.275 3.085,-5.976 -3.125,-8.323 -10.943,-15.113 -26.872,-23.337 0.007,-60.978 29.148,-61.246 18.631,-0.171 31.362,16.739 20.632,36.185 -2.816,5.103 -13.163,17.075 3.832,19.946 94.585,15.978 166.745,-39.707 272.539,-31.615 108.628,8.308 100.177,77.967 125.419,49.138 6.746,-7.705 13.082,-16.821 24.57,-18.208 4.109,-0.496 8.254,-2.284 12.473,1.794 3.546,3.428 21.713,-1.876 24.593,-6.289 38.113,-58.399 80.199,-78.067 132.906,-93.055 7.302,-2.076 6.644,-5.903 4.245,-10.665 -4.876,-9.679 -13.605,-14.8 -23.335,-18.407 -7.579,-2.809 -12.337,18.042 -34.171,13.947 -5.774,-1.083 -12.737,0.792 -17.917,-3.164 -38.284,-29.234 2.513,-71.477 30.388,-56.697 12.046,6.387 26.262,-12.073 17.908,-23.174 -10.285,-13.667 -21.782,3.692 -38.167,11.684 -2.689,1.312 -5.191,0.484 -7.086,0.57 -9.037,0.407 -18.549,2.466 -27.101,-2.583 -23.202,-13.699 -18.147,-49.762 4.598,-62.5 8.883,-4.975 18.096,-4.563 27.79,-5.529 24.878,-2.478 47.336,13.56 65.378,31.034 8.81,8.533 24.656,5.295 30.335,-5.885 1.387,-2.732 -0.699,-1.835 -1.33,-2.499 -13.575,-14.28 -15.212,-40.313 -1.845,-54.934 7.357,-8.047 14.827,-18.227 27.156,-18.735 13.117,-0.541 26.867,-3.612 39.381,1.879 28.406,12.465 39.109,48.256 19.068,71.553 -2.315,2.691 -1.657,3.238 -0.124,5.135 24.608,30.432 37.409,-24.012 81.639,-27.636 13.37,-1.095 28.187,-2.963 41.284,5.865 23.583,15.894 29.843,61.238 -11.772,66.029 -32.695,3.764 -39.873,-28.51 -54.759,-14.905 -5.507,5.033 -6.294,12.185 -2.159,18.019 6.161,8.693 9.521,8.882 19.08,5.466 32.29,-11.539 54.859,28.735 40.421,45.197 -7.506,8.558 -13.65,18.977 -29.902,16.32 -11.466,-1.875 -20.92,-3.427 -27.735,-12.979 -1.807,-2.533 -4.218,-2.28 -5.898,-1.333 -8.394,4.73 -18.781,6.52 -23.105,17.232 -7.116,17.629 9.725,8.587 48.41,26.687 44.34,20.746 78.425,57.649 90.015,81.264 1.311,2.671 3.625,2.704 5.794,2.352 6.903,-1.122 13.612,1.681 20.994,-1.115 12.514,-4.739 25.829,8.472 33.451,19.357 14.015,20.014 24.794,-11.936 49.759,-27.295 35.955,-22.121 79.693,-24.711 119.943,-23.23 71.813,2.642 141.893,46.095 227.069,31.988 20.943,-3.469 3.177,-18.708 1.682,-28.827 -6.642,-44.991 67.747,-30.622 63.736,14.288 -1.919,21.482 -26.486,24.711 -21.431,34.395 3.822,7.321 14.094,-4.317 54.508,-9.433 17.298,-2.19 34.268,-1.349 51.277,1.849 2.183,0.41 4.566,3.162 6.78,-0.023 2.803,-4.032 1.087,-6.772 -20.43,-27.15 -10.652,-10.088 -18.47,-31.9 -3.792,-40.088 9.967,-5.56 26.833,4.716 29.229,26.479 1.448,13.159 4.098,25.941 12.961,36.498 6.625,7.892 9.307,7.295 14.543,-1.399 10.439,-17.33 13.316,-34.285 1.804,-52.555 -6.299,-9.998 -7.411,-22.229 -10.906,-33.431 -5.404,-17.326 38.483,-26.409 66.119,-8.563 1.81,1.169 3.336,3.155 6.422,2.52 -0.528,-6.916 -13.567,-17.07 -6.051,-30.178 3.787,-6.604 10.75,-6.134 16.415,-5.966 12.937,0.383 16.433,4.698 19.552,17.474 1.358,5.565 3.018,36.677 33.706,24.986 8.569,-3.264 16.9,-11.424 26.27,-2.815 23.408,21.508 -22.815,51.068 -14.533,70.224 3.275,7.575 5.043,8.806 12.485,5.178 31.076,-15.149 48.252,34.375 16.576,39.311 -27.412,4.272 -2.601,3.871 -15.946,53.617 -2.558,9.535 3.323,15.875 14.317,13.655 14.235,-2.875 15.785,-2.153 16.708,12.311 0.607,9.512 8.229,8.787 11.516,22.915 1.969,8.462 -1.544,13.91 -10.006,13.296 -8.507,-0.617 -9.013,3.769 -7.776,9.816 0.724,3.539 1.475,7.497 3.552,10.262 9.917,13.203 17.389,28.365 31.222,38.482 15.992,11.696 22.702,37.335 1.996,47.317 -21.109,10.176 -2.245,30.388 -9.409,47.843 -4.846,11.809 -11.775,8.008 -20.256,6.43 -11.922,-2.218 -11.366,1.646 -1.325,52.174 28.706,144.441 12.935,390.252 -3.959,433.608 -5.928,15.215 -13.724,28.816 -31.831,32.916 -8.043,1.821 -10.028,7.594 -6.45,15.973 5.468,12.806 6.804,26.142 6.17,39.8 -0.701,15.109 -8.406,20.774 -22.943,17.134 -16.068,-4.021 -21.343,-2.334 -23.294,14.735 -7.186,62.874 -28.74,77.088 -53.309,82.413 -40.022,8.673 -44.123,4.616 -39.368,15.293 11.261,25.285 19.046,42.554 -3.698,57.667 -11.819,7.854 -11.82,7.854 -6.469,21.5 4.663,11.89 0.692,29.716 -8.408,37.746 -13.325,11.759 -48.606,15.569 -49.641,-20.375 -0.422,-14.62 -6.132,-18.38 -21.007,-15.893 -81.689,13.657 -110.747,81.544 -219.379,60.31 -19.019,-3.718 -23.26,-8.219 -34.116,1.453 -29.63,26.396 -45.979,5.466 -44.736,20.857 3.426,42.426 -54.233,44.598 -64.89,8.046 -5.299,-18.175 10.682,-38.131 -0.916,-45.949 -10.043,-6.77 -10.834,10.755 -41.044,7.791 -14.643,-1.437 -24.819,-37.672 16.343,-49.248 5.759,-1.62 11.749,-3.252 19.509,-2.585 -18.675,-14.921 -69.916,-2.732 -94.605,40.127 -3.083,5.351 -6.166,10.69 -10.771,15.103 -13.076,12.53 -32.794,8.141 -36.027,-9.54 -3.303,-18.063 -2.511,-36.47 13.453,-50 13.197,-11.184 22.92,-12.136 39.749,-16.346 -13.077,-11.911 -83.933,9.506 -69.542,70.329 4.573,19.33 31.623,36.302 49.978,23.591 4.145,-2.87 6.832,-6.425 7.672,-10.45 5.174,-24.811 35.711,-24.865 47.249,-2.594 20.953,40.444 -24.276,97.309 -76.219,78.649 -17.627,-6.332 -23.173,-21.618 -31.766,-14.545 -3.276,2.697 -6.002,5.679 -3.984,10.685 4.593,11.392 4.952,22.716 -4.637,31.657 -18.742,17.475 -59.699,18.954 -62.54,-17.398 -1.678,-21.474 4.323,-57.04 -31.631,-74.606 -28.4,-13.875 -69.427,-0.155 -81.515,33.992 -6.468,18.27 21.497,51.597 27.06,33.107 3.684,-12.245 10.679,-16.513 23.805,-15.142 49.794,5.198 28.106,68.442 -8.057,70.443 -5.62,0.311 -11.516,2.236 -17.199,1.5 -55.233,-7.148 -56.501,-48.851 -79.531,-52.972 -29.355,-5.253 -33.343,52.88 -91.311,52.919 -8.531,0.01 -17.92,-0.376 -25.122,-5.32 -64.046,-43.96 13.137,-96.386 30.258,-49.058 2.116,5.849 28.718,-5.463 24.988,-33.858 -5.397,-41.089 -94.012,-67.254 -110.798,2.07 -1.798,7.424 1.057,15.705 -4.337,22.403 -0.806,1 12.435,40.272 -25.886,43.36 -16.819,1.355 -48.159,-7.815 -40.896,-37.465 2.787,-11.375 1.138,-14.326 -3.685,-17.252 -7.656,-4.644 -15.097,9.974 -30.182,15.465 -45.492,16.559 -85.123,-24.876 -81.087,-62.266 4.119,-38.158 42.808,-39.647 49.482,-20.463 3.937,11.319 8.976,20.904 22.706,21.32 56.068,1.699 51.469,-95.279 -11.849,-99.064 -6.541,-0.396 -13.11,-3.796 -21.038,0.674 z M 414.006,1139.372 c 128.93,90.899 240.056,-7.259 407.612,39.849 83.05,23.35 83.349,45.52 98.643,36.86 2.537,-1.436 4.194,-4.254 2.734,-6.4 -6.323,-9.293 -5.62,-20.581 -9.411,-30.638 C 862.57,1043.69 839.304,998.107 793.873,951.77 738.213,895 663.084,862.016 584.788,855.681 c -85.387,-6.909 -132.007,37.311 -225.693,24.944 -67.778,-8.947 -70.158,-36.756 -77.96,-14.839 -5.232,14.704 15.446,190.799 132.871,273.586 z m 1212.046,-282.35 c -80.054,7.942 -159.571,45.578 -216.412,113.785 -35.768,42.92 -52.086,78.879 -94.92,187.214 -6.537,16.533 -13.982,33.054 -14.161,51.423 -0.075,7.734 6.11,11.622 12.276,7.083 20.268,-14.92 84.552,-47.374 183.844,-51.816 30.987,-1.386 86.725,8.62 169.766,15.292 149.26,11.994 247.34,-130.228 270.783,-277.474 4.309,-27.067 8.195,-54.807 -15.133,-40.595 -48.204,29.367 -120.298,23.403 -177.276,8.447 -45.94,-12.06 -70.848,-18.112 -118.767,-13.359 z m -650.082,392.52 c -0.749,31.222 30.089,61.132 69.308,101.621 20.483,21.147 33.241,-20.916 61.911,-13.027 10.655,2.933 17.385,-9.508 42.628,12.899 8.072,7.165 13.185,8.562 21.202,1.862 11.389,-9.518 24.074,-17.161 32.694,-30.366 9.128,-13.984 21.683,-25.716 30.832,-39.903 15.541,-24.099 12.495,-55.872 -6.992,-72.402 -15.175,-12.873 -36.002,-6.843 -36.338,18.32 -0.132,9.873 6.468,13.12 14.131,16.447 13.826,6.003 20.846,15.957 15.548,32.64 -3.123,9.834 -10.193,10.435 -20.334,10.77 -14.863,0.49 -23.455,-6.051 -31.492,-16.231 -13.153,-16.66 -5.427,-38.615 -21.459,-30.447 -21.053,10.726 -32.085,-14.215 -26.883,-38.15 2.741,-12.612 10.576,-22.839 19.878,-31.91 13.941,-13.596 13.747,-14.031 -4.056,-22.273 -46.84,-21.686 -8.81,-97.788 15.563,-62.506 11.74,16.994 3.445,29.2 17.16,40.039 10.017,7.917 22.922,8.593 34.323,12.877 13.757,5.17 25.396,-8.088 4.564,-17.575 -8.142,-3.708 -14.341,-9.749 -20.859,-15.343 -57.604,-49.44 -57.403,-148.185 -77.115,-148.553 -5.191,-0.097 -6.63,5.025 -8.471,9.141 -24.566,54.909 -20.991,102.972 -77.091,146.671 -3.975,3.096 -32.062,17.801 -22.197,23.336 5.079,2.849 12.494,3.851 15.907,2.198 8.958,-4.339 18.816,-5.2 27.835,-9.349 16.713,-7.689 13.517,-24.972 18.745,-37.406 10.395,-24.726 34.301,-16.313 39.285,3.005 5.432,21.053 -0.811,49.129 -27.316,57.062 -27.958,8.368 36.075,24.933 22.369,74.454 -4.2,15.176 -13.7,20.235 -27.808,13.832 -17.981,-8.161 -3.091,33.087 -41.232,47.088 -5.545,2.036 -9.798,-3.219 -14.458,-0.161 -6.62,4.344 -20.978,-8.775 -18.823,-21.871 4.941,-30.017 41.564,-15.592 31.252,-47.393 -9.383,-28.936 -50.578,-15.326 -52.211,30.604 z m 277.26,-525.603 c 0.011,-6.54 -1.468,-11.974 -8.089,-15.326 -27.253,-13.794 -111.78,154.774 -90.144,209.532 3.441,8.709 1.454,18.95 3.753,28.419 0.245,1.01 20.234,123.93 59.972,136.589 5.71,1.819 10.982,-0.099 14.376,-4.347 5.562,-6.962 -3.632,-15.666 -9.563,-21.082 -45.95,-41.963 -43.907,-126.675 -47.307,-158.166 -1.002,-9.286 1.618,-19.398 1.741,-28.398 0.126,-9.248 3.319,-17.521 4.319,-26.175 1.171,-10.136 6.878,-20.072 13.34,-28.686 34.394,-45.846 -0.982,-32.703 39.968,-65.663 8.617,-6.935 17.788,-13.787 17.634,-26.697 z m -191.567,125.527 c 1.056,-3.387 -15.811,-64.445 -60.27,-124.383 -18.575,-25.042 -31.655,-16.519 -33.23,-8.334 -3.5,18.192 2.999,22.573 22.38,38.603 28.134,23.269 9.767,33.709 29.525,54.794 19.375,20.677 22.898,64.173 24.491,78.352 0.489,4.357 -2.958,7.965 -1.453,12.371 3.215,9.418 1.224,10.065 -6.063,66.23 -7.824,60.302 -29.975,81.333 -45.314,95.83 -13.559,12.815 0.721,23.369 5.01,22.582 5.612,-1.031 12.589,-3.117 15.81,-7.256 31.652,-40.684 46.125,-99.919 50.385,-141.019 0.431,-4.155 6.527,-6.22 3.277,-11.035 -2.297,-3.404 -1.197,-7.18 -1.181,-10.774 0.09,-21.009 3.729,-42.191 -3.32,-62.835 -0.35,-1.016 -0.047,-2.254 -0.047,-3.126 z m -177.598,443.536 c 3.387,-18.171 -8.238,-29.482 -25.859,-37.304 -22.231,-9.868 -44.642,-19.345 -68.622,-23.871 -14.763,-2.787 -29.288,-8.359 -44.733,-5.978 -2.764,0.426 -7.082,-1.743 -8.004,2.559 -0.697,3.253 2.572,5.375 4.745,7.628 32.069,33.254 103.722,50.459 133.389,106.492 2.179,4.115 5.741,10.2 11.516,7.531 5.114,-2.362 3.013,-8.816 2.062,-13.203 -2.925,-13.5 -4.956,-27.032 -4.494,-43.854 z m 585.227,-67.339 c -19.577,0.724 -65.609,9.64 -114.853,34.142 -26.825,13.347 -12.536,30.437 -23.043,80.692 -0.695,3.323 -1.719,8.401 2.63,9.754 4.367,1.359 7.368,-1.935 9.922,-5.9 18.473,-28.671 25.293,-39.508 87.494,-75.65 85.429,-49.637 41.276,-42.149 37.85,-43.038 z M 836.635,562.75 c 78.296,27.177 165.373,79.426 194.453,123.428 13.878,20.999 20.802,35.19 26.7,31.279 2.009,-1.333 2.271,-3.412 1.122,-4.825 -8.682,-10.671 -9.565,-43.376 -13.411,-58.621 -4.361,-17.287 -10.523,-34.235 -11.263,-52.304 -0.228,-5.581 -3.94,-7.564 -8.249,-3.154 -14.17,14.501 -32.307,17.141 -51.189,16.22 -10.368,-0.506 -19.124,-4.891 -25.898,-13.754 -17.801,-23.289 1.013,-48.919 -18.724,-41.691 -16.109,5.899 -32.793,14.671 -52.44,11.86 -14.049,-2.012 -26.543,-10.025 -41.101,-8.438 z m 548.065,-2.674 c -34.192,9.342 -44.941,13.138 -58.338,10.904 -41.6,-6.935 -45.689,-28.963 -47.1,6.968 -0.856,21.802 -15.552,37.135 -36.997,36.895 -50.206,-0.562 -48.885,-30.779 -56.23,-13.28 -3.167,7.545 -0.14,15.594 -3.147,23.137 -11.265,28.257 -10.064,59.41 -20.14,87.967 -1.966,5.572 4.126,8.715 6.385,3.086 2.683,-6.683 8.185,-11.364 12.067,-17.209 15.156,-22.821 20.41,-34.443 74.62,-72.291 34.449,-24.052 71.598,-42.914 110.961,-57.554 6.133,-2.282 12.995,-3.059 17.919,-8.623 z M 569.869,797.81 c -1.942,10.737 17.613,17.582 28.38,14.174 35.26,-11.161 54.683,3.632 127.207,36.768 13.384,6.115 26.138,-1.781 -52.461,-49.249 -104.237,-62.952 -99.093,-61.171 -109.198,-62.103 -23.566,-2.172 -34.823,30.643 1.32,33.957 8.017,0.735 11.378,7.743 8.363,15.446 -1.405,3.589 -4.656,6.621 -3.611,11.007 z m 1058.482,14.97 c 19.071,0.421 26.033,-9.337 18.588,-26.049 -3.395,-7.62 0.481,-14.479 8.999,-15.767 2.771,-0.419 5.666,-0.212 8.367,-0.862 30.403,-7.31 9.687,-48.834 -26.026,-25.639 -48.668,31.61 -162.579,92.695 -152.607,105.174 5.742,7.186 84.379,-43.414 112.851,-41.403 9.999,0.707 19.889,2.976 29.828,4.546 z M 334.323,1288.663 c 33.812,-16.891 62.812,-56.799 38.538,-44.448 -57.827,29.425 -130.286,49.302 -181.381,9.098 -2.124,-1.671 -4.427,-4.113 -7.39,-2.551 -3.425,1.806 -4.1,5.262 -3.426,8.855 2.933,15.624 9.69,28.777 24.644,36.096 29.746,14.558 82.452,16.211 129.015,-7.05 z m 1679.419,7.619 c 15.901,-7.061 22.44,-20.329 25.832,-35.988 0.7,-3.231 0.729,-7.03 -2.926,-9.065 -6.006,-3.343 -7.058,5.204 -27.347,14.207 -52.002,23.073 -113.236,4.839 -163.129,-22.041 -2.22,-1.196 -4.882,-3.28 -6.975,-1.182 -2.654,2.66 0.36,5.473 1.761,7.44 42.005,58.956 128.88,66.125 172.784,46.629 z m -288.097,91.163 c 0,3.183 0.318,4.695 -0.054,6.012 -1.701,6.007 -0.501,13.957 -7.876,16.63 -15.183,5.502 -27.605,-25.841 -36.562,-19.309 -7.101,5.178 16.55,59.717 40.627,51.592 11.986,-4.045 24.463,-6.136 36.265,-10.588 18.663,-7.04 30.488,-23.719 47.186,-33.556 2.787,-1.642 11.906,-17.185 -2.058,-25.146 -14.854,-8.468 -21.372,10.509 -30.442,19.609 -12.635,12.676 -28.155,3.887 -29.145,-11.906 -1.21,-19.318 15.007,-28.345 0.206,-37.246 -10.048,-6.043 -25.73,-0.143 -21.2,18.001 2.289,9.17 0.188,18.675 3.053,25.907 z M 477.376,1375.643 c 0.014,22.127 -17.789,31.34 -32.443,13.943 -8.722,-10.355 -15.273,-25.602 -29.54,-15.123 -8.97,6.588 -7.317,20.016 3.931,27.505 6.581,4.381 13.32,8.327 18.96,14.063 21.513,21.879 41.36,17.787 55.231,24.877 30.626,15.653 61.761,-61.517 39.913,-49.658 -10.552,5.729 -18.616,22.663 -30.264,19.112 -6.919,-2.109 -8.527,-12.402 -8.453,-19.637 0.291,-28.414 10.097,-40.142 -2.835,-47.381 -10.527,-5.893 -25.252,0.996 -20.035,14.727 2.46,6.474 4.193,13.226 5.535,17.572 z m 592.298,-814.397 c 0.265,1.005 21.921,83.511 22.847,86.393 3.006,9.354 25.613,14.259 32.541,7.514 3.009,-2.929 10.105,-32.777 25.548,-93.727 -27.199,18.723 -53.476,18.003 -80.936,-0.18 z M 634.76,1379.361 c 0.272,7.112 3.243,9.08 9.958,6.385 35.708,-14.333 53.557,-42.925 61.391,-78.777 5.742,-26.277 -42.555,-20.112 -59.34,5.343 -13.953,21.16 -13.048,39.925 -12.009,67.049 z m 897.571,-89.141 c -12.389,-1.152 -20.058,5.032 -17.498,19.421 5.264,29.585 25.833,61.62 60.612,75.973 6.225,2.569 9.754,0.656 10.194,-6.21 3.023,-47.177 -6.223,-84.805 -53.308,-89.184 z M 1314.788,422.173 c 13.49,9.301 25.65,17.066 31.335,31.044 5.359,13.175 6.696,26.487 -3.317,37.884 -19.978,22.737 -43.203,17.218 -67.423,-1.143 -19.749,-14.971 -4.488,38.173 46.566,42.187 18.632,1.465 35.415,-6.48 45.658,-24.103 21.915,-37.702 -13.461,-82.462 -52.819,-85.869 z m -410.112,0.906 c -3.67,-1.725 -3.641,-1.645 -12.511,1.543 -69.983,25.153 -51.29,112.905 6.172,108.266 6.044,-0.488 11.39,-3.789 17.265,-5.345 16.228,-4.298 29.174,-13.515 36.083,-29.441 1.245,-2.87 4.172,-6.788 -0.213,-9.721 -5.813,-3.887 -5.738,3.941 -26.478,13.823 -40.266,19.188 -89.037,-37.054 -20.318,-79.125 z M 2003.228,258.563 c 24.231,20.328 -3.832,36.634 6.669,59.295 1.766,3.812 3.229,7.763 4.919,11.613 8.774,19.992 1.829,40.925 -15.329,49.062 -1.534,0.728 -2.969,1.735 -3.36,3.887 1.781,0.643 3.615,1.894 5.424,1.859 22.141,-0.425 27.871,41.491 -5.292,54.743 -10.199,4.075 -24.438,-0.834 -25.929,9.424 -0.524,3.603 3.278,4.011 5.869,4.867 26.468,8.746 58.073,-40.29 63.262,-47.296 20.841,-28.137 5.16,-55.893 -19.658,-93.831 -18.773,-28.697 21.547,-21.014 11.062,-33.575 -7.454,-8.93 -16.137,-16.298 -27.637,-20.048 z m -1783.96,-1.436 c -13.586,4.657 -21.264,12.966 -29.322,20.783 -3.879,3.763 -2.091,6.558 1.56,8.637 4.804,2.734 16.768,1.528 14.11,14.736 -3.142,15.619 -47.371,61.568 -31.29,92.81 10.961,21.294 25.682,39.648 45.15,53.79 13.443,9.765 30.901,7.171 30.77,0.889 -0.12,-5.744 -6.53,-7.651 -12.275,-7.623 -35.89,0.179 -54.454,-49.793 -17.888,-56.732 1.436,-0.272 3.09,-0.259 3.401,-1.883 0.528,-2.758 -1.557,-3.943 -3.653,-4.926 -9.993,-4.687 -14.303,-13.197 -17.331,-23.378 -6.567,-22.077 18.471,-35.693 7.258,-63.037 -5.439,-13.265 -2.615,-22.944 9.51,-34.066 z m 722.756,102.122 c 1.128,14.508 2.476,28.904 20.028,33.636 0.273,0.074 0.686,0.002 0.819,0.169 4.893,6.16 8.522,-0.059 11.991,-1.771 3.8,-1.874 6.055,-5.326 3.372,-10.546 -4.312,-8.392 6.81,-11.506 1.952,-17.258 -1.96,-2.32 -2.856,-6.614 0.378,-9.095 2.591,-1.987 4.814,-5.806 9.492,-3.213 4.033,2.236 8.303,-0.921 12.716,-0.74 4.475,0.184 4.306,-6.771 -0.654,-12.634 -10.757,-12.714 -14.553,-31.188 2.918,-41.987 2.907,-1.797 6.676,-3.017 3.891,-7.368 -6.966,-10.886 -15.342,1.185 -25.98,8.722 -8.789,6.227 -18.899,12.08 -25.537,19.479 -17.897,19.952 -16.673,26.065 -15.386,42.606 z m 298.016,-3.895 c -0.39,9.375 4.074,18.278 1.496,27.607 -1.337,4.838 8.807,15.358 12.597,12.835 6.86,-4.566 15.588,-6.447 19.484,-15.618 22.19,-52.228 -25.02,-72.935 -52.369,-94.915 -4.72,-3.793 -7.483,-0.017 -9.605,3.174 -6.55,9.852 21.488,7.217 14.32,36.088 -3.61,14.543 -14.792,14.208 -11.112,24.728 2.052,5.864 5.094,-0.618 7.545,0.908 1.965,1.225 17.97,-2.654 17.644,5.193 z m 309.76,43.725 c -16.613,-11.314 -38.598,81.628 -61.909,146.942 -6.266,17.556 -24.388,49.878 -11.234,55.693 11.16,4.934 16.141,-15.827 68.83,-166.039 9.173,-26.149 12.428,-31.07 4.313,-36.596 z M 744.471,575.396 c -34.273,-87.146 -32.935,-99.676 -53.93,-154.315 -9.28,-24.151 -22.209,-28.061 -23.584,-16.589 -1.07,8.928 -3.804,-0.665 58.372,173.371 2.34,6.55 5.552,12.82 8.75,19.019 4.467,8.661 14.784,7.13 13.323,-3.373 -0.979,-7.036 2.503,-4.295 -2.931,-18.113 z M 569.8,1328.424 c -9.668,-34.525 -8.987,-29.998 -36.012,-67.59 -24.537,-34.131 -50.294,-19.893 -50.157,-3.775 0.134,15.681 2.582,14.875 55.471,62.745 6.704,6.068 13.966,11.403 21.802,15.916 6.238,3.593 8.958,2.074 8.896,-7.296 z m 1158.55,-85.44 c -24.291,-14.592 -46.752,25.051 -52.557,32.36 -26.237,33.033 -32.876,73.683 -14.91,59.301 9.678,-7.748 -5.246,8.911 66.208,-56.369 13.473,-12.307 12.228,-28.703 1.259,-35.292 z M 1444.525,852.607 c 9.847,5.6 19.015,-13.592 22.968,-18.285 34.08,-40.462 75.694,-57.538 138.091,-88.575 3.351,-1.667 9.042,-3.738 7.843,-7.52 -3.42,-10.79 -112.054,27.969 -159.953,78.099 -10.209,10.686 -21.807,28.968 -8.949,36.281 z M 774.62,825.813 C 739.451,774.091 610.884,727.57 607.215,738.088 c -1.56,4.472 5.252,6.297 9.032,8.193 67.407,33.797 117.649,55.809 144.039,98.932 9.923,16.215 32.62,7.493 14.334,-19.4 z M 584.378,349.373 c 18.673,3.204 89.907,12.558 134.22,34.288 9.668,4.741 14.244,-4.221 10.999,-12.566 -9.964,-25.618 -21.984,-43.31 -87.414,-34.617 -18.901,2.511 -37.317,6.804 -57.805,12.895 z m 1050.308,0.714 c -4.493,-3.385 -59.55,-20.877 -109.376,-13.381 -31.335,4.714 -47.757,57.642 -23.56,47.017 39.967,-17.551 91.991,-29.085 132.936,-33.636 z m -330.438,334.789 c -17.961,-29.911 -32.267,-17.159 -28.871,-9.243 22.613,52.708 44.486,65.63 57.546,97.651 6.726,16.491 17.701,22.151 24.994,18.346 18.798,-9.809 -29.104,-65.844 -53.669,-106.754 z M 873.413,791.063 c 3.692,-2.059 6.992,-4.805 8.804,-8.885 18.697,-42.083 59.214,-79.086 61.392,-110.146 0.474,-6.754 -1.087,-8.438 -7.442,-6.167 -13.215,4.722 -16.176,14.762 -33.842,40.672 -14.54,21.327 -29.741,42.227 -41.307,65.432 -6.964,13.972 0.62,25.662 12.395,19.094 z m 591.276,-25.089 c 6.13,3.799 5.716,-6.37 49.339,-25.002 36.824,-15.728 105.564,-36.062 68.737,-38.722 -15.74,-1.138 -76.466,7.592 -98.774,20.633 -19.318,11.292 -29.253,36.923 -19.302,43.091 z M 625.888,706.169 c 18.915,16.535 84.023,28.538 123.755,58.85 8.15,6.218 11.473,-4.604 8.902,-13.582 -9.817,-34.277 -44.894,-40.348 -106.085,-48.983 -8.256,-1.167 -17.526,-2.765 -26.572,3.715 z m 195.367,77.159 c -33.808,-82.111 -46.486,-148.075 -59.653,-142.119 -5.136,2.323 -5.829,7.033 -3.81,12.305 49.079,128.14 47.403,149.246 59.014,146.813 7.176,-1.503 7.306,-10.06 4.449,-16.999 z m 576.636,6.912 c -1.399,4.818 1.101,8.914 5.841,10.094 5.531,1.377 7.802,-3.668 9.291,-7.852 54.852,-154.153 54.523,-145.934 46.08,-151.132 -12.99,-7.997 -25.114,57.593 -57.96,136.306 -1.626,3.895 -3.575,7.622 -3.252,12.584 z m -181.352,110.943 c 1.208,5.401 -2.138,11.549 3.656,14.597 4.835,2.544 7.927,-2.637 11.688,-4.478 13.942,-6.825 27.582,-6.032 40.881,1.392 2.194,1.225 5.03,1.876 6.498,3.308 3.874,3.781 5.447,-0.817 7.4,-1.8 6.035,-3.036 -5.321,-12.796 -7.803,-13.907 -32.524,-14.555 -10.617,-58.312 -40.073,-41.946 -17.348,9.638 -20.6,25.989 -22.247,42.834 z m -242.931,-45.8 c -22.351,1.587 0.235,29.268 -32.42,45.573 -2.838,1.417 -4.897,3.717 -7.068,5.981 -3.342,3.486 -1.502,5.815 1.076,8.473 2.185,2.254 2.888,3.332 6.72,0.743 16.58,-11.202 34.043,-14.138 51.707,-1.655 1,0.707 9.642,4.797 9.895,-2.961 1.216,-37.403 -12.7,-52.083 -29.91,-56.154 z m 1017.107,382.281 c 7.118,-9.771 17.105,-15.248 27.072,-21.156 35.214,-20.872 -30.254,-69.586 -29.193,-43.347 0.208,5.132 -0.83,9.882 -2.582,14.849 -20.367,57.763 -4.106,61.744 4.703,49.654 z m -1749.707,-27.67 c -1.796,-12.004 -8.961,-22.593 -9.221,-34.989 -0.194,-9.263 -3.954,-11.979 -12.115,-7.927 -32.318,16.046 -31.547,40.28 -19.824,47.517 36.049,22.256 34.323,31.849 41.805,27.696 5.254,-2.917 2.611,-10.536 -0.645,-32.297 z M 1877.296,825.46 c 2.51,-6.573 -2.594,-9.447 -7.148,-12.62 -25.718,-17.92 -36.849,-38.776 -56.533,-53.217 -22.21,-16.294 -23.974,23.262 -5.969,36.537 5.151,3.798 8.507,-2.418 12.865,-3.457 16.121,-3.844 26.476,11.92 18.615,24.027 -1.185,1.825 -11.088,11.592 -6.265,16.866 2.976,3.254 6.859,2.535 10.175,0.826 14.12,-7.28 29.669,3.062 34.26,-8.962 z M 420.986,757.665 c -2.107,-4.5 -5.093,-5.378 -9.254,-1.943 -34.803,28.722 -39.716,44.199 -63.868,58.717 -3.632,2.183 -6.688,6.237 -4.75,10.833 5.131,12.174 19.398,2.528 31.759,8.071 3.951,1.772 8.378,4.751 12.214,-0.043 4.196,-5.244 -0.114,-8.779 -3.043,-12.508 -5.882,-7.489 -8.071,-15.121 -2.088,-22.239 17.142,-20.396 23.807,11.616 36.866,-8.35 7.613,-11.642 7.24,-21.695 2.164,-32.538 z m 1519.434,21.283 c -22.735,-6.329 -46.396,-7.186 -69.482,-11.469 -7.038,-1.305 -8.909,8.237 3.252,13.811 14.291,6.552 16.863,16.233 29.999,28.207 15.267,13.917 24.451,-3.366 38.534,-6.47 10.443,-2.303 12.334,-20.004 -2.303,-24.079 z M 351.334,777.692 c 5.966,-2.65 5.428,-12.955 -4.572,-10.112 -24.404,6.939 -77.508,2.819 -77.303,24.564 0.057,6.001 3.734,10.54 9.286,11.558 6.209,1.138 10.663,4.818 15.596,7.872 23.209,14.366 29.688,-21.756 56.993,-33.882 z M 765.208,355.806 c 33.872,50.036 20.618,34.427 37.126,80.787 1.867,5.244 7.624,6.193 9.368,1.641 7.503,-19.586 27.463,-21.209 20.642,-30.599 -6.811,-9.377 -36.887,-53.822 -67.136,-51.829 z m 684.438,-0.322 c -28.666,9.889 -39.594,22.389 -61.885,52.483 -6.653,8.981 11.293,8.243 20.968,30.236 1.398,3.178 6.553,7.621 11.412,-7.98 8.091,-25.983 12.411,-47.292 30.608,-67.463 1.405,-1.557 2.608,-3.748 2.846,-5.769 0.204,-1.734 -2.06,-1.254 -3.949,-1.507 z M 1285.13,1399.488 c -1.952,-25.225 -22.739,-41.623 -43.578,-38.767 -6.697,0.918 -5.569,5.282 -5.744,9.043 -0.418,9.002 25.759,22.895 28.517,49.962 1.75,17.18 1.801,21.787 7.48,23.706 2.937,0.992 4.69,-1.976 6.377,-4.235 7.687,-10.29 8.248,-22.9 6.948,-39.709 z m -350.076,6.939 c 0.325,10.119 -0.887,17.57 2.618,24.442 2.615,5.127 4.959,13.13 10.896,12.112 6.577,-1.129 7.03,-9.172 7.132,-15.621 0.45,-28.426 15.839,-38.051 25.724,-50.532 8.222,-10.383 0.636,-17.88 -7.924,-16.736 -32.73,4.373 -40.15,32.013 -38.446,46.335 z m 51.17,22.68 c -2.206,15.568 14.241,11.264 27.517,16.107 10.343,3.773 19.178,10.285 29.206,14.602 4.803,2.068 4.486,0.102 4.926,-3.018 0.69,-4.886 -2.733,-8.08 -4.884,-11.668 -8.484,-14.148 -16.921,-28.344 -26.009,-42.104 -12.481,-18.897 -31.717,6.019 -30.756,26.081 z m 227.074,-32.399 c -4.73,-1.003 -7.537,2.779 -9.694,6.219 -34.419,54.893 -32.591,53.52 -30.399,56.001 2.788,3.156 6.573,-0.27 9.101,-1.604 14.404,-7.603 28.624,-15.212 45.351,-16.76 14.666,-1.357 5.019,-27.842 -2.409,-37.633 -2.877,-3.792 -6.48,-6.213 -11.95,-6.223 z M 856.799,958.596 c -3.801,7.84 10.807,2.632 10.193,12.871 -1.117,18.626 50.23,-13.321 34.279,-40.313 -5.413,-9.16 -10.189,-18.549 -18.088,-25.896 -5.98,-5.562 -9.954,-0.556 -9.496,4.288 1.433,15.15 2.667,23.308 -11.069,37.259 -2.905,2.95 -7.076,5.94 -5.819,11.791 z m 459.639,-12.082 c -2.501,11.01 19.411,28.52 29.533,30.289 12.654,2.211 2.117,-9.763 13.051,-12.225 5.495,-1.237 6.891,-7.051 3.331,-11.955 -10.29,-14.174 -18.632,-13.326 -15.702,-43.759 0.382,-3.967 -3.646,-8.877 -8.743,-4.178 -11.246,10.367 -19.286,22.527 -21.47,41.828 z m -384.432,149.072 c 3.342,-4.868 -2.287,-7.193 -7.937,-18.109 -12.585,-24.315 -9.806,-49.229 -2.387,-74.182 1.207,-4.06 2.381,-8.272 -1.504,-10.583 -14.132,-8.407 -39.561,40.279 -9.915,97.921 5.732,11.145 17.365,11.331 21.743,4.953 z m 358.832,-9.326 c -2.988,3.781 -4.544,7.066 -0.795,10.842 12.791,12.885 31.844,-16.573 33.074,-56.427 0.958,-31.037 -10.48,-52.893 -21.912,-47.839 -5.517,2.439 -3.065,8.136 -1.918,12.141 7.767,27.126 8.89,59.343 -8.449,81.283 z m -978.137,301.971 c -0.264,0 2.066,0.322 4.275,-0.056 9.03,-1.547 12.055,-8.194 6.688,-15.458 -26.604,-36.004 -50.039,-26.389 -56.341,-12.566 -5.727,12.56 1.644,28.735 13.511,27.674 9.928,-0.888 19.562,0.68 31.867,0.406 z m 88.375,-53.732 c -0.776,1.834 -0.178,4.003 1.774,5.262 1.949,1.257 3.045,-0.611 4.418,-1.361 35.577,-19.439 28.439,-6.052 51.165,-17.464 11.481,-5.765 11.96,-19.605 1.163,-26.599 -26.684,-17.286 -46.108,10.827 -58.52,40.162 z m 1533.789,52.249 c 22.698,4.045 23.457,-22.586 14.852,-31.46 -8.068,-8.32 -20.446,-9.377 -31.639,-3.201 -10.245,5.653 -16.661,14.865 -23.376,23.867 -4.982,6.679 5.223,12.758 12.439,12.302 14.075,-0.891 23.942,-2.182 27.724,-1.508 z m -181.655,-79.259 c 0.109,22.566 35.471,13.418 58.756,30.162 11.981,8.615 9.486,-8.924 -9.553,-33.613 -21.506,-27.887 -49.27,-10.437 -49.203,3.451 z m -141.402,-57.48 c -31.136,29.032 5.852,74.066 20.682,47.138 16.998,-30.868 -0.709,-65.762 -20.682,-47.138 z M 518.499,757.07 c -1.758,-3.427 -3.856,-13.536 -25.949,-17.711 -11.799,-2.23 -20.232,5.62 -29.422,9.837 -3.809,1.748 -7.804,7.455 -12.363,10.483 -3.254,2.16 -6.694,4.304 -5.642,8.354 2.927,11.263 16.424,-0.205 27.485,10.389 10.792,10.337 10.387,-14.735 35.233,-11.687 6.417,0.787 8.564,-4.191 10.658,-9.665 z m 96.062,615.865 c 0.64,-22.209 -15.538,-34.63 -19.834,-32.195 -2.336,1.324 -2.411,4.264 -2.722,6.856 -5.439,45.335 -18.197,52.683 -24.002,70.085 -0.675,2.022 -2.998,4.191 -0.507,6.045 2.163,1.609 4.41,-0.487 6.166,-1.56 20.047,-12.254 41.75,-25.609 40.899,-49.231 z m -30.714,-116.594 c -9.813,25.795 8.744,60.973 24.78,45.472 33.142,-32.033 -12.126,-78.735 -24.78,-45.472 z M 1733.578,739.405 c -11.328,-0.376 -20.017,3.008 -27.362,9.809 -6.409,5.935 -2.666,18.698 6.958,17.466 22.849,-2.925 23.936,20.897 33.797,12.091 12.28,-10.965 24.689,0.3 28.619,-10.481 1.52,-4.17 -2.325,-7.226 -5.494,-8.204 -9.084,-2.804 -11.709,-14.407 -23.089,-15.227 -3.747,-0.269 -8.702,-5.919 -13.429,-5.454 z m -122.633,652.239 c 7.953,14.28 21.522,21.799 34.779,29.744 2.249,1.348 4.703,4.653 7.393,1.991 2.478,-2.453 -0.245,-5.473 -1.499,-7.695 -12.566,-22.257 -22.36,-45.355 -23.628,-71.371 -0.768,-15.769 -34.926,15.227 -17.045,47.331 z M 128.778,1103.175 c 3.212,1.414 7.125,-0.993 11.203,-1.811 3.922,-0.786 7.95,-2.899 6.902,-7.669 -1.234,-5.619 -5.282,-3.877 -9.438,-2.769 -12.106,3.229 -19.283,-3.414 -18.074,-16.032 0.849,-8.864 12.014,-11.113 9.45,-16.964 -4.026,-9.188 -12.1,1.738 -23.598,-10.415 -11.249,-11.889 -13.605,-14.228 -17.01,-12.099 -2.851,1.783 -2.207,5.337 -0.781,7.665 15.156,24.731 1.89,59.938 41.346,60.094 z m 1993.882,-23.672 c 2.323,-13.068 4.159,-26.024 10.98,-37.682 1.334,-2.279 0.724,-4.218 -1.277,-5.863 -3.549,-2.919 -5.5,-0.578 -17.635,11.902 -11.095,11.411 -18.485,1.39 -22.302,9.337 -3.897,8.114 16.385,11.945 5.899,29.968 -8.034,13.809 -21.169,-4.658 -24.511,5.831 -1.406,4.411 1.821,7.229 5.495,8.157 21.721,5.486 39.461,0.24 43.351,-21.65 z M 750.034,491.827 c 12.823,18.824 1.51,25.364 18.61,49.424 5.145,7.239 9.546,2.041 9.419,-3.064 -0.031,-1.253 -3.821,-33.638 -5.613,-45.85 -2.703,-18.42 -6.41,-33.849 -18.078,-30.305 -6.782,2.06 -21.425,4.712 -4.338,29.795 z m 700.889,-15.954 c -10.734,63.155 -10.196,67.314 -4.575,68.85 6.13,1.675 14.666,-20.027 15.97,-27.728 2.031,-12 4.688,-23.434 12.682,-33.078 14.9,-17.974 -19.528,-34.804 -24.077,-8.044 z M 449.65,729.381 c 8.011,0.806 21.655,-11.357 32.863,-13.907 31.149,-7.087 41.794,11.041 48.248,1.762 3.607,-5.186 -5.408,-11.218 -11.743,-13.768 -54.473,-21.923 -93.397,23.495 -69.368,25.913 z m 1318.402,-0.008 c 8.485,0.116 11.161,-3.853 8.795,-10.364 -11.909,-32.784 -95.07,-21.072 -86.872,-2.255 2.327,5.339 6.536,2.89 10.578,1.468 17.688,-6.222 34.995,-6.815 51.701,3.56 5.387,3.345 10.871,6.972 15.798,7.591 z m -624.72,667.646 c 2.428,-0.946 5.672,1.423 6.787,-2.19 0.971,-3.145 -0.776,-5.366 -3.131,-7.268 -39.095,-31.577 -78.797,-1.633 -76.831,7.132 1.151,5.133 12.412,-0.602 20.765,0.771 17.55,2.884 35.254,-3.397 52.41,1.555 z M 735.268,1289.165 c -16.111,-1.749 -6.604,21.522 -11.863,33.325 -1.235,2.772 -3.321,5.967 0.155,8.407 7.995,5.611 11.981,-7.485 43.4,-14.666 17.42,-3.981 -10.069,-23.766 -31.692,-27.066 z m 716.845,26.151 c 13.083,4.172 25.833,8.76 37.54,16.118 3.403,2.14 10.999,1.108 7.889,-8.244 -2.372,-7.131 -4.264,-14.247 -2.727,-22.08 5.948,-30.331 -63.777,7.485 -42.702,14.206 z m 453.198,-105.058 c 2.754,9.808 19.505,20.329 29.5,18.635 17.739,-3.005 19.587,-28.487 2.106,-29.416 -12.725,-0.676 -22.421,-27.444 -30.259,-2.473 -0.748,2.384 -3.285,6.352 -1.347,13.254 z m -1589.887,-5.141 c 0.545,-3.571 -1.307,-7.253 -2.475,-10.881 -6.229,-19.351 -17.478,3.808 -31.432,6.135 -18.943,3.159 -9.055,33.441 11.21,27.554 14.585,-4.238 22.885,-11.813 22.697,-22.808 z M 675.651,1455.4 c -0.796,-4.488 0.908,-12.012 -7.087,-12.265 -61.509,-1.948 -59.58,8.801 -48.706,12.815 13.141,4.85 26.279,9.773 39.662,13.876 9.619,2.95 16.18,-3.058 16.131,-14.426 z m 881.232,14.946 c 15.001,-3.518 29.524,-8.542 43.785,-14.316 2.39,-0.968 5.886,-1.862 5.221,-5.646 -1.457,-8.284 -39.317,-7.478 -46.723,-7.467 -12.549,0.019 -13.273,0.267 -14.201,12.173 -0.757,9.717 5.976,16.157 11.918,15.256 z M 1052.308,483.371 c -6.469,-0.244 -13.757,5.85 -12.756,10.532 2.771,12.971 11.175,29.713 15.819,17.221 3.438,-9.247 7.277,-27.07 29.863,-31.112 4.107,-0.735 8.588,-3.5 7.229,-6.847 -4.186,-10.31 -4.703,-17.51 -11.714,-17.039 -6.504,0.437 -1.874,1.863 -11.415,16.377 -4.205,6.396 -9.761,10.861 -17.026,10.868 z M 107.261,991.235 c 0.139,11.293 17.569,32.397 28.826,34.903 5.614,1.249 9.534,-2.898 6.63,-8.14 -13.655,-24.647 -6.499,-42.547 -22.83,-42.018 -5.378,0.174 -12.695,9.608 -12.626,15.255 z m 2005.94,-0.464 c -0.124,-6.26 -6.31,-14.016 -12.169,-14.462 -17.288,-1.316 -9.152,17.055 -23.615,42.095 -2.526,4.373 0.846,8.475 5.652,7.834 11.746,-1.566 30.369,-23.487 30.132,-35.467 z M 1129.781,472.35 c -0.908,16.685 15.234,-4.35 31.989,29.458 2.353,4.748 1.563,13.509 7.689,13.277 5.732,-0.217 7.081,-8.705 9.417,-13.868 4.77,-10.543 1.211,-16.025 -10.564,-17.793 -17.193,-2.582 -15.046,-11.894 -24.916,-23.753 -1.915,-2.3 -5.344,-6.527 -8.623,-1.236 -2.458,3.966 -5.266,8.025 -4.992,13.915 z M 827.264,884.446 c -9.821,-16.392 -35.86,13.936 -27.569,32.892 1.622,3.709 3.486,7.18 8.608,6.265 14.548,-2.599 29.778,-21.101 18.961,-39.157 z m 579.307,-2.332 c -16.386,-9.235 -27.335,22.527 -3.719,37.193 3.886,2.413 8.325,6.076 13.145,3.792 9.734,-4.613 9.407,-30.37 -9.426,-40.985 z m 464.232,-489.92 c 15.765,5.054 9.627,-1.394 41.016,10.07 24.582,8.978 36.129,-18.998 16.491,-20.994 -19.913,-2.024 -39.069,1.296 -57.507,10.924 z M 352.197,391.402 c -20.947,-8.89 -40.353,-12.263 -60.503,-9.996 -14.79,1.664 -11.559,23.759 10.555,22.251 6.906,-0.471 12.967,-3.634 19.221,-5.843 9.268,-3.273 19.379,-1.76 30.727,-6.412 z m 11.607,928.587 c -14.748,7.428 -7.838,19.594 0.228,43.67 0.84,2.509 1.426,5.834 5.155,5.855 3.406,0.019 6.061,-1.756 7.487,-4.731 13.896,-28.993 -1.064,-50.74 -12.87,-44.794 z m -76.08,-867.963 c 6.014,-3.236 12.936,3.056 49.967,-22.277 1.971,-1.348 5.576,-1.797 4.623,-5.069 -2.815,-9.669 -32.108,9.109 -56.203,7.839 -5.467,-0.288 -11.003,3.174 -11.537,10.024 -0.359,4.611 7.024,9.663 13.15,9.483 z m 1591.379,-24.463 c 16.56,11.155 33.225,22.416 53.824,24.116 5.324,0.439 12.035,-1.818 12.72,-8.842 0.697,-7.142 -5.646,-8.707 -10.921,-10.523 0,0 -15.544,0.962 -33.651,-6.014 -19.768,-7.618 -26.606,-1.859 -21.972,1.263 z m -39.429,915.915 c -0.306,7.683 -0.494,15.472 4.571,21.852 2.498,3.147 7.288,7.849 9.958,2.092 5.719,-12.33 11.593,-25.094 9.646,-39.411 -0.757,-5.565 -5.736,-7.587 -10.141,-9.197 -4.74,-1.732 -7.697,1.995 -10.329,5.236 -4.683,5.769 -3.657,12.738 -3.705,19.428 z m -927.1,-894.604 c -14.451,7.012 -8.277,27.036 7.972,22.197 6.074,-1.809 37.368,-15.347 28.759,-23.444 -8.555,-8.047 -11.152,-11.166 -36.731,1.247 z m -7.862,891.474 c 0,6.435 -0.392,12.153 0.22,17.762 0.781,7.157 6.337,7.259 8.008,0.356 3.547,-14.654 7.734,-29.07 13.254,-43.169 5.833,-14.898 -18.553,-23.699 -18.278,-12.795 0.327,13.008 -5.761,25.432 -3.204,37.846 z m 390.306,-23.263 c 13.228,32.354 11.043,46.946 16.536,46.386 9.673,-0.984 2.057,-52.326 0.894,-61.188 -1.406,-10.716 -24.423,-2.304 -17.43,14.802 z m -407.773,223.686 c -2,17.965 14.604,30.515 14.188,14.283 -1.119,-43.585 24.336,-43.23 13.883,-54.784 -3.228,-3.568 -4.741,-0.441 -6.67,0.542 -16.419,8.363 -19.73,23.77 -21.401,39.959 z M 1285.156,440.504 c -11.822,-1.699 -15.955,14.552 -10.146,17.791 8.476,4.726 16.489,10.73 26.097,13.009 12.441,2.952 20.326,-13.122 9.181,-21.162 -7.394,-5.333 -16.786,-6.384 -25.132,-9.638 z m 26.267,1059.96 c -6.221,-2.574 -7.699,0.399 -8.032,5.484 -0.197,3.012 1.692,5.145 3.457,7.438 21.456,27.881 5.167,56.48 19.354,46.67 13.735,-9.498 6.694,-50.705 -14.779,-59.592 z M 1498.861,415.653 c -5.328,-0.728 -11.568,-2.342 -16.011,-0.369 -8.397,3.729 -8.884,10.575 -3.117,17.788 2.802,3.504 5.053,9.908 8.096,10.256 6.566,0.751 2.576,-7.742 6.502,-10.904 8.267,-6.661 7.016,-16.432 4.53,-16.771 z m -778.84,4.944 c -0.682,6.162 4.5,9.391 7.133,13.805 1.789,3 0.374,8.596 4.579,8.908 4.153,0.309 4.792,-5.573 7.976,-7.857 1.473,-1.057 1.907,-3.517 3.35,-4.667 3.96,-3.16 2.114,-6.33 0.583,-9.685 -4.001,-8.769 -11.53,-6.161 -18.491,-6.065 -4.202,0.058 -5.604,1.745 -5.13,5.561 z m 1116.408,787.668 c 35.139,8.708 35.322,15.642 32.589,-7.71 -1.453,-12.413 -9.753,-2.113 -23.276,0.11 -3.765,0.618 -7.474,2.433 -9.313,7.6 z m -1481.095,8.829 c 22.445,-9.434 32.804,-6.535 25.511,-13.594 -4.015,-3.886 -9.519,-3.087 -14.254,-4.379 -4.305,-1.174 -7.704,-6.673 -12.77,-3.73 -5.244,3.046 -0.79,9.22 -3.482,13.311 -0.688,1.047 -1.652,11.186 4.995,8.392 z M 1185.973,177.626 c -3.259,-2.592 -3.226,-8.672 -8.929,-9.439 -3.603,-0.485 -14.326,8.346 -14.719,11.924 -0.311,2.831 9.171,14.4 11.87,14.484 2.195,0.067 11.638,-13.17 11.778,-16.969 z M 86.201,922.237 c 8.296,-2.706 25.138,-19.582 12.911,-27.145 -4.557,-2.818 -10.252,0.349 -12.516,6.368 -1.954,5.194 -1.267,10.982 -4.29,16.049 -1.84,3.084 1.197,4.186 3.895,4.728 z m 2030.784,-17.966 c 9.404,21.176 24.405,19.418 21.277,13.998 -3.408,-5.905 -2.048,-12.817 -5.428,-18.517 -6.337,-10.685 -18.867,-2.279 -15.849,4.519 z M 1037.087,178.921 c 0.526,6.633 3.425,12.538 9.316,15.407 3.134,1.527 10.137,-8.527 9.981,-13.613 -0.348,-11.318 -20.706,-19.568 -19.297,-1.794 z m 225.657,894.125 c 0.847,1.248 0.205,4.717 0.587,8.039 0.276,2.397 1.883,3.923 3.872,1.521 16.63,-20.085 12.258,-38.943 2.214,-29.395 -5.165,4.909 -8.793,10.469 -6.673,19.835 z m -714.883,154.758 c -3.029,0.663 -7.901,-1.918 -9.632,2.213 -1.489,3.553 2.434,6.352 4.529,9.231 1.304,1.792 2.156,3.907 3.409,5.743 4.817,7.061 17.873,-5.26 16.676,-10.609 -1.317,-5.878 -6.348,-6.578 -14.982,-6.578 z m 409.024,-146.177 c -0.825,-9.662 5.648,-21.031 -5.868,-28.35 -1.767,-1.123 -1.652,-5.485 -5.511,-3.267 -12.154,6.984 12.442,44.078 11.379,31.617 z m 716.469,146.184 c -22.412,-1.867 -17.538,15.539 -3.515,19.327 4.805,1.298 5.242,-5.364 8.718,-8.958 2.164,-2.238 4.907,-4.958 3.845,-7.86 -1.465,-4.004 -5.859,-2.122 -9.048,-2.509 z M 220.445,1100.101 c -2.987,3.713 -1.106,6.607 1.557,9.41 6.039,6.357 0.058,9.782 5.059,10.541 2.947,0.447 4.735,-1.927 6.047,-4.014 11.676,-18.573 -4.284,-26.35 -12.663,-15.937 z m 1764.731,11.648 c 0.798,4.335 3.467,7.594 7.417,8.148 5.703,0.799 0.452,-4.317 6.544,-11.002 5.067,-5.56 -0.055,-15.183 -11.315,-12.46 -7.27,1.758 -2.938,13.727 -2.646,15.314 z M 190.074,510.511 c 3.915,-0.696 7.769,-0.75 11.053,-2.145 3.182,-1.352 8.604,-0.852 8.501,-6.189 -0.073,-3.766 -9.414,-8.686 -13.608,-7.709 -4.965,1.156 -13.73,7.492 -11.72,12.325 1.07,2.576 3.302,3.697 5.774,3.718 z m 1845.72,-2.687 c 2.199,-3.725 -5.241,-16.472 -17.947,-12.228 -3.253,1.086 -6.471,3.404 -6.798,6.821 -0.502,5.254 21.687,10.589 24.745,5.407 z m -1085.53,641.455 c 0.221,-7.911 0.259,-7.816 -6.886,-4.997 -4.434,1.749 -7.543,-3.007 -11.023,3.39 -3.008,5.529 9.899,7.822 9.948,17.292 0.007,1.445 4.375,3.227 4.548,-0.247 0.266,-5.327 3.814,-9.946 3.413,-15.438 z m 327.187,17.631 c 1.47,-5.774 3.073,-10.037 7.695,-12.663 2.331,-1.324 3.698,-3.642 2.469,-6.918 -2.62,-6.983 -9.324,0.46 -12.183,-3.996 -3.785,-5.899 -4.509,0.128 -4.954,1.521 -2.737,8.576 2.264,14.76 6.973,22.056 z m -5.923,-346.63 c 10.375,-2.44 3.591,-15.466 -4.352,-11.978 -3.513,1.543 -6.592,5.116 -10.079,5.437 -5.344,0.493 -4.29,4.902 -4.477,6.871 -0.566,5.971 16.754,0.176 18.908,-0.33 z m -309.795,3.02 c 1.226,-0.247 9.908,1.027 3.809,-6.97 -3.216,-4.218 -16.98,-13.762 -21.157,-4.921 -5.194,10.993 13.941,10.49 17.348,11.891 z m -11.354,-74.38 c -0.835,-5.634 -6.303,-4.798 -9.897,-5.812 -4.053,-1.144 -9.482,5.6 -9.186,10.864 0.754,13.442 20.098,1.796 19.083,-5.052 z M 971.88,110.679 c -0.71,-5.711 -3.178,-9.559 -7.619,-11.08 -3.254,-1.115 -10.88,6.103 -10.097,9.404 1.037,4.375 3.084,8.893 8.478,8.901 5.037,0.007 6.745,-4.786 9.238,-7.225 z m 166.681,38.016 c 4.374,0.72 6.878,-1.574 8.042,-4.971 2.455,-7.161 -6.393,-6.1 -10.319,-9.405 -3.017,-2.54 -6.197,-6.165 -9.892,-2.441 -4.142,4.174 2.242,5.67 3.659,8.213 1.93,3.46 2.647,9.149 8.51,8.604 z M 526.093,1337.576 c -2.541,5.846 1.557,10.949 -0.436,16.231 -4.159,11.02 17.635,8.43 13.198,-1.208 -2.759,-5.994 -5.189,-12.515 -12.762,-15.023 z m 1168.37,0.176 c -8.583,2.483 -11.133,9.513 -12.809,16.466 -2.109,8.752 15.374,8.465 12.94,2.227 -2.477,-6.348 1.958,-12.066 -0.131,-18.693 z M 905.477,793.862 c 5.833,0.018 24.57,6.747 23.927,-4.444 -0.229,-3.985 -2.542,-5.429 -6.712,-5.66 -7.559,-0.42 -12.818,2.392 -17.215,10.104 z m 409.695,-0.579 c -4.873,-6.274 -9.279,-9.902 -16.4,-9.512 -4.304,0.236 -7.457,1.307 -7.555,5.911 -0.22,10.441 15.578,5.044 23.955,3.601 z m -48.623,-684.997 c -1.487,-4.904 -6.239,-7.656 -10.318,-8.361 -8.76,-1.512 -9.182,17.292 0.672,17.825 5.303,0.288 8.188,-4.021 9.646,-9.464 z m 22.078,645.008 c -0.32,-5.765 -3.068,-9.923 -9.077,-10.181 -9.741,-0.418 -9.598,15.992 2.708,16.899 4.889,0.36 6.793,-1.976 6.369,-6.718 z M 1081.766,148.69 c 6.043,-2.403 14.14,-14.202 10.76,-17.531 -3.364,-3.312 -5.219,3.492 -14.674,5.664 -3.407,0.783 -4.997,2.865 -3.787,6.078 1.028,2.734 1.867,6.226 7.701,5.789 z m 488.438,1101.66 c 0.23,-6.492 -3.273,-9.597 -8.052,-9.592 -12.571,0.013 -12.063,14.125 3.134,15.861 4.78,0.546 4.939,-3.58 4.918,-6.269 z m -914.323,6.219 c 14.206,-2.232 14.975,-14.99 2.576,-15.714 -10.4,-0.608 -10.784,17.004 -2.576,15.714 z M 995.568,506.257 c -3.639,0.247 -8.744,3.429 -10.318,8.41 -0.5,1.582 11.887,8.3 14.629,7.833 6.691,-1.138 4.329,-16.831 -4.311,-16.243 z m 257.501,269.093 c -6.845,-3.917 -9.683,1.722 -12.561,5.817 -2.091,2.975 -7.009,6.345 -3.932,10.061 2.114,2.553 5.546,-2.032 8.56,-2.998 8.532,-2.733 15.422,-8.595 7.933,-12.88 z m -282.09,-1.58 c -4.744,1.139 -9.935,5.354 -4.203,10.127 4.347,3.62 9.793,5.083 14.785,7.438 1.659,0.783 2.62,0.314 2.976,-1.464 0.618,-3.085 -9.813,-15.817 -13.558,-16.101 z m 245.932,-257.305 c -0.338,2.817 0.872,5.855 3.905,4.274 4.674,-2.436 13.206,1.399 13.953,-6.17 0.524,-5.311 -5.919,-5.94 -10.462,-6.125 -5.192,-0.211 -7.782,2.54 -7.396,8.021 z m 758.463,-128.741 c -3.139,2.042 -10.427,-0.154 -10.276,6.415 0.123,5.353 6.673,8.361 10.46,7.825 5.088,-0.72 1.375,-7.668 3.749,-11.415 0.914,-1.442 -0.527,-3.776 -3.933,-2.825 z m -1731.21,-0.376 c -2.387,0.252 -4.093,1.797 -2.566,4.087 2.306,3.457 -2.346,10.227 3.617,10.62 4.214,0.278 10.19,-3.271 9.969,-8.537 -0.234,-5.543 -6.639,-4.556 -11.02,-6.17 z m 1843.294,131.576 c 9.433,-1.83 7.968,-11.478 -0.65,-11.61 -3.134,-0.048 -5.87,0.599 -6.013,4.243 -0.179,4.555 3.637,5.807 6.663,7.367 z m -704.681,303.283 c 5.095,10.556 16.601,18.206 6.344,29.969 11.284,-8.788 8.854,-21.645 -6.344,-29.969 z M 133.342,507.348 c -4.267,-0.864 -6.428,2.586 -6.508,5.648 -0.215,8.134 12.474,7.289 12.712,-0.493 0.127,-4.155 -2.288,-5.353 -6.204,-5.155 z m 697.108,344.41 c -3.43,-9.033 -4.192,-17.174 4.666,-23.412 1.321,-0.93 1.243,-2.37 0.186,-3.708 -3.597,-4.553 -19.577,13.336 -4.852,27.12 z m 1048.751,464.138 c 2.294,1.389 0.259,7.12 4.292,6.782 4.863,-0.407 8.35,-14.787 0.322,-14.453 -4.206,0.175 -4.163,3.676 -4.614,7.671 z m -1542.384,7.601 c 3.492,-4.489 6.328,-8.716 2.825,-13.826 -1.321,-1.928 -3.906,-2.546 -5.793,-0.185 -4.583,5.731 0.126,9.423 2.968,14.011 z m -80.406,-177.805 c -3.387,1.1 -4.165,3.336 -3.658,5.506 0.703,3.01 0.408,7.636 4.551,7.757 2.93,0.085 6.045,-3.333 5.168,-6.35 -0.799,-2.745 -4.067,-4.77 -6.061,-6.913 z m 1707.821,0.103 c -2.115,2.096 -5.728,3.486 -6.133,7.043 -0.346,3.041 2.632,5.957 4.966,5.924 4.103,-0.057 4.029,-4.521 4.776,-7.556 0.589,-2.392 -0.419,-4.367 -3.609,-5.411 z"
         id="path26791" />
    </g>
  </g>
</svg>
