<?xml version="1.0" encoding="UTF-8" standalone="no"?>
<!-- Created with Inkscape (http://www.inkscape.org/) -->

<svg
   width="20.183851mm"
   height="27.001181mm"
   viewBox="0 0 20.183851 27.001181"
   version="1.1"
   id="svg1868"
   inkscape:version="1.1.2 (0a00cf5339, 2022-02-04)"
   sodipodi:docname="bloem_economie.svg"
   xmlns:inkscape="http://www.inkscape.org/namespaces/inkscape"
   xmlns:sodipodi="http://sodipodi.sourceforge.net/DTD/sodipodi-0.dtd"
   xmlns="http://www.w3.org/2000/svg"
   xmlns:svg="http://www.w3.org/2000/svg">
  <sodipodi:namedview
     id="namedview1870"
     pagecolor="#ffffff"
     bordercolor="#666666"
     borderopacity="1.0"
     inkscape:pageshadow="2"
     inkscape:pageopacity="0.0"
     inkscape:pagecheckerboard="0"
     inkscape:document-units="mm"
     showgrid="false"
     inkscape:zoom="3.4520064"
     inkscape:cx="74.594299"
     inkscape:cy="76.042732"
     inkscape:window-width="1920"
     inkscape:window-height="1024"
     inkscape:window-x="0"
     inkscape:window-y="0"
     inkscape:window-maximized="1"
     inkscape:current-layer="layer1" />
  <defs
     id="defs1865" />
  <g
     inkscape:label="Layer 1"
     inkscape:groupmode="layer"
     id="layer1"
     transform="translate(-62.896891,-77.273231)">
    <path
       id="path2100"
       style="fill:#000000;fill-rule:evenodd;stroke:#000000;stroke-width:0.0800153"
       d="m 70.191396,77.313748 c -2.647839,-0.0092 -4.775651,2.173544 -5.351115,4.99036 l -1.473292,-0.0068 -0.408868,0.927685 1.752421,0.0081 c -0.01452,0.186872 -0.023,0.375481 -0.0239,0.565833 -9.85e-4,0.208284 0.0083,0.414036 0.02537,0.618125 l -1.354652,-0.0062 -0.36802,0.956049 1.866786,0.0086 c 0.622251,2.793297 2.896134,4.863484 5.587495,4.875851 1.314522,0.006 2.686284,-0.556157 3.844549,-1.468472 l -0.0071,-1.40933 c -0.895196,1.247278 -2.275918,1.899909 -3.83285,1.892758 -2.221029,-0.0102 -4.070288,-1.607251 -4.653074,-3.886496 l 6.609314,0.03036 0.343284,-0.956165 -7.117214,-0.03269 c -0.01866,-0.202395 -0.02803,-0.409002 -0.02707,-0.618136 8.45e-4,-0.191194 0.01074,-0.380662 0.0265,-0.565819 l 7.553376,0.0347 0.367892,-0.927883 -7.776181,-0.03571 c 0.541636,-2.328704 2.31275,-3.976572 4.560241,-3.966251 1.555239,0.0071 3.022885,0.685675 3.951766,1.949865 l 0.376088,-1.03797 c -1.233687,-1.06499 -2.774959,-1.882995 -4.323143,-1.937046 -0.04946,-0.0011 -0.09896,-0.0035 -0.148511,-0.0037 z" />
    <g
       id="g1329"
       transform="matrix(0.09252812,0.00338764,-0.00338764,0.09252812,76.539633,77.191002)">
      <path
         d="M 59.2,69.7 C 55.6,67.6 51.8,65.7 48.1,64 35.4,58 16.1,56.2 14.5,36.9 12.9,17.6 37.3,11.4 53.3,17.9 c 0,0 -8.7,8.9 0.8,14.6 9.8,5.7 16.2,-6.8 11.4,-12.8 C 53.2,4.1 20,11.3 8.8,26.8 -1.3,40.7 0.1,59.4 17.4,69.7 c 3.6,2.1 7.4,4 11.1,5.7 12.7,6 32,7.8 33.6,27.1 1.6,19.3 -22.8,25.5 -38.8,19 0,0 8.7,-8.9 -0.8,-14.6 -9.8,-5.7 -16.2,6.8 -11.4,12.8 12.4,15.5 45.5,8.4 56.7,-7.1 C 77.9,98.7 76.5,80 59.2,69.7 Z"
         id="path1306" />
      <g
         id="g1316">
        <g
           id="g1310">
          <rect
             x="40.599998"
             y="2.3"
             width="4.8000002"
             height="134.89999"
             id="rect1308" />
        </g>
        <g
           id="g1314">
          <rect
             x="31.1"
             y="2.3"
             width="4.8000002"
             height="134.89999"
             id="rect1312" />
        </g>
      </g>
    </g>
    <text
       id="text3365"
       y="97.14238 97.14238"
       x="75.456955 75.456955"
       style="font-style:normal;font-variant:normal;font-weight:400;font-size:0.679603px;line-height:0%;font-family:Calibri;text-align:start;letter-spacing:0px;word-spacing:0px;text-anchor:start;fill:#000000;fill-opacity:1;stroke:none;stroke-width:0.0566338"
       xml:space="preserve"
       transform="matrix(0.93130912,-4.3368413e-4,0.00462214,1.0737552,0,0)"><tspan
         id="tspan3367"
         y="97.14238 97.14238"
         x="75.456955 75.456955"
         sodipodi:role="line"
         style="font-size:23.0687px;line-height:1.25;stroke-width:0.0566338"><tspan
           id="tspan3369"
           style="font-style:normal;font-variant:normal;font-weight:400;font-family:Calibri;fill:#000000;stroke-width:0.0566338"
           dy="0 0"
           dx="0 0">¥</tspan><tspan
           id="tspan3371"
           style="font-style:normal;font-variant:normal;font-weight:400;font-family:Calibri;fill:#000000;stroke-width:0.0566338"
           dy="0 0"
           dx="0 0"> </tspan></tspan></text>
  </g>
</svg>
