<?xml version="1.0" encoding="UTF-8" standalone="no"?>
<!-- Created with Inkscape (http://www.inkscape.org/) -->

<svg
   width="23.923904mm"
   height="22.51968mm"
   viewBox="0 0 23.923904 22.51968"
   version="1.1"
   id="svg6301"
   inkscape:version="1.1.2 (0a00cf5339, 2022-02-04)"
   sodipodi:docname="bloem_gezondheid.svg"
   xmlns:inkscape="http://www.inkscape.org/namespaces/inkscape"
   xmlns:sodipodi="http://sodipodi.sourceforge.net/DTD/sodipodi-0.dtd"
   xmlns="http://www.w3.org/2000/svg"
   xmlns:svg="http://www.w3.org/2000/svg">
  <sodipodi:namedview
     id="namedview6303"
     pagecolor="#ffffff"
     bordercolor="#666666"
     borderopacity="1.0"
     inkscape:pageshadow="2"
     inkscape:pageopacity="0.0"
     inkscape:pagecheckerboard="0"
     inkscape:document-units="mm"
     showgrid="false"
     inkscape:zoom="4.8818743"
     inkscape:cx="43.528364"
     inkscape:cy="-33.900914"
     inkscape:window-width="1920"
     inkscape:window-height="1024"
     inkscape:window-x="0"
     inkscape:window-y="0"
     inkscape:window-maximized="1"
     inkscape:current-layer="layer1" />
  <defs
     id="defs6298" />
  <g
     inkscape:label="Layer 1"
     inkscape:groupmode="layer"
     id="layer1"
     transform="translate(-80.779971,-264.63341)">
    <g
       id="g2992"
       transform="matrix(0.05993741,-1.2535242e-4,1.2535242e-4,0.05993741,80.777315,264.65843)">
      <g
         id="Brain_Silhouette"
         transform="translate(-360.98633,-92.319664)" />
      <g
         id="layer2-1"
         inkscape:label="Layer 2"
         style="display:inline"
         transform="translate(-360.98633,-92.319664)">
        <path
           id="rect1387"
           style="opacity:1;fill:#000000;fill-opacity:1;stroke:none;stroke-width:19.648"
           d="m 624.73633,113.64453 c -2.0951,-0.0165 -3.37258,-0.0129 -4.17578,0.004 -1.60641,0.0336 -1.31283,0.11976 -1.85157,0.19726 -1.70055,0.25079 -3.34083,0.75302 -4.88867,1.45508 l -0.002,0.004 c -0.80013,0.36312 -1.57383,0.7808 -2.31836,1.24804 -0.74453,0.46725 -1.45998,0.98471 -2.13867,1.54493 -0.6787,0.56022 -1.32122,1.16458 -1.92383,1.80664 -0.60261,0.64205 -1.16536,1.3224 -1.68164,2.03515 -0.51628,0.71275 -0.98655,1.45621 -1.40625,2.22852 -0.41971,0.7723 -0.78868,1.57186 -1.10156,2.39258 -0.31289,0.82072 -0.56981,1.66349 -0.76563,2.52148 -0.19581,0.85799 -0.32994,1.73111 -0.39844,2.61524 -0.11775,0.8415 -0.14332,1.67835 -0.10156,2.51171 0.0418,0.83337 0.15085,1.66491 0.29883,2.49219 0.29597,1.65456 0.75122,3.29891 1.15234,4.94141 0.20057,0.82125 0.38827,1.64163 0.53516,2.46289 0.14689,0.82126 0.25297,1.64339 0.29297,2.4668 0.04,0.8234 0.0128,1.64704 -0.10742,2.47461 -0.12024,0.82755 -0.33422,1.65843 -0.66797,2.49218 -0.23944,0.89125 -0.55749,1.74598 -0.94531,2.56055 -0.38782,0.81457 -0.84565,1.58944 -1.36329,2.31836 -0.51763,0.72891 -1.09376,1.41259 -1.72265,2.04687 -0.62889,0.63429 -1.30967,1.21932 -2.03125,1.75 -0.72158,0.53069 -1.48554,1.00572 -2.28125,1.42383 -0.79571,0.41812 -1.62334,0.7796 -2.47461,1.07617 -0.85127,0.29657 -1.72501,0.52926 -2.61328,0.69532 -0.88827,0.16605 -1.79056,0.26445 -2.69727,0.29101 -0.9067,0.0266 -1.81803,-0.0187 -2.72461,-0.14062 -0.90657,-0.1219 -1.80938,-0.32028 -2.69726,-0.59961 -0.88788,-0.27934 -1.76071,-0.6402 -2.61133,-1.08594 -0.85062,-0.44574 -1.67786,-0.97653 -2.47266,-1.59766 -0.7948,-0.62112 -1.55693,-1.33123 -2.27734,-2.13672 -0.72042,-0.80547 -1.39989,-1.70627 -2.02734,-2.70507 -0.62748,-0.99881 -1.20279,-2.09577 -1.71876,-3.29688 -0.51594,-1.2011 -0.97154,-2.50559 -1.35742,-3.91797 0.0418,11.611 0.0942,23.21222 -0.01,34.82422 0.33446,-0.5599 0.67866,-1.09378 1.03125,-1.60351 0.35258,-0.50973 0.71356,-0.99532 1.08398,-1.45703 0.74084,-0.92346 1.51613,-1.7532 2.32031,-2.5 0.80419,-0.74682 1.63713,-1.41013 2.4961,-2 0.85897,-0.58989 1.74323,-1.10787 2.64844,-1.56055 0.9052,-0.45269 1.83251,-0.84058 2.77539,-1.17578 0.94287,-0.33521 1.903,-0.61607 2.875,-0.85352 0.97199,-0.23745 1.95507,-0.43034 2.94726,-0.58984 0.99219,-0.1595 1.99348,-0.28561 2.99805,-0.38672 4.01825,-0.40444 8.09873,-0.42128 11.9668,-0.68164 1.93403,-0.13018 3.81557,-0.32152 5.60937,-0.65235 0.8969,-0.16541 1.77208,-0.36617 2.62109,-0.61132 0.84902,-0.24516 1.67229,-0.53428 2.46485,-0.87891 1.23937,-0.48687 2.43804,-1.07212 3.58789,-1.74219 1.14984,-0.67006 2.25013,-1.42623 3.29101,-2.25781 1.04089,-0.83158 2.02306,-1.73757 2.93555,-2.70898 0.91249,-0.97141 1.75488,-2.0081 2.51953,-3.09766 0.76466,-1.08956 1.45144,-2.23193 2.04883,-3.41797 0.59739,-1.18603 1.10493,-2.41495 1.51563,-3.67578 0.41069,-1.26083 0.72317,-2.55325 0.92773,-3.86719 0.20456,-1.31394 0.30225,-2.65072 0.28125,-3.99609 0.0393,-0.98675 -0.002,-2.0107 -0.043,-3.04492 -0.0409,-1.03422 -0.0816,-2.0787 -0.041,-3.10352 0.0406,-1.02481 0.16161,-2.02989 0.44531,-2.98828 0.14185,-0.4792 0.32564,-0.94653 0.55859,-1.39844 0.23295,-0.45191 0.51513,-0.88914 0.85938,-1.30664 0.29712,-0.4345 0.6267,-0.83159 0.98242,-1.19336 0.35572,-0.36177 0.73758,-0.68822 1.14258,-0.98047 0.81,-0.5845 1.71065,-1.03156 2.66015,-1.35156 0.9495,-0.32 1.94819,-0.51434 2.96094,-0.58984 1.01275,-0.0755 2.03931,-0.0338 3.03906,0.11523 11.446,0.999 21.48703,1.87934 30.33203,2.65234 -0.003,-0.002 -0.005,-0.004 -0.008,-0.006 l 0.006,0.002 c 33.2075,2.9015 49.34338,4.29083 57.79688,4.76758 4.2267,0.23837 6.53229,0.25014 8.09179,0.10742 1.5595,-0.14272 2.37153,-0.43875 3.61133,-0.8125 1.0457,-0.30875 2.06589,-0.68902 3.05469,-1.13281 0.9888,-0.4438 1.94639,-0.95279 2.86719,-1.51953 0.9207,-0.56684 1.80478,-1.19135 2.64648,-1.86915 0.8417,-0.67779 1.64108,-1.40879 2.39258,-2.18554 0.7515,-0.77675 1.45517,-1.59922 2.10547,-2.46289 0.6503,-0.86368 1.24725,-1.76846 1.78515,-2.70703 0.538,-0.93856 1.01704,-1.91068 1.43164,-2.91211 0.4146,-1.00142 0.76483,-2.03174 1.04493,-3.08399 -75.21749,-1.611 -110.03321,-2.3082 -126.31446,-2.56445 -4.07031,-0.0641 -6.98302,-0.10068 -9.07812,-0.11719 z m 48.56445,16.49219 4.14453,3.28516 c -11.509,-0.96002 -23.01558,-1.91874 -34.51758,-2.92774 -0.66725,-0.118 -1.32959,-0.15484 -1.98437,-0.12695 -0.65478,0.0279 -1.30274,0.11975 -1.94336,0.25781 -1.28125,0.27613 -2.53159,0.73773 -3.74609,1.24023 1.822,2.848 3.61162,5.72718 5.26562,8.70118 23.434,3.131 46.82505,6.5335 70.24805,9.6875 l -0.002,-0.002 c 0.01,0.001 0.0195,0.003 0.0293,0.004 l 0.38867,0.0273 c 1.04378,0.0971 2.07878,0.12091 3.09375,0.043 1.08162,-0.0831 2.14438,-0.26148 3.1836,-0.52344 1.03926,-0.26195 2.05441,-0.60896 3.04101,-1.02929 0.9867,-0.42034 1.94514,-0.91447 2.86914,-1.47266 0.924,-0.55819 1.81287,-1.17995 2.66407,-1.85547 0.8511,-0.67552 1.66344,-1.40345 2.43164,-2.17578 1.5364,-1.54466 2.89731,-3.26351 4.04101,-5.07226 -18.34199,-1.718 -36.7025,-3.24635 -55.0625,-4.77735 -1.346,-1.149 -2.72853,-2.2422 -4.14453,-3.2832 z" />
        <path
           id="path4318"
           style="opacity:1;fill:#000000;fill-opacity:1;stroke:none;stroke-width:19.648"
           d="m 641.54688,143.63477 c 0.565,3.508 0.94137,7.0457 1.10937,10.5957 12.962,2.743 25.93472,5.43251 38.88672,8.22851 1.64325,0.37875 3.19173,0.65642 4.6582,0.83594 1.46648,0.17952 2.84926,0.2605 4.16016,0.24414 1.3109,-0.0164 2.55004,-0.129 3.72656,-0.33789 1.17652,-0.20888 2.29017,-0.51404 3.35352,-0.91211 1.06334,-0.39806 2.07551,-0.88877 3.04687,-1.47265 0.97137,-0.58389 1.90215,-1.26099 2.80274,-2.02735 0.90058,-0.76636 1.77204,-1.62288 2.62304,-2.56836 0.85101,-0.94548 1.68324,-1.98031 2.50586,-3.10156 -11.1245,-1.7435 -22.27631,-3.29178 -33.42969,-4.81641 -11.15337,-1.52462 -22.30836,-3.02396 -33.44335,-4.66796 z" />
        <path
           id="path4701"
           style="opacity:1;fill:#000000;fill-opacity:1;stroke:none;stroke-width:19.648"
           d="m 641.54688,143.63477 c 11.13499,1.644 22.28998,3.14334 33.44335,4.66796 11.15338,1.52463 22.30519,3.07291 33.42969,4.81641 -0.82262,1.12125 -1.65485,2.15608 -2.50586,3.10156 -0.851,0.94548 -1.72246,1.802 -2.62304,2.56836 -0.90059,0.76636 -1.83137,1.44346 -2.80274,2.02735 -0.97136,0.58388 -1.98353,1.07459 -3.04687,1.47265 -1.06335,0.39807 -2.177,0.70323 -3.35352,0.91211 -1.17652,0.20889 -2.41566,0.32153 -3.72656,0.33789 -1.3109,0.0164 -2.69368,-0.0646 -4.16016,-0.24414 -1.46647,-0.17952 -3.01495,-0.45719 -4.6582,-0.83594 -12.952,-2.796 -25.92472,-5.48551 -38.88672,-8.22851 -0.168,-3.55 -0.54437,-7.0877 -1.10937,-10.5957 z" />
        <path
           id="path4699"
           style="opacity:1;fill:#000000;fill-opacity:1;stroke:none;stroke-width:19.648"
           d="m 642.3418,157.21289 c -0.4295,1.7015 -0.91528,3.38802 -1.45703,5.05664 -0.54175,1.66863 -1.13957,3.32013 -1.78907,4.95313 7.748,2.367 15.49539,4.77487 23.27539,7.04687 1.01163,0.25263 2.02787,0.40876 3.04102,0.47852 1.01315,0.0698 2.02409,0.0523 3.02539,-0.0449 1.0013,-0.0973 1.99269,-0.27302 2.96875,-0.52148 0.97606,-0.24846 1.93561,-0.56931 2.87305,-0.95312 0.93743,-0.38382 1.85284,-0.83066 2.73828,-1.33399 0.88543,-0.50333 1.7405,-1.0629 2.56054,-1.66992 0.82005,-0.60702 1.60443,-1.26217 2.34571,-1.95703 0.74128,-0.69487 1.44072,-1.43039 2.08984,-2.19727 -13.852,-3.11 -27.78887,-5.89442 -41.67187,-8.85742 z" />
        <path
           id="path4706"
           style="opacity:1;fill:#000000;fill-opacity:1;stroke:none;stroke-width:19.648"
           d="m 642.3418,157.21289 c 13.883,2.963 27.81987,5.74742 41.67187,8.85742 -0.64912,0.76688 -1.34856,1.5024 -2.08984,2.19727 -0.74128,0.69486 -1.52566,1.35001 -2.34571,1.95703 -0.82004,0.60702 -1.67511,1.16659 -2.56054,1.66992 -0.88544,0.50333 -1.80085,0.95017 -2.73828,1.33399 -0.93744,0.38381 -1.89699,0.70466 -2.87305,0.95312 -0.97606,0.24846 -1.96745,0.42422 -2.96875,0.52148 -1.0013,0.0973 -2.01224,0.11469 -3.02539,0.0449 -1.01315,-0.0698 -2.02939,-0.22589 -3.04102,-0.47852 -7.78,-2.272 -15.52739,-4.67987 -23.27539,-7.04687 0.6495,-1.633 1.24732,-3.2845 1.78907,-4.95313 0.54175,-1.66862 1.02753,-3.35514 1.45703,-5.05664 z" />
        <path
           id="path4704"
           style="opacity:1;fill:#000000;fill-opacity:1;stroke:none;stroke-width:19.648"
           d="m 637.61914,169.91406 c -1.241,1.759 -2.59269,3.43357 -4.05469,5.00782 -1.462,1.57424 -3.03398,3.04829 -4.70898,4.40429 2.1675,0.958 4.30144,2.04969 6.47656,3.02344 1.08756,0.48687 2.18472,0.94325 3.30274,1.33984 1.11801,0.3966 2.25632,0.73307 3.42382,0.97657 0.89263,0.089 1.78742,0.1189 2.67774,0.0937 0.89032,-0.0252 1.77734,-0.10561 2.65625,-0.23829 1.75781,-0.26536 3.48312,-0.73884 5.14062,-1.39453 1.6575,-0.65568 3.24616,-1.49334 4.73047,-2.48633 1.48431,-0.99298 2.86331,-2.14071 4.10156,-3.41796 -3.9265,-1.3245 -7.88676,-2.53624 -11.85351,-3.72461 -3.96675,-1.18838 -7.94008,-2.35399 -11.89258,-3.58399 z" />
        <path
           id="path4709"
           style="opacity:1;fill:#000000;fill-opacity:1;stroke:none;stroke-width:19.648"
           d="m 625.70312,181.36719 c -1.48812,0.71175 -2.84652,1.29275 -4.1289,1.76562 -1.28238,0.47288 -2.48785,0.83695 -3.67188,1.11719 -1.18402,0.28024 -2.34601,0.47552 -3.53906,0.60938 -1.19305,0.13385 -2.41709,0.20651 -3.72656,0.24023 -2.61894,0.0674 -5.57772,-0.0186 -9.30664,-0.0742 -3.72892,-0.0556 -8.22778,-0.0799 -13.92578,0.11133 -0.976,0.0337 -1.97451,0.16411 -2.97461,0.4043 -1.0001,0.24018 -2.00114,0.58973 -2.98828,1.05859 -0.98714,0.46886 -1.95936,1.05757 -2.89649,1.77734 -0.93713,0.71978 -1.83939,1.56957 -2.68945,2.5625 -0.85006,0.99294 -1.64711,2.12963 -2.37305,3.41797 -0.72594,1.28834 -1.38054,2.72996 -1.94531,4.33594 -0.56477,1.60598 -1.03972,3.37639 -1.40625,5.32226 -0.36654,1.94588 -0.62656,4.06701 -0.75781,6.375 0.4205,-1.34687 0.93437,-2.58165 1.52929,-3.71289 0.59493,-1.13123 1.27123,-2.15953 2.02344,-3.09375 0.75221,-0.93421 1.5803,-1.77543 2.47266,-2.53125 0.89235,-0.75581 1.84988,-1.42544 2.86523,-2.02148 1.01535,-0.59604 2.08778,-1.11738 3.20899,-1.57227 1.1212,-0.45488 2.29008,-0.84342 3.5,-1.17578 1.20991,-0.33235 2.4607,-0.60944 3.74218,-0.83789 1.28149,-0.22844 2.59379,-0.40958 3.92969,-0.55273 2.67181,-0.28631 5.43601,-0.41967 8.22266,-0.47656 2.78664,-0.0569 5.597,-0.0372 8.36133,-0.0137 2.76432,0.0236 5.48302,0.0508 8.08789,0.006 2.60486,-0.045 5.09604,-0.16132 7.40429,-0.42382 1.2905,-0.19101 2.54041,-0.51441 3.74805,-0.94727 1.20764,-0.43286 2.37258,-0.97463 3.49414,-1.60156 1.12156,-0.62694 2.1982,-1.34005 3.23047,-2.11328 1.03227,-0.77324 2.01923,-1.60677 2.95898,-2.47852 -4.104,-1.937 -8.28221,-3.69656 -12.44922,-5.47656 z" />
        <path
           id="path5959"
           style="opacity:1;fill:#000000;fill-opacity:1;stroke:none;stroke-width:19.648"
           d="m 600.70312,199.77148 c -1.05499,0.007 -2.10302,0.0395 -3.13671,0.0957 -2.06739,0.11254 -4.08158,0.32032 -5.9961,0.61523 -1.91452,0.29492 -3.72964,0.67602 -5.40039,1.13477 -1.356,0.34825 -2.73323,0.84532 -4.03515,1.49219 -1.30193,0.64685 -2.52914,1.44504 -3.58008,2.39648 -0.52547,0.47572 -1.00584,0.98999 -1.43164,1.54297 -0.42581,0.55298 -0.79614,1.1444 -1.09766,1.77539 -0.30152,0.63099 -0.53487,1.30002 -0.6875,2.00976 -0.15263,0.70975 -0.224,1.4588 -0.20312,2.24805 2.853,0.0315 5.70546,-0.0751 8.55859,-0.16406 2.85312,-0.089 5.70705,-0.15918 8.56055,-0.0547 -1.1805,0.822 -2.44461,1.4268 -3.75782,1.89649 -1.3132,0.46968 -2.67648,0.80332 -4.06054,1.08007 -1.38407,0.27675 -2.78857,0.49705 -4.18164,0.74024 -1.39308,0.24319 -2.77499,0.5099 -4.11524,0.8789 0.864,0.822 1.73914,1.75422 2.72852,2.46485 0.49469,0.35531 1.01667,0.65403 1.58203,0.85742 0.56536,0.20339 1.17369,0.31055 1.83594,0.2793 2.05475,0.0522 4.13889,-0.0316 6.20507,-0.2793 2.06619,-0.2477 4.11491,-0.65975 6.09766,-1.25781 0.99138,-0.29903 1.96524,-0.64495 2.91797,-1.04102 0.95273,-0.39607 1.88294,-0.84043 2.78516,-1.33984 0.90221,-0.49942 1.77733,-1.05305 2.61718,-1.66211 0.83985,-0.60906 1.64453,-1.275 2.41016,-2 0.59812,-0.56938 1.26868,-1.04187 1.98828,-1.42188 0.71961,-0.38 1.48967,-0.6672 2.28516,-0.86328 0.79548,-0.19608 1.61759,-0.30076 2.44336,-0.31836 0.82576,-0.0176 1.6544,0.0516 2.46484,0.20703 0.81044,0.15544 1.60205,0.39573 2.35156,0.71875 0.74951,0.32303 1.45663,0.72968 2.09961,1.21485 0.64299,0.48517 1.22204,1.04953 1.71289,1.6914 0.49086,0.64188 0.89438,1.36118 1.1875,2.1543 0.22344,0.61488 0.33917,1.21646 0.35938,1.80469 0.0202,0.58822 -0.0565,1.16275 -0.22071,1.72461 -0.16418,0.56185 -0.4144,1.11072 -0.74414,1.64648 -0.32973,0.53577 -0.73841,1.05841 -1.21484,1.56836 -0.95287,1.01991 -2.18081,1.98792 -3.60742,2.90625 -1.42661,0.91834 -3.05119,1.78647 -4.80078,2.60547 -1.7496,0.819 -3.6231,1.58865 -5.54493,2.31055 -1.92182,0.7219 -3.89263,1.3964 -5.83593,2.02343 -3.88661,1.25408 -7.66442,2.32099 -10.73242,3.20899 -3.48638,0.98812 -6.95201,1.87787 -10.3711,2.71484 -3.41909,0.83698 -6.79332,1.6218 -10.09375,2.40039 -3.30043,0.7786 -6.52781,1.55032 -9.6582,2.36328 -3.13039,0.81299 -6.1633,1.6673 -9.07227,2.60743 -2.90897,0.94012 -5.69391,1.96691 -8.33007,3.12695 -1.31809,0.58002 -2.5996,1.19331 -3.83985,1.8457 -1.24025,0.65239 -2.43971,1.34372 -3.5957,2.08008 -1.156,0.73636 -2.26867,1.51769 -3.33399,2.34961 -1.06531,0.83192 -2.08256,1.71326 -3.05078,2.65234 -0.96822,0.93909 -1.88726,1.93435 -2.75195,2.99219 -0.8647,1.05784 -1.67494,2.179 -2.42969,3.36719 -0.62319,0.92725 -1.20032,1.88737 -1.72656,2.87695 -0.52624,0.98959 -1.00149,2.00874 -1.42578,3.05078 -0.42429,1.04204 -0.79593,2.10679 -1.11328,3.19141 -0.31736,1.08462 -0.58169,2.18932 -0.78711,3.30664 -0.20542,1.11732 -0.35291,2.24854 -0.44141,3.38867 -0.0885,1.14014 -0.11739,2.28833 -0.084,3.44141 0.0334,1.15308 0.12872,2.31065 0.28906,3.4668 0.16034,1.15614 0.38548,2.3116 0.67773,3.46093 0.29225,1.14933 0.65288,2.29315 1.08203,3.42578 0.42917,1.13264 0.927,2.25332 1.49805,3.35938 0.57105,1.10606 1.2137,2.19601 1.93164,3.26562 0.71794,1.06962 1.51103,2.1193 2.38086,3.14258 0.86983,1.02329 1.81704,2.02121 2.84375,2.98828 1.02671,0.96708 2.13369,1.9037 3.32227,2.80469 1.18858,0.90099 2.459,1.76677 3.81445,2.5918 1.35545,0.82503 2.79495,1.60847 4.32227,2.34765 0.984,-0.33 1.89839,-0.81371 2.79101,-1.33984 0.89263,-0.52612 1.76356,-1.0943 2.66406,-1.5918 1.65425,-1 3.36029,-1.88854 5.10157,-2.70117 1.74128,-0.81262 3.51883,-1.54919 5.31445,-2.24219 3.59125,-1.386 7.25859,-2.60006 10.87109,-3.91406 0.105,-14.093 0.12622,-28.17458 0.19922,-42.26758 1.56525,0.623 3.14471,1.25985 4.70703,1.94532 1.56233,0.68546 3.1063,1.419 4.59961,2.23437 1.49332,0.81538 2.93672,1.71189 4.29493,2.72461 1.3582,1.01272 2.63206,2.14047 3.78906,3.41797 0.74475,0.78662 1.40439,1.64627 1.97851,2.56055 0.57413,0.91427 1.06226,1.88451 1.46094,2.89062 0.39868,1.00611 0.70933,2.04921 0.92773,3.11133 0.21843,1.06212 0.34557,2.1423 0.37891,3.22461 0.0333,1.08231 -0.027,2.16574 -0.18359,3.23242 -0.15655,1.06668 -0.41046,2.11758 -0.76172,3.13281 -0.35126,1.01524 -0.80078,1.99587 -1.35156,2.92383 -0.55079,0.92797 -1.2019,1.80255 -1.95704,2.60742 -0.83061,0.91607 -1.69741,1.76395 -2.5957,2.55274 -0.89828,0.78879 -1.82772,1.51924 -2.78515,2.19922 -1.91487,1.35996 -3.94061,2.52118 -6.04102,3.55664 -2.10041,1.03546 -4.27626,1.9441 -6.49414,2.80273 -2.21789,0.85863 -4.47686,1.66664 -6.74414,2.49609 -2.26728,0.82948 -4.54241,1.68094 -6.79102,2.62891 -2.2486,0.94798 -4.47096,1.99288 -6.63281,3.20703 -1.08093,0.60708 -2.14688,1.25573 -3.19336,1.95703 -1.04647,0.70131 -2.07461,1.45555 -3.07812,2.26953 -1.00352,0.81401 -1.98351,1.68767 -2.93555,2.63282 -0.95204,0.94514 -1.87552,1.95994 -2.76758,3.05468 -1.05212,1.27164 -2.04076,2.72333 -2.91797,4.31836 -0.8772,1.59504 -1.64286,3.3349 -2.24804,5.18164 -0.60519,1.84675 -1.05104,3.80135 -1.28711,5.82813 -0.11804,1.01339 -0.18385,2.04489 -0.19141,3.08984 -0.008,1.04496 0.0431,2.10236 0.1582,3.16993 0.11507,1.06756 0.29511,2.14535 0.54492,3.22656 0.24982,1.08121 0.57009,2.16606 0.9668,3.25195 0.39671,1.08589 0.87004,2.17229 1.42578,3.25391 0.55574,1.08161 1.19497,2.15818 1.92188,3.22656 0.7269,1.06838 1.54096,2.12765 2.45117,3.17383 0.91021,1.04617 1.91584,2.08069 3.02148,3.0957 1.10565,1.01502 2.31178,2.01143 3.625,2.98633 1.31323,0.97489 2.73269,1.92769 4.26563,2.85352 1.52075,-1.06275 3.08817,-2.04474 4.6875,-2.97071 1.59933,-0.92597 3.2318,-1.79714 4.88086,-2.63476 3.29812,-1.67525 6.66623,-3.22149 9.99023,-4.83399 0.314,-11.737 0.35619,-23.4837 0.49219,-35.2207 1.9265,1.042 3.88708,2.09992 5.7207,3.32617 0.91682,0.61313 1.8015,1.26772 2.63477,1.98438 0.83326,0.71665 1.61472,1.49501 2.32422,2.35351 0.98625,1.17538 1.79917,2.42346 2.43164,3.72461 0.63247,1.30115 1.08502,2.65474 1.34765,4.04102 0.26266,1.38627 0.33614,2.80557 0.2129,4.23632 -0.12325,1.43076 -0.44357,2.874 -0.96875,4.3086 -0.52519,1.43459 -1.25604,2.86002 -2.19922,4.25781 -0.94319,1.39779 -2.09933,2.76756 -3.47657,4.08789 -1.37723,1.32034 -2.97539,2.59073 -4.80273,3.79297 -1.82734,1.20224 -3.88228,2.33541 -6.17578,3.37891 -2.026,0.96575 -4.10409,1.92936 -6.15625,2.95507 -2.05216,1.02572 -4.07869,2.11421 -6.00781,3.33008 -0.96457,0.60794 -1.90472,1.24785 -2.81055,1.92774 -0.90583,0.67988 -1.77897,1.39986 -2.60742,2.16797 -0.82846,0.7681 -1.61328,1.58442 -2.34571,2.45703 -0.73242,0.8726 -1.41154,1.80154 -2.02929,2.79492 -0.89875,1.30537 -1.65103,2.65784 -2.26563,4.04101 -0.61459,1.38318 -1.09103,2.7973 -1.4414,4.22461 -0.35038,1.42732 -0.5736,2.86689 -0.67969,4.30469 -0.1061,1.4378 -0.0948,2.87249 0.0234,4.28711 0.11825,1.41463 0.34336,2.81017 0.66601,4.16797 0.32266,1.3578 0.74288,2.678 1.25,3.94531 0.50713,1.26731 1.10178,2.48183 1.77344,3.625 0.67166,1.14317 1.42008,2.2158 2.23633,3.20117 0.94331,-1.73073 1.90962,-3.4849 2.8789,-5.22265 -5.3e-4,-10e-4 -9.5e-4,-0.003 -0.002,-0.004 7.4e-4,-0.001 9.5e-4,-0.003 0.002,-0.004 -0.34396,-0.88211 -0.63977,-1.7887 -0.88476,-2.71093 -0.24537,-0.92363 -0.4388,-1.86334 -0.57813,-2.81055 -0.13933,-0.94721 -0.22543,-1.90135 -0.25195,-2.85547 -0.0265,-0.95411 0.007,-1.90917 0.0996,-2.85351 0.0931,-0.94435 0.24738,-1.87898 0.4668,-2.79688 0.21941,-0.9179 0.50292,-1.81858 0.85547,-2.69336 0.35253,-0.87477 0.77317,-1.72409 1.26562,-2.53906 0.49245,-0.81498 1.05619,-1.5955 1.69531,-2.33398 0.708,-0.88739 1.47527,-1.68897 2.29102,-2.41993 0.81575,-0.73096 1.67997,-1.39144 2.58203,-1.99609 0.90206,-0.60465 1.84166,-1.15367 2.80859,-1.66211 0.96694,-0.50844 1.96228,-0.97562 2.97266,-1.41797 2.02075,-0.88469 4.106,-1.66783 6.17187,-2.46875 2.06588,-0.80092 4.11129,-1.62012 6.05079,-2.57812 0.0917,-0.0424 0.17707,-0.0894 0.26757,-0.13282 0,0 0.002,-0.002 0.002,-0.002 0,0 0.002,-0.002 0.002,-0.002 1.73392,-2.64331 3.01489,-5.01158 3.86133,-6.72071 0.84662,-1.7095 1.25976,-2.75781 1.25976,-2.75781 0,0 2.88428,0.60997 6.97852,1.34571 0,0 0.002,0 0.002,0 0.88857,-0.856 1.71507,-1.73806 2.48047,-2.64063 0.76541,-0.90257 1.46988,-1.82541 2.11328,-2.76758 0.6434,-0.94216 1.22745,-1.90216 1.75,-2.87695 0.52255,-0.97479 0.98387,-1.96442 1.38672,-2.96484 0.40285,-1.00045 0.74694,-2.01213 1.03125,-3.03126 0.28431,-1.01911 0.50887,-2.04535 0.67578,-3.07617 0.16692,-1.03082 0.2755,-2.06601 0.32617,-3.10156 0.0507,-1.03555 0.0429,-2.07216 -0.0215,-3.10547 -0.0644,-1.03331 -0.18494,-2.06379 -0.36328,-3.08789 -0.17834,-1.0241 -0.41396,-2.04287 -0.70508,-3.05078 -0.29111,-1.00791 -0.63827,-2.00548 -1.04102,-2.99023 -0.40273,-0.98476 -0.86177,-1.95554 -1.375,-2.91016 -0.5132,-0.95463 -1.08059,-1.89303 -1.70312,-2.81055 -0.62253,-0.91752 -1.2986,-1.81405 -2.0293,-2.6875 -0.73069,-0.87344 -1.51581,-1.72448 -2.35351,-2.54687 -0.83771,-0.8224 -1.72832,-1.61649 -2.67188,-2.38086 -2.107,0.992 -4.26392,1.85061 -6.44531,2.64453 -2.18139,0.79392 -4.38844,1.52297 -6.59375,2.25391 -2.20531,0.73093 -4.40913,1.46453 -6.58789,2.26757 -2.17877,0.80305 -4.33184,1.6753 -6.43359,2.68555 0.188,11.737 0.13548,23.48442 0.27148,35.23242 -1.50775,-0.86375 -3.00922,-1.8032 -4.45117,-2.83398 -1.44195,-1.03078 -2.82428,-2.15328 -4.08985,-3.37891 -1.26556,-1.22562 -2.414,-2.55562 -3.39257,-4.0039 -0.48929,-0.72415 -0.93718,-1.4767 -1.33399,-2.26172 -0.3968,-0.78502 -0.7427,-1.60181 -1.0332,-2.45117 -0.27225,-0.784 -0.47277,-1.58202 -0.60352,-2.38672 -0.13075,-0.8047 -0.19133,-1.61718 -0.18945,-2.42774 0.002,-0.81055 0.0677,-1.62031 0.19336,-2.42187 0.12562,-0.80156 0.31028,-1.59338 0.55078,-2.3711 0.2405,-0.77772 0.53631,-1.54026 0.88281,-2.27929 0.3465,-0.73903 0.74388,-1.45514 1.1875,-2.14063 0.44363,-0.68549 0.93297,-1.33992 1.46485,-1.95703 0.53187,-0.61711 1.10554,-1.19659 1.71679,-1.73047 1.58275,-1.3995 3.25804,-2.59006 5.00977,-3.63281 1.75172,-1.04276 3.58118,-1.93907 5.4707,-2.7461 1.88953,-0.807 3.83979,-1.52646 5.83594,-2.21874 1.99615,-0.6923 4.03777,-1.35613 6.10938,-2.05469 2.07159,-0.69856 4.17319,-1.43001 6.28906,-2.25586 2.11586,-0.82585 4.24604,-1.74617 6.375,-2.82031 2.12896,-1.07414 4.25631,-2.30266 6.36718,-3.7461 1.05545,-0.72172 2.10727,-1.49725 3.15235,-2.33398 1.04507,-0.83674 2.08247,-1.7343 3.11328,-2.70117 0.84819,-0.82494 1.64432,-1.69378 2.38672,-2.59961 0.74239,-0.90584 1.43265,-1.8498 2.06641,-2.82618 0.63373,-0.97638 1.21212,-1.98491 1.73437,-3.02148 0.52225,-1.03657 0.98663,-2.10111 1.39453,-3.1875 0.40791,-1.08639 0.75812,-2.19445 1.04883,-3.32031 0.29071,-1.12587 0.5227,-2.26885 0.69336,-3.42383 0.17065,-1.15498 0.28037,-2.32235 0.32812,-3.49609 0.0478,-1.17374 0.0331,-2.35497 -0.0449,-3.53711 -0.078,-1.18214 -0.21917,-2.36474 -0.42578,-3.54493 -0.2066,-1.18018 -0.47834,-2.35751 -0.81641,-3.52539 -0.33806,-1.16787 -0.74247,-2.32745 -1.21484,-3.47265 -0.47237,-1.1452 -1.01156,-2.2765 -1.62109,-3.38867 -0.60953,-1.11218 -1.28952,-2.20465 -2.03907,-3.27344 -0.74954,-1.06879 -1.56853,-2.11386 -2.46093,-3.12891 -0.89241,-1.01505 -1.85837,-2.00022 -2.89649,-2.95117 -1.03812,-0.95095 -2.14925,-1.86764 -3.33594,-2.74414 -2.69074,0.84025 -5.40614,1.59598 -8.13281,2.30664 -2.72667,0.71066 -5.46514,1.37748 -8.20508,2.03711 -5.47987,1.31925 -10.96237,2.61467 -16.35937,4.20117 -0.50775,0.068 -0.83942,0.26749 -1.05274,0.54883 -0.2133,0.28134 -0.3084,0.64509 -0.34765,1.04297 -0.0785,0.79575 0.0693,1.7272 -0.0352,2.4082 0.167,12.889 0.15769,25.7885 0.30469,38.6875 -1.61738,-0.67387 -3.21477,-1.37076 -4.76758,-2.09961 -1.55281,-0.72885 -3.06056,-1.49104 -4.49804,-2.29687 -1.4375,-0.80584 -2.80477,-1.65572 -4.07618,-2.56055 -1.2714,-0.90483 -2.44739,-1.86478 -3.50195,-2.89063 -1.05456,-1.02584 -1.98843,-2.11629 -2.77539,-3.28515 -0.78697,-1.16887 -1.42788,-2.4161 -1.89648,-3.75 -0.46862,-1.3339 -0.76379,-2.75445 -0.86329,-4.27539 -0.0995,-1.52095 -0.002,-3.1411 0.31836,-4.8711 0.0942,-0.79837 0.25474,-1.57263 0.47461,-2.32226 0.21987,-0.74963 0.49834,-1.47551 0.82813,-2.17578 0.65958,-1.40055 1.52423,-2.70096 2.52929,-3.90039 1.00507,-1.19944 2.15005,-2.2976 3.375,-3.29102 1.22496,-0.99342 2.52841,-1.88156 3.84766,-2.66406 1.04444,-0.63794 2.24291,-1.2525 3.57422,-1.84766 1.33131,-0.59515 2.79631,-1.17245 4.375,-1.73633 3.15738,-1.12774 6.76977,-2.20377 10.67969,-3.27539 7.81982,-2.14323 16.82961,-4.26564 25.76367,-6.73632 4.46703,-1.23535 8.91393,-2.55848 13.18555,-4.01368 2.13581,-0.7276 4.22815,-1.48729 6.25585,-2.28711 2.02773,-0.79981 3.99099,-1.63991 5.8711,-2.52343 1.88011,-0.88353 3.67807,-1.81228 5.37109,-2.79102 1.69302,-0.97874 3.28162,-2.00634 4.74805,-3.0918 1.46643,-1.08545 2.80943,-2.22797 4.00976,-3.43164 1.20034,-1.20366 2.2576,-2.46936 3.15235,-3.80273 0.52087,-0.74213 0.97884,-1.52741 1.37305,-2.34375 0.3942,-0.81634 0.72478,-1.66427 0.99023,-2.5332 0.26545,-0.86894 0.46697,-1.7583 0.60156,-2.65821 0.1346,-0.8999 0.20342,-1.8095 0.20508,-2.71875 0.002,-0.90925 -0.0639,-1.81787 -0.19727,-2.71484 -0.13337,-0.89697 -0.33497,-1.78342 -0.60546,-2.64649 -0.2705,-0.86305 -0.60982,-1.70223 -1.01954,-2.50976 -0.4097,-0.80753 -0.8904,-1.58213 -1.4414,-2.3125 -0.53781,-0.68556 -1.12985,-1.33432 -1.77149,-1.94531 -0.64163,-0.611 -1.33231,-1.18391 -2.0664,-1.72266 -1.46818,-1.07749 -3.11104,-2.01401 -4.88086,-2.81641 -1.76982,-0.80239 -3.66592,-1.47172 -5.64649,-2.01757 -1.98056,-0.54585 -4.04412,-0.96755 -6.14453,-1.27539 -2.1004,-0.30785 -4.23784,-0.50147 -6.36718,-0.58985 -1.06468,-0.0442 -2.12665,-0.0619 -3.18165,-0.0547 z m -7.07226,4.93555 c 0.39888,0.005 0.79358,0.0494 1.18164,0.13867 0.38806,0.0893 0.76845,0.22531 1.13867,0.41407 0.37022,0.18875 0.73067,0.43062 1.07617,0.73437 -0.31287,0.314 -0.64923,0.59522 -1.0039,0.8418 -0.35467,0.24658 -0.72767,0.45852 -1.11328,0.63476 -0.38562,0.17625 -0.78395,0.31631 -1.18946,0.41992 -0.40551,0.10362 -0.8182,0.17077 -1.23242,0.19922 -0.41422,0.0285 -0.83018,0.0182 -1.24219,-0.0312 -0.41201,-0.0495 -0.82007,-0.13825 -1.21875,-0.26757 -0.39868,-0.12932 -0.78793,-0.29997 -1.16211,-0.51172 -0.37417,-0.21175 -0.73326,-0.4646 -1.07226,-0.76172 0.7015,-0.36375 1.45495,-0.73003 2.23633,-1.03711 0.39068,-0.15354 0.78878,-0.29197 1.18945,-0.4082 0.40067,-0.11624 0.80391,-0.21029 1.20703,-0.27344 0.40313,-0.0631 0.8062,-0.097 1.20508,-0.0918 z" />
        <path
           id="path5957"
           style="opacity:1;fill:#000000;fill-opacity:1;stroke:none;stroke-width:19.648"
           d="m 625.70312,181.36719 c 4.16702,1.78 8.34522,3.53956 12.44922,5.47656 -0.93975,0.87175 -1.92671,1.70528 -2.95898,2.47852 -1.03227,0.77323 -2.10891,1.48634 -3.23047,2.11328 -1.12156,0.62693 -2.2865,1.1687 -3.49414,1.60156 -1.20764,0.43286 -2.45755,0.75626 -3.74805,0.94727 -2.30825,0.2625 -4.79943,0.37883 -7.40429,0.42382 -2.60487,0.045 -5.32357,0.0177 -8.08789,-0.006 -2.76433,-0.0235 -5.57469,-0.0432 -8.36133,0.0137 -2.78665,0.0569 -5.55085,0.19025 -8.22266,0.47656 -1.3359,0.14315 -2.6482,0.32429 -3.92969,0.55273 -1.28148,0.22845 -2.53227,0.50554 -3.74218,0.83789 -1.20992,0.33236 -2.3788,0.7209 -3.5,1.17578 -1.12121,0.45489 -2.19364,0.97623 -3.20899,1.57227 -1.01535,0.59604 -1.97288,1.26567 -2.86523,2.02148 -0.89236,0.75582 -1.72045,1.59704 -2.47266,2.53125 -0.75221,0.93422 -1.42851,1.96252 -2.02344,3.09375 -0.59492,1.13124 -1.10879,2.36603 -1.52929,3.71289 0.13125,-2.30799 0.39127,-4.42912 0.75781,-6.375 0.36653,-1.94587 0.84148,-3.71628 1.40625,-5.32226 0.56477,-1.60598 1.21937,-3.0476 1.94531,-4.33594 0.72594,-1.28834 1.52299,-2.42503 2.37305,-3.41797 0.85006,-0.99293 1.75232,-1.84272 2.68945,-2.5625 0.93713,-0.71977 1.90935,-1.30848 2.89649,-1.77734 0.98714,-0.46886 1.98818,-0.81841 2.98828,-1.05859 1.0001,-0.24019 1.99861,-0.37055 2.97461,-0.4043 5.698,-0.19125 10.19686,-0.16697 13.92578,-0.11133 3.72892,0.0556 6.6877,0.14166 9.30664,0.0742 1.30947,-0.0337 2.53351,-0.10638 3.72656,-0.24023 1.19305,-0.13386 2.35504,-0.32914 3.53906,-0.60938 1.18403,-0.28024 2.3895,-0.64431 3.67188,-1.11719 1.28238,-0.47287 2.6408,-1.05387 4.1289,-1.76562 z" />
        <path
           id="path6332"
           style="opacity:1;fill:#000000;fill-opacity:1;stroke:none;stroke-width:19.648"
           d="m 637.61914,169.91406 c 3.9525,1.23 7.92583,2.39561 11.89258,3.58399 3.96675,1.18837 7.92701,2.40011 11.85351,3.72461 -1.23825,1.27725 -2.61725,2.42498 -4.10156,3.41796 -1.48431,0.99299 -3.07297,1.83065 -4.73047,2.48633 -1.6575,0.65569 -3.38281,1.12917 -5.14062,1.39453 -0.87891,0.13268 -1.76593,0.21313 -2.65625,0.23829 -0.89032,0.0251 -1.78511,-0.005 -2.67774,-0.0937 -1.1675,-0.2435 -2.30581,-0.57997 -3.42382,-0.97657 -1.11802,-0.39659 -2.21518,-0.85297 -3.30274,-1.33984 -2.17512,-0.97375 -4.30906,-2.06544 -6.47656,-3.02344 1.675,-1.356 3.24698,-2.83006 4.70898,-4.40429 1.462,-1.57425 2.81369,-3.24882 4.05469,-5.00782 z" />
        <path
           id="path6330"
           style="opacity:1;fill:#000000;fill-opacity:1;stroke:none;stroke-width:19.648"
           d="m 554.29883,146.25195 c -0.032,32.059 -10e-4,64.1285 0.20898,96.1875 4,-0.953 8.011,-1.90492 12,-2.91992 0.031,-31.086 0.146,-62.17281 0.125,-93.25781 -4.115,-0.031 -8.22998,-0.0308 -12.33398,-0.01 z" />
        <path
           id="path6328"
           style="opacity:1;fill:#000000;fill-opacity:1;stroke:none;stroke-width:19.648"
           d="m 554.29883,146.25195 c 4.104,-0.021 8.21898,-0.0212 12.33398,0.01 0.021,31.085 -0.094,62.17181 -0.125,93.25781 -3.989,1.015 -8,1.96692 -12,2.91992 -0.21,-32.059 -0.24098,-64.1285 -0.20898,-96.1875 z" />
        <path
           id="path6967"
           style="opacity:1;fill:#000000;fill-opacity:1;stroke:none;stroke-width:19.648"
           d="m 516.65234,199.86133 c -2.70604,0.11764 -5.41226,0.39656 -8.06445,0.89062 -1.32609,0.24703 -2.63882,0.54797 -3.93164,0.91016 -1.29282,0.36219 -2.56616,0.78401 -3.8125,1.27539 -1.24634,0.49138 -2.4657,1.05094 -3.65234,1.68555 -1.18665,0.63461 -2.33938,1.34484 -3.45313,2.13672 -0.81275,0.57325 -1.55504,1.22132 -2.22461,1.92968 -0.66957,0.70836 -1.2676,1.47703 -1.79101,2.29297 -0.52342,0.81595 -0.97143,1.67822 -1.34571,2.57422 -0.37427,0.896 -0.67432,1.82686 -0.89648,2.77539 -0.22216,0.94853 -0.36654,1.91514 -0.43359,2.88867 -0.0671,0.97354 -0.0559,1.95282 0.0351,2.92383 0.091,0.97101 0.26159,1.93405 0.51367,2.875 0.25209,0.94096 0.58583,1.86077 1.00196,2.74414 0.38268,0.81713 0.8259,1.61058 1.32617,2.38281 0.50026,0.77224 1.05713,1.52322 1.66406,2.25196 1.21385,1.45748 2.63011,2.82922 4.20508,4.12109 1.57497,1.29188 3.30752,2.5032 5.15625,3.64063 1.84873,1.13742 3.81253,2.20118 5.84766,3.19531 2.03512,0.99412 4.14317,1.91926 6.27734,2.78125 2.13416,0.86198 4.29556,1.65939 6.4414,2.40039 4.29169,1.482 8.51974,2.73383 12.33399,3.79883 1.68825,-1.15175 3.4342,-2.19355 5.22656,-3.14649 1.79236,-0.95293 3.63106,-1.81757 5.5,-2.61133 1.86894,-0.79375 3.76952,-1.51721 5.6875,-2.1914 1.91799,-0.67419 3.85347,-1.29833 5.79297,-1.89258 -5.51525,-1.5105 -12.16,-3.11698 -18.89844,-4.89062 -3.36922,-0.88682 -6.76243,-1.81555 -10.04882,-2.79493 -3.2864,-0.97937 -6.46761,-2.00982 -9.41211,-3.09961 -2.9445,-1.08978 -5.65257,-2.23899 -7.9961,-3.45703 -1.17176,-0.60901 -2.25167,-1.23448 -3.22461,-1.8789 -0.97294,-0.64443 -1.83834,-1.30817 -2.58008,-1.99024 -0.74173,-0.68206 -1.35974,-1.38353 -1.83789,-2.10547 -0.47814,-0.72193 -0.81783,-1.46447 -1,-2.22851 -0.18216,-0.76404 -0.20674,-1.54905 -0.0605,-2.35742 0.14619,-0.80838 0.46376,-1.63921 0.9707,-2.49414 0.547,-0.793 1.21492,-1.47658 1.9668,-2.05079 0.75187,-0.5742 1.5879,-1.03917 2.47265,-1.39648 0.88475,-0.35731 1.81805,-0.60767 2.76368,-0.75 0.94562,-0.14233 1.90339,-0.17622 2.83789,-0.10547 0.788,0.0575 1.52842,0.24049 2.23242,0.51172 0.704,0.27123 1.37237,0.62938 2.01562,1.03906 1.2865,0.81938 2.47325,1.84022 3.65625,2.76172 0.70675,0.5785 1.44505,1.10351 2.20899,1.57813 0.76393,0.47461 1.55404,0.89907 2.36523,1.27929 1.62238,0.76044 3.33028,1.3415 5.08203,1.78125 1.75175,0.43975 3.54799,0.73866 5.34961,0.9336 1.80163,0.19493 3.60886,0.2865 5.38086,0.3125 0.712,0.068 1.37328,-0.005 1.99024,-0.18555 0.61695,-0.18028 1.18934,-0.46825 1.72265,-0.82813 0.53331,-0.35987 1.02721,-0.79093 1.48828,-1.26171 0.46108,-0.47078 0.88882,-0.98114 1.28907,-1.49414 -2.6645,-0.623 -5.45946,-0.92691 -8.17383,-1.47266 -1.35719,-0.27288 -2.69427,-0.60628 -3.98438,-1.07031 -1.29011,-0.46403 -2.53312,-1.05802 -3.70312,-1.85352 2.806,-0.1415 5.61072,-0.0935 8.41797,-0.01 2.80725,0.0838 5.61673,0.20348 8.42773,0.20898 -0.1205,-1.204 -0.22487,-2.47578 -0.54687,-3.66016 -0.161,-0.59218 -0.37704,-1.16248 -0.67579,-1.6914 -0.29875,-0.52892 -0.68103,-1.01661 -1.17578,-1.44336 -0.60987,-0.60075 -1.25604,-1.14239 -1.93359,-1.63281 -0.67755,-0.49043 -1.38582,-0.92981 -2.11914,-1.32227 -1.46664,-0.78492 -3.03403,-1.38633 -4.65234,-1.85352 -1.61832,-0.46718 -3.28813,-0.80053 -4.9629,-1.04882 -1.67476,-0.2483 -3.35423,-0.41082 -4.99023,-0.53907 -2.65425,-0.1465 -5.36036,-0.1899 -8.06641,-0.0723 z m 14.38086,5.05273 c 0.429,0.66 1.29852,1.95842 1.72852,2.60742 -0.78525,0.23825 -1.62977,0.41994 -2.48047,0.50391 -0.8507,0.084 -1.70681,0.0711 -2.51563,-0.0801 -0.80881,-0.15112 -1.57089,-0.44117 -2.23046,-0.9082 -0.32979,-0.23352 -0.6339,-0.51025 -0.90625,-0.83789 -0.27236,-0.32765 -0.51335,-0.70484 -0.71485,-1.13672 2.365,-0.178 4.74214,-0.21144 7.11914,-0.14844 z" />
        <path
           id="path6965"
           style="opacity:1;fill:#000000;fill-opacity:1;stroke:none;stroke-width:19.648"
           d="m 429.77539,113.46094 c -22.92929,-10e-4 -45.85956,0.012 -68.78906,0.0488 0.28912,1.10725 0.64091,2.20074 1.05273,3.27148 0.41183,1.07074 0.88292,2.11982 1.41016,3.14063 0.52723,1.02078 1.11074,2.01335 1.74609,2.9707 0.63536,0.95735 1.32241,1.87929 2.0586,2.75976 0.73618,0.88047 1.52183,1.71964 2.35156,2.50977 0.82973,0.79013 1.70511,1.53046 2.62109,2.2168 0.91599,0.68633 1.87224,1.31765 2.86719,1.88671 0.99495,0.56909 2.02713,1.07725 3.09375,1.51563 0.84425,0.338 1.54594,0.61477 2.31445,0.82617 0.76852,0.2114 1.60529,0.35741 2.7168,0.43164 2.22302,0.14845 5.55089,0.0106 11.6582,-0.45312 12.21463,-0.92738 35.54599,-3.16338 83.39649,-7.04688 -0.10384,0.0297 -0.22731,0.0733 -0.33203,0.10352 l 0.31445,-0.0723 0.18359,-0.0449 h 0.002 c 0.41594,-0.0336 0.82559,-0.0671 1.24804,-0.10156 0.65563,-0.0875 1.31128,-0.0991 1.95899,-0.043 0.64771,0.0562 1.28755,0.17974 1.9082,0.36523 0.62065,0.1855 1.22243,0.43191 1.79688,0.73243 0.57444,0.30051 1.12174,0.65542 1.63086,1.05664 0.50909,0.40121 0.97969,0.85028 1.40429,1.33789 0.4246,0.4876 0.80209,1.01454 1.12305,1.57422 0.32096,0.55968 0.58502,1.15209 0.7832,1.76953 0.19818,0.61743 0.33047,1.25904 0.38672,1.91992 0.094,1.9265 -0.0416,3.86964 -0.0937,5.80664 -0.0261,0.9685 -0.0315,1.93519 0.0234,2.89844 0.055,0.96325 0.17026,1.92225 0.38476,2.875 0.19888,1.15175 0.47867,2.28304 0.83399,3.38867 0.35532,1.10563 0.78644,2.18596 1.28515,3.23242 0.49872,1.04646 1.06626,2.05896 1.69532,3.0332 0.62905,0.97424 1.32006,1.90986 2.0664,2.79883 0.74635,0.88897 1.54786,1.73279 2.39844,2.52344 0.85058,0.79065 1.74963,1.52776 2.69141,2.20703 0.94177,0.67927 1.9254,1.30062 2.94531,1.85547 1.01991,0.55485 2.07516,1.04356 3.16016,1.46094 0.84781,0.35218 1.71408,0.6475 2.59375,0.89453 0.87966,0.24703 1.77323,0.44691 2.67968,0.60937 1.81292,0.32493 3.67473,0.50112 5.56446,0.61133 3.77945,0.22042 7.67181,0.17545 11.51562,0.52539 1.92191,0.17497 3.83171,0.4479 5.70899,0.90235 0.93863,0.22722 1.86917,0.50014 2.78906,0.82812 0.91989,0.32798 1.82853,0.71083 2.72461,1.16016 0.89608,0.44932 1.77927,0.96538 2.64648,1.55664 0.86722,0.59126 1.71945,1.25792 2.55274,2.01172 0.83328,0.75379 1.6471,1.59433 2.4414,2.53125 0.7943,0.93691 1.56811,1.9707 2.31836,3.11132 -0.0315,-5.989 0.048,-11.98368 0.0664,-17.97656 0.0184,-5.99287 -0.0229,-11.98329 -0.29492,-17.9668 -0.22407,1.3525 -0.52412,2.61351 -0.89063,3.78711 -0.36651,1.17361 -0.79977,2.25897 -1.29101,3.25977 -0.49125,1.0008 -1.0404,1.91786 -1.63868,2.75195 -0.59827,0.8341 -1.246,1.58628 -1.93359,2.25977 -0.68759,0.67349 -1.41659,1.26813 -2.17578,1.78711 -0.75919,0.51897 -1.54824,0.96147 -2.36133,1.33203 -0.81308,0.37056 -1.64878,0.66824 -2.49805,0.89648 -0.84926,0.22824 -1.71234,0.3865 -2.58007,0.47852 -0.86774,0.092 -1.74089,0.11817 -2.60938,0.0801 -0.86849,-0.0381 -1.73245,-0.14059 -2.58398,-0.30274 -0.85154,-0.16214 -1.69094,-0.38398 -2.50782,-0.66406 -0.81687,-0.28008 -1.61245,-0.61787 -2.37695,-1.00976 -0.7645,-0.39192 -1.497,-0.83828 -2.19141,-1.33594 -0.6944,-0.49766 -1.35042,-1.04723 -1.95703,-1.64453 -0.60661,-0.59731 -1.16492,-1.24274 -1.66601,-1.9336 -0.5011,-0.69086 -0.94439,-1.42676 -1.32227,-2.20508 -0.39525,-0.67537 -0.71815,-1.36459 -0.97851,-2.0664 -0.26037,-0.70182 -0.45728,-1.41509 -0.59961,-2.13672 -0.28466,-1.44327 -0.35004,-2.91953 -0.26368,-4.40234 0.0864,-1.48282 0.3239,-2.97397 0.64649,-4.44336 0.32259,-1.46939 0.7303,-2.91732 1.1543,-4.32032 0.20225,-0.90675 0.32692,-1.81633 0.38086,-2.7207 0.0539,-0.90437 0.0371,-1.80469 -0.0469,-2.69531 -0.084,-0.89062 -0.23566,-1.77124 -0.44727,-2.63672 -0.21159,-0.86548 -0.48368,-1.71595 -0.8125,-2.54492 -0.3288,-0.82897 -0.71473,-1.6369 -1.15039,-2.41797 -0.43566,-0.78108 -0.92098,-1.53406 -1.45312,-2.25586 -0.53214,-0.72181 -1.11026,-1.41135 -1.72852,-2.0625 -0.61825,-0.65115 -1.2767,-1.26483 -1.9707,-1.83399 -0.001,2.1e-4 -0.003,-1.8e-4 -0.004,0 -0.902,-0.73949 -1.86348,-1.40328 -2.87304,-1.98242 -1.00956,-0.57914 -2.06736,-1.07348 -3.16211,-1.46679 -1.09475,-0.39332 -2.2272,-0.68712 -3.38477,-0.86914 -1.15756,-0.18201 -2.34106,-0.25202 -3.53906,-0.19727 -22.9295,-0.021 -45.85782,-0.0376 -68.78711,-0.0391 z m 50.3418,16.875 c -0.45237,-0.006 -0.90974,0.029 -1.37305,0.11523 -4.001,0.344 -8.00095,0.68053 -12.00195,1.01953 h -0.002 c -0.0314,0.0126 -0.0642,0.0264 -0.0957,0.0391 l 0.0508,-0.0352 c -26.04803,2.20864 -52.10559,4.34021 -78.14062,6.67187 0.864,1.322 1.81965,2.60802 2.86523,3.81641 1.04558,1.20839 2.17999,2.3392 3.4043,3.35352 1.22431,1.01431 2.5373,1.91062 3.9375,2.65039 1.4002,0.73976 2.88769,1.32228 4.46094,1.70703 0.86775,0.263 1.46923,0.48394 2.44531,0.58594 0.97608,0.102 2.32791,0.0852 4.69922,-0.12305 4.74262,-0.4165 13.56242,-1.6013 31.60742,-4.1543 -0.0493,0.0426 -0.0839,0.0806 -0.13281,0.12305 l 0.20312,-0.0957 0.0899,-0.043 c -0.0491,0.007 -0.11127,0.007 -0.16016,0.0137 9.866,-1.396 22.48303,-3.19877 38.70703,-5.50977 1.53,-2.92 3.24688,-5.74772 5.04688,-8.51172 -1.1045,-0.487 -2.23158,-0.97826 -3.39258,-1.29101 -0.5805,-0.15638 -1.16958,-0.26878 -1.76758,-0.3125 -0.1495,-0.0109 -0.30038,-0.0175 -0.45117,-0.0195 z m -0.53321,13.32812 c -13.731,1.959 -27.48084,3.78032 -41.21484,5.69532 h -0.002 c -8.583,1.197 -17.15972,2.43076 -25.72071,3.75976 0.79899,1.2645 1.72254,2.44287 2.7461,3.51953 1.02356,1.07666 2.14876,2.05133 3.35351,2.90821 1.20475,0.85686 2.48752,1.59601 3.83008,2.20117 1.34256,0.60515 2.74464,1.07693 4.18164,1.39843 l 0.002,-0.002 c 1.3255,0.2975 2.68198,0.46855 4.05273,0.49805 1.37075,0.0295 2.75522,-0.0812 4.13672,-0.3457 14.501,-2.81602 28.91792,-6.13563 43.41992,-9.01563 0.0735,-1.78 0.19044,-3.55991 0.38281,-5.33203 0.19238,-1.77213 0.46003,-3.53666 0.83203,-5.28516 z m -49.75586,16.31641 c -0.26192,0.31053 -0.5164,0.58762 -0.76953,0.82812 0.25313,-0.2405 0.50761,-0.51759 0.76953,-0.82812 z" />
        <path
           id="path6976"
           style="opacity:1;fill:#000000;fill-opacity:1;stroke:none;stroke-width:19.648"
           d="m 560.41211,92.320312 c -1.24676,0.0107 -2.49891,0.156099 -3.73828,0.449219 -1.12563,0.20988 -2.21798,0.528203 -3.26758,0.945313 -1.0496,0.4171 -2.05624,0.931077 -3.00977,1.529297 -0.95354,0.59823 -1.85397,1.281916 -2.6914,2.035156 -0.83743,0.75324 -1.61314,1.576834 -2.31446,2.458984 -0.70127,0.882159 -1.32988,1.821669 -1.875,2.806639 -0.54507,0.98496 -1.00612,2.01647 -1.375,3.07813 -0.36886,1.06166 -0.64383,2.15336 -0.8164,3.26562 -0.17257,1.11225 -0.24297,2.24411 -0.19922,3.38086 l 0.002,0.002 c 0.021,0.549 0.0598,1.09844 0.13477,1.64844 0.10087,1.32438 0.35793,2.61448 0.75195,3.85547 0.39403,1.24099 0.92567,2.43302 1.57227,3.55859 0.6466,1.12557 1.40897,2.18594 2.26758,3.16407 0.8586,0.97812 1.81371,1.87322 2.84375,2.67187 1.03003,0.79866 2.13403,1.50073 3.29492,2.08789 1.16088,0.58716 2.37774,1.06067 3.6289,1.4043 1.25117,0.34363 2.53703,0.55692 3.83789,0.625 1.30087,0.0681 2.61774,-0.0105 3.92774,-0.25 1.16875,-0.1375 2.30346,-0.39586 3.39648,-0.76172 1.09303,-0.36585 2.14334,-0.83919 3.14063,-1.4043 0.99729,-0.56511 1.94268,-1.22177 2.82422,-1.95703 0.88154,-0.73526 1.69953,-1.54751 2.44531,-2.42383 0.74578,-0.87631 1.4178,-1.81642 2.00781,-2.80468 0.59001,-0.98826 1.09749,-2.0246 1.51172,-3.09571 0.41423,-1.07111 0.73665,-2.17788 0.95508,-3.30273 0.21843,-1.12486 0.33331,-2.26847 0.33594,-3.41797 -10e-4,1.4e-4 -0.003,-1.4e-4 -0.004,0 l 0.004,-0.002 c 0.003,-1.483 -0.17436,-2.97341 -0.56836,-4.44141 -0.263,-1.23675 -0.66131,-2.42979 -1.17578,-3.5664 -0.51448,-1.13672 -1.14603,-2.21599 -1.875,-3.22657 -0.72898,-1.010541 -1.55445,-1.952114 -2.46094,-2.810544 -0.9065,-0.85843 -1.89438,-1.634243 -2.94141,-2.314454 -1.04703,-0.68022 -2.1541,-1.264274 -3.30469,-1.740234 -1.15058,-0.47596 -2.34338,-0.844194 -3.56054,-1.089844 -1.21717,-0.24565 -2.45832,-0.368141 -3.70508,-0.357422 z m -3.76367,17.847658 c 0.35021,-2.8e-4 0.70162,0.002 1.05273,0.008 -0.54689,-0.009 -1.09197,-0.004 -1.63672,0.002 0.19488,-0.002 0.38883,-0.01 0.58399,-0.01 z m -1.42578,0.0234 c -0.38197,0.009 -0.76355,0.0228 -1.14454,0.0391 0.38097,-0.0162 0.76258,-0.03 1.14454,-0.0391 z m -1.94532,0.0742 c -0.45626,0.0256 -0.91025,0.0616 -1.36523,0.0977 0.45482,-0.0361 0.90913,-0.0721 1.36523,-0.0977 z m -1.96875,0.14258 c -0.65258,0.0586 -1.30491,0.12617 -1.95507,0.20703 0.65023,-0.0809 1.30251,-0.14844 1.95507,-0.20703 z" />
        <path
           id="path6979"
           style="opacity:1;fill:#000000;fill-opacity:1;stroke:none;stroke-width:19.648"
           d="m 556.85742,134.11719 c -2.14831,-0.0314 -4.2952,-0.0394 -6.43359,0.0293 -2.13839,0.0687 -4.26897,0.21469 -6.38672,0.49219 -0.52613,0.1885 -0.96819,0.46504 -1.33008,0.80274 -0.36189,0.33769 -0.64406,0.73667 -0.84961,1.17382 -0.20554,0.43716 -0.33547,0.91156 -0.39258,1.39844 -0.0571,0.48688 -0.0405,0.98578 0.043,1.47266 0.0834,0.48687 0.23509,0.9613 0.45117,1.39844 0.21609,0.43713 0.49511,0.83812 0.83594,1.17578 0.34083,0.33765 0.7435,0.61233 1.20117,0.80078 0.45768,0.18844 0.97049,0.2898 1.53711,0.27929 9.843,0.189 19.70588,0.0947 29.54688,0.0527 0.43975,0.051 0.86934,0.0254 1.27734,-0.0664 0.408,-0.0918 0.7951,-0.24882 1.1543,-0.45703 0.35919,-0.2082 0.68909,-0.46751 0.98242,-0.76562 0.29333,-0.29812 0.54936,-0.63453 0.75977,-0.9961 0.2104,-0.36156 0.3759,-0.74988 0.48632,-1.14843 0.11043,-0.39856 0.16678,-0.80772 0.16016,-1.2168 -0.007,-0.40908 -0.0761,-0.81779 -0.2168,-1.21094 -0.14071,-0.39314 -0.35265,-0.77034 -0.64453,-1.12109 -0.267,-0.36913 -0.56487,-0.67586 -0.88672,-0.92774 -0.32184,-0.25187 -0.66788,-0.4494 -1.0332,-0.60547 -0.73064,-0.31214 -1.53673,-0.45415 -2.37305,-0.51171 -1.67262,-0.11513 -3.46612,0.10646 -5.01562,-0.0195 -4.272,0.1885 -8.57642,0.0336 -12.87305,-0.0293 z" />
        <path
           id="path6982"
           style="opacity:1;fill:#000000;fill-opacity:1;stroke:none;stroke-width:19.648"
           d="m 553.63672,134.09375 c 1.07256,-0.003 2.14655,0.008 3.2207,0.0234 4.29663,0.0629 8.60105,0.21779 12.87305,0.0293 1.5495,0.126 3.343,-0.0956 5.01562,0.0195 0.83632,0.0576 1.64241,0.19957 2.37305,0.51171 0.36532,0.15607 0.71136,0.3536 1.0332,0.60547 0.32185,0.25188 0.61972,0.55861 0.88672,0.92774 0.29188,0.35075 0.50382,0.72795 0.64453,1.12109 0.14072,0.39315 0.21018,0.80186 0.2168,1.21094 0.007,0.40908 -0.0497,0.81824 -0.16016,1.2168 -0.11042,0.39855 -0.27592,0.78687 -0.48632,1.14843 -0.21041,0.36157 -0.46644,0.69798 -0.75977,0.9961 -0.29333,0.29811 -0.62323,0.55742 -0.98242,0.76562 -0.3592,0.20821 -0.7463,0.3652 -1.1543,0.45703 -0.408,0.0918 -0.83759,0.11741 -1.27734,0.0664 -9.841,0.042 -19.70388,0.13627 -29.54688,-0.0527 -0.56662,0.0105 -1.07943,-0.0909 -1.53711,-0.27929 -0.45767,-0.18845 -0.86034,-0.46313 -1.20117,-0.80078 -0.34083,-0.33766 -0.61985,-0.73865 -0.83594,-1.17578 -0.21608,-0.43714 -0.36773,-0.91157 -0.45117,-1.39844 -0.0834,-0.48688 -0.10007,-0.98578 -0.043,-1.47266 0.0571,-0.48688 0.18704,-0.96128 0.39258,-1.39844 0.20555,-0.43715 0.48772,-0.83613 0.84961,-1.17382 0.36189,-0.3377 0.80395,-0.61424 1.33008,-0.80274 2.11775,-0.2775 4.24833,-0.42348 6.38672,-0.49219 1.06919,-0.0343 2.14033,-0.0501 3.21289,-0.0527 z" />
        <path
           id="path6985"
           style="opacity:1;fill:#000000;fill-opacity:1;stroke:none;stroke-width:19.648"
           d="m 633.36719,135.00781 c -0.047,2.4185 0.1145,4.86192 0.125,7.29492 0.005,1.2165 -0.0287,2.43085 -0.14258,3.63672 -0.11388,1.20588 -0.30886,2.4041 -0.63086,3.58985 -0.25387,1.1805 -0.58475,2.33784 -0.98828,3.46875 -0.40353,1.13091 -0.87892,2.23486 -1.41992,3.30468 -0.541,1.06983 -1.14818,2.10627 -1.81446,3.10352 -0.66628,0.99725 -1.3925,1.95595 -2.17187,2.86914 -0.77938,0.91319 -1.61191,1.78198 -2.49219,2.59961 -0.88028,0.81763 -1.80834,1.58434 -2.77734,2.29492 -0.969,0.71058 -1.97986,1.365 -3.02539,1.95703 -1.04553,0.59204 -2.1245,1.12199 -3.23438,1.58399 -0.97281,0.43769 -1.98434,0.79932 -3.02539,1.10156 -1.04105,0.30224 -2.1127,0.54426 -3.20703,0.74023 -2.18866,0.39195 -4.46916,0.60017 -6.78125,0.74219 -2.31209,0.14203 -4.65481,0.21814 -6.9707,0.34375 -2.3159,0.12562 -4.6046,0.30181 -6.80469,0.64453 -1.10005,0.17136 -2.17789,0.38293 -3.22656,0.65235 -1.04867,0.26942 -2.06845,0.59552 -3.05078,0.99218 -0.98234,0.39667 -1.92707,0.86487 -2.82813,1.41797 -0.90106,0.55311 -1.75768,1.19096 -2.5625,1.92969 -0.80482,0.73873 -1.55831,1.5777 -2.25195,2.53125 -0.69364,0.95355 -1.32703,2.0212 -1.89453,3.21875 -0.56751,1.19755 -1.06968,2.52535 -1.4961,3.99609 -0.42641,1.47075 -0.77845,3.08625 -1.04883,4.85938 1.58313,-2.14875 3.05745,-3.92104 4.47852,-5.37891 1.42107,-1.45786 2.7896,-2.60209 4.1582,-3.49804 0.6843,-0.44798 1.36882,-0.83434 2.06055,-1.16602 0.69173,-0.33168 1.39066,-0.60833 2.10352,-0.83984 1.42571,-0.46302 2.90759,-0.74133 4.5,-0.90039 1.5924,-0.15907 3.29538,-0.19952 5.16406,-0.1836 1.86868,0.0159 3.90171,0.0865 6.15625,0.14844 2.25454,0.0619 4.73049,0.1148 7.48047,0.0937 2.74998,-0.0211 5.77586,-0.11466 9.13086,-0.34766 1.29837,-0.16662 2.56119,-0.43045 3.78711,-0.7832 1.22591,-0.35275 2.41376,-0.79513 3.55859,-1.31641 1.14483,-0.52127 2.24761,-1.12271 3.30273,-1.79492 1.05512,-0.6722 2.06275,-1.41518 3.01954,-2.2207 0.95678,-0.80552 1.86306,-1.67251 2.71289,-2.59375 0.84982,-0.92124 1.64271,-1.89666 2.37695,-2.91602 0.73424,-1.01935 1.40949,-2.08372 2.01953,-3.18359 0.61004,-1.09987 1.15561,-2.23566 1.63281,-3.39844 0.47721,-1.16278 0.88496,-2.35246 1.22071,-3.56054 0.33574,-1.20809 0.59949,-2.43413 0.78515,-3.66993 0.18567,-1.23579 0.29336,-2.48066 0.32031,-3.72656 0.027,-1.2459 -0.0276,-2.49207 -0.16796,-3.73047 -0.14038,-1.2384 -0.36532,-2.47029 -0.68165,-3.68359 -0.31632,-1.2133 -0.7237,-2.40949 -1.2246,-3.58008 -0.50091,-1.17059 -1.09691,-2.3155 -1.79102,-3.42578 -0.69411,-1.11029 -1.48688,-2.18442 -2.38281,-3.2168 z" />
        <path
           id="path6992"
           style="opacity:1;fill:#000000;fill-opacity:1;stroke:none;stroke-width:19.648"
           d="m 487.71875,135.00586 c -0.85844,0.95506 -1.62311,1.96074 -2.29687,3.00781 -0.67377,1.04707 -1.25658,2.13532 -1.75196,3.25586 -0.49537,1.12054 -0.90329,2.27375 -1.22656,3.44922 -0.32327,1.17547 -0.56131,2.37409 -0.71875,3.58594 -0.15744,1.21185 -0.23453,2.43633 -0.23242,3.66601 0.002,1.22969 0.0829,2.46438 0.23828,3.69336 0.15536,1.22899 0.38515,2.45237 0.6875,3.66211 0.30235,1.20974 0.67805,2.40617 1.12109,3.57813 0.44305,1.17195 0.95379,2.31992 1.53125,3.43554 0.57747,1.11563 1.22018,2.19753 1.92578,3.23828 0.7056,1.04076 1.47528,2.04095 2.30274,2.98829 0.82745,0.94733 1.71322,1.84235 2.65625,2.67773 0.94303,0.83538 1.94182,1.60957 2.99414,2.31445 1.05232,0.70488 2.15912,1.34065 3.31445,1.89649 1.15533,0.55584 2.35928,1.03167 3.61133,1.41992 1.25205,0.38825 2.55203,0.6885 3.89453,0.89062 3.08825,0.23426 5.93846,0.33048 8.58594,0.35352 2.64748,0.023 5.09226,-0.0275 7.36523,-0.0859 2.27297,-0.0585 4.37512,-0.12447 6.33985,-0.13476 1.96472,-0.0103 3.79092,0.0355 5.51367,0.20312 1.72275,0.1676 3.34163,0.45647 4.88867,0.93164 0.77352,0.23759 1.52947,0.52253 2.27149,0.86133 0.74201,0.3388 1.47065,0.73127 2.18945,1.1875 0.71879,0.45623 1.427,0.97654 2.13086,1.56641 0.70386,0.58987 1.4024,1.25051 2.09961,1.99023 1.39441,1.47945 2.78367,3.27505 4.20117,5.45117 -0.20906,-1.76862 -0.51247,-3.38104 -0.90039,-4.85156 -0.38792,-1.47051 -0.85933,-2.80092 -1.4082,-4.00195 -0.54888,-1.20103 -1.17332,-2.27421 -1.86524,-3.23438 -0.69192,-0.96017 -1.45247,-1.80675 -2.26953,-2.55468 -0.81706,-0.74794 -1.69094,-1.39662 -2.61523,-1.96094 -0.9243,-0.56432 -1.8985,-1.04379 -2.91211,-1.45313 -1.01362,-0.40933 -2.06731,-0.74827 -3.15235,-1.03125 -1.08503,-0.28297 -2.2013,-0.51008 -3.33984,-0.69531 -2.2771,-0.37047 -4.64364,-0.57335 -7.02735,-0.72461 -2.3837,-0.15126 -4.7838,-0.25105 -7.13085,-0.41211 -2.34706,-0.16105 -4.64144,-0.38336 -6.8086,-0.7832 -1.08358,-0.19992 -2.13474,-0.44549 -3.14648,-0.74805 -1.01175,-0.30255 -1.98425,-0.66189 -2.90625,-1.0957 -1.1255,-0.48425 -2.2176,-1.04088 -3.27344,-1.66016 -1.05584,-0.61927 -2.07505,-1.3013 -3.04883,-2.04297 -0.97378,-0.74166 -1.90191,-1.54311 -2.78125,-2.39453 -0.87933,-0.85141 -1.70992,-1.75459 -2.48242,-2.70312 -0.7725,-0.94853 -1.48735,-1.9416 -2.14063,-2.97461 -0.65327,-1.03301 -1.24396,-2.10413 -1.76562,-3.20899 -0.52166,-1.10485 -0.97391,-2.24414 -1.35156,-3.4082 -0.37765,-1.16406 -0.6811,-2.35383 -0.90235,-3.56445 -0.21725,-1.12025 -0.34257,-2.24714 -0.41015,-3.37696 -0.0676,-1.12981 -0.0769,-2.26173 -0.0645,-3.39648 0.0249,-2.2695 0.13941,-4.54514 0.0664,-6.80664 z" />
        <path
           id="path6995"
           style="opacity:1;fill:#000000;fill-opacity:1;stroke:none;stroke-width:19.648"
           d="m 478.73438,157.17188 c -6.94151,1.53399 -13.90582,2.96335 -20.86719,4.4121 -6.96138,1.44875 -13.91971,2.9173 -20.84571,4.5293 0.657,0.75513 1.36212,1.47989 2.10743,2.16797 0.7453,0.68808 1.53047,1.3393 2.35156,1.94336 0.82109,0.60405 1.67813,1.161 2.5625,1.66406 0.88437,0.50306 1.7973,0.9528 2.73242,1.33789 0.93513,0.3851 1.89187,0.70688 2.86523,0.95703 0.97337,0.25016 1.9638,0.42715 2.9629,0.52539 0.99909,0.0983 2.00722,0.11752 3.01953,0.0469 1.0123,-0.0706 2.02801,-0.22983 3.04101,-0.48633 7.79,-2.262 15.53839,-4.66036 23.27539,-7.06836 -0.6545,-1.6335 -1.24401,-3.28648 -1.77539,-4.95898 -0.53137,-1.6725 -1.00568,-3.36381 -1.42968,-5.07031 z" />
        <path
           id="path6998"
           style="opacity:1;fill:#000000;fill-opacity:1;stroke:none;stroke-width:19.648"
           d="m 483.46875,169.92383 c -3.963,1.2145 -7.94456,2.37079 -11.91406,3.56055 -3.9695,1.18975 -7.92775,2.41231 -11.84375,3.75781 1.204,1.2485 2.54265,2.36939 3.98242,3.33984 1.43977,0.97045 2.98008,1.79155 4.58789,2.44336 1.60781,0.65181 3.28405,1.1332 4.99219,1.42578 1.70814,0.29258 3.4487,0.39631 5.18945,0.28906 1.2225,-0.2095 2.40941,-0.53226 3.57422,-0.92773 1.16481,-0.39547 2.30675,-0.86461 3.4375,-1.36523 2.2615,-1.00125 4.47909,-2.13136 6.74609,-3.06836 -1.665,-1.377 -3.23343,-2.859 -4.69531,-4.4375 -1.46187,-1.5785 -2.81614,-3.25358 -4.05664,-5.01758 z" />
        <path
           id="path7003"
           style="opacity:1;fill:#000000;fill-opacity:1;stroke:none;stroke-width:19.648"
           d="m 483.46875,169.92383 c 1.2405,1.764 2.59477,3.43908 4.05664,5.01758 1.46188,1.5785 3.03031,3.0605 4.69531,4.4375 -2.267,0.937 -4.48459,2.06711 -6.74609,3.06836 -1.13075,0.50062 -2.27269,0.96976 -3.4375,1.36523 -1.16481,0.39547 -2.35172,0.71823 -3.57422,0.92773 -1.74075,0.10725 -3.48131,0.004 -5.18945,-0.28906 -1.70814,-0.29258 -3.38438,-0.77397 -4.99219,-1.42578 -1.60781,-0.65181 -3.14812,-1.47291 -4.58789,-2.44336 -1.43977,-0.97045 -2.77842,-2.09134 -3.98242,-3.33984 3.916,-1.3455 7.87425,-2.56806 11.84375,-3.75781 3.9695,-1.18976 7.95106,-2.34605 11.91406,-3.56055 z" />
        <path
           id="path7001"
           style="opacity:1;fill:#000000;fill-opacity:1;stroke:none;stroke-width:19.648"
           d="m 495.3418,181.35742 c -4.199,1.801 -8.41896,3.55933 -12.50196,5.61133 0.98425,0.84275 2.00693,1.6607 3.06836,2.42383 1.06144,0.76312 2.16149,1.4714 3.30274,2.09765 1.14125,0.62625 2.32318,1.16944 3.54687,1.60157 1.22369,0.43212 2.49008,0.75284 3.79883,0.93359 2.38638,0.2545 4.9133,0.36404 7.52539,0.40234 2.6121,0.0383 5.30888,0.006 8.0332,-0.0234 2.72432,-0.0299 5.47617,-0.0577 8.19922,-0.008 2.72305,0.0499 5.41711,0.17746 8.02539,0.45508 1.30414,0.13882 2.58763,0.31557 3.8418,0.53906 1.25417,0.2235 2.47991,0.49363 3.66992,0.82032 1.19001,0.32668 2.34342,0.70983 3.45508,1.1582 1.11166,0.44837 2.18009,0.96224 3.19922,1.55078 1.01913,0.58855 1.98993,1.25082 2.90234,1.99805 0.91241,0.74722 1.7671,1.5795 2.5586,2.50391 0.7915,0.9244 1.51937,1.94046 2.17578,3.06054 0.6564,1.12008 1.24092,2.34349 1.74804,3.67774 -0.24331,-2.57269 -0.592,-4.88969 -1.03906,-6.97461 -0.44706,-2.08492 -0.99217,-3.93889 -1.625,-5.58594 -0.63282,-1.64705 -1.35368,-3.08662 -2.15429,-4.3457 -0.80062,-1.25909 -1.68044,-2.33679 -2.63086,-3.25782 -0.95043,-0.92102 -1.97243,-1.68549 -3.05469,-2.31836 -1.08226,-0.63286 -2.22576,-1.13469 -3.42188,-1.52929 -1.19611,-0.3946 -2.44433,-0.68243 -3.73632,-0.88867 -1.292,-0.20624 -2.62816,-0.33066 -3.99805,-0.39844 -2.73978,-0.13556 -5.61704,-0.0447 -8.56055,0.0742 -2.94351,0.11886 -5.95166,0.26615 -8.95508,0.24023 -1.5017,-0.013 -3.00247,-0.0694 -4.49218,-0.19336 -1.48972,-0.12401 -2.96994,-0.3166 -4.42969,-0.60156 -1.45975,-0.28496 -2.89875,-0.66239 -4.31055,-1.1582 -1.4118,-0.49581 -2.79475,-1.10868 -4.14062,-1.86524 z" />
        <path
           id="path5961"
           style="display:inline;opacity:1;fill:#000000;fill-opacity:1;stroke:none;stroke-width:19.648"
           d="m 583.56836,364.85938 c -4.09424,-0.73574 -6.97852,-1.34571 -6.97852,-1.34571 0,0 -0.41314,1.04831 -1.25976,2.75781 -0.84644,1.70913 -2.12741,4.0774 -3.86133,6.72071 2.42855,-1.1377 4.65031,-2.39582 6.66602,-3.75781 2.01637,-1.36251 3.82659,-2.827 5.43359,-4.375 z" />
        <path
           id="path7006"
           style="display:inline;opacity:1;fill:#000000;fill-opacity:1;stroke:none;stroke-width:19.648"
           d="m 542.7793,412.48633 v 0.0215 c 0.73574,0.88695 1.52768,1.70452 2.36523,2.4375 0.84127,0.73624 1.72889,1.38742 2.6582,1.94336 0.92932,0.55594 1.89971,1.01658 2.90235,1.36719 1.00264,0.35061 2.03836,0.59069 3.09961,0.71094 -1.1465,-1.8065 -2.61797,-3.37908 -4.01172,-5.00196 -0.69688,-0.81144 -1.37439,-1.63425 -1.98242,-2.50586 -0.60803,-0.87161 -1.14571,-1.79242 -1.56446,-2.79492 -0.21139,-0.45668 -0.41019,-0.91904 -0.59375,-1.39062 -0.96742,1.73442 -1.93145,3.48538 -2.87304,5.21289 z" />
        <path
           id="path5963-0"
           style="display:inline;opacity:1;fill:#000000;fill-opacity:1;stroke:none;stroke-width:19.648"
           d="m 574.75781,374.57422 c -2.116,0.964 -4.25729,1.86681 -6.40429,2.75781 3e-4,-3.9e-4 -3.1e-4,-0.002 0,-0.002 -4.268,1.772 -8.55861,3.48895 -12.72461,5.50195 0.053,2.51734 0.10145,4.99036 0.14843,7.42774 0,0 0,0.002 0,0.002 l -0.002,0.002 c 0.19575,10.1205 0.3594,19.54489 0.55078,28.11328 0.19137,8.56839 0.40989,16.28126 0.71289,22.97657 0.303,6.69532 0.69203,12.37374 1.22266,16.875 0.26531,2.25064 0.56619,4.20571 0.91016,5.84765 0.34397,1.64194 0.73084,2.96977 1.16796,3.96289 0.5545,-0.9895 1.04625,-2.0155 1.42188,-3.07812 0.37562,-1.06263 0.63364,-2.16088 0.72266,-3.29688 0.50525,-3.97625 0.94005,-10.22026 1.30859,-17.55078 0.36853,-7.33052 0.67093,-15.74825 0.91406,-24.07031 0.48625,-16.64413 0.73461,-32.9078 0.78711,-39.3418 v -0.002 c 0.003,-0.402 0.006,-0.7688 0.008,-1.0918 0.20554,0.12871 0.4068,0.26865 0.61133,0.40039 v 0.002 c 1.819,1.18 3.58609,2.49745 5.13672,4.01757 0.77531,0.76007 1.49739,1.57152 2.14453,2.44141 0.64714,0.86989 1.21902,1.79867 1.69727,2.79492 0.40313,0.763 0.74314,1.54604 1.02343,2.34571 0.28029,0.79962 0.5003,1.61567 0.66602,2.4414 0.33143,1.65147 0.44248,3.34423 0.36523,5.03711 -0.0773,1.69287 -0.34189,3.38494 -0.76171,5.03516 -0.41981,1.65021 -0.99516,3.2597 -1.69141,4.7832 -0.437,0.96575 -0.97308,1.85975 -1.57227,2.71094 -0.59919,0.85118 -1.26086,1.65867 -1.94336,2.45117 -1.365,1.585 -2.81796,3.10942 -4.04296,4.79492 0.91032,-0.0763 1.80968,-0.2496 2.68945,-0.50976 0.87976,-0.26016 1.74007,-0.6073 2.57617,-1.03516 0.8361,-0.42786 1.64646,-0.93622 2.42578,-1.51563 0.77932,-0.57941 1.52691,-1.2305 2.23633,-1.94531 0.70942,-0.71481 1.3814,-1.49406 2.00781,-2.32812 0.62641,-0.83407 1.208,-1.72299 1.73828,-2.66016 0.53029,-0.93717 1.00864,-1.92118 1.42969,-2.94531 0.42104,-1.02413 0.78531,-2.08866 1.08399,-3.1836 0.29869,-1.09493 0.5321,-2.22149 0.69531,-3.37109 0.16323,-1.1496 0.25685,-2.32172 0.27148,-3.50976 0.0146,-1.18811 -0.0502,-2.3911 -0.19726,-3.60157 -0.14707,-1.21047 -0.37733,-2.42784 -0.69922,-3.64453 -0.3219,-1.21669 -0.73432,-2.43386 -1.24414,-3.64062 -0.50983,-1.20675 -1.11726,-2.40332 -1.82813,-3.58399 -0.71087,-1.18067 -1.52614,-2.34398 -2.45117,-3.48242 -0.92504,-1.13844 -1.95902,-2.25197 -3.11133,-3.33203 z" />
      </g>
      <g
         id="layer1-1"
         inkscape:label="Layer 1"
         style="display:inline"
         transform="translate(-360.98633,-92.319664)" />
    </g>
  </g>
</svg>
