<?xml version="1.0" encoding="UTF-8" standalone="no"?>
<!-- Created with Inkscape (http://www.inkscape.org/) -->

<svg
   width="23.494669mm"
   height="26.585724mm"
   viewBox="0 0 23.494669 26.585724"
   version="1.1"
   id="svg4819"
   inkscape:version="1.1.2 (0a00cf5339, 2022-02-04)"
   sodipodi:docname="bloem_grondstoffen.svg"
   xmlns:inkscape="http://www.inkscape.org/namespaces/inkscape"
   xmlns:sodipodi="http://sodipodi.sourceforge.net/DTD/sodipodi-0.dtd"
   xmlns="http://www.w3.org/2000/svg"
   xmlns:svg="http://www.w3.org/2000/svg">
  <sodipodi:namedview
     id="namedview4821"
     pagecolor="#ffffff"
     bordercolor="#666666"
     borderopacity="1.0"
     inkscape:pageshadow="2"
     inkscape:pageopacity="0.0"
     inkscape:pagecheckerboard="0"
     inkscape:document-units="mm"
     showgrid="false"
     inkscape:zoom="6.9040128"
     inkscape:cx="26.433902"
     inkscape:cy="47.001651"
     inkscape:window-width="1920"
     inkscape:window-height="1024"
     inkscape:window-x="0"
     inkscape:window-y="0"
     inkscape:window-maximized="1"
     inkscape:current-layer="layer1" />
  <defs
     id="defs4816">
    <linearGradient
       id="linearGradient4145"
       y2="262.29001"
       gradientUnits="userSpaceOnUse"
       x2="347.53"
       y1="260.82999"
       x1="312.14001"
       inkscape:collect="always">
      <stop
         id="stop4141"
         style="stop-color:#f4eed7"
         offset="0" />
      <stop
         id="stop4143"
         style="stop-color:#24221c"
         offset="1" />
    </linearGradient>
    <linearGradient
       id="linearGradient24"
       y2="29.122"
       gradientUnits="userSpaceOnUse"
       x2="72.061996"
       gradientTransform="matrix(0.7972,-0.06728,0.27264,-0.82584,-0.08009,41.84)"
       y1="29.122"
       x1="-14.394">
      <stop
         id="stop26"
         style="stop-color:#abacb0"
         offset="0" />
      <stop
         id="stop28"
         style="stop-color:#666669"
         offset="1" />
    </linearGradient>
    <linearGradient
       id="linearGradient44"
       y2="34.195"
       gradientUnits="userSpaceOnUse"
       x2="76.241997"
       gradientTransform="matrix(0.79968,-0.02384,0.31312,-0.80968,-0.079879,41.84)"
       y1="34.195"
       x1="2.4595001">
      <stop
         id="stop46"
         style="stop-color:#e6e7ed"
         offset="0" />
      <stop
         id="stop48"
         style="stop-color:#666669"
         offset="1" />
    </linearGradient>
    <linearGradient
       id="linearGradient62"
       y2="51.616001"
       gradientUnits="userSpaceOnUse"
       x2="63.926998"
       gradientTransform="matrix(0.79864,0.04632,0.36984,-0.77992,-0.07999,41.84)"
       y1="51.616001"
       x1="-12.075">
      <stop
         id="stop64"
         style="stop-color:#97989c"
         offset="0" />
      <stop
         id="stop66"
         style="stop-color:#666669"
         offset="1" />
    </linearGradient>
    <linearGradient
       id="linearGradient80"
       y2="-25.187"
       gradientUnits="userSpaceOnUse"
       x2="60.882999"
       gradientTransform="matrix(0.31144,-0.73688,-0.86624,-0.00536,-0.08027,41.84)"
       y1="-25.187"
       x1="47.720001">
      <stop
         id="stop82"
         style="stop-color:#333336"
         offset="0" />
      <stop
         id="stop84"
         style="stop-color:#3f4042"
         offset=".5176" />
      <stop
         id="stop86"
         style="stop-color:#454647"
         offset="1" />
    </linearGradient>
    <linearGradient
       id="linearGradient100"
       y2="-22.872999"
       gradientUnits="userSpaceOnUse"
       x2="52.380001"
       gradientTransform="matrix(0.29712,-0.7428,-0.8668,0.01296,-0.080263,41.84)"
       y1="-22.872999"
       x1="39.860001">
      <stop
         id="stop102"
         style="stop-color:#343436"
         offset="0" />
      <stop
         id="stop104"
         style="stop-color:#404042"
         offset=".12550" />
      <stop
         id="stop106"
         style="stop-color:#505153"
         offset=".35690" />
      <stop
         id="stop108"
         style="stop-color:#565759"
         offset=".53330" />
      <stop
         id="stop110"
         style="stop-color:#535456"
         offset="0.702" />
      <stop
         id="stop112"
         style="stop-color:#4a4a4c"
         offset=".83140" />
      <stop
         id="stop114"
         style="stop-color:#3a3a3c"
         offset=".94120" />
      <stop
         id="stop116"
         style="stop-color:#343436"
         offset=".97650" />
      <stop
         id="stop118"
         style="stop-color:#343436"
         offset="1" />
    </linearGradient>
    <linearGradient
       id="linearGradient134"
       y2="2.4033"
       gradientUnits="userSpaceOnUse"
       x2="52.652"
       gradientTransform="matrix(0.15704,-0.7844,-0.7684,-0.23712,-0.08002,41.84)"
       y1="2.4033"
       x1="30.878">
      <stop
         id="stop136"
         style="stop-color:#77787a"
         offset="0" />
      <stop
         id="stop138"
         style="stop-color:#575759"
         offset="1" />
    </linearGradient>
    <linearGradient
       id="linearGradient152"
       y2="38.609001"
       gradientUnits="userSpaceOnUse"
       x2="-3.2038"
       gradientTransform="matrix(0.73872,0.30696,0.18888,-0.78784,-0.079922,41.84)"
       y1="38.609001"
       x1="-11.217">
      <stop
         id="stop154"
         style="stop-color:#e6e7ed"
         offset="0" />
      <stop
         id="stop156"
         style="stop-color:#a6a6ab"
         offset="1" />
    </linearGradient>
    <linearGradient
       id="linearGradient172"
       y2="42.344002"
       gradientUnits="userSpaceOnUse"
       x2="9.8250999"
       gradientTransform="matrix(0.78704,-0.14328,0.00456,-0.814,-0.079907,41.84)"
       y1="42.344002"
       x1="-1.7622">
      <stop
         id="stop174"
         style="stop-color:#abacb0"
         offset="0" />
      <stop
         id="stop176"
         style="stop-color:#666669"
         offset="1" />
    </linearGradient>
    <radialGradient
       id="radialGradient190"
       gradientUnits="userSpaceOnUse"
       cy="4.1226001"
       cx="31.597"
       gradientTransform="matrix(0.29712,-0.7428,0.99536,0.31936,-7.3315,39.513)"
       r="1.3463">
      <stop
         id="stop192"
         style="stop-color:#c4c5c9"
         offset="0" />
      <stop
         id="stop194"
         style="stop-color:#666669"
         offset="1" />
    </radialGradient>
    <radialGradient
       id="radialGradient212"
       gradientUnits="userSpaceOnUse"
       cy="-1.9312"
       cx="37.848999"
       gradientTransform="matrix(0.29712,-0.7428,0.99536,0.31936,3.3166,42.93)"
       r="1.3463">
      <stop
         id="stop214"
         style="stop-color:#c4c5c9"
         offset="0" />
      <stop
         id="stop216"
         style="stop-color:#666669"
         offset="1" />
    </radialGradient>
    <radialGradient
       id="radialGradient230"
       gradientUnits="userSpaceOnUse"
       cy="-8.9506998"
       cx="35.694"
       gradientTransform="matrix(0.29712,-0.7428,0.99536,0.31936,15.663,46.892)"
       r="1.3463">
      <stop
         id="stop232"
         style="stop-color:#c4c5c9"
         offset="0" />
      <stop
         id="stop234"
         style="stop-color:#666669"
         offset="1" />
    </radialGradient>
    <radialGradient
       id="radialGradient252"
       gradientUnits="userSpaceOnUse"
       cy="-14.911"
       cx="41.915001"
       gradientTransform="matrix(0.29712,-0.7428,0.99536,0.31936,26.147,50.257)"
       r="1.3463">
      <stop
         id="stop254"
         style="stop-color:#c4c5c9"
         offset="0" />
      <stop
         id="stop256"
         style="stop-color:#666669"
         offset="1" />
    </radialGradient>
    <radialGradient
       id="radialGradient270"
       gradientUnits="userSpaceOnUse"
       cy="-20.927999"
       cx="39.375999"
       gradientTransform="matrix(0.29712,-0.7428,0.99536,0.31936,36.73,53.653)"
       r="1.3463">
      <stop
         id="stop272"
         style="stop-color:#c4c5c9"
         offset="0" />
      <stop
         id="stop274"
         style="stop-color:#666669"
         offset="1" />
    </radialGradient>
    <radialGradient
       id="radialGradient290"
       gradientUnits="userSpaceOnUse"
       cy="-26.879"
       cx="45.486"
       gradientTransform="matrix(0.29712,-0.7428,0.99536,0.31936,47.199,57.012)"
       r="1.3463">
      <stop
         id="stop292"
         style="stop-color:#c4c5c9"
         offset="0" />
      <stop
         id="stop294"
         style="stop-color:#666669"
         offset="1" />
    </radialGradient>
    <radialGradient
       id="radialGradient310"
       gradientUnits="userSpaceOnUse"
       cy="-33.992001"
       cx="43.362999"
       gradientTransform="matrix(0.29712,-0.7428,0.99536,0.31936,59.709,61.026)"
       r="1.3463">
      <stop
         id="stop312"
         style="stop-color:#c4c5c9"
         offset="0" />
      <stop
         id="stop314"
         style="stop-color:#666669"
         offset="1" />
    </radialGradient>
    <radialGradient
       id="radialGradient330"
       gradientUnits="userSpaceOnUse"
       cy="-39.960999"
       cx="49.424999"
       gradientTransform="matrix(0.29712,-0.7428,0.99536,0.31936,70.21,64.396)"
       r="1.3463">
      <stop
         id="stop332"
         style="stop-color:#c4c5c9"
         offset="0" />
      <stop
         id="stop334"
         style="stop-color:#666669"
         offset="1" />
    </radialGradient>
    <radialGradient
       id="radialGradient350"
       gradientUnits="userSpaceOnUse"
       cy="-46.293999"
       cx="47.152"
       gradientTransform="matrix(0.29712,-0.7428,0.99536,0.31936,81.344,67.97)"
       r="1.3463">
      <stop
         id="stop352"
         style="stop-color:#c4c5c9"
         offset="0" />
      <stop
         id="stop354"
         style="stop-color:#666669"
         offset="1" />
    </radialGradient>
    <radialGradient
       id="radialGradient372"
       gradientUnits="userSpaceOnUse"
       cy="-52.264"
       cx="53.215"
       gradientTransform="matrix(0.29712,-0.7428,0.99536,0.31936,91.848,71.34)"
       r="1.3463">
      <stop
         id="stop374"
         style="stop-color:#c4c5c9"
         offset="0" />
      <stop
         id="stop376"
         style="stop-color:#666669"
         offset="1" />
    </radialGradient>
    <radialGradient
       id="radialGradient390"
       gradientUnits="userSpaceOnUse"
       cy="-57.342999"
       cx="50.528"
       gradientTransform="matrix(0.29712,-0.7428,0.99536,0.31936,100.78,74.206)"
       r="1.3463">
      <stop
         id="stop392"
         style="stop-color:#c4c5c9"
         offset="0" />
      <stop
         id="stop394"
         style="stop-color:#666669"
         offset="1" />
    </radialGradient>
    <radialGradient
       id="radialGradient412"
       gradientUnits="userSpaceOnUse"
       cy="-64.723999"
       cx="57.001999"
       gradientTransform="matrix(0.29712,-0.7428,0.99536,0.31936,113.77,78.373)"
       r="1.3463">
      <stop
         id="stop414"
         style="stop-color:#c4c5c9"
         offset="0" />
      <stop
         id="stop416"
         style="stop-color:#666669"
         offset="1" />
    </radialGradient>
  </defs>
  <g
     inkscape:label="Layer 1"
     inkscape:groupmode="layer"
     id="layer1"
     transform="translate(-178.15923,-263.76261)">
    <g
       id="layer2"
       inkscape:label="layer"
       transform="matrix(0.04261531,0,0,0.04261531,176.16181,260.05845)">
      <path
         id="rect3076"
         sodipodi:nodetypes="cccccccc"
         style="fill:#aca793"
         inkscape:connector-curvature="0"
         d="m 422.23,104.88 c 18.059,17.558 42.804,41.588 69.906,67.844 v 117.69 l -41.875,30.531 -101.78,142.22 -79.005,3.8583 -78.819,-363.79 z" />
      <path
         id="path4116"
         sodipodi:nodetypes="ccccscsccsssssscsscccccccscsscc"
         style="fill:#7f7d72"
         inkscape:connector-curvature="0"
         d="m 120.11,104.97 211.53,9.8125 c 0,0 -0.52526,0.36289 -1.4062,0.96875 l 8.125,0.15625 c 0,0 -11.009,13.781 -9.9062,19.844 1.1024,6.063 0,19.281 0,19.281 0,0 -2.2015,8.2646 -4.4062,4.4062 -2.2047,-3.8583 -5.5312,-29.219 -5.5312,-29.219 l -2.6875,-3.3125 c -8.1331,7.0928 -16.806,16.323 -19.031,24.844 -1.5551,5.9533 14.681,82.645 18.875,82.094 4.1943,-0.55119 24.611,9.3944 23.562,14.906 -1.0486,5.5118 -2.6213,87.61 4.7188,91.469 7.3401,3.8583 12.59,-0.55388 14.688,-1.6562 2.0972,-1.1024 -4.1804,-10.448 1.0625,-17.062 5.2429,-6.6142 14.688,-13.25 14.688,-13.25 0,0 -8.9375,16.548 -8.9375,20.406 0,3.8583 16.264,30.329 17.312,34.188 0.71254,2.6218 3.7232,21.875 5.9688,36.5 l -33.219,44.5 -5.0625,19.312 -182.78,-7 z m 240.09,16.688 52.25,0.78125 c 0,0 -6.2328,21.042 -12.469,25.719 -3.4866,2.615 -7.6659,18.596 -17.906,10.75 2.1702,-2.9261 4.0753,-6.0826 4.6562,-8.4062 1.559,-6.236 -12.476,-13.274 -15.594,-10.156 -3.118,3.118 -7.8125,14.812 -7.8125,14.812 z" />
      <path
         id="path4121"
         sodipodi:nodetypes="cscccssccssccsccscccccsssccc"
         style="fill:#57564e"
         inkscape:connector-curvature="0"
         d="m 237.5,115.35 c 0,0 -49.055,55.118 -49.055,62.835 0,7.7166 3.3071,36.378 3.3071,36.378 l 12.677,-14.331 4.9607,7.1654 c 0,0 -22.047,13.78 -24.803,24.252 -2.7559,10.473 3.3071,90.394 10.473,93.701 7.1654,3.3071 10.473,-11.024 10.473,-11.024 l 13.78,-15.984 c 0,0 -8.2678,13.78 -8.819,18.189 -0.55119,4.4095 -9.9213,44.095 -3.3071,46.851 6.6142,2.7559 11.575,-12.126 11.575,-12.126 l 4.4095,9.3701 c 0,0 72.756,52.363 77.166,50.158 4.4095,-2.2047 18.189,-14.882 18.189,-14.882 l 2.2047,3.8583 c 0,0 -8.819,9.9213 -4.9607,13.228 3.8583,3.3071 31.418,4.4095 31.418,4.4095 l 3.8583,-10.473 24.252,6.6142 -19.843,47.402 -215.52,4.9215 c 0,0 -8.7714,-20.018 -11.6,-58.893 -1.9552,-26.875 2.9995,-70.088 -1.0149,-91.923 -4.1594,-22.623 -19.667,-63.857 -21.27,-89.585 -2.55,-41.04 -12.876,-122.56 -12.876,-122.56 l 136.62,-0.22831 z" />
      <path
         id="path4083"
         style="fill:url(#linearGradient4145)"
         sodipodi:type="inkscape:offset"
         inkscape:original="M 323.75 153.75 C 322.42623 153.7383 320.99791 153.95835 319.5625 154.5625 C 318.32752 154.89027 316.97176 155.66306 315.65625 157.15625 C 277.77174 164.65186 281.375 202.4375 281.375 202.4375 L 247.21875 218.40625 L 246.375 222.28125 C 246.375 222.28125 262.39114 217.31399 280.4375 213.28125 C 281.97117 212.93853 283.50823 212.60691 285.0625 212.28125 C 286.98777 221.00402 289.40109 231.96724 290.46875 236.59375 C 292.1223 243.75916 288.8125 257 288.8125 257 L 294.875 256.4375 L 296.84375 270.15625 L 291.53125 272.46875 L 296.59375 277.53125 L 297.28125 283.5 C 292.97182 282.04614 272.16144 275.76561 271.25 275.21875 C 270.27563 274.63413 266.38062 267.421 265.40625 267.03125 C 264.67547 266.73895 261.54184 265.66635 259.6875 265.8125 C 259.06939 265.8612 258.60112 266.04775 258.40625 266.4375 C 257.62676 267.99649 257.4375 270.90625 257.4375 270.90625 C 257.4375 270.90625 256.8373 271.54189 256.53125 271.875 C 254.25932 270.52038 252.38928 269.4348 250.1875 268.125 C 248.95999 266.91576 247.46096 265.76303 246.78125 265.6875 C 246.62957 265.6707 246.28538 265.67295 246.03125 265.65625 C 245.39832 265.28055 244.7001 264.85945 244.09375 264.5 C 244.51833 264.4609 244.83194 264.33268 244.875 264.03125 C 245.01279 263.06667 246.91635 256.99434 245.125 256.71875 C 244.90108 256.68435 244.66435 256.69615 244.40625 256.71875 C 242.59956 256.877 240.1875 258.25 240.1875 258.25 C 240.1875 258.25 240.02559 260.51607 240.21875 262.1875 C 235.70466 259.5209 232.52846 257.66195 232.09375 257.46875 C 230.33989 256.68926 228.19522 252.22261 224.6875 250.46875 C 222.5394 249.3947 207.37867 240.8702 193.96875 233.34375 L 195.9375 230.125 L 194.53125 227.5 C 198.15979 218.432 217.09661 192.9592 221.25 190.03125 C 223.06601 188.75104 220.09746 185.23044 217.3125 184.6875 C 217.0883 184.6438 216.76462 184.7245 216.34375 184.9375 C 215.92294 185.15043 215.40105 185.50034 214.8125 185.9375 C 209.78103 189.67491 199.18985 200.9924 191.96875 209.8125 C 191.59127 210.27371 191.16998 210.74156 190.8125 211.1875 C 186.80649 216.18299 184.15585 220.12764 184.625 221 L 182.40625 221.0625 L 179.78125 225.40625 C 179.03517 224.99058 176.99743 223.86381 176.90625 223.8125 C 176.88215 223.7989 176.15625 223.375 176.15625 223.375 C 173.57325 224.25972 172.1558 225.6069 171.3125 227.1875 C 171.2678 227.2712 171.2289 227.35253 171.1875 227.4375 C 171.132 227.55089 171.08154 227.66577 171.03125 227.78125 C 171.01255 227.82455 170.98675 227.86275 170.96875 227.90625 C 170.86137 228.16375 170.77331 228.42138 170.6875 228.6875 C 170.6744 228.7284 170.66885 228.7714 170.65625 228.8125 C 170.57055 229.08876 170.50583 229.37306 170.4375 229.65625 C 170.14019 230.91215 169.98048 232.21321 169.75 233.5 L 173.53125 235.71875 L 172.875 236.78125 L 173.5 239.0625 C 171.56125 243.14509 169.74129 247.95601 168.09375 253.0625 C 168.09075 253.0715 168.09675 253.08435 168.09375 253.09375 C 167.27331 255.63813 166.48011 258.25102 165.75 260.875 C 165.747 260.885 165.753 260.89665 165.75 260.90625 C 165.02025 263.5303 164.34614 266.16255 163.71875 268.75 C 163.71675 268.76 163.72075 268.77155 163.71875 268.78125 C 163.09187 271.36794 162.51253 273.90981 162 276.34375 C 161.998 276.35375 162.002 276.3653 162 276.375 C 160.97417 281.24961 160.18192 285.71927 159.6875 289.28125 C 159.4396 291.06616 159.25242 292.62641 159.15625 293.90625 C 158.92623 296.96733 160.82304 304.50616 161.125 302.375 C 162.34406 293.77106 168.98902 266.10239 176.1875 253.125 C 176.91689 251.81006 177.63907 250.66586 178.375 249.6875 C 178.408 249.6435 178.43585 249.6057 178.46875 249.5625 C 179.02541 248.83446 179.57004 248.18558 180.125 247.6875 C 180.1655 247.6511 180.2095 247.62875 180.25 247.59375 C 180.35459 247.50295 180.45808 247.42566 180.5625 247.34375 C 180.75374 247.19421 180.9657 247.05621 181.15625 246.9375 C 181.55811 246.6863 181.94626 246.48034 182.34375 246.375 C 182.4889 246.3365 182.63683 246.3305 182.78125 246.3125 L 185.4375 247.375 L 187.53125 243.9375 L 230.65625 269.3125 C 230.60935 269.42813 230.57515 269.54115 230.53125 269.65625 C 230.52725 269.66625 230.53525 269.6778 230.53125 269.6875 C 230.27036 270.37484 230.04291 271.04852 229.90625 271.6875 C 229.77508 272.30322 229.70859 272.91264 229.71875 273.4375 C 229.71952 273.4688 229.71775 273.50035 229.71875 273.53125 C 229.73445 273.93923 229.81928 274.30008 229.9375 274.625 C 229.986 274.76066 230.0261 274.88141 230.09375 275 C 230.64423 275.96498 233.25418 278.17471 234.21875 278.3125 C 235.18332 278.4503 235.61072 279.83661 236.4375 280.25 C 237.26428 280.66339 240.3125 281.625 240.3125 281.625 L 245.125 283.6875 C 245.125 283.6875 246.30526 281.66184 247.625 279.3125 L 249.125 280.1875 C 247.16082 282.4821 245.60122 284.44771 245.53125 284.9375 C 245.33638 286.30161 249.03301 288.8585 249.8125 288.46875 C 250.592 288.079 253.90976 292.73525 255.46875 293.125 C 257.02774 293.51475 262.09726 294.51299 263.65625 293.34375 C 264.19461 292.93998 265.08359 291.64095 266.03125 290.125 L 274.78125 295.28125 C 276.30079 294.59081 277.49197 293.73156 278.375 292.6875 C 278.67472 292.33292 278.93222 291.95906 279.15625 291.5625 C 279.26255 291.37633 279.3793 291.19553 279.46875 291 C 279.47275 290.992 279.46475 290.97725 279.46875 290.96875 C 279.82258 290.1874 280.01198 289.33874 280.09375 288.40625 C 284.76774 291.21915 289.61915 294.21583 290.9375 294.875 C 292.33654 295.57452 295.79773 297.33729 299.09375 298.875 L 300.5625 311.5625 L 301.75 321.84375 L 305.5625 354.71875 L 302.84375 360.5625 L 304.375 362.90625 C 304.3555 362.90639 303.625 362.90625 303.625 362.90625 L 300.5 372.65625 L 305.90625 372.9375 C 306.44805 380.32449 308.24383 404.87456 307.90625 406.5625 C 307.5165 408.51123 305.5625 412.78125 305.5625 412.78125 C 305.5625 412.78125 310.2335 416.69101 309.84375 418.25 C 309.454 419.80899 305.15625 421.36376 305.15625 423.3125 C 305.15625 424.77405 305.17785 427.10961 306 428.1875 C 296.37296 430.36836 282.70127 433.66849 280.21875 435.40625 C 276.32129 438.13448 279.0625 446.6875 279.0625 446.6875 L 361.28125 448.25 L 360.125 430.3125 L 359.71875 430.28125 C 359.67185 419.96445 359.52122 402.06484 358.96875 398.75 C 358.41778 395.44418 358.82984 382.8424 359.125 375.59375 L 362.46875 375.75 C 362.46875 375.75 360.51124 362.5 358.5625 362.5 C 358.5392 362.5 357.94392 362.49989 357.90625 362.5 C 357.26095 354.18213 355.10253 325.76472 355.4375 322.75 C 355.82725 319.24228 359.73349 291.1882 359.34375 284.5625 C 358.954 277.93681 359.75 257.28125 359.75 257.28125 L 367.53125 253.375 L 357.78125 242.96875 L 354.125 244.53125 L 354.3125 241.875 C 354.80153 242.32416 355.2826 242.76959 355.78125 243.21875 L 360.40625 237.28125 L 366 237.4375 L 358.53125 233.3125 L 360.46875 226.6875 L 358 223.9375 L 366.25 225.875 L 362.09375 218.53125 C 362.77725 218.75933 364.34375 219.25 364.34375 219.25 L 369.84375 205.46875 L 367.375 204.09375 C 368.79916 200.88938 367.3428 181.53917 356.40625 168.34375 C 355.42608 165.17742 354.06995 162.40266 352.21875 160.28125 C 352.14045 160.19155 352.02382 160.11712 351.9375 160.03125 C 351.9123 160.00615 351.9009 159.9622 351.875 159.9375 C 351.74907 159.81084 351.6334 159.69881 351.5 159.59375 C 351.4319 159.53875 351.35274 159.49078 351.28125 159.4375 C 351.26905 159.4295 351.2621 159.41445 351.25 159.40625 C 350.94667 159.18303 350.60781 159.00673 350.25 158.8125 C 350.2052 158.7882 350.1706 158.74255 350.125 158.71875 C 344.54351 155.40627 339.96495 156.22842 335.78125 156.15625 C 335.72205 156.15525 335.68315 156.15725 335.625 156.15625 C 334.98481 156.14165 334.39918 156.1258 333.90625 156.125 C 333.40565 156.0679 332.88944 156.0377 332.375 156 C 332.2823 155.995 332.18694 156.004 332.09375 156 C 331.66071 155.9714 331.2242 155.9526 330.78125 155.9375 C 329.57555 155.18005 326.96186 153.77842 323.75 153.75 z M 265.125 174.3125 L 256.03125 174.59375 C 255.78387 175.43757 255.52567 176.27463 255.3125 177.125 C 253.3174 178.83248 250.78125 183.0859 250.78125 193.625 C 250.78125 207.01751 253.29237 210.05907 255.21875 210.4375 C 255.38488 210.92247 255.56748 211.38179 255.75 211.8125 C 257.5847 212.54999 261.16575 211.51205 265.9375 209.3125 L 267.59375 207.125 C 267.59375 207.125 276.43454 203.26724 277.8125 201.0625 C 279.19046 198.85776 279.72172 185.34106 278.34375 183.6875 C 276.96579 182.03395 266.21875 176.8125 266.21875 176.8125 L 265.125 174.3125 z "
         transform="matrix(-1,0,0,1,588.61,0)"
         inkscape:radius="4.8536911"
         d="m 323.79297,148.89648 c -1.75757,-0.0155 -3.70861,0.31029 -5.66602,1.06055 -1.63727,0.4685 -3.23109,1.47583 -4.71875,2.78516 -18.55113,4.1241 -28.36709,15.61992 -32.88086,26.39453 -0.69908,-0.5254 -1.3605,-0.90141 -2.1582,-1.38086 -1.33254,-0.80091 -2.86125,-1.63609 -4.33594,-2.41602 -2.10543,-1.11351 -3.09168,-1.58462 -4.06445,-2.06445 l -0.39648,-0.9082 a 4.8541765,4.8541765 0 0 0 -4.59766,-2.90625 l -9.09375,0.28125 a 4.8541765,4.8541765 0 0 0 -4.50781,3.48633 c -0.14305,0.48794 -0.30812,1.09071 -0.46875,1.65625 -2.83921,3.28258 -4.97657,8.87505 -4.97657,18.74023 0,6.99961 0.5901,11.52067 1.76954,14.89062 0.44851,1.28152 1.12202,2.41224 1.89257,3.42579 l -4.42578,2.06836 a 4.8541765,4.8541765 0 0 0 -2.6875,3.36328 l -0.84375,3.875 a 4.8541765,4.8541765 0 0 0 6.17969,5.66992 c 0,0 15.80242,-4.89367 33.56055,-8.86914 1.64768,7.46662 3.49241,15.84604 4.36718,19.63672 0.51994,2.25306 0.30225,7.13638 -0.28125,11.08984 -0.5835,3.95346 -1.35546,7.04688 -1.35546,7.04688 a 4.8541765,4.8541765 0 0 0 5.1582,6.00976 l 1.46484,-0.13476 0.78711,5.48632 -1.91992,0.83399 a 4.8541765,4.8541765 0 0 0 -1.61914,7.47851 c -1.41588,-0.43895 -2.10457,-0.66416 -3.54297,-1.11132 -2.92311,-0.90872 -5.73712,-1.78803 -7.85352,-2.4668 -1.00573,-0.32256 -1.82286,-0.59283 -2.42968,-0.79883 -0.0289,-0.0419 -0.036,-0.0469 -0.0664,-0.0918 -0.44117,-0.65189 -1.03873,-1.59995 -1.65234,-2.57031 -0.61362,-0.97035 -1.23922,-1.96132 -1.85742,-2.8457 -0.30911,-0.44219 -0.60679,-0.85331 -0.98633,-1.29688 -0.37955,-0.44357 -0.37619,-0.98875 -2.37696,-1.78906 -1.37156,-0.5486 -3.76665,-1.87674 -7.90234,-1.55078 -1.39432,0.10986 -3.93348,0.67548 -5.24219,3.29297 -0.0771,0.15413 -0.0895,0.26937 -0.15625,0.41797 -0.31009,-0.18324 -0.62372,-0.3688 -0.94336,-0.5586 -0.58821,-0.54335 -1.17412,-1.09098 -1.81836,-1.5625 -0.29247,-0.21406 -0.56412,-0.4384 -0.84179,-0.66015 0.0718,-0.35638 0.14884,-0.63167 0.21093,-1.01758 0.16864,-1.04807 0.33691,-2.11923 0.16797,-3.5957 -0.0845,-0.73824 -0.22653,-1.63758 -0.91211,-2.75586 -0.68558,-1.11828 -2.29662,-2.36535 -3.9082,-2.61328 a 4.8541765,4.8541765 0 0 0 -0.002,0 c -0.89605,-0.13766 -1.51014,-0.0714 -1.87891,-0.0391 -3.86363,0.33842 -6.19531,2.14844 -6.19531,2.14844 a 4.8541765,4.8541765 0 0 0 -0.50391,0.80078 c -0.0562,-0.0328 -0.16005,-0.0951 -0.21484,-0.12695 -0.71548,-0.41644 -1.30582,-0.75532 -1.76563,-1.01563 -0.4598,-0.2603 -0.49437,-0.32563 -1.23828,-0.65625 1.59629,0.70946 0.007,-0.25073 -1.28711,-1.80468 -1.29433,-1.55396 -3.04581,-3.66451 -5.91992,-5.10157 -0.56523,-0.28261 -5.2099,-2.83502 -10.9375,-6.03711 -4.48934,-2.50982 -10.00754,-5.60991 -15.34375,-8.60546 a 4.8541765,4.8541765 0 0 0 -0.35937,-3.65235 l -0.17188,-0.32031 c 1.96236,-3.95235 6.5728,-11.2988 11.57813,-18.19922 2.80423,-3.86597 5.62977,-7.54861 7.96093,-10.38672 2.33117,-2.8381 4.71375,-5.10457 4.4629,-4.92773 1.81922,-1.28248 2.79387,-4.06166 2.56054,-5.88282 -0.23333,-1.82115 -0.9786,-2.9979 -1.77148,-4.01562 -1.58577,-2.03544 -3.58522,-3.58926 -6.59375,-4.17578 a 4.8541765,4.8541765 0 0 0 -0.002,0 c -2.18658,-0.4262 -3.21313,0.24088 -4.08789,0.68359 -0.88967,0.45018 -1.53849,0.91671 -2.23437,1.4336 -6.17937,4.59007 -16.29956,15.6519 -23.70508,24.69726 -0.27536,0.33644 -0.70224,0.80873 -1.1875,1.41406 -2.06572,2.57601 -3.79948,4.88818 -5.06836,6.86328 -0.4496,0.69984 -0.77923,1.35996 -1.12305,2.03321 a 4.8541765,4.8541765 0 0 0 -2.58203,1.5039 l -0.33984,0.5625 a 4.8541765,4.8541765 0 0 0 -3.32813,-0.33203 c -3.49698,1.19778 -6.18727,3.5562 -7.55468,6.11914 -0.10785,0.20215 -0.17365,0.34566 -0.20508,0.41016 -0.11065,0.22681 -0.1888,0.40866 -0.24219,0.53125 a 4.8541765,4.8541765 0 0 0 -0.006,0.0137 c 0.2136,-0.49458 0.16887,-0.43659 -0.0918,0.19336 -0.18422,0.4433 -0.31438,0.83127 -0.41602,1.14649 a 4.8541765,4.8541765 0 0 0 -0.004,0.01 c -0.19307,0.60279 -0.19722,0.66765 -0.0488,0.18359 -0.15576,0.50527 -0.23916,0.88778 -0.29687,1.12696 a 4.8541765,4.8541765 0 0 0 -0.004,0.0215 c -0.38065,1.60796 -0.5432,2.99454 -0.74218,4.10547 a 4.8541765,4.8541765 0 0 0 2.32031,5.04102 l 0.94922,0.55664 0.13086,0.48047 c -1.76307,3.93234 -3.40716,8.23374 -4.88672,12.8164 -0.01,0.03 -0.002,0.0352 -0.0117,0.0645 -0.035,0.11 -0.016,0.1418 -0.043,0.24218 0.0264,-0.097 0.005,-0.12286 0.0391,-0.22851 -0.82653,2.5638 -1.62739,5.2031 -2.36914,7.86328 -7.6e-4,0.003 7.6e-4,0.001 0,0.004 -0.008,0.0254 0.003,0.0141 -0.004,0.0391 a 4.8541765,4.8541765 0 0 0 -0.0234,0.082 c -0.74751,2.68792 -1.4349,5.37139 -2.07227,8 a 4.8541765,4.8541765 0 0 0 -0.043,0.19336 c -0.0318,0.15916 -0.022,0.10851 -0.0488,0.24219 -0.5991,2.48731 -1.16344,4.94386 -1.66016,7.30273 a 4.8541765,4.8541765 0 0 0 -0.01,0.0488 c -0.38702,1.93513 -0.40448,1.99214 0.006,0.002 -1.043,4.95833 -1.85052,9.51057 -2.36523,13.21875 -0.25512,1.83691 -0.45511,3.47451 -0.56445,4.92969 -0.21202,2.82154 0.34298,5.35108 0.90625,7.68359 0.28163,1.16626 0.48431,2.04892 1.05273,3.24219 0.14211,0.29832 0.29301,0.62582 0.69141,1.14258 0.39839,0.51675 1.03271,1.71751 3.48632,1.96679 1.22681,0.12465 2.69728,-0.36988 3.5293,-1.01757 0.83203,-0.6477 1.18694,-1.27625 1.41406,-1.73243 0.45426,-0.91234 0.47759,-1.36518 0.53516,-1.77148 1.07814,-7.60933 8.10643,-36.05182 14.5,-47.57812 0.64952,-1.17096 1.26219,-2.12847 1.82227,-2.87305 a 4.8541765,4.8541765 0 0 0 0.004,-0.006 c 0.0439,-0.0585 0.0591,-0.0802 0.0664,-0.0898 l 0.006,-0.006 c 0.3326,-0.43441 0.52833,-0.63326 0.73242,-0.85157 l 0.57227,0.22852 a 4.8541765,4.8541765 0 0 0 5.94726,-1.98047 l -0.39258,0.64453 35.86914,21.10547 c -0.089,0.615 -0.2062,1.2174 -0.19336,1.88086 a 4.8541765,4.8541765 0 0 0 0.002,0.0254 c -0.006,-0.23168 -0.0104,-0.19185 0,0.13086 a 4.8541765,4.8541765 0 0 0 0.002,0.0312 c 0.0372,0.96713 0.24874,1.85246 0.50586,2.56055 0.0294,0.0852 0.14677,0.50236 0.50195,1.125 1.12103,1.96514 1.9458,2.41359 3.04688,3.3164 0.55053,0.45141 1.11716,0.87618 1.75976,1.27539 0.36057,0.224 0.73215,0.45955 1.23829,0.67774 0.30684,0.47002 0.82934,1.15979 2.3457,1.91797 1.20101,0.6005 1.94642,0.7895 2.86523,1.09961 0.78514,0.26498 1.28204,0.42123 1.46875,0.48047 l 2.42969,1.04101 c 0.32378,0.8151 0.78039,1.41609 1.14844,1.88867 0.70701,0.90783 1.42857,1.54251 2.18164,2.11719 0.75306,0.57468 1.50559,1.05833 2.41601,1.47266 0.36642,0.16675 0.82467,0.31073 1.33789,0.44336 0.23583,0.23337 0.4023,0.38962 0.73829,0.73828 0.56264,0.58387 1.20013,1.25353 1.94726,1.92187 0.74714,0.66834 1.2874,1.48835 3.49024,2.03906 1.03453,0.25864 2.79523,0.63175 4.82812,0.81836 1.01644,0.0933 2.08156,0.14466 3.25391,0.0391 1.17234,-0.1056 2.53023,-0.21604 4.19531,-1.46485 0.41516,-0.31136 0.43996,-0.49419 0.6875,-0.74609 l 5.06055,2.98242 a 4.8541765,4.8541765 0 0 0 4.47265,0.23633 c 2.03056,-0.92264 3.86607,-2.19215 5.29102,-3.87695 a 4.8541765,4.8541765 0 0 0 0.002,-0.002 c 0.11038,-0.13058 0.1832,-0.27792 0.28711,-0.41211 2.2947,1.40163 5.06952,3.14414 6.39844,3.8086 0.94482,0.47241 3.51151,1.72861 5.80859,2.84765 l 1.16406,10.05469 1.1875,10.28125 a 4.8541765,4.8541765 0 0 0 0,0.002 l 3.65625,31.51368 -2.14062,4.5996 a 4.8541765,4.8541765 0 0 0 0.27344,3.80079 l -2.83985,8.85937 a 4.8541765,4.8541765 0 0 0 4.3711,6.32813 l 1.11718,0.0586 c 0.30231,4.15792 0.66142,9.03229 1.02735,14.64062 0.23632,3.62192 0.44536,7.06373 0.57226,9.66797 0.0635,1.30213 0.10492,2.40024 0.1211,3.16797 0.007,0.31966 -0.028,0.64566 -0.0508,0.88477 -0.11109,0.36868 -0.49379,1.55577 -0.9375,2.63867 -0.49629,1.21119 -0.94922,2.19922 -0.94922,2.19922 a 4.8541765,4.8541765 0 0 0 1.29883,5.74219 c 0,0 0.63853,0.60941 1.09375,1.02929 -0.41909,0.3343 -0.79901,0.57821 -1.27735,1.09766 -0.82917,0.90045 -1.96094,2.4104 -1.96094,4.68164 0,0.29805 0.0502,0.84808 0.0586,1.24805 -3.74944,0.87604 -7.60321,1.75881 -11.18164,2.71289 -2.51989,0.67185 -4.82842,1.33138 -6.75977,1.96875 -1.93134,0.63737 -3.24038,0.96671 -4.98437,2.1875 -2.16941,1.51859 -3.27903,3.79046 -3.75586,5.73242 -0.47684,1.94196 -0.46548,3.72277 -0.33985,5.29492 0.25127,3.14431 1.09961,5.71094 1.09961,5.71094 a 4.8541765,4.8541765 0 0 0 4.53125,3.37305 l 82.21875,1.5625 A 4.8541765,4.8541765 0 0 0 366.125,447.9375 L 364.96875,430 a 4.8541765,4.8541765 0 0 0 -0.4082,-0.91016 c -0.0252,-5.05675 -0.0677,-11.46301 -0.17383,-17.28906 -0.11333,-6.22028 -0.13348,-10.86532 -0.63086,-13.84961 -0.0788,-0.47285 -0.24374,-4.82377 -0.17383,-9.22265 0.0455,-2.85955 0.15812,-5.61082 0.25586,-8.41016 a 4.8541765,4.8541765 0 0 0 3.43164,-5.27734 c 0,0 -0.50122,-3.43086 -1.2832,-6.96485 -0.39099,-1.76699 -0.8351,-3.54819 -1.4375,-5.18359 -0.3012,-0.81771 -0.60754,-1.59016 -1.21289,-2.50391 -0.15909,-0.24014 -0.5228,-0.58367 -0.78321,-0.90039 -0.35697,-4.64301 -0.89949,-11.71616 -1.40625,-19.18164 -0.2882,-4.24584 -0.54418,-8.32241 -0.70703,-11.49219 -0.16285,-3.16977 -0.10587,-6.17604 -0.17773,-5.52929 0.15517,-1.39654 1.25915,-9.55554 2.24219,-17.89063 0.98303,-8.33509 1.95981,-16.45455 1.68554,-21.11719 -0.29029,-4.93497 0.18745,-19.79703 0.32617,-23.95703 l 5.19336,-2.60742 a 4.8541765,4.8541765 0 0 0 1.36329,-7.65625 l -7.33399,-7.82617 2.12695,0.0586 a 4.8541765,4.8541765 0 0 0 2.48047,-9.09961 l -4.06445,-2.24609 0.14844,-0.50977 0.71093,0.16602 a 4.8541765,4.8541765 0 0 0 5.33399,-7.11523 l -1.52149,-2.68946 5.39844,-13.52734 a 4.8541765,4.8541765 0 0 0 -1.63867,-5.6211 c 0.007,-0.88704 -0.0172,-1.75481 -0.0645,-2.8457 -0.12156,-2.80323 -0.54998,-6.18307 -1.38867,-9.90234 -1.62188,-7.19234 -4.81605,-15.63266 -10.57618,-22.88672 -1.09844,-3.26189 -2.5626,-6.34805 -4.80859,-8.92188 -0.77084,-0.88306 -0.97394,-0.95884 -0.51172,-0.49804 0.7317,0.72879 0.83744,1.12957 0.82031,1.09765 -0.0168,-0.0314 -0.18147,-0.50617 -0.9414,-1.24218 -0.16181,-0.16197 -0.38685,-0.38333 -0.71485,-0.64454 -0.36805,-0.2935 -0.5207,-0.38823 -0.3457,-0.25781 a 4.8541765,4.8541765 0 0 0 -0.17578,-0.12304 c -0.6305,-0.44531 -1.15274,-0.71937 -1.43945,-0.875 a 4.8541765,4.8541765 0 0 0 -0.002,0 c 0.51431,0.27896 -0.15703,-0.0869 -0.0781,-0.0527 -6.84099,-4.00689 -13.15401,-3.1316 -16.6211,-3.19141 a 4.8541765,4.8541765 0 0 0 -0.002,0 c -0.20437,-0.003 -0.2446,-0.002 -0.1543,0 l 0.0274,0.002 c -0.55495,-0.0127 -1.08628,-0.0254 -1.61133,-0.0293 -0.51838,-0.0499 -1.01747,-0.0876 -1.39453,-0.11523 a 4.8541765,4.8541765 0 0 0 -0.0937,-0.006 c -0.58425,-0.0315 -0.69417,-0.0194 -0.33399,-0.004 -0.11286,-0.007 -0.21715,-0.01 -0.32812,-0.0156 -1.82414,-1.00504 -4.45438,-2.20531 -8.18164,-2.23829 z m 30.17969,6.49219 0.15429,0.10742 c -0.0365,-0.0268 -0.0445,-0.0233 -0.0801,-0.0488 1.41418,0.92919 1.4391,0.96696 -0.0742,-0.0586 z m -69.95508,137.11914 c -0.0311,0.0929 -0.0514,0.1841 -0.0723,0.24414 0.009,-0.021 0.007,-0.0414 0.0156,-0.0625 0.0226,-0.0632 0.0306,-0.10638 0.0566,-0.18164 z m -32.03516,0.30274 c -0.69838,0.34919 -1.2856,0.46464 -1.81836,0.5039 0.52336,-0.0516 1.08561,-0.13752 1.81836,-0.5039 z m 31.90039,0.20898 -0.0723,0.15039 c 1e-5,-2e-5 0.0112,-0.0376 0.0117,-0.0391 0.0311,-0.064 0.0273,-0.0386 0.0605,-0.11133 z m 21.15039,126.08594 c 0.0618,0.0797 0.21729,0.24799 0.24414,0.28906 0.0528,0.0807 -0.12437,0.0457 -0.24414,-0.28906 z" />
      <path
         id="path3024"
         style="fill:#28170b"
         inkscape:connector-curvature="0"
         d="m 272.91,426.04 c 0,0 31.569,6.6257 35.467,9.3539 3.8975,2.7282 1.1692,11.303 1.1692,11.303 l -82.237,1.559 1.1692,-17.928 z" />
      <path
         id="path3022"
         style="fill:#373e48"
         inkscape:connector-curvature="0"
         d="m 283.05,367.97 c 0,0 -2.7282,36.636 -2.3385,38.585 0.38975,1.9487 2.3385,6.236 2.3385,6.236 0,0 -4.677,3.8975 -4.2872,5.4564 0.38975,1.559 4.677,3.118 4.677,5.0667 0,1.9487 0,5.4564 -1.9487,5.4564 -1.9487,0 -52.616,8.9642 -52.616,8.9642 0,0 0,-34.298 0.77949,-38.975 0.77949,-4.677 -0.38975,-28.452 -0.38975,-28.452 z" />
      <path
         id="path3016"
         style="fill:#e9c6af"
         inkscape:connector-curvature="0"
         d="m 305.85,201.88 c 0,0 -6.063,27.559 -7.7166,34.725 -1.6536,7.1654 1.6536,20.394 1.6536,20.394 l -6.063,-0.55119 -3.3071,23.15 -54.016,-8.819 -4.9607,-67.796 z" />
      <path
         id="path3067"
         sodipodi:nodetypes="ccccsscscccccccc"
         style="fill:#845b40"
         inkscape:connector-curvature="0"
         d="m 305.86,201.88 c 0,0 -3.7859,17.205 -6.1562,27.781 l -4.3125,-0.21875 -2.5,10.469 -5.2217,-7.7072 c -4.2035,-6.2042 -13.244,-10.853 -17.091,-6.3241 -4.1353,4.8687 -4.0565,8.0571 -2.4741,11.296 -3.3071,0.82678 -11.255,0.12914 -13.5,-2.7613 -1.0177,-1.3101 -2.486,-6.3467 -2.486,-6.3467 -5.1691,-3.7926 -4.4246,-0.28044 -5.2584,3.875 l 2.2188,7.6875 h 8.2812 l -6.0625,17.938 -16.031,-2.25 -3.82,-52.32 z" />
      <path
         id="path3018"
         sodipodi:nodetypes="cccccc"
         style="fill:#ac9d93"
         inkscape:connector-curvature="0"
         d="m 236.28,245.98 60.8,26.503 -5.0667,5.0667 -8.9642,77.17 -42.419,10.476 z" />
      <path
         id="path4027"
         sodipodi:nodetypes="cccccccccccccccccssccc"
         style="fill:#3f3630"
         inkscape:connector-curvature="0"
         d="m 230.83,242.97 4.5938,1.9688 0.84375,1.0312 11.5,5 -1.4375,4.0938 41.875,19.562 -11.281,0.5625 4.6624,13.517 1.3944,17.065 6.1705,-1.9235 -2.2899,17.998 -6.625,1.3125 4.875,13.688 -2.0625,17.875 2.7188,5.8438 -2.3125,3.5 -53.031,1.9688 c 0,0 3.1398,-39.774 2.75,-43.281 -0.38975,-3.5077 -4.296,-31.562 -3.9062,-38.188 0.38975,-6.6257 -0.40625,-27.281 -0.40625,-27.281 l -7.7812,-3.9062 z" />
      <path
         id="path3020"
         style="fill:#241f1c"
         inkscape:connector-curvature="0"
         d="m 284.99,362.9 3.118,9.7437 -61.97,3.118 c 0,0 1.9487,-13.251 3.8975,-13.251 1.9487,0 54.954,0.38974 54.954,0.38974 z" />
      <path
         id="path3036"
         sodipodi:nodetypes="csscccc"
         style="fill:#917c6f"
         inkscape:connector-curvature="0"
         d="m 412.44,223.37 c 0,0 -45.016,25.334 -48.523,27.087 -3.5077,1.7539 -5.6513,6.236 -7.4052,7.0154 -1.7539,0.77949 -47.939,28.452 -47.939,28.452 -0.62458,4.4393 1.2095,7.5128 5.2616,9.3539 l 105.04,-61.775 c -0.70786,-3.9521 -0.72691,-8.1797 -6.4308,-10.133 z" />
      <path
         id="path3942"
         sodipodi:nodetypes="ccccccccccc"
         style="fill:#483e37"
         inkscape:connector-curvature="0"
         d="m 411.7,223.81 3.0938,4.625 2.5,-1.25 c 1.0189,1.9098 1.1752,4.1501 1.5625,6.3125 l -105.03,61.781 c -4.0521,-1.8412 -5.8746,-4.9044 -5.25,-9.3438 0,0 18.004,-10.789 32.031,-19.125 l 5.961,5.6675 57.677,-33.125 -4.013,-9.1362 c 4.4461,-2.4982 11.104,-6.2012 11.469,-6.4062 z" />
      <path
         id="path3030"
         sodipodi:nodetypes="ccscscsccsscsssscccsccscs"
         style="fill:#e9c6af"
         inkscape:connector-curvature="0"
         d="m 344.2,256.72 c 1.8067,0.15825 4.2188,1.5312 4.2188,1.5312 0,0 0.41487,5.2429 -0.6875,5.6562 -1.1024,0.41339 -3.8622,1.0896 -4,0.125 -0.13779,-0.96458 -2.0414,-7.0369 -0.25,-7.3125 0.22392,-0.0344 0.46065,-0.0226 0.71875,0 z m 6.625,4.6875 c 3.9424,0.20149 9.5588,10.313 7.6875,13.594 -5.4958,0.9661 -10.271,3.4781 -15.031,8.6875 0,0 -6.9062,-11.929 -6.9062,-13.031 0,-1.1024 4.0098,-4.831 5.25,-4.9688 1.2402,-0.13779 6.4688,-0.28125 6.4688,-0.28125 0,0 0.41363,-3.162 1.375,-3.7188 0.36207,-0.20969 0.74842,-0.30209 1.1562,-0.28125 z m -21.906,4.4062 c 0.61811,0.0487 1.0864,0.23525 1.2812,0.625 0.77949,1.559 0.96875,4.4688 0.96875,4.4688 0,0 11.711,12.667 11.906,14.031 -5.375,-0.47784 -12.743,1.2795 -18.125,8.4062 -1.559,-1.1692 -6.0478,-9.5643 -6.4375,-10.344 -0.38975,-0.7795 -18.116,10.511 -20.844,11.875 l -7.2188,-11.094 c 1.9487,-0.77949 25.932,-7.9779 26.906,-8.5625 0.97437,-0.58462 4.8694,-7.7978 5.8438,-8.1875 0.73078,-0.2923 3.8644,-1.3649 5.7188,-1.2188 z" />
      <path
         id="path3057"
         sodipodi:nodetypes="cccssccccsscc"
         style="fill:#666666"
         inkscape:connector-curvature="0"
         d="m 406.21,221.08 9.5181,15.707 -0.61486,2.273 c 7.755,16.33 13.568,44.598 14.337,54.836 0.23002,3.0611 -1.6608,10.622 -1.9628,8.4911 -1.5902,-11.224 -12.41,-54.927 -21.653,-56.08 l -2.6655,1.0834 -10.497,-17.275 1.4119,-2.6254 c -3.6285,-9.068 -22.559,-34.513 -26.712,-37.441 -1.816,-1.2802 1.1363,-4.812 3.9213,-5.3549 3.5872,-0.69935 34.195,33.532 32.696,36.32 z" />
      <path
         id="path3876"
         style="fill:#000000"
         inkscape:connector-curvature="0"
         d="m 267.82,208.22 -1.1024,6.8898 -4.4095,-2.2047 -2.4803,6.063 -12.402,3.5827 -14.606,14.606 -10.197,0.27559 7.441,-4.1339 -1.9291,-6.6142 2.4803,-2.7559 -8.2678,1.9292 6.063,-10.748 31.693,-9.3702 z" />
      <path
         id="path3874"
         sodipodi:nodetypes="ccccc"
         style="fill:#504416"
         inkscape:connector-curvature="0"
         d="m 264.79,206.57 c -8.4396,12.218 -18.405,24.436 -31.969,36.654 l -5.7874,-7.441 c 11.05,-7.2827 20.703,-18.058 30.315,-28.937 z" />
      <path
         id="path3059"
         style="fill:#c8ab37"
         inkscape:connector-curvature="0"
         d="m 259.83,155.88 c 51.811,0.55119 47.406,46.562 47.406,46.562 l 34.156,15.969 0.84375,3.875 c 0,0 -46.395,-14.419 -70.281,-14.062 -16.31,0.24324 -47.688,11.031 -47.688,11.031 l -5.5,-13.781 2.4688,-1.375 c -1.4242,-3.2044 0.0322,-22.555 10.969,-35.75 0.98017,-3.1663 2.3363,-5.9411 4.1875,-8.0625 3.3114,-3.7948 14.011,-4.1489 18.312,-4.1562 1.6338,-0.18619 3.3407,-0.26898 5.125,-0.25 z" />
      <path
         id="path4010"
         sodipodi:nodetypes="csccc"
         style="fill:#decd87"
         inkscape:connector-curvature="0"
         d="m 263.96,155.31 c 0,0 5.7874,-3.8583 10.473,3.8583 1.668,2.7472 12.264,42.028 12.264,42.028 l -4.4095,-1.7914 c -3.845,-6.7487 -13.06,-46.352 -18.327,-44.095 z" />
      <path
         id="path3061"
         sodipodi:nodetypes="sscscsccccsccs"
         style="fill:#685e35"
         inkscape:connector-curvature="0"
         d="m 264.86,153.75 c 1.4598,-0.0129 3.0403,0.24212 4.625,1 4.0166,1.921 13.5,43.969 13.5,43.969 -1.2631,-0.007 22.588,8.1363 22.588,8.1363 3.8953,1.2688 2.5997,6.4262 2.5997,6.4262 -12.683,-2.8341 -26.36,-5.2095 -36.219,-5.0625 -16.31,0.24324 -47.688,11.031 -47.688,11.031 l -5.5,-13.781 2.4688,-1.375 c -1.4242,-3.2044 0.0322,-22.555 10.969,-35.75 0.98017,-3.1663 2.3363,-5.9411 4.1875,-8.0625 3.3114,-3.7948 14.011,-4.1489 18.312,-4.1562 1.0016,-0.11414 2.0362,-0.1507 3.0938,-0.1875 1.1972,-0.75476 3.8341,-2.1589 7.0625,-2.1875 z" />
      <path
         id="path3065"
         sodipodi:nodetypes="cccccsc"
         style="fill:#000000"
         inkscape:connector-curvature="0"
         d="m 294.27,214.56 -3.5827,10.748 1.6536,3.0315 -8.5434,-4.9607 2.7559,-0.55118 c 0,0 1.4004,-5.2258 3.8583,-6.8898 1.2171,-0.82402 3.8583,-1.378 3.8583,-1.378 z" />
      <path
         id="path3947"
         sodipodi:nodetypes="scccccccccccscs"
         style="fill:#1a1a1a"
         inkscape:connector-curvature="0"
         d="m 371.29,184.69 c 3.5872,-0.69935 34.187,33.524 32.688,36.312 l 2.2188,0.0625 9.5312,15.719 -0.625,2.2812 c 7.755,16.33 13.574,44.605 14.344,54.844 0,0 -1.8094,-14.808 -11.943,-38.972 l -5.08,-1.81 c -2.1918,-3.9513 -4.4364,-6.5434 -6.5938,-6.8125 l -2.6562,1.0625 -1.8438,-3.0312 c 0,0 12.686,-6.1692 11.127,-8.5077 0,0 -9.9868,-14.368 -16.379,-22.583 -7.8288,-10.061 -25.81,-28.222 -25.81,-28.222 0.34371,-0.15103 0.68313,-0.27588 1.0312,-0.34375 z" />
      <path
         id="path3080"
         sodipodi:nodetypes="ccccccc"
         style="opacity:0.5;fill:#f4eed7"
         inkscape:connector-curvature="0"
         d="m 389.08,119.76 -57.874,60.079 -0.27559,28.937 102.8,125.95 50.709,-42.441 -28.11,-171.97 z" />
      <path
         id="path4163"
         sodipodi:nodetypes="sssssscssssccsssssssccssssssssssssssssssssssscccs"
         style="fill:#333333"
         inkscape:connector-curvature="0"
         d="m 367.23,89.625 c 32.144,2.1521 89.213,13.061 95.156,16.906 9.3702,6.063 43.554,52.923 44.656,56.781 1.1024,3.8583 1.0884,34.15 -2.2188,42.969 -3.3071,8.819 -9.3551,18.216 -9.9062,22.625 -0.55118,4.4095 9.9176,58.954 10.469,62.812 0.34512,2.4158 -1.4378,10.814 -2.8438,16.969 -22.127,11.349 -62.851,69.098 -66.627,72.873 -7.7166,7.7166 -16.562,59.377 -35.254,71.115 -9.5205,5.9785 -26.478,19.295 -42.463,19.295 -2.4502,0 -11.379,8.7192 -16.563,8.7161 l -200.42,-0.12324 c -9.3702,-0.55119 -17.471,-28.364 -4.2193,-28.364 0,0 45.947,-6.6919 60.829,-7.7942 14.882,-1.1024 16.522,3.2926 23.688,3.8438 7.1654,0.55119 38.022,-3.2953 45.188,-5.5 7.1654,-2.2047 50.716,1.0997 55.125,-1.6562 4.4095,-2.7559 13.224,1.1137 16.531,0.5625 3.3071,-0.55118 4.9688,-7.7214 4.9688,-9.375 0,-1.6536 17.093,-15.451 23.156,-23.719 6.063,-8.2678 21.5,-51.25 21.5,-51.25 0,0 -0.0199,-6.0566 0.53125,-8.8125 0.55118,-2.7559 6.0711,-8.8292 4.9688,-12.688 -1.1024,-3.8583 1.0964,-18.182 2.75,-20.938 1.6536,-2.7559 13.781,-5.5226 19.844,-6.625 6.063,-1.1024 19.295,-3.2953 21.5,-5.5 2.2047,-2.2047 -1.0938,-6.048 -1.0938,-9.9062 0,-3.8583 7.7268,-12.693 12.688,-16 4.9607,-3.3071 8.7953,-3.2926 11,-3.8438 2.2047,-0.55119 3.8777,-7.7182 5.5312,-13.781 1.6536,-6.063 -1.6536,-45.755 0,-49.062 1.6536,-3.3071 5.4887,-6.6218 4.9375,-11.031 -0.55119,-4.4095 -4.9542,-7.7155 -8.8125,-12.125 -3.8583,-4.4095 -3.8545,-15.446 -10.469,-20.406 -6.6142,-4.9607 -3.2926,-12.65 -3.8438,-15.406 -0.55119,-2.7559 -13.795,-9.923 -22.062,-13.781 -8.2678,-3.8583 -40.795,-3.3098 -49.062,-1.6562 -8.2678,1.6536 -13.761,2.7586 -20.375,1.6562 -6.6142,-1.1024 -11.045,-11.034 -19.312,-12.688 -8.2678,-1.6536 -23.687,-2.1961 -29.75,-1.0938 -6.063,1.1024 -30.323,0 -36.938,0 -6.6142,0 -8.812,1.6589 -14.875,3.3125 -6.063,1.6536 -33.616,-5.5113 -40.781,-6.0625 -7.1654,-0.55118 -11.039,-5.5312 -16,-5.5312 -4.9607,0 -56.41,16.187 -60.269,17.29 -3.8583,1.1024 -45.187,-4.9375 -45.187,-4.9375 l -2.2398,-1.2447 c -15.601,-4.68 -10.454,-25.77 1.121,-25.21 30.396,-13.256 183.75,-17.754 275.44,-11.615 z" />
      <path
         id="path4161"
         style="fill:#000000"
         inkscape:connector-curvature="0"
         d="m 391.79,290 c 3.0595,0.11304 5.7807,2.0802 7.4688,2.5625 1.9291,0.55119 4.1533,0.27829 5.5312,1.6562 1.378,1.378 1.6562,3.2812 1.6562,3.2812 0,0 -1.6616,3.0426 -4.9688,3.5938 -3.3071,0.55119 -11.287,0.26724 -11.562,-1.9375 -0.27559,-2.2047 -3.0515,-8.5426 0.53125,-9.0938 0.44784,-0.0689 0.90668,-0.0786 1.3438,-0.0625 z" />
      <path
         id="path3078"
         style="fill:#000000"
         inkscape:connector-curvature="0"
         d="m 371.7,298.62 c 2.4803,0 8.5625,3.3125 8.5625,3.3125 0.55119,3.5827 -1.3804,6.872 -4.6875,8.25 -3.3071,1.378 -9.3807,1.6509 -9.6562,-1.6562 -0.27559,-3.3071 3.3009,-9.9062 5.7812,-9.9062 z" />
      <path
         id="path3074"
         sodipodi:nodetypes="cscc"
         style="fill:#ffffff"
         inkscape:connector-curvature="0"
         d="m 330.93,175.98 c 0,0 6.8898,0.27166 6.8898,17.638 0,21.774 -6.6142,16.26 -6.6142,16.26 z" />
      <path
         id="path3072"
         sodipodi:nodetypes="ccccssccc"
         style="fill:#483e37"
         inkscape:connector-curvature="0"
         d="m 332.58,174.6 c 4.1971,14.316 3.3915,29.852 0.27559,37.205 -1.8347,0.73749 -5.4252,-0.28078 -10.197,-2.4803 l -1.6536,-2.2047 c 0,0 -8.819,-3.8583 -10.197,-6.063 -1.378,-2.2047 -1.9292,-15.709 -0.55118,-17.362 1.378,-1.6536 12.126,-6.8898 12.126,-6.8898 l 1.1024,-2.4803 z" />
      <path
         id="path4005"
         style="fill:#845b40"
         inkscape:connector-curvature="0"
         d="m 354.42,263.66 c 2.9566,3.217 5.4276,9.0056 4.0938,11.344 -0.55048,0.96498 -3.1604,3.1747 -4.125,3.3125 -0.96457,0.1378 -1.392,1.5241 -2.2188,1.9375 -0.82678,0.41339 -3.875,1.375 -3.875,1.375 l -4.8125,2.0625 c 0,0 -3.9648,-6.9013 -5.875,-10.688 2.9054,-1.0676 9.6893,-3.6616 10.125,-4.9688 0.55118,-1.6536 3.3209,-0.017 5.25,-0.84375 1.4201,-0.6086 1.4962,-2.5431 1.4375,-3.5312 z m -23.719,6.2812 c 0.12141,0.008 0.25566,0.0448 0.375,0.0625 0.0604,0.51084 0.0937,0.90625 0.0937,0.90625 0,0 11.711,12.667 11.906,14.031 0.19487,1.3641 -3.5018,3.921 -4.2812,3.5312 -0.7795,-0.38975 -4.0973,4.2665 -5.6562,4.6562 -1.559,0.38975 -6.6285,1.388 -8.1875,0.21875 -1.559,-1.16925 -6.0478,-9.5643 -6.4375,-10.344 -0.38975,-0.7795 -18.116,10.511 -20.844,11.875 -2.7282,1.3641 -13.27,6.8199 -15.219,6.625 -1.9487,-0.19487 -7.1875,-2.125 -7.1875,-2.125 l 3.3125,-9.5625 c 0,0 9.6416,-5.096 11.75,-5.9688 7.4042,-1.6498 30.751,-6.9245 31.219,-8.0938 0.55118,-1.378 5.2554,-5.5057 8.5625,-5.7812 0.20669,-0.0172 0.3919,-0.0444 0.59375,-0.0312 z" />
      <path
         id="path3026"
         sodipodi:nodetypes="csccccsscscccc"
         style="fill:#ac9d93"
         inkscape:connector-curvature="0"
         d="m 253.62,268.78 c 0,0 9.7437,7.9898 13.251,9.7437 3.5077,1.7539 4.677,4.677 4.677,4.677 l -0.38975,3.118 6.8206,-0.58462 c 0,0 -5.8128,12.297 -3.5746,18.009 2.3292,-1.6649 4.9703,-3.7152 4.8857,-6.4545 -0.1352,-4.3771 4.1119,-11.255 3.7222,-12.035 -0.38974,-0.77949 -5.423,-1.2736 -5.423,-1.2736 0,0 -0.19487,-2.3385 -0.97437,-2.9231 -0.77949,-0.58462 -20.657,-12.472 -20.657,-12.472 l 3.7026,-0.38975 -6.0411,-1.3641 z" />
      <path
         id="path3028"
         style="fill:#27221e"
         inkscape:connector-curvature="0"
         d="m 275.84,310.87 c 0,0 -4.8718,-1.3641 -5.2616,-2.5334 -0.38975,-1.1692 0,-11.692 -1.3641,-11.692 -1.3641,0 -4.677,6.6257 -4.677,6.6257 0,0 -15.98,-7.6001 -16.564,-9.3539 -0.58462,-1.7539 -4.8718,-7.7949 -4.8718,-7.7949 l 2.3385,7.4052 -3.7026,-0.19488 c 0,0 20.072,13.446 21.241,13.446 1.1692,0 5.4564,-1.7539 5.4564,-1.7539 l 0.97437,6.236 7.4052,3.5077 z" />
      <path
         id="path4013"
         sodipodi:nodetypes="cscsc"
         style="fill:#d3bc5f"
         inkscape:connector-curvature="0"
         d="m 252.98,156.16 c -3.0237,0.95897 -8.9744,0.73626 -13.818,4.6732 -5.067,4.1182 -5.2357,23.145 -5.2357,23.145 -1.0828,-13.436 0.0419,-22.25 3.3979,-24.537 6.1735,-4.206 11.15,-3.1785 15.656,-3.2812 z" />
      <path
         id="path4151"
         sodipodi:nodetypes="ccssscsscsscsssscsssssssssssssssssccsssssssccsssssssssssssssssssssssccsscc"
         style="fill:#1a1a1a"
         inkscape:connector-curvature="0"
         d="m 209.51,108.16 c 0.17531,-0.004 0.33415,0.014 0.4375,0.0312 3.3071,0.55119 4.389,7.1676 6.5938,7.7188 2.2047,0.55119 35.278,8.2586 39.688,7.1562 4.4095,-1.1024 19.857,-7.7074 28.125,-7.1562 8.2678,0.55119 56.781,3.3125 56.781,3.3125 0,0 9.3718,14.312 13.781,14.312 4.4095,0 45.17,-6.0539 47.375,-7.1562 2.2047,-1.1024 3.875,3.8438 3.875,3.8438 0,0 26.994,3.8551 29.75,4.4062 2.7559,0.55118 17.648,10.483 18.75,12.688 1.1024,2.2047 -3.3125,12.125 -3.3125,12.125 0,0 18.188,12.13 18.188,15.438 0,3.3071 7.1848,27.019 5.5312,32.531 -1.6536,5.5118 -8.2699,14.86 -7.7188,18.719 0.55118,3.8583 4.9402,38.599 6.5938,41.906 1.6536,3.3071 2.2188,15.438 2.2188,15.438 0,0 -15.974,-6.6336 -19.281,-5.5312 -3.3071,1.1024 -18.747,11.599 -17.094,14.906 1.6536,3.3071 12.673,13.767 10.469,17.625 -2.2047,3.8583 -12.67,2.1961 -14.875,1.0938 -2.2047,-1.1024 -34.73,0.56789 -35.281,3.875 -0.55118,3.3071 2.2074,15.423 1.6562,19.281 -0.55119,3.8583 -11.031,12.13 -11.031,15.438 0,3.3071 2.7473,16.517 1.0938,20.375 -1.6536,3.8583 -22.034,41.369 -23.688,44.125 -1.6536,2.7559 -19.281,10.457 -19.281,15.969 0,5.5118 -3.3206,25.344 -8.2812,25.344 -4.9607,0 -17.091,-7.7188 -21.5,-7.7188 -4.4095,0 -48.494,-2.7473 -51.25,-1.0938 -2.7559,1.6536 -30.332,12.696 -35.844,11.594 -5.5118,-1.1024 -24.809,-8.8438 -29.219,-8.8438 -4.4095,0 -31.778,-1.3167 -34.534,1.4393 -2.7559,2.7559 -14.321,8.8125 -19.281,8.8125 -2.8997,0 -11.178,-2.1846 -17.781,-4.0625 0,0 -0.0165,-7.4027 8.9477,-6.6232 0,0 42.829,-3.9636 57.711,-5.066 14.882,-1.1024 16.522,3.2926 23.688,3.8438 7.1654,0.55119 38.022,-3.2953 45.188,-5.5 7.1654,-2.2047 50.716,1.0997 55.125,-1.6562 4.4095,-2.7559 13.224,1.1137 16.531,0.5625 3.3071,-0.55118 4.9688,-7.7214 4.9688,-9.375 0,-1.6536 17.093,-15.451 23.156,-23.719 6.063,-8.2678 21.5,-51.25 21.5,-51.25 0,0 -0.0199,-6.0566 0.53125,-8.8125 0.55118,-2.7559 6.0711,-8.8292 4.9688,-12.688 -1.1024,-3.8583 1.0964,-18.182 2.75,-20.938 1.6536,-2.7559 13.781,-5.5226 19.844,-6.625 6.063,-1.1024 19.295,-3.2953 21.5,-5.5 2.2047,-2.2047 -1.0938,-6.048 -1.0938,-9.9062 0,-3.8583 7.7268,-12.693 12.688,-16 4.9607,-3.3071 8.7953,-3.2926 11,-3.8438 2.2047,-0.55119 3.8777,-7.7182 5.5312,-13.781 1.6536,-6.063 -1.6536,-45.755 0,-49.062 1.6536,-3.3071 5.4887,-6.6218 4.9375,-11.031 -0.55119,-4.4095 -4.9542,-7.7155 -8.8125,-12.125 -3.8583,-4.4095 -3.8545,-15.446 -10.469,-20.406 -6.6142,-4.9607 -3.2926,-12.65 -3.8438,-15.406 -0.55119,-2.7559 -13.795,-9.923 -22.062,-13.781 -8.2678,-3.8583 -40.795,-3.3098 -49.062,-1.6562 -8.2678,1.6536 -13.761,2.7586 -20.375,1.6562 -6.6142,-1.1024 -11.045,-11.034 -19.312,-12.688 -8.2678,-1.6536 -23.687,-2.1961 -29.75,-1.0938 -6.063,1.1024 -30.323,0 -36.938,0 -6.6142,0 -8.812,1.6589 -14.875,3.3125 -6.063,1.6536 -33.616,-5.5113 -40.781,-6.0625 -7.1654,-0.55118 -11.039,-5.5312 -16,-5.5312 -4.9607,0 -56.41,16.187 -60.269,17.29 -3.8583,1.1024 -45.187,-4.9375 -45.187,-4.9375 -5.5489,0.0685 -7.6248,-5.2959 -10.781,-9.2812 6.0056,0.11042 12.125,0.5235 16.281,1.5625 11.024,2.7559 40.787,8.25 44.094,8.25 3.2038,0 61.584,-19.958 67.019,-20.071 z" />
    </g>
    <g
       id="g10"
       transform="matrix(0.33072917,0,0,-0.33072917,178.15923,290.348)">
      <g
         id="g12">
        <g
           id="g14">
          <g
             id="g16">
            <g
               id="g22">
              <path
                 id="path30"
                 style="fill:url(#linearGradient24);fill-rule:evenodd"
                 d="M 70.52,14.401 9.32,12.76 c -0.054,0.028 -0.121,0.067 -0.199,0.118 -0.082,0.027 -0.133,0.054 -0.16,0.082 -0.027,0.027 -0.055,0.039 -0.082,0.039 -1.277,0.75 -2.801,1.519 -4.559,2.32 l -3.558,1.641 57.957,1.441 7.043,-2.441 c 0.183,-0.028 0.332,-0.067 0.437,-0.122 l 4.199,-1.32 c 0.055,0 0.094,-0.039 0.122,-0.117 z"
                 inkscape:connector-curvature="0" />
            </g>
          </g>
        </g>
        <path
           id="path32"
           style="fill:#5b5c5e;fill-rule:evenodd"
           d="M 60,12.401 C 51.332,12.186 43.148,11.932 35.441,11.639 19.945,11.268 11.242,11.053 9.32,10.999 c 0.082,0.293 0.133,0.546 0.16,0.761 0.028,0.16 0.04,0.293 0.04,0.399 1.308,0.133 3.027,0.203 5.16,0.203 2.16,0.078 4.199,0.133 6.121,0.156 1.972,0.11 3.801,0.176 5.48,0.199 1.68,0.11 3.824,0.203 6.438,0.282 1.894,0.082 3.84,0.187 5.84,0.32 2.214,0.082 4.546,0.121 7,0.121 2.429,0.027 4.629,0.066 6.601,0.121 1.973,0.133 3.985,0.199 6.039,0.199 2.028,0.051 4.188,0.09 6.481,0.118 2.054,0.109 4.066,0.175 6.043,0.199 0.105,-0.239 0.156,-0.426 0.156,-0.559 V 13.44 C 70.855,13.303 70.746,13.131 70.562,12.917 70.43,12.784 70.293,12.717 70.16,12.717 66.641,12.667 63.254,12.561 60,12.401 Z M 9.32,1.721 70.922,3.479 C 71,3.319 71.039,3.131 71.039,2.92 71.012,2.733 70.895,2.545 70.68,2.362 L 9.16,0.003 c 0,0.023 0.028,0.05 0.078,0.078 C 9.426,0.186 9.52,0.374 9.52,0.639 9.574,1.092 9.508,1.452 9.32,1.721 Z"
           inkscape:connector-curvature="0" />
        <g
           id="g34">
          <g
             id="g36">
            <g
               id="g42">
              <path
                 id="path50"
                 style="fill:url(#linearGradient44);fill-rule:evenodd"
                 d="M 9.52,12.159 H 9.16 c 0.055,0.16 0.106,0.269 0.16,0.32 -0.027,0.16 -0.027,0.238 0,0.238 v 0.043 l 61.2,1.641 0.199,-0.32 c -1.973,-0.028 -3.985,-0.094 -6.039,-0.2 -2.293,-0.027 -4.453,-0.066 -6.481,-0.121 -2.054,0 -4.066,-0.066 -6.039,-0.199 -1.972,-0.055 -4.176,-0.094 -6.601,-0.121 -2.454,0 -4.786,-0.039 -7,-0.121 -2,-0.133 -3.946,-0.238 -5.84,-0.316 -2.614,-0.083 -4.758,-0.176 -6.442,-0.282 -1.679,-0.027 -3.504,-0.093 -5.476,-0.199 -1.922,-0.027 -3.961,-0.082 -6.121,-0.16 -2.133,0 -3.852,-0.07 -5.16,-0.203 z"
                 inkscape:connector-curvature="0" />
            </g>
          </g>
        </g>
        <g
           id="g52">
          <g
             id="g54">
            <g
               id="g60">
              <path
                 id="path68"
                 style="fill:url(#linearGradient62);fill-rule:evenodd"
                 d="M 70.922,3.479 9.32,1.721 C 9.215,1.905 9.105,2.042 9,2.12 l 60.719,1.84 h 0.32 L 70.32,3.881 c 0.266,-0.054 0.465,-0.187 0.602,-0.402 z"
                 inkscape:connector-curvature="0" />
            </g>
          </g>
        </g>
        <g
           id="g70">
          <g
             id="g72">
            <g
               id="g78">
              <path
                 id="path88"
                 style="fill:url(#linearGradient80);fill-rule:evenodd"
                 d="M 69.719,3.96 9,2.12 C 8.84,2.307 8.641,2.44 8.398,2.518 8.055,2.733 7.719,2.92 7.398,3.081 7.16,3.264 6.922,3.428 6.68,3.561 6.492,3.749 6.375,3.881 6.32,3.96 6,4.174 5.734,4.467 5.52,4.838 5.414,5.108 5.348,5.413 5.32,5.76 V 6.12 L 60.719,7.561 61.281,7.28 h -0.043 z"
                 inkscape:connector-curvature="0" />
            </g>
          </g>
        </g>
        <g
           id="g90">
          <g
             id="g92">
            <g
               id="g98">
              <path
                 id="path120"
                 style="fill:url(#linearGradient100);fill-rule:evenodd"
                 d="M 8.922,10.639 9,10.6 h 0.078 l 0.043,0.039 c 0.024,0.11 0.094,0.227 0.199,0.36 1.918,0.054 10.625,0.269 26.121,0.64 7.704,0.293 15.891,0.547 24.559,0.762 l -0.078,-1.039 c -0.137,-1.551 -0.094,-2.484 0.117,-2.801 0.133,-0.453 0.469,-0.844 1,-1.16 L 60.719,7.561 5.32,6.12 C 5.215,6.866 5.188,7.374 5.238,7.639 c -0.023,2.348 -0.023,3.586 0,3.723 0,0.183 0.137,0.426 0.403,0.719 l 0.398,0.039 c 1.602,-0.801 2.441,-1.266 2.52,-1.403 0.082,-0.023 0.203,-0.05 0.363,-0.078 z"
                 inkscape:connector-curvature="0" />
            </g>
          </g>
        </g>
        <path
           id="path122"
           style="fill:#e6e7ed;fill-rule:evenodd"
           d="M 9.32,10.999 C 9.215,10.866 9.145,10.749 9.121,10.639 L 9.078,10.6 H 9 l -0.078,0.039 v 0.039 c 0,0.11 0.023,0.215 0.078,0.321 v 0.121 c 0,0.187 0.027,0.359 0.078,0.519 -0.051,0.321 -0.09,0.547 -0.117,0.68 L 8.641,12.717 0.68,16.92 0.762,16.96 4.32,15.319 6.441,14.202 c 0.774,-0.27 1.454,-0.614 2.039,-1.039 v -0.082 l 0.282,-0.039 c 0.027,0 0.066,-0.016 0.117,-0.043 0.027,0 0.055,-0.012 0.082,-0.039 0.027,-0.028 0.078,-0.055 0.16,-0.082 0.078,-0.051 0.145,-0.09 0.199,-0.118 v -0.039 c -0.027,0 -0.027,-0.082 0,-0.242 C 9.266,12.428 9.215,12.319 9.16,12.163 V 12.12 c -0.055,-0.106 0,-0.16 0.16,-0.16 0,0.027 0.039,0.027 0.121,0 0,0.054 0.012,0.054 0.039,0 v -0.2 C 9.453,11.545 9.398,11.292 9.32,10.999 Z"
           inkscape:connector-curvature="0" />
        <g
           id="g124">
          <g
             id="g126">
            <g
               id="g132">
              <path
                 id="path140"
                 style="fill:url(#linearGradient134);fill-rule:evenodd"
                 d="M 5.641,12.081 5.039,11.518 5.121,7.96 C 5.121,7.428 5.133,6.815 5.16,6.12 5.137,6.045 5.121,5.971 5.121,5.901 v 0.18 L 5.039,5.639 c 0.082,-0.851 0.414,-1.508 1,-1.961 L 8.602,1.838 C 8.652,1.788 8.68,1.733 8.68,1.678 8.762,1.628 8.852,1.545 8.961,1.44 9.066,1.362 9.121,1.202 9.121,0.96 9.094,0.799 9.055,0.639 9,0.479 8.867,0.319 8.68,0.213 8.441,0.159 8.414,0.159 8.375,0.147 8.32,0.12 l -8,5.64 C 0.105,5.999 0,6.159 0,6.241 L 0.039,7.202 C 0.066,7.253 0.105,7.307 0.16,7.362 V 7.401 H 0.52 L 2.922,5.639 C 3.238,5.534 3.48,5.799 3.641,6.44 V 6.6 c 0.105,3.012 0.121,4.879 0.039,5.602 -0.028,0.531 -0.149,0.984 -0.36,1.359 -0.132,0.106 -0.254,0.172 -0.359,0.199 -0.856,0.481 -1.602,0.957 -2.242,1.442 -0.051,0.133 -0.16,0.211 -0.321,0.238 -0.105,0.188 -0.171,0.348 -0.199,0.48 v 0.083 c 0,0.316 0.16,0.625 0.481,0.917 l 7.961,-4.199 0.32,-0.402 C 8.988,12.186 9.027,11.96 9.078,11.639 9.027,11.479 9,11.307 9,11.12 V 11.003 C 8.945,10.893 8.922,10.788 8.922,10.682 v -0.043 c -0.16,0.028 -0.281,0.055 -0.363,0.082 -0.079,0.133 -0.918,0.598 -2.52,1.399 z"
                 inkscape:connector-curvature="0" />
            </g>
          </g>
        </g>
        <g
           id="g142">
          <g
             id="g144">
            <g
               id="g150">
              <path
                 id="path158"
                 style="fill:url(#linearGradient152);fill-rule:evenodd"
                 d="M 0.68,7.639 C 0.812,7.588 1.105,7.346 1.559,6.92 2.281,6.413 2.762,6.108 3,6.003 3.215,5.948 3.375,6.069 3.48,6.362 3.48,6.733 3.492,7.147 3.52,7.6 v 1.641 c 0.054,2.265 0.054,3.426 0,3.48 -0.133,0.293 -0.2,0.508 -0.2,0.641 C 3.266,13.495 3.145,13.628 2.961,13.76 3.066,13.733 3.188,13.667 3.32,13.561 3.535,13.186 3.652,12.733 3.68,12.202 3.762,11.483 3.746,9.616 3.641,6.6 V 6.44 C 3.48,5.803 3.238,5.534 2.922,5.643 L 0.52,7.401 H 0.199 c 0.028,0.105 0.067,0.187 0.121,0.242 0,0.024 0.055,0.039 0.16,0.039 0.028,0.106 0.094,0.09 0.2,-0.043 z"
                 inkscape:connector-curvature="0" />
            </g>
          </g>
        </g>
        <path
           id="path160"
           style="fill:#95969a;fill-rule:evenodd"
           d="M 9,2.12 C 9.105,2.042 9.215,1.905 9.32,1.721 9.508,1.452 9.574,1.092 9.52,0.639 9.52,0.374 9.426,0.186 9.238,0.081 9.129,0.026 8.969,-0.001 8.762,-0.001 L 8.602,0.081 H 8.559 L 8.441,0.159 C 8.68,0.213 8.867,0.319 9,0.479 c 0.055,0.16 0.094,0.32 0.121,0.481 0,0.242 -0.055,0.402 -0.16,0.48 -0.106,0.105 -0.199,0.188 -0.281,0.238 0,0.055 -0.028,0.11 -0.078,0.16 l -2.563,1.84 c -0.586,0.453 -0.918,1.11 -1,1.961 l 0.082,0.442 v -0.18 c 0,0.07 0.016,0.144 0.039,0.219 C 5.133,6.815 5.121,7.428 5.121,7.96 l -0.082,3.558 0.602,0.563 C 5.375,11.788 5.238,11.545 5.238,11.362 5.215,11.229 5.215,9.987 5.238,7.639 5.188,7.374 5.215,6.866 5.32,6.12 V 5.76 C 5.348,5.413 5.414,5.108 5.52,4.842 5.734,4.467 6,4.174 6.32,3.963 6.375,3.881 6.492,3.749 6.68,3.561 6.922,3.428 7.16,3.268 7.398,3.081 7.719,2.92 8.055,2.733 8.398,2.522 8.641,2.44 8.84,2.307 9,2.12 Z"
           inkscape:connector-curvature="0" />
        <g
           id="g162">
          <g
             id="g164">
            <g
               id="g170">
              <path
                 id="path178"
                 style="fill:url(#linearGradient172);fill-rule:evenodd"
                 d="M 3.52,7.6 C 3.492,7.147 3.48,6.733 3.48,6.362 3.375,6.065 3.215,5.948 3,5.999 2.762,6.108 2.281,6.413 1.559,6.92 1.105,7.346 0.812,7.585 0.68,7.639 Z"
                 inkscape:connector-curvature="0" />
            </g>
          </g>
        </g>
        <g
           id="g180">
          <g
             id="g182">
            <g
               id="g188">
              <path
                 id="path196"
                 style="fill:url(#radialGradient190);fill-rule:evenodd"
                 d="M 7.281,17.042 V 16.92 C 7.281,16.76 7.16,16.612 6.922,16.479 6.68,16.401 6.398,16.362 6.078,16.362 c -0.344,0 -0.598,0.039 -0.758,0.117 -0.054,0.055 -0.093,0.082 -0.121,0.082 -0.211,0.106 -0.293,0.227 -0.238,0.359 0,0.079 0.051,0.133 0.16,0.161 0.051,0.105 0.133,0.172 0.238,0.199 0.188,0.082 0.414,0.121 0.68,0.121 H 6.16 c 0.028,0.023 0.055,0.039 0.078,0.039 H 6.32 c 0.293,0 0.535,-0.055 0.719,-0.16 0.133,-0.078 0.215,-0.16 0.242,-0.238 z"
                 inkscape:connector-curvature="0" />
            </g>
          </g>
        </g>
        <path
           id="path198"
           style="fill:#525355;fill-rule:evenodd"
           d="M 7.281,17.042 C 7.492,16.96 7.602,16.838 7.602,16.678 7.574,16.518 7.414,16.401 7.121,16.319 6.934,16.186 6.668,16.12 6.32,16.12 c -0.347,0 -0.625,0.066 -0.84,0.199 -0.16,0.055 -0.253,0.133 -0.281,0.242 0.028,0 0.067,-0.027 0.121,-0.082 0.16,-0.078 0.414,-0.117 0.758,-0.117 0.32,0 0.602,0.039 0.844,0.117 0.238,0.133 0.359,0.281 0.359,0.441 z"
           inkscape:connector-curvature="0" />
        <path
           id="path200"
           style="fill:#525355;fill-rule:evenodd"
           d="m 11.719,13.362 c 0.027,0 0.066,-0.016 0.121,-0.043 0.187,-0.078 0.441,-0.117 0.762,-0.117 0.343,0 0.625,0.039 0.839,0.117 0.266,0.133 0.399,0.266 0.399,0.398 v 0.161 c 0.187,-0.106 0.281,-0.227 0.281,-0.36 -0.027,-0.156 -0.16,-0.277 -0.402,-0.359 -0.266,-0.133 -0.574,-0.199 -0.918,-0.199 -0.293,0 -0.563,0.066 -0.801,0.199 -0.16,0.054 -0.254,0.121 -0.281,0.203 z"
           inkscape:connector-curvature="0" />
        <g
           id="g202">
          <g
             id="g204">
            <g
               id="g210">
              <path
                 id="path218"
                 style="fill:url(#radialGradient212);fill-rule:evenodd"
                 d="m 11.719,13.362 c -0.16,0.133 -0.227,0.25 -0.199,0.355 0,0.11 0.054,0.176 0.16,0.203 0.027,0.079 0.093,0.133 0.199,0.161 0.215,0.105 0.441,0.16 0.68,0.16 h 0.082 c 0.054,0.023 0.093,0.039 0.121,0.039 h 0.039 c 0.32,0 0.574,-0.067 0.758,-0.199 0.16,-0.055 0.253,-0.121 0.281,-0.203 v -0.161 c 0,-0.132 -0.133,-0.265 -0.399,-0.398 -0.214,-0.078 -0.496,-0.117 -0.839,-0.117 -0.321,0 -0.575,0.039 -0.762,0.117 -0.055,0.027 -0.094,0.043 -0.121,0.043 z"
                 inkscape:connector-curvature="0" />
            </g>
          </g>
        </g>
        <g
           id="g220">
          <g
             id="g222">
            <g
               id="g228">
              <path
                 id="path236"
                 style="fill:url(#radialGradient230);fill-rule:evenodd"
                 d="m 18.559,17.241 v -0.16 c 0,-0.161 -0.145,-0.293 -0.438,-0.403 -0.215,-0.078 -0.496,-0.117 -0.84,-0.117 -0.293,0 -0.547,0.039 -0.761,0.117 -0.028,0.028 -0.067,0.043 -0.122,0.043 -0.16,0.133 -0.226,0.254 -0.199,0.36 0,0.105 0.055,0.172 0.16,0.199 0.028,0.082 0.094,0.133 0.2,0.16 0.214,0.105 0.441,0.16 0.679,0.16 h 0.121 c 0.028,0.028 0.055,0.039 0.082,0.039 h 0.118 c 0.269,0 0.496,-0.066 0.679,-0.199 0.16,-0.055 0.27,-0.121 0.321,-0.199 z"
                 inkscape:connector-curvature="0" />
            </g>
          </g>
        </g>
        <path
           id="path238"
           style="fill:#525355;fill-rule:evenodd"
           d="m 18.559,17.241 c 0.16,-0.11 0.242,-0.242 0.242,-0.403 -0.028,-0.132 -0.16,-0.25 -0.403,-0.359 -0.238,-0.105 -0.519,-0.16 -0.839,-0.16 -0.344,0 -0.637,0.055 -0.879,0.16 -0.133,0.082 -0.227,0.16 -0.282,0.242 0.055,0 0.094,-0.015 0.122,-0.043 0.214,-0.078 0.468,-0.117 0.761,-0.117 0.344,0 0.625,0.039 0.84,0.117 0.293,0.11 0.438,0.242 0.438,0.403 z"
           inkscape:connector-curvature="0" />
        <path
           id="path240"
           style="fill:#525355;fill-rule:evenodd"
           d="m 24.922,14.042 c 0.156,-0.082 0.238,-0.204 0.238,-0.364 -0.027,-0.133 -0.16,-0.25 -0.398,-0.359 -0.242,-0.106 -0.524,-0.156 -0.84,-0.156 -0.348,0 -0.629,0.05 -0.844,0.156 -0.156,0.055 -0.266,0.133 -0.316,0.242 0.05,0 0.093,-0.016 0.117,-0.043 0.215,-0.105 0.469,-0.156 0.762,-0.156 0.347,0 0.652,0.051 0.918,0.156 0.242,0.11 0.363,0.242 0.363,0.402 z"
           inkscape:connector-curvature="0" />
        <g
           id="g242">
          <g
             id="g244">
            <g
               id="g250">
              <path
                 id="path258"
                 style="fill:url(#radialGradient252);fill-rule:evenodd"
                 d="m 22.762,13.561 c -0.16,0.106 -0.227,0.227 -0.203,0.359 0,0.079 0.054,0.133 0.16,0.161 0.027,0.105 0.109,0.172 0.242,0.199 0.184,0.082 0.398,0.121 0.641,0.121 h 0.16 c 0.027,0.023 0.066,0.039 0.117,0.039 h 0.043 c 0.266,0 0.504,-0.055 0.719,-0.16 0.132,-0.055 0.226,-0.133 0.281,-0.242 V 13.92 c 0,-0.16 -0.121,-0.292 -0.363,-0.402 -0.266,-0.105 -0.571,-0.156 -0.918,-0.156 -0.293,0 -0.547,0.051 -0.762,0.156 -0.024,0.027 -0.067,0.043 -0.117,0.043 z"
                 inkscape:connector-curvature="0" />
            </g>
          </g>
        </g>
        <g
           id="g260">
          <g
             id="g262">
            <g
               id="g268">
              <path
                 id="path276"
                 style="fill:url(#radialGradient270);fill-rule:evenodd"
                 d="m 26.641,16.92 c -0.188,0.106 -0.266,0.227 -0.243,0.36 0,0.082 0.055,0.133 0.161,0.16 0.054,0.105 0.148,0.172 0.281,0.199 0.16,0.082 0.375,0.121 0.64,0.121 h 0.122 c 0.05,0.028 0.093,0.039 0.117,0.039 h 0.043 c 0.293,0 0.547,-0.05 0.758,-0.16 0.132,-0.078 0.214,-0.16 0.242,-0.238 V 17.28 c 0,-0.16 -0.121,-0.305 -0.364,-0.442 -0.238,-0.078 -0.531,-0.117 -0.878,-0.117 -0.321,0 -0.586,0.039 -0.801,0.117 -0.024,0.055 -0.051,0.082 -0.078,0.082 z"
                 inkscape:connector-curvature="0" />
            </g>
          </g>
        </g>
        <path
           id="path278"
           style="fill:#525355;fill-rule:evenodd"
           d="m 28.762,17.401 c 0.183,-0.082 0.277,-0.199 0.277,-0.359 -0.051,-0.161 -0.199,-0.282 -0.437,-0.364 -0.243,-0.133 -0.524,-0.199 -0.84,-0.199 -0.348,0 -0.617,0.066 -0.801,0.199 -0.188,0.055 -0.293,0.137 -0.32,0.242 0.027,0 0.054,-0.027 0.078,-0.082 0.215,-0.078 0.48,-0.117 0.801,-0.117 0.347,0 0.64,0.039 0.878,0.117 0.243,0.137 0.364,0.282 0.364,0.442 z"
           inkscape:connector-curvature="0" />
        <g
           id="g280">
          <g
             id="g282">
            <g
               id="g288">
              <path
                 id="path296"
                 style="fill:url(#radialGradient290);fill-rule:evenodd"
                 d="m 35.121,14.319 v -0.117 c 0,-0.16 -0.121,-0.293 -0.359,-0.403 -0.242,-0.105 -0.524,-0.16 -0.84,-0.16 -0.348,0 -0.602,0.055 -0.762,0.16 -0.055,0.028 -0.094,0.039 -0.121,0.039 -0.211,0.11 -0.305,0.227 -0.277,0.364 0,0.078 0.078,0.133 0.238,0.16 0.027,0.105 0.094,0.172 0.199,0.199 0.16,0.078 0.387,0.117 0.68,0.117 h 0.082 c 0.051,0.028 0.094,0.039 0.117,0.039 h 0.043 c 0.32,0 0.574,-0.05 0.758,-0.156 0.133,-0.082 0.215,-0.16 0.242,-0.242 z"
                 inkscape:connector-curvature="0" />
            </g>
          </g>
        </g>
        <path
           id="path298"
           style="fill:#525355;fill-rule:evenodd"
           d="m 35.121,14.319 c 0.211,-0.078 0.32,-0.199 0.32,-0.359 -0.027,-0.161 -0.187,-0.282 -0.48,-0.36 -0.215,-0.133 -0.496,-0.199 -0.84,-0.199 -0.348,0 -0.629,0.066 -0.844,0.199 -0.132,0.055 -0.211,0.133 -0.238,0.242 0.027,0 0.066,-0.015 0.121,-0.043 0.16,-0.105 0.414,-0.16 0.758,-0.16 0.32,0 0.602,0.055 0.84,0.16 0.242,0.11 0.363,0.243 0.363,0.403 z"
           inkscape:connector-curvature="0" />
        <g
           id="g300">
          <g
             id="g302">
            <g
               id="g308">
              <path
                 id="path316"
                 style="fill:url(#radialGradient310);fill-rule:evenodd"
                 d="m 39.961,17.639 v -0.16 c 0,-0.133 -0.133,-0.266 -0.402,-0.398 -0.211,-0.082 -0.493,-0.121 -0.84,-0.121 -0.348,0 -0.614,0.043 -0.797,0.121 -0.027,0.027 -0.055,0.039 -0.082,0.039 -0.215,0.133 -0.281,0.254 -0.199,0.359 0,0.109 0.05,0.176 0.16,0.199 0.027,0.082 0.094,0.137 0.199,0.16 0.16,0.11 0.387,0.161 0.68,0.161 h 0.082 c 0.05,0.027 0.093,0.043 0.117,0.043 h 0.043 c 0.316,0 0.558,-0.067 0.719,-0.204 0.16,-0.05 0.265,-0.117 0.32,-0.199 z"
                 inkscape:connector-curvature="0" />
            </g>
          </g>
        </g>
        <path
           id="path318"
           style="fill:#525355;fill-rule:evenodd"
           d="m 39.961,17.639 c 0.184,-0.105 0.281,-0.226 0.281,-0.359 -0.054,-0.16 -0.215,-0.281 -0.48,-0.36 -0.215,-0.132 -0.496,-0.199 -0.84,-0.199 -0.32,0 -0.602,0.067 -0.844,0.199 -0.133,0.055 -0.211,0.122 -0.238,0.2 0.027,0 0.055,-0.012 0.082,-0.039 0.183,-0.082 0.449,-0.121 0.797,-0.121 0.347,0 0.629,0.043 0.84,0.121 0.269,0.132 0.402,0.265 0.402,0.398 z"
           inkscape:connector-curvature="0" />
        <g
           id="g320">
          <g
             id="g322">
            <g
               id="g328">
              <path
                 id="path336"
                 style="fill:url(#radialGradient330);fill-rule:evenodd"
                 d="m 46.32,14.6 v -0.16 c 0,-0.133 -0.132,-0.266 -0.398,-0.398 -0.215,-0.082 -0.496,-0.122 -0.844,-0.122 -0.316,0 -0.586,0.04 -0.797,0.122 -0.027,0.023 -0.054,0.039 -0.082,0.039 -0.187,0.132 -0.254,0.254 -0.199,0.359 0,0.105 0.039,0.172 0.121,0.199 0.051,0.082 0.133,0.149 0.238,0.199 0.215,0.082 0.442,0.122 0.68,0.122 h 0.082 c 0.051,0.027 0.09,0.039 0.117,0.039 h 0.082 c 0.293,0 0.52,-0.051 0.68,-0.161 0.188,-0.078 0.293,-0.16 0.32,-0.238 z"
                 inkscape:connector-curvature="0" />
            </g>
          </g>
        </g>
        <path
           id="path338"
           style="fill:#525355;fill-rule:evenodd"
           d="m 46.32,14.6 c 0.188,-0.105 0.282,-0.226 0.282,-0.359 -0.055,-0.16 -0.204,-0.281 -0.442,-0.36 -0.238,-0.132 -0.519,-0.203 -0.84,-0.203 -0.347,0 -0.64,0.071 -0.879,0.203 -0.136,0.051 -0.214,0.118 -0.242,0.2 0.028,0 0.055,-0.016 0.082,-0.039 0.211,-0.082 0.481,-0.122 0.797,-0.122 0.348,0 0.629,0.04 0.844,0.122 0.266,0.132 0.398,0.265 0.398,0.398 z"
           inkscape:connector-curvature="0" />
        <g
           id="g340">
          <g
             id="g342">
            <g
               id="g348">
              <path
                 id="path356"
                 style="fill:url(#radialGradient350);fill-rule:evenodd"
                 d="m 48.32,17.362 c -0.187,0.105 -0.254,0.223 -0.199,0.355 0,0.082 0.039,0.137 0.117,0.161 0.055,0.109 0.149,0.175 0.282,0.203 0.16,0.078 0.386,0.117 0.679,0.117 h 0.082 c 0.051,0.055 0.09,0.082 0.117,0.082 h 0.043 c 0.293,0 0.547,-0.067 0.758,-0.199 0.133,-0.055 0.215,-0.133 0.242,-0.243 v -0.121 c 0,-0.156 -0.121,-0.289 -0.363,-0.398 -0.238,-0.106 -0.519,-0.16 -0.84,-0.16 -0.343,0 -0.597,0.054 -0.758,0.16 -0.082,0.027 -0.132,0.043 -0.16,0.043 z"
                 inkscape:connector-curvature="0" />
            </g>
          </g>
        </g>
        <path
           id="path358"
           style="fill:#525355;fill-rule:evenodd"
           d="m 50.441,17.838 c 0.211,-0.078 0.317,-0.199 0.317,-0.359 -0.078,-0.133 -0.238,-0.25 -0.481,-0.359 -0.211,-0.106 -0.492,-0.16 -0.839,-0.16 -0.344,0 -0.614,0.054 -0.797,0.16 -0.188,0.082 -0.297,0.16 -0.321,0.242 0.024,0 0.078,-0.016 0.16,-0.043 0.161,-0.106 0.415,-0.156 0.758,-0.156 0.321,0 0.602,0.05 0.84,0.156 0.242,0.109 0.36,0.242 0.36,0.402 0.003,0.051 0.003,0.094 0.003,0.117 z"
           inkscape:connector-curvature="0" />
        <path
           id="path360"
           style="fill:#525355;fill-rule:evenodd"
           d="m 54.719,14.319 c 0.027,0 0.066,-0.012 0.121,-0.039 0.16,-0.078 0.414,-0.117 0.758,-0.117 0.32,0 0.601,0.039 0.843,0.117 0.239,0.105 0.36,0.238 0.36,0.398 v 0.16 c 0.211,-0.105 0.32,-0.238 0.32,-0.398 -0.027,-0.133 -0.187,-0.254 -0.48,-0.359 -0.215,-0.106 -0.496,-0.161 -0.844,-0.161 -0.344,0 -0.613,0.055 -0.797,0.161 -0.16,0.078 -0.254,0.16 -0.281,0.238 z"
           inkscape:connector-curvature="0" />
        <g
           id="g362">
          <g
             id="g364">
            <g
               id="g370">
              <path
                 id="path378"
                 style="fill:url(#radialGradient372);fill-rule:evenodd"
                 d="m 54.719,14.319 c -0.211,0.133 -0.305,0.254 -0.278,0.359 0,0.11 0.079,0.176 0.239,0.203 0.027,0.079 0.093,0.133 0.199,0.161 0.16,0.105 0.387,0.16 0.68,0.16 h 0.082 c 0.054,0.023 0.093,0.039 0.121,0.039 h 0.039 c 0.32,0 0.574,-0.067 0.758,-0.199 0.136,-0.055 0.214,-0.122 0.242,-0.204 v -0.16 c 0,-0.16 -0.121,-0.293 -0.36,-0.398 -0.242,-0.078 -0.519,-0.121 -0.839,-0.121 -0.348,0 -0.602,0.043 -0.762,0.121 -0.055,0.027 -0.094,0.039 -0.121,0.039 z"
                 inkscape:connector-curvature="0" />
            </g>
          </g>
        </g>
        <g
           id="g380">
          <g
             id="g382">
            <g
               id="g388">
              <path
                 id="path396"
                 style="fill:url(#radialGradient390);fill-rule:evenodd"
                 d="m 59.879,18.042 v -0.161 c 0,-0.132 -0.117,-0.269 -0.359,-0.402 -0.239,-0.078 -0.52,-0.117 -0.84,-0.117 -0.348,0 -0.614,0.039 -0.801,0.117 -0.024,0.027 -0.051,0.039 -0.078,0.039 -0.215,0.137 -0.309,0.254 -0.281,0.363 0,0.106 0.078,0.172 0.238,0.2 0.027,0.082 0.094,0.148 0.203,0.199 0.16,0.082 0.383,0.121 0.68,0.121 h 0.078 c 0.054,0.027 0.093,0.039 0.121,0.039 h 0.039 c 0.32,0 0.562,-0.055 0.719,-0.16 0.164,-0.078 0.257,-0.16 0.281,-0.238 z"
                 inkscape:connector-curvature="0" />
            </g>
          </g>
        </g>
        <path
           id="path398"
           style="fill:#525355;fill-rule:evenodd"
           d="m 59.879,18.042 c 0.215,-0.11 0.32,-0.227 0.32,-0.364 -0.027,-0.16 -0.187,-0.277 -0.48,-0.359 -0.215,-0.133 -0.492,-0.199 -0.84,-0.199 -0.348,0 -0.625,0.066 -0.84,0.199 -0.133,0.055 -0.215,0.121 -0.242,0.199 0.027,0 0.055,-0.012 0.082,-0.039 0.187,-0.078 0.453,-0.117 0.801,-0.117 0.32,0 0.597,0.039 0.84,0.117 0.238,0.133 0.359,0.27 0.359,0.402 z"
           inkscape:connector-curvature="0" />
        <path
           id="path400"
           style="fill:#525355;fill-rule:evenodd"
           d="m 67.441,15.042 c 0.211,-0.082 0.317,-0.204 0.317,-0.364 -0.078,-0.16 -0.238,-0.277 -0.481,-0.359 -0.211,-0.106 -0.492,-0.156 -0.839,-0.156 -0.344,0 -0.626,0.05 -0.84,0.156 -0.16,0.055 -0.254,0.133 -0.278,0.242 0.024,0 0.067,-0.016 0.118,-0.043 0.187,-0.105 0.453,-0.156 0.8,-0.156 0.321,0 0.602,0.051 0.84,0.156 0.242,0.11 0.36,0.242 0.36,0.402 0.003,0.055 0.003,0.094 0.003,0.122 z"
           inkscape:connector-curvature="0" />
        <g
           id="g402">
          <g
             id="g404">
            <g
               id="g410">
              <path
                 id="path418"
                 style="fill:url(#radialGradient412);fill-rule:evenodd"
                 d="m 65.32,14.561 c -0.187,0.106 -0.265,0.227 -0.242,0.359 0,0.079 0.055,0.133 0.16,0.161 0.055,0.105 0.149,0.172 0.282,0.199 0.16,0.082 0.386,0.121 0.679,0.121 h 0.082 c 0.051,0.027 0.09,0.039 0.117,0.039 h 0.043 c 0.293,0 0.532,-0.055 0.719,-0.16 0.16,-0.051 0.254,-0.133 0.281,-0.238 V 14.92 c 0,-0.16 -0.121,-0.292 -0.359,-0.402 -0.242,-0.105 -0.52,-0.156 -0.84,-0.156 -0.347,0 -0.613,0.051 -0.801,0.156 -0.054,0.027 -0.093,0.043 -0.121,0.043 z"
                 inkscape:connector-curvature="0" />
            </g>
          </g>
        </g>
      </g>
    </g>
  </g>
</svg>
