<?xml version="1.0" encoding="UTF-8" standalone="no"?>
<!-- Created with Inkscape (http://www.inkscape.org/) -->

<svg
   width="22.088923mm"
   height="22.088923mm"
   viewBox="0 0 22.088923 22.088923"
   version="1.1"
   id="svg5941"
   inkscape:version="1.1.2 (0a00cf5339, 2022-02-04)"
   sodipodi:docname="bloem_water.svg"
   xmlns:inkscape="http://www.inkscape.org/namespaces/inkscape"
   xmlns:sodipodi="http://sodipodi.sourceforge.net/DTD/sodipodi-0.dtd"
   xmlns="http://www.w3.org/2000/svg"
   xmlns:svg="http://www.w3.org/2000/svg">
  <sodipodi:namedview
     id="namedview5943"
     pagecolor="#ffffff"
     bordercolor="#666666"
     borderopacity="1.0"
     inkscape:pageshadow="2"
     inkscape:pageopacity="0.0"
     inkscape:pagecheckerboard="0"
     inkscape:document-units="mm"
     showgrid="false"
     inkscape:zoom="6.9040128"
     inkscape:cx="19.336581"
     inkscape:cy="42.076979"
     inkscape:window-width="1920"
     inkscape:window-height="1024"
     inkscape:window-x="0"
     inkscape:window-y="0"
     inkscape:window-maximized="1"
     inkscape:current-layer="layer1" />
  <defs
     id="defs5938" />
  <g
     inkscape:label="Layer 1"
     inkscape:groupmode="layer"
     id="layer1"
     transform="translate(-162.81977,-184.93218)">
    <g
       id="g6901"
       transform="matrix(0.07841249,4.6248647e-4,4.6248647e-4,-0.07841249,154.14549,215.46414)">
      <path
         d="m 383.4803,250 c 0,-73.71922 -59.76108,-133.4803 -133.48031,-133.4803 -73.71921,0 -133.48029,59.76108 -133.48029,133.4803 0,73.71922 59.76108,133.4803 133.48029,133.4803 73.71923,0 133.48031,-59.76108 133.48031,-133.4803"
         style="fill:none;fill-opacity:1;fill-rule:nonzero;stroke:#197fae;stroke-width:14.736;stroke-miterlimit:4;stroke-dasharray:none;stroke-opacity:1"
         id="path5187-7"
         inkscape:connector-curvature="0" />
      <path
         d="m 250,354.239 c -57.478,0 -104.239,-46.761 -104.239,-104.239 0,-57.478 46.761,-104.239 104.239,-104.239 57.478,0 104.239,46.761 104.239,104.239 0,57.478 -46.761,104.239 -104.239,104.239 m 0,-211.478 c -59.132,0 -107.239,48.107 -107.239,107.239 0,59.132 48.107,107.239 107.239,107.239 59.132,0 107.239,-48.107 107.239,-107.239 0,-59.132 -48.107,-107.239 -107.239,-107.239"
         style="display:inline;fill:#ffffff;fill-opacity:1;fill-rule:nonzero;stroke:none"
         id="path5191"
         inkscape:connector-curvature="0" />
      <path
         d="m 250,354.24 c -39.068,0 -74.535,-21.554 -92.559,-56.251 -2.016,-3.882 -3.779,-7.87 -5.243,-11.856 -2.524,-6.814 -4.325,-13.917 -5.353,-21.115 -0.72,-4.904 -1.085,-9.955 -1.085,-15.018 0,-21.453 6.469,-42.06 18.71,-59.592 5.512,-7.913 12.102,-15.024 19.589,-21.136 5.552,-4.555 11.601,-8.538 17.981,-11.84 14.689,-7.636 31.272,-11.672 47.96,-11.672 16.688,0 33.271,4.036 47.959,11.671 6.381,3.303 12.429,7.286 17.979,11.84 7.49,6.113 14.08,13.223 19.591,21.136 12.242,17.533 18.711,38.14 18.711,59.593 0,5.064 -0.365,10.115 -1.085,15.012 -1.028,7.203 -2.829,14.306 -5.351,21.117 -1.465,3.991 -3.23,7.979 -5.245,11.86 C 324.535,332.686 289.068,354.24 250,354.24 m 0,-211.48 c -17.167,0 -34.229,4.152 -49.342,12.009 -6.563,3.397 -12.788,7.497 -18.499,12.181 -7.7,6.286 -14.48,13.602 -20.15,21.742 -12.592,18.037 -19.249,39.237 -19.249,61.308 0,5.208 0.375,10.406 1.116,15.448 1.058,7.403 2.911,14.714 5.507,21.723 1.506,4.1 3.322,8.206 5.396,12.201 18.542,35.694 55.029,57.868 95.221,57.868 40.192,0 76.679,-22.174 95.221,-57.868 2.074,-3.993 3.89,-8.1 5.397,-12.205 2.596,-7.006 4.448,-14.317 5.507,-21.725 0.739,-5.035 1.115,-10.233 1.115,-15.442 0,-22.071 -6.656,-43.271 -19.251,-61.309 -5.669,-8.139 -12.449,-15.456 -20.151,-21.743 -5.709,-4.683 -11.934,-8.782 -18.498,-12.18 C 284.229,146.912 267.167,142.76 250,142.76"
         style="display:inline;fill:#ffffff;fill-opacity:1;fill-rule:nonzero;stroke:none"
         id="path5193"
         inkscape:connector-curvature="0" />
      <path
         d="m 362.79,250 c 0,-62.292 -50.498,-112.79 -112.79,-112.79 -62.292,0 -112.79,50.498 -112.79,112.79 0,62.292 50.498,112.79 112.79,112.79 62.292,0 112.79,-50.498 112.79,-112.79"
         style="display:inline;fill:#1980b0;fill-opacity:1;fill-rule:nonzero;stroke:none"
         id="path5189"
         inkscape:connector-curvature="0" />
      <path
         d="m 263.833,252.167 c 0,-9.665 -7.835,-17.5 -17.5,-17.5 -9.665,0 -17.5,7.835 -17.5,17.5 0,9.665 17.5,39.166 17.5,39.166 0,0 17.5,-29.501 17.5,-39.166"
         style="display:inline;fill:#1980b0;fill-opacity:1;fill-rule:nonzero;stroke:none"
         id="path5209"
         inkscape:connector-curvature="0" />
      <path
         id="path5135"
         style="fill:#0b9bde;fill-opacity:1;fill-rule:nonzero;stroke:none;stroke-width:0.999998"
         d="m 151.49415,273.50001 c -3.911,0 -5.89263,-1.0461 -7.80762,-2.0581 -1.89201,-0.999 -3.6788,-1.94238 -7.3418,-1.94238 -0.76341,0 -1.40467,0.0609 -2.02295,0.13476 -0.0554,-0.32876 -0.12309,-0.65322 -0.17578,-0.98291 0.67175,-0.0832 1.37217,-0.15088 2.19873,-0.15088 3.911,0 5.89262,1.04611 7.80761,2.0581 1.89201,0.999 3.67781,1.94093 7.34181,1.94093 3.663,0 5.44933,-0.94193 7.34033,-1.94093 1.916,-1.01199 3.89708,-2.0581 7.80908,-2.0581 3.912,0 5.89454,1.04611 7.81055,2.0581 1.89099,0.999 3.67779,1.94093 7.34179,1.94093 3.664,0 5.4508,-0.94193 7.3418,-1.94093 1.916,-1.01199 3.89708,-2.0581 7.80908,-2.0581 3.911,0 5.89162,1.04611 7.80762,2.0581 1.892,0.999 3.68026,1.94093 7.34327,1.94093 3.66399,0 5.44979,-0.94193 7.34179,-1.94093 1.916,-1.01199 3.89708,-2.0581 7.80908,-2.0581 3.911,0 5.89308,1.04611 7.80909,2.0581 1.89099,0.999 3.67733,1.94093 7.34033,1.94093 3.66499,0 5.45126,-0.94193 7.34326,-1.94093 1.916,-1.01199 3.89708,-2.0581 7.80908,-2.0581 3.912,0 5.89309,1.04611 7.80908,2.0581 1.892,0.999 3.67927,1.94093 7.34327,1.94093 3.663,0 5.44979,-0.94193 7.34179,-1.94093 1.91601,-1.01199 3.89709,-2.0581 7.80909,-2.0581 3.911,0 5.89161,1.04611 7.80761,2.0581 1.89199,0.999 3.67927,1.94093 7.34326,1.94093 3.663,0 5.44834,-0.94193 7.34034,-1.94093 1.916,-1.01199 3.89562,-2.0581 7.80761,-2.0581 3.91101,0 5.89308,1.04611 7.80908,2.0581 1.892,0.999 3.67781,1.94093 7.3418,1.94093 3.664,0 5.4498,-0.94193 7.3418,-1.94093 1.916,-1.01199 3.89708,-2.0581 7.80908,-2.0581 3.912,0 5.89455,1.04611 7.81055,2.0581 1.891,0.999 3.67679,1.94093 7.34179,1.94093 0.89777,0 1.67726,-0.0596 2.37891,-0.15968 -0.0646,0.33491 -0.11278,0.6754 -0.18018,1.00929 -0.67175,0.0832 -1.37217,0.15087 -2.19873,0.15087 -3.913,0 -5.89309,-1.0461 -7.80908,-2.0581 -1.892,-0.999 -3.67926,-1.94238 -7.34326,-1.94238 -3.664,0 -5.45127,0.94338 -7.34326,1.94238 -1.91601,1.012 -3.89661,2.0581 -7.80762,2.0581 -3.911,0 -5.89308,-1.0461 -7.80908,-2.0581 -1.891,-0.999 -3.67879,-1.94238 -7.3418,-1.94238 -3.664,0 -5.44933,0.94338 -7.34033,1.94238 -1.916,1.012 -3.89661,2.0581 -7.80762,2.0581 -3.912,0 -5.89454,-1.0461 -7.81054,-2.0581 -1.891,-0.999 -3.67634,-1.94238 -7.34033,-1.94238 -3.66501,0 -5.4508,0.94338 -7.34181,1.94238 -1.91599,1.012 -3.89807,2.0581 -7.80907,2.0581 -3.912,0 -5.89308,-1.0461 -7.80909,-2.0581 -1.892,-0.999 -3.67826,-1.94238 -7.34326,-1.94238 -3.664,0 -5.4498,0.94338 -7.3418,1.94238 -1.916,1.012 -3.89854,2.0581 -7.81054,2.0581 -3.911,0 -5.89162,-1.0461 -7.80762,-2.0581 -1.892,-0.999 -3.6778,-1.94238 -7.3418,-1.94238 -3.664,0 -5.45226,0.94338 -7.34326,1.94238 -1.916,1.012 -3.89562,2.0581 -7.80761,2.0581 -3.911,0 -5.89309,-1.0461 -7.80909,-2.0581 -1.892,-0.999 -3.6788,-1.94238 -7.3418,-1.94238 -3.664,0 -5.44979,0.94338 -7.34179,1.94238 -1.91601,1.012 -3.89709,2.0581 -7.80909,2.0581 -3.912,0 -5.89308,-1.0461 -7.80908,-2.0581 -1.892,-0.999 -3.67925,-1.94238 -7.34326,-1.94238 -3.664,0 -5.4498,0.94338 -7.3418,1.94238 -1.916,1.012 -3.89661,2.0581 -7.80761,2.0581 z" />
      <path
         id="path5133"
         style="fill:#0b9bde;fill-opacity:1;fill-rule:nonzero;stroke:none;stroke-width:0.999998"
         d="m 151.49415,284.00001 c -3.911,0 -5.89263,-1.0461 -7.80762,-2.0581 -1.85373,-0.97879 -3.63019,-1.89216 -7.14551,-1.9292 -0.0886,-0.33621 -0.1809,-0.67044 -0.2666,-1.00782 0.0263,-9e-5 0.0439,-0.005 0.0703,-0.005 3.91101,0 5.89263,1.04611 7.80762,2.05811 1.89201,0.999 3.6778,1.94092 7.3418,1.94092 3.663,0 5.44933,-0.94192 7.34033,-1.94092 1.916,-1.01199 3.89708,-2.05811 7.80908,-2.05811 3.912,0 5.89455,1.04611 7.81055,2.05811 1.891,0.999 3.6778,1.94092 7.34179,1.94092 3.664,0 5.4508,-0.94192 7.3418,-1.94092 1.916,-1.01199 3.89708,-2.05811 7.80908,-2.05811 3.91101,0 5.89162,1.04611 7.80762,2.05811 1.89201,0.999 3.68026,1.94092 7.34327,1.94092 3.664,0 5.44979,-0.94192 7.34179,-1.94092 1.916,-1.01199 3.89709,-2.05811 7.80909,-2.05811 3.91099,0 5.89308,1.04611 7.80908,2.05811 1.891,0.999 3.67733,1.94092 7.34033,1.94092 3.665,0 5.45126,-0.94192 7.34326,-1.94092 1.916,-1.01199 3.89708,-2.05811 7.80908,-2.05811 3.912,0 5.89309,1.04611 7.80908,2.05811 1.89201,0.999 3.67927,1.94092 7.34327,1.94092 3.663,0 5.44979,-0.94192 7.34179,-1.94092 1.91601,-1.01199 3.89709,-2.05811 7.80909,-2.05811 3.911,0 5.89161,1.04611 7.80761,2.05811 1.892,0.999 3.67927,1.94092 7.34327,1.94092 3.663,0 5.44833,-0.94192 7.34033,-1.94092 1.916,-1.01199 3.89562,-2.05811 7.80761,-2.05811 3.91101,0 5.89308,1.04611 7.80908,2.05811 1.892,0.999 3.67781,1.94092 7.34181,1.94092 3.66399,0 5.4498,-0.94192 7.34179,-1.94092 1.916,-1.01199 3.89708,-2.05811 7.80908,-2.05811 3.912,0 5.89455,1.04611 7.81055,2.05811 1.85135,0.97805 3.62633,1.88944 7.13818,1.92774 -0.0951,0.32572 -0.18045,0.65543 -0.27831,0.97998 -3.56484,-0.0902 -5.4999,-1.05929 -7.32716,-2.02442 -1.892,-0.999 -3.67926,-1.94238 -7.34326,-1.94238 -3.66399,0 -5.45127,0.94338 -7.34326,1.94238 -1.91597,1.01211 -3.89657,2.05821 -7.80758,2.05821 -3.911,0 -5.89308,-1.0461 -7.80908,-2.0581 -1.891,-0.999 -3.67879,-1.94238 -7.3418,-1.94238 -3.664,0 -5.44933,0.94338 -7.34033,1.94238 -1.916,1.012 -3.89661,2.0581 -7.80762,2.0581 -3.912,0 -5.89454,-1.0461 -7.81054,-2.0581 -1.891,-0.999 -3.67634,-1.94238 -7.34033,-1.94238 -3.66501,0 -5.4508,0.94338 -7.34181,1.94238 -1.91599,1.012 -3.89807,2.0581 -7.80907,2.0581 -3.912,0 -5.89308,-1.0461 -7.80909,-2.0581 -1.892,-0.999 -3.67826,-1.94238 -7.34326,-1.94238 -3.664,0 -5.4498,0.94338 -7.3418,1.94238 -1.916,1.012 -3.89854,2.0581 -7.81054,2.0581 -3.911,0 -5.89162,-1.0461 -7.80762,-2.0581 -1.892,-0.999 -3.6778,-1.94238 -7.3418,-1.94238 -3.664,0 -5.45226,0.94338 -7.34326,1.94238 -1.916,1.012 -3.89562,2.0581 -7.80761,2.0581 -3.911,0 -5.89309,-1.0461 -7.80909,-2.0581 -1.892,-0.999 -3.6788,-1.94238 -7.3418,-1.94238 -3.664,0 -5.44979,0.94338 -7.34179,1.94238 -1.91601,1.012 -3.89709,2.0581 -7.80909,2.0581 -3.912,0 -5.89308,-1.0461 -7.80908,-2.0581 -1.892,-0.999 -3.67925,-1.94238 -7.34326,-1.94238 -3.664,0 -5.4498,0.94338 -7.3418,1.94238 -1.916,1.012 -3.89661,2.0581 -7.80761,2.0581 z" />
      <path
         id="path5131"
         style="fill:#0b9bde;fill-opacity:1;fill-rule:nonzero;stroke:none;stroke-width:0.999998"
         d="m 151.49415,294.50001 c -3.911,0 -5.89263,-1.0461 -7.80762,-2.0581 -1.22879,-0.64882 -2.46561,-1.24678 -4.14844,-1.60547 -0.13636,-0.36871 -0.26421,-0.74138 -0.39698,-1.11182 2.17371,0.35727 3.62081,1.0992 5.01123,1.83398 1.89201,0.999 3.67781,1.94093 7.34181,1.94093 3.663,0 5.44933,-0.94193 7.34033,-1.94093 1.916,-1.01199 3.89708,-2.0581 7.80908,-2.0581 3.912,0 5.89454,1.04611 7.81055,2.0581 1.89099,0.999 3.67779,1.94093 7.34179,1.94093 3.664,0 5.4508,-0.94193 7.3418,-1.94093 1.916,-1.01199 3.89708,-2.0581 7.80908,-2.0581 3.911,0 5.89162,1.04611 7.80762,2.0581 1.892,0.999 3.68026,1.94093 7.34327,1.94093 3.66399,0 5.44979,-0.94193 7.34179,-1.94093 1.916,-1.01199 3.89708,-2.0581 7.80908,-2.0581 3.911,0 5.89308,1.04611 7.80909,2.0581 1.89099,0.999 3.67733,1.94093 7.34033,1.94093 3.66499,0 5.45126,-0.94193 7.34326,-1.94093 1.916,-1.01199 3.89708,-2.0581 7.80908,-2.0581 3.912,0 5.89309,1.04611 7.80908,2.0581 1.892,0.999 3.67927,1.94093 7.34327,1.94093 3.663,0 5.44979,-0.94193 7.34179,-1.94093 1.91601,-1.01199 3.89709,-2.0581 7.80909,-2.0581 3.911,0 5.89161,1.04611 7.80761,2.0581 1.89199,0.999 3.67927,1.94093 7.34326,1.94093 3.663,0 5.44834,-0.94193 7.34034,-1.94093 1.916,-1.01199 3.89562,-2.0581 7.80761,-2.0581 3.91101,0 5.89308,1.04611 7.80908,2.0581 1.892,0.999 3.67781,1.94093 7.3418,1.94093 3.664,0 5.4498,-0.94193 7.3418,-1.94093 1.916,-1.01199 3.89708,-2.0581 7.80908,-2.0581 3.912,0 5.89455,1.04611 7.81055,2.0581 1.0315,0.54494 2.06205,1.05648 3.35302,1.42383 -0.12253,0.31224 -0.24402,0.62511 -0.36913,0.93604 -1.35171,-0.39569 -2.42414,-0.93409 -3.45118,-1.47656 -1.892,-0.999 -3.67926,-1.94238 -7.34326,-1.94238 -3.664,0 -5.45127,0.94338 -7.34326,1.94238 -1.91601,1.012 -3.89661,2.0581 -7.80762,2.0581 -3.911,0 -5.89308,-1.0461 -7.80908,-2.0581 -1.891,-0.999 -3.67879,-1.94238 -7.3418,-1.94238 -3.664,0 -5.44933,0.94338 -7.34033,1.94238 -1.916,1.012 -3.89661,2.0581 -7.80762,2.0581 -3.912,0 -5.89454,-1.0461 -7.81054,-2.0581 -1.891,-0.999 -3.67634,-1.94238 -7.34033,-1.94238 -3.66501,0 -5.4508,0.94338 -7.34181,1.94238 -1.91599,1.012 -3.89807,2.0581 -7.80907,2.0581 -3.912,0 -5.89308,-1.0461 -7.80909,-2.0581 -1.892,-0.999 -3.67826,-1.94238 -7.34326,-1.94238 -3.664,0 -5.4498,0.94338 -7.3418,1.94238 -1.916,1.012 -3.89854,2.0581 -7.81054,2.0581 -3.911,0 -5.89162,-1.0461 -7.80762,-2.0581 -1.892,-0.999 -3.6778,-1.94238 -7.3418,-1.94238 -3.664,0 -5.45226,0.94338 -7.34326,1.94238 -1.916,1.012 -3.89562,2.0581 -7.80761,2.0581 -3.911,0 -5.89309,-1.0461 -7.80909,-2.0581 -1.892,-0.999 -3.6788,-1.94238 -7.3418,-1.94238 -3.664,0 -5.44979,0.94338 -7.34179,1.94238 -1.91601,1.012 -3.89709,2.0581 -7.80909,2.0581 -3.912,0 -5.89308,-1.0461 -7.80908,-2.0581 -1.892,-0.999 -3.67925,-1.94238 -7.34326,-1.94238 -3.664,0 -5.4498,0.94338 -7.3418,1.94238 -1.916,1.012 -3.89661,2.0581 -7.80761,2.0581 z" />
      <path
         id="path5129"
         style="fill:#0b9bde;fill-opacity:1;fill-rule:nonzero;stroke:none;stroke-width:0.999998"
         d="m 151.49415,305.00001 c -2.89401,0 -4.72634,-0.57528 -6.26221,-1.2832 -0.25667,-0.49958 -0.51788,-0.99631 -0.76758,-1.5 1.78342,0.93612 3.56568,1.78272 7.02979,1.78272 3.663,0 5.44933,-0.94193 7.34033,-1.94093 1.916,-1.01199 3.89708,-2.0581 7.80908,-2.0581 3.912,0 5.89454,1.04611 7.81055,2.0581 1.89099,0.999 3.67779,1.94093 7.34179,1.94093 3.664,0 5.4508,-0.94193 7.3418,-1.94093 1.916,-1.01199 3.89708,-2.0581 7.80908,-2.0581 3.911,0 5.89162,1.04611 7.80762,2.0581 1.892,0.999 3.68026,1.94093 7.34327,1.94093 3.66399,0 5.44979,-0.94193 7.34179,-1.94093 1.916,-1.01199 3.89708,-2.0581 7.80908,-2.0581 3.911,0 5.89308,1.04611 7.80909,2.0581 1.89099,0.999 3.67733,1.94093 7.34033,1.94093 3.66499,0 5.45126,-0.94193 7.34326,-1.94093 1.916,-1.01199 3.89708,-2.0581 7.80908,-2.0581 3.912,0 5.89309,1.04611 7.80908,2.0581 1.892,0.999 3.67927,1.94093 7.34327,1.94093 3.663,0 5.44979,-0.94193 7.34179,-1.94093 1.91601,-1.01199 3.89709,-2.0581 7.80909,-2.0581 3.911,0 5.89161,1.04611 7.80761,2.0581 1.89199,0.999 3.67927,1.94093 7.34326,1.94093 3.663,0 5.44834,-0.94193 7.34034,-1.94093 1.916,-1.01199 3.89562,-2.0581 7.80761,-2.0581 3.91101,0 5.89308,1.04611 7.80908,2.0581 1.892,0.999 3.67781,1.94093 7.3418,1.94093 3.664,0 5.4498,-0.94193 7.3418,-1.94093 1.916,-1.01199 3.89708,-2.0581 7.80908,-2.0581 3.57285,0 5.52464,0.87658 7.29785,1.79883 -0.1467,0.29893 -0.30641,0.5902 -0.45556,0.8877 -1.72329,-0.89631 -3.49947,-1.6875 -6.84229,-1.6875 -3.664,0 -5.45127,0.94338 -7.34326,1.94238 -1.91601,1.012 -3.89661,2.0581 -7.80762,2.0581 -3.911,0 -5.89308,-1.0461 -7.80908,-2.0581 -1.891,-0.999 -3.67879,-1.94238 -7.3418,-1.94238 -3.664,0 -5.44933,0.94338 -7.34033,1.94238 -1.916,1.012 -3.89661,2.0581 -7.80762,2.0581 -3.912,0 -5.89454,-1.0461 -7.81054,-2.0581 -1.891,-0.999 -3.67634,-1.94238 -7.34033,-1.94238 -3.66501,0 -5.4508,0.94338 -7.34181,1.94238 -1.91599,1.012 -3.89807,2.0581 -7.80907,2.0581 -3.912,0 -5.89308,-1.0461 -7.80909,-2.0581 -1.892,-0.999 -3.67826,-1.94238 -7.34326,-1.94238 -3.664,0 -5.4498,0.94338 -7.3418,1.94238 -1.916,1.012 -3.89854,2.0581 -7.81054,2.0581 -3.911,0 -5.89162,-1.0461 -7.80762,-2.0581 -1.892,-0.999 -3.6778,-1.94238 -7.3418,-1.94238 -3.664,0 -5.45226,0.94338 -7.34326,1.94238 -1.916,1.012 -3.89562,2.0581 -7.80761,2.0581 -3.911,0 -5.89309,-1.0461 -7.80909,-2.0581 -1.892,-0.999 -3.6788,-1.94238 -7.3418,-1.94238 -3.664,0 -5.44979,0.94338 -7.34179,1.94238 -1.91601,1.012 -3.89709,2.0581 -7.80909,2.0581 -3.912,0 -5.89308,-1.0461 -7.80908,-2.0581 -1.892,-0.999 -3.67925,-1.94238 -7.34326,-1.94238 -3.664,0 -5.4498,0.94338 -7.3418,1.94238 -1.916,1.012 -3.89661,2.0581 -7.80761,2.0581 z" />
      <path
         id="path5127"
         style="fill:#0b9bde;fill-opacity:1;fill-rule:nonzero;stroke:none;stroke-width:0.999998"
         d="m 181.7959,315.50002 c -3.912,0 -5.89308,-1.04611 -7.80908,-2.05811 -1.892,-0.999 -3.67925,-1.94238 -7.34326,-1.94238 -3.664,0 -5.4498,0.94338 -7.3418,1.94238 -1.80024,0.95086 -3.71726,1.90056 -7.1792,2.01563 -0.21135,-0.3154 -0.40686,-0.64194 -0.61523,-0.95948 3.6529,-0.002 5.43872,-0.94181 7.32715,-1.93945 1.916,-1.012 3.89708,-2.05811 7.80908,-2.05811 3.912,0 5.89454,1.04611 7.81055,2.05811 1.89099,0.999 3.67779,1.94092 7.34179,1.94092 3.664,0 5.4508,-0.94192 7.3418,-1.94092 1.916,-1.012 3.89708,-2.05811 7.80908,-2.05811 3.911,0 5.89162,1.04611 7.80762,2.05811 1.892,0.999 3.68026,1.94092 7.34327,1.94092 3.66399,0 5.44979,-0.94192 7.34179,-1.94092 1.916,-1.012 3.89708,-2.05811 7.80908,-2.05811 3.911,0 5.89308,1.04611 7.80909,2.05811 1.89099,0.999 3.67733,1.94092 7.34033,1.94092 3.66499,0 5.45126,-0.94192 7.34326,-1.94092 1.916,-1.012 3.89708,-2.05811 7.80908,-2.05811 3.912,0 5.89309,1.04611 7.80908,2.05811 1.892,0.999 3.67927,1.94092 7.34327,1.94092 3.663,0 5.44979,-0.94192 7.34179,-1.94092 1.91601,-1.012 3.89709,-2.05811 7.80909,-2.05811 3.911,0 5.89161,1.04611 7.80761,2.05811 1.89199,0.999 3.67927,1.94092 7.34326,1.94092 3.663,0 5.44834,-0.94192 7.34034,-1.94092 1.916,-1.012 3.89562,-2.05811 7.80761,-2.05811 3.91101,0 5.89308,1.04611 7.80908,2.05811 1.892,0.999 3.67781,1.94092 7.3418,1.94092 3.664,0 5.4498,-0.94192 7.3418,-1.94092 1.916,-1.012 3.89708,-2.05811 7.80908,-2.05811 0.92735,0 1.73148,0.0668 2.4668,0.16993 -0.19288,0.32015 -0.39011,0.63691 -0.58594,0.95507 -0.58334,-0.0643 -1.17106,-0.12597 -1.88086,-0.12597 -3.664,0 -5.45127,0.94338 -7.34326,1.94238 -1.91601,1.012 -3.89661,2.05811 -7.80762,2.05811 -3.911,0 -5.89308,-1.04611 -7.80908,-2.05811 -1.891,-0.999 -3.67879,-1.94238 -7.3418,-1.94238 -3.664,0 -5.44933,0.94338 -7.34033,1.94238 -1.916,1.012 -3.89661,2.05811 -7.80762,2.05811 -3.912,0 -5.89454,-1.04611 -7.81054,-2.05811 -1.891,-0.999 -3.67634,-1.94238 -7.34033,-1.94238 -3.66501,0 -5.4508,0.94338 -7.34181,1.94238 -1.91599,1.012 -3.89807,2.05811 -7.80907,2.05811 -3.912,0 -5.89308,-1.04611 -7.80909,-2.05811 -1.892,-0.999 -3.67826,-1.94238 -7.34326,-1.94238 -3.664,0 -5.4498,0.94338 -7.3418,1.94238 -1.916,1.012 -3.89854,2.05811 -7.81054,2.05811 -3.911,0 -5.89162,-1.04611 -7.80762,-2.05811 -1.892,-0.999 -3.6778,-1.94238 -7.3418,-1.94238 -3.664,0 -5.45226,0.94338 -7.34326,1.94238 -1.916,1.012 -3.89562,2.05811 -7.80761,2.05811 -3.911,0 -5.89309,-1.04611 -7.80909,-2.05811 -1.892,-0.999 -3.6788,-1.94238 -7.3418,-1.94238 -3.664,0 -5.44979,0.94338 -7.34179,1.94238 -1.91601,1.012 -3.89709,2.05811 -7.80909,2.05811 z" />
      <path
         id="path5125"
         style="fill:#0b9bde;fill-opacity:1;fill-rule:nonzero;stroke:none;stroke-width:0.999998"
         d="m 181.7959,326.00002 c -3.912,0 -5.89308,-1.04611 -7.80908,-2.05811 -1.892,-0.999 -3.67925,-1.94238 -7.34326,-1.94238 -3.664,0 -5.4498,0.94338 -7.3418,1.94238 -0.21175,0.11184 -0.43747,0.21983 -0.65332,0.33106 -0.21421,-0.26316 -0.41644,-0.53624 -0.62842,-0.80127 0.2708,-0.13741 0.54514,-0.27081 0.81446,-0.41309 1.916,-1.01199 3.89708,-2.05811 7.80908,-2.05811 3.912,0 5.89454,1.04611 7.81055,2.05811 1.89099,0.999 3.67779,1.94092 7.34179,1.94092 3.664,0 5.4508,-0.94192 7.3418,-1.94092 1.916,-1.01199 3.89708,-2.05811 7.80908,-2.05811 3.911,0 5.89162,1.04611 7.80762,2.05811 1.892,0.999 3.68026,1.94092 7.34327,1.94092 3.66399,0 5.44979,-0.94192 7.34179,-1.94092 1.916,-1.01199 3.89708,-2.05811 7.80908,-2.05811 3.911,0 5.89308,1.04611 7.80909,2.05811 1.89099,0.999 3.67733,1.94092 7.34033,1.94092 3.66499,0 5.45126,-0.94192 7.34326,-1.94092 1.916,-1.01199 3.89708,-2.05811 7.80908,-2.05811 3.912,0 5.89309,1.04611 7.80908,2.05811 1.892,0.999 3.67927,1.94092 7.34327,1.94092 3.663,0 5.44979,-0.94192 7.34179,-1.94092 1.91601,-1.01199 3.89709,-2.05811 7.80909,-2.05811 3.911,0 5.89161,1.04611 7.80761,2.05811 1.89199,0.999 3.67927,1.94092 7.34326,1.94092 3.663,0 5.44834,-0.94192 7.34034,-1.94092 1.916,-1.01199 3.89562,-2.05811 7.80761,-2.05811 3.91101,0 5.89308,1.04611 7.80908,2.05811 1.892,0.999 3.67781,1.94092 7.3418,1.94092 3.664,0 5.4498,-0.94192 7.3418,-1.94092 0.79665,-0.42077 1.63804,-0.8316 2.59131,-1.18653 -0.42702,0.55314 -0.85835,1.1027 -1.29492,1.64796 -0.27653,0.14006 -0.5557,0.27674 -0.83057,0.42187 -1.91601,1.012 -3.89661,2.05811 -7.80762,2.05811 -3.911,0 -5.89308,-1.04611 -7.80908,-2.05811 -1.891,-0.999 -3.67879,-1.94238 -7.3418,-1.94238 -3.664,0 -5.44933,0.94338 -7.34033,1.94238 -1.916,1.012 -3.89661,2.05811 -7.80762,2.05811 -3.912,0 -5.89454,-1.04611 -7.81054,-2.05811 -1.891,-0.999 -3.67634,-1.94238 -7.34033,-1.94238 -3.66501,0 -5.4508,0.94338 -7.34181,1.94238 -1.91599,1.012 -3.89807,2.05811 -7.80907,2.05811 -3.912,0 -5.89308,-1.04611 -7.80909,-2.05811 -1.892,-0.999 -3.67826,-1.94238 -7.34326,-1.94238 -3.664,0 -5.4498,0.94338 -7.3418,1.94238 -1.916,1.012 -3.89854,2.05811 -7.81054,2.05811 -3.911,0 -5.89162,-1.04611 -7.80762,-2.05811 -1.892,-0.999 -3.6778,-1.94238 -7.3418,-1.94238 -3.664,0 -5.45226,0.94338 -7.34326,1.94238 -1.916,1.012 -3.89562,2.05811 -7.80761,2.05811 -3.911,0 -5.89309,-1.04611 -7.80909,-2.05811 -1.892,-0.999 -3.6788,-1.94238 -7.3418,-1.94238 -3.664,0 -5.44979,0.94338 -7.34179,1.94238 -1.91601,1.012 -3.89709,2.05811 -7.80909,2.05811 z" />
      <path
         id="path5123"
         style="fill:#0b9bde;fill-opacity:1;fill-rule:nonzero;stroke:none;stroke-width:0.999998"
         d="m 181.7959,336.50002 c -3.912,0 -5.89308,-1.04611 -7.80908,-2.05811 -1.892,-0.999 -3.67925,-1.94238 -7.34326,-1.94238 -0.22278,0 -0.38099,0.0328 -0.59033,0.0395 -0.30222,-0.30735 -0.59324,-0.62541 -0.8921,-0.93604 0.48433,-0.0393 0.92513,-0.10254 1.48243,-0.10254 3.912,0 5.89454,1.04611 7.81055,2.0581 1.89099,0.999 3.67779,1.94093 7.34179,1.94093 3.664,0 5.4508,-0.94193 7.3418,-1.94093 1.916,-1.01199 3.89708,-2.0581 7.80908,-2.0581 3.911,0 5.89162,1.04611 7.80762,2.0581 1.892,0.999 3.68026,1.94093 7.34327,1.94093 3.66399,0 5.44979,-0.94193 7.34179,-1.94093 1.916,-1.01199 3.89708,-2.0581 7.80908,-2.0581 3.911,0 5.89308,1.04611 7.80909,2.0581 1.89099,0.999 3.67733,1.94093 7.34033,1.94093 3.66499,0 5.45126,-0.94193 7.34326,-1.94093 1.916,-1.01199 3.89708,-2.0581 7.80908,-2.0581 3.912,0 5.89309,1.04611 7.80908,2.0581 1.892,0.999 3.67927,1.94093 7.34327,1.94093 3.663,0 5.44979,-0.94193 7.34179,-1.94093 1.91601,-1.01199 3.89709,-2.0581 7.80909,-2.0581 3.911,0 5.89161,1.04611 7.80761,2.0581 1.89199,0.999 3.67927,1.94093 7.34326,1.94093 3.663,0 5.44834,-0.94193 7.34034,-1.94093 1.916,-1.01199 3.89562,-2.0581 7.80761,-2.0581 3.91101,0 5.89308,1.04611 7.80908,2.0581 1.45612,0.76885 2.87009,1.49364 5.10499,1.79151 -0.29774,0.28288 -0.59142,0.56982 -0.8921,0.84961 -1.97592,-0.37779 -3.36662,-1.06402 -4.68017,-1.75781 -1.891,-0.999 -3.67879,-1.94238 -7.3418,-1.94238 -3.664,0 -5.44933,0.94338 -7.34033,1.94238 -1.916,1.01202 -3.89661,2.05813 -7.80762,2.05813 -3.912,0 -5.89454,-1.04611 -7.81054,-2.05811 -1.891,-0.999 -3.67634,-1.94238 -7.34033,-1.94238 -3.66501,0 -5.4508,0.94338 -7.34181,1.94238 -1.91599,1.012 -3.89807,2.05811 -7.80907,2.05811 -3.912,0 -5.89308,-1.04611 -7.80909,-2.05811 -1.892,-0.999 -3.67826,-1.94238 -7.34326,-1.94238 -3.664,0 -5.4498,0.94338 -7.3418,1.94238 -1.916,1.012 -3.89854,2.05811 -7.81054,2.05811 -3.911,0 -5.89162,-1.04611 -7.80762,-2.05811 -1.892,-0.999 -3.6778,-1.94238 -7.3418,-1.94238 -3.664,0 -5.45226,0.94338 -7.34326,1.94238 -1.916,1.012 -3.89562,2.05811 -7.80761,2.05811 -3.911,0 -5.89309,-1.04611 -7.80909,-2.05811 -1.892,-0.999 -3.6788,-1.94238 -7.3418,-1.94238 -3.664,0 -5.44979,0.94338 -7.34179,1.94238 -1.91601,1.012 -3.89709,2.05811 -7.80909,2.05811 z" />
      <path
         id="path5121"
         style="fill:#0b9bde;fill-opacity:1;fill-rule:nonzero;stroke:none;stroke-width:0.999998"
         d="m 212.09767,347.00002 c -3.911,0 -5.89309,-1.04611 -7.80909,-2.05811 -1.892,-0.999 -3.6788,-1.94238 -7.3418,-1.94238 -3.664,0 -5.44979,0.94338 -7.34179,1.94238 -1.67162,0.88292 -3.39455,1.79081 -6.4043,2.0083 -0.45243,-0.31232 -0.89546,-0.63662 -1.34327,-0.95507 3.61721,-0.0118 5.40127,-0.94386 7.28028,-1.93653 1.916,-1.01199 3.89708,-2.05811 7.80908,-2.05811 3.911,0 5.89162,1.04611 7.80762,2.05811 1.892,0.999 3.68026,1.94092 7.34327,1.94092 3.66399,0 5.44979,-0.94192 7.34179,-1.94092 1.916,-1.01199 3.89708,-2.05811 7.80908,-2.05811 3.911,0 5.89308,1.04611 7.80909,2.05811 1.89099,0.999 3.67733,1.94092 7.34033,1.94092 3.66499,0 5.45126,-0.94192 7.34326,-1.94092 1.916,-1.01199 3.89708,-2.05811 7.80908,-2.05811 3.912,0 5.89309,1.04611 7.80908,2.05811 1.892,0.999 3.67927,1.94092 7.34327,1.94092 3.663,0 5.44979,-0.94192 7.34179,-1.94092 1.91601,-1.01199 3.89709,-2.05811 7.80909,-2.05811 3.911,0 5.89161,1.04611 7.80761,2.05811 1.89199,0.999 3.67927,1.94092 7.34326,1.94092 3.663,0 5.44834,-0.94192 7.34034,-1.94092 1.916,-1.01199 3.89562,-2.05811 7.80761,-2.05811 1.88719,0 3.31057,0.25092 4.50879,0.6167 -0.33498,0.26318 -0.66698,0.52995 -1.00488,0.78955 -0.97717,-0.2354 -2.07159,-0.40722 -3.50391,-0.40722 -3.664,0 -5.44933,0.94338 -7.34033,1.94238 -1.916,1.012 -3.89661,2.05811 -7.80762,2.05811 -3.912,0 -5.89454,-1.04611 -7.81054,-2.05811 -1.891,-0.999 -3.67634,-1.94238 -7.34033,-1.94238 -3.66501,0 -5.4508,0.94338 -7.34181,1.94238 -1.91599,1.012 -3.89807,2.05811 -7.80907,2.05811 -3.912,0 -5.89308,-1.04611 -7.80909,-2.05811 -1.892,-0.999 -3.67826,-1.94238 -7.34326,-1.94238 -3.664,0 -5.4498,0.94338 -7.3418,1.94238 -1.916,1.012 -3.89854,2.05811 -7.81054,2.05811 -3.911,0 -5.89162,-1.04611 -7.80762,-2.05811 -1.892,-0.999 -3.6778,-1.94238 -7.3418,-1.94238 -3.664,0 -5.45226,0.94338 -7.34326,1.94238 -1.916,1.012 -3.89562,2.05811 -7.80761,2.05811 z" />
      <path
         id="path5119"
         style="fill:#0b9bde;fill-opacity:1;fill-rule:nonzero;stroke:none;stroke-width:0.999998"
         d="m 212.09767,357.50002 c -3.911,0 -5.89309,-1.0461 -7.80909,-2.05811 -1.892,-0.999 -3.6788,-1.94238 -7.3418,-1.94238 -1.04797,0 -1.93018,0.0832 -2.71728,0.2168 -0.44349,-0.23898 -0.87831,-0.49088 -1.31836,-0.73536 1.10071,-0.2895 2.39104,-0.48047 4.03564,-0.48047 3.911,0 5.89162,1.0461 7.80762,2.05811 1.892,0.999 3.68026,1.94092 7.34327,1.94092 3.66399,0 5.44979,-0.94192 7.34179,-1.94092 1.916,-1.01201 3.89708,-2.05811 7.80908,-2.05811 3.911,0 5.89308,1.0461 7.80909,2.05811 1.89099,0.999 3.67733,1.94092 7.34033,1.94092 3.66499,0 5.45126,-0.94192 7.34326,-1.94092 1.916,-1.01201 3.89708,-2.05811 7.80908,-2.05811 3.912,0 5.89309,1.0461 7.80908,2.05811 1.892,0.999 3.67927,1.94092 7.34327,1.94092 3.663,0 5.44979,-0.94192 7.34179,-1.94092 1.91601,-1.01201 3.89709,-2.05811 7.80909,-2.05811 3.911,0 5.89161,1.0461 7.80761,2.05811 1.42295,0.75134 2.78766,1.46944 4.93506,1.77978 -0.51221,0.24415 -1.03648,0.4662 -1.55273,0.70313 -1.55725,-0.39899 -2.72019,-1.00306 -3.84961,-1.59961 -1.891,-0.999 -3.67634,-1.94238 -7.34033,-1.94238 -3.66501,0 -5.4508,0.94338 -7.34181,1.94238 -1.91599,1.01201 -3.89807,2.05811 -7.80907,2.05811 -3.912,0 -5.89308,-1.0461 -7.80909,-2.05811 -1.892,-0.999 -3.67826,-1.94238 -7.34326,-1.94238 -3.664,0 -5.4498,0.94338 -7.3418,1.94238 -1.916,1.01201 -3.89854,2.05811 -7.81054,2.05811 -3.911,0 -5.89162,-1.0461 -7.80762,-2.05811 -1.892,-0.999 -3.6778,-1.94238 -7.3418,-1.94238 -3.664,0 -5.45226,0.94338 -7.34326,1.94238 -1.916,1.01201 -3.89562,2.05811 -7.80761,2.05811 z" />
      <path
         id="path5137"
         style="fill:#0b9bde;fill-opacity:1;fill-rule:nonzero;stroke:none;stroke-width:0.999998"
         d="m 151.49415,263.00001 c -3.911,0 -5.89263,-1.0461 -7.80762,-2.0581 -1.89201,-0.999 -3.6788,-1.94238 -7.3418,-1.94238 -1.3286,0 -2.3578,0.15166 -3.28711,0.35742 -0.0265,-0.3342 -0.0524,-0.66845 -0.0762,-1.00342 0.96248,-0.2024 2.02206,-0.35303 3.36328,-0.35303 3.911,0 5.89262,1.04611 7.80761,2.0581 1.89201,0.999 3.67781,1.94093 7.34181,1.94093 3.663,0 5.44933,-0.94193 7.34033,-1.94093 1.916,-1.01199 3.89708,-2.0581 7.80908,-2.0581 3.912,0 5.89454,1.04611 7.81055,2.0581 1.89099,0.999 3.67779,1.94093 7.34179,1.94093 3.664,0 5.4508,-0.94193 7.3418,-1.94093 1.916,-1.01199 3.89708,-2.0581 7.80908,-2.0581 3.911,0 5.89162,1.04611 7.80762,2.0581 1.892,0.999 3.68026,1.94093 7.34327,1.94093 3.66399,0 5.44979,-0.94193 7.34179,-1.94093 1.916,-1.01199 3.89708,-2.0581 7.80908,-2.0581 3.911,0 5.89308,1.04611 7.80909,2.0581 1.89099,0.999 3.67733,1.94093 7.34033,1.94093 3.66499,0 5.45126,-0.94193 7.34326,-1.94093 1.916,-1.01199 3.89708,-2.0581 7.80908,-2.0581 3.912,0 5.89309,1.04611 7.80908,2.0581 1.892,0.999 3.67927,1.94093 7.34327,1.94093 3.663,0 5.44979,-0.94193 7.34179,-1.94093 1.91601,-1.01199 3.89709,-2.0581 7.80909,-2.0581 3.911,0 5.89161,1.04611 7.80761,2.0581 1.89199,0.999 3.67927,1.94093 7.34326,1.94093 3.663,0 5.44834,-0.94193 7.34034,-1.94093 1.916,-1.01199 3.89562,-2.0581 7.80761,-2.0581 3.91101,0 5.89308,1.04611 7.80908,2.0581 1.892,0.999 3.67781,1.94093 7.3418,1.94093 3.664,0 5.4498,-0.94193 7.3418,-1.94093 1.916,-1.01199 3.89708,-2.0581 7.80908,-2.0581 3.912,0 5.89455,1.04611 7.81055,2.0581 1.891,0.999 3.67679,1.94093 7.34179,1.94093 1.6534,0 2.89259,-0.20894 3.96387,-0.51123 -0.034,0.34933 -0.0713,0.69745 -0.1084,1.0459 -1.07119,0.26891 -2.27953,0.46581 -3.85547,0.46581 -3.913,0 -5.89309,-1.0461 -7.80908,-2.0581 -1.892,-0.999 -3.67926,-1.94238 -7.34326,-1.94238 -3.664,0 -5.45127,0.94338 -7.34326,1.94238 -1.91601,1.012 -3.89661,2.0581 -7.80762,2.0581 -3.911,0 -5.89308,-1.0461 -7.80908,-2.0581 -1.891,-0.999 -3.67879,-1.94238 -7.3418,-1.94238 -3.664,0 -5.44933,0.94338 -7.34033,1.94238 -1.916,1.012 -3.89661,2.0581 -7.80762,2.0581 -3.912,0 -5.89454,-1.0461 -7.81054,-2.0581 -1.891,-0.999 -3.67634,-1.94238 -7.34033,-1.94238 -3.66501,0 -5.4508,0.94338 -7.34181,1.94238 -1.91599,1.012 -3.89807,2.0581 -7.80907,2.0581 -3.912,0 -5.89308,-1.0461 -7.80909,-2.0581 -1.892,-0.999 -3.67826,-1.94238 -7.34326,-1.94238 -3.664,0 -5.4498,0.94338 -7.3418,1.94238 -1.916,1.012 -3.89854,2.0581 -7.81054,2.0581 -3.911,0 -5.89162,-1.0461 -7.80762,-2.0581 -1.892,-0.999 -3.6778,-1.94238 -7.3418,-1.94238 -3.664,0 -5.45226,0.94338 -7.34326,1.94238 -1.916,1.012 -3.89562,2.0581 -7.80761,2.0581 -3.911,0 -5.89309,-1.0461 -7.80909,-2.0581 -1.892,-0.999 -3.6788,-1.94238 -7.3418,-1.94238 -3.664,0 -5.44979,0.94338 -7.34179,1.94238 -1.91601,1.012 -3.89709,2.0581 -7.80909,2.0581 -3.912,0 -5.89308,-1.0461 -7.80908,-2.0581 -1.892,-0.999 -3.67925,-1.94238 -7.34326,-1.94238 -3.664,0 -5.4498,0.94338 -7.3418,1.94238 -1.916,1.012 -3.89661,2.0581 -7.80761,2.0581 z" />
      <path
         id="path5139"
         style="fill:#0b9bde;fill-opacity:1;fill-rule:nonzero;stroke:none;stroke-width:0.999998"
         d="m 151.49415,252.50001 c -3.911,0 -5.89263,-1.0461 -7.80762,-2.0581 -1.89201,-0.999 -3.6788,-1.94238 -7.3418,-1.94238 -1.51286,0 -2.65876,0.18613 -3.6709,0.44531 0.003,-0.34375 0.0191,-0.68381 0.0249,-1.02686 1.02647,-0.23982 2.16999,-0.41748 3.646,-0.41748 3.911,0 5.89262,1.04611 7.80761,2.0581 1.89201,0.999 3.67781,1.94093 7.34181,1.94093 3.663,0 5.44933,-0.94193 7.34033,-1.94093 1.916,-1.01199 3.89708,-2.0581 7.80908,-2.0581 3.912,0 5.89454,1.04611 7.81055,2.0581 1.89099,0.999 3.67779,1.94093 7.34179,1.94093 3.664,0 5.4508,-0.94193 7.3418,-1.94093 1.916,-1.01199 3.89708,-2.0581 7.80908,-2.0581 3.911,0 5.89162,1.04611 7.80762,2.0581 1.892,0.999 3.68026,1.94093 7.34327,1.94093 3.66399,0 5.44979,-0.94193 7.34179,-1.94093 1.916,-1.01199 3.89708,-2.0581 7.80908,-2.0581 3.911,0 5.89308,1.04611 7.80909,2.0581 1.89099,0.999 3.67733,1.94093 7.34033,1.94093 3.66499,0 5.45126,-0.94193 7.34326,-1.94093 1.916,-1.01199 3.89708,-2.0581 7.80908,-2.0581 3.912,0 5.89309,1.04611 7.80908,2.0581 1.892,0.999 3.67927,1.94093 7.34327,1.94093 3.663,0 5.44979,-0.94193 7.34179,-1.94093 1.91601,-1.01199 3.89709,-2.0581 7.80909,-2.0581 3.911,0 5.89161,1.04611 7.80761,2.0581 1.89199,0.999 3.67927,1.94093 7.34326,1.94093 3.663,0 5.44834,-0.94193 7.34034,-1.94093 1.916,-1.01199 3.89562,-2.0581 7.80761,-2.0581 3.91101,0 5.89308,1.04611 7.80908,2.0581 1.892,0.999 3.67781,1.94093 7.3418,1.94093 3.664,0 5.4498,-0.94193 7.3418,-1.94093 1.916,-1.01199 3.89708,-2.0581 7.80908,-2.0581 3.912,0 5.89455,1.04611 7.81055,2.0581 1.891,0.999 3.67679,1.94093 7.34179,1.94093 1.93403,0 3.33197,-0.2703 4.51172,-0.66504 -0.003,0.35304 -0.0206,0.70239 -0.0264,1.05469 -1.19378,0.36213 -2.60893,0.61083 -4.48532,0.61083 -3.913,0 -5.89309,-1.0461 -7.80908,-2.0581 -1.892,-0.999 -3.67926,-1.94238 -7.34326,-1.94238 -3.664,0 -5.45127,0.94338 -7.34326,1.94238 -1.91601,1.012 -3.89661,2.0581 -7.80762,2.0581 -3.911,0 -5.89308,-1.0461 -7.80908,-2.0581 -1.891,-0.999 -3.67879,-1.94238 -7.3418,-1.94238 -3.664,0 -5.44933,0.94338 -7.34033,1.94238 -1.916,1.012 -3.89661,2.0581 -7.80762,2.0581 -3.912,0 -5.89454,-1.0461 -7.81054,-2.0581 -1.891,-0.999 -3.67634,-1.94238 -7.34033,-1.94238 -3.66501,0 -5.4508,0.94338 -7.34181,1.94238 -1.91599,1.012 -3.89807,2.0581 -7.80907,2.0581 -3.912,0 -5.89308,-1.0461 -7.80909,-2.0581 -1.892,-0.999 -3.67826,-1.94238 -7.34326,-1.94238 -3.664,0 -5.4498,0.94338 -7.3418,1.94238 -1.916,1.012 -3.89854,2.0581 -7.81054,2.0581 -3.911,0 -5.89162,-1.0461 -7.80762,-2.0581 -1.892,-0.999 -3.6778,-1.94238 -7.3418,-1.94238 -3.664,0 -5.45226,0.94338 -7.34326,1.94238 -1.916,1.012 -3.89562,2.0581 -7.80761,2.0581 -3.911,0 -5.89309,-1.0461 -7.80909,-2.0581 -1.892,-0.999 -3.6788,-1.94238 -7.3418,-1.94238 -3.664,0 -5.44979,0.94338 -7.34179,1.94238 -1.91601,1.012 -3.89709,2.0581 -7.80909,2.0581 -3.912,0 -5.89308,-1.0461 -7.80908,-2.0581 -1.892,-0.999 -3.67925,-1.94238 -7.34326,-1.94238 -3.664,0 -5.4498,0.94338 -7.3418,1.94238 -1.916,1.012 -3.89661,2.0581 -7.80761,2.0581 z" />
      <path
         id="path5141"
         style="fill:#0b9bde;fill-opacity:1;fill-rule:nonzero;stroke:none;stroke-width:0.999998"
         d="m 151.49415,242.00001 c -3.911,0 -5.89263,-1.0461 -7.80762,-2.0581 -1.89201,-0.999 -3.6788,-1.94238 -7.3418,-1.94238 -1.24644,0 -2.22587,0.13594 -3.11572,0.31933 0.0346,-0.35082 0.0781,-0.69891 0.11572,-1.04883 0.87338,-0.15774 1.83204,-0.26953 3,-0.26953 3.911,0 5.89262,1.04611 7.80761,2.0581 1.89201,0.999 3.67781,1.94093 7.34181,1.94093 3.663,0 5.44933,-0.94193 7.34033,-1.94093 1.916,-1.01199 3.89708,-2.0581 7.80908,-2.0581 3.912,0 5.89454,1.04611 7.81055,2.0581 1.89099,0.999 3.67779,1.94093 7.34179,1.94093 3.664,0 5.4508,-0.94193 7.3418,-1.94093 1.916,-1.01199 3.89708,-2.0581 7.80908,-2.0581 3.911,0 5.89162,1.04611 7.80762,2.0581 1.892,0.999 3.68026,1.94093 7.34327,1.94093 3.66399,0 5.44979,-0.94193 7.34179,-1.94093 1.916,-1.01199 3.89708,-2.0581 7.80908,-2.0581 3.911,0 5.89308,1.04611 7.80909,2.0581 1.89099,0.999 3.67733,1.94093 7.34033,1.94093 3.66499,0 5.45126,-0.94193 7.34326,-1.94093 1.916,-1.01199 3.89708,-2.0581 7.80908,-2.0581 3.912,0 5.89309,1.04611 7.80908,2.0581 1.892,0.999 3.67927,1.94093 7.34327,1.94093 3.663,0 5.44979,-0.94193 7.34179,-1.94093 1.91601,-1.01199 3.89709,-2.0581 7.80909,-2.0581 3.911,0 5.89161,1.04611 7.80761,2.0581 1.89199,0.999 3.67927,1.94093 7.34326,1.94093 3.663,0 5.44834,-0.94193 7.34034,-1.94093 1.916,-1.01199 3.89562,-2.0581 7.80761,-2.0581 3.91101,0 5.89308,1.04611 7.80908,2.0581 1.892,0.999 3.67781,1.94093 7.3418,1.94093 3.664,0 5.4498,-0.94193 7.3418,-1.94093 1.916,-1.01199 3.89708,-2.0581 7.80908,-2.0581 3.912,0 5.89455,1.04611 7.81055,2.0581 1.891,0.999 3.67679,1.94093 7.34179,1.94093 1.72724,0 3.01685,-0.22045 4.11768,-0.54639 0.0269,0.33411 0.0521,0.66853 0.0762,1.00342 -1.13909,0.31802 -2.45653,0.54345 -4.19385,0.54345 -3.913,0 -5.89309,-1.0461 -7.80908,-2.0581 -1.892,-0.999 -3.67926,-1.94238 -7.34326,-1.94238 -3.664,0 -5.45127,0.94338 -7.34326,1.94238 -1.91601,1.012 -3.89661,2.0581 -7.80762,2.0581 -3.911,0 -5.89308,-1.0461 -7.80908,-2.0581 -1.891,-0.999 -3.67879,-1.94238 -7.3418,-1.94238 -3.664,0 -5.44933,0.94338 -7.34033,1.94238 -1.916,1.012 -3.89661,2.0581 -7.80762,2.0581 -3.912,0 -5.89454,-1.0461 -7.81054,-2.0581 -1.891,-0.999 -3.67634,-1.94238 -7.34033,-1.94238 -3.66501,0 -5.4508,0.94338 -7.34181,1.94238 -1.91599,1.012 -3.89807,2.0581 -7.80907,2.0581 -3.912,0 -5.89308,-1.0461 -7.80909,-2.0581 -1.892,-0.999 -3.67826,-1.94238 -7.34326,-1.94238 -3.664,0 -5.4498,0.94338 -7.3418,1.94238 -1.916,1.012 -3.89854,2.0581 -7.81054,2.0581 -3.911,0 -5.89162,-1.0461 -7.80762,-2.0581 -1.892,-0.999 -3.6778,-1.94238 -7.3418,-1.94238 -3.664,0 -5.45226,0.94338 -7.34326,1.94238 -1.916,1.012 -3.89562,2.0581 -7.80761,2.0581 -3.911,0 -5.89309,-1.0461 -7.80909,-2.0581 -1.892,-0.999 -3.6788,-1.94238 -7.3418,-1.94238 -3.664,0 -5.44979,0.94338 -7.34179,1.94238 -1.91601,1.012 -3.89709,2.0581 -7.80909,2.0581 -3.912,0 -5.89308,-1.0461 -7.80908,-2.0581 -1.892,-0.999 -3.67925,-1.94238 -7.34326,-1.94238 -3.664,0 -5.4498,0.94338 -7.3418,1.94238 -1.916,1.012 -3.89661,2.0581 -7.80761,2.0581 z" />
      <path
         id="path5143"
         style="fill:#0b9bde;fill-opacity:1;fill-rule:nonzero;stroke:none;stroke-width:0.999998"
         d="m 151.49415,231.50001 c -3.911,0 -5.89263,-1.0461 -7.80762,-2.0581 -1.89201,-0.999 -3.6788,-1.94238 -7.3418,-1.94238 -0.58153,0 -1.04617,0.0586 -1.54102,0.10253 0.0644,-0.33445 0.11292,-0.67436 0.18018,-1.00781 0.44971,-0.0334 0.84926,-0.0937 1.36084,-0.0937 3.911,0 5.89262,1.04611 7.80761,2.0581 1.89201,0.999 3.67781,1.94093 7.34181,1.94093 3.663,0 5.44933,-0.94193 7.34033,-1.94093 1.916,-1.01199 3.89708,-2.0581 7.80908,-2.0581 3.912,0 5.89454,1.04611 7.81055,2.0581 1.89099,0.999 3.67779,1.94093 7.34179,1.94093 3.664,0 5.4508,-0.94193 7.3418,-1.94093 1.916,-1.01199 3.89708,-2.0581 7.80908,-2.0581 3.911,0 5.89162,1.04611 7.80762,2.0581 1.892,0.999 3.68026,1.94093 7.34327,1.94093 3.66399,0 5.44979,-0.94193 7.34179,-1.94093 1.916,-1.01199 3.89708,-2.0581 7.80908,-2.0581 3.911,0 5.89308,1.04611 7.80909,2.0581 1.89099,0.999 3.67733,1.94093 7.34033,1.94093 3.66499,0 5.45126,-0.94193 7.34326,-1.94093 1.916,-1.01199 3.89708,-2.0581 7.80908,-2.0581 3.912,0 5.89309,1.04611 7.80908,2.0581 1.892,0.999 3.67927,1.94093 7.34327,1.94093 3.663,0 5.44979,-0.94193 7.34179,-1.94093 1.91601,-1.01199 3.89709,-2.0581 7.80909,-2.0581 3.911,0 5.89161,1.04611 7.80761,2.0581 1.89199,0.999 3.67927,1.94093 7.34326,1.94093 3.663,0 5.44834,-0.94193 7.34034,-1.94093 1.916,-1.01199 3.89562,-2.0581 7.80761,-2.0581 3.91101,0 5.89308,1.04611 7.80908,2.0581 1.892,0.999 3.67781,1.94093 7.3418,1.94093 3.664,0 5.4498,-0.94193 7.3418,-1.94093 1.916,-1.01199 3.89708,-2.0581 7.80908,-2.0581 3.912,0 5.89455,1.04611 7.81055,2.0581 1.891,0.999 3.67679,1.94093 7.34179,1.94093 1.11989,0 2.02613,-0.10856 2.85206,-0.25928 0.0556,0.32873 0.12293,0.65326 0.17577,0.98291 -0.88054,0.16104 -1.8465,0.27685 -3.02783,0.27685 -3.913,0 -5.89309,-1.0461 -7.80908,-2.0581 -1.892,-0.999 -3.67926,-1.94238 -7.34326,-1.94238 -3.664,0 -5.45127,0.94338 -7.34326,1.94238 -1.91601,1.012 -3.89661,2.0581 -7.80762,2.0581 -3.911,0 -5.89308,-1.0461 -7.80908,-2.0581 -1.891,-0.999 -3.67879,-1.94238 -7.3418,-1.94238 -3.664,0 -5.44933,0.94338 -7.34033,1.94238 -1.916,1.012 -3.89661,2.0581 -7.80762,2.0581 -3.912,0 -5.89454,-1.0461 -7.81054,-2.0581 -1.891,-0.999 -3.67634,-1.94238 -7.34033,-1.94238 -3.66501,0 -5.4508,0.94338 -7.34181,1.94238 -1.91599,1.012 -3.89807,2.0581 -7.80907,2.0581 -3.912,0 -5.89308,-1.0461 -7.80909,-2.0581 -1.892,-0.999 -3.67826,-1.94238 -7.34326,-1.94238 -3.664,0 -5.4498,0.94338 -7.3418,1.94238 -1.916,1.012 -3.89854,2.0581 -7.81054,2.0581 -3.911,0 -5.89162,-1.0461 -7.80762,-2.0581 -1.892,-0.999 -3.6778,-1.94238 -7.3418,-1.94238 -3.664,0 -5.45226,0.94338 -7.34326,1.94238 -1.916,1.012 -3.89562,2.0581 -7.80761,2.0581 -3.911,0 -5.89309,-1.0461 -7.80909,-2.0581 -1.892,-0.999 -3.6788,-1.94238 -7.3418,-1.94238 -3.664,0 -5.44979,0.94338 -7.34179,1.94238 -1.91601,1.012 -3.89709,2.0581 -7.80909,2.0581 -3.912,0 -5.89308,-1.0461 -7.80908,-2.0581 -1.892,-0.999 -3.67925,-1.94238 -7.34326,-1.94238 -3.664,0 -5.4498,0.94338 -7.3418,1.94238 -1.916,1.012 -3.89661,2.0581 -7.80761,2.0581 z" />
      <path
         id="path5145"
         style="fill:#0b9bde;fill-opacity:1;fill-rule:nonzero;stroke:none;stroke-width:0.999998"
         d="m 151.49415,221.00001 c -3.911,0 -5.89263,-1.0461 -7.80762,-2.0581 -1.6955,-0.89524 -3.38154,-1.70797 -6.33399,-1.875 0.0946,-0.32522 0.17954,-0.65448 0.27686,-0.97852 3.03508,0.21206 4.8445,1.08322 6.52294,1.97021 1.89201,0.999 3.67781,1.94093 7.34181,1.94093 3.663,0 5.44933,-0.94193 7.34033,-1.94093 1.916,-1.01199 3.89708,-2.0581 7.80908,-2.0581 3.912,0 5.89454,1.04611 7.81055,2.0581 1.89099,0.999 3.67779,1.94093 7.34179,1.94093 3.664,0 5.4508,-0.94193 7.3418,-1.94093 1.916,-1.01199 3.89708,-2.0581 7.80908,-2.0581 3.911,0 5.89162,1.04611 7.80762,2.0581 1.892,0.999 3.68026,1.94093 7.34327,1.94093 3.66399,0 5.44979,-0.94193 7.34179,-1.94093 1.916,-1.01199 3.89708,-2.0581 7.80908,-2.0581 3.911,0 5.89308,1.04611 7.80909,2.0581 1.89099,0.999 3.67733,1.94093 7.34033,1.94093 3.66499,0 5.45126,-0.94193 7.34326,-1.94093 1.916,-1.01199 3.89708,-2.0581 7.80908,-2.0581 3.912,0 5.89309,1.04611 7.80908,2.0581 1.892,0.999 3.67927,1.94093 7.34327,1.94093 3.663,0 5.44979,-0.94193 7.34179,-1.94093 1.91601,-1.01199 3.89709,-2.0581 7.80909,-2.0581 3.911,0 5.89161,1.04611 7.80761,2.0581 1.89199,0.999 3.67927,1.94093 7.34326,1.94093 3.663,0 5.44834,-0.94193 7.34034,-1.94093 1.916,-1.01199 3.89562,-2.0581 7.80761,-2.0581 3.91101,0 5.89308,1.04611 7.80908,2.0581 1.892,0.999 3.67781,1.94093 7.3418,1.94093 3.664,0 5.4498,-0.94193 7.3418,-1.94093 1.916,-1.01199 3.89708,-2.0581 7.80908,-2.0581 3.912,0 5.89455,1.04611 7.81055,2.0581 1.891,0.999 3.67679,1.94093 7.34179,1.94093 0.24656,0 0.42315,-0.0357 0.65333,-0.0439 0.0861,0.32733 0.17588,0.65301 0.25927,0.98145 -0.31463,0.0154 -0.56952,0.063 -0.9126,0.063 -3.913,0 -5.89309,-1.04611 -7.80908,-2.05811 -1.892,-0.999 -3.67926,-1.94238 -7.34326,-1.94238 -3.664,0 -5.45127,0.94338 -7.34326,1.94238 -1.91601,1.01199 -3.89661,2.05809 -7.80762,2.05809 -3.911,0 -5.89308,-1.0461 -7.80908,-2.0581 -1.891,-0.999 -3.67879,-1.94238 -7.3418,-1.94238 -3.664,0 -5.44933,0.94338 -7.34033,1.94238 -1.916,1.012 -3.89661,2.0581 -7.80762,2.0581 -3.912,0 -5.89454,-1.0461 -7.81054,-2.0581 -1.891,-0.999 -3.67634,-1.94238 -7.34033,-1.94238 -3.66501,0 -5.4508,0.94338 -7.34181,1.94238 -1.91599,1.012 -3.89807,2.0581 -7.80907,2.0581 -3.912,0 -5.89308,-1.0461 -7.80909,-2.0581 -1.892,-0.999 -3.67826,-1.94238 -7.34326,-1.94238 -3.664,0 -5.4498,0.94338 -7.3418,1.94238 -1.916,1.012 -3.89854,2.0581 -7.81054,2.0581 -3.911,0 -5.89162,-1.0461 -7.80762,-2.0581 -1.892,-0.999 -3.6778,-1.94238 -7.3418,-1.94238 -3.664,0 -5.45226,0.94338 -7.34326,1.94238 -1.916,1.012 -3.89562,2.0581 -7.80761,2.0581 -3.911,0 -5.89309,-1.0461 -7.80909,-2.0581 -1.892,-0.999 -3.6788,-1.94238 -7.3418,-1.94238 -3.664,0 -5.44979,0.94338 -7.34179,1.94238 -1.91601,1.012 -3.89709,2.0581 -7.80909,2.0581 -3.912,0 -5.89308,-1.0461 -7.80908,-2.0581 -1.892,-0.999 -3.67925,-1.94238 -7.34326,-1.94238 -3.664,0 -5.4498,0.94338 -7.3418,1.94238 -1.916,1.012 -3.89661,2.0581 -7.80761,2.0581 z" />
      <path
         id="path5147"
         style="fill:#0b9bde;fill-opacity:1;fill-rule:nonzero;stroke:none;stroke-width:0.999998"
         d="m 151.49415,210.50001 c -3.911,0 -5.89263,-1.04611 -7.80762,-2.0581 -0.92802,-0.49001 -1.83606,-0.96428 -2.94727,-1.32276 0.12107,-0.30933 0.24115,-0.61919 0.36475,-0.92724 1.16941,0.38332 2.1214,0.87684 3.04833,1.36669 1.89201,0.999 3.67781,1.94093 7.34181,1.94093 3.663,0 5.44933,-0.94193 7.34033,-1.94093 1.916,-1.01199 3.89708,-2.0581 7.80908,-2.0581 3.912,0 5.89454,1.04611 7.81055,2.0581 1.89099,0.999 3.67779,1.94093 7.34179,1.94093 3.664,0 5.4508,-0.94193 7.3418,-1.94093 1.916,-1.01199 3.89708,-2.0581 7.80908,-2.0581 3.911,0 5.89162,1.04611 7.80762,2.0581 1.892,0.999 3.68026,1.94093 7.34327,1.94093 3.66399,0 5.44979,-0.94193 7.34179,-1.94093 1.916,-1.01199 3.89708,-2.0581 7.80908,-2.0581 3.911,0 5.89308,1.04611 7.80909,2.0581 1.89099,0.999 3.67733,1.94093 7.34033,1.94093 3.66499,0 5.45126,-0.94193 7.34326,-1.94093 1.916,-1.01199 3.89708,-2.0581 7.80908,-2.0581 3.912,0 5.89309,1.04611 7.80908,2.0581 1.892,0.999 3.67927,1.94093 7.34327,1.94093 3.663,0 5.44979,-0.94193 7.34179,-1.94093 1.91601,-1.01199 3.89709,-2.0581 7.80909,-2.0581 3.911,0 5.89161,1.04611 7.80761,2.0581 1.89199,0.999 3.67927,1.94093 7.34326,1.94093 3.663,0 5.44834,-0.94193 7.34034,-1.94093 1.916,-1.01199 3.89562,-2.0581 7.80761,-2.0581 3.91101,0 5.89308,1.04611 7.80908,2.0581 1.892,0.999 3.67781,1.94093 7.3418,1.94093 3.664,0 5.4498,-0.94193 7.3418,-1.94093 1.916,-1.01199 3.89708,-2.0581 7.80908,-2.0581 3.912,0 5.89455,1.04611 7.81055,2.0581 1.34967,0.71303 2.6737,1.38219 4.63769,1.71533 0.13013,0.35297 0.2467,0.71187 0.37354,1.06641 -2.43753,-0.32157 -3.99162,-1.11308 -5.47852,-1.89843 -1.892,-0.999 -3.67926,-1.94238 -7.34326,-1.94238 -3.664,0 -5.45127,0.94338 -7.34326,1.94238 -1.91601,1.01199 -3.89661,2.0581 -7.80762,2.0581 -3.911,0 -5.89308,-1.04611 -7.80908,-2.0581 -1.891,-0.999 -3.67879,-1.94238 -7.3418,-1.94238 -3.664,0 -5.44933,0.94338 -7.34033,1.94238 -1.916,1.01199 -3.89661,2.0581 -7.80762,2.0581 -3.912,0 -5.89454,-1.04611 -7.81054,-2.0581 -1.891,-0.999 -3.67634,-1.94238 -7.34033,-1.94238 -3.66501,0 -5.4508,0.94338 -7.34181,1.94238 -1.91599,1.01199 -3.89807,2.0581 -7.80907,2.0581 -3.912,0 -5.89308,-1.04611 -7.80909,-2.0581 -1.892,-0.999 -3.67826,-1.94238 -7.34326,-1.94238 -3.664,0 -5.4498,0.94338 -7.3418,1.94238 -1.916,1.01199 -3.89854,2.0581 -7.81054,2.0581 -3.911,0 -5.89162,-1.04611 -7.80762,-2.0581 -1.892,-0.999 -3.6778,-1.94238 -7.3418,-1.94238 -3.664,0 -5.45226,0.94338 -7.34326,1.94238 -1.916,1.01199 -3.89562,2.0581 -7.80761,2.0581 -3.911,0 -5.89309,-1.04611 -7.80909,-2.0581 -1.892,-0.999 -3.6788,-1.94238 -7.3418,-1.94238 -3.664,0 -5.44979,0.94338 -7.34179,1.94238 -1.91601,1.01199 -3.89709,2.0581 -7.80909,2.0581 -3.912,0 -5.89308,-1.04611 -7.80908,-2.0581 -1.892,-0.999 -3.67925,-1.94238 -7.34326,-1.94238 -3.664,0 -5.4498,0.94338 -7.3418,1.94238 -1.916,1.01199 -3.89661,2.0581 -7.80761,2.0581 z" />
      <path
         id="path5149"
         style="fill:#0b9bde;fill-opacity:1;fill-rule:nonzero;stroke:none;stroke-width:0.999998"
         d="m 151.49415,200.00001 c -3.33726,0 -5.25548,-0.76641 -6.94044,-1.61865 0.14631,-0.29941 0.30534,-0.59118 0.45411,-0.88916 1.61975,0.81823 3.37035,1.50733 6.48633,1.50733 3.663,0 5.44933,-0.94193 7.34033,-1.94093 1.916,-1.01199 3.89708,-2.0581 7.80908,-2.0581 3.912,0 5.89454,1.04611 7.81055,2.0581 1.89099,0.999 3.67779,1.94093 7.34179,1.94093 3.664,0 5.4508,-0.94193 7.3418,-1.94093 1.916,-1.01199 3.89708,-2.0581 7.80908,-2.0581 3.911,0 5.89162,1.04611 7.80762,2.0581 1.892,0.999 3.68026,1.94093 7.34327,1.94093 3.66399,0 5.44979,-0.94193 7.34179,-1.94093 1.916,-1.01199 3.89708,-2.0581 7.80908,-2.0581 3.911,0 5.89308,1.04611 7.80909,2.0581 1.89099,0.999 3.67733,1.94093 7.34033,1.94093 3.66499,0 5.45126,-0.94193 7.34326,-1.94093 1.916,-1.01199 3.89708,-2.0581 7.80908,-2.0581 3.912,0 5.89309,1.04611 7.80908,2.0581 1.892,0.999 3.67927,1.94093 7.34327,1.94093 3.663,0 5.44979,-0.94193 7.34179,-1.94093 1.91601,-1.01199 3.89709,-2.0581 7.80909,-2.0581 3.911,0 5.89161,1.04611 7.80761,2.0581 1.89199,0.999 3.67927,1.94093 7.34326,1.94093 3.663,0 5.44834,-0.94193 7.34034,-1.94093 1.916,-1.01199 3.89562,-2.0581 7.80761,-2.0581 3.91101,0 5.89308,1.04611 7.80908,2.0581 1.892,0.999 3.67781,1.94093 7.3418,1.94093 3.664,0 5.4498,-0.94193 7.3418,-1.94093 1.916,-1.01199 3.89708,-2.0581 7.80908,-2.0581 3.28397,0 5.19468,0.74228 6.86133,1.57764 0.25729,0.50427 0.52323,1.00327 0.77344,1.51171 -0.0951,-0.05 -0.197,-0.098 -0.29151,-0.14794 -1.892,-0.999 -3.67926,-1.94238 -7.34326,-1.94238 -3.664,0 -5.45127,0.94338 -7.34326,1.94238 -1.91601,1.01199 -3.89661,2.0581 -7.80762,2.0581 -3.911,0 -5.89308,-1.04611 -7.80908,-2.0581 -1.891,-0.999 -3.67879,-1.94238 -7.3418,-1.94238 -3.664,0 -5.44933,0.94338 -7.34033,1.94238 -1.916,1.01199 -3.89661,2.0581 -7.80762,2.0581 -3.912,0 -5.89454,-1.04611 -7.81054,-2.0581 -1.891,-0.999 -3.67634,-1.94238 -7.34033,-1.94238 -3.66501,0 -5.4508,0.94338 -7.34181,1.94238 -1.91599,1.01199 -3.89807,2.0581 -7.80907,2.0581 -3.912,0 -5.89308,-1.04611 -7.80909,-2.0581 -1.892,-0.999 -3.67826,-1.94238 -7.34326,-1.94238 -3.664,0 -5.4498,0.94338 -7.3418,1.94238 -1.916,1.01199 -3.89854,2.0581 -7.81054,2.0581 -3.911,0 -5.89162,-1.04611 -7.80762,-2.0581 -1.892,-0.999 -3.6778,-1.94238 -7.3418,-1.94238 -3.664,0 -5.45226,0.94338 -7.34326,1.94238 -1.916,1.01199 -3.89562,2.0581 -7.80761,2.0581 -3.911,0 -5.89309,-1.04611 -7.80909,-2.0581 -1.892,-0.999 -3.6788,-1.94238 -7.3418,-1.94238 -3.664,0 -5.44979,0.94338 -7.34179,1.94238 -1.91601,1.01199 -3.89709,2.0581 -7.80909,2.0581 -3.912,0 -5.89308,-1.04611 -7.80908,-2.0581 -1.892,-0.999 -3.67925,-1.94238 -7.34326,-1.94238 -3.664,0 -5.4498,0.94338 -7.3418,1.94238 -1.916,1.01199 -3.89661,2.0581 -7.80761,2.0581 z" />
      <path
         id="path5151"
         style="fill:#0b9bde;fill-opacity:1;fill-rule:nonzero;stroke:none;stroke-width:0.999998"
         d="m 151.49415,189.50001 c -0.76624,0 -1.40547,-0.0685 -2.0376,-0.14062 0.19297,-0.32052 0.39,-0.63802 0.58593,-0.95655 0.47048,0.0392 0.90385,0.0967 1.45167,0.0967 3.663,0 5.44933,-0.94193 7.34033,-1.94093 1.916,-1.01199 3.89708,-2.0581 7.80908,-2.0581 3.912,0 5.89454,1.04611 7.81055,2.0581 1.89099,0.999 3.67779,1.94093 7.34179,1.94093 3.664,0 5.4508,-0.94193 7.3418,-1.94093 1.916,-1.01199 3.89708,-2.0581 7.80908,-2.0581 3.911,0 5.89162,1.04611 7.80762,2.0581 1.892,0.999 3.68026,1.94093 7.34327,1.94093 3.66399,0 5.44979,-0.94193 7.34179,-1.94093 1.916,-1.01199 3.89708,-2.0581 7.80908,-2.0581 3.911,0 5.89308,1.04611 7.80909,2.0581 1.89099,0.999 3.67733,1.94093 7.34033,1.94093 3.66499,0 5.45126,-0.94193 7.34326,-1.94093 1.916,-1.01199 3.89708,-2.0581 7.80908,-2.0581 3.912,0 5.89309,1.04611 7.80908,2.0581 1.892,0.999 3.67927,1.94093 7.34327,1.94093 3.663,0 5.44979,-0.94193 7.34179,-1.94093 1.91601,-1.01199 3.89709,-2.0581 7.80909,-2.0581 3.911,0 5.89161,1.04611 7.80761,2.0581 1.89199,0.999 3.67927,1.94093 7.34326,1.94093 3.663,0 5.44834,-0.94193 7.34034,-1.94093 1.916,-1.01199 3.89562,-2.0581 7.80761,-2.0581 3.91101,0 5.89308,1.04611 7.80908,2.0581 1.892,0.999 3.67781,1.94093 7.3418,1.94093 3.664,0 5.4498,-0.94193 7.3418,-1.94093 1.8796,-0.99276 3.84498,-2.0063 7.61133,-2.04492 0.22397,0.33404 0.43122,0.68016 0.65185,1.0166 -0.16337,-0.004 -0.28272,-0.0308 -0.4541,-0.0308 -3.664,0 -5.45127,0.94338 -7.34326,1.94238 -1.91601,1.01199 -3.89661,2.0581 -7.80762,2.0581 -3.911,0 -5.89308,-1.04611 -7.80908,-2.0581 -1.891,-0.999 -3.67879,-1.94238 -7.3418,-1.94238 -3.664,0 -5.44933,0.94338 -7.34033,1.94238 -1.916,1.01199 -3.89661,2.0581 -7.80762,2.0581 -3.912,0 -5.89454,-1.04611 -7.81054,-2.0581 -1.891,-0.999 -3.67634,-1.94238 -7.34033,-1.94238 -3.66501,0 -5.4508,0.94338 -7.34181,1.94238 -1.91599,1.01199 -3.89807,2.0581 -7.80907,2.0581 -3.912,0 -5.89308,-1.04611 -7.80909,-2.0581 -1.892,-0.999 -3.67826,-1.94238 -7.34326,-1.94238 -3.664,0 -5.4498,0.94338 -7.3418,1.94238 -1.916,1.01199 -3.89854,2.0581 -7.81054,2.0581 -3.911,0 -5.89162,-1.04611 -7.80762,-2.0581 -1.892,-0.999 -3.6778,-1.94238 -7.3418,-1.94238 -3.664,0 -5.45226,0.94338 -7.34326,1.94238 -1.916,1.01199 -3.89562,2.0581 -7.80761,2.0581 -3.911,0 -5.89309,-1.04611 -7.80909,-2.0581 -1.892,-0.999 -3.6788,-1.94238 -7.3418,-1.94238 -3.664,0 -5.44979,0.94338 -7.34179,1.94238 -1.91601,1.01199 -3.89709,2.0581 -7.80909,2.0581 -3.912,0 -5.89308,-1.04611 -7.80908,-2.0581 -1.892,-0.999 -3.67925,-1.94238 -7.34326,-1.94238 -3.664,0 -5.4498,0.94338 -7.3418,1.94238 -1.916,1.01199 -3.89661,2.0581 -7.80761,2.0581 z" />
      <path
         id="path5153"
         style="fill:#0b9bde;fill-opacity:1;fill-rule:nonzero;stroke:none;stroke-width:0.999998"
         d="m 181.7959,179.00001 c -3.912,0 -5.89308,-1.04611 -7.80908,-2.0581 -1.892,-0.999 -3.67925,-1.94238 -7.34326,-1.94238 -3.664,0 -5.4498,0.94338 -7.3418,1.94238 -0.61163,0.32305 -1.25689,0.63677 -1.94238,0.93164 0.46126,-0.59412 0.92222,-1.18896 1.39453,-1.77393 0.0266,-0.014 0.0539,-0.0269 0.0806,-0.041 1.916,-1.01199 3.89708,-2.0581 7.80908,-2.0581 3.912,0 5.89454,1.04611 7.81055,2.0581 1.89099,0.999 3.67779,1.94093 7.34179,1.94093 3.664,0 5.4508,-0.94193 7.3418,-1.94093 1.916,-1.01199 3.89708,-2.0581 7.80908,-2.0581 3.911,0 5.89162,1.04611 7.80762,2.0581 1.892,0.999 3.68026,1.94093 7.34327,1.94093 3.66399,0 5.44979,-0.94193 7.34179,-1.94093 1.916,-1.01199 3.89708,-2.0581 7.80908,-2.0581 3.911,0 5.89308,1.04611 7.80909,2.0581 1.89099,0.999 3.67733,1.94093 7.34033,1.94093 3.66499,0 5.45126,-0.94193 7.34326,-1.94093 1.916,-1.01199 3.89708,-2.0581 7.80908,-2.0581 3.912,0 5.89309,1.04611 7.80908,2.0581 1.892,0.999 3.67927,1.94093 7.34327,1.94093 3.663,0 5.44979,-0.94193 7.34179,-1.94093 1.91601,-1.01199 3.89709,-2.0581 7.80909,-2.0581 3.911,0 5.89161,1.04611 7.80761,2.0581 1.89199,0.999 3.67927,1.94093 7.34326,1.94093 3.663,0 5.44834,-0.94193 7.34034,-1.94093 1.916,-1.01199 3.89562,-2.0581 7.80761,-2.0581 3.91101,0 5.89308,1.04611 7.80908,2.0581 1.892,0.999 3.67781,1.94093 7.3418,1.94093 3.664,0 5.4498,-0.94193 7.3418,-1.94093 0.31573,-0.16676 0.6465,-0.32986 0.97412,-0.49365 0.21439,0.26244 0.41625,0.5355 0.62842,0.79981 -0.38345,0.18725 -0.76056,0.37853 -1.13672,0.57715 -1.91601,1.012 -3.89661,2.05811 -7.80762,2.05811 -3.911,0 -5.89308,-1.04611 -7.80908,-2.0581 -1.891,-0.999 -3.67879,-1.94238 -7.3418,-1.94238 -3.664,0 -5.44933,0.94338 -7.34033,1.94238 -1.916,1.01199 -3.89661,2.0581 -7.80762,2.0581 -3.912,0 -5.89454,-1.04611 -7.81054,-2.0581 -1.891,-0.999 -3.67634,-1.94238 -7.34033,-1.94238 -3.66501,0 -5.4508,0.94338 -7.34181,1.94238 -1.91599,1.01199 -3.89807,2.0581 -7.80907,2.0581 -3.912,0 -5.89308,-1.04611 -7.80909,-2.0581 -1.892,-0.999 -3.67826,-1.94238 -7.34326,-1.94238 -3.664,0 -5.4498,0.94338 -7.3418,1.94238 -1.916,1.01199 -3.89854,2.0581 -7.81054,2.0581 -3.911,0 -5.89162,-1.04611 -7.80762,-2.0581 -1.892,-0.999 -3.6778,-1.94238 -7.3418,-1.94238 -3.664,0 -5.45226,0.94338 -7.34326,1.94238 -1.916,1.01199 -3.89562,2.0581 -7.80761,2.0581 -3.911,0 -5.89309,-1.04611 -7.80909,-2.0581 -1.892,-0.999 -3.6788,-1.94238 -7.3418,-1.94238 -3.664,0 -5.44979,0.94338 -7.34179,1.94238 -1.91601,1.01199 -3.89709,2.0581 -7.80909,2.0581 z" />
      <path
         id="path5155"
         style="fill:#0b9bde;fill-opacity:1;fill-rule:nonzero;stroke:none;stroke-width:0.999998"
         d="m 181.7959,168.50001 c -3.912,0 -5.89308,-1.04611 -7.80908,-2.0581 -1.36962,-0.72318 -2.70527,-1.40627 -4.7168,-1.73438 0.28857,-0.27456 0.57292,-0.55306 0.86426,-0.82471 1.7765,0.39206 3.09035,1.0264 4.31983,1.67578 1.89099,0.999 3.67779,1.94093 7.34179,1.94093 3.664,0 5.4508,-0.94193 7.3418,-1.94093 1.916,-1.01199 3.89708,-2.0581 7.80908,-2.0581 3.911,0 5.89162,1.04611 7.80762,2.0581 1.892,0.999 3.68026,1.94093 7.34327,1.94093 3.66399,0 5.44979,-0.94193 7.34179,-1.94093 1.916,-1.01199 3.89708,-2.0581 7.80908,-2.0581 3.911,0 5.89308,1.04611 7.80909,2.0581 1.89099,0.999 3.67733,1.94093 7.34033,1.94093 3.66499,0 5.45126,-0.94193 7.34326,-1.94093 1.916,-1.01199 3.89708,-2.0581 7.80908,-2.0581 3.912,0 5.89309,1.04611 7.80908,2.0581 1.892,0.999 3.67927,1.94093 7.34327,1.94093 3.663,0 5.44979,-0.94193 7.34179,-1.94093 1.91601,-1.01199 3.89709,-2.0581 7.80909,-2.0581 3.911,0 5.89161,1.04611 7.80761,2.0581 1.89199,0.999 3.67927,1.94093 7.34326,1.94093 3.663,0 5.44834,-0.94193 7.34034,-1.94093 1.916,-1.01199 3.89562,-2.0581 7.80761,-2.0581 3.91101,0 5.89308,1.04611 7.80908,2.0581 1.892,0.999 3.67781,1.94093 7.3418,1.94093 0.38143,0 0.66779,-0.048 1.01074,-0.0674 0.30276,0.30768 0.59417,0.62653 0.89356,0.9375 -0.59811,0.0636 -1.18821,0.13041 -1.9043,0.13041 -3.911,0 -5.89308,-1.04611 -7.80908,-2.0581 -1.891,-0.999 -3.67879,-1.94238 -7.3418,-1.94238 -3.664,0 -5.44933,0.94338 -7.34033,1.94238 -1.916,1.01199 -3.89661,2.0581 -7.80762,2.0581 -3.912,0 -5.89454,-1.04611 -7.81054,-2.0581 -1.891,-0.999 -3.67634,-1.94238 -7.34033,-1.94238 -3.66501,0 -5.4508,0.94338 -7.34181,1.94238 -1.91599,1.01199 -3.89807,2.0581 -7.80907,2.0581 -3.912,0 -5.89308,-1.04611 -7.80909,-2.0581 -1.892,-0.999 -3.67826,-1.94238 -7.34326,-1.94238 -3.664,0 -5.4498,0.94338 -7.3418,1.94238 -1.916,1.01199 -3.89854,2.0581 -7.81054,2.0581 -3.911,0 -5.89162,-1.04611 -7.80762,-2.0581 -1.892,-0.999 -3.6778,-1.94238 -7.3418,-1.94238 -3.664,0 -5.45226,0.94338 -7.34326,1.94238 -1.916,1.01199 -3.89562,2.0581 -7.80761,2.0581 -3.911,0 -5.89309,-1.04611 -7.80909,-2.0581 -1.892,-0.999 -3.6788,-1.94238 -7.3418,-1.94238 -3.664,0 -5.44979,0.94338 -7.34179,1.94238 -1.91601,1.01199 -3.89709,2.0581 -7.80909,2.0581 z" />
      <path
         id="path5157"
         style="fill:#0b9bde;fill-opacity:1;fill-rule:nonzero;stroke:none;stroke-width:0.999998"
         d="m 181.7959,158.00001 c -1.72261,0 -3.02997,-0.22268 -4.16308,-0.53613 0.33583,-0.26444 0.66904,-0.53164 1.00781,-0.79248 0.89922,0.18824 1.88987,0.32813 3.15527,0.32813 3.664,0 5.4508,-0.94193 7.3418,-1.94093 1.916,-1.01199 3.89708,-2.0581 7.80908,-2.0581 3.911,0 5.89162,1.04611 7.80762,2.0581 1.892,0.999 3.68026,1.94093 7.34327,1.94093 3.66399,0 5.44979,-0.94193 7.34179,-1.94093 1.916,-1.01199 3.89708,-2.0581 7.80908,-2.0581 3.911,0 5.89308,1.04611 7.80909,2.0581 1.89099,0.999 3.67733,1.94093 7.34033,1.94093 3.66499,0 5.45126,-0.94193 7.34326,-1.94093 1.916,-1.01199 3.89708,-2.0581 7.80908,-2.0581 3.912,0 5.89309,1.04611 7.80908,2.0581 1.892,0.999 3.67927,1.94093 7.34327,1.94093 3.663,0 5.44979,-0.94193 7.34179,-1.94093 1.91601,-1.01199 3.89709,-2.0581 7.80909,-2.0581 3.911,0 5.89161,1.04611 7.80761,2.0581 1.89199,0.999 3.67927,1.94093 7.34326,1.94093 3.663,0 5.44834,-0.94193 7.34034,-1.94093 1.74591,-0.92215 3.56214,-1.86292 6.82763,-2.02441 0.47059,0.32469 0.93187,0.66183 1.39747,0.99316 -0.15073,-0.004 -0.25998,-0.0278 -0.41749,-0.0278 -3.664,0 -5.44933,0.94338 -7.34033,1.94238 -1.916,1.01199 -3.89661,2.0581 -7.80762,2.0581 -3.912,0 -5.89454,-1.04611 -7.81054,-2.0581 -1.891,-0.999 -3.67634,-1.94238 -7.34033,-1.94238 -3.66501,0 -5.4508,0.94338 -7.34181,1.94238 -1.91599,1.01199 -3.89807,2.0581 -7.80907,2.0581 -3.912,0 -5.89308,-1.04611 -7.80909,-2.0581 -1.892,-0.999 -3.67826,-1.94238 -7.34326,-1.94238 -3.664,0 -5.4498,0.94338 -7.3418,1.94238 -1.916,1.01199 -3.89854,2.0581 -7.81054,2.0581 -3.911,0 -5.89162,-1.04611 -7.80762,-2.0581 -1.892,-0.999 -3.6778,-1.94238 -7.3418,-1.94238 -3.664,0 -5.45226,0.94338 -7.34326,1.94238 -1.916,1.01199 -3.89562,2.0581 -7.80761,2.0581 -3.911,0 -5.89309,-1.04611 -7.80909,-2.0581 -1.892,-0.999 -3.6788,-1.94238 -7.3418,-1.94238 -3.664,0 -5.44979,0.94338 -7.34179,1.94238 -1.91601,1.01199 -3.89709,2.0581 -7.80909,2.0581 z" />
      <path
         id="path5159"
         style="fill:#0b9bde;fill-opacity:1;fill-rule:nonzero;stroke:none;stroke-width:0.999998"
         d="m 212.09767,147.50001 c -3.911,0 -5.89309,-1.0461 -7.80909,-2.0581 -1.34889,-0.71223 -2.65722,-1.39014 -4.61718,-1.72413 0.49764,-0.23793 1.00877,-0.45149 1.51025,-0.68261 1.41796,0.3979 2.51149,0.9629 3.57275,1.52343 1.892,0.99901 3.68026,1.94093 7.34327,1.94093 3.66399,0 5.44979,-0.94193 7.34179,-1.94093 1.916,-1.012 3.89708,-2.0581 7.80908,-2.0581 3.911,0 5.89308,1.04611 7.80909,2.0581 1.89099,0.99901 3.67733,1.94093 7.34033,1.94093 3.66499,0 5.45126,-0.94193 7.34326,-1.94093 1.916,-1.012 3.89708,-2.0581 7.80908,-2.0581 3.912,0 5.89309,1.04611 7.80908,2.0581 1.892,0.99901 3.67927,1.94093 7.34327,1.94093 3.663,0 5.44979,-0.94193 7.34179,-1.94093 1.91601,-1.012 3.89709,-2.0581 7.80909,-2.0581 3.911,0 5.89161,1.04611 7.80761,2.0581 1.89199,0.99901 3.67927,1.94093 7.34326,1.94093 1.19654,0 2.17896,-0.10669 3.04395,-0.27686 0.43471,0.23361 0.86351,0.47595 1.29492,0.71484 -1.16298,0.33696 -2.54172,0.5625 -4.33887,0.5625 -3.912,0 -5.89454,-1.0461 -7.81054,-2.0581 -1.891,-0.999 -3.67634,-1.94238 -7.34033,-1.94238 -3.66501,0 -5.4508,0.94338 -7.34181,1.94238 -1.91599,1.012 -3.89807,2.0581 -7.80907,2.0581 -3.912,0 -5.89308,-1.0461 -7.80909,-2.0581 -1.892,-0.999 -3.67826,-1.94238 -7.34326,-1.94238 -3.664,0 -5.4498,0.94338 -7.3418,1.94238 -1.916,1.012 -3.89854,2.0581 -7.81054,2.0581 -3.911,0 -5.89162,-1.0461 -7.80762,-2.0581 -1.892,-0.999 -3.6778,-1.94238 -7.3418,-1.94238 -3.664,0 -5.45226,0.94338 -7.34326,1.94238 -1.916,1.012 -3.89562,2.0581 -7.80761,2.0581 z" />
      <path
         id="path5161"
         style="fill:#0b9bde;fill-opacity:1;fill-rule:nonzero;stroke:none;stroke-width:0.999998"
         d="m 242.39796,137.00001 c -3.911,0 -5.89162,-1.0461 -7.80762,-2.0581 -0.85586,-0.4519 -1.7095,-0.88058 -2.70557,-1.22754 0.64551,-0.10197 1.29636,-0.18543 1.94532,-0.27686 0.4201,0.20336 0.82979,0.41102 1.22754,0.62109 1.89099,0.99901 3.67733,1.94093 7.34033,1.94093 3.66499,0 5.45126,-0.94193 7.34326,-1.94093 1.2419,-0.65595 2.52099,-1.32195 4.32568,-1.7124 2.96708,0.0911 5.91341,0.26605 8.82129,0.57275 0.90058,0.34544 1.70878,0.73696 2.47119,1.13965 1.892,0.99901 3.67927,1.94093 7.34327,1.94093 1.91145,0 3.30096,-0.26316 4.47216,-0.6504 0.57245,0.1332 1.14906,0.25545 1.71826,0.39697 -1.52266,0.69345 -3.33914,1.25391 -6.19042,1.25391 -3.912,0 -5.89308,-1.0461 -7.80909,-2.0581 -1.892,-0.999 -3.67826,-1.94238 -7.34326,-1.94238 -3.664,0 -5.4498,0.94338 -7.3418,1.94238 -1.916,1.012 -3.89854,2.0581 -7.81054,2.0581 z" />
      <path
         d="m 367.74655,250 c 0,-65.0297 -52.71685,-117.74655 -117.74655,-117.74655 -65.0297,0 -117.74655,52.71685 -117.74655,117.74655 0,65.0297 52.71685,117.74655 117.74655,117.74655 65.0297,0 117.74655,-52.71685 117.74655,-117.74655"
         style="display:inline;fill:none;fill-opacity:1;fill-rule:nonzero;stroke:#ffffff;stroke-width:9.00675;stroke-miterlimit:4;stroke-dasharray:none;stroke-opacity:1"
         id="path5187"
         inkscape:connector-curvature="0" />
      <g
         id="g2662"
         style="display:inline;fill:#ffffff;fill-opacity:1"
         transform="translate(0.25388)">
        <path
           d="m 250,265.229 c -27.221,0 -52.792,-3.764 -72.001,-10.598 -18.452,-6.565 -29.035,-15.451 -29.035,-24.381 0,-8.93 10.583,-17.816 29.035,-24.382 19.209,-6.834 44.78,-10.597 72.001,-10.597 27.221,0 52.792,3.763 72.001,10.597 18.452,6.566 29.035,15.452 29.035,24.382 0,8.93 -10.583,17.816 -29.035,24.381 -19.209,6.834 -44.779,10.598 -72.001,10.598 m 0,-72.958 c -58.338,0 -104.036,16.682 -104.036,37.979 0,21.297 45.698,37.979 104.036,37.979 58.338,0 104.036,-16.682 104.036,-37.979 0,-21.297 -45.698,-37.979 -104.036,-37.979"
           style="fill:#ffffff;fill-opacity:1;fill-rule:nonzero;stroke:none"
           id="path5201"
           inkscape:connector-curvature="0" />
        <path
           d="m 164.16,190.855 c 24.905,-6.664 54.572,-10.185 85.84,-10.185 31.269,0 60.936,3.521 85.841,10.185 12.039,17.435 18.399,37.874 18.399,59.145 0,4.763 -0.323,9.515 -0.96,14.138 -26.701,9.935 -62.638,15.5 -101.337,15.682 -0.659,0.01 -1.301,0.01 -1.943,0.01 -2.966,0 -6.101,-0.037 -9.316,-0.109 -35.79,-0.811 -69.112,-6.341 -93.964,-15.583 -0.637,-4.624 -0.96,-9.376 -0.96,-14.138 0,-21.271 6.36,-41.71 18.4,-59.145 M 250,177.67 c -31.75,0 -61.886,3.607 -87.151,10.432 l -0.526,0.142 -0.313,0.447 c -12.593,18.038 -19.25,39.238 -19.25,61.309 0,5.208 0.375,10.406 1.116,15.448 l 0.128,0.873 0.826,0.312 c 25.247,9.546 59.265,15.259 95.786,16.087 3.238,0.073 6.396,0.11 9.384,0.11 0.658,0 1.315,0 1.974,-0.01 39.431,-0.185 76.087,-5.934 103.196,-16.187 l 0.825,-0.312 0.129,-0.873 c 0.74,-5.041 1.116,-10.239 1.116,-15.448 0,-22.071 -6.656,-43.271 -19.251,-61.309 l -0.311,-0.447 -0.527,-0.142 C 311.886,181.277 281.75,177.67 250,177.67"
           style="fill:#ffffff;fill-opacity:1;fill-rule:nonzero;stroke:none"
           id="path5203"
           inkscape:connector-curvature="0" />
        <path
           d="m 183.733,169.539 c 21.109,-2.866 43.402,-4.319 66.267,-4.319 22.865,0 45.158,1.453 66.267,4.319 7.352,6.052 13.831,13.07 19.262,20.868 12.242,17.533 18.711,38.14 18.711,59.593 0,5.064 -0.365,10.115 -1.085,15.012 -0.99,6.934 -2.695,13.775 -5.072,20.351 -29.39,6.49 -63.281,9.917 -98.083,9.917 -34.802,0 -68.694,-3.427 -98.083,-9.917 -2.377,-6.575 -4.083,-13.416 -5.072,-20.345 -0.72,-4.904 -1.085,-9.955 -1.085,-15.018 0,-21.453 6.469,-42.06 18.71,-59.592 5.432,-7.799 11.911,-14.817 19.263,-20.869 M 250,162.22 c -23.152,0 -45.726,1.481 -67.093,4.404 l -0.419,0.058 -0.327,0.266 c -7.702,6.288 -14.482,13.604 -20.152,21.744 -12.592,18.037 -19.249,39.237 -19.249,61.308 0,5.208 0.375,10.406 1.116,15.448 1.058,7.403 2.911,14.714 5.507,21.723 l 0.284,0.765 0.796,0.178 c 29.785,6.651 64.204,10.166 99.537,10.166 35.333,0 69.752,-3.515 99.537,-10.166 l 0.796,-0.178 0.283,-0.765 c 2.598,-7.01 4.45,-14.321 5.509,-21.729 0.739,-5.035 1.115,-10.233 1.115,-15.442 0,-22.071 -6.656,-43.271 -19.251,-61.309 -5.669,-8.139 -12.449,-15.456 -20.151,-21.743 l -0.327,-0.266 -0.418,-0.058 C 295.726,163.701 273.152,162.22 250,162.22"
           style="fill:#ffffff;fill-opacity:1;fill-rule:nonzero;stroke:none"
           id="path5205"
           inkscape:connector-curvature="0" />
        <path
           d="m 250,238 c -14.022,0 -24.5,-4.092 -24.5,-7.75 0,-3.658 10.478,-7.75 24.5,-7.75 14.022,0 24.5,4.092 24.5,7.75 0,3.658 -10.478,7.75 -24.5,7.75 m 0,-18.5 c -13.332,0 -27.5,3.768 -27.5,10.75 0,6.982 14.168,10.75 27.5,10.75 13.331,0 27.5,-3.768 27.5,-10.75 0,-6.982 -14.169,-10.75 -27.5,-10.75"
           style="fill:#ffffff;fill-opacity:1;fill-rule:nonzero;stroke:none"
           id="path5195"
           inkscape:connector-curvature="0" />
        <path
           d="m 250,245.324 c -26.97,0 -45.086,-7.794 -45.086,-15.074 0,-7.28 18.116,-15.074 45.086,-15.074 26.97,0 45.086,7.794 45.086,15.074 0,7.28 -18.116,15.074 -45.086,15.074 m 0,-33.148 c -26.964,0 -48.086,7.939 -48.086,18.074 0,10.135 21.122,18.074 48.086,18.074 26.964,0 48.086,-7.939 48.086,-18.074 0,-10.135 -21.122,-18.074 -48.086,-18.074"
           style="fill:#ffffff;fill-opacity:1;fill-rule:nonzero;stroke:none"
           id="path5197"
           inkscape:connector-curvature="0" />
        <path
           d="m 250,253.507 c -36.907,0 -68.086,-10.651 -68.086,-23.257 0,-12.606 31.179,-23.257 68.086,-23.257 36.906,0 68.086,10.651 68.086,23.257 0,12.606 -31.18,23.257 -68.086,23.257 m 0,-49.514 c -39.861,0 -71.086,11.533 -71.086,26.257 0,14.724 31.225,26.257 71.086,26.257 39.861,0 71.086,-11.533 71.086,-26.257 0,-14.724 -31.225,-26.257 -71.086,-26.257"
           style="fill:#ffffff;fill-opacity:1;fill-rule:nonzero;stroke:none"
           id="path5199"
           inkscape:connector-curvature="0" />
        <path
           d="m 201.774,157.569 c 15.661,-1.293 31.884,-1.949 48.226,-1.949 16.341,0 32.564,0.656 48.227,1.949 6.281,3.276 12.238,7.211 17.711,11.702 7.49,6.113 14.08,13.223 19.591,21.136 12.242,17.533 18.711,38.14 18.711,59.593 0,5.064 -0.365,10.115 -1.085,15.012 -1.028,7.203 -2.829,14.306 -5.351,21.117 -1.382,3.765 -3.031,7.528 -4.906,11.201 -29.079,5.01 -60.33,7.55 -92.898,7.55 -32.568,0 -63.819,-2.54 -92.898,-7.55 -1.875,-3.674 -3.523,-7.437 -4.904,-11.197 -2.524,-6.814 -4.325,-13.917 -5.353,-21.115 -0.72,-4.904 -1.085,-9.955 -1.085,-15.018 0,-21.453 6.469,-42.06 18.71,-59.592 5.512,-7.913 12.102,-15.024 19.589,-21.136 5.475,-4.492 11.433,-8.427 17.715,-11.703 M 250,152.62 c -16.529,0 -32.938,0.668 -48.774,1.984 l -0.299,0.026 -0.266,0.138 c -6.566,3.398 -12.791,7.498 -18.502,12.182 -7.7,6.286 -14.48,13.602 -20.15,21.742 -12.592,18.037 -19.249,39.237 -19.249,61.308 0,5.208 0.375,10.406 1.116,15.448 1.058,7.403 2.911,14.714 5.507,21.723 1.506,4.1 3.322,8.206 5.396,12.201 l 0.342,0.659 0.732,0.127 c 29.457,5.124 61.132,7.722 94.147,7.722 33.015,0 64.69,-2.598 94.146,-7.722 l 0.732,-0.127 0.343,-0.659 c 2.074,-3.993 3.89,-8.1 5.397,-12.205 2.596,-7.006 4.448,-14.317 5.507,-21.725 0.739,-5.035 1.115,-10.233 1.115,-15.442 0,-22.071 -6.656,-43.271 -19.251,-61.309 -5.669,-8.139 -12.449,-15.456 -20.151,-21.743 -5.709,-4.683 -11.934,-8.782 -18.498,-12.18 l -0.267,-0.138 -0.299,-0.026 C 282.938,153.288 266.528,152.62 250,152.62"
           style="fill:#ffffff;fill-opacity:1;fill-rule:nonzero;stroke:none"
           id="path5207"
           inkscape:connector-curvature="0" />
        <path
           d="m 246.333,288.359 c -5.435,-9.432 -16,-29.21 -16,-36.192 0,-8.822 7.178,-16 16,-16 8.822,0 16,7.178 16,16 0,6.982 -10.564,26.76 -16,36.192 m 0,-55.192 c -10.476,0 -19,8.523 -19,19 0,9.961 16.987,38.713 17.71,39.932 l 1.29,2.175 1.291,-2.175 c 0.723,-1.219 17.709,-29.971 17.709,-39.932 0,-10.477 -8.523,-19 -19,-19"
           style="fill:#ffffff;fill-opacity:1;fill-rule:nonzero;stroke:none"
           id="path5211"
           inkscape:connector-curvature="0" />
        <path
           d="m 238.556,242.194 c -0.587,0 -1.145,0.347 -1.385,0.923 -5.922,14.213 0.185,19.316 0.448,19.527 0.646,0.516 1.591,0.412 2.108,-0.235 0.512,-0.64 0.415,-1.572 -0.216,-2.093 -0.116,-0.105 -4.503,-4.206 0.429,-16.045 0.319,-0.764 -0.043,-1.643 -0.807,-1.961 -0.189,-0.079 -0.384,-0.116 -0.577,-0.116"
           style="fill:#ffffff;fill-opacity:1;fill-rule:nonzero;stroke:none"
           id="path5213"
           inkscape:connector-curvature="0" />
      </g>
    </g>
  </g>
</svg>
