<?xml version="1.0" encoding="UTF-8" standalone="no"?>
<!-- Created with Inkscape (http://www.inkscape.org/) -->

<svg
   id="svg2985"
   viewBox="0 0 916.66998 374.67001"
   sodipodi:docname="deel 4 tech.svg"
   version="1.1"
   inkscape:version="1.1.2 (0a00cf5339, 2022-02-04)"
   width="977.78131"
   height="399.64801"
   xmlns:inkscape="http://www.inkscape.org/namespaces/inkscape"
   xmlns:sodipodi="http://sodipodi.sourceforge.net/DTD/sodipodi-0.dtd"
   xmlns:xlink="http://www.w3.org/1999/xlink"
   xmlns="http://www.w3.org/2000/svg"
   xmlns:svg="http://www.w3.org/2000/svg"
   xmlns:rdf="http://www.w3.org/1999/02/22-rdf-syntax-ns#"
   xmlns:cc="http://creativecommons.org/ns#"
   xmlns:dc="http://purl.org/dc/elements/1.1/">
  <defs
     id="defs2987">
    <linearGradient
       inkscape:collect="always"
       id="light_to_dark_brown">
      <stop
         style="stop-color:#b74900;stop-opacity:1"
         offset="0"
         id="stop1086" />
      <stop
         style="stop-color:#230e00;stop-opacity:1"
         offset="1"
         id="stop1088" />
    </linearGradient>
    <linearGradient
       id="linearGradient5916"
       inkscape:collect="always">
      <stop
         id="stop5918"
         style="stop-color:#000000"
         offset="0" />
      <stop
         id="stop5920"
         style="stop-color:#000000;stop-opacity:0"
         offset="1" />
    </linearGradient>
    <linearGradient
       id="linearGradient4166"
       inkscape:collect="always">
      <stop
         id="stop4168"
         style="stop-color:#ffffff"
         offset="0" />
      <stop
         id="stop4170"
         style="stop-color:#ffffff;stop-opacity:0"
         offset="1" />
    </linearGradient>
    <linearGradient
       id="linearGradient5316"
       y2="350.20001"
       xlink:href="#linearGradient4166"
       gradientUnits="userSpaceOnUse"
       x2="68.452003"
       y1="360.75"
       x1="90.045998"
       inkscape:collect="always" />
    <linearGradient
       id="linearGradient5429"
       y2="229.02"
       xlink:href="#linearGradient4166"
       gradientUnits="userSpaceOnUse"
       x2="276.97"
       y1="304.16"
       x1="281.57999"
       inkscape:collect="always" />
    <linearGradient
       id="linearGradient5431"
       y2="119.49"
       xlink:href="#linearGradient5916"
       gradientUnits="userSpaceOnUse"
       x2="94.056999"
       gradientTransform="translate(41.531,208.47)"
       y1="45.796001"
       x1="34.202"
       inkscape:collect="always" />
    <linearGradient
       id="linearGradient5447"
       y2="335.29001"
       xlink:href="#linearGradient5916"
       gradientUnits="userSpaceOnUse"
       x2="141.7"
       y1="292.95001"
       x1="27.688"
       inkscape:collect="always" />
    <linearGradient
       id="linearGradient5460"
       y2="227.8"
       xlink:href="#linearGradient5916"
       gradientUnits="userSpaceOnUse"
       x2="535.84003"
       gradientTransform="translate(-432.42,144.14)"
       y1="234.32001"
       x1="451.95999"
       inkscape:collect="always" />
    <linearGradient
       id="linearGradient5473"
       y2="364.60999"
       xlink:href="#linearGradient5916"
       gradientUnits="userSpaceOnUse"
       x2="849.35999"
       gradientTransform="translate(-561.9,166.94)"
       y1="146.37"
       x1="625.40997"
       inkscape:collect="always" />
    <linearGradient
       id="linearGradient5476"
       y2="476.91"
       gradientUnits="userSpaceOnUse"
       y1="300.70999"
       x2="259.12"
       x1="253.36"
       inkscape:collect="always">
      <stop
         id="stop3926"
         style="stop-color:#b3b3b3"
         offset="0" />
      <stop
         id="stop3928"
         style="stop-color:#b3b3b3;stop-opacity:0"
         offset="1" />
    </linearGradient>
    <linearGradient
       id="linearGradient5488"
       y2="99.949997"
       xlink:href="#linearGradient5916"
       gradientUnits="userSpaceOnUse"
       x2="517.91998"
       gradientTransform="translate(-437.59,271.41)"
       y1="20.143999"
       x1="520.35999"
       inkscape:collect="always" />
    <radialGradient
       id="radialGradient5922"
       xlink:href="#linearGradient5916"
       gradientUnits="userSpaceOnUse"
       cy="593.22998"
       cx="240.12"
       gradientTransform="matrix(1,0,0,0.1512,0,503.53)"
       r="167.57001"
       inkscape:collect="always" />
    <linearGradient
       id="linearGradient3099"
       y2="476.91"
       xlink:href="#linearGradient5476"
       gradientUnits="userSpaceOnUse"
       x2="259.12"
       y1="300.70999"
       x1="253.36"
       inkscape:collect="always" />
    <linearGradient
       inkscape:collect="always"
       xlink:href="#light_to_dark_brown"
       id="linearGradient1092"
       x1="760.66119"
       y1="267.96921"
       x2="620.55804"
       y2="141.23724"
       gradientUnits="userSpaceOnUse" />
    <linearGradient
       inkscape:collect="always"
       xlink:href="#light_to_dark_brown"
       id="linearGradient9023"
       x1="-51.97163"
       y1="84.409897"
       x2="86.686195"
       y2="190.17061"
       gradientUnits="userSpaceOnUse" />
  </defs>
  <sodipodi:namedview
     id="namedview2989"
     bordercolor="#666666"
     inkscape:pageshadow="2"
     inkscape:window-y="0"
     pagecolor="#ffffff"
     inkscape:window-maximized="1"
     inkscape:zoom="0.61399264"
     inkscape:window-x="0"
     inkscape:window-height="1051"
     showgrid="false"
     borderopacity="1.0"
     inkscape:current-layer="layer2"
     inkscape:cx="410.42837"
     inkscape:cy="262.21813"
     inkscape:window-width="1876"
     inkscape:pageopacity="0.0"
     inkscape:document-units="mm"
     inkscape:pagecheckerboard="0"
     inkscape:object-nodes="false" />
  <g
     id="layer1"
     inkscape:label="bril"
     inkscape:groupmode="layer"
     transform="translate(-39.088,-222.02)">
    <g
       id="g6129">
      <g
         id="g5924">
        <g
           id="g5563">
          <g
             id="g4048">
            <path
               id="path3799"
               inkscape:connector-curvature="0"
               sodipodi:nodetypes="cccccczzccc"
               style="fill:#552200"
               d="m 39.156,315.39 h 98.466 c 2.5891,-7.0222 5.961,-13.485 13.861,-16.714 7.7978,-3.9789 12.197,-10.79 15.413,-18.587 3.8803,-9.9147 9.6693,-18.398 19.671,-23.721 6.6123,-6.8438 13.94,-4.3823 21.306,-1.4396 0,0 34.226,25.053 57.007,34.838 22.781,9.7843 57.537,-19.224 34.838,-33.11 -22.699,-13.886 -81.192,-29.655 -81.192,-29.655 -19.813,-8.5336 -36.379,-4.7253 -52.4,1.1517 -69.917,16.063 -96.309,52.657 -126.97,87.238 z" />
            <path
               id="path3799-3"
               style="fill:url(#linearGradient5429)"
               inkscape:connector-curvature="0"
               d="m 192.17,235.14 c -32.73,18.418 -70.508,26.701 -91.188,69.219 l 15.719,11.125 h 21.094 c 2.5891,-7.0222 5.9753,-13.459 13.875,-16.688 7.7978,-3.9789 12.19,-10.797 15.406,-18.594 3.8803,-9.9147 9.6855,-18.395 19.688,-23.719 6.6123,-6.8438 13.916,-4.3802 21.281,-1.4375 0,0 34.25,25.028 57.031,34.812 22.781,9.7843 57.512,-19.208 34.812,-33.094 -3.478,-2.1276 -7.7743,-4.3162 -12.594,-6.4688 -5.6613,6.1646 -8.8428,15.041 -25.062,9.6875 -25.049,1.9468 -46.968,-15.067 -70.062,-24.844 z" />
            <path
               id="path3799-1"
               style="fill:url(#linearGradient5431)"
               inkscape:connector-curvature="0"
               d="m 194.44,222.38 c -9.8376,0.16831 -19.051,2.8192 -28.062,6.125 -69.917,16.063 -96.308,52.669 -126.97,87.25 h 14.844 c 15.15,-19.556 31.488,-38.626 53.656,-55.375 18.808,-11.904 39.405,-20.804 61.469,-27.281 10.083,-6.2126 22.439,-6.7962 34.625,-7.75 22.371,4.8171 45.356,11.489 68.812,19.562 l -0.21875,-0.34375 c -25.025,-9.4298 -53.812,-17.219 -53.812,-17.219 -8.6684,-3.7334 -16.692,-5.0996 -24.344,-4.9688 z" />
          </g>
          <path
             id="path3793"
             d="m 39.088,314.12 c 139.89,-1.1756 279.95,-4.5918 416.76,33.242 1.1476,0.31736 2.2949,0.63762 3.4421,0.96081 14.771,21.649 39.708,12.8 60.261,17.101 l 0.81434,43.16 c -25.16,3.5389 -53.839,-4.6521 -63.519,50.489 l -1.931,3.029 c -9.5789,25.776 -24.757,43.712 -39.6,62.118 -15.015,15.845 -33.621,24.507 -52.932,31.759 -25.13,8.9519 -52.58,9.7825 -79.806,11.401 -27.394,-0.55403 -48.152,-4.4258 -69.219,-8.1434 -27.29,-4.77 -40.63,-11.87 -55.37,-18.73 -28.16,-10.89 -39.33,-32.69 -52.93,-52.93 -15.923,-37.37 -24.022,-60.2 -32.574,-83.88 -0.845,-18.71 -15.128,-27.82 -30.945,-35.83 z"
             sodipodi:nodetypes="cscccccccccccccc"
             style="fill:#552200"
             inkscape:connector-curvature="0" />
          <path
             id="path3005"
             d="m 436.49,390.67 c -13.073,-25.112 -43.421,-38.928 -84.692,-45.603 -70.099,-13.401 -134.69,-9.1802 -199.51,-5.7004 -22.504,8.9976 -55.495,2.2638 -49.675,53.747 0.063,23.452 0.61722,46.833 8.1434,69.219 9.1709,25.626 26.67,48.476 55.375,67.59 24.714,10.197 50.226,18.53 78.177,21.173 34.137,3.1257 66.298,2.3016 96.092,-3.2574 20.532,-9.0696 36.11,-6.1053 70.848,-49.675 11.475,-19.769 24.511,-38.563 27.688,-63.519 z"
             sodipodi:nodetypes="ccccccccccc"
             style="fill:#e6e6e6"
             inkscape:connector-curvature="0" />
          <path
             id="path3793-3"
             d="m 117.88,313.66 c -26.219,0.0913 -52.427,0.37333 -78.656,0.59375 l 0.53125,11.812 c 139.53,-3.8964 278.91,-3.8938 414.38,34.719 3.9428,13.701 16.214,19.048 30.938,21.969 l 34.938,0.5 -0.34375,-17.688 c -20.554,-4.3011 -45.479,4.5553 -60.25,-17.094 -1.1471,-0.32319 -2.2899,-0.65139 -3.4375,-0.96875 -111.16,-30.73 -224.49,-34.23 -338.1,-33.84 z"
             style="fill:url(#linearGradient5488)"
             inkscape:connector-curvature="0" />
          <path
             id="path3914"
             inkscape:connector-curvature="0"
             sodipodi:nodetypes="ccccccccccc"
             style="fill:url(#linearGradient3099)"
             d="m 436.49,390.67 c -13.073,-25.112 -43.421,-38.928 -84.692,-45.603 -70.099,-13.401 -134.69,-9.1802 -199.51,-5.7004 -22.504,8.9976 -55.495,2.2638 -49.675,53.747 0.063,23.452 0.61722,46.833 8.1434,69.219 9.1709,25.626 26.67,48.476 55.375,67.59 24.714,10.197 50.226,18.53 78.177,21.173 34.137,3.1257 66.298,2.3016 96.092,-3.2574 20.532,-9.0696 36.11,-6.1053 70.848,-49.675 11.475,-19.769 24.511,-38.563 27.688,-63.519 z" />
          <path
             id="path3932"
             d="m 436.49,390.67 c -13.073,-25.112 -43.421,-38.928 -84.692,-45.603 -70.099,-13.401 -134.69,-9.1802 -199.51,-5.7004 -22.504,8.9976 -55.495,2.2638 -49.675,53.747 0.063,23.452 0.61722,46.833 8.1434,69.219 9.1709,25.626 26.67,48.476 55.375,67.59 24.714,10.197 50.226,18.53 78.177,21.173 34.137,3.1257 66.298,2.3016 96.092,-3.2574 20.532,-9.0696 36.11,-6.1053 70.848,-49.675 11.475,-19.769 24.511,-38.563 27.688,-63.519 z"
             sodipodi:nodetypes="ccccccccccc"
             style="fill:url(#linearGradient3099)"
             inkscape:connector-curvature="0" />
          <path
             id="path3934"
             inkscape:connector-curvature="0"
             sodipodi:nodetypes="ccccccccccc"
             style="fill:url(#linearGradient3099)"
             d="m 436.49,390.67 c -13.073,-25.112 -43.421,-38.928 -84.692,-45.603 -70.099,-13.401 -134.69,-9.1802 -199.51,-5.7004 -22.504,8.9976 -55.495,2.2638 -49.675,53.747 0.063,23.452 0.61722,46.833 8.1434,69.219 9.1709,25.626 26.67,48.476 55.375,67.59 24.714,10.197 50.226,18.53 78.177,21.173 34.137,3.1257 66.298,2.3016 96.092,-3.2574 20.532,-9.0696 36.11,-6.1053 70.848,-49.675 11.475,-19.769 24.511,-38.563 27.688,-63.519 z" />
          <path
             id="path3936"
             d="m 436.49,390.67 c -13.073,-25.112 -43.421,-38.928 -84.692,-45.603 -70.099,-13.401 -134.69,-9.1802 -199.51,-5.7004 -22.504,8.9976 -55.495,2.2638 -49.675,53.747 0.063,23.452 0.61722,46.833 8.1434,69.219 9.1709,25.626 26.67,48.476 55.375,67.59 24.714,10.197 50.226,18.53 78.177,21.173 34.137,3.1257 66.298,2.3016 96.092,-3.2574 20.532,-9.0696 36.11,-6.1053 70.848,-49.675 11.475,-19.769 24.511,-38.563 27.688,-63.519 z"
             sodipodi:nodetypes="ccccccccccc"
             style="fill:url(#linearGradient3099)"
             inkscape:connector-curvature="0" />
          <path
             id="path3936-3"
             d="m 240.7,323.44 c -31.614,0.0697 -62.7,1.9837 -93.812,3.7188 -23.042,9.5705 -56.803,2.3952 -50.844,57.156 0.0645,24.945 0.6375,49.814 8.3438,73.625 9.3903,27.258 27.295,51.575 56.688,71.906 25.305,10.846 51.411,19.689 80.031,22.5 34.953,3.3248 67.899,2.4442 98.406,-3.4688 8.1084,-3.7207 15.453,-5.5446 23.469,-9.0312 -7.5778,3.1051 -14.55,4.8176 -22.25,8.2188 -29.794,5.559 -61.957,6.3757 -96.094,3.25 -27.951,-2.6424 -53.474,-10.96 -78.188,-21.156 -28.705,-19.114 -46.204,-41.968 -55.375,-67.594 -7.5262,-22.386 -8.0932,-45.767 -8.1562,-69.219 -5.8199,-51.483 27.184,-44.752 49.688,-53.75 64.823,-3.4798 129.4,-7.7138 199.5,5.6875 41.27,6.6749 71.614,20.513 84.688,45.625 l 2.4687,43.969 c -0.0992,0.77988 -0.2255,1.5444 -0.3437,2.3125 0.6033,-2.8264 1.1348,-5.7066 1.5,-8.6875 l -2.5312,-46.781 c -13.386,-26.711 -44.43,-41.4 -86.688,-48.5 -38.131,-7.5728 -74.671,-9.8602 -110.5,-9.7812 z m 198.16,114.09 c -4.8143,22.184 -16.435,39.959 -26.812,58.531 -21.565,28.098 -35.918,37.97 -48.562,43.562 12.507,-5.2098 26.664,-14.373 48.094,-41.25 11.062,-19.058 23.55,-37.204 27.281,-60.844 z"
             style="fill:url(#linearGradient5473)"
             inkscape:connector-curvature="0" />
          <path
             id="path3793-5"
             d="m 40.31,313.22 c 139.89,-1.1756 279.95,-4.5918 416.76,33.242 1.1476,0.31736 2.2949,0.63762 3.4421,0.96081 14.771,21.649 39.708,12.8 60.261,17.101 l 0.81434,43.16 c -25.16,3.5389 -53.839,-4.6521 -63.519,50.489 l -1.931,3.029 c -9.5789,25.776 -24.757,43.712 -39.6,62.118 -15.015,15.845 -33.621,24.507 -52.932,31.759 -25.13,8.9519 -52.58,9.7825 -79.806,11.401 -27.394,-0.55403 -48.152,-4.4258 -69.219,-8.1434 -27.301,-4.7694 -40.64,-11.866 -55.375,-18.73 -28.15,-10.89 -39.32,-32.69 -52.92,-52.94 -15.922,-37.36 -24.02,-60.2 -32.572,-83.87 -0.846,-18.71 -15.128,-27.82 -30.945,-35.83 z"
             sodipodi:nodetypes="cscccccccccccccc"
             style="fill:url(#linearGradient5460)"
             inkscape:connector-curvature="0" />
          <g
             id="g4053"
             style="fill:url(#linearGradient5447)">
            <path
               id="path4055"
               d="m 39.156,315.39 h 98.466 c 2.5891,-7.0222 5.961,-13.485 13.861,-16.714 7.7978,-3.9789 12.197,-10.79 15.413,-18.587 3.8803,-9.9147 9.6693,-18.398 19.671,-23.721 6.6123,-6.8438 13.94,-4.3823 21.306,-1.4396 0,0 34.226,25.053 57.007,34.838 22.781,9.7843 57.537,-19.224 34.838,-33.11 -22.699,-13.886 -81.192,-29.655 -81.192,-29.655 -19.813,-8.5336 -36.379,-4.7253 -52.4,1.1517 -69.917,16.063 -96.309,52.657 -126.97,87.238 z"
               sodipodi:nodetypes="cccccczzccc"
               style="fill:url(#linearGradient5447)"
               inkscape:connector-curvature="0" />
            <path
               id="path4057"
               d="m 192.17,235.14 c -32.73,18.418 -70.508,26.701 -91.188,69.219 l 15.719,11.125 h 21.094 c 2.5891,-7.0222 5.9753,-13.459 13.875,-16.688 7.7978,-3.9789 12.19,-10.797 15.406,-18.594 3.8803,-9.9147 9.6855,-18.395 19.688,-23.719 6.6123,-6.8438 13.916,-4.3802 21.281,-1.4375 0,0 34.25,25.028 57.031,34.812 22.781,9.7843 57.512,-19.208 34.812,-33.094 -3.478,-2.1276 -7.7743,-4.3162 -12.594,-6.4688 -5.6613,6.1646 -8.8428,15.041 -25.062,9.6875 -25.049,1.9468 -46.968,-15.067 -70.062,-24.844 z"
               style="fill:url(#linearGradient5447)"
               inkscape:connector-curvature="0" />
            <path
               id="path4059"
               d="m 194.44,222.38 c -9.8376,0.16831 -19.051,2.8192 -28.062,6.125 -69.917,16.063 -96.308,52.669 -126.97,87.25 h 14.844 c 15.15,-19.556 31.488,-38.626 53.656,-55.375 18.808,-11.904 39.405,-20.804 61.469,-27.281 10.083,-6.2126 22.439,-6.7962 34.625,-7.75 22.371,4.8171 45.356,11.489 68.812,19.562 l -0.21875,-0.34375 c -25.025,-9.4298 -53.812,-17.219 -53.812,-17.219 -8.6684,-3.7334 -16.692,-5.0996 -24.344,-4.9688 z"
               style="fill:url(#linearGradient5447)"
               inkscape:connector-curvature="0" />
          </g>
          <path
             id="path4069"
             inkscape:connector-curvature="0"
             sodipodi:nodetypes="cscccccccccccccc"
             style="fill:url(#linearGradient5460)"
             d="m 40.31,313.22 c 139.89,-1.1756 279.95,-4.5918 416.76,33.242 1.1476,0.31736 2.2949,0.63762 3.4421,0.96081 14.771,21.649 39.708,12.8 60.261,17.101 l 0.81434,43.16 c -25.16,3.5389 -53.839,-4.6521 -63.519,50.489 l -1.931,3.029 c -9.5789,25.776 -24.757,43.712 -39.6,62.118 -15.015,15.845 -33.621,24.507 -52.932,31.759 -25.13,8.9519 -52.58,9.7825 -79.806,11.401 -27.394,-0.55403 -48.152,-4.4258 -69.219,-8.1434 -27.301,-4.7694 -40.64,-11.866 -55.375,-18.73 -28.15,-10.89 -39.32,-32.69 -52.92,-52.94 -15.922,-37.36 -24.02,-60.2 -32.572,-83.87 -0.846,-18.71 -15.128,-27.82 -30.945,-35.83 z" />
          <path
             id="path4071"
             d="m 40.31,313.22 c 139.89,-1.1756 279.95,-4.5918 416.76,33.242 1.1476,0.31736 2.2949,0.63762 3.4421,0.96081 14.771,21.649 39.708,12.8 60.261,17.101 l 0.81434,43.16 c -25.16,3.5389 -53.839,-4.6521 -63.519,50.489 l -1.931,3.029 c -9.5789,25.776 -24.757,43.712 -39.6,62.118 -15.015,15.845 -33.621,24.507 -52.932,31.759 -25.13,8.9519 -52.58,9.7825 -79.806,11.401 -27.394,-0.55403 -48.152,-4.4258 -69.219,-8.1434 -27.301,-4.7694 -40.64,-11.866 -55.375,-18.73 -28.15,-10.89 -39.32,-32.69 -52.92,-52.94 -15.922,-37.36 -24.02,-60.2 -32.572,-83.87 -0.846,-18.71 -15.128,-27.82 -30.945,-35.83 z"
             sodipodi:nodetypes="cscccccccccccccc"
             style="fill:url(#linearGradient5460)"
             inkscape:connector-curvature="0" />
          <g
             id="g4096">
            <path
               id="path4098"
               d="m 39.156,315.39 h 98.466 c 2.5891,-7.0222 5.961,-13.485 13.861,-16.714 7.7978,-3.9789 12.197,-10.79 15.413,-18.587 3.8803,-9.9147 9.6693,-18.398 19.671,-23.721 6.6123,-6.8438 13.94,-4.3823 21.306,-1.4396 0,0 34.226,25.053 57.007,34.838 22.781,9.7843 57.537,-19.224 34.838,-33.11 -22.699,-13.886 -81.192,-29.655 -81.192,-29.655 -19.813,-8.5336 -36.379,-4.7253 -52.4,1.1517 -69.917,16.063 -96.309,52.657 -126.97,87.238 z"
               sodipodi:nodetypes="cccccczzccc"
               style="fill:#552200"
               inkscape:connector-curvature="0" />
            <path
               id="path4100"
               d="m 192.17,235.14 c -32.73,18.418 -70.508,26.701 -91.188,69.219 l 15.719,11.125 h 21.094 c 2.5891,-7.0222 5.9753,-13.459 13.875,-16.688 7.7978,-3.9789 12.19,-10.797 15.406,-18.594 3.8803,-9.9147 9.6855,-18.395 19.688,-23.719 6.6123,-6.8438 13.916,-4.3802 21.281,-1.4375 0,0 34.25,25.028 57.031,34.812 22.781,9.7843 57.512,-19.208 34.812,-33.094 -3.478,-2.1276 -7.7743,-4.3162 -12.594,-6.4688 -5.6613,6.1646 -8.8428,15.041 -25.062,9.6875 -25.049,1.9468 -46.968,-15.067 -70.062,-24.844 z"
               style="fill:url(#linearGradient5429)"
               inkscape:connector-curvature="0" />
            <path
               id="path4102"
               d="m 194.44,222.38 c -9.8376,0.16831 -19.051,2.8192 -28.062,6.125 -69.917,16.063 -96.308,52.669 -126.97,87.25 h 14.844 c 15.15,-19.556 31.488,-38.626 53.656,-55.375 18.808,-11.904 39.405,-20.804 61.469,-27.281 10.083,-6.2126 22.439,-6.7962 34.625,-7.75 22.371,4.8171 45.356,11.489 68.812,19.562 l -0.21875,-0.34375 c -25.025,-9.4298 -53.812,-17.219 -53.812,-17.219 -8.6684,-3.7334 -16.692,-5.0996 -24.344,-4.9688 z"
               style="fill:url(#linearGradient5431)"
               inkscape:connector-curvature="0" />
          </g>
          <path
             id="path4104"
             inkscape:connector-curvature="0"
             sodipodi:nodetypes="cscccccccccccccc"
             style="fill:#552200"
             d="m 39.088,314.12 c 139.89,-1.1756 279.95,-4.5918 416.76,33.242 1.1476,0.31736 2.2949,0.63762 3.4421,0.96081 14.771,21.649 39.708,12.8 60.261,17.101 l 0.81434,43.16 c -25.16,3.5389 -53.839,-4.6521 -63.519,50.489 l -1.931,3.029 c -9.5789,25.776 -24.757,43.712 -39.6,62.118 -15.015,15.845 -33.621,24.507 -52.932,31.759 -25.13,8.9519 -52.58,9.7825 -79.806,11.401 -27.394,-0.55403 -48.152,-4.4258 -69.219,-8.1434 -27.29,-4.77 -40.63,-11.87 -55.37,-18.73 -28.16,-10.89 -39.33,-32.69 -52.93,-52.93 -15.923,-37.37 -24.022,-60.2 -32.574,-83.88 -0.845,-18.71 -15.128,-27.82 -30.945,-35.83 z" />
          <path
             id="path4106"
             inkscape:connector-curvature="0"
             sodipodi:nodetypes="ccccccccccc"
             style="fill:#e6e6e6"
             d="m 436.49,390.67 c -13.073,-25.112 -43.421,-38.928 -84.692,-45.603 -70.099,-13.401 -134.69,-9.1802 -199.51,-5.7004 -22.504,8.9976 -55.495,2.2638 -49.675,53.747 0.063,23.452 0.61722,46.833 8.1434,69.219 9.1709,25.626 26.67,48.476 55.375,67.59 24.714,10.197 50.226,18.53 78.177,21.173 34.137,3.1257 66.298,2.3016 96.092,-3.2574 20.532,-9.0696 36.11,-6.1053 70.848,-49.675 11.475,-19.769 24.511,-38.563 27.688,-63.519 z" />
          <path
             id="path4108"
             style="fill:url(#linearGradient5488)"
             inkscape:connector-curvature="0"
             d="m 117.88,313.66 c -26.219,0.0913 -52.427,0.37333 -78.656,0.59375 l 0.53125,11.812 c 139.53,-3.8964 278.91,-3.8938 414.38,34.719 3.9428,13.701 16.214,19.048 30.938,21.969 l 34.938,0.5 -0.34375,-17.688 c -20.554,-4.3011 -45.479,4.5553 -60.25,-17.094 -1.1471,-0.32319 -2.2899,-0.65139 -3.4375,-0.96875 -111.16,-30.73 -224.49,-34.23 -338.1,-33.84 z" />
          <path
             id="path4110"
             d="m 436.49,390.67 c -13.073,-25.112 -43.421,-38.928 -84.692,-45.603 -70.099,-13.401 -134.69,-9.1802 -199.51,-5.7004 -22.504,8.9976 -55.495,2.2638 -49.675,53.747 0.063,23.452 0.61722,46.833 8.1434,69.219 9.1709,25.626 26.67,48.476 55.375,67.59 24.714,10.197 50.226,18.53 78.177,21.173 34.137,3.1257 66.298,2.3016 96.092,-3.2574 20.532,-9.0696 36.11,-6.1053 70.848,-49.675 11.475,-19.769 24.511,-38.563 27.688,-63.519 z"
             sodipodi:nodetypes="ccccccccccc"
             style="fill:url(#linearGradient3099)"
             inkscape:connector-curvature="0" />
          <path
             id="path4112"
             inkscape:connector-curvature="0"
             sodipodi:nodetypes="ccccccccccc"
             style="fill:url(#linearGradient3099)"
             d="m 436.49,390.67 c -13.073,-25.112 -43.421,-38.928 -84.692,-45.603 -70.099,-13.401 -134.69,-9.1802 -199.51,-5.7004 -22.504,8.9976 -55.495,2.2638 -49.675,53.747 0.063,23.452 0.61722,46.833 8.1434,69.219 9.1709,25.626 26.67,48.476 55.375,67.59 24.714,10.197 50.226,18.53 78.177,21.173 34.137,3.1257 66.298,2.3016 96.092,-3.2574 20.532,-9.0696 36.11,-6.1053 70.848,-49.675 11.475,-19.769 24.511,-38.563 27.688,-63.519 z" />
          <path
             id="path4114"
             d="m 436.49,390.67 c -13.073,-25.112 -43.421,-38.928 -84.692,-45.603 -70.099,-13.401 -134.69,-9.1802 -199.51,-5.7004 -22.504,8.9976 -55.495,2.2638 -49.675,53.747 0.063,23.452 0.61722,46.833 8.1434,69.219 9.1709,25.626 26.67,48.476 55.375,67.59 24.714,10.197 50.226,18.53 78.177,21.173 34.137,3.1257 66.298,2.3016 96.092,-3.2574 20.532,-9.0696 36.11,-6.1053 70.848,-49.675 11.475,-19.769 24.511,-38.563 27.688,-63.519 z"
             sodipodi:nodetypes="ccccccccccc"
             style="fill:url(#linearGradient3099)"
             inkscape:connector-curvature="0" />
          <path
             id="path4116"
             inkscape:connector-curvature="0"
             sodipodi:nodetypes="ccccccccccc"
             style="fill:url(#linearGradient3099)"
             d="m 436.49,390.67 c -13.073,-25.112 -43.421,-38.928 -84.692,-45.603 -70.099,-13.401 -134.69,-9.1802 -199.51,-5.7004 -22.504,8.9976 -55.495,2.2638 -49.675,53.747 0.063,23.452 0.61722,46.833 8.1434,69.219 9.1709,25.626 26.67,48.476 55.375,67.59 24.714,10.197 50.226,18.53 78.177,21.173 34.137,3.1257 66.298,2.3016 96.092,-3.2574 20.532,-9.0696 36.11,-6.1053 70.848,-49.675 11.475,-19.769 24.511,-38.563 27.688,-63.519 z" />
          <path
             id="path4118"
             style="fill:url(#linearGradient5473)"
             inkscape:connector-curvature="0"
             d="m 240.7,323.44 c -31.614,0.0697 -62.7,1.9837 -93.812,3.7188 -23.042,9.5705 -56.803,2.3952 -50.844,57.156 0.0645,24.945 0.6375,49.814 8.3438,73.625 9.3903,27.258 27.295,51.575 56.688,71.906 25.305,10.846 51.411,19.689 80.031,22.5 34.953,3.3248 67.899,2.4442 98.406,-3.4688 8.1084,-3.7207 15.453,-5.5446 23.469,-9.0312 -7.5778,3.1051 -14.55,4.8176 -22.25,8.2188 -29.794,5.559 -61.957,6.3757 -96.094,3.25 -27.951,-2.6424 -53.474,-10.96 -78.188,-21.156 -28.705,-19.114 -46.204,-41.968 -55.375,-67.594 -7.5262,-22.386 -8.0932,-45.767 -8.1562,-69.219 -5.8199,-51.483 27.184,-44.752 49.688,-53.75 64.823,-3.4798 129.4,-7.7138 199.5,5.6875 41.27,6.6749 71.614,20.513 84.688,45.625 l 2.4687,43.969 c -0.0992,0.77988 -0.2255,1.5444 -0.3437,2.3125 0.6033,-2.8264 1.1348,-5.7066 1.5,-8.6875 l -2.5312,-46.781 c -13.386,-26.711 -44.43,-41.4 -86.688,-48.5 -38.131,-7.5728 -74.671,-9.8602 -110.5,-9.7812 z m 198.16,114.09 c -4.8143,22.184 -16.435,39.959 -26.812,58.531 -21.565,28.098 -35.918,37.97 -48.562,43.562 12.507,-5.2098 26.664,-14.373 48.094,-41.25 11.062,-19.058 23.55,-37.204 27.281,-60.844 z" />
          <path
             id="path4120"
             inkscape:connector-curvature="0"
             sodipodi:nodetypes="cscccccccccccccc"
             style="fill:url(#linearGradient5460)"
             d="m 40.31,313.22 c 139.89,-1.1756 279.95,-4.5918 416.76,33.242 1.1476,0.31736 2.2949,0.63762 3.4421,0.96081 14.771,21.649 39.708,12.8 60.261,17.101 l 0.81434,43.16 c -25.16,3.5389 -53.839,-4.6521 -63.519,50.489 l -1.931,3.029 c -9.5789,25.776 -24.757,43.712 -39.6,62.118 -15.015,15.845 -33.621,24.507 -52.932,31.759 -25.13,8.9519 -52.58,9.7825 -79.806,11.401 -27.394,-0.55403 -48.152,-4.4258 -69.219,-8.1434 -27.301,-4.7694 -40.64,-11.866 -55.375,-18.73 -28.15,-10.89 -39.32,-32.69 -52.92,-52.94 -15.922,-37.36 -24.02,-60.2 -32.572,-83.87 -0.846,-18.71 -15.128,-27.82 -30.945,-35.83 z" />
          <g
             id="g4122"
             style="fill:url(#linearGradient5447)">
            <path
               id="path4124"
               inkscape:connector-curvature="0"
               sodipodi:nodetypes="cccccczzccc"
               style="fill:url(#linearGradient5447)"
               d="m 39.156,315.39 h 98.466 c 2.5891,-7.0222 5.961,-13.485 13.861,-16.714 7.7978,-3.9789 12.197,-10.79 15.413,-18.587 3.8803,-9.9147 9.6693,-18.398 19.671,-23.721 6.6123,-6.8438 13.94,-4.3823 21.306,-1.4396 0,0 34.226,25.053 57.007,34.838 22.781,9.7843 57.537,-19.224 34.838,-33.11 -22.699,-13.886 -81.192,-29.655 -81.192,-29.655 -19.813,-8.5336 -36.379,-4.7253 -52.4,1.1517 -69.917,16.063 -96.309,52.657 -126.97,87.238 z" />
            <path
               id="path4126"
               style="fill:url(#linearGradient5447)"
               inkscape:connector-curvature="0"
               d="m 192.17,235.14 c -32.73,18.418 -70.508,26.701 -91.188,69.219 l 15.719,11.125 h 21.094 c 2.5891,-7.0222 5.9753,-13.459 13.875,-16.688 7.7978,-3.9789 12.19,-10.797 15.406,-18.594 3.8803,-9.9147 9.6855,-18.395 19.688,-23.719 6.6123,-6.8438 13.916,-4.3802 21.281,-1.4375 0,0 34.25,25.028 57.031,34.812 22.781,9.7843 57.512,-19.208 34.812,-33.094 -3.478,-2.1276 -7.7743,-4.3162 -12.594,-6.4688 -5.6613,6.1646 -8.8428,15.041 -25.062,9.6875 -25.049,1.9468 -46.968,-15.067 -70.062,-24.844 z" />
            <path
               id="path4128"
               style="fill:url(#linearGradient5447)"
               inkscape:connector-curvature="0"
               d="m 194.44,222.38 c -9.8376,0.16831 -19.051,2.8192 -28.062,6.125 -69.917,16.063 -96.308,52.669 -126.97,87.25 h 14.844 c 15.15,-19.556 31.488,-38.626 53.656,-55.375 18.808,-11.904 39.405,-20.804 61.469,-27.281 10.083,-6.2126 22.439,-6.7962 34.625,-7.75 22.371,4.8171 45.356,11.489 68.812,19.562 l -0.21875,-0.34375 c -25.025,-9.4298 -53.812,-17.219 -53.812,-17.219 -8.6684,-3.7334 -16.692,-5.0996 -24.344,-4.9688 z" />
          </g>
          <path
             id="path4130"
             d="m 40.31,313.22 c 139.89,-1.1756 279.95,-4.5918 416.76,33.242 1.1476,0.31736 2.2949,0.63762 3.4421,0.96081 14.771,21.649 39.708,12.8 60.261,17.101 l 0.81434,43.16 c -25.16,3.5389 -53.839,-4.6521 -63.519,50.489 l -1.931,3.029 c -9.5789,25.776 -24.757,43.712 -39.6,62.118 -15.015,15.845 -33.621,24.507 -52.932,31.759 -25.13,8.9519 -52.58,9.7825 -79.806,11.401 -27.394,-0.55403 -48.152,-4.4258 -69.219,-8.1434 -27.301,-4.7694 -40.64,-11.866 -55.375,-18.73 -28.15,-10.89 -39.32,-32.69 -52.92,-52.94 -15.922,-37.36 -24.02,-60.2 -32.572,-83.87 -0.846,-18.71 -15.128,-27.82 -30.945,-35.83 z"
             sodipodi:nodetypes="cscccccccccccccc"
             style="fill:url(#linearGradient5460)"
             inkscape:connector-curvature="0" />
          <path
             id="path4132"
             inkscape:connector-curvature="0"
             sodipodi:nodetypes="cscccccccccccccc"
             style="fill:url(#linearGradient5460)"
             d="m 40.31,313.22 c 139.89,-1.1756 279.95,-4.5918 416.76,33.242 1.1476,0.31736 2.2949,0.63762 3.4421,0.96081 14.771,21.649 39.708,12.8 60.261,17.101 l 0.81434,43.16 c -25.16,3.5389 -53.839,-4.6521 -63.519,50.489 l -1.931,3.029 c -9.5789,25.776 -24.757,43.712 -39.6,62.118 -15.015,15.845 -33.621,24.507 -52.932,31.759 -25.13,8.9519 -52.58,9.7825 -79.806,11.401 -27.394,-0.55403 -48.152,-4.4258 -69.219,-8.1434 -27.301,-4.7694 -40.64,-11.866 -55.375,-18.73 -28.15,-10.89 -39.32,-32.69 -52.92,-52.94 -15.922,-37.36 -24.02,-60.2 -32.572,-83.87 -0.846,-18.71 -15.128,-27.82 -30.945,-35.83 z" />
          <path
             id="path3801"
             sodipodi:rx="17.41876"
             sodipodi:ry="10.508839"
             style="fill:#000000"
             sodipodi:type="arc"
             d="M 89.541059,354.11581 A 17.41876,10.508839 0 0 1 72.151203,364.62464 17.41876,10.508839 0 0 1 54.703635,354.15069 17.41876,10.508839 0 0 1 72.035587,343.60711 17.41876,10.508839 0 0 1 89.540676,354.04606"
             sodipodi:open="true"
             transform="matrix(0.83471,0,0,0.89041,3.2836,26.139)"
             sodipodi:cy="354.11581"
             sodipodi:cx="72.122299"
             sodipodi:end="6.2765478"
             sodipodi:start="0"
             sodipodi:arc-type="arc" />
          <path
             id="path4164"
             sodipodi:rx="17.41876"
             sodipodi:ry="10.508839"
             style="fill:url(#linearGradient5316)"
             sodipodi:type="arc"
             d="M 89.541059,354.11581 A 17.41876,10.508839 0 0 1 72.151203,364.62464 17.41876,10.508839 0 0 1 54.703635,354.15069 17.41876,10.508839 0 0 1 72.035587,343.60711 17.41876,10.508839 0 0 1 89.540676,354.04606"
             sodipodi:open="true"
             transform="matrix(0.83471,0,0,0.89041,3.2836,26.139)"
             sodipodi:cy="354.11581"
             sodipodi:cx="72.122299"
             sodipodi:end="6.2765478"
             sodipodi:start="0"
             sodipodi:arc-type="arc" />
          <path
             id="path4540"
             inkscape:connector-curvature="0"
             sodipodi:nodetypes="ccccccccccc"
             style="fill:#ffffff"
             d="m 436.49,390.67 c -13.073,-25.112 -43.421,-38.928 -84.692,-45.603 -70.099,-13.401 -134.69,-9.1802 -199.51,-5.7004 -22.504,8.9976 -55.495,2.2638 -49.675,53.747 0.063,23.452 0.61722,46.833 8.1434,69.219 9.1709,25.626 26.67,48.476 55.375,67.59 24.714,10.197 50.226,18.53 78.177,21.173 34.137,3.1257 66.298,2.3016 96.092,-3.2574 20.532,-9.0696 36.11,-6.1053 70.848,-49.675 11.475,-19.769 24.511,-38.563 27.688,-63.519 z" />
          <path
             id="path4600"
             sodipodi:rx="17.41876"
             sodipodi:ry="10.508839"
             style="fill:#000000"
             sodipodi:type="arc"
             d="M 89.541059,354.11581 A 17.41876,10.508839 0 0 1 72.151203,364.62464 17.41876,10.508839 0 0 1 54.703635,354.15069 17.41876,10.508839 0 0 1 72.035587,343.60711 17.41876,10.508839 0 0 1 89.540676,354.04606"
             sodipodi:open="true"
             transform="matrix(0.83471,0,0,0.89041,3.2836,26.139)"
             sodipodi:cy="354.11581"
             sodipodi:cx="72.122299"
             sodipodi:end="6.2765478"
             sodipodi:start="0"
             sodipodi:arc-type="arc" />
          <path
             id="path4602"
             sodipodi:rx="17.41876"
             sodipodi:ry="10.508839"
             style="fill:url(#linearGradient5316)"
             sodipodi:type="arc"
             d="M 89.541059,354.11581 A 17.41876,10.508839 0 0 1 72.151203,364.62464 17.41876,10.508839 0 0 1 54.703635,354.15069 17.41876,10.508839 0 0 1 72.035587,343.60711 17.41876,10.508839 0 0 1 89.540676,354.04606"
             sodipodi:open="true"
             transform="matrix(0.83471,0,0,0.89041,3.2836,26.139)"
             sodipodi:cy="354.11581"
             sodipodi:cx="72.122299"
             sodipodi:end="6.2765478"
             sodipodi:start="0"
             sodipodi:arc-type="arc" />
        </g>
        <path
           id="path5914"
           sodipodi:rx="167.56558"
           sodipodi:ry="25.336378"
           style="fill:url(#radialGradient5922)"
           sodipodi:type="arc"
           d="M 407.68533,593.22784 A 167.56558,25.336378 0 0 1 240.39781,618.56419 167.56558,25.336378 0 0 1 72.555091,593.31193 167.56558,25.336378 0 0 1 239.28559,567.89178 a 167.56558,25.336378 0 0 1 168.39605,25.1679"
           sodipodi:open="true"
           transform="matrix(1.0103,0,0,0.59091,39.56,231.17)"
           sodipodi:cy="593.22784"
           sodipodi:cx="240.11975"
           sodipodi:end="6.2765478"
           sodipodi:start="0"
           sodipodi:arc-type="arc" />
      </g>
      <g
         id="g5971"
         transform="matrix(-1,0,0,1,994.85,0)">
        <g
           id="g5973">
          <g
             id="g5975">
            <path
               id="path5977"
               d="m 39.156,315.39 h 98.466 c 2.5891,-7.0222 5.961,-13.485 13.861,-16.714 7.7978,-3.9789 12.197,-10.79 15.413,-18.587 3.8803,-9.9147 9.6693,-18.398 19.671,-23.721 6.6123,-6.8438 13.94,-4.3823 21.306,-1.4396 0,0 34.226,25.053 57.007,34.838 22.781,9.7843 57.537,-19.224 34.838,-33.11 -22.699,-13.886 -81.192,-29.655 -81.192,-29.655 -19.813,-8.5336 -36.379,-4.7253 -52.4,1.1517 -69.917,16.063 -96.309,52.657 -126.97,87.238 z"
               sodipodi:nodetypes="cccccczzccc"
               style="fill:#552200"
               inkscape:connector-curvature="0" />
            <path
               id="path5979"
               d="m 192.17,235.14 c -32.73,18.418 -70.508,26.701 -91.188,69.219 l 15.719,11.125 h 21.094 c 2.5891,-7.0222 5.9753,-13.459 13.875,-16.688 7.7978,-3.9789 12.19,-10.797 15.406,-18.594 3.8803,-9.9147 9.6855,-18.395 19.688,-23.719 6.6123,-6.8438 13.916,-4.3802 21.281,-1.4375 0,0 34.25,25.028 57.031,34.812 22.781,9.7843 57.512,-19.208 34.812,-33.094 -3.478,-2.1276 -7.7743,-4.3162 -12.594,-6.4688 -5.6613,6.1646 -8.8428,15.041 -25.062,9.6875 -25.049,1.9468 -46.968,-15.067 -70.062,-24.844 z"
               style="fill:url(#linearGradient5429)"
               inkscape:connector-curvature="0" />
            <path
               id="path5981"
               d="m 194.44,222.38 c -9.8376,0.16831 -19.051,2.8192 -28.062,6.125 -69.917,16.063 -96.308,52.669 -126.97,87.25 h 14.844 c 15.15,-19.556 31.488,-38.626 53.656,-55.375 18.808,-11.904 39.405,-20.804 61.469,-27.281 10.083,-6.2126 22.439,-6.7962 34.625,-7.75 22.371,4.8171 45.356,11.489 68.812,19.562 l -0.21875,-0.34375 c -25.025,-9.4298 -53.812,-17.219 -53.812,-17.219 -8.6684,-3.7334 -16.692,-5.0996 -24.344,-4.9688 z"
               style="fill:url(#linearGradient5431)"
               inkscape:connector-curvature="0" />
          </g>
          <path
             id="path5983"
             inkscape:connector-curvature="0"
             sodipodi:nodetypes="cscccccccccccccc"
             style="fill:#552200"
             d="m 39.088,314.12 c 139.89,-1.1756 279.95,-4.5918 416.76,33.242 1.1476,0.31736 2.2949,0.63762 3.4421,0.96081 14.771,21.649 39.708,12.8 60.261,17.101 l 0.81434,43.16 c -25.16,3.5389 -53.839,-4.6521 -63.519,50.489 l -1.931,3.029 c -9.5789,25.776 -24.757,43.712 -39.6,62.118 -15.015,15.845 -33.621,24.507 -52.932,31.759 -25.13,8.9519 -52.58,9.7825 -79.806,11.401 -27.394,-0.55403 -48.152,-4.4258 -69.219,-8.1434 -27.29,-4.77 -40.63,-11.87 -55.37,-18.73 -28.16,-10.89 -39.33,-32.69 -52.93,-52.93 -15.923,-37.37 -24.022,-60.2 -32.574,-83.88 -0.845,-18.71 -15.128,-27.82 -30.945,-35.83 z" />
          <path
             id="path5985"
             inkscape:connector-curvature="0"
             sodipodi:nodetypes="ccccccccccc"
             style="fill:#e6e6e6"
             d="m 436.49,390.67 c -13.073,-25.112 -43.421,-38.928 -84.692,-45.603 -70.099,-13.401 -134.69,-9.1802 -199.51,-5.7004 -22.504,8.9976 -55.495,2.2638 -49.675,53.747 0.063,23.452 0.61722,46.833 8.1434,69.219 9.1709,25.626 26.67,48.476 55.375,67.59 24.714,10.197 50.226,18.53 78.177,21.173 34.137,3.1257 66.298,2.3016 96.092,-3.2574 20.532,-9.0696 36.11,-6.1053 70.848,-49.675 11.475,-19.769 24.511,-38.563 27.688,-63.519 z" />
          <path
             id="path5987"
             style="fill:url(#linearGradient5488)"
             inkscape:connector-curvature="0"
             d="m 117.88,313.66 c -26.219,0.0913 -52.427,0.37333 -78.656,0.59375 l 0.53125,11.812 c 139.53,-3.8964 278.91,-3.8938 414.38,34.719 3.9428,13.701 16.214,19.048 30.938,21.969 l 34.938,0.5 -0.34375,-17.688 c -20.554,-4.3011 -45.479,4.5553 -60.25,-17.094 -1.1471,-0.32319 -2.2899,-0.65139 -3.4375,-0.96875 -111.16,-30.73 -224.49,-34.23 -338.1,-33.84 z" />
          <path
             id="path5989"
             d="m 436.49,390.67 c -13.073,-25.112 -43.421,-38.928 -84.692,-45.603 -70.099,-13.401 -134.69,-9.1802 -199.51,-5.7004 -22.504,8.9976 -55.495,2.2638 -49.675,53.747 0.063,23.452 0.61722,46.833 8.1434,69.219 9.1709,25.626 26.67,48.476 55.375,67.59 24.714,10.197 50.226,18.53 78.177,21.173 34.137,3.1257 66.298,2.3016 96.092,-3.2574 20.532,-9.0696 36.11,-6.1053 70.848,-49.675 11.475,-19.769 24.511,-38.563 27.688,-63.519 z"
             sodipodi:nodetypes="ccccccccccc"
             style="fill:url(#linearGradient3099)"
             inkscape:connector-curvature="0" />
          <path
             id="path5991"
             inkscape:connector-curvature="0"
             sodipodi:nodetypes="ccccccccccc"
             style="fill:url(#linearGradient3099)"
             d="m 436.49,390.67 c -13.073,-25.112 -43.421,-38.928 -84.692,-45.603 -70.099,-13.401 -134.69,-9.1802 -199.51,-5.7004 -22.504,8.9976 -55.495,2.2638 -49.675,53.747 0.063,23.452 0.61722,46.833 8.1434,69.219 9.1709,25.626 26.67,48.476 55.375,67.59 24.714,10.197 50.226,18.53 78.177,21.173 34.137,3.1257 66.298,2.3016 96.092,-3.2574 20.532,-9.0696 36.11,-6.1053 70.848,-49.675 11.475,-19.769 24.511,-38.563 27.688,-63.519 z" />
          <path
             id="path5993"
             d="m 436.49,390.67 c -13.073,-25.112 -43.421,-38.928 -84.692,-45.603 -70.099,-13.401 -134.69,-9.1802 -199.51,-5.7004 -22.504,8.9976 -55.495,2.2638 -49.675,53.747 0.063,23.452 0.61722,46.833 8.1434,69.219 9.1709,25.626 26.67,48.476 55.375,67.59 24.714,10.197 50.226,18.53 78.177,21.173 34.137,3.1257 66.298,2.3016 96.092,-3.2574 20.532,-9.0696 36.11,-6.1053 70.848,-49.675 11.475,-19.769 24.511,-38.563 27.688,-63.519 z"
             sodipodi:nodetypes="ccccccccccc"
             style="fill:url(#linearGradient3099)"
             inkscape:connector-curvature="0" />
          <path
             id="path5995"
             inkscape:connector-curvature="0"
             sodipodi:nodetypes="ccccccccccc"
             style="fill:url(#linearGradient3099)"
             d="m 436.49,390.67 c -13.073,-25.112 -43.421,-38.928 -84.692,-45.603 -70.099,-13.401 -134.69,-9.1802 -199.51,-5.7004 -22.504,8.9976 -55.495,2.2638 -49.675,53.747 0.063,23.452 0.61722,46.833 8.1434,69.219 9.1709,25.626 26.67,48.476 55.375,67.59 24.714,10.197 50.226,18.53 78.177,21.173 34.137,3.1257 66.298,2.3016 96.092,-3.2574 20.532,-9.0696 36.11,-6.1053 70.848,-49.675 11.475,-19.769 24.511,-38.563 27.688,-63.519 z" />
          <path
             id="path5997"
             style="fill:url(#linearGradient5473)"
             inkscape:connector-curvature="0"
             d="m 240.7,323.44 c -31.614,0.0697 -62.7,1.9837 -93.812,3.7188 -23.042,9.5705 -56.803,2.3952 -50.844,57.156 0.0645,24.945 0.6375,49.814 8.3438,73.625 9.3903,27.258 27.295,51.575 56.688,71.906 25.305,10.846 51.411,19.689 80.031,22.5 34.953,3.3248 67.899,2.4442 98.406,-3.4688 8.1084,-3.7207 15.453,-5.5446 23.469,-9.0312 -7.5778,3.1051 -14.55,4.8176 -22.25,8.2188 -29.794,5.559 -61.957,6.3757 -96.094,3.25 -27.951,-2.6424 -53.474,-10.96 -78.188,-21.156 -28.705,-19.114 -46.204,-41.968 -55.375,-67.594 -7.5262,-22.386 -8.0932,-45.767 -8.1562,-69.219 -5.8199,-51.483 27.184,-44.752 49.688,-53.75 64.823,-3.4798 129.4,-7.7138 199.5,5.6875 41.27,6.6749 71.614,20.513 84.688,45.625 l 2.4687,43.969 c -0.0992,0.77988 -0.2255,1.5444 -0.3437,2.3125 0.6033,-2.8264 1.1348,-5.7066 1.5,-8.6875 l -2.5312,-46.781 c -13.386,-26.711 -44.43,-41.4 -86.688,-48.5 -38.131,-7.5728 -74.671,-9.8602 -110.5,-9.7812 z m 198.16,114.09 c -4.8143,22.184 -16.435,39.959 -26.812,58.531 -21.565,28.098 -35.918,37.97 -48.562,43.562 12.507,-5.2098 26.664,-14.373 48.094,-41.25 11.062,-19.058 23.55,-37.204 27.281,-60.844 z" />
          <path
             id="path5999"
             inkscape:connector-curvature="0"
             sodipodi:nodetypes="cscccccccccccccc"
             style="fill:url(#linearGradient5460)"
             d="m 40.31,313.22 c 139.89,-1.1756 279.95,-4.5918 416.76,33.242 1.1476,0.31736 2.2949,0.63762 3.4421,0.96081 14.771,21.649 39.708,12.8 60.261,17.101 l 0.81434,43.16 c -25.16,3.5389 -53.839,-4.6521 -63.519,50.489 l -1.931,3.029 c -9.5789,25.776 -24.757,43.712 -39.6,62.118 -15.015,15.845 -33.621,24.507 -52.932,31.759 -25.13,8.9519 -52.58,9.7825 -79.806,11.401 -27.394,-0.55403 -48.152,-4.4258 -69.219,-8.1434 -27.301,-4.7694 -40.64,-11.866 -55.375,-18.73 -28.15,-10.89 -39.32,-32.69 -52.92,-52.94 -15.922,-37.36 -24.02,-60.2 -32.572,-83.87 -0.846,-18.71 -15.128,-27.82 -30.945,-35.83 z" />
          <g
             id="g6001"
             style="fill:url(#linearGradient5447)">
            <path
               id="path6003"
               inkscape:connector-curvature="0"
               sodipodi:nodetypes="cccccczzccc"
               style="fill:url(#linearGradient5447)"
               d="m 39.156,315.39 h 98.466 c 2.5891,-7.0222 5.961,-13.485 13.861,-16.714 7.7978,-3.9789 12.197,-10.79 15.413,-18.587 3.8803,-9.9147 9.6693,-18.398 19.671,-23.721 6.6123,-6.8438 13.94,-4.3823 21.306,-1.4396 0,0 34.226,25.053 57.007,34.838 22.781,9.7843 57.537,-19.224 34.838,-33.11 -22.699,-13.886 -81.192,-29.655 -81.192,-29.655 -19.813,-8.5336 -36.379,-4.7253 -52.4,1.1517 -69.917,16.063 -96.309,52.657 -126.97,87.238 z" />
            <path
               id="path6005"
               style="fill:url(#linearGradient5447)"
               inkscape:connector-curvature="0"
               d="m 192.17,235.14 c -32.73,18.418 -70.508,26.701 -91.188,69.219 l 15.719,11.125 h 21.094 c 2.5891,-7.0222 5.9753,-13.459 13.875,-16.688 7.7978,-3.9789 12.19,-10.797 15.406,-18.594 3.8803,-9.9147 9.6855,-18.395 19.688,-23.719 6.6123,-6.8438 13.916,-4.3802 21.281,-1.4375 0,0 34.25,25.028 57.031,34.812 22.781,9.7843 57.512,-19.208 34.812,-33.094 -3.478,-2.1276 -7.7743,-4.3162 -12.594,-6.4688 -5.6613,6.1646 -8.8428,15.041 -25.062,9.6875 -25.049,1.9468 -46.968,-15.067 -70.062,-24.844 z" />
            <path
               id="path6007"
               style="fill:url(#linearGradient5447)"
               inkscape:connector-curvature="0"
               d="m 194.44,222.38 c -9.8376,0.16831 -19.051,2.8192 -28.062,6.125 -69.917,16.063 -96.308,52.669 -126.97,87.25 h 14.844 c 15.15,-19.556 31.488,-38.626 53.656,-55.375 18.808,-11.904 39.405,-20.804 61.469,-27.281 10.083,-6.2126 22.439,-6.7962 34.625,-7.75 22.371,4.8171 45.356,11.489 68.812,19.562 l -0.21875,-0.34375 c -25.025,-9.4298 -53.812,-17.219 -53.812,-17.219 -8.6684,-3.7334 -16.692,-5.0996 -24.344,-4.9688 z" />
          </g>
          <path
             id="path6009"
             d="m 40.31,313.22 c 139.89,-1.1756 279.95,-4.5918 416.76,33.242 1.1476,0.31736 2.2949,0.63762 3.4421,0.96081 14.771,21.649 39.708,12.8 60.261,17.101 l 0.81434,43.16 c -25.16,3.5389 -53.839,-4.6521 -63.519,50.489 l -1.931,3.029 c -9.5789,25.776 -24.757,43.712 -39.6,62.118 -15.015,15.845 -33.621,24.507 -52.932,31.759 -25.13,8.9519 -52.58,9.7825 -79.806,11.401 -27.394,-0.55403 -48.152,-4.4258 -69.219,-8.1434 -27.301,-4.7694 -40.64,-11.866 -55.375,-18.73 -28.15,-10.89 -39.32,-32.69 -52.92,-52.94 -15.922,-37.36 -24.02,-60.2 -32.572,-83.87 -0.846,-18.71 -15.128,-27.82 -30.945,-35.83 z"
             sodipodi:nodetypes="cscccccccccccccc"
             style="fill:url(#linearGradient5460)"
             inkscape:connector-curvature="0" />
          <path
             id="path6011"
             inkscape:connector-curvature="0"
             sodipodi:nodetypes="cscccccccccccccc"
             style="fill:url(#linearGradient5460)"
             d="m 40.31,313.22 c 139.89,-1.1756 279.95,-4.5918 416.76,33.242 1.1476,0.31736 2.2949,0.63762 3.4421,0.96081 14.771,21.649 39.708,12.8 60.261,17.101 l 0.81434,43.16 c -25.16,3.5389 -53.839,-4.6521 -63.519,50.489 l -1.931,3.029 c -9.5789,25.776 -24.757,43.712 -39.6,62.118 -15.015,15.845 -33.621,24.507 -52.932,31.759 -25.13,8.9519 -52.58,9.7825 -79.806,11.401 -27.394,-0.55403 -48.152,-4.4258 -69.219,-8.1434 -27.301,-4.7694 -40.64,-11.866 -55.375,-18.73 -28.15,-10.89 -39.32,-32.69 -52.92,-52.94 -15.922,-37.36 -24.02,-60.2 -32.572,-83.87 -0.846,-18.71 -15.128,-27.82 -30.945,-35.83 z" />
          <g
             id="g6013">
            <path
               id="path6015"
               inkscape:connector-curvature="0"
               sodipodi:nodetypes="cccccczzccc"
               style="fill:#552200"
               d="m 39.156,315.39 h 98.466 c 2.5891,-7.0222 5.961,-13.485 13.861,-16.714 7.7978,-3.9789 12.197,-10.79 15.413,-18.587 3.8803,-9.9147 9.6693,-18.398 19.671,-23.721 6.6123,-6.8438 13.94,-4.3823 21.306,-1.4396 0,0 34.226,25.053 57.007,34.838 22.781,9.7843 57.537,-19.224 34.838,-33.11 -22.699,-13.886 -81.192,-29.655 -81.192,-29.655 -19.813,-8.5336 -36.379,-4.7253 -52.4,1.1517 -69.917,16.063 -96.309,52.657 -126.97,87.238 z" />
            <path
               id="path6017"
               style="fill:url(#linearGradient5429)"
               inkscape:connector-curvature="0"
               d="m 192.17,235.14 c -32.73,18.418 -70.508,26.701 -91.188,69.219 l 15.719,11.125 h 21.094 c 2.5891,-7.0222 5.9753,-13.459 13.875,-16.688 7.7978,-3.9789 12.19,-10.797 15.406,-18.594 3.8803,-9.9147 9.6855,-18.395 19.688,-23.719 6.6123,-6.8438 13.916,-4.3802 21.281,-1.4375 0,0 34.25,25.028 57.031,34.812 22.781,9.7843 57.512,-19.208 34.812,-33.094 -3.478,-2.1276 -7.7743,-4.3162 -12.594,-6.4688 -5.6613,6.1646 -8.8428,15.041 -25.062,9.6875 -25.049,1.9468 -46.968,-15.067 -70.062,-24.844 z" />
            <path
               id="path6019"
               style="fill:url(#linearGradient5431)"
               inkscape:connector-curvature="0"
               d="m 194.44,222.38 c -9.8376,0.16831 -19.051,2.8192 -28.062,6.125 -69.917,16.063 -96.308,52.669 -126.97,87.25 h 14.844 c 15.15,-19.556 31.488,-38.626 53.656,-55.375 18.808,-11.904 39.405,-20.804 61.469,-27.281 10.083,-6.2126 22.439,-6.7962 34.625,-7.75 22.371,4.8171 45.356,11.489 68.812,19.562 l -0.21875,-0.34375 c -25.025,-9.4298 -53.812,-17.219 -53.812,-17.219 -8.6684,-3.7334 -16.692,-5.0996 -24.344,-4.9688 z" />
          </g>
          <path
             id="path6021"
             d="m 39.088,314.12 c 139.89,-1.1756 279.95,-4.5918 416.76,33.242 1.1476,0.31736 2.2949,0.63762 3.4421,0.96081 14.771,21.649 39.708,12.8 60.261,17.101 l 0.81434,43.16 c -25.16,3.5389 -53.839,-4.6521 -63.519,50.489 l -1.931,3.029 c -9.5789,25.776 -24.757,43.712 -39.6,62.118 -15.015,15.845 -33.621,24.507 -52.932,31.759 -25.13,8.9519 -52.58,9.7825 -79.806,11.401 -27.394,-0.55403 -48.152,-4.4258 -69.219,-8.1434 -27.29,-4.77 -40.63,-11.87 -55.37,-18.73 -28.16,-10.89 -39.33,-32.69 -52.93,-52.93 -15.923,-37.37 -24.022,-60.2 -32.574,-83.88 -0.845,-18.71 -15.128,-27.82 -30.945,-35.83 z"
             sodipodi:nodetypes="cscccccccccccccc"
             style="fill:#552200"
             inkscape:connector-curvature="0" />
          <path
             id="path6023"
             d="m 436.49,390.67 c -13.073,-25.112 -43.421,-38.928 -84.692,-45.603 -70.099,-13.401 -134.69,-9.1802 -199.51,-5.7004 -22.504,8.9976 -55.495,2.2638 -49.675,53.747 0.063,23.452 0.61722,46.833 8.1434,69.219 9.1709,25.626 26.67,48.476 55.375,67.59 24.714,10.197 50.226,18.53 78.177,21.173 34.137,3.1257 66.298,2.3016 96.092,-3.2574 20.532,-9.0696 36.11,-6.1053 70.848,-49.675 11.475,-19.769 24.511,-38.563 27.688,-63.519 z"
             sodipodi:nodetypes="ccccccccccc"
             style="fill:#e6e6e6"
             inkscape:connector-curvature="0" />
          <path
             id="path6025"
             d="m 117.88,313.66 c -26.219,0.0913 -52.427,0.37333 -78.656,0.59375 l 0.53125,11.812 c 139.53,-3.8964 278.91,-3.8938 414.38,34.719 3.9428,13.701 16.214,19.048 30.938,21.969 l 34.938,0.5 -0.34375,-17.688 c -20.554,-4.3011 -45.479,4.5553 -60.25,-17.094 -1.1471,-0.32319 -2.2899,-0.65139 -3.4375,-0.96875 -111.16,-30.73 -224.49,-34.23 -338.1,-33.84 z"
             style="fill:url(#linearGradient5488)"
             inkscape:connector-curvature="0" />
          <path
             id="path6027"
             inkscape:connector-curvature="0"
             sodipodi:nodetypes="ccccccccccc"
             style="fill:url(#linearGradient3099)"
             d="m 436.49,390.67 c -13.073,-25.112 -43.421,-38.928 -84.692,-45.603 -70.099,-13.401 -134.69,-9.1802 -199.51,-5.7004 -22.504,8.9976 -55.495,2.2638 -49.675,53.747 0.063,23.452 0.61722,46.833 8.1434,69.219 9.1709,25.626 26.67,48.476 55.375,67.59 24.714,10.197 50.226,18.53 78.177,21.173 34.137,3.1257 66.298,2.3016 96.092,-3.2574 20.532,-9.0696 36.11,-6.1053 70.848,-49.675 11.475,-19.769 24.511,-38.563 27.688,-63.519 z" />
          <path
             id="path6029"
             d="m 436.49,390.67 c -13.073,-25.112 -43.421,-38.928 -84.692,-45.603 -70.099,-13.401 -134.69,-9.1802 -199.51,-5.7004 -22.504,8.9976 -55.495,2.2638 -49.675,53.747 0.063,23.452 0.61722,46.833 8.1434,69.219 9.1709,25.626 26.67,48.476 55.375,67.59 24.714,10.197 50.226,18.53 78.177,21.173 34.137,3.1257 66.298,2.3016 96.092,-3.2574 20.532,-9.0696 36.11,-6.1053 70.848,-49.675 11.475,-19.769 24.511,-38.563 27.688,-63.519 z"
             sodipodi:nodetypes="ccccccccccc"
             style="fill:url(#linearGradient3099)"
             inkscape:connector-curvature="0" />
          <path
             id="path6031"
             inkscape:connector-curvature="0"
             sodipodi:nodetypes="ccccccccccc"
             style="fill:url(#linearGradient3099)"
             d="m 436.49,390.67 c -13.073,-25.112 -43.421,-38.928 -84.692,-45.603 -70.099,-13.401 -134.69,-9.1802 -199.51,-5.7004 -22.504,8.9976 -55.495,2.2638 -49.675,53.747 0.063,23.452 0.61722,46.833 8.1434,69.219 9.1709,25.626 26.67,48.476 55.375,67.59 24.714,10.197 50.226,18.53 78.177,21.173 34.137,3.1257 66.298,2.3016 96.092,-3.2574 20.532,-9.0696 36.11,-6.1053 70.848,-49.675 11.475,-19.769 24.511,-38.563 27.688,-63.519 z" />
          <path
             id="path6033"
             d="m 436.49,390.67 c -13.073,-25.112 -43.421,-38.928 -84.692,-45.603 -70.099,-13.401 -134.69,-9.1802 -199.51,-5.7004 -22.504,8.9976 -55.495,2.2638 -49.675,53.747 0.063,23.452 0.61722,46.833 8.1434,69.219 9.1709,25.626 26.67,48.476 55.375,67.59 24.714,10.197 50.226,18.53 78.177,21.173 34.137,3.1257 66.298,2.3016 96.092,-3.2574 20.532,-9.0696 36.11,-6.1053 70.848,-49.675 11.475,-19.769 24.511,-38.563 27.688,-63.519 z"
             sodipodi:nodetypes="ccccccccccc"
             style="fill:url(#linearGradient3099)"
             inkscape:connector-curvature="0" />
          <path
             id="path6035"
             d="m 240.7,323.44 c -31.614,0.0697 -62.7,1.9837 -93.812,3.7188 -23.042,9.5705 -56.803,2.3952 -50.844,57.156 0.0645,24.945 0.6375,49.814 8.3438,73.625 9.3903,27.258 27.295,51.575 56.688,71.906 25.305,10.846 51.411,19.689 80.031,22.5 34.953,3.3248 67.899,2.4442 98.406,-3.4688 8.1084,-3.7207 15.453,-5.5446 23.469,-9.0312 -7.5778,3.1051 -14.55,4.8176 -22.25,8.2188 -29.794,5.559 -61.957,6.3757 -96.094,3.25 -27.951,-2.6424 -53.474,-10.96 -78.188,-21.156 -28.705,-19.114 -46.204,-41.968 -55.375,-67.594 -7.5262,-22.386 -8.0932,-45.767 -8.1562,-69.219 -5.8199,-51.483 27.184,-44.752 49.688,-53.75 64.823,-3.4798 129.4,-7.7138 199.5,5.6875 41.27,6.6749 71.614,20.513 84.688,45.625 l 2.4687,43.969 c -0.0992,0.77988 -0.2255,1.5444 -0.3437,2.3125 0.6033,-2.8264 1.1348,-5.7066 1.5,-8.6875 l -2.5312,-46.781 c -13.386,-26.711 -44.43,-41.4 -86.688,-48.5 -38.131,-7.5728 -74.671,-9.8602 -110.5,-9.7812 z m 198.16,114.09 c -4.8143,22.184 -16.435,39.959 -26.812,58.531 -21.565,28.098 -35.918,37.97 -48.562,43.562 12.507,-5.2098 26.664,-14.373 48.094,-41.25 11.062,-19.058 23.55,-37.204 27.281,-60.844 z"
             style="fill:url(#linearGradient5473)"
             inkscape:connector-curvature="0" />
          <path
             id="path6037"
             d="m 40.31,313.22 c 139.89,-1.1756 279.95,-4.5918 416.76,33.242 1.1476,0.31736 2.2949,0.63762 3.4421,0.96081 14.771,21.649 39.708,12.8 60.261,17.101 l 0.81434,43.16 c -25.16,3.5389 -53.839,-4.6521 -63.519,50.489 l -1.931,3.029 c -9.5789,25.776 -24.757,43.712 -39.6,62.118 -15.015,15.845 -33.621,24.507 -52.932,31.759 -25.13,8.9519 -52.58,9.7825 -79.806,11.401 -27.394,-0.55403 -48.152,-4.4258 -69.219,-8.1434 -27.301,-4.7694 -40.64,-11.866 -55.375,-18.73 -28.15,-10.89 -39.32,-32.69 -52.92,-52.94 -15.922,-37.36 -24.02,-60.2 -32.572,-83.87 -0.846,-18.71 -15.128,-27.82 -30.945,-35.83 z"
             sodipodi:nodetypes="cscccccccccccccc"
             style="fill:url(#linearGradient5460)"
             inkscape:connector-curvature="0" />
          <g
             id="g6039"
             style="fill:url(#linearGradient5447)">
            <path
               id="path6041"
               d="m 39.156,315.39 h 98.466 c 2.5891,-7.0222 5.961,-13.485 13.861,-16.714 7.7978,-3.9789 12.197,-10.79 15.413,-18.587 3.8803,-9.9147 9.6693,-18.398 19.671,-23.721 6.6123,-6.8438 13.94,-4.3823 21.306,-1.4396 0,0 34.226,25.053 57.007,34.838 22.781,9.7843 57.537,-19.224 34.838,-33.11 -22.699,-13.886 -81.192,-29.655 -81.192,-29.655 -19.813,-8.5336 -36.379,-4.7253 -52.4,1.1517 -69.917,16.063 -96.309,52.657 -126.97,87.238 z"
               sodipodi:nodetypes="cccccczzccc"
               style="fill:url(#linearGradient5447)"
               inkscape:connector-curvature="0" />
            <path
               id="path6043"
               d="m 192.17,235.14 c -32.73,18.418 -70.508,26.701 -91.188,69.219 l 15.719,11.125 h 21.094 c 2.5891,-7.0222 5.9753,-13.459 13.875,-16.688 7.7978,-3.9789 12.19,-10.797 15.406,-18.594 3.8803,-9.9147 9.6855,-18.395 19.688,-23.719 6.6123,-6.8438 13.916,-4.3802 21.281,-1.4375 0,0 34.25,25.028 57.031,34.812 22.781,9.7843 57.512,-19.208 34.812,-33.094 -3.478,-2.1276 -7.7743,-4.3162 -12.594,-6.4688 -5.6613,6.1646 -8.8428,15.041 -25.062,9.6875 -25.049,1.9468 -46.968,-15.067 -70.062,-24.844 z"
               style="fill:url(#linearGradient5447)"
               inkscape:connector-curvature="0" />
            <path
               id="path6045"
               d="m 194.44,222.38 c -9.8376,0.16831 -19.051,2.8192 -28.062,6.125 -69.917,16.063 -96.308,52.669 -126.97,87.25 h 14.844 c 15.15,-19.556 31.488,-38.626 53.656,-55.375 18.808,-11.904 39.405,-20.804 61.469,-27.281 10.083,-6.2126 22.439,-6.7962 34.625,-7.75 22.371,4.8171 45.356,11.489 68.812,19.562 l -0.21875,-0.34375 c -25.025,-9.4298 -53.812,-17.219 -53.812,-17.219 -8.6684,-3.7334 -16.692,-5.0996 -24.344,-4.9688 z"
               style="fill:url(#linearGradient5447)"
               inkscape:connector-curvature="0" />
          </g>
          <path
             id="path6047"
             inkscape:connector-curvature="0"
             sodipodi:nodetypes="cscccccccccccccc"
             style="fill:url(#linearGradient5460)"
             d="m 40.31,313.22 c 139.89,-1.1756 279.95,-4.5918 416.76,33.242 1.1476,0.31736 2.2949,0.63762 3.4421,0.96081 14.771,21.649 39.708,12.8 60.261,17.101 l 0.81434,43.16 c -25.16,3.5389 -53.839,-4.6521 -63.519,50.489 l -1.931,3.029 c -9.5789,25.776 -24.757,43.712 -39.6,62.118 -15.015,15.845 -33.621,24.507 -52.932,31.759 -25.13,8.9519 -52.58,9.7825 -79.806,11.401 -27.394,-0.55403 -48.152,-4.4258 -69.219,-8.1434 -27.301,-4.7694 -40.64,-11.866 -55.375,-18.73 -28.15,-10.89 -39.32,-32.69 -52.92,-52.94 -15.922,-37.36 -24.02,-60.2 -32.572,-83.87 -0.846,-18.71 -15.128,-27.82 -30.945,-35.83 z" />
          <path
             id="path6049"
             d="m 40.31,313.22 c 139.89,-1.1756 279.95,-4.5918 416.76,33.242 1.1476,0.31736 2.2949,0.63762 3.4421,0.96081 14.771,21.649 39.708,12.8 60.261,17.101 l 0.81434,43.16 c -25.16,3.5389 -53.839,-4.6521 -63.519,50.489 l -1.931,3.029 c -9.5789,25.776 -24.757,43.712 -39.6,62.118 -15.015,15.845 -33.621,24.507 -52.932,31.759 -25.13,8.9519 -52.58,9.7825 -79.806,11.401 -27.394,-0.55403 -48.152,-4.4258 -69.219,-8.1434 -27.301,-4.7694 -40.64,-11.866 -55.375,-18.73 -28.15,-10.89 -39.32,-32.69 -52.92,-52.94 -15.922,-37.36 -24.02,-60.2 -32.572,-83.87 -0.846,-18.71 -15.128,-27.82 -30.945,-35.83 z"
             sodipodi:nodetypes="cscccccccccccccc"
             style="fill:url(#linearGradient5460)"
             inkscape:connector-curvature="0" />
          <path
             id="path6051"
             sodipodi:rx="17.41876"
             sodipodi:ry="10.508839"
             style="fill:#000000"
             sodipodi:type="arc"
             d="M 89.541059,354.11581 A 17.41876,10.508839 0 0 1 72.151203,364.62464 17.41876,10.508839 0 0 1 54.703635,354.15069 17.41876,10.508839 0 0 1 72.035587,343.60711 17.41876,10.508839 0 0 1 89.540676,354.04606"
             sodipodi:open="true"
             transform="matrix(0.83471,0,0,0.89041,3.2836,26.139)"
             sodipodi:cy="354.11581"
             sodipodi:cx="72.122299"
             sodipodi:end="6.2765478"
             sodipodi:start="0"
             sodipodi:arc-type="arc" />
          <path
             id="path6053"
             sodipodi:rx="17.41876"
             sodipodi:ry="10.508839"
             style="fill:url(#linearGradient5316)"
             sodipodi:type="arc"
             d="M 89.541059,354.11581 A 17.41876,10.508839 0 0 1 72.151203,364.62464 17.41876,10.508839 0 0 1 54.703635,354.15069 17.41876,10.508839 0 0 1 72.035587,343.60711 17.41876,10.508839 0 0 1 89.540676,354.04606"
             sodipodi:open="true"
             transform="matrix(0.83471,0,0,0.89041,3.2836,26.139)"
             sodipodi:cy="354.11581"
             sodipodi:cx="72.122299"
             sodipodi:end="6.2765478"
             sodipodi:start="0"
             sodipodi:arc-type="arc" />
          <path
             id="path6055"
             d="m 436.49,390.67 c -13.073,-25.112 -43.421,-38.928 -84.692,-45.603 -70.099,-13.401 -134.69,-9.1802 -199.51,-5.7004 -22.504,8.9976 -55.495,2.2638 -49.675,53.747 0.063,23.452 0.61722,46.833 8.1434,69.219 9.1709,25.626 26.67,48.476 55.375,67.59 24.714,10.197 50.226,18.53 78.177,21.173 34.137,3.1257 66.298,2.3016 96.092,-3.2574 20.532,-9.0696 36.11,-6.1053 70.848,-49.675 11.475,-19.769 24.511,-38.563 27.688,-63.519 z"
             sodipodi:nodetypes="ccccccccccc"
             style="fill:#ffffff"
             inkscape:connector-curvature="0" />
          <path
             id="path6057"
             sodipodi:rx="17.41876"
             sodipodi:ry="10.508839"
             style="fill:#000000"
             sodipodi:type="arc"
             d="M 89.541059,354.11581 A 17.41876,10.508839 0 0 1 72.151203,364.62464 17.41876,10.508839 0 0 1 54.703635,354.15069 17.41876,10.508839 0 0 1 72.035587,343.60711 17.41876,10.508839 0 0 1 89.540676,354.04606"
             sodipodi:open="true"
             transform="matrix(0.83471,0,0,0.89041,3.2836,26.139)"
             sodipodi:cy="354.11581"
             sodipodi:cx="72.122299"
             sodipodi:end="6.2765478"
             sodipodi:start="0"
             sodipodi:arc-type="arc" />
          <path
             id="path6059"
             sodipodi:rx="17.41876"
             sodipodi:ry="10.508839"
             style="fill:url(#linearGradient5316)"
             sodipodi:type="arc"
             d="M 89.541059,354.11581 A 17.41876,10.508839 0 0 1 72.151203,364.62464 17.41876,10.508839 0 0 1 54.703635,354.15069 17.41876,10.508839 0 0 1 72.035587,343.60711 17.41876,10.508839 0 0 1 89.540676,354.04606"
             sodipodi:open="true"
             transform="matrix(0.83471,0,0,0.89041,3.2836,26.139)"
             sodipodi:cy="354.11581"
             sodipodi:cx="72.122299"
             sodipodi:end="6.2765478"
             sodipodi:start="0"
             sodipodi:arc-type="arc" />
        </g>
        <path
           id="path6061"
           sodipodi:rx="167.56558"
           sodipodi:ry="25.336378"
           style="fill:url(#radialGradient5922)"
           sodipodi:type="arc"
           d="M 407.68533,593.22784 A 167.56558,25.336378 0 0 1 240.39781,618.56419 167.56558,25.336378 0 0 1 72.555091,593.31193 167.56558,25.336378 0 0 1 239.28559,567.89178 a 167.56558,25.336378 0 0 1 168.39605,25.1679"
           sodipodi:open="true"
           transform="matrix(1.0103,0,0,0.59091,39.56,231.17)"
           sodipodi:cy="593.22784"
           sodipodi:cx="240.11975"
           sodipodi:end="6.2765478"
           sodipodi:start="0"
           sodipodi:arc-type="arc" />
      </g>
    </g>
  </g>
  <g
     inkscape:groupmode="layer"
     id="layer2"
     inkscape:label="geld">
    <path
       id="path2100"
       style="fill:url(#linearGradient1092);fill-rule:evenodd;stroke:#000000;stroke-width:1.03837;fill-opacity:1"
       d="m 712.9666,135.17112 c -34.36162,0.0332 -61.84426,28.49067 -69.14416,65.0788 h -19.11932 l -5.25062,12.06313 h 22.74158 c -0.17724,2.42592 -0.27693,4.87398 -0.27693,7.34421 0,2.70285 0.13293,5.37246 0.36555,8.01993 h -17.57958 l -4.71891,12.42867 h 24.22593 c 8.24147,36.2115 37.8731,62.9409 72.79964,62.9409 17.05896,0 34.82686,-7.37745 49.80329,-19.28549 l -0.17723,-18.28852 c -11.54249,16.23923 -29.42116,24.79087 -49.62606,24.79087 -28.82299,0 -52.91599,-20.61476 -60.61468,-50.15776 h 85.77111 l 4.39766,-12.42867 h -92.36206 c -0.25477,-2.62531 -0.3877,-5.30601 -0.3877,-8.01993 0,-2.4813 0.11072,-4.94045 0.31017,-7.34421 h 98.02252 l 4.71891,-12.06313 h -100.9137 c 6.89005,-30.25195 29.77564,-51.7418 58.94203,-51.7418 20.18273,0 39.26882,8.71779 51.39841,25.0678 l 4.81859,-13.49209 c -16.07307,-13.74685 -36.12288,-24.27023 -56.217,-24.87949 -0.64248,-0.0106 -1.28496,-0.0332 -1.92744,-0.0332 z" />
    <g
       id="g1084"
       transform="matrix(1.4581598,0,0,1.4581598,165.07386,117.81625)"
       style="fill-opacity:1;fill:url(#linearGradient9023)">
      <path
         d="M 59.2,69.7 C 55.6,67.6 51.8,65.7 48.1,64 35.4,58 16.1,56.2 14.5,36.9 12.9,17.6 37.3,11.4 53.3,17.9 c 0,0 -8.7,8.9 0.8,14.6 9.8,5.7 16.2,-6.8 11.4,-12.8 C 53.2,4.1 20,11.3 8.8,26.8 -1.3,40.7 0.1,59.4 17.4,69.7 c 3.6,2.1 7.4,4 11.1,5.7 12.7,6 32,7.8 33.6,27.1 1.6,19.3 -22.8,25.5 -38.8,19 0,0 8.7,-8.9 -0.8,-14.6 -9.8,-5.7 -16.2,6.8 -11.4,12.8 12.4,15.5 45.5,8.4 56.7,-7.1 C 77.9,98.7 76.5,80 59.2,69.7 Z"
         id="path1061"
         style="fill-opacity:1.0;fill:url(#linearGradient9023)" />
      <g
         id="g1071"
         style="fill-opacity:1.0;fill:url(#linearGradient9023)">
	<g
   id="g1065"
   style="fill-opacity:1.0;fill:url(#linearGradient9023)">
		<rect
   x="40.599998"
   y="2.3"
   width="4.8000002"
   height="134.89999"
   id="rect1063"
   style="fill-opacity:1.0;fill:url(#linearGradient9023)" />

	</g>

	<g
   id="g1069"
   style="fill-opacity:1.0;fill:url(#linearGradient9023)">
		<rect
   x="31.1"
   y="2.3"
   width="4.8000002"
   height="134.89999"
   id="rect1067"
   style="fill-opacity:1.0;fill:url(#linearGradient9023)" />

	</g>

</g>
    </g>
  </g>
  <metadata
     id="metadata116">
    <rdf:RDF>
      <cc:Work>
        <dc:format>image/svg+xml</dc:format>
        <dc:type
           rdf:resource="http://purl.org/dc/dcmitype/StillImage" />
        <cc:license
           rdf:resource="http://creativecommons.org/publicdomain/zero/1.0/" />
        <dc:publisher>
          <cc:Agent
             rdf:about="http://openclipart.org/">
            <dc:title>Openclipart</dc:title>
          </cc:Agent>
        </dc:publisher>
      </cc:Work>
      <cc:License
         rdf:about="http://creativecommons.org/licenses/publicdomain/">
        <cc:permits
           rdf:resource="http://creativecommons.org/ns#Reproduction" />
        <cc:permits
           rdf:resource="http://creativecommons.org/ns#Distribution" />
        <cc:permits
           rdf:resource="http://creativecommons.org/ns#DerivativeWorks" />
      </cc:License>
    </rdf:RDF>
  </metadata>
</svg>
