<?xml version="1.0" encoding="UTF-8" standalone="no"?>
<!-- Created with Inkscape (http://www.inkscape.org/) -->

<svg
   width="426.30063mm"
   height="218.70447mm"
   viewBox="0 0 426.30064 218.70447"
   version="1.1"
   id="svg54048"
   inkscape:version="1.1.2 (0a00cf5339, 2022-02-04)"
   sodipodi:docname="enegie_voedingsindustrie.svg"
   xmlns:inkscape="http://www.inkscape.org/namespaces/inkscape"
   xmlns:sodipodi="http://sodipodi.sourceforge.net/DTD/sodipodi-0.dtd"
   xmlns="http://www.w3.org/2000/svg"
   xmlns:svg="http://www.w3.org/2000/svg">
  <sodipodi:namedview
     id="namedview54050"
     pagecolor="#ffffff"
     bordercolor="#666666"
     borderopacity="1.0"
     inkscape:pageshadow="2"
     inkscape:pageopacity="0.0"
     inkscape:pagecheckerboard="0"
     inkscape:document-units="mm"
     showgrid="true"
     inkscape:zoom="0.54488787"
     inkscape:cx="847.88086"
     inkscape:cy="192.7002"
     inkscape:window-width="1876"
     inkscape:window-height="1051"
     inkscape:window-x="0"
     inkscape:window-y="0"
     inkscape:window-maximized="1"
     inkscape:current-layer="layer1"
     showguides="true"
     inkscape:guide-bbox="true"
     inkscape:snap-grids="false">
    <inkscape:grid
       type="xygrid"
       id="grid107760"
       originx="73.642238"
       originy="-20.114076" />
    <sodipodi:guide
       position="354.1006,233.52689"
       orientation="1,0"
       id="guide108348" />
    <sodipodi:guide
       position="295.89227,212.36022"
       orientation="1,0"
       id="guide108350" />
    <sodipodi:guide
       position="204.11624,192.46596"
       orientation="1,0"
       id="guide111753" />
    <sodipodi:guide
       position="112.60956,191.5358"
       orientation="1,0"
       id="guide116424" />
    <sodipodi:guide
       position="425.84833,261.43498"
       orientation="1,0"
       id="guide12454" />
  </sodipodi:namedview>
  <defs
     id="defs54045" />
  <g
     inkscape:label="Layer 1"
     inkscape:groupmode="layer"
     id="layer1"
     transform="translate(73.642245,-20.114086)">
    <path
       style="fill:none;stroke:#0fc000;stroke-width:10.8;stroke-linecap:butt;stroke-linejoin:miter;stroke-miterlimit:4;stroke-dasharray:none;stroke-opacity:1"
       d="m 38.967307,39.263588 c 17.760564,0 69.072013,26.66011 91.506683,26.66011"
       id="path54142"
       sodipodi:nodetypes="cc" />
    <path
       style="fill:none;stroke:#0fc000;stroke-width:8.2;stroke-linecap:butt;stroke-linejoin:miter;stroke-miterlimit:4;stroke-dasharray:none;stroke-opacity:1"
       d="m 38.967307,64.010042 c 18.648572,0 75.230243,11.413928 91.506683,11.413928"
       id="path54142-9"
       sodipodi:nodetypes="cc" />
    <path
       style="fill:none;stroke:#1328bb;stroke-width:3.3;stroke-linecap:butt;stroke-linejoin:miter;stroke-miterlimit:4;stroke-dasharray:none;stroke-opacity:1"
       d="m 130.47399,24.292196 c 42.48,1.188907 72.89342,45.561612 91.76881,45.561612 9.77338,0 53.38652,-0.03883 58.21554,-0.03883"
       id="path54142-9-5"
       sodipodi:nodetypes="csc" />
    <path
       style="fill:none;stroke:#0fc000;stroke-width:10.5;stroke-linecap:butt;stroke-linejoin:miter;stroke-miterlimit:4;stroke-dasharray:none;stroke-opacity:1"
       d="m 38.967307,90.988923 c 18.997059,0 72.860163,-6.233157 91.506683,-6.233157"
       id="path54142-9-6"
       sodipodi:nodetypes="cc" />
    <path
       style="fill:none;stroke:#0fc000;stroke-width:8.4;stroke-linecap:butt;stroke-linejoin:miter;stroke-miterlimit:4;stroke-dasharray:none;stroke-opacity:1"
       d="m 38.967307,117.24838 c 19.685546,0 76.499313,-23.110329 91.506683,-23.110329"
       id="path54142-9-6-3"
       sodipodi:nodetypes="cc" />
    <path
       style="fill:none;stroke:#6e1c46;stroke-width:13.9;stroke-linecap:butt;stroke-linejoin:miter;stroke-miterlimit:4;stroke-dasharray:none;stroke-opacity:1"
       d="m 130.47399,177.85665 c 35.28779,0 73.49414,-14.75433 91.84596,-14.75433 27.71366,0 46.20946,-0.0516 58.13839,-0.0516"
       id="path54142-9-6-3-5"
       sodipodi:nodetypes="csc" />
    <path
       style="fill:none;stroke:#559d90;stroke-width:27.3;stroke-linecap:butt;stroke-linejoin:miter;stroke-miterlimit:4;stroke-dasharray:none;stroke-opacity:1"
       d="m 130.47399,225.16855 c 35.63096,0 68.49855,-41.46323 91.71369,-41.46323 14.07038,0 45.54581,-0.047 58.27066,-0.047"
       id="path54142-9-6-3-5-1"
       sodipodi:nodetypes="csc" />
    <path
       style="fill:none;stroke:#559d90;stroke-width:26;stroke-linecap:butt;stroke-linejoin:miter;stroke-miterlimit:4;stroke-dasharray:none;stroke-opacity:1"
       d="m 352.20607,141.33046 c -31.58678,0 -34.06509,42.32786 -71.74773,42.32786"
       id="path54142-9-6-3-5-1-2"
       sodipodi:nodetypes="cc" />
    <path
       style="fill:none;stroke:#d06015;stroke-width:47.6;stroke-linecap:butt;stroke-linejoin:miter;stroke-miterlimit:4;stroke-dasharray:none;stroke-opacity:1"
       d="m 130.47399,136.65434 c 78.77023,0 77.47802,-4.12074 93.35692,-4.30407 17.97768,-0.20755 47.30282,-0.0586 56.62742,-0.0586"
       id="path54142-9-6-3-8"
       sodipodi:nodetypes="csc" />
    <text
       xml:space="preserve"
       style="font-style:normal;font-weight:normal;font-size:10.5833px;line-height:1.25;font-family:sans-serif;fill:#000000;fill-opacity:1;stroke:none;stroke-width:0.264583"
       x="-74.603424"
       y="43.090748"
       id="text58330"><tspan
         sodipodi:role="line"
         id="tspan58328"
         style="stroke-width:0.264583"
         x="-74.603424"
         y="43.090748">brandstoffen (108 PJ)</tspan></text>
    <text
       xml:space="preserve"
       style="font-style:normal;font-weight:normal;font-size:10.5833px;line-height:1.25;font-family:sans-serif;fill:#000000;fill-opacity:1;stroke:none;stroke-width:0.264583"
       x="-55.607231"
       y="67.125435"
       id="text60380"><tspan
         sodipodi:role="line"
         id="tspan60378"
         style="stroke-width:0.264583"
         x="-55.607231"
         y="67.125435">kunstmest (82 PJ)</tspan></text>
    <text
       xml:space="preserve"
       style="font-style:normal;font-weight:normal;font-size:10.5833px;line-height:1.25;font-family:sans-serif;fill:#000000;fill-opacity:1;stroke:none;stroke-width:0.264583"
       x="-49.860832"
       y="94.078613"
       id="text61418"><tspan
         sodipodi:role="line"
         id="tspan61416"
         style="stroke-width:0.264583"
         x="-49.860832"
         y="94.078613">veevoer (105 PJ)</tspan></text>
    <text
       xml:space="preserve"
       style="font-style:normal;font-weight:normal;font-size:10.5833px;line-height:1.25;font-family:sans-serif;fill:#000000;fill-opacity:1;stroke:none;stroke-width:0.264583"
       x="-37.293159"
       y="119.83006"
       id="text62184"><tspan
         sodipodi:role="line"
         id="tspan62182"
         style="stroke-width:0.264583"
         x="-37.293159"
         y="119.83006">andere (84 PJ)</tspan></text>
    <text
       xml:space="preserve"
       style="font-style:normal;font-weight:normal;font-size:10.5833px;line-height:1.25;font-family:sans-serif;fill:#000000;fill-opacity:1;stroke:none;stroke-width:0.264583"
       x="-11.025776"
       y="140.4657"
       id="text88155"><tspan
         sodipodi:role="line"
         style="stroke-width:0.264583"
         x="-11.025776"
         y="140.4657"
         id="tspan88157">Voedingsindustrie (476 PJ)</tspan></text>
    <text
       xml:space="preserve"
       style="font-style:normal;font-weight:normal;font-size:10.5833px;line-height:1.25;font-family:sans-serif;fill:#000000;fill-opacity:1;stroke:none;stroke-width:0.264583"
       x="42.919079"
       y="180.60345"
       id="text90539"><tspan
         sodipodi:role="line"
         id="tspan90537"
         style="stroke-width:0.264583"
         x="42.919079"
         y="180.60345">Winkels (139 PJ)</tspan></text>
    <path
       style="fill:none;stroke:#0fc000;stroke-width:37.84;stroke-linecap:butt;stroke-linejoin:miter;stroke-miterlimit:4;stroke-dasharray:none;stroke-opacity:1"
       d="m 130.47399,79.45667 c 43.2871,0 72.02848,10.586105 91.79596,10.586105 15.22904,0 50.69597,-0.08444 58.18839,-0.08444"
       id="path54142-9-6-3-8-6"
       sodipodi:nodetypes="csc" />
    <path
       style="fill:none;stroke:#0fc000;stroke-width:13;stroke-linecap:butt;stroke-linejoin:miter;stroke-miterlimit:4;stroke-dasharray:none;stroke-opacity:1"
       d="M 352.20607,121.83234 C 311.59165,124.6655 314.70158,92.327423 280.45834,89.958335"
       id="path54142-9-6-3-8-6-2"
       sodipodi:nodetypes="cc" />
    <text
       xml:space="preserve"
       style="font-style:normal;font-weight:normal;font-size:10.5833px;line-height:1.25;font-family:sans-serif;fill:#000000;fill-opacity:1;stroke:none;stroke-width:0.264583"
       x="48.391598"
       y="231.07631"
       id="text95351"><tspan
         sodipodi:role="line"
         id="tspan95349"
         style="stroke-width:0.264583"
         x="48.391598"
         y="231.07631">Import (273 PJ)</tspan></text>
    <text
       xml:space="preserve"
       style="font-style:normal;font-weight:normal;font-size:10.5833px;line-height:1.25;font-family:sans-serif;fill:#000000;fill-opacity:1;stroke:none;stroke-width:0.264583"
       x="52.530865"
       y="28.154913"
       id="text100383"><tspan
         sodipodi:role="line"
         id="tspan100381"
         style="stroke-width:0.264583"
         x="52.530865"
         y="28.154913">Visserij (33 PJ)</tspan></text>
    <g
       aria-label="Landbouw (379 PJ)"
       transform="rotate(10.189859,-1.0461695,-21.595059)"
       id="text55224"
       style="font-size:10.5833px;line-height:1.25;stroke-width:0.264583">
      <path
         d="m 145.23277,47.758702 h 1.04386 v 6.83677 h 3.75686 v 0.878497 h -4.80072 z"
         id="path114779" />
      <path
         d="m 153.71801,52.564595 q -1.15238,0 -1.59679,0.263549 -0.44442,0.263549 -0.44442,0.899167 0,0.506427 0.33073,0.806149 0.33589,0.294555 0.9095,0.294555 0.79065,0 1.26607,-0.558104 0.48059,-0.563271 0.48059,-1.493444 v -0.211872 z m 1.89652,-0.39274 v 3.302114 h -0.95084 v -0.878497 q -0.32556,0.527098 -0.81132,0.780312 -0.48576,0.248046 -1.18855,0.248046 -0.88883,0 -1.41593,-0.496092 -0.52193,-0.50126 -0.52193,-1.338416 0,-0.976681 0.65112,-1.472773 0.65629,-0.496093 1.95336,-0.496093 h 1.33325 v -0.09302 q 0,-0.656289 -0.43408,-1.012855 -0.42892,-0.361734 -1.20923,-0.361734 -0.49609,0 -0.96634,0.118856 -0.47026,0.118855 -0.90434,0.356566 v -0.878497 q 0.52193,-0.201537 1.01286,-0.299722 0.49092,-0.103352 0.95601,-0.103352 1.25573,0 1.87585,0.651121 0.62011,0.651121 0.62011,1.974033 z"
         id="path114781" />
      <path
         d="m 162.38412,51.980653 v 3.493316 h -0.95084 v -3.46231 q 0,-0.821653 -0.32039,-1.229896 -0.3204,-0.408242 -0.96118,-0.408242 -0.76998,0 -1.21439,0.490924 -0.44442,0.490925 -0.44442,1.338416 v 3.271108 h -0.95601 v -5.787742 h 0.95601 v 0.899167 q 0.34106,-0.521931 0.80098,-0.780312 0.46509,-0.258381 1.0697,-0.258381 0.99735,0 1.50895,0.620115 0.51159,0.614947 0.51159,1.813837 z"
         id="path114783" />
      <path
         d="m 168.08918,50.564723 v -3.131582 h 0.95085 v 8.040828 h -0.95085 v -0.868162 q -0.29972,0.516763 -0.75964,0.769977 -0.45475,0.248046 -1.09553,0.248046 -1.04903,0 -1.71049,-0.837156 -0.65629,-0.837155 -0.65629,-2.201409 0,-1.364253 0.65629,-2.201409 0.66146,-0.837155 1.71049,-0.837155 0.64078,0 1.09553,0.253213 0.45992,0.248046 0.75964,0.764809 z m -3.2401,2.020542 q 0,1.049028 0.42891,1.648473 0.43409,0.594277 1.18856,0.594277 0.75447,0 1.18855,-0.594277 0.43408,-0.599445 0.43408,-1.648473 0,-1.049028 -0.43408,-1.643305 -0.43408,-0.599445 -1.18855,-0.599445 -0.75447,0 -1.18856,0.599445 -0.42891,0.594277 -0.42891,1.643305 z"
         id="path114785" />
      <path
         d="m 175.15333,52.585265 q 0,-1.049028 -0.43408,-1.643305 -0.42891,-0.599445 -1.18339,-0.599445 -0.75447,0 -1.18855,0.599445 -0.42892,0.594277 -0.42892,1.643305 0,1.049028 0.42892,1.648473 0.43408,0.594277 1.18855,0.594277 0.75448,0 1.18339,-0.594277 0.43408,-0.599445 0.43408,-1.648473 z m -3.23494,-2.020542 q 0.29973,-0.516763 0.75448,-0.764809 0.45992,-0.253213 1.09554,-0.253213 1.05419,0 1.71048,0.837155 0.66146,0.837156 0.66146,2.201409 0,1.364254 -0.66146,2.201409 -0.65629,0.837156 -1.71048,0.837156 -0.63562,0 -1.09554,-0.248046 -0.45475,-0.253214 -0.75448,-0.769977 v 0.868162 h -0.95601 v -8.040828 h 0.95601 z"
         id="path114787" />
      <path
         d="m 179.95922,50.35285 q -0.76481,0 -1.20922,0.599445 -0.44442,0.594277 -0.44442,1.63297 0,1.038693 0.43925,1.638138 0.44442,0.594277 1.21439,0.594277 0.75964,0 1.20406,-0.599445 0.44441,-0.599445 0.44441,-1.63297 0,-1.028358 -0.44441,-1.627802 -0.44442,-0.604613 -1.20406,-0.604613 z m 0,-0.806149 q 1.24023,0 1.9482,0.806149 0.70796,0.80615 0.70796,2.232415 0,1.421098 -0.70796,2.232415 -0.70797,0.80615 -1.9482,0.80615 -1.2454,0 -1.95336,-0.80615 -0.7028,-0.811317 -0.7028,-2.232415 0,-1.426265 0.7028,-2.232415 0.70796,-0.806149 1.95336,-0.806149 z"
         id="path114789" />
      <path
         d="m 184.09332,53.189877 v -3.50365 h 0.95085 v 3.467477 q 0,0.821653 0.32039,1.235063 0.32039,0.408242 0.96118,0.408242 0.76997,0 1.21439,-0.490924 0.44958,-0.490925 0.44958,-1.338415 v -3.281443 h 0.95085 v 5.787742 h -0.95085 v -0.888832 q -0.34623,0.527098 -0.80615,0.785479 -0.45475,0.253214 -1.05936,0.253214 -0.99735,0 -1.51411,-0.620116 -0.51677,-0.620115 -0.51677,-1.813837 z m 2.39261,-3.643176 z"
         id="path114791" />
      <path
         d="m 190.34615,49.686227 h 0.95084 l 1.18856,4.516505 1.18338,-4.516505 h 1.12138 l 1.18855,4.516505 1.18339,-4.516505 h 0.95084 l -1.51411,5.787742 h -1.12138 l -1.2454,-4.743882 -1.25056,4.743882 h -1.12138 z"
         id="path114793" />
      <path
         d="m 205.20308,47.443476 q -0.69246,1.188555 -1.02836,2.351271 -0.3359,1.162716 -0.3359,2.356437 0,1.193722 0.3359,2.366774 0.34106,1.167883 1.02836,2.35127 h -0.82682 q -0.77515,-1.214393 -1.16272,-2.387444 -0.3824,-1.173051 -0.3824,-2.3306 0,-1.15238 0.3824,-2.320264 0.38241,-1.167884 1.16272,-2.387444 z"
         id="path114795" />
      <path
         d="m 210.34487,51.314029 q 0.7493,0.160196 1.16788,0.666624 0.42374,0.506427 0.42374,1.250565 0,1.142046 -0.78547,1.767329 -0.78548,0.625283 -2.23242,0.625283 -0.48576,0 -1.00252,-0.09819 -0.51159,-0.09302 -1.05936,-0.28422 v -1.007687 q 0.43408,0.253214 0.95084,0.382404 0.51676,0.129191 1.08003,0.129191 0.98185,0 1.49345,-0.387572 0.51676,-0.387572 0.51676,-1.126543 0,-0.682126 -0.48059,-1.064531 -0.47542,-0.387572 -1.32808,-0.387572 h -0.89916 v -0.857826 h 0.9405 q 0.76998,0 1.17822,-0.30489 0.40824,-0.310057 0.40824,-0.888831 0,-0.594278 -0.42374,-0.909503 -0.41858,-0.320393 -1.20406,-0.320393 -0.42891,0 -0.91984,0.09302 -0.49092,0.09302 -1.08003,0.289387 v -0.930173 q 0.59428,-0.165364 1.11104,-0.248046 0.52193,-0.08268 0.98185,-0.08268 1.18855,0 1.88102,0.542601 0.69246,0.537433 0.69246,1.45727 0,0.640786 -0.3669,1.085202 -0.36691,0.439248 -1.04386,0.60978 z"
         id="path114797" />
      <path
         d="m 213.65215,47.758702 h 4.96092 v 0.444416 l -2.80085,7.270851 h -1.09037 l 2.63549,-6.836771 h -3.70519 z"
         id="path114799" />
      <path
         d="m 220.68012,55.313772 v -0.950843 q 0.39274,0.186034 0.79581,0.284219 0.40308,0.09819 0.79065,0.09819 1.03353,0 1.57613,-0.692462 0.54776,-0.697629 0.62528,-2.113559 -0.29972,0.444416 -0.75964,0.682127 -0.45992,0.23771 -1.01802,0.23771 -1.15755,0 -1.83451,-0.697629 -0.67179,-0.702797 -0.67179,-1.91719 0,-1.188554 0.70279,-1.906854 0.7028,-0.7183 1.87068,-0.7183 1.33842,0 2.04122,1.028358 0.70796,1.02319 0.70796,2.976553 0,1.824172 -0.86816,2.914541 -0.86299,1.085202 -2.32543,1.085202 -0.39274,0 -0.79582,-0.07751 -0.40307,-0.07751 -0.83715,-0.232543 z m 2.07738,-3.271108 q 0.7028,0 1.11104,-0.480589 0.41341,-0.480589 0.41341,-1.317745 0,-0.831988 -0.41341,-1.312577 -0.40824,-0.485757 -1.11104,-0.485757 -0.70279,0 -1.1162,0.485757 -0.40825,0.480589 -0.40825,1.312577 0,0.837156 0.40825,1.317745 0.41341,0.480589 1.1162,0.480589 z"
         id="path114801" />
      <path
         d="m 231.6975,48.616528 v 2.899038 h 1.31258 q 0.72863,0 1.12654,-0.377236 0.39791,-0.377237 0.39791,-1.074867 0,-0.692462 -0.39791,-1.069698 -0.39791,-0.377237 -1.12654,-0.377237 z m -1.04386,-0.857826 h 2.35644 q 1.29707,0 1.95853,0.589109 0.66662,0.583942 0.66662,1.715652 0,1.142046 -0.66662,1.725988 -0.66146,0.583941 -1.95853,0.583941 h -1.31258 v 3.100577 h -1.04386 z"
         id="path114803" />
      <path
         d="m 237.03566,47.758702 h 1.04386 v 7.177833 q 0,1.39526 -0.53227,2.02571 -0.5271,0.63045 -1.70015,0.63045 h -0.3979 v -0.878496 h 0.32556 q 0.69246,0 0.97668,-0.387572 0.28422,-0.387572 0.28422,-1.390092 z"
         id="path114805" />
      <path
         d="m 239.9657,47.443476 h 0.82682 q 0.77514,1.21956 1.15755,2.387444 0.38757,1.167884 0.38757,2.320264 0,1.157549 -0.38757,2.3306 -0.38241,1.173051 -1.15755,2.387444 h -0.82682 q 0.68729,-1.183387 1.02319,-2.35127 0.34106,-1.173052 0.34106,-2.366774 0,-1.193721 -0.34106,-2.356437 -0.3359,-1.162716 -1.02319,-2.351271 z"
         id="path114807" />
    </g>
    <text
       xml:space="preserve"
       style="font-style:normal;font-weight:normal;font-size:10.5833px;line-height:1.25;font-family:sans-serif;text-align:center;text-anchor:middle;fill:#b3b3b3;fill-opacity:1;stroke:#000000;stroke-width:0.265;stroke-miterlimit:4;stroke-dasharray:none;stroke-opacity:1"
       x="-132.73737"
       y="251.87495"
       id="text120808"
       transform="rotate(-90)"><tspan
         sodipodi:role="line"
         id="tspan120806"
         style="text-align:center;text-anchor:middle;fill:#b3b3b3;stroke:#000000;stroke-width:0.265;stroke-miterlimit:4;stroke-dasharray:none;stroke-opacity:1"
         x="-132.73737"
         y="251.87495">Totaal energieverbruik</tspan><tspan
         sodipodi:role="line"
         style="text-align:center;text-anchor:middle;fill:#b3b3b3;stroke:#000000;stroke-width:0.265;stroke-miterlimit:4;stroke-dasharray:none;stroke-opacity:1"
         x="-132.73737"
         y="265.10406"
         id="tspan1863">(1300 PJ)</tspan></text>
    <text
       xml:space="preserve"
       style="font-style:normal;font-weight:normal;font-size:10.5833px;line-height:1.25;font-family:sans-serif;text-align:center;text-anchor:middle;fill:#b3b3b3;fill-opacity:1;stroke:#000000;stroke-width:0.265;stroke-miterlimit:4;stroke-dasharray:none;stroke-opacity:1"
       x="-132.73622"
       y="334.95648"
       id="text120808-6"
       transform="rotate(-90)"><tspan
         sodipodi:role="line"
         id="tspan120806-1"
         style="text-align:center;text-anchor:middle;fill:#b3b3b3;stroke:#000000;stroke-width:0.265;stroke-miterlimit:4;stroke-dasharray:none;stroke-opacity:1"
         x="-132.73622"
         y="334.95648">Totaal gegeten</tspan><tspan
         sodipodi:role="line"
         style="text-align:center;text-anchor:middle;fill:#b3b3b3;stroke:#000000;stroke-width:0.265;stroke-miterlimit:4;stroke-dasharray:none;stroke-opacity:1"
         x="-132.73622"
         y="348.18561"
         id="tspan1863-0">(392 PJ)</tspan></text>
    <path
       style="fill:none;stroke:#1328bb;stroke-width:3.3;stroke-linecap:butt;stroke-linejoin:miter;stroke-miterlimit:4;stroke-dasharray:none;stroke-opacity:1"
       d="m 130.47399,24.292196 c 42.48,1.188907 72.89342,45.561612 91.76881,45.561612 9.77338,0 53.38652,-0.03883 58.21554,-0.03883"
       id="path9471"
       sodipodi:nodetypes="csc" />
    <path
       style="fill:none;stroke:#1328bb;stroke-width:0.17;stroke-linecap:butt;stroke-linejoin:miter;stroke-miterlimit:4;stroke-dasharray:none;stroke-opacity:1"
       d="m 352.20607,115.33779 c -19.8845,0 -35.36778,-45.522812 -71.74773,-45.522812"
       id="path9471-7"
       sodipodi:nodetypes="cc" />
  </g>
</svg>
